<svg xmlns="http://www.w3.org/2000/svg" width="37" height="37" viewBox="0 0 37 37" fill="none"><path fill-rule="evenodd" clip-rule="evenodd" d="M15.7097 21.1508C13.433 18.874 11.7166 16.3248 10.5763 13.7386C10.3369 13.1918 10.477 12.5516 10.8993 12.1293L12.4931 10.5356C13.7988 9.22982 13.7988 7.3831 12.6585 6.24277L10.3758 3.96016C8.85605 2.44036 6.39247 2.44036 4.87267 3.96016L3.60391 5.22698C2.16195 6.66894 1.56065 8.74917 1.94984 10.8119C2.91114 15.8967 5.86511 21.4641 10.6308 26.2297C15.3964 30.9954 20.9638 33.9493 26.0486 34.9107C28.1113 35.2998 30.1916 34.6985 31.6335 33.2566L32.9003 31.9898C34.4201 30.47 34.4201 28.0064 32.9003 26.4866L30.6177 24.204C29.4774 23.0637 27.6287 23.0637 26.4903 24.204L24.7331 25.9631C24.3109 26.3854 23.6706 26.5275 23.1238 26.2862C20.5377 25.1439 17.9865 23.4256 15.7097 21.1508Z" stroke="white" stroke-width="3" stroke-linecap="round" stroke-linejoin="round"></path><path d="M26.2015 15.1809C26.2015 15.1809 26.2015 13.5119 24.2873 11.6412C22.459 9.81287 20.8335 9.81287 20.8335 9.81287" stroke="white" stroke-width="3" stroke-linecap="round" stroke-linejoin="round"></path><path d="M34.04 15.206C34.04 15.206 33.8288 10.9958 29.3307 6.49766C24.8325 1.99951 20.8335 1.99951 20.8335 1.99951" stroke="white" stroke-width="3" stroke-linecap="round" stroke-linejoin="round"></path></svg>