<svg width="18" height="20" viewBox="0 0 18 20" fill="none" xmlns="http://www.w3.org/2000/svg">
<path fill-rule="evenodd" clip-rule="evenodd" d="M2.99748 1.74609C2.30666 1.74609 1.74664 2.30611 1.74664 2.99693C1.74664 3.68774 2.30666 4.24776 2.99748 4.24776H15.0025C16.5217 4.24776 17.7533 5.47935 17.7533 6.99859V17.0028C17.7533 18.522 16.5217 19.7536 15.0025 19.7536H2.99748C1.47823 19.7536 0.246643 18.522 0.246643 17.0028V2.99693C0.246643 1.47768 1.47823 0.246094 2.99748 0.246094H16.0029C16.4171 0.246094 16.7529 0.58188 16.7529 0.996094C16.7529 1.41031 16.4171 1.74609 16.0029 1.74609H2.99748ZM1.74664 5.44758V17.0028C1.74664 17.6936 2.30666 18.2536 2.99748 18.2536H15.0025C15.6933 18.2536 16.2533 17.6936 16.2533 17.0028V6.99859C16.2533 6.30778 15.6933 5.74776 15.0025 5.74776H2.99748C2.54705 5.74776 2.1219 5.6395 1.74664 5.44758Z" fill="white"/>
<path fill-rule="evenodd" clip-rule="evenodd" d="M4.99835 4.24805C5.41257 4.24805 5.74835 4.58383 5.74835 4.99805V8.7866L6.66377 8.32889C6.87492 8.22332 7.12345 8.22332 7.3346 8.32889L8.25002 8.7866V4.99805C8.25002 4.58383 8.5858 4.24805 9.00002 4.24805C9.41423 4.24805 9.75002 4.58383 9.75002 4.99805V10.0001C9.75002 10.2601 9.61543 10.5015 9.39432 10.6381C9.1732 10.7748 8.8971 10.7872 8.66461 10.671L6.99919 9.83824L5.33376 10.671C5.10127 10.7872 4.82517 10.7748 4.60405 10.6381C4.38294 10.5015 4.24835 10.2601 4.24835 10.0001V4.99805C4.24835 4.58383 4.58414 4.24805 4.99835 4.24805Z" fill="white"/>
</svg>
