<svg xmlns="http://www.w3.org/2000/svg" xmlns:xlink="http://www.w3.org/1999/xlink" id="Layer_1" x="0px" y="0px" viewBox="0 0 456 253" style="enable-background:new 0 0 456 253;" xml:space="preserve">  <style type="text/css">	.st0{clip-path:url(#SVGID_00000137836051791910623200000008549492857156540298_);}	.st1{clip-path:url(#SVGID_00000065032747646950149410000003685841129415222170_);}	.st2{fill:#1D202D;stroke:#323335;}	.st3{fill:url(#SVGID_00000150093935843509652810000012017828207257063865_);}</style>  <g>	<g>		<defs>			<path id="SVGID_1_" d="M18,0.5h420c9.7,0,17.5,7.8,17.5,17.5v217c0,9.7-7.8,17.5-17.5,17.5H18c-9.7,0-17.5-7.8-17.5-17.5V18    C0.5,8.3,8.3,0.5,18,0.5z"></path>		</defs>		<clipPath id="SVGID_00000089570585029639151050000005480869350637005991_">			<use xlink:href="#SVGID_1_" style="overflow:visible;"></use>		</clipPath>		<g style="clip-path:url(#SVGID_00000089570585029639151050000005480869350637005991_);">			<g>				<defs>					<polygon id="SVGID_00000182497685118601034000000011652177831523454866_" points="-19,-19 -18,-19 -19,-18      "></polygon>				</defs>				<defs>					<polygon id="SVGID_00000155847558980520962140000016741495075020273058_" points="-21,-21 -22,-21 -21,-22      "></polygon>				</defs>				<clipPath id="SVGID_00000106125367201229844950000014715921048937127058_">					<use xlink:href="#SVGID_00000182497685118601034000000011652177831523454866_" style="overflow:visible;"></use>				</clipPath>									<clipPath id="SVGID_00000087386123347064150640000008976903122258164613_" style="clip-path:url(#SVGID_00000106125367201229844950000014715921048937127058_);">					<use xlink:href="#SVGID_00000155847558980520962140000016741495075020273058_" style="overflow:visible;"></use>				</clipPath>			</g>		</g>	</g></g>  <path class="st2" d="M18,0.5h420c9.7,0,17.5,7.8,17.5,17.5v217c0,9.7-7.8,17.5-17.5,17.5H18c-9.7,0-17.5-7.8-17.5-17.5V18 C0.5,8.3,8.3,0.5,18,0.5z"></path>  <linearGradient id="SVGID_00000012444844060776448730000005487764031249106332_" gradientUnits="userSpaceOnUse" x1="227.6662" y1="193.89" x2="227.6662" y2="60.89" gradientTransform="matrix(1 0 0 -1 0 253.89)">	<stop offset="0" style="stop-color:#4AD9A6"></stop>	<stop offset="1" style="stop-color:#1DBD84"></stop></linearGradient>  <path style="fill:url(#SVGID_00000012444844060776448730000005487764031249106332_);" d="M78.6,182l10.6-11.2h25.5l10,11.2H78.6z  M75.5,131.3L86.6,142v25.3l-11.2,10.1V131.3z M128.1,177.5l-11.2-10.6v-25.4l11.2-10.1V177.5z M78.4,77h46.2l-10.2,11.2H89.1 L78.4,77z M75.1,127.6V81.4l11.2,10v25.6L75.1,127.6z M127.8,81.4v46.2l-11.2-10V92.1L127.8,81.4z M141.6,182l10.6-11.2h25.5 l10,11.2H141.6z M138.5,131.3l11.2,10.8v25.3l-11.2,10.1V131.3z M150.5,135c-2.4-1.9-4.9-3.8-7.3-5.7l7.3-5.5h28.2l7.2,5.5l-7.2,5.7 H150.5z M141.5,77h46.2l-10.2,11.2h-25.3L141.5,77z M190.8,81.4v46.2l-11.2-10V92.1L190.8,81.4z M221.2,130.2h13v12.9h-13V130.2z  M221.2,99.5h13v13.2h-13V99.5z M267.6,182l10.6-11.2h25.5l10,11.2H267.6z M264.5,131.3l11.2,10.8v25.3l-11.2,10.1V131.3z  M276.5,135c-2.4-1.9-4.9-3.8-7.3-5.7l7.3-5.5h28.2l7.2,5.5l-7.2,5.7H276.5z M267.5,77h46.2l-10.2,11.2h-25.3L267.5,77z M316.9,81.4 v46.2l-11.2-10V92.1L316.9,81.4z M330.7,182l10.6-11.2h25.5l10,11.2H330.7z M327.6,131.3l11.2,10.8v25.3l-11.2,10.1V131.3z  M380.2,177.5L369,166.8v-25.4l11.2-10.1V177.5z M330.6,77h46.2l-10.2,11.2h-25.3L330.6,77z M327.3,127.6V81.4l11.2,10v25.6 L327.3,127.6z M379.9,81.4v46.2l-11.2-10V92.1L379.9,81.4z"></path></svg>