<svg xmlns="http://www.w3.org/2000/svg" xmlns:xlink="http://www.w3.org/1999/xlink" x="0px" y="0px" viewBox="0 0 456 253" style="enable-background:new 0 0 456 253;" xml:space="preserve">  <style type="text/css">	.st0{clip-path:url(#SVGID_00000032621248052372894050000012518783174405486503_);}	.st1{fill:#1D202D;stroke:#323335;}	.st2{fill:#111111;stroke:#323335;}	.st3{fill:#FFFFFF;}	.st4{fill:none;stroke:url(#SVGID_00000030446028494130875580000008992062821258691226_);}	.st5{fill:none;stroke:url(#SVGID_00000081629440988186854840000013903286392877342888_);}	.st6{fill:url(#SVGID_00000137117139253337034970000016039488471449059215_);}	.st7{fill:url(#SVGID_00000169520794173150217930000015969528267830419101_);}	.st8{fill:none;stroke:#FFFFFF;stroke-width:1.5;stroke-linecap:round;stroke-linejoin:round;}	.st9{fill:none;stroke:url(#SVGID_00000155842734934568800470000003748649051017829794_);}	.st10{fill:url(#SVGID_00000075884821207785455150000000290901873478438544_);}	.st11{fill:url(#SVGID_00000164498035358944238060000002455462209603740800_);}	.st12{fill:url(#SVGID_00000034787285435769859000000016642473640211830411_);}</style>  <g id="Layer_1"></g>  <g id="Layer_2">	<g>		<defs>			<path id="SVGID_1_" d="M437.2,253H18.8C8.4,253,0,244.6,0,234.2V18.8C0,8.4,8.4,0,18.8,0h418.3C447.6,0,456,8.4,456,18.8v215.3    C456,244.6,447.6,253,437.2,253z"></path>		</defs>		<clipPath id="SVGID_00000085218840952578929050000007236207748073619371_">			<use xlink:href="#SVGID_1_" style="overflow:visible;"></use>		</clipPath>		<g style="clip-path:url(#SVGID_00000085218840952578929050000007236207748073619371_);">			<path class="st1" d="M18,0.5h420c9.7,0,17.5,7.8,17.5,17.5v217c0,9.7-7.8,17.5-17.5,17.5H18c-9.7,0-17.5-7.8-17.5-17.5V18    C0.5,8.3,8.3,0.5,18,0.5z"></path>			<circle class="st2" cx="257" cy="61" r="24.5"></circle>			<path class="st3" d="M264.9,53H249v4.2h2.5v-1.7h12v1.7h2.5V53H264.9z M263.5,67.5h-12v-1.7H249V70h17v-4.2h-2.5V67.5z"></path>							<linearGradient id="SVGID_00000164513590015385221450000010646965542546440587_" gradientUnits="userSpaceOnUse" x1="387" y1="405.39" x2="250" y2="405.39" gradientTransform="matrix(6.123234e-17 1 1 -6.123234e-17 -261.89 -157)">				<stop offset="0" style="stop-color:#4D7BFF;stop-opacity:0"></stop>				<stop offset="1" style="stop-color:#4AD9A5"></stop>			</linearGradient>							<circle style="fill:none;stroke:url(#SVGID_00000164513590015385221450000010646965542546440587_);" cx="143.5" cy="211.5" r="118"></circle>							<linearGradient id="SVGID_00000094593297399871752090000004603277937366457513_" gradientUnits="userSpaceOnUse" x1="114.1449" y1="416.7874" x2="59.6449" y2="339.7874" gradientTransform="matrix(6.123234e-17 -1 -1 -6.123234e-17 725.89 205)">				<stop offset="0" style="stop-color:#F03F50"></stop>				<stop offset="1" style="stop-color:#FF883F;stop-opacity:0"></stop>			</linearGradient>							<circle style="fill:none;stroke:url(#SVGID_00000094593297399871752090000004603277937366457513_);" cx="407.5" cy="160.5" r="111"></circle>							<linearGradient id="SVGID_00000150083149708311725410000013044666933556879037_" gradientUnits="userSpaceOnUse" x1="167" y1="41.89" x2="117" y2="41.89" gradientTransform="matrix(1 0 0 -1 0 253.89)">				<stop offset="0" style="stop-color:#4D7BFF"></stop>				<stop offset="1" style="stop-color:#4AD9A5"></stop>			</linearGradient>			<circle style="fill:url(#SVGID_00000150083149708311725410000013044666933556879037_);" cx="142" cy="212" r="25"></circle>							<linearGradient id="SVGID_00000080191360413064505410000013114917592102468794_" gradientUnits="userSpaceOnUse" x1="382" y1="92.89" x2="432" y2="92.89" gradientTransform="matrix(1 0 0 -1 0 253.89)">				<stop offset="0" style="stop-color:#FF883F"></stop>				<stop offset="1" style="stop-color:#F03F50"></stop>			</linearGradient>			<circle style="fill:url(#SVGID_00000080191360413064505410000013114917592102468794_);" cx="407" cy="161" r="25"></circle>			<path class="st8" d="M407,169c4.4,0,8-3.6,8-8s-3.6-8-8-8s-8,3.6-8,8S402.6,169,407,169z"></path>			<path class="st8" d="M408.8,159.7c0.9,0,1.7-0.8,1.7-1.7c0-0.9-0.8-1.7-1.7-1.7s-1.7,0.8-1.7,1.7    C407.1,158.9,407.9,159.7,408.8,159.7z"></path>			<path class="st8" d="M404.2,164.7c0.5,0,0.9-0.4,0.9-0.9c0-0.5-0.4-0.9-0.9-0.9s-0.9,0.4-0.9,0.9    C403.3,164.3,403.7,164.7,404.2,164.7z"></path>			<path class="st3" d="M403.5,160c0.3,0,0.5-0.2,0.5-0.5s-0.2-0.5-0.5-0.5s-0.5,0.2-0.5,0.5S403.2,160,403.5,160z"></path>			<path class="st8" d="M410.5,164c0.3,0,0.5-0.2,0.5-0.5s-0.2-0.5-0.5-0.5s-0.5,0.2-0.5,0.5S410.2,164,410.5,164z"></path>			<path class="st8" d="M141.8,219.2c4.3,0,7.8-3.5,7.8-7.8c0-4.3-3.5-7.8-7.8-7.8s-7.8,3.5-7.8,7.8    C134,215.7,137.5,219.2,141.8,219.2z"></path>			<path class="st8" d="M135.7,216.3c-1.3,2.1-1.9,3.6-1.4,4c0.9,0.8,5.1-2.4,9.4-7.1c4.3-4.7,7-9.3,6.1-10.1    c-0.5-0.4-1.9,0.3-3.8,1.7"></path>							<linearGradient id="SVGID_00000009577153632208066250000006385157958907897488_" gradientUnits="userSpaceOnUse" x1="257" y1="241.89" x2="257" y2="80.89" gradientTransform="matrix(1 0 0 -1 0 253.89)">				<stop offset="0" style="stop-color:#FFFFFF;stop-opacity:0"></stop>				<stop offset="1" style="stop-color:#FFFFFF"></stop>			</linearGradient>							<circle style="fill:none;stroke:url(#SVGID_00000009577153632208066250000006385157958907897488_);" cx="257" cy="61.5" r="111"></circle>							<linearGradient id="SVGID_00000145778856996142852190000005882254414897421987_" gradientUnits="userSpaceOnUse" x1="368" y1="214.3487" x2="368" y2="180.3487" gradientTransform="matrix(1 0 0 -1 0 253.89)">				<stop offset="0" style="stop-color:#4AD9A6"></stop>				<stop offset="1" style="stop-color:#1DBD84"></stop>			</linearGradient>			<circle style="fill:url(#SVGID_00000145778856996142852190000005882254414897421987_);" cx="368" cy="56.5" r="17"></circle>			<path class="st3" d="M365,53.3l-4.2-1.9c0.4-0.3,0.9-0.6,1.7-1.1l2.9-1.7c1.3-0.7,1.9-1.1,2.5-1.1c0.7,0,1.3,0.4,2.5,1.1l2.9,1.7    c0.8,0.4,1.3,0.8,1.7,1.1l-4.2,1.9l-2.9-1.5L365,53.3L365,53.3z"></path>			<path class="st3" d="M364,58.4l3,1.7v5c-0.4-0.2-0.9-0.5-1.6-0.9l-2.9-1.7c-1.2-0.7-1.8-1.1-2.2-1.7c-0.3-0.6-0.3-1.3-0.3-2.7    v-3.4c0-0.7,0-1.2,0-1.6l3.9,1.7L364,58.4L364,58.4z"></path>			<path class="st3" d="M376,54.7v3.4c0,1.4,0,2.1-0.3,2.7c-0.3,0.6-1,0.9-2.2,1.7l-2.9,1.7c-0.7,0.4-1.2,0.7-1.6,0.9v-5l3-1.8v-3.5    l4-1.7C376,53.6,376,54.1,376,54.7L376,54.7z"></path>			<g>									<linearGradient id="SVGID_00000122721136376064814960000016533270169648359575_" gradientUnits="userSpaceOnUse" x1="132.9915" y1="163.0356" x2="169.0085" y2="160.7444" gradientTransform="matrix(1 0 0 -1 0 253.89)">					<stop offset="0" style="stop-color:#3461FF"></stop>					<stop offset="1" style="stop-color:#987AF2"></stop>				</linearGradient>				<circle style="fill:url(#SVGID_00000122721136376064814960000016533270169648359575_);" cx="151" cy="92" r="17"></circle>			</g>			<path class="st3" d="M147.1,89.8l-3.1,1.8v-1.4c0-1.2,0-1.9,0.3-2.4c0.3-0.5,0.8-0.8,1.9-1.4l2.6-1.5c1.1-0.6,1.6-0.9,2.2-0.9    s1.1,0.3,2.2,0.9l2.6,1.5c1.1,0.6,1.6,0.9,1.9,1.4c0.1,0.1,0.1,0.2,0.2,0.4l-6.3,3.7l-3.5-2C147.8,89.6,147.4,89.6,147.1,89.8    L147.1,89.8z"></path>			<path class="st3" d="M158,90.2v2.9c0,1.2,0,1.9-0.3,2.4c-0.3,0.5-0.8,0.8-1.9,1.4l-2.6,1.5c-1.1,0.6-1.6,0.9-2.2,0.9    s-1.1-0.3-2.2-0.9l-2.6-1.5c-1.1-0.6-1.6-0.9-1.9-1.4c-0.2-0.4-0.3-0.9-0.3-1.8l3.6-2.1l3.4,2c0.3,0.2,0.7,0.2,0.9,0L158,90.2z"></path>							<linearGradient id="SVGID_00000082359901338196541640000006382937488285753232_" gradientUnits="userSpaceOnUse" x1="258" y1="98.89" x2="258" y2="64.89" gradientTransform="matrix(1 0 0 -1 0 253.89)">				<stop offset="0" style="stop-color:#B14EFF"></stop>				<stop offset="1" style="stop-color:#532792"></stop>			</linearGradient>			<circle style="fill:url(#SVGID_00000082359901338196541640000006382937488285753232_);" cx="258" cy="172" r="17"></circle>			<path class="st3" d="M257.9,165.8l1.6,5.4l5.4,1.6l-5.4,1.6l-1.6,5.4l-1.6-5.4l-5.4-1.6l5.4-1.6L257.9,165.8z"></path>			<path class="st3" d="M263.5,165l0.6,2l2,0.6l-2,0.6l-0.6,2l-0.6-2l-2-0.6l2-0.6L263.5,165z"></path>		</g>	</g></g></svg>