<svg xmlns="http://www.w3.org/2000/svg" xmlns:xlink="http://www.w3.org/1999/xlink" id="Layer_1" x="0px" y="0px" viewBox="0 0 455 252.5" style="enable-background:new 0 0 455 252.5;" xml:space="preserve">  <style type="text/css">	.st0{clip-path:url(#SVGID_00000031905573322866059100000016391710914420665530_);}	.st1{fill:#1D202D;stroke:#323335;}	.st2{fill:none;stroke:#4D7BFF;stroke-width:2;}	.st3{fill:#4D7BFF;}	.st4{filter:url(#Adobe_OpacityMaskFilter);}	.st5{clip-path:url(#SVGID_00000072257715776408964970000008989729196020784554_);}	.st6{clip-path:url(#SVGID_00000163789976076028824840000003621274519578546331_);}	.st7{clip-path:url(#SVGID_00000145756982712751589260000009085498505098551993_);}	.st8{clip-path:url(#SVGID_00000147936049524322774370000016576786969514611383_);}	.st9{fill:#1D202D;fill-opacity:0.7;stroke:#323335;}	.st10{mask:url(#mask0_5376_20195_00000141448643438646040290000000643188576773761441_);}	.st11{fill:none;stroke:#5A6075;stroke-width:0.5714;}</style>  <g>	<defs>		<path id="SVGID_1_" d="M437.8,253H17.2C7.7,253,0,245.3,0,235.8V17.2C0,7.7,7.7,0,17.2,0h420.7c9.5,0,17.2,7.7,17.2,17.2v218.7   C455,245.3,447.3,253,437.8,253z"></path>	</defs>	<clipPath id="SVGID_00000115491039225264493230000007403292353701960320_">		<use xlink:href="#SVGID_1_" style="overflow:visible;"></use>	</clipPath>	<g style="clip-path:url(#SVGID_00000115491039225264493230000007403292353701960320_);">		<path class="st1" d="M17.5,0h420c9.7,0,17.5,7.8,17.5,17.5v217c0,9.7-7.8,17.5-17.5,17.5h-420C7.8,252,0,244.2,0,234.5v-217   C0,7.8,7.8,0,17.5,0z"></path>		<path class="st2" d="M458.3,28.8l-41.4-13.6l-42.6,115.3l-42.6,8.3l-40.8,1.2l-43.2,38.4h-41.4l-42-16.6l-42-45l-42,110l-42.6,16   l-42.6,9.5"></path>		<circle class="st3" cx="39" cy="242" r="4"></circle>					<ellipse transform="matrix(1 -3.649572e-03 3.649572e-03 1 -0.9233 -1.389217e-02)" class="st3" cx="-4.3" cy="253" rx="4.7" ry="4.7"></ellipse>		<circle class="st3" cx="80" cy="226" r="4"></circle>		<circle class="st3" cx="123" cy="118" r="4"></circle>		<circle class="st3" cx="164" cy="161" r="4"></circle>		<circle class="st3" cx="206" cy="178" r="4"></circle>		<circle class="st3" cx="249" cy="178" r="4"></circle>		<circle class="st3" cx="291" cy="140" r="4"></circle>		<circle class="st3" cx="333" cy="139" r="4"></circle>		<circle class="st3" cx="374" cy="130" r="4"></circle>		<circle class="st3" cx="417" cy="16" r="4"></circle>		<circle class="st3" cx="458.3" cy="28.2" r="4.7"></circle>		<defs>			<filter id="Adobe_OpacityMaskFilter" filterUnits="userSpaceOnUse" x="-9" y="-3.9" width="472" height="260.8">							</filter>		</defs>					<mask maskUnits="userSpaceOnUse" x="-9" y="-3.9" width="472" height="260.8" id="mask0_5376_20195_00000141448643438646040290000000643188576773761441_">			<g class="st4">				<g>					<defs>						<polygon id="SVGID_00000145041128505599923980000006315913598040117434_" points="0,1 1,1 0,2       "></polygon>					</defs>					<defs>						<polygon id="SVGID_00000097478201952958769600000018239634286492280200_" points="-2,-1 -3,-1 -2,-2       "></polygon>					</defs>					<defs>						<path id="SVGID_00000141450260709471505710000014388449475687431044_" d="M17,0.5h420c9.7,0,17.5,7.8,17.5,17.5v217       c0,9.7-7.8,17.5-17.5,17.5H17c-9.7,0-17.5-7.8-17.5-17.5V18C-0.5,8.3,7.3,0.5,17,0.5z"></path>					</defs>					<clipPath id="SVGID_00000145744792164678881240000014010704972977860751_">						<use xlink:href="#SVGID_00000145041128505599923980000006315913598040117434_" style="overflow:visible;"></use>					</clipPath>											<clipPath id="SVGID_00000018234078321461602260000008611272116607985066_" style="clip-path:url(#SVGID_00000145744792164678881240000014010704972977860751_);">						<use xlink:href="#SVGID_00000097478201952958769600000018239634286492280200_" style="overflow:visible;"></use>					</clipPath>											<clipPath id="SVGID_00000041264302949613549380000011069040641825390505_" style="clip-path:url(#SVGID_00000018234078321461602260000008611272116607985066_);">						<use xlink:href="#SVGID_00000141450260709471505710000014388449475687431044_" style="overflow:visible;"></use>					</clipPath>					<g>						<g>							<defs>								<polygon id="SVGID_00000091729073336784513690000008345682763646026939_" points="0,1 1,1 0,2         "></polygon>							</defs>							<defs>								<polygon id="SVGID_00000057850101843528235620000015998880305227536039_" points="-2,-1 -3,-1 -2,-2         "></polygon>							</defs>															<clipPath id="SVGID_00000028322408010720205070000012557134655877960863_" style="clip-path:url(#SVGID_00000041264302949613549380000011069040641825390505_);">								<use xlink:href="#SVGID_00000091729073336784513690000008345682763646026939_" style="overflow:visible;"></use>							</clipPath>															<clipPath id="SVGID_00000126291948197535142910000008579986932278532260_" style="clip-path:url(#SVGID_00000028322408010720205070000012557134655877960863_);">								<use xlink:href="#SVGID_00000057850101843528235620000015998880305227536039_" style="overflow:visible;"></use>							</clipPath>						</g>					</g>				</g>			</g>			<path class="st9" d="M17,0.5h420c9.7,0,17.5,7.8,17.5,17.5v217c0,9.7-7.8,17.5-17.5,17.5H17c-9.7,0-17.5-7.8-17.5-17.5V18    C-0.5,8.3,7.3,0.5,17,0.5z"></path>		</mask>		<g class="st10">			<path class="st11" d="M-9,41.2h472"></path>			<path class="st11" d="M38.9,257V-3.9"></path>			<path class="st11" d="M-9,83.8h472"></path>			<path class="st11" d="M-9,126.4h472"></path>			<path class="st11" d="M-9,169h472"></path>			<path class="st11" d="M-9,211.6h472"></path>			<path class="st11" d="M80.3,257V-3.9"></path>			<path class="st11" d="M122.8,257V-3.9"></path>			<path class="st11" d="M164.2,257V-3.9"></path>			<path class="st11" d="M206.6,257V-3.9"></path>			<path class="st11" d="M249,257V-3.9"></path>			<path class="st11" d="M290.4,257V-3.9"></path>			<path class="st11" d="M332.9,257V-3.9"></path>			<path class="st11" d="M374.3,257V-3.9"></path>			<path class="st11" d="M416.7,257V-3.9"></path>		</g>	</g></g></svg>