<svg xmlns="http://www.w3.org/2000/svg" id="Layer_1" viewBox="0 0 1891.02 1085"><defs><style>      .st0 {        fill: #623fb5;        fill-opacity: .12;      }      .st1 {        fill-opacity: .25;      }      .st2 {        fill: #80828a;      }      .st3 {        fill: #e18f3d;      }      .st4 {        stroke: #434346;      }      .st4, .st5, .st6, .st7, .st8, .st9, .st10, .st11 {        fill: none;      }      .st5 {        stroke-opacity: .1;      }      .st5, .st10 {        stroke: #797b85;      }      .st6 {        stroke: #4d7bff;        stroke-width: 3px;      }      .st7 {        stroke: #785cbc;      }      .st7, .st9, .st11 {        stroke-width: 2px;      }      .st8 {        stroke: #1d1d21;      }      .st9 {        stroke: #e18f3d;      }      .st12 {        fill: #785cbc;      }      .st13 {        fill: #4696ec;      }      .st10 {        stroke-dasharray: 5 5;      }      .st14 {        fill: #d2d4db;      }      .st11 {        stroke: #4696ec;      }    </style></defs><path class="st8" d="M1052,1085V1"></path><path class="st8" d="M764,1085V1"></path><path class="st8" d="M474,1085V1"></path><path class="st8" d="M190,1085V1"></path><path class="st8" d="M908,1085V1"></path><path class="st8" d="M1196,1085V1"></path><path class="st8" d="M1340,1085V1"></path><path class="st8" d="M1484,1085V1"></path><path class="st8" d="M1628,1085V1"></path><path class="st8" d="M1772,1085V1"></path><path class="st8" d="M620,1085V1"></path><path class="st8" d="M330,1085V1"></path><path class="st8" d="M46,1085V1"></path><path class="st8" d="M4,1035h1885.3"></path><path class="st8" d="M4,971h1885.3"></path><path class="st8" d="M4,907h1885.3"></path><path class="st8" d="M4,843h1885.3"></path><path class="st8" d="M4,640h1885.3"></path><path class="st8" d="M4,584h1885.3"></path><path class="st8" d="M4,528h1885.3"></path><path class="st8" d="M4,322h1885.3"></path><path class="st8" d="M4,210h1885.3"></path><path class="st8" d="M4,154h1885.3"></path><path class="st8" d="M4,266h1885.3"></path><path class="st8" d="M4,98h1885.3"></path><path class="st8" d="M4,378h1885.3"></path><path class="st8" d="M4,779h1885.3"></path><rect class="st0" x="4" y="472" width="1887.02" height="226"></rect><path class="st7" d="M1896,569.34l-12,14-12,34-12,4.5-12.5-19.5-12-16.5-14.5-57.5-23-37.5-13-5-12.5,14-12-14-12-19-13.5,16.5-35.5-38-12.5,36-12-4.5-12,20.5-13-37-24.5,98.5-14,2.5-11.5-33-12,4-12.5-41.5-12,3.5-13,24.5-12,27.5-11.5-9.5-13.5,80.5-12-5.5-12-32.5-11.5,51.5-12-51.5-13-2-12,101.5-13,3-12-17-11.5-11-15,11-11.5-4.5-12.5,40-11.5-21.5-12,3-12.5,8.5-13-6-10.5-30.5-13-21-24-11-13,15.5-11-25.5-14-50.5-13,32-10.5-16-13,21.5-12,66-13-25-25.5-7-12,2.5-12-23.5-12,10-8.5-4.84-2.5,3.5-11-29.5-13.5-6.5-11,37.5-12,20h-13l-13-1.5-12-29-12,16-12.5-5.5-11,43.5-14,19-24.5-29-13-10.5-12-3-11.5,11.5-13-11.5-13-35-12,13.5-25,3.5-11-20-11.5-5-14,2-12-14-12-34-12-4.5-12.5,19.5-12,16.5-14.5,57.5-23,37.5-13,5-12.5-14-12,14-12,19-13.5-16.5-35.5,38-12.5-36-12,4.5-12-20.5-13,37-24.5-98.5-14-2.5-11.5,33-12-4-12.5,41.5-12-3.5-13-24.5-12-27.5-11.5,9.5-13.5-80.5-12,5.5-12,32.5-11.5-51.5-12,51.5-13,2-12-101.5-13-3-12,17-11.5,11-15-11-11.5,4.5-12.5-40-11.5,21.5-12-3-12.5-8.5-13,6-10.5,30.5-13,21-24,11-13-15.5-11,25.5-14,50.5-13-32-10.5,16-13-21.5-12-66-13,25-25.5,7-12-2.5-12,23.5-12-10-9.5,4.5"></path><path class="st5" d="M4,472h1887.02"></path><path class="st10" d="M4,472h1887.02"></path><path class="st5" d="M4,584h1887.02"></path><path class="st10" d="M4,584h1887.02"></path><path class="st5" d="M4,697h1887.02"></path><path class="st10" d="M4,697h1887.02"></path><rect class="st1" x="10" y="452" width="250" height="40" rx="1" ry="1"></rect><path class="st14" d="M27.89,480v-15.62h5.28c1.22,0,2.22.21,3,.62.78.41,1.36.98,1.74,1.7.38.72.56,1.54.56,2.46s-.19,1.74-.56,2.45c-.38.71-.95,1.27-1.73,1.68-.78.4-1.77.6-2.98.6h-4.27v-1.71h4.21c.83,0,1.5-.12,2.01-.37.51-.24.88-.59,1.11-1.04.23-.45.35-.99.35-1.62s-.12-1.17-.35-1.64c-.23-.47-.61-.83-1.12-1.08-.51-.26-1.19-.39-2.04-.39h-3.32v13.94h-1.89ZM35.24,472.98l3.84,7.02h-2.2l-3.78-7.02h2.14ZM50.17,468.29c-.09-.77-.46-1.37-1.11-1.8s-1.45-.64-2.39-.64c-.69,0-1.3.11-1.81.34-.51.22-.92.53-1.2.92-.28.39-.43.84-.43,1.33,0,.42.1.77.3,1.08.2.29.46.54.78.74.32.19.65.35.99.48.35.12.66.22.95.3l1.59.43c.41.11.86.25,1.36.44.5.19.98.44,1.44.77.46.32.84.73,1.14,1.24.3.5.45,1.12.45,1.85,0,.84-.22,1.61-.66,2.29-.44.68-1.08,1.22-1.92,1.62-.84.4-1.86.6-3.06.6-1.12,0-2.09-.18-2.91-.54-.81-.36-1.45-.86-1.92-1.51-.46-.64-.72-1.39-.79-2.25h1.95c.05.59.25,1.08.59,1.46.35.38.79.67,1.33.85.54.18,1.12.27,1.74.27.72,0,1.37-.12,1.94-.35.57-.24,1.03-.57,1.37-.99.34-.43.5-.92.5-1.49,0-.52-.14-.94-.43-1.27-.29-.33-.67-.59-1.14-.79-.47-.2-.98-.38-1.53-.53l-1.92-.55c-1.22-.35-2.19-.85-2.9-1.5-.71-.65-1.07-1.5-1.07-2.55,0-.87.24-1.64.71-2.29.48-.65,1.12-1.16,1.92-1.53.81-.37,1.71-.55,2.71-.55s1.9.18,2.68.54c.78.36,1.4.84,1.86,1.46.46.62.71,1.32.73,2.11h-1.83ZM57.21,464.38v15.62h-1.89v-15.62h1.89Z"></path><path class="st2" d="M79.11,464.38v15.62h-1.89v-13.64h-.09l-3.81,2.53v-1.92l3.9-2.59h1.89ZM83.23,476.8v-1.55l6.86-10.86h1.13v2.41h-.76l-5.19,8.21v.12h9.24v1.68h-11.29ZM90.58,480v-15.62h1.8v15.62h-1.8ZM112.23,468.29c-.09-.77-.46-1.37-1.11-1.8-.65-.43-1.45-.64-2.39-.64-.69,0-1.3.11-1.82.34-.51.22-.92.53-1.2.92-.28.39-.43.84-.43,1.33,0,.42.1.77.3,1.08.2.29.46.54.78.74.32.19.65.35.99.48.35.12.66.22.95.3l1.59.43c.41.11.86.25,1.36.44.5.19.98.44,1.44.77.46.32.84.73,1.14,1.24.3.5.45,1.12.45,1.85,0,.84-.22,1.61-.66,2.29-.44.68-1.08,1.22-1.92,1.62-.84.4-1.86.6-3.06.6-1.12,0-2.09-.18-2.9-.54-.81-.36-1.45-.86-1.92-1.51-.46-.64-.72-1.39-.79-2.25h1.95c.05.59.25,1.08.6,1.46.35.38.79.67,1.33.85.54.18,1.12.27,1.74.27.72,0,1.37-.12,1.94-.35.57-.24,1.03-.57,1.37-.99.34-.43.5-.92.5-1.49,0-.52-.14-.94-.43-1.27-.29-.33-.67-.59-1.14-.79-.47-.2-.98-.38-1.53-.53l-1.92-.55c-1.22-.35-2.19-.85-2.9-1.5-.71-.65-1.07-1.5-1.07-2.55,0-.87.24-1.64.71-2.29.48-.65,1.12-1.16,1.92-1.53.81-.37,1.71-.55,2.71-.55s1.9.18,2.68.54c.78.36,1.4.84,1.86,1.46.46.62.71,1.32.73,2.11h-1.83ZM117.38,464.38h2.26l5.31,12.96h.18l5.31-12.96h2.26v15.62h-1.77v-11.86h-.15l-4.88,11.86h-1.71l-4.88-11.86h-.15v11.86h-1.77v-15.62ZM137.13,480h-1.98l5.73-15.62h1.95l5.74,15.62h-1.98l-4.67-13.15h-.12l-4.67,13.15ZM137.86,473.9h7.99v1.68h-7.99v-1.68ZM162.26,464.38v15.62h-1.89v-13.64h-.09l-3.81,2.53v-1.92l3.9-2.59h1.89ZM166.38,476.8v-1.55l6.86-10.86h1.13v2.41h-.76l-5.18,8.21v.12h9.24v1.68h-11.29ZM173.73,480v-15.62h1.8v15.62h-1.8Z"></path><path class="st12" d="M197.5,480.21c-.89,0-1.7-.18-2.42-.53-.72-.36-1.29-.84-1.72-1.46-.43-.62-.67-1.33-.71-2.12h1.83c.07.71.39,1.29.96,1.75.57.46,1.26.69,2.06.69.64,0,1.21-.15,1.71-.45.5-.3.9-.71,1.18-1.23.29-.53.44-1.13.44-1.79s-.15-1.29-.45-1.82c-.29-.54-.7-.96-1.22-1.27-.52-.31-1.11-.47-1.78-.47-.48,0-.97.07-1.47.22-.5.15-.92.34-1.24.57l-1.77-.21.95-7.69h8.11v1.68h-6.53l-.55,4.61h.09c.32-.25.72-.46,1.21-.63.48-.17.99-.25,1.51-.25.96,0,1.81.23,2.56.69.75.45,1.34,1.07,1.77,1.86.43.79.65,1.69.65,2.7s-.22,1.89-.67,2.67c-.44.78-1.05,1.39-1.83,1.85-.78.45-1.66.67-2.65.67ZM210.56,480.21c-.89,0-1.7-.18-2.42-.53-.72-.36-1.29-.84-1.72-1.46-.43-.62-.67-1.33-.71-2.12h1.83c.07.71.39,1.29.96,1.75.57.46,1.26.69,2.06.69.64,0,1.21-.15,1.71-.45.5-.3.9-.71,1.18-1.23.29-.53.43-1.13.43-1.79s-.15-1.29-.45-1.82c-.29-.54-.7-.96-1.22-1.27-.52-.31-1.11-.47-1.78-.47-.48,0-.97.07-1.47.22-.5.15-.92.34-1.24.57l-1.77-.21.95-7.69h8.11v1.68h-6.53l-.55,4.61h.09c.32-.25.72-.46,1.21-.63.48-.17.99-.25,1.51-.25.96,0,1.81.23,2.55.69.75.45,1.34,1.07,1.77,1.86.43.79.65,1.69.65,2.7s-.22,1.89-.67,2.67c-.44.78-1.05,1.39-1.83,1.85-.78.45-1.66.67-2.65.67ZM219.5,480.12c-.38,0-.7-.14-.97-.4-.27-.27-.4-.59-.4-.97s.13-.7.4-.97c.27-.27.59-.4.97-.4s.7.13.97.4c.27.27.4.59.4.97,0,.25-.06.48-.19.69-.12.21-.29.38-.5.5-.2.12-.43.18-.69.18ZM227.7,464.38v15.62h-1.89v-13.64h-.09l-3.81,2.53v-1.92l3.9-2.59h1.89ZM232.19,480v-1.37l5.15-5.64c.6-.66,1.1-1.24,1.49-1.72.39-.49.68-.96.87-1.39.19-.44.29-.89.29-1.37,0-.55-.13-1.02-.4-1.43-.26-.4-.62-.71-1.07-.93-.45-.22-.96-.33-1.52-.33-.6,0-1.12.12-1.57.37-.44.24-.79.59-1.03,1.03-.24.44-.36.96-.36,1.56h-1.8c0-.92.21-1.72.63-2.41.42-.69,1-1.23,1.72-1.62.73-.39,1.55-.58,2.46-.58s1.73.19,2.43.58c.71.39,1.26.91,1.66,1.56.4.66.6,1.38.6,2.19,0,.57-.11,1.14-.31,1.68-.2.54-.56,1.15-1.07,1.82-.5.67-1.2,1.48-2.1,2.44l-3.51,3.75v.12h7.26v1.68h-9.85Z"></path><path class="st9" d="M2,800l58.5,88,12-109.5,137,200.5,12-200.5,36.5,53.5,12.5-53.5,173.5,256,11-55.5,36.5,55.5,12.5-18,12.5,18,14-36,25,36h12.5l11-36,24.5,36h24.5l12.5-91,61.5,91h37.5l13-256.5h12l170.5,256.5,12-17.5,13.5,17.5h37.5l12.5-54,36.5,54h11.5l12-17.5,13,17.5,12.5-219.5,62.5,73,12-109.5,137,200.5,12-200.5,36.5,53.5,12.5-53.5,173.5,256,11-55.5,36.5,55.5,12.5-18,12.5,18,14-36,25,36h12.5l11-36,24.5,36h24.5l12.5-91,61.5,91h37.5l13-256.5h12"></path><path class="st11" d="M3,1002.5l21.5,32.5h27l9.5-18,12.5,18h14.5l11.5-36,24.5,36,11.5-256.5,175,256.5h24l11.5-18,13,18,11-256.5,49.5,73.5,11-73.5h37.5l63.5,92,11-92h25l11.5,17.5,12-17.5h13l173,256.5,12.5-72.5,48.5,72.5,12.5-35.5,24,35.5h24l12.5-257,12,18,13-18h26l61.5,91.5,12-91.5,162,221,24.5,36,11.5-256.5,175,256.5h24l11.5-18,13,18,11-256.5,49.5,73.5,11-73.5h37.5l63.5,92,11-92h25l11.5,17.5,12-17.5h13l173,256.5,12.5-72.5"></path><rect class="st1" x="10" y="760" width="284" height="36"></rect><path class="st14" d="M22.53,786h-1.98l5.73-15.62h1.95l5.73,15.62h-1.98l-4.67-13.15h-.12l-4.67,13.15ZM23.26,779.9h7.99v1.68h-7.99v-1.68ZM36.16,786v-11.71h1.74v1.77h.12c.21-.58.6-1.05,1.16-1.41.56-.36,1.19-.54,1.89-.54.13,0,.3,0,.5,0s.35.01.45.02v1.83c-.06-.02-.2-.04-.42-.07-.21-.04-.44-.05-.68-.05-.57,0-1.08.12-1.53.36-.44.23-.79.56-1.05.98-.25.41-.38.88-.38,1.41v7.41h-1.8ZM48.55,786.24c-1.06,0-1.99-.25-2.78-.76-.79-.5-1.41-1.21-1.86-2.11-.44-.91-.66-1.96-.66-3.17s.22-2.29.66-3.2c.45-.91,1.07-1.62,1.86-2.12.8-.5,1.73-.76,2.78-.76s1.98.25,2.78.76c.8.5,1.42,1.21,1.86,2.12.45.91.67,1.98.67,3.2s-.22,2.27-.67,3.17c-.44.9-1.06,1.61-1.86,2.11-.79.5-1.72.76-2.78.76ZM48.55,784.63c.8,0,1.46-.21,1.98-.62.52-.41.9-.95,1.15-1.62.25-.67.37-1.4.37-2.18s-.12-1.51-.37-2.19c-.25-.68-.63-1.22-1.15-1.64-.52-.42-1.18-.62-1.98-.62s-1.46.21-1.98.62c-.52.42-.9.96-1.15,1.64-.25.68-.37,1.41-.37,2.19s.12,1.51.37,2.18c.25.67.63,1.21,1.15,1.62.52.41,1.18.62,1.98.62ZM61.36,786.24c-1.06,0-1.99-.25-2.78-.76-.79-.5-1.41-1.21-1.86-2.11-.44-.91-.66-1.96-.66-3.17s.22-2.29.66-3.2c.45-.91,1.07-1.62,1.86-2.12.8-.5,1.73-.76,2.78-.76s1.98.25,2.78.76c.8.5,1.42,1.21,1.86,2.12.45.91.67,1.98.67,3.2s-.22,2.27-.67,3.17c-.44.9-1.06,1.61-1.86,2.11-.79.5-1.72.76-2.78.76ZM61.36,784.63c.8,0,1.46-.21,1.98-.62.52-.41.9-.95,1.15-1.62.25-.67.37-1.4.37-2.18s-.12-1.51-.37-2.19c-.25-.68-.63-1.22-1.15-1.64-.52-.42-1.18-.62-1.98-.62s-1.46.21-1.98.62c-.52.42-.9.96-1.15,1.64-.25.68-.37,1.41-.37,2.19s.12,1.51.37,2.18c.25.67.63,1.21,1.15,1.62.52.41,1.18.62,1.98.62ZM71.22,778.95v7.05h-1.8v-11.71h1.74v1.83h.15c.27-.6.69-1.07,1.25-1.43.56-.37,1.28-.55,2.17-.55.79,0,1.49.16,2.08.49.59.32,1.06.81,1.39,1.46.33.65.5,1.47.5,2.47v7.44h-1.8v-7.32c0-.92-.24-1.64-.72-2.15-.48-.52-1.13-.78-1.97-.78-.57,0-1.09.12-1.54.37-.45.25-.8.61-1.06,1.09-.26.48-.39,1.06-.39,1.74Z"></path><path class="st2" d="M100.11,770.38v15.62h-1.89v-13.64h-.09l-3.81,2.53v-1.92l3.9-2.59h1.89ZM104.23,782.8v-1.55l6.86-10.86h1.13v2.41h-.76l-5.19,8.21v.12h9.24v1.68h-11.28ZM111.58,786v-15.62h1.8v15.62h-1.8Z"></path><path class="st3" d="M129.39,770.17c.64,0,1.28.13,1.92.37.64.24,1.22.64,1.75,1.19.53.55.95,1.3,1.27,2.25.32.95.48,2.14.48,3.58s-.13,2.62-.4,3.7c-.26,1.07-.63,1.98-1.13,2.71-.49.74-1.08,1.3-1.79,1.68-.7.38-1.48.57-2.36.57s-1.65-.17-2.34-.52c-.68-.35-1.24-.84-1.68-1.46-.43-.62-.71-1.35-.83-2.17h1.86c.17.72.5,1.31,1,1.78.5.46,1.17.69,1.99.69,1.21,0,2.16-.53,2.85-1.58.7-1.05,1.05-2.54,1.05-4.46h-.12c-.28.43-.62.8-1.01,1.11-.39.31-.83.55-1.3.72-.48.17-.99.25-1.53.25-.89,0-1.72-.22-2.46-.66-.74-.45-1.34-1.06-1.78-1.84-.44-.78-.66-1.68-.66-2.68s.21-1.83.64-2.62c.43-.8,1.04-1.43,1.82-1.91.78-.47,1.7-.7,2.76-.69ZM129.39,771.85c-.64,0-1.22.16-1.73.48-.51.32-.91.74-1.21,1.28-.29.53-.44,1.13-.44,1.78s.14,1.24.43,1.78c.29.53.68.95,1.18,1.27.5.31,1.08.47,1.72.47.48,0,.93-.09,1.35-.28.42-.19.78-.46,1.09-.79.32-.34.56-.71.74-1.14.18-.43.27-.87.27-1.33,0-.61-.15-1.18-.44-1.72-.29-.53-.69-.97-1.2-1.3-.51-.33-1.09-.5-1.74-.5ZM137.82,786v-1.37l5.15-5.64c.61-.66,1.1-1.23,1.49-1.72.39-.49.68-.96.87-1.39.19-.44.29-.89.29-1.37,0-.55-.13-1.02-.4-1.43-.26-.4-.61-.71-1.07-.93-.45-.22-.96-.33-1.53-.33-.6,0-1.12.12-1.57.37-.44.24-.78.59-1.03,1.03-.24.44-.36.96-.36,1.56h-1.8c0-.92.21-1.72.63-2.41.42-.69,1-1.23,1.72-1.62.73-.39,1.55-.58,2.46-.58s1.73.19,2.43.58c.71.39,1.26.91,1.66,1.56s.6,1.39.6,2.19c0,.57-.1,1.14-.31,1.68-.2.54-.56,1.15-1.07,1.82-.5.67-1.2,1.48-2.1,2.44l-3.51,3.75v.12h7.26v1.68h-9.85ZM152.16,786.12c-.38,0-.7-.14-.97-.4-.27-.27-.4-.59-.4-.97s.13-.7.4-.97c.27-.27.59-.4.97-.4s.7.14.97.4c.27.27.4.59.4.97,0,.25-.06.48-.19.69-.12.21-.29.38-.5.5-.2.12-.43.18-.69.18ZM161.25,786.21c-1.05,0-1.97-.19-2.78-.56-.8-.38-1.42-.89-1.87-1.55-.45-.66-.67-1.41-.66-2.26,0-.66.12-1.27.39-1.83.26-.57.62-1.03,1.08-1.41.46-.38.98-.62,1.55-.73v-.09c-.75-.19-1.34-.61-1.78-1.26-.44-.65-.66-1.39-.66-2.22,0-.79.2-1.5.6-2.13.41-.62.96-1.12,1.68-1.48.72-.36,1.53-.54,2.45-.54s1.71.18,2.42.54c.71.36,1.27.85,1.68,1.48.41.62.62,1.34.62,2.13,0,.83-.23,1.57-.68,2.22-.44.65-1.03,1.07-1.76,1.26v.09c.56.1,1.07.34,1.52.73.45.38.81.85,1.08,1.41.27.56.41,1.17.41,1.83,0,.84-.23,1.6-.69,2.26-.45.66-1.07,1.17-1.87,1.55-.79.37-1.71.56-2.75.56ZM161.25,784.54c.71,0,1.32-.11,1.83-.34.51-.23.91-.55,1.19-.97.28-.42.42-.91.43-1.46,0-.59-.16-1.11-.46-1.56-.3-.45-.71-.81-1.23-1.07-.51-.26-1.1-.39-1.76-.39s-1.26.13-1.78.39c-.52.26-.93.61-1.23,1.07-.29.45-.44.97-.43,1.56,0,.56.13,1.05.4,1.46.28.42.68.74,1.2.97.52.23,1.13.34,1.85.34ZM161.25,777.12c.56,0,1.05-.11,1.49-.34.44-.22.78-.54,1.03-.94.25-.4.38-.87.38-1.41,0-.53-.13-.99-.37-1.38-.24-.4-.58-.7-1.01-.92-.43-.22-.94-.33-1.51-.33s-1.1.11-1.53.33c-.44.21-.78.52-1.01.92-.24.39-.36.85-.35,1.38,0,.54.12,1.01.36,1.41.25.4.59.72,1.03.94.44.22.94.34,1.51.34ZM174.67,786.21c-.64-.01-1.28-.13-1.92-.37-.64-.23-1.22-.63-1.75-1.18-.53-.56-.95-1.32-1.27-2.27-.32-.96-.48-2.16-.48-3.6s.13-2.61.39-3.68c.26-1.07.63-1.97,1.13-2.71.49-.74,1.09-1.3,1.79-1.68.7-.38,1.49-.57,2.37-.57s1.65.18,2.33.53c.69.35,1.24.83,1.68,1.45.43.62.71,1.34.84,2.14h-1.86c-.17-.7-.51-1.28-1.01-1.75-.5-.46-1.16-.69-1.98-.69-1.21,0-2.16.53-2.86,1.58-.69,1.05-1.04,2.53-1.04,4.43h.12c.28-.43.62-.8,1.01-1.11.4-.31.83-.55,1.31-.72.48-.17.98-.25,1.52-.25.9,0,1.71.22,2.46.67.74.44,1.34,1.05,1.78,1.84.45.78.67,1.67.67,2.68s-.22,1.85-.65,2.65c-.43.8-1.04,1.43-1.82,1.91-.78.47-1.69.7-2.75.69ZM174.67,784.54c.64,0,1.21-.16,1.72-.48.51-.32.92-.75,1.21-1.29.3-.54.45-1.14.45-1.8s-.15-1.23-.43-1.76c-.28-.53-.68-.96-1.18-1.27-.5-.32-1.07-.47-1.71-.47-.48,0-.93.1-1.35.29-.42.19-.78.45-1.1.78-.31.33-.55.71-.73,1.14-.18.42-.27.87-.27,1.33,0,.62.14,1.2.43,1.74.29.54.7.97,1.21,1.3.51.33,1.1.5,1.75.5ZM190.84,783.07v-.82c0-.57.12-1.09.35-1.56.24-.48.59-.86,1.04-1.14.46-.29,1.01-.43,1.66-.43s1.21.14,1.66.43c.45.28.79.67,1.01,1.14.23.47.34.99.34,1.56v.82c0,.57-.12,1.09-.35,1.57-.23.47-.57.85-1.02,1.14-.45.28-1,.43-1.65.43s-1.22-.14-1.67-.43c-.45-.29-.79-.67-1.03-1.14-.23-.48-.35-1-.35-1.57ZM192.4,782.25v.82c0,.47.11.9.34,1.27.22.37.61.56,1.16.56s.91-.19,1.13-.56c.22-.38.34-.8.34-1.27v-.82c0-.47-.11-.89-.32-1.27-.21-.38-.6-.56-1.14-.56s-.92.19-1.15.56c-.23.37-.34.79-.34,1.27ZM183.06,774.14v-.82c0-.57.12-1.09.35-1.56.24-.48.58-.86,1.04-1.14.46-.29,1.01-.43,1.66-.43s1.21.15,1.66.43c.45.28.79.67,1.01,1.14.23.47.34.99.34,1.56v.82c0,.57-.12,1.09-.35,1.57-.23.47-.57.85-1.02,1.14-.45.28-1,.43-1.65.43s-1.22-.14-1.67-.43c-.45-.29-.79-.67-1.03-1.14-.23-.48-.35-1-.35-1.57ZM184.62,773.31v.82c0,.47.11.9.34,1.27.22.37.61.56,1.16.56s.91-.19,1.13-.56c.22-.38.34-.8.34-1.27v-.82c0-.47-.11-.89-.32-1.27-.21-.38-.6-.56-1.14-.56s-.92.19-1.15.56c-.23.37-.34.79-.34,1.27ZM183.64,786l10.74-15.62h1.74l-10.74,15.62h-1.74Z"></path><path class="st13" d="M212.62,786v-1.37l5.15-5.64c.6-.66,1.1-1.23,1.49-1.72.39-.49.68-.96.87-1.39.19-.44.29-.89.29-1.37,0-.55-.13-1.02-.4-1.43-.26-.4-.62-.71-1.07-.93-.45-.22-.96-.33-1.52-.33-.6,0-1.12.12-1.57.37-.44.24-.79.59-1.03,1.03-.24.44-.36.96-.36,1.56h-1.8c0-.92.21-1.72.63-2.41.42-.69,1-1.23,1.72-1.62.73-.39,1.55-.58,2.46-.58s1.73.19,2.43.58c.71.39,1.26.91,1.66,1.56.4.66.6,1.39.6,2.19,0,.57-.1,1.14-.31,1.68-.2.54-.56,1.15-1.07,1.82-.5.67-1.2,1.48-2.1,2.44l-3.51,3.75v.12h7.26v1.68h-9.85ZM231.11,770.38v15.62h-1.89v-13.64h-.09l-3.81,2.53v-1.92l3.9-2.59h1.89ZM236.02,786.12c-.38,0-.7-.14-.97-.4-.27-.27-.4-.59-.4-.97s.13-.7.4-.97c.27-.27.59-.4.97-.4s.7.14.97.4c.27.27.4.59.4.97,0,.25-.06.48-.19.69-.12.21-.29.38-.5.5-.2.12-.43.18-.69.18ZM240.23,782.8v-1.55l6.86-10.86h1.13v2.41h-.76l-5.18,8.21v.12h9.24v1.68h-11.29ZM247.58,786v-15.62h1.8v15.62h-1.8ZM259.65,786.21c-1.01,0-1.9-.17-2.69-.52-.78-.35-1.41-.83-1.87-1.44-.46-.62-.71-1.34-.75-2.16h1.92c.04.5.21.94.52,1.3.3.36.7.64,1.2.84.49.2,1.04.3,1.64.3.67,0,1.27-.12,1.78-.35.52-.23.93-.56,1.22-.98.29-.42.44-.9.44-1.45s-.14-1.08-.43-1.52c-.29-.44-.7-.79-1.25-1.04-.55-.25-1.22-.37-2.01-.37h-1.25v-1.68h1.25c.62,0,1.16-.11,1.63-.34.47-.22.84-.54,1.11-.95.27-.41.4-.88.4-1.43s-.12-.99-.35-1.38c-.23-.39-.56-.7-.99-.92-.42-.22-.92-.33-1.49-.33-.54,0-1.05.1-1.52.3-.47.19-.86.47-1.16.85-.3.37-.46.81-.49,1.33h-1.83c.03-.82.28-1.53.74-2.15.46-.62,1.07-1.1,1.82-1.45.75-.35,1.58-.52,2.48-.52.97,0,1.79.2,2.49.59.69.39,1.22.9,1.59,1.53.37.64.56,1.32.56,2.06,0,.88-.23,1.63-.69,2.25-.46.62-1.08,1.05-1.87,1.29v.12c.99.16,1.76.58,2.31,1.26.55.67.83,1.5.83,2.49,0,.85-.23,1.61-.69,2.29-.46.67-1.08,1.2-1.88,1.59-.79.39-1.7.58-2.71.58ZM276,783.07v-.82c0-.57.12-1.09.35-1.56.24-.48.58-.86,1.04-1.14.46-.29,1.01-.43,1.66-.43s1.21.14,1.66.43c.45.28.79.67,1.01,1.14.23.47.34.99.34,1.56v.82c0,.57-.12,1.09-.35,1.57-.23.47-.57.85-1.02,1.14-.45.28-1,.43-1.65.43s-1.22-.14-1.67-.43c-.45-.29-.8-.67-1.03-1.14-.23-.48-.35-1-.35-1.57ZM277.56,782.25v.82c0,.47.11.9.34,1.27.22.37.61.56,1.16.56s.91-.19,1.13-.56c.22-.38.34-.8.34-1.27v-.82c0-.47-.11-.89-.32-1.27-.21-.38-.6-.56-1.14-.56s-.92.19-1.15.56c-.23.37-.34.79-.34,1.27ZM268.22,774.14v-.82c0-.57.12-1.09.35-1.56.24-.48.58-.86,1.04-1.14.46-.29,1.01-.43,1.66-.43s1.21.15,1.66.43c.45.28.78.67,1.01,1.14.23.47.34.99.34,1.56v.82c0,.57-.12,1.09-.35,1.57-.23.47-.57.85-1.02,1.14-.45.28-1,.43-1.65.43s-1.22-.14-1.67-.43c-.45-.29-.8-.67-1.03-1.14-.23-.48-.35-1-.35-1.57ZM269.78,773.31v.82c0,.47.11.9.34,1.27.22.37.61.56,1.16.56s.91-.19,1.13-.56c.22-.38.34-.8.34-1.27v-.82c0-.47-.11-.89-.32-1.27-.21-.38-.59-.56-1.14-.56s-.92.19-1.15.56c-.23.37-.34.79-.34,1.27ZM268.8,786l10.74-15.62h1.74l-10.74,15.62h-1.74Z"></path><rect class="st1" x="10" y="32" width="580" height="36"></rect><path class="st14" d="M21.89,58v-15.62h9.43v1.68h-7.53v5.28h7.05v1.68h-7.05v5.31h7.66v1.68h-9.55ZM44.97,42.38h1.89v10.34c0,1.07-.25,2.02-.76,2.86-.5.83-1.2,1.49-2.11,1.98-.91.48-1.98.72-3.2.72s-2.29-.24-3.2-.72c-.91-.48-1.62-1.14-2.12-1.98-.5-.84-.75-1.79-.75-2.86v-10.34h1.89v10.19c0,.76.17,1.44.5,2.04.34.59.81,1.05,1.43,1.4.63.34,1.37.5,2.24.5s1.62-.17,2.24-.5c.63-.34,1.1-.81,1.43-1.4.34-.59.5-1.27.5-2.04v-10.19ZM50.64,58v-15.62h5.28c1.22,0,2.22.21,3,.63.78.41,1.36.98,1.74,1.7.38.72.56,1.54.56,2.46s-.19,1.74-.56,2.45c-.38.71-.95,1.27-1.73,1.68-.78.4-1.77.6-2.98.6h-4.27v-1.71h4.21c.83,0,1.5-.12,2.01-.37.51-.24.88-.59,1.11-1.04.23-.45.35-.99.35-1.62s-.12-1.17-.35-1.64c-.23-.47-.61-.83-1.12-1.08-.51-.26-1.19-.39-2.04-.39h-3.32v13.94h-1.89ZM57.99,50.98l3.84,7.02h-2.2l-3.78-7.02h2.14ZM74.63,42.38h1.89v10.34c0,1.07-.25,2.02-.75,2.86-.5.83-1.2,1.49-2.11,1.98-.91.48-1.98.72-3.2.72s-2.29-.24-3.2-.72c-.91-.48-1.62-1.14-2.12-1.98-.5-.84-.75-1.79-.75-2.86v-10.34h1.89v10.19c0,.76.17,1.44.5,2.04.34.59.81,1.05,1.43,1.4.63.34,1.37.5,2.24.5s1.62-.17,2.24-.5c.63-.34,1.1-.81,1.43-1.4.34-.59.5-1.27.5-2.04v-10.19ZM88.83,46.29c-.09-.77-.46-1.37-1.11-1.8-.65-.43-1.45-.64-2.39-.64-.69,0-1.3.11-1.81.34-.51.22-.92.53-1.2.92-.28.39-.43.84-.43,1.33,0,.42.1.78.3,1.08.2.29.46.54.78.74.32.19.65.35.99.48.35.12.66.22.95.3l1.59.43c.41.11.86.25,1.36.44.5.19.98.44,1.44.77.46.32.84.73,1.14,1.24.3.5.45,1.12.45,1.85,0,.84-.22,1.61-.66,2.29-.44.68-1.08,1.22-1.92,1.62-.84.4-1.86.6-3.06.6-1.12,0-2.09-.18-2.91-.54-.81-.36-1.45-.86-1.92-1.51-.46-.65-.72-1.4-.79-2.25h1.95c.05.59.25,1.08.59,1.46.35.38.79.67,1.33.85.54.18,1.12.27,1.74.27.72,0,1.37-.12,1.94-.35.57-.24,1.03-.57,1.36-.99.34-.43.5-.93.5-1.49,0-.52-.14-.94-.43-1.27-.29-.33-.67-.59-1.14-.79-.47-.2-.98-.38-1.53-.53l-1.92-.55c-1.22-.35-2.19-.85-2.9-1.5-.71-.65-1.07-1.5-1.07-2.55,0-.87.24-1.64.71-2.29.48-.66,1.12-1.16,1.92-1.53.81-.37,1.71-.55,2.71-.55s1.9.18,2.68.54c.78.36,1.4.84,1.86,1.46.46.62.71,1.32.73,2.11h-1.83ZM98.81,58h-4.82v-15.62h5.03c1.51,0,2.81.31,3.89.94,1.08.62,1.9,1.51,2.48,2.68.57,1.16.86,2.55.86,4.16s-.29,3.03-.87,4.2c-.58,1.17-1.42,2.07-2.53,2.7-1.11.63-2.46.94-4.04.94ZM95.88,56.32h2.81c1.29,0,2.36-.25,3.21-.75.85-.5,1.48-1.21,1.9-2.13.42-.92.62-2.02.62-3.29s-.21-2.35-.62-3.26c-.41-.92-1.03-1.62-1.85-2.1-.82-.49-1.84-.74-3.06-.74h-3.02v12.26Z"></path><path class="st2" d="M126.89,58.21c-1.01,0-1.9-.17-2.69-.52-.78-.35-1.41-.83-1.87-1.44-.46-.62-.71-1.34-.75-2.16h1.92c.04.5.21.94.52,1.3.31.36.7.64,1.2.84.49.2,1.04.3,1.64.3.67,0,1.27-.12,1.78-.35.52-.23.93-.56,1.22-.98.29-.42.44-.9.44-1.45s-.14-1.08-.43-1.52c-.28-.44-.7-.79-1.25-1.04-.55-.25-1.22-.37-2.01-.37h-1.25v-1.68h1.25c.62,0,1.16-.11,1.63-.34.47-.22.84-.54,1.11-.95.27-.41.4-.88.4-1.43s-.12-.99-.35-1.38c-.23-.39-.56-.7-.99-.92-.42-.22-.92-.33-1.5-.33-.54,0-1.05.1-1.53.3-.47.19-.86.48-1.16.85-.3.37-.46.81-.49,1.33h-1.83c.03-.82.28-1.54.74-2.15.46-.62,1.07-1.1,1.81-1.45.75-.35,1.58-.52,2.48-.52.96,0,1.79.2,2.49.59.69.39,1.22.9,1.59,1.53.37.64.56,1.32.56,2.06,0,.88-.23,1.63-.69,2.25-.46.62-1.08,1.05-1.87,1.29v.12c.99.16,1.76.58,2.31,1.26.55.67.83,1.5.83,2.49,0,.85-.23,1.61-.69,2.29-.46.67-1.08,1.2-1.88,1.59-.79.39-1.7.58-2.71.58ZM140.38,58.21c-1.15,0-2.13-.31-2.94-.94-.81-.63-1.43-1.54-1.85-2.74-.43-1.2-.64-2.65-.64-4.35s.21-3.13.64-4.32c.43-1.2,1.05-2.11,1.86-2.75.81-.64,1.79-.95,2.93-.95s2.11.32,2.92.95c.81.63,1.43,1.55,1.86,2.75.43,1.19.65,2.64.65,4.32s-.21,3.15-.64,4.35c-.43,1.19-1.04,2.11-1.85,2.74-.81.63-1.79.94-2.94.94ZM140.38,56.54c1.14,0,2.02-.55,2.65-1.65.63-1.1.95-2.66.95-4.7,0-1.35-.15-2.5-.43-3.45-.29-.95-.7-1.68-1.24-2.17-.53-.5-1.18-.75-1.93-.75-1.13,0-2.01.56-2.65,1.67-.63,1.11-.95,2.68-.95,4.7,0,1.35.14,2.5.43,3.45.29.95.69,1.66,1.23,2.16.54.49,1.19.74,1.94.74ZM161.49,49.35v1.68h-6.83v-1.68h6.83ZM170.94,58v-15.62h9.36v1.68h-7.47v5.28h6.77v1.68h-6.77v6.99h-1.89ZM187.2,58.24c-1.06,0-1.99-.25-2.78-.75-.79-.5-1.41-1.21-1.86-2.11-.44-.9-.66-1.96-.66-3.17s.22-2.29.66-3.2c.45-.91,1.07-1.62,1.86-2.12.8-.5,1.73-.75,2.78-.75s1.98.25,2.77.75c.8.5,1.42,1.21,1.86,2.12.45.91.67,1.98.67,3.2s-.22,2.27-.67,3.17c-.44.9-1.06,1.61-1.86,2.11-.79.5-1.72.75-2.77.75ZM187.2,56.63c.8,0,1.46-.21,1.98-.62.52-.41.9-.95,1.15-1.62.25-.67.37-1.4.37-2.18s-.12-1.51-.37-2.19c-.25-.68-.63-1.22-1.15-1.64-.52-.42-1.18-.63-1.98-.63s-1.46.21-1.98.63-.9.96-1.15,1.64c-.25.68-.37,1.41-.37,2.19s.12,1.51.37,2.18c.25.67.63,1.21,1.15,1.62s1.18.62,1.98.62ZM195.25,58v-11.71h1.74v1.77h.12c.21-.58.6-1.05,1.16-1.41.56-.36,1.19-.54,1.89-.54.13,0,.3,0,.5,0,.2,0,.35.01.45.02v1.83c-.06-.02-.2-.04-.42-.07-.21-.04-.44-.05-.68-.05-.57,0-1.08.12-1.53.36-.44.23-.79.56-1.05.98-.25.41-.38.88-.38,1.41v7.41h-1.8ZM207.8,58.24c-1.13,0-2.1-.25-2.92-.75-.81-.5-1.44-1.2-1.88-2.1-.44-.9-.66-1.96-.66-3.16s.22-2.26.66-3.17c.44-.92,1.06-1.64,1.85-2.15.79-.52,1.72-.78,2.77-.78.61,0,1.21.1,1.81.31.59.2,1.14.53,1.62.99.49.45.88,1.05,1.17,1.8.29.75.43,1.67.43,2.76v.76h-9.03v-1.56h7.2c0-.66-.13-1.25-.4-1.77-.26-.52-.63-.93-1.11-1.23-.48-.3-1.04-.45-1.69-.45-.72,0-1.34.18-1.86.53-.52.35-.92.81-1.2,1.37-.28.56-.42,1.17-.42,1.81v1.04c0,.88.15,1.63.46,2.25.31.61.74,1.08,1.29,1.4.55.32,1.19.47,1.91.47.47,0,.9-.07,1.28-.2.39-.14.72-.34,1-.61.28-.27.5-.62.65-1.02l1.74.49c-.18.59-.49,1.11-.92,1.56-.43.44-.96.79-1.6,1.04-.64.24-1.35.37-2.14.37ZM216.41,46.29l2.81,4.79,2.81-4.79h2.07l-3.78,5.86,3.78,5.86h-2.07l-2.81-4.54-2.81,4.54h-2.07l3.72-5.86-3.72-5.86h2.07ZM232.95,42.38h2.26l5.31,12.96h.18l5.31-12.96h2.26v15.62h-1.77v-11.87h-.15l-4.88,11.87h-1.71l-4.88-11.87h-.15v11.87h-1.77v-15.62ZM255.26,58.27c-.74,0-1.42-.14-2.02-.42-.6-.28-1.08-.69-1.44-1.23-.36-.54-.53-1.19-.53-1.95,0-.67.13-1.22.4-1.63.26-.42.62-.75,1.06-.99.44-.24.93-.42,1.46-.53.54-.12,1.08-.22,1.62-.29.71-.09,1.29-.16,1.73-.21.45-.05.77-.13.98-.25.21-.12.31-.32.31-.61v-.06c0-.75-.21-1.34-.62-1.75-.41-.42-1.02-.63-1.85-.63s-1.53.19-2.02.56-.83.78-1.03,1.2l-1.71-.61c.3-.71.71-1.27,1.22-1.66.51-.4,1.07-.68,1.68-.84.61-.16,1.21-.24,1.8-.24.38,0,.81.05,1.3.14.49.09.97.27,1.43.54.46.27.85.69,1.15,1.24.3.55.46,1.3.46,2.23v7.72h-1.8v-1.59h-.09c-.12.25-.33.53-.61.82-.28.29-.66.54-1.14.74-.47.2-1.05.31-1.73.31ZM255.53,56.66c.71,0,1.31-.14,1.8-.42.49-.28.87-.64,1.11-1.08.25-.44.38-.91.38-1.4v-1.65c-.08.09-.24.18-.5.25-.26.07-.55.13-.89.19-.33.05-.65.1-.97.14-.31.04-.56.07-.76.09-.47.06-.9.16-1.31.3-.4.13-.73.33-.98.6-.24.26-.37.63-.37,1.08,0,.63.23,1.1.69,1.42.47.32,1.06.47,1.78.47ZM263.91,46.29h1.8v12.57c0,.72-.12,1.35-.37,1.88-.24.53-.61.94-1.11,1.23-.49.29-1.12.43-1.87.43h-.37v-1.68h.33c.55,0,.95-.16,1.2-.49.25-.32.38-.78.38-1.37v-12.57ZM264.8,44.33c-.35,0-.65-.12-.91-.36-.25-.24-.37-.53-.37-.86s.12-.62.37-.86c.26-.24.56-.36.91-.36s.65.12.9.36c.25.24.38.53.38.86s-.13.62-.38.86c-.25.24-.55.36-.9.36ZM273.76,58.24c-1.06,0-1.99-.25-2.78-.75-.79-.5-1.41-1.21-1.86-2.11-.44-.9-.66-1.96-.66-3.17s.22-2.29.66-3.2c.45-.91,1.07-1.62,1.86-2.12.8-.5,1.73-.75,2.78-.75s1.98.25,2.78.75c.8.5,1.42,1.21,1.86,2.12.45.91.67,1.98.67,3.2s-.22,2.27-.67,3.17c-.44.9-1.06,1.61-1.86,2.11-.79.5-1.72.75-2.78.75ZM273.76,56.63c.8,0,1.46-.21,1.98-.62.52-.41.9-.95,1.15-1.62.25-.67.37-1.4.37-2.18s-.12-1.51-.37-2.19c-.25-.68-.63-1.22-1.15-1.64-.52-.42-1.18-.63-1.98-.63s-1.46.21-1.98.63c-.52.42-.9.96-1.15,1.64-.25.68-.37,1.41-.37,2.19s.12,1.51.37,2.18c.25.67.63,1.21,1.15,1.62.52.41,1.18.62,1.98.62ZM281.82,58v-11.71h1.74v1.77h.12c.21-.58.6-1.05,1.16-1.41.56-.36,1.19-.54,1.89-.54.13,0,.3,0,.5,0,.2,0,.35.01.45.02v1.83c-.06-.02-.2-.04-.42-.07-.21-.04-.44-.05-.68-.05-.57,0-1.08.12-1.52.36-.44.23-.79.56-1.05.98-.25.41-.38.88-.38,1.41v7.41h-1.8ZM298.11,48.91l-1.62.46c-.1-.27-.25-.53-.45-.79-.19-.26-.46-.47-.79-.64-.34-.17-.77-.25-1.29-.25-.72,0-1.31.17-1.79.5-.47.33-.71.74-.71,1.24,0,.45.16.8.49,1.06s.83.48,1.52.65l1.74.43c1.05.25,1.83.64,2.34,1.17.51.52.77,1.19.77,2.01,0,.67-.19,1.27-.58,1.8-.38.53-.92.95-1.6,1.25s-1.48.46-2.39.46c-1.19,0-2.18-.26-2.97-.78-.78-.52-1.28-1.28-1.49-2.27l1.71-.43c.16.63.47,1.1.92,1.42.46.32,1.06.47,1.79.47.84,0,1.5-.18,2-.53.5-.36.75-.79.75-1.3,0-.41-.14-.75-.43-1.02-.28-.28-.72-.49-1.31-.63l-1.95-.46c-1.07-.25-1.86-.65-2.36-1.18-.5-.54-.75-1.21-.75-2.02,0-.66.19-1.25.56-1.75.38-.51.89-.91,1.53-1.2.65-.29,1.39-.43,2.21-.43,1.16,0,2.07.25,2.73.76.67.51,1.14,1.18,1.42,2.01Z"></path><path class="st13" d="M319.11,42.38v15.62h-1.89v-13.63h-.09l-3.81,2.53v-1.92l3.9-2.59h1.89ZM324.02,58.12c-.38,0-.7-.13-.97-.4-.27-.27-.4-.59-.4-.97s.14-.7.4-.97c.27-.27.59-.4.97-.4s.7.13.97.4c.27.27.4.59.4.97,0,.25-.06.48-.19.69-.12.21-.29.38-.5.5-.2.12-.43.18-.69.18ZM333.14,58.21c-1.15,0-2.13-.31-2.94-.94-.81-.63-1.43-1.54-1.85-2.74-.43-1.2-.64-2.65-.64-4.35s.21-3.13.64-4.32c.43-1.2,1.05-2.11,1.86-2.75.81-.64,1.79-.95,2.93-.95s2.11.32,2.92.95c.81.63,1.43,1.55,1.86,2.75.43,1.19.65,2.64.65,4.32s-.21,3.15-.64,4.35c-.43,1.19-1.05,2.11-1.85,2.74-.81.63-1.79.94-2.94.94ZM333.14,56.54c1.14,0,2.02-.55,2.65-1.65.63-1.1.95-2.66.95-4.7,0-1.35-.14-2.5-.43-3.45-.29-.95-.7-1.68-1.24-2.17-.53-.5-1.18-.75-1.93-.75-1.13,0-2.01.56-2.65,1.67-.64,1.11-.95,2.68-.95,4.7,0,1.35.14,2.5.43,3.45.29.95.69,1.66,1.23,2.16.54.49,1.19.74,1.94.74ZM341.53,58l6.99-13.82v-.12h-8.05v-1.68h10.01v1.77l-6.95,13.85h-1.98ZM358,58.21c-1.05,0-1.97-.19-2.77-.56-.8-.38-1.42-.89-1.87-1.55-.45-.66-.67-1.41-.66-2.26,0-.66.12-1.27.39-1.83.26-.56.62-1.03,1.08-1.41.46-.38.98-.62,1.55-.72v-.09c-.75-.19-1.34-.61-1.79-1.26-.44-.65-.66-1.39-.65-2.22,0-.79.2-1.5.6-2.13.41-.63.97-1.12,1.68-1.48.72-.36,1.53-.54,2.45-.54s1.71.18,2.42.54c.71.36,1.27.85,1.68,1.48.41.63.62,1.33.62,2.13,0,.83-.23,1.57-.68,2.22-.44.65-1.03,1.07-1.76,1.26v.09c.56.1,1.07.34,1.52.72.45.38.81.85,1.08,1.41.27.56.41,1.17.41,1.83,0,.84-.23,1.6-.69,2.26-.45.66-1.07,1.17-1.87,1.55-.79.37-1.71.56-2.75.56ZM358,56.54c.71,0,1.32-.11,1.83-.34.51-.23.91-.55,1.19-.97.28-.42.42-.9.43-1.46,0-.59-.16-1.11-.46-1.56-.3-.45-.71-.81-1.23-1.07-.51-.26-1.1-.39-1.76-.39s-1.26.13-1.78.39c-.52.26-.93.62-1.23,1.07-.3.45-.44.97-.43,1.56,0,.56.13,1.05.4,1.46.28.42.68.74,1.2.97.52.23,1.13.34,1.85.34ZM358,49.12c.56,0,1.05-.11,1.49-.34.44-.22.78-.54,1.03-.94s.38-.87.38-1.41c0-.53-.13-.99-.37-1.38-.24-.4-.58-.7-1.01-.92-.43-.22-.93-.33-1.51-.33s-1.1.11-1.53.33c-.44.21-.78.52-1.01.92-.24.39-.36.85-.35,1.38,0,.54.11,1.01.36,1.41.25.4.59.71,1.03.94.44.22.94.34,1.51.34ZM366.23,58v-1.37l5.15-5.64c.61-.66,1.1-1.24,1.5-1.72.39-.49.68-.96.87-1.39.19-.44.29-.89.29-1.37,0-.55-.13-1.02-.4-1.43-.26-.4-.61-.71-1.07-.93-.45-.22-.96-.33-1.52-.33-.6,0-1.12.12-1.57.37-.44.24-.79.59-1.03,1.03-.24.44-.36.96-.36,1.56h-1.8c0-.92.21-1.72.63-2.41.42-.69,1-1.23,1.72-1.62.73-.39,1.55-.58,2.46-.58s1.73.19,2.43.58c.71.39,1.26.91,1.66,1.56.4.66.6,1.39.6,2.19,0,.57-.1,1.14-.31,1.69-.2.54-.56,1.15-1.07,1.82-.5.67-1.2,1.48-2.1,2.44l-3.51,3.75v.12h7.26v1.68h-9.85ZM384.23,58.21c-1.05,0-1.97-.19-2.77-.56-.8-.38-1.42-.89-1.87-1.55-.45-.66-.67-1.41-.66-2.26,0-.66.12-1.27.39-1.83.26-.56.62-1.03,1.08-1.41.46-.38.98-.62,1.55-.72v-.09c-.75-.19-1.34-.61-1.79-1.26-.44-.65-.66-1.39-.65-2.22,0-.79.2-1.5.6-2.13.41-.63.97-1.12,1.68-1.48.72-.36,1.53-.54,2.45-.54s1.71.18,2.43.54c.71.36,1.27.85,1.68,1.48.41.63.62,1.33.62,2.13,0,.83-.23,1.57-.68,2.22-.44.65-1.03,1.07-1.76,1.26v.09c.56.1,1.07.34,1.52.72.45.38.81.85,1.08,1.41.27.56.41,1.17.41,1.83,0,.84-.23,1.6-.69,2.26-.45.66-1.07,1.17-1.87,1.55-.79.37-1.71.56-2.75.56ZM384.23,56.54c.71,0,1.32-.11,1.83-.34.51-.23.91-.55,1.19-.97.28-.42.42-.9.43-1.46,0-.59-.16-1.11-.46-1.56-.3-.45-.71-.81-1.23-1.07-.51-.26-1.1-.39-1.76-.39s-1.26.13-1.78.39c-.52.26-.93.62-1.23,1.07-.29.45-.44.97-.43,1.56,0,.56.13,1.05.4,1.46.28.42.68.74,1.2.97.52.23,1.13.34,1.84.34ZM384.23,49.12c.56,0,1.06-.11,1.49-.34.44-.22.78-.54,1.03-.94.25-.4.38-.87.38-1.41,0-.53-.13-.99-.37-1.38-.24-.4-.58-.7-1.01-.92-.43-.22-.93-.33-1.51-.33s-1.09.11-1.53.33c-.44.21-.78.52-1.02.92-.24.39-.35.85-.35,1.38,0,.54.11,1.01.36,1.41.25.4.59.71,1.03.94.44.22.94.34,1.51.34ZM405.25,49.35v1.68h-6.83v-1.68h6.83ZM413.48,58.21c-1.15,0-2.13-.31-2.94-.94-.81-.63-1.43-1.54-1.85-2.74-.43-1.2-.64-2.65-.64-4.35s.21-3.13.64-4.32c.43-1.2,1.05-2.11,1.86-2.75.81-.64,1.79-.95,2.93-.95s2.11.32,2.92.95c.81.63,1.43,1.55,1.86,2.75.43,1.19.65,2.64.65,4.32s-.21,3.15-.64,4.35c-.43,1.19-1.05,2.11-1.85,2.74-.81.63-1.79.94-2.94.94ZM413.48,56.54c1.14,0,2.02-.55,2.65-1.65.63-1.1.95-2.66.95-4.7,0-1.35-.15-2.5-.43-3.45-.28-.95-.7-1.68-1.24-2.17-.53-.5-1.18-.75-1.93-.75-1.13,0-2.01.56-2.65,1.67-.64,1.11-.95,2.68-.95,4.7,0,1.35.14,2.5.43,3.45.29.95.69,1.66,1.23,2.16.54.49,1.19.74,1.95.74ZM422.6,58.12c-.38,0-.7-.13-.97-.4-.27-.27-.4-.59-.4-.97s.14-.7.4-.97c.27-.27.59-.4.97-.4s.7.13.97.4c.27.27.4.59.4.97,0,.25-.06.48-.19.69-.12.21-.29.38-.5.5-.2.12-.43.18-.69.18ZM431.72,58.21c-1.15,0-2.13-.31-2.94-.94-.81-.63-1.43-1.54-1.85-2.74-.43-1.2-.64-2.65-.64-4.35s.21-3.13.64-4.32c.43-1.2,1.05-2.11,1.86-2.75.81-.64,1.79-.95,2.93-.95s2.11.32,2.92.95c.81.63,1.43,1.55,1.86,2.75.43,1.19.65,2.64.65,4.32s-.21,3.15-.64,4.35c-.43,1.19-1.05,2.11-1.85,2.74-.81.63-1.79.94-2.94.94ZM431.72,56.54c1.14,0,2.02-.55,2.65-1.65.63-1.1.95-2.66.95-4.7,0-1.35-.14-2.5-.43-3.45-.29-.95-.7-1.68-1.24-2.17-.53-.5-1.18-.75-1.93-.75-1.13,0-2.01.56-2.65,1.67-.64,1.11-.95,2.68-.95,4.7,0,1.35.14,2.5.43,3.45.28.95.69,1.66,1.23,2.16.54.49,1.19.74,1.95.74ZM445.14,58.21c-1.15,0-2.13-.31-2.94-.94-.81-.63-1.43-1.54-1.85-2.74-.43-1.2-.64-2.65-.64-4.35s.21-3.13.64-4.32c.43-1.2,1.05-2.11,1.86-2.75.81-.64,1.79-.95,2.93-.95s2.11.32,2.92.95c.81.63,1.43,1.55,1.86,2.75.43,1.19.65,2.64.65,4.32s-.21,3.15-.64,4.35c-.43,1.19-1.04,2.11-1.85,2.74-.81.63-1.79.94-2.94.94ZM445.14,56.54c1.14,0,2.02-.55,2.65-1.65.63-1.1.94-2.66.94-4.7,0-1.35-.14-2.5-.43-3.45-.29-.95-.7-1.68-1.24-2.17-.53-.5-1.18-.75-1.93-.75-1.13,0-2.01.56-2.65,1.67-.64,1.11-.95,2.68-.95,4.7,0,1.35.14,2.5.43,3.45.28.95.69,1.66,1.23,2.16.54.49,1.19.74,1.94.74ZM458.56,58.21c-1.15,0-2.13-.31-2.94-.94-.81-.63-1.43-1.54-1.85-2.74-.43-1.2-.64-2.65-.64-4.35s.21-3.13.64-4.32c.43-1.2,1.05-2.11,1.86-2.75.81-.64,1.79-.95,2.93-.95s2.11.32,2.92.95c.81.63,1.43,1.55,1.86,2.75.43,1.19.65,2.64.65,4.32s-.21,3.15-.64,4.35c-.43,1.19-1.05,2.11-1.85,2.74-.81.63-1.79.94-2.94.94ZM458.56,56.54c1.14,0,2.02-.55,2.65-1.65.63-1.1.95-2.66.95-4.7,0-1.35-.15-2.5-.43-3.45-.29-.95-.7-1.68-1.24-2.17-.53-.5-1.18-.75-1.93-.75-1.13,0-2.01.56-2.65,1.67-.63,1.11-.95,2.68-.95,4.7,0,1.35.14,2.5.43,3.45.28.95.69,1.66,1.23,2.16.54.49,1.19.74,1.94.74ZM472.38,42.38v15.62h-1.89v-13.63h-.09l-3.81,2.53v-1.92l3.9-2.59h1.89ZM476.51,54.8v-1.56l6.86-10.86h1.13v2.41h-.76l-5.18,8.21v.12h9.24v1.68h-11.29ZM483.86,58v-15.62h1.8v15.62h-1.8ZM497.36,50.19c0-1.92.25-3.69.75-5.3.5-1.62,1.22-3.1,2.15-4.46h1.59c-.37.5-.71,1.12-1.03,1.86-.32.73-.59,1.54-.83,2.42-.24.87-.43,1.78-.56,2.71-.13.94-.2,1.86-.2,2.77,0,1.21.12,2.44.35,3.68.23,1.25.55,2.4.94,3.47.4,1.07.84,1.94,1.33,2.61h-1.59c-.93-1.36-1.65-2.84-2.15-4.45-.5-1.62-.75-3.39-.75-5.31ZM511.21,49.35v1.68h-6.83v-1.68h6.83ZM519.44,58.21c-1.15,0-2.13-.31-2.94-.94-.81-.63-1.43-1.54-1.85-2.74-.43-1.2-.64-2.65-.64-4.35s.21-3.13.64-4.32c.43-1.2,1.05-2.11,1.86-2.75.81-.64,1.79-.95,2.93-.95s2.11.32,2.92.95c.81.63,1.43,1.55,1.86,2.75.43,1.19.65,2.64.65,4.32s-.21,3.15-.64,4.35c-.43,1.19-1.05,2.11-1.85,2.74-.81.63-1.79.94-2.94.94ZM519.44,56.54c1.14,0,2.02-.55,2.65-1.65.63-1.1.95-2.66.95-4.7,0-1.35-.14-2.5-.43-3.45-.29-.95-.7-1.68-1.24-2.17-.53-.5-1.18-.75-1.93-.75-1.13,0-2.01.56-2.65,1.67-.64,1.11-.95,2.68-.95,4.7,0,1.35.14,2.5.43,3.45.28.95.69,1.66,1.23,2.16.54.49,1.19.74,1.94.74ZM528.56,58.12c-.38,0-.7-.13-.97-.4-.27-.27-.4-.59-.4-.97s.13-.7.4-.97c.27-.27.59-.4.97-.4s.7.13.97.4c.27.27.4.59.4.97,0,.25-.06.48-.19.69-.12.21-.29.38-.5.5-.2.12-.43.18-.69.18ZM537.68,58.21c-1.15,0-2.13-.31-2.93-.94-.81-.63-1.43-1.54-1.85-2.74-.43-1.2-.64-2.65-.64-4.35s.21-3.13.64-4.32c.43-1.2,1.05-2.11,1.86-2.75.81-.64,1.79-.95,2.93-.95s2.11.32,2.92.95c.81.63,1.43,1.55,1.86,2.75.43,1.19.65,2.64.65,4.32s-.21,3.15-.64,4.35c-.43,1.19-1.04,2.11-1.85,2.74-.81.63-1.79.94-2.94.94ZM537.68,56.54c1.14,0,2.02-.55,2.65-1.65.63-1.1.95-2.66.95-4.7,0-1.35-.15-2.5-.43-3.45-.29-.95-.7-1.68-1.24-2.17-.53-.5-1.18-.75-1.93-.75-1.13,0-2.01.56-2.65,1.67-.64,1.11-.95,2.68-.95,4.7,0,1.35.14,2.5.43,3.45.29.95.69,1.66,1.23,2.16.54.49,1.19.74,1.94.74ZM551.5,42.38v15.62h-1.89v-13.63h-.09l-3.81,2.53v-1.92l3.9-2.59h1.89ZM563.95,55.07v-.82c0-.57.12-1.09.35-1.56.24-.48.58-.86,1.04-1.14.46-.29,1.01-.43,1.66-.43s1.21.14,1.66.43c.45.28.79.67,1.01,1.14.23.47.34.99.34,1.56v.82c0,.57-.12,1.09-.35,1.57-.23.47-.57.85-1.02,1.14-.45.28-1,.43-1.65.43s-1.22-.14-1.67-.43c-.45-.29-.8-.67-1.03-1.14-.23-.48-.35-1-.35-1.57ZM565.51,54.25v.82c0,.47.11.9.34,1.27.22.37.61.56,1.16.56s.91-.19,1.13-.56c.22-.38.34-.8.34-1.27v-.82c0-.47-.11-.89-.32-1.27-.21-.38-.6-.56-1.14-.56s-.92.19-1.15.56c-.23.37-.34.79-.34,1.27ZM556.17,46.13v-.82c0-.57.12-1.09.35-1.56.24-.48.59-.86,1.04-1.14.46-.29,1.01-.43,1.66-.43s1.21.14,1.66.43c.45.28.79.67,1.01,1.14.23.47.34.99.34,1.56v.82c0,.57-.12,1.09-.35,1.57-.23.47-.57.85-1.02,1.14-.45.28-1,.43-1.65.43s-1.22-.14-1.67-.43c-.45-.29-.8-.67-1.03-1.14-.23-.48-.35-1-.35-1.57ZM557.73,45.31v.82c0,.47.11.9.34,1.27.22.37.61.56,1.16.56s.91-.19,1.13-.56c.22-.38.34-.8.34-1.27v-.82c0-.47-.11-.89-.32-1.27-.21-.38-.59-.56-1.14-.56s-.92.19-1.15.56c-.23.37-.34.79-.34,1.27ZM556.76,58l10.74-15.62h1.74l-10.74,15.62h-1.74ZM577.31,50.19c0,1.92-.25,3.69-.76,5.31-.5,1.61-1.21,3.1-2.14,4.45h-1.59c.37-.5.71-1.12,1.02-1.86.32-.73.6-1.54.84-2.41.24-.88.42-1.79.56-2.72.14-.94.21-1.86.21-2.77,0-1.21-.12-2.44-.35-3.68-.23-1.25-.55-2.4-.95-3.47-.4-1.07-.84-1.94-1.33-2.61h1.59c.93,1.36,1.64,2.84,2.14,4.46.5,1.61.76,3.38.76,5.3Z"></path><path class="st6" d="M1892.99,284.82l-28.09-33.29-18.5-25.93-17-9.11-21.5,26.5-19-23-19.5,32h-18.5l-19-29-19-8.5-19-23.5-17.65-26.05-20.35,5.55-18.5,17.5-20,7-19.43,40.67-37.57-12.67-18.5,102-16.5,12.5-21,13.5-20-29-18,17h-19l-19-57.5-19.5,19-18.5-8-19.02-14.94-19.98,14.94-18-8.5-37.5,5-20-107.57-19,5.5-37.5-5.5-55.5,52.57-19.5,35-15.5-12-29.2-85.18-43.2,140.18-46.5,26.5-38,60-38-101.5-19-95-17.5-35-39.5-100-18.5,43.5-19,24-19.5-32.5-18.5,5.5-19,71-18.5,15-17,23-21.5,26.5-19-23-19.5,32h-18.5l-19-29-19-8.5-19-23.5-19,10.5-19-31-18.5,17.5-20,7-18.5-30.5-38.5,58.5-18.5,102-16.5,12.5-21,13.5-20-29-18,17h-19l-19-57.5-19.5,19-18.5-8-19,19.5-20-19.5-18-8.5-37.5,5-20-14-19,5.5-37.5-5.5-19-6-20-12-16.5-23-19.5,35-15.5-12H0"></path><path class="st4" d="M1,1h1096"></path></svg>