<svg width="24" height="24" viewBox="0 0 24 24" fill="none" xmlns="http://www.w3.org/2000/svg">
<g clip-path="url(#clip0_442_468)">
<path d="M12 24C18.6274 24 24 18.6274 24 12C24 5.37258 18.6274 0 12 0C5.37258 0 0 5.37258 0 12C0 18.6274 5.37258 24 12 24Z" fill="#2E3148"/>
<path d="M12.0151 4.14746C11.0438 4.14746 10.2563 7.67021 10.2563 12.015C10.2563 16.3597 11.0438 19.8825 12.0151 19.8825C12.9856 19.8825 13.7731 16.3597 13.7731 12.015C13.7731 7.67021 12.9856 4.14746 12.0151 4.14746ZM12.1366 19.4377C12.0256 19.5862 11.9138 19.4752 11.9138 19.4752C11.4668 18.9562 11.2433 17.994 11.2433 17.994C10.4611 15.4762 10.6471 10.071 10.6471 10.071C11.0146 5.78021 11.6836 4.76621 11.9108 4.54121C11.9341 4.51814 11.9648 4.50404 11.9975 4.50144C12.0302 4.49883 12.0627 4.50787 12.0893 4.52696C12.4193 4.76171 12.6968 5.73971 12.6968 5.73971C13.5143 8.77571 13.4401 11.6257 13.4401 11.6257C13.5143 14.1067 13.0306 16.8832 13.0306 16.8832C12.6578 18.9937 12.1366 19.4377 12.1366 19.4377Z" fill="white"/>
<path d="M18.8385 8.10006C18.3548 7.25706 14.9085 8.32731 11.1382 10.4896C7.368 12.6518 4.7085 15.0871 5.19075 15.9301C5.6745 16.7731 9.1215 15.7028 12.8917 13.5406C16.662 11.3783 19.3215 8.94231 18.8385 8.10006ZM5.63625 15.8138C5.45175 15.7913 5.49375 15.6383 5.49375 15.6383C5.72025 14.9933 6.44325 14.3198 6.44325 14.3198C8.238 12.3886 13.02 9.86031 13.02 9.86031C16.9245 8.04381 18.1373 8.12031 18.4448 8.20431C18.4765 8.21302 18.5041 8.23274 18.5227 8.25995C18.5412 8.28715 18.5495 8.32007 18.546 8.35281C18.5085 8.75556 17.796 9.48306 17.796 9.48306C15.5715 11.7038 13.062 13.0591 13.062 13.0591C10.947 14.3581 8.29725 15.3188 8.29725 15.3188C6.28125 16.0448 5.63625 15.8138 5.63625 15.8138Z" fill="white"/>
<path d="M18.8211 15.9577C19.3086 15.1177 16.6559 12.6704 12.8976 10.4917C9.14013 8.31367 5.69463 7.23067 5.20788 8.07217C4.72038 8.91442 7.37388 11.3594 11.1329 13.5382C14.8926 15.7162 18.3344 16.7992 18.8211 15.9577ZM5.53113 8.39692C5.45838 8.22592 5.61063 8.18467 5.61063 8.18467C6.28338 8.05717 7.22838 8.34742 7.22838 8.34742C9.79863 8.93242 14.3819 11.8034 14.3819 11.8034C17.9106 14.2724 18.4521 15.3607 18.5331 15.6689C18.5413 15.7006 18.5381 15.7341 18.5239 15.7637C18.5098 15.7932 18.4857 15.8167 18.4559 15.8302C18.0884 15.9989 17.1021 15.7477 17.1021 15.7477C14.0646 14.9332 11.6354 13.4414 11.6354 13.4414C9.45288 12.2639 7.29438 10.4527 7.29438 10.4527C5.65413 9.07117 5.53188 8.39767 5.53188 8.39767L5.53038 8.39692H5.53113Z" fill="white"/>
<path d="M11.9963 12.9218C12.5074 12.9218 12.9218 12.5074 12.9218 11.9963C12.9218 11.4852 12.5074 11.0708 11.9963 11.0708C11.4852 11.0708 11.0708 11.4852 11.0708 11.9963C11.0708 12.5074 11.4852 12.9218 11.9963 12.9218Z" fill="white"/>
<path d="M15.7913 9.19189C16.2055 9.19189 16.5413 8.85611 16.5413 8.44189C16.5413 8.02768 16.2055 7.69189 15.7913 7.69189C15.377 7.69189 15.0413 8.02768 15.0413 8.44189C15.0413 8.85611 15.377 9.19189 15.7913 9.19189Z" fill="white"/>
<path d="M6.97949 11.0806C7.39371 11.0806 7.72949 10.7448 7.72949 10.3306C7.72949 9.91635 7.39371 9.58057 6.97949 9.58057C6.56528 9.58057 6.22949 9.91635 6.22949 10.3306C6.22949 10.7448 6.56528 11.0806 6.97949 11.0806Z" fill="white"/>
<path d="M10.9043 17.8918C11.3185 17.8918 11.6543 17.5561 11.6543 17.1418C11.6543 16.7276 11.3185 16.3918 10.9043 16.3918C10.4901 16.3918 10.1543 16.7276 10.1543 17.1418C10.1543 17.5561 10.4901 17.8918 10.9043 17.8918Z" fill="white"/>
</g>
<defs>
<clipPath id="clip0_442_468">
<rect width="24" height="24" fill="white"/>
</clipPath>
</defs>
</svg>
