<svg width="24" height="24" viewBox="0 0 24 24" fill="none" xmlns="http://www.w3.org/2000/svg">
<g clip-path="url(#clip0_443_720)">
<mask id="mask0_443_720" style="mask-type:luminance" maskUnits="userSpaceOnUse" x="0" y="0" width="24" height="24">
<path d="M24 0H0V24H24V0Z" fill="white"/>
</mask>
<g mask="url(#mask0_443_720)">
<path d="M11.719 2H3.28C2.41 2.00027 1.57572 2.34606 0.960629 2.96134C0.345538 3.57661 -4.0409e-08 4.411 0 5.281V13.719C0 14.5892 0.345676 15.4237 0.960983 16.039C1.57629 16.6543 2.41082 17 3.281 17H11.719C12.5892 17 13.4237 16.6543 14.039 16.039C14.6543 15.4237 15 14.5892 15 13.719V5.28C14.9997 4.41 14.6539 3.57572 14.0387 2.96063C13.4234 2.34554 12.589 2 11.719 2Z" fill="#2841C1"/>
<path fill-rule="evenodd" clip-rule="evenodd" d="M11.4131 4.94598L11.2911 4.54598C11.2889 4.53855 11.2843 4.53203 11.2781 4.5274C11.2719 4.52276 11.2644 4.52026 11.2566 4.52026C11.2489 4.52026 11.2413 4.52276 11.2351 4.5274C11.2289 4.53203 11.2243 4.53855 11.2221 4.54598L11.1011 4.94598L10.7111 4.79098C10.6791 4.77798 10.6481 4.81598 10.6691 4.84498L10.9061 5.18998L10.5431 5.39698C10.536 5.40061 10.5304 5.40648 10.527 5.41368C10.5236 5.42088 10.5227 5.42899 10.5244 5.43676C10.5261 5.44453 10.5303 5.45151 10.5364 5.45661C10.5425 5.46172 10.5502 5.46466 10.5581 5.46498L10.9761 5.49398L10.9111 5.90698C10.9096 5.91483 10.9107 5.92297 10.9143 5.93012C10.9178 5.93727 10.9237 5.94303 10.9309 5.94647C10.9382 5.94991 10.9463 5.95084 10.9542 5.94912C10.962 5.9474 10.969 5.94313 10.9741 5.93698L11.2571 5.62898L11.5401 5.93698C11.5641 5.96397 11.6081 5.94298 11.6021 5.90698L11.5381 5.49398L11.9551 5.46398C11.9628 5.46351 11.9702 5.46057 11.9761 5.45561C11.982 5.45064 11.9861 5.44391 11.9879 5.4364C11.9897 5.4289 11.9891 5.42101 11.986 5.41391C11.983 5.40681 11.9778 5.40088 11.9711 5.39698L11.6071 5.18998L11.8451 4.84498C11.8651 4.81498 11.8351 4.77798 11.8021 4.79098L11.4121 4.94598H11.4131ZM4.06907 12.706L3.82107 11.886C3.81656 11.8707 3.80721 11.8572 3.79441 11.8476C3.78161 11.838 3.76606 11.8329 3.75007 11.8329C3.73408 11.8329 3.71853 11.838 3.70573 11.8476C3.69293 11.8572 3.68358 11.8707 3.67907 11.886L3.43107 12.706L2.63507 12.389C2.62038 12.3831 2.60418 12.382 2.58885 12.386C2.57352 12.39 2.55987 12.3988 2.54991 12.4111C2.53995 12.4234 2.5342 12.4386 2.53351 12.4544C2.53282 12.4702 2.53722 12.4859 2.54607 12.499L3.03307 13.206L2.28807 13.631C2.27472 13.6391 2.26428 13.6512 2.25823 13.6656C2.25218 13.68 2.25083 13.6959 2.25438 13.7111C2.25793 13.7263 2.2662 13.74 2.27799 13.7502C2.28979 13.7604 2.30452 13.7667 2.32007 13.768L3.17507 13.828L3.04307 14.675C3.04094 14.6905 3.04378 14.7063 3.0512 14.7201C3.05862 14.7339 3.07022 14.745 3.08434 14.7518C3.09846 14.7586 3.11437 14.7607 3.12978 14.7578C3.14518 14.755 3.15929 14.7474 3.17007 14.736L3.75007 14.106L4.33007 14.736C4.38007 14.79 4.46907 14.747 4.45707 14.675L4.32507 13.828L5.18007 13.768C5.25307 13.763 5.27507 13.667 5.21207 13.63L4.46707 13.206L4.95407 12.5C4.96271 12.4869 4.96698 12.4715 4.96627 12.4558C4.96557 12.4402 4.95992 12.4252 4.95013 12.4129C4.94035 12.4007 4.92694 12.3919 4.91184 12.3878C4.89673 12.3837 4.88071 12.3844 4.86607 12.39L4.06907 12.706ZM8.58607 8.21798L8.70807 8.61798L9.09607 8.46397C9.10331 8.46067 9.11145 8.45986 9.1192 8.46167C9.12695 8.46349 9.13389 8.46782 9.13891 8.47399C9.14394 8.48016 9.14679 8.48783 9.14699 8.49579C9.1472 8.50374 9.14477 8.51155 9.14007 8.51797L8.90207 8.86298L9.26607 9.06997C9.27273 9.07387 9.27796 9.07981 9.28099 9.08691C9.28402 9.09401 9.28469 9.1019 9.2829 9.1094C9.2811 9.11691 9.27694 9.12364 9.27103 9.12861C9.26512 9.13357 9.25777 9.13651 9.25007 9.13698L8.83307 9.16698L8.89707 9.57998C8.89826 9.5876 8.89697 9.5954 8.89339 9.60224C8.88981 9.60908 8.88413 9.61458 8.87718 9.61794C8.87024 9.6213 8.86239 9.62234 8.85481 9.62091C8.84723 9.61947 8.84031 9.61564 8.83507 9.60997L8.55207 9.30198L8.26807 9.60997C8.26283 9.61564 8.25591 9.61947 8.24833 9.62091C8.24075 9.62234 8.2329 9.6213 8.22596 9.61794C8.21901 9.61458 8.21333 9.60908 8.20975 9.60224C8.20617 9.5954 8.20488 9.5876 8.20607 9.57998L8.27107 9.16698L7.85307 9.13698C7.84544 9.13632 7.83823 9.13325 7.83246 9.12822C7.8267 9.12318 7.82269 9.11644 7.82102 9.10897C7.81934 9.1015 7.8201 9.0937 7.82316 9.08668C7.82623 9.07967 7.83145 9.07382 7.83807 9.06997L8.20107 8.86298L7.96407 8.51797C7.95962 8.51161 7.95735 8.50399 7.95759 8.49623C7.95784 8.48847 7.96058 8.481 7.96541 8.47493C7.97025 8.46885 7.97692 8.46451 7.98442 8.46253C7.99193 8.46056 7.99987 8.46107 8.00707 8.46397L8.39607 8.61898L8.51707 8.21798C8.52707 8.18398 8.57607 8.18398 8.58707 8.21798H8.58607ZM13.9761 6.70498L13.8541 6.30398C13.8441 6.26998 13.7941 6.26998 13.7841 6.30398L13.6641 6.70398L13.2741 6.54998C13.2411 6.53598 13.2111 6.57398 13.2311 6.60398L13.4691 6.94798L13.1051 7.15598C13.0985 7.15982 13.0933 7.16567 13.0902 7.17268C13.0871 7.1797 13.0864 7.1875 13.0881 7.19497C13.0897 7.20244 13.0937 7.20918 13.0995 7.21422C13.1053 7.21925 13.1125 7.22232 13.1201 7.22298L13.5381 7.25298L13.4741 7.66598C13.4681 7.70198 13.5121 7.72298 13.5361 7.69598L13.8191 7.38798L14.1021 7.69598C14.1261 7.72298 14.1701 7.70198 14.1651 7.66598L14.1001 7.25298L14.5181 7.22298C14.5257 7.22232 14.533 7.21925 14.5387 7.21422C14.5445 7.20918 14.5485 7.20244 14.5502 7.19497C14.5518 7.1875 14.5511 7.1797 14.548 7.17268C14.545 7.16567 14.5397 7.15982 14.5331 7.15598L14.1691 6.94798L14.4071 6.60398C14.4271 6.57398 14.3971 6.53598 14.3641 6.54998L13.9761 6.70498ZM11.2911 12.783L11.4131 13.184L11.8021 13.029C11.8093 13.0261 11.8172 13.0256 11.8248 13.0276C11.8323 13.0295 11.8389 13.0339 11.8438 13.0399C11.8486 13.046 11.8513 13.0535 11.8516 13.0612C11.8518 13.069 11.8496 13.0766 11.8451 13.083L11.6071 13.428L11.9711 13.635C11.9782 13.6387 11.984 13.6446 11.9873 13.6519C11.9907 13.6592 11.9915 13.6674 11.9897 13.6752C11.9878 13.6831 11.9834 13.69 11.9772 13.6951C11.9709 13.7001 11.9631 13.7029 11.9551 13.703L11.5381 13.732L11.6021 14.146C11.6081 14.181 11.5641 14.202 11.5401 14.176L11.2571 13.867L10.9731 14.176C10.9679 14.1817 10.9609 14.1855 10.9534 14.1869C10.9458 14.1884 10.9379 14.1873 10.931 14.184C10.9241 14.1806 10.9184 14.1751 10.9148 14.1683C10.9112 14.1614 10.9099 14.1536 10.9111 14.146L10.9761 13.732L10.5581 13.702C10.5508 13.7011 10.5439 13.6979 10.5384 13.693C10.5329 13.688 10.5291 13.6815 10.5275 13.6743C10.5258 13.667 10.5265 13.6595 10.5293 13.6527C10.5321 13.6458 10.5369 13.64 10.5431 13.636L10.9061 13.428L10.6691 13.083C10.6647 13.0766 10.6624 13.069 10.6626 13.0612C10.6629 13.0535 10.6656 13.046 10.6705 13.0399C10.6753 13.0339 10.682 13.0295 10.6895 13.0276C10.697 13.0256 10.7049 13.0261 10.7121 13.029L11.1011 13.184L11.2221 12.784C11.224 12.7761 11.2285 12.7691 11.2348 12.7641C11.2412 12.7591 11.249 12.7564 11.2571 12.7564C11.2652 12.7564 11.273 12.7591 11.2794 12.7641C11.2857 12.7691 11.2902 12.7761 11.2921 12.784L11.2911 12.783ZM12.1331 9.52798L12.2311 9.23497C12.2335 9.22634 12.2387 9.21874 12.2458 9.21332C12.2529 9.2079 12.2617 9.20496 12.2706 9.20496C12.2796 9.20496 12.2883 9.2079 12.2954 9.21332C12.3025 9.21874 12.3077 9.22634 12.3101 9.23497L12.4071 9.52798L12.7151 9.52997C12.7551 9.52997 12.7711 9.58097 12.7391 9.60497L12.4921 9.78798L12.5841 10.081C12.5872 10.0893 12.5874 10.0983 12.5849 10.1068C12.5824 10.1153 12.5772 10.1227 12.5701 10.128C12.5631 10.1333 12.5545 10.1361 12.5456 10.1361C12.5368 10.1361 12.5282 10.1333 12.5211 10.128L12.2711 9.94798L12.0201 10.128C12.013 10.1328 12.0046 10.1353 11.996 10.1352C11.9874 10.1351 11.979 10.1323 11.9721 10.1273C11.9651 10.1223 11.9598 10.1153 11.957 10.1072C11.9541 10.0991 11.9538 10.0903 11.9561 10.082L12.0491 9.78798L11.8011 9.60497C11.7944 9.59968 11.7894 9.59246 11.7869 9.58426C11.7844 9.57606 11.7844 9.5673 11.787 9.55913C11.7896 9.55097 11.7947 9.5438 11.8015 9.53858C11.8083 9.53337 11.8165 9.53037 11.8251 9.52997L12.1331 9.52798Z" fill="#F5F5F5"/>
<path fill-rule="evenodd" clip-rule="evenodd" d="M7.5 2V2.585L4.736 4.395V2H7.5ZM0.813 3.118C1.31724 2.54224 2.00715 2.1612 2.763 2.041V4.396L0.813 3.118ZM0.041 4.763C0.075 4.546 0.131 4.336 0.206 4.136L1.164 4.763H0.04H0.041ZM0 6.737V7.499L1.163 6.737H0ZM7.501 7.499V6.737H6.338L7.501 7.499ZM7.5 9.5H4.736V7.104L7.5 8.914V9.5ZM7.502 4.763V4.001L6.339 4.763H7.5H7.502ZM0 8.915L2.763 7.105V9.5H0V8.915Z" fill="#2841C1"/>
<path fill-rule="evenodd" clip-rule="evenodd" d="M7.5 4.763V5.158H4.342V2H4.737V4.396L7.5 2.586V2.969L4.737 4.763H5.462L7.5 3.44V4L6.336 4.763H7.5ZM3.157 2.003C3.02502 2.00776 2.89345 2.02045 2.763 2.041V4.396L0.813 3.119C0.695608 3.25284 0.58926 3.39597 0.495 3.547L2.368 4.763H1.643L0.306 3.895C0.269488 3.97364 0.236129 4.0537 0.206 4.135L1.163 4.763H0.04C0.02 4.893 0.007 5.024 0.002 5.158H3.157V2.003ZM3.157 9.5H2.763V7.104L0 8.914V8.524L2.752 6.737H2.027L0 8.053V7.499L1.163 6.737H0V6.342H3.158L3.157 9.5ZM4.737 9.5H4.342V6.342H7.5V6.737H6.336L7.5 7.499V7.859L5.77 6.737H5.046L7.5 8.33V8.915L4.737 7.105V9.5Z" fill="#F5F5F5"/>
<path fill-rule="evenodd" clip-rule="evenodd" d="M3.158 9.5H4.342V6.342H7.5V5.158H4.342V2H3.282C3.24 2 3.199 2.001 3.158 2.003V5.158H0.003C0.00125125 5.19864 0.000251084 5.23932 0 5.28V6.341H3.158V9.5ZM2.028 6.737L0 8.053V8.523L2.752 6.737H2.027H2.028ZM7.498 8.33L5.045 6.737H5.77L7.5 7.859V8.329L7.498 8.33ZM2.367 4.763L0.494 3.547C0.424 3.659 0.361 3.775 0.304 3.895L1.642 4.763H2.367ZM7.499 3.44L5.461 4.763H4.736L7.5 2.97V3.441L7.499 3.44Z" fill="#FF4B55"/>
<path d="M20.719 7H12.28C11.41 7.00027 10.5757 7.34606 9.96063 7.96134C9.34554 8.57661 9 9.411 9 10.281V18.719C9 19.5892 9.34568 20.4237 9.96098 21.039C10.5763 21.6543 11.4108 22 12.281 22H20.719C21.5892 22 22.4237 21.6543 23.039 21.039C23.6543 20.4237 24 19.5892 24 18.719V10.28C23.9997 9.41 23.6539 8.57572 23.0387 7.96063C22.4234 7.34554 21.589 7 20.719 7Z" fill="#F6F6F6"/>
<path d="M16.5 18C16.9596 18 17.4148 17.9095 17.8394 17.7336C18.264 17.5577 18.6499 17.2999 18.9749 16.9749C19.2999 16.6499 19.5577 16.264 19.7336 15.8394C19.9095 15.4148 20 14.9596 20 14.5C20 14.0404 19.9095 13.5852 19.7336 13.1606C19.5577 12.736 19.2999 12.3501 18.9749 12.0251C18.6499 11.7001 18.264 11.4423 17.8394 11.2664C17.4148 11.0905 16.9596 11 16.5 11C15.5717 11 14.6815 11.3687 14.0251 12.0251C13.3687 12.6815 13 13.5717 13 14.5C13 15.4283 13.3687 16.3185 14.0251 16.9749C14.6815 17.6313 15.5717 18 16.5 18Z" fill="#FB4B4E"/>
</g>
</g>
<defs>
<clipPath id="clip0_443_720">
<rect width="24" height="24" fill="white"/>
</clipPath>
</defs>
</svg>
