<svg width="24" height="24" viewBox="0 0 24 24" fill="none" xmlns="http://www.w3.org/2000/svg">
<g clip-path="url(#clip0_442_461)">
<path d="M12 24C18.6274 24 24 18.6274 24 12C24 5.37258 18.6274 0 12 0C5.37258 0 0 5.37258 0 12C0 18.6274 5.37258 24 12 24Z" fill="#8DC351"/>
<path d="M15.9052 7.90055C15.3232 6.42155 13.8637 6.28805 12.1642 6.61805L11.5589 4.5083L10.2749 4.87655L10.8644 6.93155C10.5269 7.02755 10.1834 7.13405 9.84217 7.23905L9.24967 5.17055L7.96642 5.53805L8.57017 7.6478C8.29417 7.7333 8.02267 7.8173 7.75642 7.8938L7.75417 7.8863L5.98267 8.39405L6.37642 9.76655C6.37642 9.76655 7.31992 9.47555 7.30867 9.49805C7.82917 9.3488 8.08492 9.6023 8.20867 9.84905L8.89867 12.2521C8.93392 12.2423 8.98117 12.2303 9.03667 12.2221L8.90092 12.2611L9.86617 15.6286C9.89017 15.7988 9.86917 16.0876 9.50617 16.1926C9.52642 16.2023 8.57167 16.4596 8.57167 16.4596L8.75692 18.0668L10.4279 17.5868C10.7392 17.4991 11.0467 17.4166 11.3474 17.3318L11.9602 19.4656L13.2427 19.0981L12.6374 16.9868C12.9814 16.8955 13.3245 16.8005 13.6664 16.7018L14.2679 18.8041L15.5527 18.4358L14.9422 16.3058C17.0654 15.5626 18.4207 14.5853 18.0269 12.5033C17.7104 10.8278 16.7339 10.3193 15.4237 10.3763C16.0597 9.7838 16.3334 8.98205 15.9052 7.90055ZM15.4177 12.9781C15.8752 14.5733 13.0927 15.1748 12.2227 15.4253L11.4119 12.5978C12.2819 12.3481 14.9399 11.3153 15.4169 12.9788L15.4177 12.9781ZM13.6762 9.16055C14.0917 10.6118 11.7659 11.0956 11.0407 11.3033L10.3057 8.73905C11.0302 8.5313 13.2419 7.6478 13.6762 9.1613V9.16055Z" fill="white"/>
</g>
<defs>
<clipPath id="clip0_442_461">
<rect width="24" height="24" fill="white"/>
</clipPath>
</defs>
</svg>
