<svg width="24" height="24" viewBox="0 0 24 24" fill="none" xmlns="http://www.w3.org/2000/svg">
<g clip-path="url(#clip0_443_770)">
<mask id="mask0_443_770" style="mask-type:luminance" maskUnits="userSpaceOnUse" x="0" y="0" width="24" height="24">
<path d="M24 0H0V24H24V0Z" fill="white"/>
</mask>
<g mask="url(#mask0_443_770)">
<path d="M11.719 2H3.28C2.41 2.00027 1.57572 2.34606 0.960629 2.96134C0.345538 3.57661 -4.0409e-08 4.411 0 5.281V13.719C0 14.5892 0.345676 15.4237 0.960983 16.039C1.57629 16.6543 2.41082 17 3.281 17H11.719C12.5892 17 13.4237 16.6543 14.039 16.039C14.6543 15.4237 15 14.5892 15 13.719V5.28C14.9997 4.41 14.6539 3.57572 14.0387 2.96063C13.4234 2.34554 12.589 2 11.719 2Z" fill="#0A48B6"/>
<path fill-rule="evenodd" clip-rule="evenodd" d="M7.73992 5.30104L7.61392 4.92604C7.61028 4.91569 7.60352 4.90672 7.59456 4.90037C7.5856 4.89403 7.5749 4.89062 7.56392 4.89062C7.55295 4.89062 7.54224 4.89403 7.53329 4.90037C7.52433 4.90672 7.51756 4.91569 7.51392 4.92604L7.38792 5.30104L6.99292 5.30504C6.98171 5.30504 6.97079 5.30859 6.96172 5.31519C6.95266 5.32178 6.94592 5.33109 6.94247 5.34175C6.93903 5.35242 6.93905 5.36391 6.94255 5.37456C6.94604 5.38522 6.95283 5.39449 6.96192 5.40104L7.27992 5.63604L7.15992 6.01304C7.14492 6.06104 7.19992 6.10204 7.24192 6.07204L7.56392 5.84204L7.88592 6.07204C7.92692 6.10204 7.98292 6.06204 7.96692 6.01204L7.84792 5.63604L8.16592 5.40104C8.17502 5.39449 8.1818 5.38522 8.1853 5.37456C8.18879 5.36391 8.18882 5.35242 8.18537 5.34175C8.18193 5.33109 8.17519 5.32178 8.16612 5.31519C8.15706 5.30859 8.14614 5.30504 8.13492 5.30504L7.73992 5.30104ZM7.73992 13.355L7.61392 12.98C7.61028 12.9696 7.60352 12.9607 7.59456 12.9543C7.5856 12.948 7.5749 12.9446 7.56392 12.9446C7.55295 12.9446 7.54224 12.948 7.53329 12.9543C7.52433 12.9607 7.51756 12.9696 7.51392 12.98L7.38792 13.355L6.99292 13.358C6.98171 13.358 6.97079 13.3616 6.96172 13.3681C6.95266 13.3747 6.94592 13.384 6.94247 13.3947C6.93903 13.4054 6.93905 13.4169 6.94255 13.4275C6.94604 13.4382 6.95283 13.4474 6.96192 13.454L7.27992 13.689L7.15992 14.066C7.14492 14.115 7.19992 14.156 7.24192 14.126L7.56392 13.896L7.88592 14.126C7.92692 14.156 7.98292 14.115 7.96692 14.066L7.84792 13.689L8.16592 13.454C8.17502 13.4474 8.1818 13.4382 8.1853 13.4275C8.18879 13.4169 8.18882 13.4054 8.18537 13.3947C8.18193 13.384 8.17519 13.3747 8.16612 13.3681C8.15706 13.3616 8.14614 13.358 8.13492 13.358L7.73992 13.355ZM11.6399 8.95304L11.7659 9.32804L12.1609 9.33105C12.2129 9.33105 12.2339 9.39705 12.1929 9.42805L11.8739 9.66204L11.9939 10.039C11.9978 10.0498 11.998 10.0615 11.9947 10.0724C11.9913 10.0833 11.9845 10.0928 11.9753 10.0996C11.9661 10.1063 11.9549 10.1099 11.9435 10.1098C11.9321 10.1097 11.921 10.1059 11.9119 10.099L11.5899 9.86905L11.2689 10.099C11.2598 10.1059 11.2487 10.1097 11.2373 10.1098C11.2259 10.1099 11.2148 10.1063 11.2055 10.0996C11.1963 10.0928 11.1895 10.0833 11.1862 10.0724C11.1828 10.0615 11.1831 10.0498 11.1869 10.039L11.3069 9.66204L10.9879 9.42805C10.9784 9.42165 10.9712 9.41232 10.9674 9.40147C10.9636 9.39062 10.9634 9.37884 10.9669 9.3679C10.9704 9.35695 10.9774 9.34744 10.9868 9.34079C10.9961 9.33415 11.0074 9.33073 11.0189 9.33105L11.4149 9.32804L11.5399 8.95304C11.5436 8.94269 11.5503 8.93372 11.5593 8.92737C11.5682 8.92103 11.5789 8.91762 11.5899 8.91762C11.6009 8.91762 11.6116 8.92103 11.6206 8.92737C11.6295 8.93372 11.6363 8.94269 11.6399 8.95304ZM3.71292 9.32804L3.58792 8.95304C3.58451 8.94233 3.57778 8.93298 3.5687 8.92634C3.55962 8.9197 3.54867 8.91613 3.53742 8.91613C3.52618 8.91613 3.51522 8.9197 3.50615 8.92634C3.49707 8.93298 3.49034 8.94233 3.48692 8.95304L3.36192 9.32804L2.96692 9.33105C2.95535 9.33049 2.94391 9.33374 2.93436 9.3403C2.92481 9.34686 2.91768 9.35637 2.91405 9.36738C2.91042 9.37838 2.91049 9.39027 2.91426 9.40123C2.91803 9.41218 2.92529 9.42161 2.93492 9.42805L3.25292 9.66204L3.13392 10.039C3.11892 10.089 3.17392 10.129 3.21592 10.099L3.53792 9.86905L3.85892 10.099C3.90092 10.129 3.95592 10.089 3.94092 10.039L3.82092 9.66204L4.13992 9.42805C4.14947 9.42165 4.15667 9.41232 4.16045 9.40147C4.16424 9.39062 4.16439 9.37884 4.16089 9.3679C4.15739 9.35695 4.15043 9.34744 4.14106 9.34079C4.13169 9.33415 4.12041 9.33073 4.10892 9.33105L3.71292 9.32804ZM4.19292 6.85004L4.31892 7.22504L4.71392 7.22804C4.76492 7.22804 4.78592 7.29404 4.74492 7.32404L4.42692 7.55904L4.54692 7.93604C4.55076 7.9468 4.55102 7.95851 4.54767 7.96942C4.54431 7.98034 4.53752 7.98988 4.5283 7.99663C4.51909 8.00337 4.50794 8.00697 4.49652 8.00686C4.4851 8.00676 4.47401 8.00295 4.46492 7.99604L4.14292 7.76604L3.82092 7.99604C3.81181 8.00253 3.80087 8.00597 3.78968 8.00587C3.77849 8.00576 3.76763 8.00212 3.75863 7.99546C3.74964 7.9888 3.74299 7.97946 3.73963 7.96879C3.73627 7.95811 3.73637 7.94665 3.73992 7.93604L3.85892 7.55904L3.54092 7.32404C3.53183 7.31749 3.52504 7.30822 3.52155 7.29756C3.51805 7.28691 3.51803 7.27542 3.52147 7.26475C3.52492 7.25409 3.53166 7.24478 3.54072 7.23819C3.54979 7.23159 3.56071 7.22804 3.57192 7.22804L3.96692 7.22504L4.09192 6.85004C4.09506 6.83893 4.10174 6.82917 4.11095 6.8222C4.12015 6.81524 4.13138 6.81146 4.14292 6.81146C4.15447 6.81146 4.16569 6.81524 4.1749 6.8222C4.1841 6.82917 4.18978 6.83893 4.19292 6.85004ZM11.2929 11.252L11.1669 10.877C11.1633 10.8666 11.1565 10.8577 11.1476 10.8513C11.1386 10.845 11.1279 10.8416 11.1169 10.8416C11.1059 10.8416 11.0952 10.845 11.0863 10.8513C11.0773 10.8577 11.0706 10.8666 11.0669 10.877L10.9409 11.252L10.5459 11.255C10.5346 11.2548 10.5235 11.2582 10.5143 11.2647C10.5051 11.2712 10.4982 11.2805 10.4946 11.2912C10.491 11.302 10.491 11.3135 10.4944 11.3243C10.4979 11.335 10.5047 11.3444 10.5139 11.351L10.8329 11.586L10.7129 11.963C10.6979 12.012 10.7529 12.053 10.7949 12.023L11.1169 11.793L11.4379 12.023C11.4799 12.053 11.5359 12.012 11.5199 11.963L11.3999 11.586L11.7189 11.351C11.728 11.3444 11.7348 11.3352 11.7383 11.3245C11.7418 11.3139 11.7418 11.3024 11.7384 11.2917C11.7349 11.281 11.7282 11.2717 11.7191 11.2651C11.71 11.2585 11.6991 11.255 11.6879 11.255L11.2919 11.252H11.2929ZM9.69292 5.37604L9.81792 5.75104L10.2129 5.75405C10.2639 5.75405 10.2859 5.82004 10.2439 5.85104L9.92592 6.08504L10.0459 6.46204C10.0498 6.4728 10.05 6.48451 10.0467 6.49542C10.0433 6.50634 10.0365 6.51588 10.0273 6.52263C10.0181 6.52937 10.0069 6.53297 9.99552 6.53286C9.9841 6.53276 9.97301 6.52895 9.96392 6.52204L9.64192 6.29204L9.31992 6.52204C9.31081 6.52853 9.29987 6.53197 9.28868 6.53187C9.27749 6.53176 9.26663 6.52812 9.25763 6.52146C9.24864 6.5148 9.24199 6.50546 9.23863 6.49479C9.23527 6.48411 9.23537 6.47265 9.23892 6.46204L9.35792 6.08504L9.03992 5.85104C9.03038 5.84464 9.02317 5.83532 9.01939 5.82447C9.01561 5.81362 9.01546 5.80183 9.01895 5.79089C9.02245 5.77994 9.02941 5.77043 9.03879 5.76378C9.04816 5.75714 9.05944 5.75373 9.07092 5.75405L9.46592 5.75104L9.59192 5.37604C9.59556 5.36569 9.60233 5.35672 9.61129 5.35037C9.62024 5.34403 9.63095 5.34062 9.64192 5.34062C9.6529 5.34062 9.6636 5.34403 9.67256 5.35037C9.68152 5.35672 9.68828 5.36569 9.69192 5.37604H9.69292ZM5.79092 12.726L5.66592 12.351C5.66228 12.3406 5.65552 12.3317 5.64656 12.3253C5.6376 12.319 5.6269 12.3156 5.61592 12.3156C5.60495 12.3156 5.59424 12.319 5.58529 12.3253C5.57633 12.3317 5.56956 12.3406 5.56592 12.351L5.43992 12.726L5.04492 12.729C5.03363 12.7288 5.02255 12.7322 5.01332 12.7387C5.00409 12.7452 4.99719 12.7545 4.99361 12.7652C4.99004 12.776 4.98999 12.7875 4.99346 12.7983C4.99693 12.809 5.00375 12.8184 5.01292 12.825L5.33192 13.06L5.21192 13.437C5.19692 13.486 5.25192 13.527 5.29392 13.497L5.61592 13.267L5.93692 13.497C5.97892 13.527 6.03492 13.486 6.01892 13.437L5.89892 13.06L6.21792 12.825C6.22702 12.8184 6.2338 12.8092 6.2373 12.7985C6.24079 12.7879 6.24082 12.7764 6.23737 12.7657C6.23393 12.755 6.22719 12.7457 6.21812 12.7391C6.20906 12.7325 6.19813 12.729 6.18692 12.729L5.79092 12.726ZM11.0659 6.85004L10.9409 7.22504L10.5459 7.22804C10.5346 7.22782 10.5235 7.23122 10.5143 7.23774C10.5051 7.24425 10.4982 7.25355 10.4946 7.26427C10.491 7.27499 10.491 7.28657 10.4944 7.29732C10.4979 7.30808 10.5047 7.31744 10.5139 7.32404L10.8329 7.55904L10.7129 7.93604C10.6979 7.98604 10.7529 8.02604 10.7949 7.99604L11.1169 7.76604L11.4379 7.99604C11.4799 8.02604 11.5359 7.98604 11.5199 7.93604L11.3999 7.55904L11.7189 7.32404C11.728 7.31749 11.7348 7.30822 11.7383 7.29756C11.7418 7.28691 11.7418 7.27542 11.7384 7.26475C11.7349 7.25409 11.7282 7.24478 11.7191 7.23819C11.71 7.23159 11.6991 7.22804 11.6879 7.22804L11.2919 7.22504L11.1669 6.85004C11.1633 6.83969 11.1565 6.83072 11.1476 6.82437C11.1386 6.81803 11.1279 6.81462 11.1169 6.81462C11.1059 6.81462 11.0952 6.81803 11.0863 6.82437C11.0773 6.83072 11.0706 6.83969 11.0669 6.85004H11.0659ZM3.96692 11.252L4.09192 10.877C4.09506 10.8659 4.10174 10.8561 4.11095 10.8492C4.12015 10.8422 4.13138 10.8384 4.14292 10.8384C4.15447 10.8384 4.16569 10.8422 4.1749 10.8492C4.1841 10.8561 4.19078 10.8659 4.19392 10.877L4.31892 11.252L4.71392 11.255C4.76492 11.255 4.78692 11.321 4.74492 11.351L4.42692 11.586L4.54692 11.963C4.55076 11.9738 4.55102 11.9855 4.54767 11.9964C4.54431 12.0073 4.53752 12.0168 4.5283 12.0236C4.51909 12.0303 4.50794 12.0339 4.49652 12.0338C4.4851 12.0337 4.47401 12.0299 4.46492 12.023L4.14292 11.793L3.82092 12.023C3.81181 12.0295 3.80087 12.0329 3.78968 12.0328C3.77849 12.0327 3.76763 12.0291 3.75863 12.0224C3.74964 12.0158 3.74299 12.0064 3.73963 11.9957C3.73627 11.9851 3.73637 11.9736 3.73992 11.963L3.85892 11.586L3.54092 11.351C3.53183 11.3444 3.52504 11.3352 3.52155 11.3245C3.51805 11.3139 3.51803 11.3024 3.52147 11.2917C3.52492 11.281 3.53166 11.2717 3.54072 11.2651C3.54979 11.2585 3.56071 11.255 3.57192 11.255L3.96692 11.252ZM5.56492 5.37604L5.43992 5.75104L5.04492 5.75405C5.03335 5.75349 5.02191 5.75674 5.01236 5.7633C5.00281 5.76986 4.99568 5.77937 4.99205 5.79038C4.98842 5.80138 4.98849 5.81327 4.99226 5.82423C4.99603 5.83518 5.00329 5.8446 5.01292 5.85104L5.33192 6.08504L5.21192 6.46204C5.19692 6.51204 5.25192 6.55204 5.29392 6.52204L5.61592 6.29204L5.93692 6.52204C5.97892 6.55204 6.03492 6.51204 6.01892 6.46204L5.89892 6.08504L6.21792 5.85104C6.22747 5.84464 6.23467 5.83532 6.23845 5.82447C6.24224 5.81362 6.24239 5.80183 6.23889 5.79089C6.23539 5.77994 6.22843 5.77043 6.21906 5.76378C6.20969 5.75714 6.19841 5.75373 6.18692 5.75405L5.79092 5.75104L5.66592 5.37604C5.66228 5.36569 5.65552 5.35672 5.64656 5.35037C5.6376 5.34403 5.6269 5.34062 5.61592 5.34062C5.60495 5.34062 5.59424 5.34403 5.58529 5.35037C5.57633 5.35672 5.56856 5.36569 5.56492 5.37604ZM9.46592 12.726L9.59192 12.351C9.59556 12.3406 9.60233 12.3317 9.61129 12.3253C9.62024 12.319 9.63095 12.3156 9.64192 12.3156C9.6529 12.3156 9.6636 12.319 9.67256 12.3253C9.68152 12.3317 9.68828 12.3406 9.69192 12.351L9.81792 12.726L10.2129 12.729C10.2639 12.729 10.2859 12.795 10.2439 12.825L9.92592 13.06L10.0459 13.437C10.0498 13.4478 10.05 13.4595 10.0467 13.4704C10.0433 13.4813 10.0365 13.4908 10.0273 13.4976C10.0181 13.5043 10.0069 13.5079 9.99552 13.5078C9.9841 13.5077 9.97301 13.5039 9.96392 13.497L9.64192 13.267L9.31992 13.497C9.31081 13.5035 9.29987 13.5069 9.28868 13.5068C9.27749 13.5067 9.26663 13.5031 9.25763 13.4964C9.24864 13.4898 9.24199 13.4804 9.23863 13.4697C9.23527 13.4591 9.23537 13.4476 9.23892 13.437L9.35792 13.06L9.03992 12.825C9.03083 12.8184 9.02404 12.8092 9.02055 12.7985C9.01705 12.7879 9.01703 12.7764 9.02047 12.7657C9.02392 12.755 9.03066 12.7457 9.03972 12.7391C9.04879 12.7325 9.05971 12.729 9.07092 12.729L9.46592 12.726Z" fill="#FFE15A"/>
<path d="M20.719 7H12.28C11.41 7.00027 10.5757 7.34606 9.96063 7.96134C9.34554 8.57661 9 9.411 9 10.281V18.719C9 19.5892 9.34568 20.4237 9.96098 21.039C10.5763 21.6543 11.4108 22 12.281 22H20.719C21.5892 22 22.4237 21.6543 23.039 21.039C23.6543 20.4237 24 19.5892 24 18.719V10.28C23.9997 9.41 23.6539 8.57572 23.0387 7.96063C22.4234 7.34554 21.589 7 20.719 7Z" fill="#2841C1"/>
<path fill-rule="evenodd" clip-rule="evenodd" d="M20.413 9.94598L20.291 9.54597C20.2888 9.53854 20.2842 9.53203 20.278 9.5274C20.2718 9.52276 20.2643 9.52026 20.2565 9.52026C20.2488 9.52026 20.2412 9.52276 20.235 9.5274C20.2288 9.53203 20.2242 9.53854 20.222 9.54597L20.101 9.94598L19.711 9.79098C19.679 9.77798 19.648 9.81598 19.669 9.84498L19.906 10.19L19.543 10.397C19.5359 10.4006 19.5303 10.4065 19.5269 10.4137C19.5235 10.4209 19.5226 10.429 19.5243 10.4368C19.526 10.4445 19.5302 10.4515 19.5363 10.4566C19.5424 10.4617 19.5501 10.4647 19.558 10.465L19.976 10.494L19.911 10.908C19.9095 10.9158 19.9106 10.924 19.9142 10.9311C19.9178 10.9383 19.9236 10.944 19.9309 10.9475C19.9381 10.9509 19.9462 10.9519 19.9541 10.9501C19.9619 10.9484 19.9689 10.9441 19.974 10.938L20.257 10.629L20.54 10.938C20.564 10.964 20.608 10.943 20.602 10.908L20.538 10.494L20.955 10.464C20.9627 10.4635 20.9701 10.4606 20.976 10.4556C20.9819 10.4507 20.986 10.4439 20.9878 10.4364C20.9896 10.4289 20.989 10.421 20.9859 10.4139C20.9829 10.4068 20.9777 10.4009 20.971 10.397L20.607 10.19L20.845 9.84498C20.865 9.81498 20.835 9.77798 20.802 9.79098L20.413 9.94598ZM13.069 17.706L12.821 16.886C12.8165 16.8707 12.8072 16.8572 12.7944 16.8476C12.7816 16.838 12.766 16.8329 12.75 16.8329C12.734 16.8329 12.7185 16.838 12.7057 16.8476C12.6929 16.8572 12.6835 16.8707 12.679 16.886L12.431 17.706L11.635 17.389C11.567 17.362 11.505 17.439 11.546 17.499L12.033 18.206L11.288 18.631C11.225 18.667 11.247 18.763 11.32 18.768L12.175 18.828L12.043 19.675C12.032 19.747 12.121 19.79 12.17 19.736L12.75 19.106L13.33 19.736C13.38 19.79 13.469 19.747 13.457 19.675L13.325 18.828L14.18 18.768C14.253 18.763 14.275 18.667 14.212 18.631L13.467 18.206L13.954 17.5C13.9627 17.4869 13.9669 17.4715 13.9662 17.4558C13.9655 17.4402 13.9599 17.4252 13.9501 17.4129C13.9403 17.4007 13.9269 17.3919 13.9118 17.3878C13.8967 17.3837 13.8807 17.3844 13.866 17.39L13.069 17.706ZM17.586 13.218L17.708 13.618L18.097 13.464C18.13 13.451 18.16 13.488 18.14 13.518L17.902 13.863L18.266 14.07C18.296 14.088 18.286 14.135 18.25 14.137L17.833 14.167L17.897 14.58C17.8982 14.5876 17.8969 14.5954 17.8933 14.6023C17.8898 14.6091 17.8841 14.6146 17.8771 14.618C17.8702 14.6213 17.8623 14.6224 17.8548 14.6209C17.8472 14.6195 17.8403 14.6157 17.835 14.61L17.552 14.302L17.268 14.61C17.2628 14.6157 17.2559 14.6195 17.2483 14.6209C17.2407 14.6224 17.2328 14.6213 17.2259 14.618C17.219 14.6146 17.2133 14.6091 17.2097 14.6023C17.2061 14.5954 17.2048 14.5876 17.206 14.58L17.271 14.167L16.853 14.137C16.817 14.135 16.807 14.087 16.838 14.07L17.201 13.863L16.964 13.518C16.944 13.488 16.974 13.45 17.007 13.464L17.396 13.619L17.517 13.218C17.5189 13.2101 17.5234 13.2031 17.5297 13.1981C17.5361 13.1931 17.5439 13.1904 17.552 13.1904C17.5601 13.1904 17.5679 13.1931 17.5743 13.1981C17.5806 13.2031 17.5841 13.2101 17.586 13.218ZM22.976 11.705L22.854 11.304C22.844 11.27 22.794 11.27 22.784 11.304L22.664 11.704L22.274 11.55C22.2668 11.5471 22.2589 11.5466 22.2514 11.5486C22.2439 11.5505 22.2372 11.5549 22.2324 11.5609C22.2275 11.567 22.2248 11.5745 22.2245 11.5822C22.2243 11.59 22.2266 11.5976 22.231 11.604L22.469 11.949L22.105 12.156C22.0984 12.1598 22.0932 12.1657 22.0901 12.1727C22.087 12.1797 22.0863 12.1875 22.088 12.195C22.0896 12.2025 22.0936 12.2092 22.0994 12.2142C22.1052 12.2193 22.1124 12.2223 22.12 12.223L22.538 12.253L22.474 12.666C22.4728 12.6736 22.4741 12.6814 22.4777 12.6883C22.4813 12.6951 22.487 12.7006 22.4939 12.704C22.5008 12.7073 22.5087 12.7084 22.5163 12.7069C22.5239 12.7055 22.5308 12.7017 22.536 12.696L22.819 12.388L23.102 12.696C23.126 12.723 23.17 12.701 23.165 12.666L23.1 12.252L23.518 12.223C23.5256 12.2223 23.5329 12.2193 23.5386 12.2142C23.5444 12.2092 23.5484 12.2025 23.5501 12.195C23.5517 12.1875 23.551 12.1797 23.5479 12.1727C23.5449 12.1657 23.5396 12.1598 23.533 12.156L23.169 11.948L23.407 11.604C23.4115 11.5976 23.4137 11.59 23.4135 11.5822C23.4132 11.5745 23.4105 11.567 23.4057 11.5609C23.4008 11.5549 23.3942 11.5505 23.3867 11.5486C23.3792 11.5466 23.3712 11.5471 23.364 11.55L22.976 11.705ZM20.291 17.783L20.413 18.184L20.802 18.029C20.8092 18.0261 20.8172 18.0256 20.8247 18.0276C20.8322 18.0295 20.8388 18.0339 20.8437 18.0399C20.8485 18.046 20.8512 18.0535 20.8515 18.0612C20.8517 18.069 20.8495 18.0766 20.845 18.083L20.607 18.428L20.971 18.635C20.9782 18.6387 20.9839 18.6446 20.9872 18.6519C20.9906 18.6592 20.9914 18.6674 20.9896 18.6752C20.9877 18.6831 20.9833 18.69 20.9771 18.6951C20.9708 18.7001 20.963 18.7029 20.955 18.703L20.538 18.732L20.602 19.146C20.608 19.181 20.564 19.202 20.54 19.176L20.257 18.867L19.973 19.176C19.9678 19.1817 19.9609 19.1855 19.9533 19.1869C19.9457 19.1884 19.9378 19.1873 19.9309 19.184C19.924 19.1806 19.9183 19.1751 19.9147 19.1683C19.9111 19.1614 19.9098 19.1536 19.911 19.146L19.976 18.732L19.558 18.702C19.5504 18.7013 19.5432 18.6983 19.5374 18.6932C19.5316 18.6882 19.5276 18.6815 19.526 18.674C19.5243 18.6665 19.525 18.6587 19.5281 18.6517C19.5312 18.6447 19.5364 18.6388 19.543 18.635L19.906 18.428L19.669 18.083C19.6646 18.0766 19.6623 18.069 19.6625 18.0612C19.6628 18.0535 19.6655 18.046 19.6704 18.0399C19.6752 18.0339 19.6819 18.0295 19.6894 18.0276C19.6969 18.0256 19.7048 18.0261 19.712 18.029L20.101 18.184L20.222 17.784C20.2239 17.7761 20.2284 17.7691 20.2347 17.7641C20.2411 17.7591 20.2489 17.7564 20.257 17.7564C20.2651 17.7564 20.2729 17.7591 20.2793 17.7641C20.2856 17.7691 20.2901 17.7761 20.292 17.784L20.291 17.783ZM21.133 14.528L21.231 14.235C21.2334 14.2264 21.2386 14.2188 21.2457 14.2133C21.2528 14.2079 21.2616 14.205 21.2705 14.205C21.2795 14.205 21.2882 14.2079 21.2953 14.2133C21.3025 14.2188 21.3076 14.2264 21.31 14.235L21.407 14.528L21.715 14.53C21.755 14.53 21.771 14.581 21.739 14.605L21.492 14.788L21.584 15.081C21.5871 15.0893 21.5873 15.0983 21.5848 15.1068C21.5823 15.1153 21.5771 15.1227 21.57 15.128C21.563 15.1333 21.5544 15.1361 21.5455 15.1361C21.5367 15.1361 21.5281 15.1333 21.521 15.128L21.271 14.948L21.02 15.128C21.0129 15.1328 21.0045 15.1353 20.9959 15.1352C20.9873 15.1351 20.979 15.1323 20.972 15.1273C20.965 15.1223 20.9597 15.1153 20.9569 15.1072C20.954 15.0991 20.9537 15.0903 20.956 15.082L21.049 14.788L20.801 14.605C20.7943 14.5997 20.7893 14.5925 20.7868 14.5843C20.7843 14.5761 20.7843 14.5673 20.7869 14.5592C20.7896 14.551 20.7946 14.5438 20.8014 14.5386C20.8082 14.5334 20.8165 14.5304 20.825 14.53L21.133 14.528Z" fill="#F5F5F5"/>
<path fill-rule="evenodd" clip-rule="evenodd" d="M16.5 7V7.585L13.736 9.395V7H16.5ZM9.814 8.118C10.3182 7.54224 11.0081 7.1612 11.764 7.041V9.396L9.814 8.118ZM9.041 9.763C9.075 9.546 9.131 9.336 9.206 9.136L10.164 9.763H9.04H9.041ZM9 11.737V12.499L10.163 11.737H9ZM16.501 12.499V11.737H15.338L16.501 12.499ZM16.5 14.5H13.737V12.104L16.501 13.914L16.5 14.5ZM16.502 9.763V9.001L15.339 9.763H16.5H16.502ZM9 13.915L11.763 12.105V14.5H9V13.915Z" fill="#2841C1"/>
<path fill-rule="evenodd" clip-rule="evenodd" d="M16.5 9.763V10.158H13.342V7H13.736V9.396L16.5 7.586V7.969L13.736 9.763H14.462L16.5 8.44V9.001L15.336 9.763H16.5ZM12.157 7.003C12.025 7.00775 11.8935 7.02044 11.763 7.041V9.396L9.813 8.119C9.69561 8.25284 9.58926 8.39597 9.495 8.547L11.368 9.763H10.643L9.306 8.895C9.26949 8.97364 9.23613 9.0537 9.206 9.135L10.163 9.763H9.04C9.02 9.893 9.007 10.024 9.002 10.158H12.157V7.003ZM12.157 14.5H11.763V12.104L9 13.914V13.524L11.752 11.737H11.027L9 13.053V12.499L10.163 11.737H9V11.342H12.158V14.5H12.157ZM13.737 14.5H13.342V11.342H16.5V11.737H15.336L16.5 12.499V12.859L14.77 11.737H14.046L16.5 13.33V13.915L13.736 12.105V14.5H13.737Z" fill="#F5F5F5"/>
<path fill-rule="evenodd" clip-rule="evenodd" d="M12.158 14.5H13.342V11.342H16.5V10.158H13.342V7H12.282C12.24 7 12.199 7.001 12.158 7.003V10.158H9.003C9.00125 10.1986 9.00025 10.2393 9 10.28V11.341H12.158V14.5ZM11.028 11.737L9 13.053V13.523L11.752 11.737H11.028ZM16.499 13.33L14.045 11.737H14.77L16.5 12.859V13.329L16.499 13.33ZM11.367 9.763L9.494 8.547C9.424 8.659 9.361 8.775 9.304 8.895L10.642 9.763H11.367ZM16.5 8.44L14.46 9.763H13.735L16.5 7.97V8.441V8.44Z" fill="#FF4B55"/>
</g>
</g>
<defs>
<clipPath id="clip0_443_770">
<rect width="24" height="24" fill="white"/>
</clipPath>
</defs>
</svg>
