<svg width="25" height="24" viewBox="0 0 25 24" fill="none" xmlns="http://www.w3.org/2000/svg">
<path d="M12.219 2H3.78C2.91 2.00027 2.07572 2.34606 1.46063 2.96134C0.845538 3.57661 0.5 4.411 0.5 5.281V13.719C0.5 14.5892 0.845676 15.4237 1.46098 16.039C2.07629 16.6543 2.91082 17 3.781 17H12.219C13.0892 17 13.9237 16.6543 14.539 16.039C15.1543 15.4237 15.5 14.5892 15.5 13.719V5.28C15.4997 4.41 15.1539 3.57572 14.5387 2.96063C13.9234 2.34554 13.089 2 12.219 2Z" fill="#0A48B6"/>
<path fill-rule="evenodd" clip-rule="evenodd" d="M8.23992 5.30104L8.11392 4.92604C8.11028 4.91569 8.10352 4.90672 8.09456 4.90037C8.0856 4.89403 8.0749 4.89062 8.06392 4.89062C8.05295 4.89062 8.04224 4.89403 8.03329 4.90037C8.02433 4.90672 8.01756 4.91569 8.01392 4.92604L7.88792 5.30104L7.49292 5.30504C7.48171 5.30504 7.47079 5.30859 7.46172 5.31519C7.45266 5.32178 7.44592 5.33109 7.44247 5.34175C7.43903 5.35242 7.43905 5.36391 7.44255 5.37456C7.44604 5.38522 7.45283 5.39449 7.46192 5.40104L7.77992 5.63604L7.65992 6.01304C7.64492 6.06104 7.69992 6.10204 7.74192 6.07204L8.06392 5.84204L8.38592 6.07204C8.42692 6.10204 8.48292 6.06204 8.46692 6.01204L8.34792 5.63604L8.66592 5.40104C8.67502 5.39449 8.6818 5.38522 8.6853 5.37456C8.68879 5.36391 8.68882 5.35242 8.68537 5.34175C8.68193 5.33109 8.67519 5.32178 8.66612 5.31519C8.65706 5.30859 8.64614 5.30504 8.63492 5.30504L8.23992 5.30104ZM8.23992 13.355L8.11392 12.98C8.11028 12.9696 8.10352 12.9607 8.09456 12.9543C8.0856 12.948 8.0749 12.9446 8.06392 12.9446C8.05295 12.9446 8.04224 12.948 8.03329 12.9543C8.02433 12.9607 8.01756 12.9696 8.01392 12.98L7.88792 13.355L7.49292 13.358C7.48171 13.358 7.47079 13.3616 7.46172 13.3681C7.45266 13.3747 7.44592 13.384 7.44247 13.3947C7.43903 13.4054 7.43905 13.4169 7.44255 13.4275C7.44604 13.4382 7.45283 13.4474 7.46192 13.454L7.77992 13.689L7.65992 14.066C7.64492 14.115 7.69992 14.156 7.74192 14.126L8.06392 13.896L8.38592 14.126C8.42692 14.156 8.48292 14.115 8.46692 14.066L8.34792 13.689L8.66592 13.454C8.67502 13.4474 8.6818 13.4382 8.6853 13.4275C8.68879 13.4169 8.68882 13.4054 8.68537 13.3947C8.68193 13.384 8.67519 13.3747 8.66612 13.3681C8.65706 13.3616 8.64614 13.358 8.63492 13.358L8.23992 13.355ZM12.1399 8.95304L12.2659 9.32804L12.6609 9.33105C12.7129 9.33105 12.7339 9.39705 12.6929 9.42805L12.3739 9.66204L12.4939 10.039C12.4978 10.0498 12.498 10.0615 12.4947 10.0724C12.4913 10.0833 12.4845 10.0928 12.4753 10.0996C12.4661 10.1063 12.4549 10.1099 12.4435 10.1098C12.4321 10.1097 12.421 10.1059 12.4119 10.099L12.0899 9.86905L11.7689 10.099C11.7598 10.1059 11.7487 10.1097 11.7373 10.1098C11.7259 10.1099 11.7148 10.1063 11.7055 10.0996C11.6963 10.0928 11.6895 10.0833 11.6862 10.0724C11.6828 10.0615 11.6831 10.0498 11.6869 10.039L11.8069 9.66204L11.4879 9.42805C11.4784 9.42165 11.4712 9.41232 11.4674 9.40147C11.4636 9.39062 11.4634 9.37884 11.4669 9.3679C11.4704 9.35695 11.4774 9.34744 11.4868 9.34079C11.4961 9.33415 11.5074 9.33073 11.5189 9.33105L11.9149 9.32804L12.0399 8.95304C12.0436 8.94269 12.0503 8.93372 12.0593 8.92737C12.0682 8.92103 12.0789 8.91762 12.0899 8.91762C12.1009 8.91762 12.1116 8.92103 12.1206 8.92737C12.1295 8.93372 12.1363 8.94269 12.1399 8.95304ZM4.21292 9.32804L4.08792 8.95304C4.08451 8.94233 4.07778 8.93298 4.0687 8.92634C4.05962 8.9197 4.04867 8.91613 4.03742 8.91613C4.02618 8.91613 4.01522 8.9197 4.00615 8.92634C3.99707 8.93298 3.99034 8.94233 3.98692 8.95304L3.86192 9.32804L3.46692 9.33105C3.45535 9.33049 3.44391 9.33374 3.43436 9.3403C3.42481 9.34686 3.41768 9.35637 3.41405 9.36738C3.41042 9.37838 3.41049 9.39027 3.41426 9.40123C3.41803 9.41218 3.42529 9.42161 3.43492 9.42805L3.75292 9.66204L3.63392 10.039C3.61892 10.089 3.67392 10.129 3.71592 10.099L4.03792 9.86905L4.35892 10.099C4.40092 10.129 4.45592 10.089 4.44092 10.039L4.32092 9.66204L4.63992 9.42805C4.64947 9.42165 4.65667 9.41232 4.66045 9.40147C4.66424 9.39062 4.66439 9.37884 4.66089 9.3679C4.65739 9.35695 4.65043 9.34744 4.64106 9.34079C4.63169 9.33415 4.62041 9.33073 4.60892 9.33105L4.21292 9.32804ZM4.69292 6.85004L4.81892 7.22504L5.21392 7.22804C5.26492 7.22804 5.28592 7.29404 5.24492 7.32404L4.92692 7.55904L5.04692 7.93604C5.05076 7.9468 5.05102 7.95851 5.04767 7.96942C5.04431 7.98034 5.03752 7.98988 5.0283 7.99663C5.01909 8.00337 5.00794 8.00697 4.99652 8.00686C4.9851 8.00676 4.97401 8.00295 4.96492 7.99604L4.64292 7.76604L4.32092 7.99604C4.31181 8.00253 4.30087 8.00597 4.28968 8.00587C4.27849 8.00576 4.26763 8.00212 4.25863 7.99546C4.24964 7.9888 4.24299 7.97946 4.23963 7.96879C4.23627 7.95811 4.23637 7.94665 4.23992 7.93604L4.35892 7.55904L4.04092 7.32404C4.03183 7.31749 4.02504 7.30822 4.02155 7.29756C4.01805 7.28691 4.01803 7.27542 4.02147 7.26475C4.02492 7.25409 4.03166 7.24478 4.04072 7.23819C4.04979 7.23159 4.06071 7.22804 4.07192 7.22804L4.46692 7.22504L4.59192 6.85004C4.59506 6.83893 4.60174 6.82917 4.61095 6.8222C4.62015 6.81524 4.63138 6.81146 4.64292 6.81146C4.65447 6.81146 4.66569 6.81524 4.6749 6.8222C4.6841 6.82917 4.68978 6.83893 4.69292 6.85004ZM11.7929 11.252L11.6669 10.877C11.6633 10.8666 11.6565 10.8577 11.6476 10.8513C11.6386 10.845 11.6279 10.8416 11.6169 10.8416C11.6059 10.8416 11.5952 10.845 11.5863 10.8513C11.5773 10.8577 11.5706 10.8666 11.5669 10.877L11.4409 11.252L11.0459 11.255C11.0346 11.2548 11.0235 11.2582 11.0143 11.2647C11.0051 11.2712 10.9982 11.2805 10.9946 11.2912C10.991 11.302 10.991 11.3135 10.9944 11.3243C10.9979 11.335 11.0047 11.3444 11.0139 11.351L11.3329 11.586L11.2129 11.963C11.1979 12.012 11.2529 12.053 11.2949 12.023L11.6169 11.793L11.9379 12.023C11.9799 12.053 12.0359 12.012 12.0199 11.963L11.8999 11.586L12.2189 11.351C12.228 11.3444 12.2348 11.3352 12.2383 11.3245C12.2418 11.3139 12.2418 11.3024 12.2384 11.2917C12.2349 11.281 12.2282 11.2717 12.2191 11.2651C12.21 11.2585 12.1991 11.255 12.1879 11.255L11.7919 11.252H11.7929ZM10.1929 5.37604L10.3179 5.75104L10.7129 5.75405C10.7639 5.75405 10.7859 5.82004 10.7439 5.85104L10.4259 6.08504L10.5459 6.46204C10.5498 6.4728 10.55 6.48451 10.5467 6.49542C10.5433 6.50634 10.5365 6.51588 10.5273 6.52263C10.5181 6.52937 10.5069 6.53297 10.4955 6.53286C10.4841 6.53276 10.473 6.52895 10.4639 6.52204L10.1419 6.29204L9.81992 6.52204C9.81081 6.52853 9.79987 6.53197 9.78868 6.53187C9.77749 6.53176 9.76663 6.52812 9.75763 6.52146C9.74864 6.5148 9.74199 6.50546 9.73863 6.49479C9.73527 6.48411 9.73537 6.47265 9.73892 6.46204L9.85792 6.08504L9.53992 5.85104C9.53038 5.84464 9.52317 5.83532 9.51939 5.82447C9.51561 5.81362 9.51546 5.80183 9.51895 5.79089C9.52245 5.77994 9.52941 5.77043 9.53879 5.76378C9.54816 5.75714 9.55944 5.75373 9.57092 5.75405L9.96592 5.75104L10.0919 5.37604C10.0956 5.36569 10.1023 5.35672 10.1113 5.35037C10.1202 5.34403 10.1309 5.34062 10.1419 5.34062C10.1529 5.34062 10.1636 5.34403 10.1726 5.35037C10.1815 5.35672 10.1893 5.36569 10.1929 5.37604ZM6.29092 12.726L6.16592 12.351C6.16228 12.3406 6.15552 12.3317 6.14656 12.3253C6.1376 12.319 6.1269 12.3156 6.11592 12.3156C6.10495 12.3156 6.09424 12.319 6.08529 12.3253C6.07633 12.3317 6.06956 12.3406 6.06592 12.351L5.93992 12.726L5.54492 12.729C5.53363 12.7288 5.52255 12.7322 5.51332 12.7387C5.50409 12.7452 5.49719 12.7545 5.49361 12.7652C5.49004 12.776 5.48999 12.7875 5.49346 12.7983C5.49693 12.809 5.50375 12.8184 5.51292 12.825L5.83192 13.06L5.71192 13.437C5.69692 13.486 5.75192 13.527 5.79392 13.497L6.11592 13.267L6.43692 13.497C6.47892 13.527 6.53492 13.486 6.51892 13.437L6.39892 13.06L6.71792 12.825C6.72702 12.8184 6.7338 12.8092 6.7373 12.7985C6.74079 12.7879 6.74082 12.7764 6.73737 12.7657C6.73393 12.755 6.72719 12.7457 6.71812 12.7391C6.70906 12.7325 6.69813 12.729 6.68692 12.729L6.29092 12.726ZM11.5659 6.85004L11.4409 7.22504L11.0459 7.22804C11.0346 7.22782 11.0235 7.23122 11.0143 7.23774C11.0051 7.24425 10.9982 7.25355 10.9946 7.26427C10.991 7.27499 10.991 7.28657 10.9944 7.29732C10.9979 7.30808 11.0047 7.31744 11.0139 7.32404L11.3329 7.55904L11.2129 7.93604C11.1979 7.98604 11.2529 8.02604 11.2949 7.99604L11.6169 7.76604L11.9379 7.99604C11.9799 8.02604 12.0359 7.98604 12.0199 7.93604L11.8999 7.55904L12.2189 7.32404C12.228 7.31749 12.2348 7.30822 12.2383 7.29756C12.2418 7.28691 12.2418 7.27542 12.2384 7.26475C12.2349 7.25409 12.2282 7.24478 12.2191 7.23819C12.21 7.23159 12.1991 7.22804 12.1879 7.22804L11.7919 7.22504L11.6669 6.85004C11.6633 6.83969 11.6565 6.83072 11.6476 6.82437C11.6386 6.81803 11.6279 6.81462 11.6169 6.81462C11.6059 6.81462 11.5952 6.81803 11.5863 6.82437C11.5773 6.83072 11.5706 6.83969 11.5669 6.85004H11.5659ZM4.46692 11.252L4.59192 10.877C4.59506 10.8659 4.60174 10.8561 4.61095 10.8492C4.62015 10.8422 4.63138 10.8384 4.64292 10.8384C4.65447 10.8384 4.66569 10.8422 4.6749 10.8492C4.6841 10.8561 4.69078 10.8659 4.69392 10.877L4.81892 11.252L5.21392 11.255C5.26492 11.255 5.28692 11.321 5.24492 11.351L4.92692 11.586L5.04692 11.963C5.05076 11.9738 5.05102 11.9855 5.04767 11.9964C5.04431 12.0073 5.03752 12.0168 5.0283 12.0236C5.01909 12.0303 5.00794 12.0339 4.99652 12.0338C4.9851 12.0337 4.97401 12.0299 4.96492 12.023L4.64292 11.793L4.32092 12.023C4.31181 12.0295 4.30087 12.0329 4.28968 12.0328C4.27849 12.0327 4.26763 12.0291 4.25863 12.0224C4.24964 12.0158 4.24299 12.0064 4.23963 11.9957C4.23627 11.9851 4.23637 11.9736 4.23992 11.963L4.35892 11.586L4.04092 11.351C4.03183 11.3444 4.02504 11.3352 4.02155 11.3245C4.01805 11.3139 4.01803 11.3024 4.02147 11.2917C4.02492 11.281 4.03166 11.2717 4.04072 11.2651C4.04979 11.2585 4.06071 11.255 4.07192 11.255L4.46692 11.252ZM6.06492 5.37604L5.93992 5.75104L5.54492 5.75405C5.53335 5.75349 5.52191 5.75674 5.51236 5.7633C5.50281 5.76986 5.49568 5.77937 5.49205 5.79038C5.48842 5.80138 5.48849 5.81327 5.49226 5.82423C5.49603 5.83518 5.50329 5.8446 5.51292 5.85104L5.83192 6.08504L5.71192 6.46204C5.69692 6.51204 5.75192 6.55204 5.79392 6.52204L6.11592 6.29204L6.43692 6.52204C6.47892 6.55204 6.53492 6.51204 6.51892 6.46204L6.39892 6.08504L6.71792 5.85104C6.72747 5.84464 6.73467 5.83532 6.73845 5.82447C6.74224 5.81362 6.74239 5.80183 6.73889 5.79089C6.73539 5.77994 6.72843 5.77043 6.71906 5.76378C6.70969 5.75714 6.69841 5.75373 6.68692 5.75405L6.29092 5.75104L6.16592 5.37604C6.16228 5.36569 6.15552 5.35672 6.14656 5.35037C6.1376 5.34403 6.1269 5.34062 6.11592 5.34062C6.10495 5.34062 6.09424 5.34403 6.08529 5.35037C6.07633 5.35672 6.06856 5.36569 6.06492 5.37604ZM9.96592 12.726L10.0919 12.351C10.0956 12.3406 10.1023 12.3317 10.1113 12.3253C10.1202 12.319 10.1309 12.3156 10.1419 12.3156C10.1529 12.3156 10.1636 12.319 10.1726 12.3253C10.1815 12.3317 10.1883 12.3406 10.1919 12.351L10.3179 12.726L10.7129 12.729C10.7639 12.729 10.7859 12.795 10.7439 12.825L10.4259 13.06L10.5459 13.437C10.5498 13.4478 10.55 13.4595 10.5467 13.4704C10.5433 13.4813 10.5365 13.4908 10.5273 13.4976C10.5181 13.5043 10.5069 13.5079 10.4955 13.5078C10.4841 13.5077 10.473 13.5039 10.4639 13.497L10.1419 13.267L9.81992 13.497C9.81081 13.5035 9.79987 13.5069 9.78868 13.5068C9.77749 13.5067 9.76663 13.5031 9.75763 13.4964C9.74864 13.4898 9.74199 13.4804 9.73863 13.4697C9.73527 13.4591 9.73537 13.4476 9.73892 13.437L9.85792 13.06L9.53992 12.825C9.53083 12.8184 9.52404 12.8092 9.52055 12.7985C9.51705 12.7879 9.51703 12.7764 9.52047 12.7657C9.52392 12.755 9.53066 12.7457 9.53972 12.7391C9.54879 12.7325 9.55971 12.729 9.57092 12.729L9.96592 12.726Z" fill="#FFE15A"/>
<path d="M21.5 7H12.5V22H21.5V7Z" fill="#F6F6F6"/>
<path fill-rule="evenodd" clip-rule="evenodd" d="M12.637 7C12.591 7 12.545 7.001 12.5 7.003L12.637 7ZM12.5 21.996C10.831 21.921 9.5 20.482 9.5 18.718V10.281C9.5 8.517 10.831 7.078 12.5 7.003V21.996ZM12.637 21.999L12.5 21.996C12.545 21.998 12.591 21.999 12.637 21.999ZM21.364 7L21.5 7.003C21.4547 7.00099 21.4094 6.99999 21.364 7ZM21.5 7.003C23.17 7.077 24.501 8.516 24.501 10.281V18.718C24.501 20.53 23.097 21.999 21.364 21.999L21.499 21.996L21.5 7.003ZM20.104 14.758L18.569 15.635C18.492 15.679 18.4332 15.7489 18.403 15.8322C18.3728 15.9155 18.3731 16.0069 18.404 16.09L18.536 16.44L17.22 16.328C17.2028 16.3266 17.1855 16.3288 17.1693 16.3346C17.153 16.3403 17.1382 16.3494 17.1257 16.3613C17.1132 16.3732 17.1034 16.3877 17.0969 16.4036C17.0904 16.4196 17.0874 16.4368 17.088 16.454L17.129 17.861H16.87L16.912 16.454C16.9126 16.4367 16.9096 16.4194 16.903 16.4034C16.8965 16.3873 16.8866 16.3729 16.874 16.3609C16.8614 16.349 16.8464 16.3399 16.83 16.3342C16.8137 16.3285 16.7963 16.3264 16.779 16.328L15.464 16.441L15.595 16.09C15.6262 16.007 15.6268 15.9157 15.5967 15.8323C15.5667 15.7489 15.5079 15.679 15.431 15.635L13.897 14.758L14.249 14.582C14.2971 14.5577 14.3364 14.5191 14.3615 14.4714C14.3866 14.4237 14.3962 14.3694 14.389 14.316L14.275 13.457L14.925 13.647C14.959 13.6567 14.9946 13.6594 15.0296 13.6548C15.0646 13.6502 15.0983 13.6386 15.1287 13.6205C15.159 13.6024 15.1854 13.5783 15.206 13.5497C15.2267 13.521 15.2414 13.4885 15.249 13.454L15.311 13.173L15.921 13.887C16.006 13.986 16.167 13.91 16.145 13.782L15.885 12.267L16.283 12.376C16.3397 12.3915 16.4 12.3873 16.4539 12.3641C16.5079 12.3408 16.5524 12.2999 16.58 12.248L17 11.461L17.42 12.248C17.477 12.355 17.6 12.408 17.717 12.376L18.116 12.266L17.855 13.782C17.833 13.91 17.995 13.986 18.079 13.887L18.689 13.173L18.751 13.453C18.7586 13.4876 18.7733 13.5203 18.794 13.549C18.8148 13.5777 18.8412 13.6018 18.8717 13.6199C18.9021 13.638 18.936 13.6497 18.9711 13.6541C19.0063 13.6586 19.042 13.6559 19.076 13.646L19.726 13.457L19.611 14.317C19.604 14.3702 19.6137 14.4243 19.6388 14.4718C19.6639 14.5193 19.7031 14.5578 19.751 14.582L20.104 14.758Z" fill="#FB4B4E"/>
</svg>
