<svg width="24" height="24" viewBox="0 0 24 24" fill="none" xmlns="http://www.w3.org/2000/svg">
<g clip-path="url(#clip0_443_790)">
<mask id="mask0_443_790" style="mask-type:luminance" maskUnits="userSpaceOnUse" x="0" y="0" width="24" height="24">
<path d="M24 0H0V24H24V0Z" fill="white"/>
</mask>
<g mask="url(#mask0_443_790)">
<path d="M11.719 2H3.28C2.41 2.00027 1.57572 2.34606 0.960629 2.96134C0.345538 3.57661 -4.0409e-08 4.411 0 5.281V13.719C0 14.5892 0.345676 15.4237 0.960983 16.039C1.57629 16.6543 2.41082 17 3.281 17H11.719C12.5892 17 13.4237 16.6543 14.039 16.039C14.6543 15.4237 15 14.5892 15 13.719V5.28C14.9997 4.41 14.6539 3.57572 14.0387 2.96063C13.4234 2.34554 12.589 2 11.719 2Z" fill="#0A48B6"/>
<path fill-rule="evenodd" clip-rule="evenodd" d="M7.73992 5.30104L7.61392 4.92604C7.61028 4.91569 7.60352 4.90672 7.59456 4.90037C7.5856 4.89403 7.5749 4.89062 7.56392 4.89062C7.55295 4.89062 7.54224 4.89403 7.53329 4.90037C7.52433 4.90672 7.51756 4.91569 7.51392 4.92604L7.38792 5.30104L6.99292 5.30504C6.98171 5.30504 6.97079 5.30859 6.96172 5.31519C6.95266 5.32178 6.94592 5.33109 6.94247 5.34175C6.93903 5.35242 6.93905 5.36391 6.94255 5.37456C6.94604 5.38522 6.95283 5.39449 6.96192 5.40104L7.27992 5.63604L7.15992 6.01304C7.14492 6.06104 7.19992 6.10204 7.24192 6.07204L7.56392 5.84204L7.88592 6.07204C7.92692 6.10204 7.98292 6.06204 7.96692 6.01204L7.84792 5.63604L8.16592 5.40104C8.17502 5.39449 8.1818 5.38522 8.1853 5.37456C8.18879 5.36391 8.18882 5.35242 8.18537 5.34175C8.18193 5.33109 8.17519 5.32178 8.16612 5.31519C8.15706 5.30859 8.14613 5.30504 8.13492 5.30504L7.73992 5.30104ZM7.73992 13.355L7.61392 12.98C7.61028 12.9696 7.60352 12.9607 7.59456 12.9543C7.5856 12.948 7.5749 12.9446 7.56392 12.9446C7.55295 12.9446 7.54224 12.948 7.53329 12.9543C7.52433 12.9607 7.51756 12.9696 7.51392 12.98L7.38792 13.355L6.99292 13.358C6.98171 13.358 6.97079 13.3616 6.96172 13.3681C6.95266 13.3747 6.94592 13.384 6.94247 13.3947C6.93903 13.4054 6.93905 13.4169 6.94255 13.4275C6.94604 13.4382 6.95283 13.4474 6.96192 13.454L7.27992 13.689L7.15992 14.066C7.14492 14.115 7.19992 14.156 7.24192 14.126L7.56392 13.896L7.88592 14.126C7.92692 14.156 7.98292 14.115 7.96692 14.066L7.84792 13.689L8.16592 13.454C8.17502 13.4474 8.1818 13.4382 8.1853 13.4275C8.18879 13.4169 8.18882 13.4054 8.18537 13.3947C8.18193 13.384 8.17519 13.3747 8.16612 13.3681C8.15706 13.3616 8.14613 13.358 8.13492 13.358L7.73992 13.355ZM11.6399 8.95304L11.7659 9.32804L12.1609 9.33105C12.2129 9.33105 12.2339 9.39705 12.1929 9.42805L11.8739 9.66204L11.9939 10.039C11.9977 10.0498 11.998 10.0615 11.9946 10.0724C11.9913 10.0833 11.9845 10.0928 11.9753 10.0996C11.966 10.1063 11.9549 10.1099 11.9435 10.1098C11.9321 10.1097 11.921 10.1059 11.9119 10.099L11.5899 9.86905L11.2689 10.099C11.2598 10.1059 11.2487 10.1097 11.2373 10.1098C11.2259 10.1099 11.2147 10.1063 11.2055 10.0996C11.1963 10.0928 11.1895 10.0833 11.1861 10.0724C11.1828 10.0615 11.183 10.0498 11.1869 10.039L11.3069 9.66204L10.9879 9.42805C10.9783 9.42165 10.9711 9.41232 10.9674 9.40147C10.9636 9.39062 10.9634 9.37884 10.9669 9.3679C10.9704 9.35695 10.9774 9.34744 10.9867 9.34079C10.9961 9.33415 11.0074 9.33073 11.0189 9.33105L11.4149 9.32804L11.5399 8.95304C11.5435 8.94269 11.5503 8.93372 11.5592 8.92737C11.5682 8.92103 11.5789 8.91762 11.5899 8.91762C11.6009 8.91762 11.6116 8.92103 11.6205 8.92737C11.6295 8.93372 11.6362 8.94269 11.6399 8.95304ZM3.71292 9.32804L3.58792 8.95304C3.58451 8.94233 3.57778 8.93298 3.5687 8.92634C3.55962 8.9197 3.54867 8.91613 3.53742 8.91613C3.52618 8.91613 3.51522 8.9197 3.50615 8.92634C3.49707 8.93298 3.49034 8.94233 3.48692 8.95304L3.36192 9.32804L2.96692 9.33105C2.95535 9.33049 2.94391 9.33374 2.93436 9.3403C2.92481 9.34686 2.91768 9.35637 2.91405 9.36738C2.91042 9.37838 2.91049 9.39027 2.91426 9.40123C2.91803 9.41218 2.92529 9.42161 2.93492 9.42805L3.25292 9.66204L3.13392 10.039C3.11892 10.089 3.17392 10.129 3.21592 10.099L3.53792 9.86905L3.85892 10.099C3.90092 10.129 3.95592 10.089 3.94092 10.039L3.82092 9.66204L4.13992 9.42805C4.14947 9.42165 4.15667 9.41232 4.16045 9.40147C4.16424 9.39062 4.16439 9.37884 4.16089 9.3679C4.15739 9.35695 4.15043 9.34744 4.14106 9.34079C4.13169 9.33415 4.12041 9.33073 4.10892 9.33105L3.71292 9.32804ZM4.19292 6.85004L4.31892 7.22504L4.71392 7.22804C4.76492 7.22804 4.78592 7.29404 4.74492 7.32404L4.42692 7.55904L4.54692 7.93604C4.55076 7.9468 4.55102 7.95851 4.54767 7.96942C4.54431 7.98034 4.53752 7.98988 4.5283 7.99663C4.51909 8.00337 4.50794 8.00697 4.49652 8.00686C4.48509 8.00676 4.47401 8.00295 4.46492 7.99604L4.14292 7.76604L3.82092 7.99604C3.81181 8.00253 3.80087 8.00597 3.78968 8.00587C3.77849 8.00576 3.76762 8.00212 3.75863 7.99546C3.74964 7.9888 3.74299 7.97946 3.73963 7.96879C3.73627 7.95811 3.73637 7.94665 3.73992 7.93604L3.85892 7.55904L3.54092 7.32404C3.53183 7.31749 3.52504 7.30822 3.52155 7.29756C3.51805 7.28691 3.51803 7.27542 3.52147 7.26475C3.52492 7.25409 3.53166 7.24478 3.54072 7.23819C3.54979 7.23159 3.56071 7.22804 3.57192 7.22804L3.96692 7.22504L4.09192 6.85004C4.09506 6.83893 4.10174 6.82917 4.11095 6.8222C4.12015 6.81524 4.13138 6.81146 4.14292 6.81146C4.15446 6.81146 4.16569 6.81524 4.1749 6.8222C4.1841 6.82917 4.19078 6.83893 4.19392 6.85004H4.19292ZM11.2929 11.252L11.1669 10.877C11.1632 10.8666 11.1565 10.8577 11.1475 10.8513C11.1386 10.845 11.1279 10.8416 11.1169 10.8416C11.1059 10.8416 11.0952 10.845 11.0862 10.8513C11.0773 10.8577 11.0705 10.8666 11.0669 10.877L10.9409 11.252L10.5459 11.255C10.5346 11.2548 10.5235 11.2582 10.5143 11.2647C10.5051 11.2712 10.4981 11.2805 10.4946 11.2912C10.491 11.302 10.4909 11.3135 10.4944 11.3243C10.4979 11.335 10.5047 11.3444 10.5139 11.351L10.8329 11.586L10.7129 11.963C10.6979 12.012 10.7529 12.053 10.7949 12.023L11.1169 11.793L11.4379 12.023C11.4799 12.053 11.5359 12.012 11.5199 11.963L11.3999 11.586L11.7189 11.351C11.728 11.3444 11.7348 11.3352 11.7383 11.3245C11.7418 11.3139 11.7418 11.3024 11.7383 11.2917C11.7349 11.281 11.7281 11.2717 11.7191 11.2651C11.71 11.2585 11.6991 11.255 11.6879 11.255L11.2919 11.252H11.2929ZM9.69292 5.37604L9.81792 5.75104L10.2129 5.75405C10.2639 5.75405 10.2859 5.82004 10.2439 5.85104L9.92592 6.08504L10.0459 6.46204C10.0497 6.4728 10.05 6.48451 10.0466 6.49542C10.0433 6.50634 10.0365 6.51588 10.0273 6.52263C10.018 6.52937 10.0069 6.53297 9.99552 6.53286C9.9841 6.53276 9.97301 6.52895 9.96392 6.52204L9.64192 6.29204L9.31992 6.52204C9.31081 6.52853 9.29987 6.53197 9.28868 6.53187C9.27749 6.53176 9.26663 6.52812 9.25763 6.52146C9.24864 6.5148 9.24199 6.50546 9.23863 6.49479C9.23527 6.48411 9.23537 6.47265 9.23892 6.46204L9.35792 6.08504L9.03992 5.85104C9.03038 5.84464 9.02317 5.83532 9.01939 5.82447C9.01561 5.81362 9.01546 5.80183 9.01895 5.79089C9.02245 5.77994 9.02941 5.77043 9.03879 5.76378C9.04816 5.75714 9.05944 5.75373 9.07092 5.75405L9.46592 5.75104L9.59192 5.37604C9.59556 5.36569 9.60233 5.35672 9.61129 5.35037C9.62024 5.34403 9.63095 5.34062 9.64192 5.34062C9.6529 5.34062 9.6636 5.34403 9.67256 5.35037C9.68152 5.35672 9.68928 5.36569 9.69292 5.37604ZM5.79092 12.726L5.66592 12.351C5.66228 12.3406 5.65552 12.3317 5.64656 12.3253C5.6376 12.319 5.6269 12.3156 5.61592 12.3156C5.60495 12.3156 5.59424 12.319 5.58529 12.3253C5.57633 12.3317 5.56956 12.3406 5.56592 12.351L5.43992 12.726L5.04492 12.729C5.03362 12.7288 5.02255 12.7322 5.01332 12.7387C5.00409 12.7452 4.99719 12.7545 4.99361 12.7652C4.99004 12.776 4.98999 12.7875 4.99346 12.7983C4.99693 12.809 5.00375 12.8184 5.01292 12.825L5.33192 13.06L5.21192 13.437C5.19692 13.486 5.25192 13.527 5.29392 13.497L5.61592 13.267L5.93692 13.497C5.97892 13.527 6.03492 13.486 6.01892 13.437L5.89892 13.06L6.21792 12.825C6.22702 12.8184 6.2338 12.8092 6.2373 12.7985C6.24079 12.7879 6.24082 12.7764 6.23737 12.7657C6.23393 12.755 6.22719 12.7457 6.21812 12.7391C6.20906 12.7325 6.19813 12.729 6.18692 12.729L5.79092 12.726ZM11.0659 6.85004L10.9409 7.22504L10.5459 7.22804C10.5346 7.22782 10.5235 7.23122 10.5143 7.23774C10.5051 7.24425 10.4981 7.25355 10.4946 7.26427C10.491 7.27499 10.4909 7.28657 10.4944 7.29732C10.4979 7.30808 10.5047 7.31744 10.5139 7.32404L10.8329 7.55904L10.7129 7.93604C10.6979 7.98604 10.7529 8.02604 10.7949 7.99604L11.1169 7.76604L11.4379 7.99604C11.4799 8.02604 11.5359 7.98604 11.5199 7.93604L11.3999 7.55904L11.7189 7.32404C11.728 7.31749 11.7348 7.30822 11.7383 7.29756C11.7418 7.28691 11.7418 7.27542 11.7383 7.26475C11.7349 7.25409 11.7281 7.24478 11.7191 7.23819C11.71 7.23159 11.6991 7.22804 11.6879 7.22804L11.2919 7.22504L11.1669 6.85004C11.1632 6.83969 11.1565 6.83072 11.1475 6.82437C11.1386 6.81803 11.1279 6.81462 11.1169 6.81462C11.1059 6.81462 11.0952 6.81803 11.0862 6.82437C11.0773 6.83072 11.0705 6.83969 11.0669 6.85004H11.0659ZM3.96692 11.252L4.09192 10.877C4.09506 10.8659 4.10174 10.8561 4.11095 10.8492C4.12015 10.8422 4.13138 10.8384 4.14292 10.8384C4.15446 10.8384 4.16569 10.8422 4.1749 10.8492C4.1841 10.8561 4.19078 10.8659 4.19392 10.877L4.31892 11.252L4.71392 11.255C4.76492 11.255 4.78692 11.321 4.74492 11.351L4.42692 11.586L4.54692 11.963C4.55076 11.9738 4.55102 11.9855 4.54767 11.9964C4.54431 12.0073 4.53752 12.0168 4.5283 12.0236C4.51909 12.0303 4.50794 12.0339 4.49652 12.0338C4.48509 12.0337 4.47401 12.0299 4.46492 12.023L4.14292 11.793L3.82092 12.023C3.81181 12.0295 3.80087 12.0329 3.78968 12.0328C3.77849 12.0327 3.76762 12.0291 3.75863 12.0224C3.74964 12.0158 3.74299 12.0064 3.73963 11.9957C3.73627 11.9851 3.73637 11.9736 3.73992 11.963L3.85892 11.586L3.54092 11.351C3.53183 11.3444 3.52504 11.3352 3.52155 11.3245C3.51805 11.3139 3.51803 11.3024 3.52147 11.2917C3.52492 11.281 3.53166 11.2717 3.54072 11.2651C3.54979 11.2585 3.56071 11.255 3.57192 11.255L3.96692 11.252ZM5.56492 5.37604L5.43992 5.75104L5.04492 5.75405C5.03335 5.75349 5.02191 5.75674 5.01236 5.7633C5.00281 5.76986 4.99568 5.77937 4.99205 5.79038C4.98842 5.80138 4.98849 5.81327 4.99226 5.82423C4.99603 5.83518 5.00329 5.8446 5.01292 5.85104L5.33192 6.08504L5.21192 6.46204C5.19692 6.51204 5.25192 6.55204 5.29392 6.52204L5.61592 6.29204L5.93692 6.52204C5.97892 6.55204 6.03492 6.51204 6.01892 6.46204L5.89892 6.08504L6.21792 5.85104C6.22747 5.84464 6.23467 5.83532 6.23845 5.82447C6.24224 5.81362 6.24239 5.80183 6.23889 5.79089C6.23539 5.77994 6.22843 5.77043 6.21906 5.76378C6.20969 5.75714 6.19841 5.75373 6.18692 5.75405L5.79092 5.75104L5.66592 5.37604C5.66228 5.36569 5.65552 5.35672 5.64656 5.35037C5.6376 5.34403 5.6269 5.34062 5.61592 5.34062C5.60495 5.34062 5.59424 5.34403 5.58529 5.35037C5.57633 5.35672 5.56856 5.36569 5.56492 5.37604ZM9.46592 12.726L9.59192 12.351C9.59556 12.3406 9.60233 12.3317 9.61129 12.3253C9.62024 12.319 9.63095 12.3156 9.64192 12.3156C9.6529 12.3156 9.6636 12.319 9.67256 12.3253C9.68152 12.3317 9.68828 12.3406 9.69192 12.351L9.81792 12.726L10.2129 12.729C10.2639 12.729 10.2859 12.795 10.2439 12.825L9.92592 13.06L10.0459 13.437C10.0497 13.4478 10.05 13.4595 10.0466 13.4704C10.0433 13.4813 10.0365 13.4908 10.0273 13.4976C10.018 13.5043 10.0069 13.5079 9.99552 13.5078C9.9841 13.5077 9.97301 13.5039 9.96392 13.497L9.64192 13.267L9.31992 13.497C9.31081 13.5035 9.29987 13.5069 9.28868 13.5068C9.27749 13.5067 9.26663 13.5031 9.25763 13.4964C9.24864 13.4898 9.24199 13.4804 9.23863 13.4697C9.23527 13.4591 9.23537 13.4476 9.23892 13.437L9.35792 13.06L9.03992 12.825C9.03083 12.8184 9.02404 12.8092 9.02055 12.7985C9.01705 12.7879 9.01703 12.7764 9.02047 12.7657C9.02392 12.755 9.03066 12.7457 9.03972 12.7391C9.04879 12.7325 9.05971 12.729 9.07092 12.729L9.46592 12.726Z" fill="#FFE15A"/>
<path d="M20.719 7H12.28C11.41 7.00027 10.5757 7.34606 9.96063 7.96134C9.34554 8.57661 9 9.411 9 10.281V18.719C9 19.5892 9.34568 20.4237 9.96098 21.039C10.5763 21.6543 11.4108 22 12.281 22H20.719C21.5892 22 22.4237 21.6543 23.039 21.039C23.6543 20.4237 24 19.5892 24 18.719V10.28C23.9997 9.41 23.6539 8.57572 23.0387 7.96063C22.4234 7.34554 21.589 7 20.719 7Z" fill="#F6F6F6"/>
<path d="M16.5 18C16.9596 18 17.4148 17.9095 17.8394 17.7336C18.264 17.5577 18.6499 17.2999 18.9749 16.9749C19.2999 16.6499 19.5577 16.264 19.7336 15.8394C19.9095 15.4148 20 14.9596 20 14.5C20 14.0404 19.9095 13.5852 19.7336 13.1606C19.5577 12.736 19.2999 12.3501 18.9749 12.0251C18.6499 11.7001 18.264 11.4423 17.8394 11.2664C17.4148 11.0905 16.9596 11 16.5 11C15.5717 11 14.6815 11.3687 14.0251 12.0251C13.3687 12.6815 13 13.5717 13 14.5C13 15.4283 13.3687 16.3185 14.0251 16.9749C14.6815 17.6313 15.5717 18 16.5 18Z" fill="#FB4B4E"/>
</g>
</g>
<defs>
<clipPath id="clip0_443_790">
<rect width="24" height="24" fill="white"/>
</clipPath>
</defs>
</svg>
