<svg width="24" height="24" viewBox="0 0 24 24" fill="none" xmlns="http://www.w3.org/2000/svg">
<g clip-path="url(#clip0_443_597)">
<mask id="mask0_443_597" style="mask-type:luminance" maskUnits="userSpaceOnUse" x="0" y="0" width="24" height="24">
<path d="M24 0H0V24H24V0Z" fill="white"/>
</mask>
<g mask="url(#mask0_443_597)">
<path d="M11.719 2H3.28C2.41 2.00027 1.57572 2.34606 0.960629 2.96134C0.345538 3.57661 -4.0409e-08 4.411 0 5.281V13.719C0 14.5892 0.345676 15.4237 0.960983 16.039C1.57629 16.6543 2.41082 17 3.281 17H11.719C12.5892 17 13.4237 16.6543 14.039 16.039C14.6543 15.4237 15 14.5892 15 13.719V5.28C14.9997 4.41 14.6539 3.57572 14.0387 2.96063C13.4234 2.34554 12.589 2 11.719 2Z" fill="#0A48B6"/>
<path fill-rule="evenodd" clip-rule="evenodd" d="M7.73992 5.30104L7.61392 4.92604C7.61028 4.91569 7.60352 4.90672 7.59456 4.90037C7.5856 4.89403 7.5749 4.89062 7.56392 4.89062C7.55295 4.89062 7.54224 4.89403 7.53329 4.90037C7.52433 4.90672 7.51756 4.91569 7.51392 4.92604L7.38792 5.30104L6.99292 5.30504C6.98171 5.30504 6.97079 5.30859 6.96172 5.31519C6.95266 5.32178 6.94592 5.33109 6.94247 5.34175C6.93903 5.35242 6.93905 5.36391 6.94255 5.37456C6.94604 5.38522 6.95283 5.39449 6.96192 5.40104L7.27992 5.63604L7.15992 6.01304C7.14492 6.06104 7.19992 6.10204 7.24192 6.07204L7.56392 5.84204L7.88592 6.07204C7.92692 6.10204 7.98292 6.06204 7.96692 6.01204L7.84792 5.63604L8.16592 5.40104C8.17502 5.39449 8.1818 5.38522 8.1853 5.37456C8.18879 5.36391 8.18882 5.35242 8.18537 5.34175C8.18193 5.33109 8.17519 5.32178 8.16612 5.31519C8.15706 5.30859 8.14614 5.30504 8.13492 5.30504L7.73992 5.30104ZM7.73992 13.355L7.61392 12.98C7.61028 12.9696 7.60352 12.9607 7.59456 12.9543C7.5856 12.948 7.5749 12.9446 7.56392 12.9446C7.55295 12.9446 7.54224 12.948 7.53329 12.9543C7.52433 12.9607 7.51756 12.9696 7.51392 12.98L7.38792 13.355L6.99292 13.358C6.98171 13.358 6.97079 13.3616 6.96172 13.3681C6.95266 13.3747 6.94592 13.384 6.94247 13.3947C6.93903 13.4054 6.93905 13.4169 6.94255 13.4275C6.94604 13.4382 6.95283 13.4474 6.96192 13.454L7.27992 13.689L7.15992 14.066C7.14492 14.115 7.19992 14.156 7.24192 14.126L7.56392 13.896L7.88592 14.126C7.92692 14.156 7.98292 14.115 7.96692 14.066L7.84792 13.689L8.16592 13.454C8.17502 13.4474 8.1818 13.4382 8.1853 13.4275C8.18879 13.4169 8.18882 13.4054 8.18537 13.3947C8.18193 13.384 8.17519 13.3747 8.16612 13.3681C8.15706 13.3616 8.14614 13.358 8.13492 13.358L7.73992 13.355ZM11.6399 8.95304L11.7659 9.32804L12.1609 9.33105C12.2129 9.33105 12.2339 9.39705 12.1929 9.42805L11.8739 9.66204L11.9939 10.039C11.9978 10.0498 11.998 10.0615 11.9947 10.0724C11.9913 10.0833 11.9845 10.0928 11.9753 10.0996C11.9661 10.1063 11.9549 10.1099 11.9435 10.1098C11.9321 10.1097 11.921 10.1059 11.9119 10.099L11.5899 9.86905L11.2689 10.099C11.2598 10.1059 11.2487 10.1097 11.2373 10.1098C11.2259 10.1099 11.2148 10.1063 11.2055 10.0996C11.1963 10.0928 11.1895 10.0833 11.1862 10.0724C11.1828 10.0615 11.1831 10.0498 11.1869 10.039L11.3069 9.66204L10.9879 9.42805C10.9784 9.42165 10.9712 9.41232 10.9674 9.40147C10.9636 9.39062 10.9634 9.37884 10.9669 9.3679C10.9704 9.35695 10.9774 9.34744 10.9868 9.34079C10.9961 9.33415 11.0074 9.33073 11.0189 9.33105L11.4149 9.32804L11.5399 8.95304C11.5436 8.94269 11.5503 8.93372 11.5593 8.92737C11.5682 8.92103 11.5789 8.91762 11.5899 8.91762C11.6009 8.91762 11.6116 8.92103 11.6206 8.92737C11.6295 8.93372 11.6363 8.94269 11.6399 8.95304ZM3.71292 9.32804L3.58792 8.95304C3.58451 8.94233 3.57778 8.93298 3.5687 8.92634C3.55962 8.9197 3.54867 8.91613 3.53742 8.91613C3.52618 8.91613 3.51522 8.9197 3.50615 8.92634C3.49707 8.93298 3.49034 8.94233 3.48692 8.95304L3.36192 9.32804L2.96692 9.33105C2.95535 9.33049 2.94391 9.33374 2.93436 9.3403C2.92481 9.34686 2.91768 9.35637 2.91405 9.36738C2.91042 9.37838 2.91049 9.39027 2.91426 9.40123C2.91803 9.41218 2.92529 9.42161 2.93492 9.42805L3.25292 9.66204L3.13392 10.039C3.11892 10.089 3.17392 10.129 3.21592 10.099L3.53792 9.86905L3.85892 10.099C3.90092 10.129 3.95592 10.089 3.94092 10.039L3.82092 9.66204L4.13992 9.42805C4.14947 9.42165 4.15667 9.41232 4.16045 9.40147C4.16424 9.39062 4.16439 9.37884 4.16089 9.3679C4.15739 9.35695 4.15043 9.34744 4.14106 9.34079C4.13169 9.33415 4.12041 9.33073 4.10892 9.33105L3.71292 9.32804ZM4.19292 6.85004L4.31892 7.22504L4.71392 7.22804C4.76492 7.22804 4.78592 7.29404 4.74492 7.32404L4.42692 7.55904L4.54692 7.93604C4.55076 7.9468 4.55102 7.95851 4.54767 7.96942C4.54431 7.98034 4.53752 7.98988 4.5283 7.99663C4.51909 8.00337 4.50794 8.00697 4.49652 8.00686C4.4851 8.00676 4.47401 8.00295 4.46492 7.99604L4.14292 7.76604L3.82092 7.99604C3.81181 8.00253 3.80087 8.00597 3.78968 8.00587C3.77849 8.00576 3.76763 8.00212 3.75863 7.99546C3.74964 7.9888 3.74299 7.97946 3.73963 7.96879C3.73627 7.95811 3.73637 7.94665 3.73992 7.93604L3.85892 7.55904L3.54092 7.32404C3.53183 7.31749 3.52504 7.30822 3.52155 7.29756C3.51805 7.28691 3.51803 7.27542 3.52147 7.26475C3.52492 7.25409 3.53166 7.24478 3.54072 7.23819C3.54979 7.23159 3.56071 7.22804 3.57192 7.22804L3.96692 7.22504L4.09192 6.85004C4.09506 6.83893 4.10174 6.82917 4.11095 6.8222C4.12015 6.81524 4.13138 6.81146 4.14292 6.81146C4.15447 6.81146 4.16569 6.81524 4.1749 6.8222C4.1841 6.82917 4.18978 6.83893 4.19292 6.85004ZM11.2929 11.252L11.1669 10.877C11.1633 10.8666 11.1565 10.8577 11.1476 10.8513C11.1386 10.845 11.1279 10.8416 11.1169 10.8416C11.1059 10.8416 11.0952 10.845 11.0863 10.8513C11.0773 10.8577 11.0706 10.8666 11.0669 10.877L10.9409 11.252L10.5459 11.255C10.5346 11.2548 10.5235 11.2582 10.5143 11.2647C10.5051 11.2712 10.4982 11.2805 10.4946 11.2912C10.491 11.302 10.491 11.3135 10.4944 11.3243C10.4979 11.335 10.5047 11.3444 10.5139 11.351L10.8329 11.586L10.7129 11.963C10.6979 12.012 10.7529 12.053 10.7949 12.023L11.1169 11.793L11.4379 12.023C11.4799 12.053 11.5359 12.012 11.5199 11.963L11.3999 11.586L11.7189 11.351C11.728 11.3444 11.7348 11.3352 11.7383 11.3245C11.7418 11.3139 11.7418 11.3024 11.7384 11.2917C11.7349 11.281 11.7282 11.2717 11.7191 11.2651C11.71 11.2585 11.6991 11.255 11.6879 11.255L11.2919 11.252H11.2929ZM9.69292 5.37604L9.81792 5.75104L10.2129 5.75405C10.2639 5.75405 10.2859 5.82004 10.2439 5.85104L9.92592 6.08504L10.0459 6.46204C10.0498 6.4728 10.05 6.48451 10.0467 6.49542C10.0433 6.50634 10.0365 6.51588 10.0273 6.52263C10.0181 6.52937 10.0069 6.53297 9.99552 6.53286C9.9841 6.53276 9.97301 6.52895 9.96392 6.52204L9.64192 6.29204L9.31992 6.52204C9.31081 6.52853 9.29987 6.53197 9.28868 6.53187C9.27749 6.53176 9.26663 6.52812 9.25763 6.52146C9.24864 6.5148 9.24199 6.50546 9.23863 6.49479C9.23527 6.48411 9.23537 6.47265 9.23892 6.46204L9.35792 6.08504L9.03992 5.85104C9.03038 5.84464 9.02317 5.83532 9.01939 5.82447C9.01561 5.81362 9.01546 5.80183 9.01895 5.79089C9.02245 5.77994 9.02941 5.77043 9.03879 5.76378C9.04816 5.75714 9.05944 5.75373 9.07092 5.75405L9.46592 5.75104L9.59192 5.37604C9.59556 5.36569 9.60233 5.35672 9.61129 5.35037C9.62024 5.34403 9.63095 5.34062 9.64192 5.34062C9.6529 5.34062 9.6636 5.34403 9.67256 5.35037C9.68152 5.35672 9.68828 5.36569 9.69192 5.37604H9.69292ZM5.79092 12.726L5.66592 12.351C5.66228 12.3406 5.65552 12.3317 5.64656 12.3253C5.6376 12.319 5.6269 12.3156 5.61592 12.3156C5.60495 12.3156 5.59424 12.319 5.58529 12.3253C5.57633 12.3317 5.56956 12.3406 5.56592 12.351L5.43992 12.726L5.04492 12.729C5.03363 12.7288 5.02255 12.7322 5.01332 12.7387C5.00409 12.7452 4.99719 12.7545 4.99361 12.7652C4.99004 12.776 4.98999 12.7875 4.99346 12.7983C4.99693 12.809 5.00375 12.8184 5.01292 12.825L5.33192 13.06L5.21192 13.437C5.19692 13.486 5.25192 13.527 5.29392 13.497L5.61592 13.267L5.93692 13.497C5.97892 13.527 6.03492 13.486 6.01892 13.437L5.89892 13.06L6.21792 12.825C6.22702 12.8184 6.2338 12.8092 6.2373 12.7985C6.24079 12.7879 6.24082 12.7764 6.23737 12.7657C6.23393 12.755 6.22719 12.7457 6.21812 12.7391C6.20906 12.7325 6.19813 12.729 6.18692 12.729L5.79092 12.726ZM11.0659 6.85004L10.9409 7.22504L10.5459 7.22804C10.5346 7.22782 10.5235 7.23122 10.5143 7.23774C10.5051 7.24425 10.4982 7.25355 10.4946 7.26427C10.491 7.27499 10.491 7.28657 10.4944 7.29732C10.4979 7.30808 10.5047 7.31744 10.5139 7.32404L10.8329 7.55904L10.7129 7.93604C10.6979 7.98604 10.7529 8.02604 10.7949 7.99604L11.1169 7.76604L11.4379 7.99604C11.4799 8.02604 11.5359 7.98604 11.5199 7.93604L11.3999 7.55904L11.7189 7.32404C11.728 7.31749 11.7348 7.30822 11.7383 7.29756C11.7418 7.28691 11.7418 7.27542 11.7384 7.26475C11.7349 7.25409 11.7282 7.24478 11.7191 7.23819C11.71 7.23159 11.6991 7.22804 11.6879 7.22804L11.2919 7.22504L11.1669 6.85004C11.1633 6.83969 11.1565 6.83072 11.1476 6.82437C11.1386 6.81803 11.1279 6.81462 11.1169 6.81462C11.1059 6.81462 11.0952 6.81803 11.0863 6.82437C11.0773 6.83072 11.0706 6.83969 11.0669 6.85004H11.0659ZM3.96692 11.252L4.09192 10.877C4.09506 10.8659 4.10174 10.8561 4.11095 10.8492C4.12015 10.8422 4.13138 10.8384 4.14292 10.8384C4.15447 10.8384 4.16569 10.8422 4.1749 10.8492C4.1841 10.8561 4.19078 10.8659 4.19392 10.877L4.31892 11.252L4.71392 11.255C4.76492 11.255 4.78692 11.321 4.74492 11.351L4.42692 11.586L4.54692 11.963C4.55076 11.9738 4.55102 11.9855 4.54767 11.9964C4.54431 12.0073 4.53752 12.0168 4.5283 12.0236C4.51909 12.0303 4.50794 12.0339 4.49652 12.0338C4.4851 12.0337 4.47401 12.0299 4.46492 12.023L4.14292 11.793L3.82092 12.023C3.81181 12.0295 3.80087 12.0329 3.78968 12.0328C3.77849 12.0327 3.76763 12.0291 3.75863 12.0224C3.74964 12.0158 3.74299 12.0064 3.73963 11.9957C3.73627 11.9851 3.73637 11.9736 3.73992 11.963L3.85892 11.586L3.54092 11.351C3.53183 11.3444 3.52504 11.3352 3.52155 11.3245C3.51805 11.3139 3.51803 11.3024 3.52147 11.2917C3.52492 11.281 3.53166 11.2717 3.54072 11.2651C3.54979 11.2585 3.56071 11.255 3.57192 11.255L3.96692 11.252ZM5.56492 5.37604L5.43992 5.75104L5.04492 5.75405C5.03335 5.75349 5.02191 5.75674 5.01236 5.7633C5.00281 5.76986 4.99568 5.77937 4.99205 5.79038C4.98842 5.80138 4.98849 5.81327 4.99226 5.82423C4.99603 5.83518 5.00329 5.8446 5.01292 5.85104L5.33192 6.08504L5.21192 6.46204C5.19692 6.51204 5.25192 6.55204 5.29392 6.52204L5.61592 6.29204L5.93692 6.52204C5.97892 6.55204 6.03492 6.51204 6.01892 6.46204L5.89892 6.08504L6.21792 5.85104C6.22747 5.84464 6.23467 5.83532 6.23845 5.82447C6.24224 5.81362 6.24239 5.80183 6.23889 5.79089C6.23539 5.77994 6.22843 5.77043 6.21906 5.76378C6.20969 5.75714 6.19841 5.75373 6.18692 5.75405L5.79092 5.75104L5.66592 5.37604C5.66228 5.36569 5.65552 5.35672 5.64656 5.35037C5.6376 5.34403 5.6269 5.34062 5.61592 5.34062C5.60495 5.34062 5.59424 5.34403 5.58529 5.35037C5.57633 5.35672 5.56856 5.36569 5.56492 5.37604ZM9.46592 12.726L9.59192 12.351C9.59556 12.3406 9.60233 12.3317 9.61129 12.3253C9.62024 12.319 9.63095 12.3156 9.64192 12.3156C9.6529 12.3156 9.6636 12.319 9.67256 12.3253C9.68152 12.3317 9.68828 12.3406 9.69192 12.351L9.81792 12.726L10.2129 12.729C10.2639 12.729 10.2859 12.795 10.2439 12.825L9.92592 13.06L10.0459 13.437C10.0498 13.4478 10.05 13.4595 10.0467 13.4704C10.0433 13.4813 10.0365 13.4908 10.0273 13.4976C10.0181 13.5043 10.0069 13.5079 9.99552 13.5078C9.9841 13.5077 9.97301 13.5039 9.96392 13.497L9.64192 13.267L9.31992 13.497C9.31081 13.5035 9.29987 13.5069 9.28868 13.5068C9.27749 13.5067 9.26663 13.5031 9.25763 13.4964C9.24864 13.4898 9.24199 13.4804 9.23863 13.4697C9.23527 13.4591 9.23537 13.4476 9.23892 13.437L9.35792 13.06L9.03992 12.825C9.03083 12.8184 9.02404 12.8092 9.02055 12.7985C9.01705 12.7879 9.01703 12.7764 9.02047 12.7657C9.02392 12.755 9.03066 12.7457 9.03972 12.7391C9.04879 12.7325 9.05971 12.729 9.07092 12.729L9.46592 12.726Z" fill="#FFE15A"/>
<path fill-rule="evenodd" clip-rule="evenodd" d="M9.784 8.15405H23.217C23.502 8.48805 23.721 8.87905 23.854 9.30805H9.147C9.281 8.87905 9.499 8.48805 9.784 8.15405ZM9 10.462H24V11.616H9V10.462ZM24 12.77H9V13.923H24V12.77ZM9 15.077H24V16.231H9V15.077ZM24 17.385H9V18.539H24V17.385ZM9.147 19.693H23.854C23.721 20.122 23.502 20.513 23.217 20.847H9.784C9.49563 20.5095 9.2789 20.1169 9.147 19.693Z" fill="#F5F5F5"/>
<path fill-rule="evenodd" clip-rule="evenodd" d="M20.719 7H12.28C11.28 7 10.384 7.448 9.782 8.154H23.216C22.9084 7.79203 22.5258 7.50131 22.0946 7.30204C21.6634 7.10276 21.194 6.9997 20.719 7ZM24 11.615H9V12.769H24V11.615ZM23.853 9.308C23.949 9.616 24 9.943 24 10.282V10.462H9V10.282C9 9.942 9.051 9.616 9.147 9.308H23.853ZM24 13.923H9V15.077H24V13.923ZM24 18.539V18.719C24 19.059 23.949 19.385 23.853 19.693H9.147C9.04925 19.3776 8.99969 19.0492 9 18.719V18.539H24ZM23.217 20.846H9.783C10.0907 21.2081 10.4735 21.4989 10.9049 21.6982C11.3362 21.8975 11.8058 22.0004 12.281 22H20.719C21.719 22 22.615 21.552 23.217 20.846ZM9 16.231H24V17.385H9V16.23V16.231Z" fill="#FA4051"/>
<path d="M17 7H12.25C10.455 7 9 8.47 9 10.281V15.077H17V7Z" fill="#1939C9"/>
<path fill-rule="evenodd" clip-rule="evenodd" d="M11.6131 7.72088L11.6751 7.90788L11.8721 7.90988C11.8971 7.90988 11.9081 7.94188 11.8871 7.95688L11.7291 8.07388L11.7891 8.26188C11.7907 8.26721 11.7906 8.2729 11.7888 8.27816C11.787 8.28342 11.7836 8.28801 11.7792 8.29129C11.7747 8.29457 11.7693 8.29639 11.7637 8.29649C11.7582 8.2966 11.7527 8.29499 11.7481 8.29188L11.5881 8.17688L11.4281 8.29088C11.4235 8.29364 11.4182 8.29497 11.4128 8.29469C11.4075 8.29441 11.4023 8.29254 11.398 8.28932C11.3937 8.2861 11.3905 8.28168 11.3887 8.27662C11.387 8.27155 11.3868 8.26607 11.3881 8.26088L11.4461 8.07388L11.2881 7.95688C11.2836 7.95362 11.2803 7.949 11.2786 7.94371C11.277 7.93843 11.277 7.93274 11.2788 7.9275C11.2806 7.92225 11.284 7.91771 11.2886 7.91454C11.2931 7.91137 11.2986 7.90974 11.3041 7.90988L11.5001 7.90788L11.5631 7.72088C11.5651 7.71592 11.5686 7.71166 11.5731 7.70867C11.5775 7.70568 11.5827 7.70408 11.5881 7.70408C11.5935 7.70408 11.5987 7.70568 11.6032 7.70867C11.6076 7.71166 11.6111 7.71592 11.6131 7.72088ZM9.87007 8.26188C9.86851 8.26721 9.86862 8.2729 9.8704 8.27816C9.87219 8.28342 9.87555 8.28801 9.88003 8.29129C9.88452 8.29457 9.8899 8.29639 9.89546 8.29649C9.90101 8.2966 9.90647 8.29499 9.91107 8.29188L10.0711 8.17688L10.2311 8.29188C10.2357 8.29464 10.241 8.29597 10.2464 8.29569C10.2517 8.29541 10.2569 8.29354 10.2612 8.29032C10.2655 8.28711 10.2687 8.28268 10.2705 8.27762C10.2723 8.27255 10.2725 8.26707 10.2711 8.26188L10.2131 8.07488L10.3711 7.95788C10.3754 7.95443 10.3785 7.94974 10.3801 7.94446C10.3816 7.93918 10.3815 7.93355 10.3798 7.92833C10.378 7.92311 10.3747 7.91854 10.3703 7.91524C10.3659 7.91195 10.3606 7.91008 10.3551 7.90988L10.1591 7.90788L10.1251 7.80788C10.0409 7.88142 9.96041 7.95918 9.88407 8.04088L9.93007 8.07488L9.87007 8.26188ZM10.0961 9.27788L10.1591 9.46488L10.3551 9.46588C10.3811 9.46588 10.3911 9.49888 10.3711 9.51388L10.2131 9.63088L10.2721 9.81788C10.2735 9.82307 10.2733 9.82855 10.2715 9.83362C10.2697 9.83868 10.2665 9.84311 10.2622 9.84632C10.2579 9.84954 10.2527 9.85141 10.2474 9.85169C10.242 9.85197 10.2367 9.85064 10.2321 9.84788L10.0721 9.73288L9.91207 9.84788C9.90748 9.85139 9.90189 9.85333 9.89612 9.85342C9.89034 9.85351 9.88469 9.85175 9.87999 9.84839C9.87529 9.84504 9.87179 9.84026 9.87001 9.83477C9.86822 9.82928 9.86825 9.82336 9.87007 9.81788L9.93007 9.63088L9.77207 9.51388C9.76784 9.51049 9.76472 9.50589 9.76314 9.50069C9.76155 9.4955 9.76157 9.48995 9.76319 9.48476C9.76481 9.47958 9.76796 9.475 9.77222 9.47164C9.77648 9.46827 9.78165 9.46626 9.78707 9.46588L9.98407 9.46488L10.0461 9.27788C10.0541 9.25388 10.0881 9.25388 10.0961 9.27788ZM10.1591 11.1909L10.0961 11.0049C10.0881 10.9799 10.0541 10.9799 10.0461 11.0049L9.98407 11.1909L9.78707 11.1929C9.78165 11.1933 9.77648 11.1953 9.77222 11.1987C9.76796 11.202 9.76481 11.2066 9.76319 11.2118C9.76157 11.217 9.76155 11.2225 9.76314 11.2277C9.76472 11.2329 9.76784 11.2375 9.77207 11.2409L9.93007 11.3579L9.87007 11.5449C9.86851 11.5502 9.86862 11.5559 9.8704 11.5612C9.87219 11.5664 9.87555 11.571 9.88003 11.5743C9.88452 11.5776 9.8899 11.5794 9.89546 11.5795C9.90101 11.5796 9.90647 11.578 9.91107 11.5749L10.0711 11.4599L10.2311 11.5749C10.2521 11.5889 10.2801 11.5689 10.2721 11.5449L10.2121 11.3569L10.3711 11.2409C10.3754 11.2374 10.3785 11.2328 10.3801 11.2275C10.3816 11.2222 10.3815 11.2166 10.3798 11.2113C10.378 11.2061 10.3747 11.2016 10.3703 11.1983C10.3659 11.195 10.3606 11.1931 10.3551 11.1929L10.1591 11.1909ZM10.0961 12.5909L10.1591 12.7779L10.3551 12.7799C10.3811 12.7799 10.3911 12.8119 10.3711 12.8269L10.2131 12.9439L10.2721 13.1319C10.2741 13.1372 10.2744 13.143 10.2728 13.1484C10.2712 13.1538 10.2679 13.1586 10.2634 13.162C10.2589 13.1654 10.2534 13.1672 10.2478 13.1672C10.2421 13.1672 10.2366 13.1653 10.2321 13.1619L10.0721 13.0469L9.91207 13.1609C9.90778 13.1656 9.90193 13.1685 9.89562 13.1692C9.8893 13.1698 9.88296 13.1682 9.8778 13.1645C9.87263 13.1608 9.869 13.1553 9.86757 13.1492C9.86615 13.143 9.86704 13.1365 9.87007 13.1309L9.93007 12.9439L9.77207 12.8269C9.76817 12.8234 9.76537 12.8189 9.76399 12.8139C9.76261 12.8088 9.76272 12.8035 9.76431 12.7985C9.7659 12.7936 9.76889 12.7892 9.77293 12.7858C9.77697 12.7825 9.78188 12.7805 9.78707 12.7799L9.98407 12.7779L10.0461 12.5909C10.0541 12.5669 10.0881 12.5669 10.0961 12.5909ZM10.1591 14.2209L10.0961 14.0339C10.0881 14.0099 10.0541 14.0099 10.0461 14.0339L9.98407 14.2209L9.78707 14.2229C9.78188 14.2235 9.77697 14.2255 9.77293 14.2288C9.76889 14.2322 9.7659 14.2366 9.76431 14.2415C9.76272 14.2465 9.76261 14.2518 9.76399 14.2569C9.76537 14.2619 9.76817 14.2664 9.77207 14.2699L9.93007 14.3869L9.87007 14.5749C9.86851 14.5802 9.86862 14.5859 9.8704 14.5912C9.87219 14.5964 9.87555 14.601 9.88003 14.6043C9.88452 14.6076 9.8899 14.6094 9.89546 14.6095C9.90101 14.6096 9.90647 14.608 9.91107 14.6049L10.0711 14.4899L10.2311 14.6039C10.2357 14.607 10.2412 14.6086 10.2467 14.6085C10.2523 14.6084 10.2577 14.6066 10.2622 14.6033C10.2666 14.6 10.27 14.5954 10.2718 14.5902C10.2736 14.5849 10.2737 14.5792 10.2721 14.5739L10.2121 14.3869L10.3711 14.2699C10.375 14.2664 10.3779 14.2618 10.3792 14.2566C10.3805 14.2515 10.3803 14.2461 10.3786 14.2411C10.3769 14.2361 10.3738 14.2317 10.3696 14.2285C10.3654 14.2252 10.3604 14.2233 10.3551 14.2229L10.1591 14.2209ZM10.8531 8.45888L10.9151 8.64488L11.1121 8.64688C11.1381 8.64688 11.1481 8.67888 11.1281 8.69488L10.9691 8.81088L11.0291 8.99888C11.0307 9.00421 11.0306 9.0099 11.0288 9.01516C11.027 9.02042 11.0236 9.02501 11.0192 9.02829C11.0147 9.03157 11.0093 9.03339 11.0037 9.03349C10.9982 9.0336 10.9927 9.03199 10.9881 9.02888L10.8281 8.91388L10.6681 9.02788C10.6635 9.03064 10.6582 9.03197 10.6528 9.03169C10.6475 9.03141 10.6423 9.02954 10.638 9.02632C10.6337 9.02311 10.6305 9.01868 10.6287 9.01362C10.627 9.00855 10.6268 9.00307 10.6281 8.99788L10.6871 8.81088L10.5281 8.69488C10.5238 8.69143 10.5207 8.68674 10.5192 8.68146C10.5176 8.67618 10.5177 8.67055 10.5194 8.66533C10.5212 8.66011 10.5245 8.65554 10.5289 8.65224C10.5333 8.64895 10.5386 8.64708 10.5441 8.64688L10.7411 8.64488L10.8031 8.45888C10.8051 8.45391 10.8086 8.44966 10.8131 8.44667C10.8175 8.44368 10.8227 8.44208 10.8281 8.44208C10.8335 8.44208 10.8387 8.44368 10.8432 8.44667C10.8476 8.44966 10.8511 8.45391 10.8531 8.45888ZM10.9161 10.3709L10.8531 10.1849C10.8451 10.1609 10.8111 10.1609 10.8031 10.1849L10.7411 10.3709L10.5441 10.3729C10.5386 10.3731 10.5333 10.375 10.5289 10.3783C10.5245 10.3816 10.5212 10.3861 10.5194 10.3913C10.5177 10.3966 10.5176 10.4022 10.5192 10.4075C10.5207 10.4128 10.5238 10.4174 10.5281 10.4209L10.6871 10.5379L10.6271 10.7249C10.6247 10.7303 10.6242 10.7364 10.6258 10.7421C10.6273 10.7479 10.6307 10.7529 10.6355 10.7564C10.6403 10.7599 10.6462 10.7617 10.6521 10.7614C10.658 10.7611 10.6637 10.7588 10.6681 10.7549L10.8281 10.6399L10.9881 10.7549C10.9926 10.7583 10.9981 10.7602 11.0038 10.7602C11.0094 10.7602 11.0149 10.7584 11.0194 10.755C11.0239 10.7516 11.0272 10.7468 11.0288 10.7414C11.0304 10.736 11.0301 10.7302 11.0281 10.7249L10.9691 10.5379L11.1281 10.4209C11.1324 10.4174 11.1355 10.4128 11.1371 10.4075C11.1386 10.4022 11.1385 10.3966 11.1368 10.3913C11.135 10.3861 11.1317 10.3816 11.1273 10.3783C11.1229 10.375 11.1176 10.3731 11.1121 10.3729L10.9151 10.3709H10.9161ZM10.8531 11.8249L10.9161 12.0119L11.1121 12.0129C11.1381 12.0129 11.1481 12.0459 11.1281 12.0609L10.9691 12.1779L11.0291 12.3659C11.0305 12.3711 11.0303 12.3766 11.0285 12.3816C11.0267 12.3867 11.0235 12.3911 11.0192 12.3943C11.0149 12.3976 11.0097 12.3994 11.0044 12.3997C10.999 12.4 10.9937 12.3987 10.9891 12.3959L10.8281 12.2809L10.6681 12.3949C10.6635 12.3977 10.6582 12.399 10.6528 12.3987C10.6475 12.3984 10.6423 12.3966 10.638 12.3933C10.6337 12.3901 10.6305 12.3857 10.6287 12.3806C10.627 12.3756 10.6268 12.3701 10.6281 12.3649L10.6871 12.1779L10.5281 12.0609C10.5231 12.0578 10.5193 12.0532 10.5174 12.0476C10.5154 12.0421 10.5153 12.0361 10.5171 12.0306C10.519 12.025 10.5227 12.0203 10.5276 12.0171C10.5325 12.0138 10.5383 12.0124 10.5441 12.0129L10.7411 12.0119L10.8031 11.8249C10.8111 11.8009 10.8451 11.8009 10.8531 11.8249ZM10.9161 13.4849L10.8531 13.2989C10.8451 13.2749 10.8111 13.2749 10.8031 13.2989L10.7411 13.4849L10.5441 13.4869C10.5383 13.4864 10.5325 13.4878 10.5276 13.4911C10.5227 13.4943 10.519 13.499 10.5171 13.5046C10.5153 13.5101 10.5154 13.5161 10.5174 13.5216C10.5193 13.5272 10.5231 13.5318 10.5281 13.5349L10.6871 13.6519L10.6271 13.8389C10.6201 13.8629 10.6471 13.8829 10.6681 13.8689L10.8281 13.7539L10.9881 13.8689C11.0081 13.8829 11.0371 13.8629 11.0281 13.8389L10.9691 13.6509L11.1281 13.5349C11.1331 13.5318 11.1369 13.5272 11.1389 13.5216C11.1409 13.5161 11.1409 13.5101 11.1391 13.5046C11.1372 13.499 11.1336 13.4943 11.1287 13.4911C11.1238 13.4878 11.1179 13.4864 11.1121 13.4869L10.9151 13.4849H10.9161ZM11.6761 9.46488L11.6131 9.27788C11.6111 9.27292 11.6076 9.26866 11.6032 9.26567C11.5987 9.26268 11.5935 9.26108 11.5881 9.26108C11.5827 9.26108 11.5775 9.26268 11.5731 9.26567C11.5686 9.26866 11.5651 9.27292 11.5631 9.27788L11.5001 9.46488L11.3041 9.46588C11.2983 9.46536 11.2924 9.46683 11.2876 9.47003C11.2827 9.47324 11.279 9.47801 11.2771 9.48356C11.2753 9.48911 11.2754 9.49512 11.2774 9.50063C11.2793 9.50613 11.2831 9.5108 11.2881 9.51388L11.4461 9.63088L11.3871 9.81788C11.3858 9.82307 11.386 9.82855 11.3877 9.83362C11.3895 9.83868 11.3927 9.84311 11.397 9.84632C11.4013 9.84954 11.4065 9.85141 11.4118 9.85169C11.4172 9.85197 11.4225 9.85064 11.4271 9.84788L11.5871 9.73288L11.7471 9.84788C11.7517 9.85139 11.7573 9.85333 11.7631 9.85342C11.7688 9.85351 11.7745 9.85175 11.7792 9.84839C11.7839 9.84504 11.7874 9.84026 11.7892 9.83477C11.791 9.82928 11.7909 9.82336 11.7891 9.81788L11.7291 9.63088L11.8881 9.51388C11.8924 9.51043 11.8955 9.50574 11.8971 9.50046C11.8986 9.49518 11.8985 9.48955 11.8968 9.48433C11.895 9.47911 11.8917 9.47454 11.8873 9.47124C11.8829 9.46795 11.8776 9.46608 11.8721 9.46588L11.6761 9.46488ZM11.6131 11.0049L11.6751 11.1909L11.8721 11.1929C11.8971 11.1929 11.9081 11.2259 11.8871 11.2409L11.7291 11.3579L11.7891 11.5449C11.7907 11.5502 11.7906 11.5559 11.7888 11.5612C11.787 11.5664 11.7836 11.571 11.7792 11.5743C11.7747 11.5776 11.7693 11.5794 11.7637 11.5795C11.7582 11.5796 11.7527 11.578 11.7481 11.5749L11.5881 11.4599L11.4281 11.5749C11.4235 11.5777 11.4182 11.579 11.4128 11.5787C11.4075 11.5784 11.4023 11.5766 11.398 11.5733C11.3937 11.5701 11.3905 11.5657 11.3887 11.5606C11.387 11.5556 11.3868 11.5501 11.3881 11.5449L11.4461 11.3569L11.2881 11.2409C11.2838 11.2374 11.2807 11.2328 11.2792 11.2275C11.2776 11.2222 11.2777 11.2166 11.2794 11.2113C11.2812 11.2061 11.2845 11.2016 11.2889 11.1983C11.2933 11.195 11.2986 11.1931 11.3041 11.1929L11.5001 11.1909L11.5631 11.0049C11.5651 10.9999 11.5686 10.9957 11.5731 10.9927C11.5775 10.9897 11.5827 10.9881 11.5881 10.9881C11.5935 10.9881 11.5987 10.9897 11.6032 10.9927C11.6076 10.9957 11.6111 10.9999 11.6131 11.0049ZM11.6751 12.7779L11.6131 12.5909C11.6111 12.5859 11.6076 12.5817 11.6032 12.5787C11.5987 12.5757 11.5935 12.5741 11.5881 12.5741C11.5827 12.5741 11.5775 12.5757 11.5731 12.5787C11.5686 12.5817 11.5651 12.5859 11.5631 12.5909L11.5001 12.7779L11.3041 12.7799C11.2988 12.7803 11.2938 12.7822 11.2896 12.7855C11.2854 12.7887 11.2823 12.7931 11.2806 12.7981C11.2789 12.8031 11.2787 12.8085 11.28 12.8136C11.2814 12.8188 11.2842 12.8234 11.2881 12.8269L11.4461 12.9439L11.3871 13.1319C11.3851 13.1372 11.3849 13.143 11.3864 13.1484C11.388 13.1538 11.3913 13.1586 11.3958 13.162C11.4003 13.1654 11.4058 13.1672 11.4115 13.1672C11.4171 13.1672 11.4226 13.1653 11.4271 13.1619L11.5871 13.0469L11.7471 13.1609C11.7514 13.1656 11.7573 13.1685 11.7636 13.1692C11.7699 13.1698 11.7762 13.1682 11.7814 13.1645C11.7866 13.1608 11.7902 13.1553 11.7916 13.1492C11.793 13.143 11.7921 13.1365 11.7891 13.1309L11.7291 12.9439L11.8881 12.8269C11.892 12.8234 11.8949 12.8188 11.8962 12.8136C11.8975 12.8085 11.8973 12.8031 11.8956 12.7981C11.8939 12.7931 11.8908 12.7887 11.8866 12.7855C11.8824 12.7822 11.8774 12.7803 11.8721 12.7799L11.6751 12.7779ZM11.6131 14.0339L11.6751 14.2209L11.8721 14.2229C11.8971 14.2229 11.9081 14.2549 11.8871 14.2699L11.7291 14.3869L11.7891 14.5749C11.7907 14.5802 11.7906 14.5859 11.7888 14.5912C11.787 14.5964 11.7836 14.601 11.7792 14.6043C11.7747 14.6076 11.7693 14.6094 11.7637 14.6095C11.7582 14.6096 11.7527 14.608 11.7481 14.6049L11.5881 14.4899L11.4281 14.6039C11.4235 14.6067 11.4182 14.608 11.4128 14.6077C11.4075 14.6074 11.4023 14.6056 11.398 14.6023C11.3937 14.5991 11.3905 14.5947 11.3887 14.5896C11.387 14.5846 11.3868 14.5791 11.3881 14.5739L11.4461 14.3869L11.2881 14.2699C11.2842 14.2664 11.2814 14.2618 11.28 14.2566C11.2787 14.2515 11.2789 14.2461 11.2806 14.2411C11.2823 14.2361 11.2854 14.2317 11.2896 14.2285C11.2938 14.2252 11.2988 14.2233 11.3041 14.2229L11.5001 14.2209L11.5631 14.0339C11.5651 14.0289 11.5686 14.0247 11.5731 14.0217C11.5775 14.0187 11.5827 14.0171 11.5881 14.0171C11.5935 14.0171 11.5987 14.0187 11.6032 14.0217C11.6076 14.0247 11.6111 14.0289 11.6131 14.0339ZM12.4311 8.64488L12.3691 8.45888C12.3671 8.45391 12.3636 8.44966 12.3592 8.44667C12.3547 8.44368 12.3495 8.44208 12.3441 8.44208C12.3387 8.44208 12.3335 8.44368 12.3291 8.44667C12.3246 8.44966 12.3211 8.45391 12.3191 8.45888L12.2561 8.64488L12.0601 8.64688C12.0546 8.64708 12.0493 8.64895 12.0449 8.65224C12.0405 8.65554 12.0372 8.66011 12.0354 8.66533C12.0337 8.67055 12.0336 8.67618 12.0352 8.68146C12.0367 8.68674 12.0398 8.69143 12.0441 8.69488L12.2021 8.81088L12.1421 8.99888C12.1403 9.00436 12.1403 9.01028 12.142 9.01577C12.1438 9.02126 12.1473 9.02604 12.152 9.0294C12.1567 9.03275 12.1624 9.03451 12.1682 9.03442C12.1739 9.03433 12.1795 9.03239 12.1841 9.02888L12.3441 8.91388L12.5041 9.02788C12.5087 9.03064 12.514 9.03197 12.5194 9.03169C12.5247 9.03141 12.5299 9.02954 12.5342 9.02632C12.5385 9.02311 12.5417 9.01868 12.5435 9.01362C12.5453 9.00855 12.5455 9.00307 12.5441 8.99788L12.4851 8.81088L12.6431 8.69488C12.648 8.69183 12.6517 8.68725 12.6537 8.68187C12.6557 8.67648 12.6558 8.67058 12.6541 8.6651C12.6524 8.65962 12.6489 8.65486 12.6442 8.65156C12.6395 8.64827 12.6339 8.64662 12.6281 8.64688L12.4311 8.64488ZM12.3691 10.1849L12.4311 10.3709L12.6281 10.3729C12.6531 10.3729 12.6641 10.4059 12.6431 10.4209L12.4851 10.5379L12.5451 10.7249C12.5475 10.7303 12.548 10.7364 12.5465 10.7421C12.5449 10.7479 12.5415 10.7529 12.5367 10.7564C12.5319 10.7599 12.5261 10.7617 12.5201 10.7614C12.5142 10.7611 12.5086 10.7588 12.5041 10.7549L12.3441 10.6399L12.1841 10.7549C12.1631 10.7699 12.1351 10.7499 12.1431 10.7249L12.2031 10.5379L12.0441 10.4209C12.0398 10.4174 12.0367 10.4128 12.0352 10.4075C12.0336 10.4022 12.0337 10.3966 12.0354 10.3913C12.0372 10.3861 12.0405 10.3816 12.0449 10.3783C12.0493 10.375 12.0546 10.3731 12.0601 10.3729L12.2561 10.3709L12.3191 10.1849C12.3211 10.1799 12.3246 10.1757 12.3291 10.1727C12.3335 10.1697 12.3387 10.1681 12.3441 10.1681C12.3495 10.1681 12.3547 10.1697 12.3592 10.1727C12.3636 10.1757 12.3671 10.1799 12.3691 10.1849ZM12.4311 12.0119L12.3691 11.8249C12.3671 11.8199 12.3636 11.8157 12.3592 11.8127C12.3547 11.8097 12.3495 11.8081 12.3441 11.8081C12.3387 11.8081 12.3335 11.8097 12.3291 11.8127C12.3246 11.8157 12.3211 11.8199 12.3191 11.8249L12.2561 12.0119L12.0601 12.0129C12.0543 12.0124 12.0484 12.0138 12.0436 12.0171C12.0387 12.0203 12.035 12.025 12.0331 12.0306C12.0313 12.0361 12.0314 12.0421 12.0334 12.0476C12.0353 12.0532 12.0391 12.0578 12.0441 12.0609L12.2021 12.1779L12.1421 12.3659C12.1351 12.3899 12.1621 12.4099 12.1841 12.3959L12.3441 12.2809L12.5041 12.3949C12.5087 12.3977 12.514 12.399 12.5194 12.3987C12.5247 12.3984 12.5299 12.3966 12.5342 12.3933C12.5385 12.3901 12.5417 12.3857 12.5435 12.3806C12.5453 12.3756 12.5455 12.3701 12.5441 12.3649L12.4851 12.1779L12.6431 12.0609C12.648 12.0579 12.6517 12.0533 12.6537 12.0479C12.6557 12.0425 12.6558 12.0366 12.6541 12.0311C12.6524 12.0256 12.6489 12.0209 12.6442 12.0176C12.6395 12.0143 12.6339 12.0126 12.6281 12.0129L12.4311 12.0119ZM12.3691 13.2989L12.4311 13.4849L12.6281 13.4869C12.6531 13.4869 12.6641 13.5199 12.6431 13.5349L12.4851 13.6519L12.5451 13.8389C12.5475 13.8443 12.548 13.8504 12.5465 13.8561C12.5449 13.8619 12.5415 13.8669 12.5367 13.8704C12.5319 13.8739 12.5261 13.8757 12.5201 13.8754C12.5142 13.8751 12.5086 13.8728 12.5041 13.8689L12.3441 13.7539L12.1841 13.8689C12.1795 13.872 12.1741 13.8736 12.1685 13.8735C12.1629 13.8734 12.1576 13.8716 12.1531 13.8683C12.1486 13.865 12.1452 13.8604 12.1434 13.8552C12.1417 13.8499 12.1415 13.8442 12.1431 13.8389L12.2031 13.6509L12.0441 13.5349C12.0391 13.5318 12.0353 13.5272 12.0334 13.5216C12.0314 13.5161 12.0313 13.5101 12.0331 13.5046C12.035 13.499 12.0387 13.4943 12.0436 13.4911C12.0484 13.4878 12.0543 13.4864 12.0601 13.4869L12.2561 13.4849L12.3191 13.2989C12.3211 13.2939 12.3246 13.2897 12.3291 13.2867C12.3335 13.2837 12.3387 13.2821 12.3441 13.2821C12.3495 13.2821 12.3547 13.2837 12.3592 13.2867C12.3636 13.2897 12.3671 13.2939 12.3691 13.2989ZM13.1911 7.90888L13.1291 7.72088C13.1211 7.69688 13.0861 7.69688 13.0791 7.72088L13.0161 7.90788L12.8191 7.90988C12.8137 7.90995 12.8084 7.91174 12.804 7.91498C12.7996 7.91823 12.7963 7.92278 12.7947 7.92798C12.793 7.93318 12.793 7.93877 12.7947 7.94395C12.7964 7.94914 12.7997 7.95367 12.8041 7.95688L12.9621 8.07388L12.9021 8.26188C12.9005 8.26721 12.9007 8.2729 12.9024 8.27816C12.9042 8.28342 12.9076 8.28801 12.9121 8.29129C12.9166 8.29457 12.9219 8.29639 12.9275 8.29649C12.9331 8.2966 12.9385 8.29499 12.9431 8.29188L13.1031 8.17688L13.2631 8.29088C13.2677 8.29399 13.2732 8.2956 13.2787 8.29549C13.2843 8.29539 13.2897 8.29357 13.2942 8.29029C13.2986 8.28701 13.302 8.28242 13.3038 8.27716C13.3056 8.2719 13.3057 8.26621 13.3041 8.26088L13.2441 8.07388L13.4041 7.95688C13.4081 7.95329 13.4109 7.94859 13.4122 7.94339C13.4135 7.93819 13.4132 7.93272 13.4114 7.92768C13.4096 7.92264 13.4063 7.91825 13.402 7.91508C13.3976 7.91191 13.3925 7.9101 13.3871 7.90988L13.1911 7.90888ZM13.1291 9.27788L13.1911 9.46488L13.3871 9.46588C13.4131 9.46588 13.4241 9.49888 13.4031 9.51388L13.2451 9.63088L13.3051 9.81788C13.3067 9.82321 13.3066 9.8289 13.3048 9.83416C13.303 9.83942 13.2996 9.84401 13.2952 9.84729C13.2907 9.85057 13.2853 9.85239 13.2797 9.85249C13.2742 9.8526 13.2687 9.85099 13.2641 9.84788L13.1041 9.73288L12.9441 9.84788C12.9395 9.85099 12.9341 9.8526 12.9285 9.85249C12.9229 9.85239 12.9176 9.85057 12.9131 9.84729C12.9086 9.84401 12.9052 9.83942 12.9034 9.83416C12.9017 9.8289 12.9015 9.82321 12.9031 9.81788L12.9621 9.63088L12.8041 9.51388C12.7999 9.51049 12.7968 9.50589 12.7952 9.50069C12.7936 9.4955 12.7936 9.48995 12.7952 9.48476C12.7969 9.47958 12.8 9.475 12.8043 9.47164C12.8085 9.46827 12.8137 9.46626 12.8191 9.46588L13.0161 9.46388L13.0781 9.27788C13.0801 9.27292 13.0836 9.26866 13.0881 9.26567C13.0925 9.26268 13.0977 9.26108 13.1031 9.26108C13.1085 9.26108 13.1137 9.26268 13.1182 9.26567C13.1226 9.26866 13.1271 9.27292 13.1291 9.27788ZM13.1911 11.1909L13.1291 11.0049C13.1276 10.9995 13.1243 10.9947 13.1198 10.9913C13.1153 10.9879 13.1098 10.986 13.1041 10.986C13.0985 10.986 13.093 10.9879 13.0885 10.9913C13.0839 10.9947 13.0807 10.9995 13.0791 11.0049L13.0161 11.1909L12.8191 11.1929C12.8137 11.1933 12.8085 11.1953 12.8043 11.1987C12.8 11.202 12.7969 11.2066 12.7952 11.2118C12.7936 11.217 12.7936 11.2225 12.7952 11.2277C12.7968 11.2329 12.7999 11.2375 12.8041 11.2409L12.9621 11.3579L12.9021 11.5449C12.9005 11.5502 12.9007 11.5559 12.9024 11.5612C12.9042 11.5664 12.9076 11.571 12.9121 11.5743C12.9166 11.5776 12.9219 11.5794 12.9275 11.5795C12.9331 11.5796 12.9385 11.578 12.9431 11.5749L13.1031 11.4599L13.2631 11.5749C13.2841 11.5889 13.3121 11.5689 13.3041 11.5449L13.2441 11.3569L13.4041 11.2409C13.4085 11.2374 13.4116 11.2326 13.4131 11.2272C13.4146 11.2219 13.4145 11.2162 13.4126 11.2109C13.4107 11.2056 13.4073 11.2011 13.4027 11.1978C13.3981 11.1946 13.3927 11.1929 13.3871 11.1929L13.1911 11.1909ZM13.1291 12.5909L13.1911 12.7779L13.3871 12.7799C13.4131 12.7799 13.4241 12.8119 13.4031 12.8269L13.2451 12.9439L13.3051 13.1319C13.3075 13.1373 13.308 13.1434 13.3065 13.1491C13.3049 13.1549 13.3015 13.1599 13.2967 13.1634C13.2919 13.1669 13.2861 13.1687 13.2801 13.1684C13.2742 13.1681 13.2686 13.1658 13.2641 13.1619L13.1041 13.0469L12.9441 13.1609C12.9397 13.1648 12.934 13.1671 12.9281 13.1674C12.9222 13.1677 12.9163 13.1659 12.9115 13.1624C12.9067 13.1589 12.9033 13.1539 12.9018 13.1481C12.9002 13.1424 12.9007 13.1363 12.9031 13.1309L12.9621 12.9439L12.8041 12.8269C12.8002 12.8234 12.7974 12.8189 12.796 12.8139C12.7947 12.8088 12.7948 12.8035 12.7963 12.7985C12.7979 12.7936 12.8009 12.7892 12.805 12.7858C12.809 12.7825 12.8139 12.7805 12.8191 12.7799L13.0161 12.7779L13.0781 12.5909C13.0797 12.5855 13.0829 12.5807 13.0875 12.5773C13.092 12.5739 13.0975 12.572 13.1031 12.572C13.1088 12.572 13.1143 12.5739 13.1188 12.5773C13.1233 12.5807 13.1276 12.5855 13.1291 12.5909ZM13.1911 14.2209L13.1291 14.0339C13.1276 14.0285 13.1243 14.0237 13.1198 14.0203C13.1153 14.0169 13.1098 14.015 13.1041 14.015C13.0985 14.015 13.093 14.0169 13.0885 14.0203C13.0839 14.0237 13.0807 14.0285 13.0791 14.0339L13.0161 14.2209L12.8191 14.2229C12.8139 14.2235 12.809 14.2255 12.805 14.2288C12.8009 14.2322 12.7979 14.2366 12.7963 14.2415C12.7948 14.2465 12.7947 14.2518 12.796 14.2569C12.7974 14.2619 12.8002 14.2664 12.8041 14.2699L12.9621 14.3869L12.9021 14.5749C12.8951 14.5989 12.9221 14.6189 12.9431 14.6049L13.1031 14.4899L13.2631 14.6039C13.2677 14.607 13.2732 14.6086 13.2787 14.6085C13.2843 14.6084 13.2897 14.6066 13.2942 14.6033C13.2986 14.6 13.302 14.5954 13.3038 14.5902C13.3056 14.5849 13.3057 14.5792 13.3041 14.5739L13.2441 14.3869L13.4041 14.2699C13.4081 14.2663 13.4109 14.2616 13.4122 14.2564C13.4135 14.2512 13.4132 14.2457 13.4114 14.2407C13.4096 14.2357 13.4063 14.2313 13.402 14.2281C13.3976 14.2249 13.3925 14.2231 13.3871 14.2229L13.1911 14.2209ZM13.8851 8.45888L13.9481 8.64488L14.1441 8.64688C14.1701 8.64688 14.1801 8.67888 14.1601 8.69488L14.0021 8.81088L14.0611 8.99888C14.0625 9.00407 14.0623 9.00955 14.0605 9.01462C14.0587 9.01968 14.0555 9.02411 14.0512 9.02732C14.0469 9.03054 14.0417 9.03241 14.0364 9.03269C14.031 9.03297 14.0257 9.03164 14.0211 9.02888L13.8611 8.91388L13.7011 9.02788C13.6965 9.03139 13.6909 9.03333 13.6852 9.03342C13.6794 9.03351 13.6737 9.03175 13.669 9.02839C13.6643 9.02504 13.6608 9.02026 13.659 9.01477C13.6573 9.00928 13.6573 9.00336 13.6591 8.99788L13.7191 8.81088L13.5611 8.69488C13.5569 8.69149 13.5538 8.68689 13.5522 8.68169C13.5506 8.6765 13.5506 8.67095 13.5522 8.66576C13.5539 8.66058 13.557 8.656 13.5613 8.65264C13.5655 8.64927 13.5707 8.64726 13.5761 8.64688L13.7731 8.64488L13.8351 8.45888C13.8371 8.45391 13.8406 8.44966 13.8451 8.44667C13.8495 8.44368 13.8547 8.44208 13.8601 8.44208C13.8655 8.44208 13.8707 8.44368 13.8752 8.44667C13.8796 8.44966 13.8831 8.45391 13.8851 8.45888ZM13.9481 10.3709L13.8851 10.1849C13.8831 10.1799 13.8796 10.1757 13.8752 10.1727C13.8707 10.1697 13.8655 10.1681 13.8601 10.1681C13.8547 10.1681 13.8495 10.1697 13.8451 10.1727C13.8406 10.1757 13.8371 10.1799 13.8351 10.1849L13.7731 10.3709L13.5761 10.3729C13.5707 10.3733 13.5655 10.3753 13.5613 10.3787C13.557 10.382 13.5539 10.3866 13.5522 10.3918C13.5506 10.397 13.5506 10.4025 13.5522 10.4077C13.5538 10.4129 13.5569 10.4175 13.5611 10.4209L13.7191 10.5379L13.6591 10.7249C13.6567 10.7303 13.6562 10.7364 13.6578 10.7421C13.6593 10.7479 13.6627 10.7529 13.6675 10.7564C13.6723 10.7599 13.6782 10.7617 13.6841 10.7614C13.69 10.7611 13.6957 10.7588 13.7001 10.7549L13.8601 10.6399L14.0201 10.7549C14.0246 10.7588 14.0302 10.7611 14.0361 10.7614C14.0421 10.7617 14.0479 10.7599 14.0527 10.7564C14.0575 10.7529 14.0609 10.7479 14.0625 10.7421C14.064 10.7364 14.0635 10.7303 14.0611 10.7249L14.0011 10.5379L14.1601 10.4209C14.1644 10.4174 14.1675 10.4128 14.1691 10.4075C14.1706 10.4022 14.1705 10.3966 14.1688 10.3913C14.167 10.3861 14.1637 10.3816 14.1593 10.3783C14.1549 10.375 14.1496 10.3731 14.1441 10.3729L13.9481 10.3709ZM13.8851 11.8249L13.9481 12.0119L14.1441 12.0129C14.1701 12.0129 14.1801 12.0459 14.1601 12.0609L14.0021 12.1779L14.0611 12.3659C14.0625 12.3711 14.0623 12.3766 14.0605 12.3816C14.0587 12.3867 14.0555 12.3911 14.0512 12.3943C14.0469 12.3976 14.0417 12.3994 14.0364 12.3997C14.031 12.4 14.0257 12.3987 14.0211 12.3959L13.8611 12.2809L13.7011 12.3949C13.6965 12.3984 13.6909 12.4003 13.6852 12.4004C13.6794 12.4005 13.6737 12.3988 13.669 12.3954C13.6643 12.3921 13.6608 12.3873 13.659 12.3818C13.6573 12.3763 13.6573 12.3704 13.6591 12.3649L13.7191 12.1779L13.5611 12.0609C13.5562 12.0579 13.5525 12.0533 13.5505 12.0479C13.5485 12.0425 13.5484 12.0366 13.5501 12.0311C13.5518 12.0256 13.5553 12.0209 13.56 12.0176C13.5647 12.0143 13.5704 12.0126 13.5761 12.0129L13.7731 12.0119L13.8351 11.8249C13.8371 11.8199 13.8406 11.8157 13.8451 11.8127C13.8495 11.8097 13.8547 11.8081 13.8601 11.8081C13.8655 11.8081 13.8707 11.8097 13.8752 11.8127C13.8796 11.8157 13.8831 11.8199 13.8851 11.8249ZM13.9481 13.4849L13.8851 13.2989C13.8831 13.2939 13.8796 13.2897 13.8752 13.2867C13.8707 13.2837 13.8655 13.2821 13.8601 13.2821C13.8547 13.2821 13.8495 13.2837 13.8451 13.2867C13.8406 13.2897 13.8371 13.2939 13.8351 13.2989L13.7731 13.4849L13.5761 13.4869C13.5704 13.4866 13.5647 13.4883 13.56 13.4916C13.5553 13.4949 13.5518 13.4996 13.5501 13.5051C13.5484 13.5106 13.5485 13.5165 13.5505 13.5219C13.5525 13.5273 13.5562 13.5319 13.5611 13.5349L13.7191 13.6519L13.6591 13.8389C13.6521 13.8629 13.6791 13.8829 13.7001 13.8689L13.8601 13.7539L14.0201 13.8689C14.0411 13.8829 14.0691 13.8629 14.0611 13.8389L14.0011 13.6509L14.1601 13.5349C14.1651 13.5318 14.1689 13.5272 14.1709 13.5216C14.1729 13.5161 14.1729 13.5101 14.1711 13.5046C14.1692 13.499 14.1656 13.4943 14.1607 13.4911C14.1558 13.4878 14.1499 13.4864 14.1441 13.4869L13.9481 13.4849ZM14.6431 7.72088L14.7061 7.90788L14.9021 7.90988C14.9281 7.90988 14.9381 7.94188 14.9181 7.95688L14.7591 8.07388L14.8191 8.26188C14.8211 8.26716 14.8214 8.27295 14.8198 8.27838C14.8182 8.28381 14.8149 8.28858 14.8104 8.29197C14.8059 8.29536 14.8004 8.29719 14.7948 8.29717C14.7891 8.29715 14.7836 8.2953 14.7791 8.29188L14.6191 8.17688L14.4591 8.29088C14.4545 8.29439 14.4489 8.29633 14.4432 8.29642C14.4374 8.29651 14.4317 8.29475 14.427 8.29139C14.4223 8.28804 14.4188 8.28326 14.4171 8.27777C14.4153 8.27228 14.4153 8.26636 14.4171 8.26088L14.4771 8.07388L14.3181 7.95688C14.3136 7.95362 14.3103 7.949 14.3086 7.94371C14.307 7.93843 14.307 7.93274 14.3088 7.9275C14.3106 7.92225 14.314 7.91771 14.3186 7.91454C14.3231 7.91137 14.3286 7.90974 14.3341 7.90988L14.5311 7.90788L14.5931 7.72088C14.6011 7.69688 14.6351 7.69688 14.6431 7.72088ZM14.7061 9.46488L14.6431 9.27788C14.6351 9.25388 14.6011 9.25388 14.5931 9.27788L14.5311 9.46488L14.3341 9.46588C14.3286 9.46608 14.3233 9.46795 14.3189 9.47124C14.3145 9.47454 14.3112 9.47911 14.3094 9.48433C14.3077 9.48955 14.3076 9.49518 14.3092 9.50046C14.3107 9.50574 14.3138 9.51043 14.3181 9.51388L14.4771 9.63088L14.4171 9.81788C14.4155 9.82321 14.4157 9.8289 14.4174 9.83416C14.4192 9.83942 14.4226 9.84401 14.4271 9.84729C14.4316 9.85057 14.4369 9.85239 14.4425 9.85249C14.4481 9.8526 14.4535 9.85099 14.4581 9.84788L14.6181 9.73288L14.7781 9.84788C14.7826 9.8513 14.7881 9.85315 14.7938 9.85317C14.7994 9.85319 14.8049 9.85136 14.8094 9.84797C14.8139 9.84458 14.8172 9.83981 14.8188 9.83438C14.8204 9.82895 14.8201 9.82316 14.8181 9.81788L14.7591 9.63088L14.9181 9.51388C14.9224 9.51043 14.9255 9.50574 14.9271 9.50046C14.9286 9.49518 14.9285 9.48955 14.9268 9.48433C14.925 9.47911 14.9217 9.47454 14.9173 9.47124C14.9129 9.46795 14.9076 9.46608 14.9021 9.46588L14.7061 9.46488ZM14.6431 11.0049L14.7061 11.1909L14.9021 11.1929C14.9281 11.1929 14.9381 11.2259 14.9181 11.2409L14.7591 11.3579L14.8191 11.5449C14.8211 11.5502 14.8214 11.556 14.8198 11.5614C14.8182 11.5668 14.8149 11.5716 14.8104 11.575C14.8059 11.5784 14.8004 11.5802 14.7948 11.5802C14.7891 11.5802 14.7836 11.5783 14.7791 11.5749L14.6191 11.4599L14.4591 11.5749C14.4545 11.5784 14.4489 11.5803 14.4432 11.5804C14.4374 11.5805 14.4317 11.5788 14.427 11.5754C14.4223 11.5721 14.4188 11.5673 14.4171 11.5618C14.4153 11.5563 14.4153 11.5504 14.4171 11.5449L14.4771 11.3569L14.3181 11.2409C14.3138 11.2374 14.3107 11.2328 14.3092 11.2275C14.3076 11.2222 14.3077 11.2166 14.3094 11.2113C14.3112 11.2061 14.3145 11.2016 14.3189 11.1983C14.3233 11.195 14.3286 11.1931 14.3341 11.1929L14.5311 11.1909L14.5931 11.0049C14.6011 10.9799 14.6351 10.9799 14.6431 11.0049ZM14.7061 12.7779L14.6431 12.5909C14.6351 12.5669 14.6011 12.5669 14.5931 12.5909L14.5311 12.7779L14.3341 12.7799C14.3288 12.7803 14.3238 12.7822 14.3196 12.7855C14.3154 12.7887 14.3123 12.7931 14.3106 12.7981C14.3089 12.8031 14.3087 12.8085 14.31 12.8136C14.3114 12.8188 14.3142 12.8234 14.3181 12.8269L14.4771 12.9439L14.4171 13.1319C14.4147 13.1373 14.4142 13.1434 14.4158 13.1491C14.4173 13.1549 14.4207 13.1599 14.4255 13.1634C14.4303 13.1669 14.4362 13.1687 14.4421 13.1684C14.448 13.1681 14.4537 13.1658 14.4581 13.1619L14.6181 13.0469L14.7781 13.1609C14.7826 13.1643 14.7881 13.1662 14.7938 13.1662C14.7994 13.1662 14.8049 13.1644 14.8094 13.161C14.8139 13.1576 14.8172 13.1528 14.8188 13.1474C14.8204 13.142 14.8201 13.1362 14.8181 13.1309L14.7591 12.9439L14.9181 12.8269C14.922 12.8234 14.9249 12.8188 14.9262 12.8136C14.9275 12.8085 14.9273 12.8031 14.9256 12.7981C14.9239 12.7931 14.9208 12.7887 14.9166 12.7855C14.9124 12.7822 14.9074 12.7803 14.9021 12.7799L14.7061 12.7779ZM14.6431 14.0339L14.7061 14.2209L14.9021 14.2229C14.9281 14.2229 14.9381 14.2549 14.9181 14.2699L14.7591 14.3869L14.8191 14.5749C14.8211 14.5802 14.8214 14.586 14.8198 14.5914C14.8182 14.5968 14.8149 14.6016 14.8104 14.605C14.8059 14.6084 14.8004 14.6102 14.7948 14.6102C14.7891 14.6102 14.7836 14.6083 14.7791 14.6049L14.6191 14.4899L14.4591 14.6039C14.4545 14.6074 14.4489 14.6093 14.4432 14.6094C14.4374 14.6095 14.4317 14.6078 14.427 14.6044C14.4223 14.6011 14.4188 14.5963 14.4171 14.5908C14.4153 14.5853 14.4153 14.5794 14.4171 14.5739L14.4771 14.3869L14.3181 14.2699C14.3142 14.2664 14.3114 14.2618 14.31 14.2566C14.3087 14.2515 14.3089 14.2461 14.3106 14.2411C14.3123 14.2361 14.3154 14.2317 14.3196 14.2285C14.3238 14.2252 14.3288 14.2233 14.3341 14.2229L14.5311 14.2209L14.5931 14.0339C14.6011 14.0099 14.6351 14.0099 14.6431 14.0339ZM15.4611 8.64488L15.4001 8.45988C15.3981 8.45492 15.3946 8.45066 15.3902 8.44767C15.3857 8.44468 15.3805 8.44308 15.3751 8.44308C15.3697 8.44308 15.3645 8.44468 15.3601 8.44767C15.3556 8.45066 15.3521 8.45492 15.3501 8.45988L15.2871 8.64588L15.0911 8.64788C15.0856 8.64808 15.0803 8.64995 15.0759 8.65324C15.0715 8.65654 15.0682 8.66111 15.0664 8.66633C15.0647 8.67155 15.0646 8.67718 15.0662 8.68246C15.0677 8.68774 15.0708 8.69243 15.0751 8.69588L15.2341 8.81188L15.1741 8.99988C15.1728 9.00507 15.173 9.01055 15.1747 9.01562C15.1765 9.02068 15.1797 9.02511 15.184 9.02832C15.1883 9.03154 15.1935 9.03341 15.1988 9.03369C15.2042 9.03397 15.2095 9.03264 15.2141 9.02988L15.3751 8.91488L15.5351 9.02888C15.5397 9.03164 15.545 9.03297 15.5504 9.03269C15.5557 9.03241 15.5609 9.03054 15.5652 9.02732C15.5695 9.02411 15.5727 9.01968 15.5745 9.01462C15.5763 9.00955 15.5765 9.00407 15.5751 8.99888L15.5161 8.81188L15.6751 8.69588C15.6801 8.6928 15.6839 8.68813 15.6859 8.68263C15.6879 8.67712 15.6879 8.67111 15.6861 8.66556C15.6842 8.66001 15.6806 8.65524 15.6757 8.65203C15.6708 8.64883 15.6649 8.64736 15.6591 8.64788L15.4621 8.64588L15.4611 8.64488ZM15.3991 10.1849L15.4611 10.3709L15.6581 10.3729C15.6841 10.3729 15.6941 10.4059 15.6741 10.4209L15.5151 10.5379L15.5751 10.7249C15.5775 10.7303 15.578 10.7364 15.5765 10.7421C15.5749 10.7479 15.5715 10.7529 15.5667 10.7564C15.5619 10.7599 15.5561 10.7617 15.5501 10.7614C15.5442 10.7611 15.5386 10.7588 15.5341 10.7549L15.3741 10.6399L15.2141 10.7549C15.2096 10.7583 15.2041 10.7602 15.1985 10.7602C15.1928 10.7602 15.1873 10.7584 15.1828 10.755C15.1783 10.7516 15.175 10.7468 15.1734 10.7414C15.1719 10.736 15.1721 10.7302 15.1741 10.7249L15.2331 10.5379L15.0741 10.4209C15.0698 10.4174 15.0667 10.4128 15.0652 10.4075C15.0636 10.4022 15.0637 10.3966 15.0654 10.3913C15.0672 10.3861 15.0705 10.3816 15.0749 10.3783C15.0793 10.375 15.0846 10.3731 15.0901 10.3729L15.2871 10.3709L15.3491 10.1849C15.3511 10.1799 15.3546 10.1757 15.3591 10.1727C15.3635 10.1697 15.3687 10.1681 15.3741 10.1681C15.3795 10.1681 15.3847 10.1697 15.3892 10.1727C15.3936 10.1757 15.3971 10.1799 15.3991 10.1849ZM15.4611 12.0119L15.3991 11.8249C15.3971 11.8199 15.3936 11.8157 15.3892 11.8127C15.3847 11.8097 15.3795 11.8081 15.3741 11.8081C15.3687 11.8081 15.3635 11.8097 15.3591 11.8127C15.3546 11.8157 15.3511 11.8199 15.3491 11.8249L15.2861 12.0119L15.0901 12.0129C15.0843 12.0124 15.0785 12.0138 15.0736 12.0171C15.0687 12.0203 15.065 12.025 15.0631 12.0306C15.0613 12.0361 15.0614 12.0421 15.0634 12.0476C15.0653 12.0532 15.0691 12.0578 15.0741 12.0609L15.2331 12.1779L15.1731 12.3659C15.1718 12.3711 15.172 12.3766 15.1737 12.3816C15.1755 12.3867 15.1787 12.3911 15.183 12.3943C15.1873 12.3976 15.1925 12.3994 15.1978 12.3997C15.2032 12.4 15.2085 12.3987 15.2131 12.3959L15.3741 12.2809L15.5341 12.3949C15.5387 12.3977 15.544 12.399 15.5494 12.3987C15.5547 12.3984 15.5599 12.3966 15.5642 12.3933C15.5685 12.3901 15.5717 12.3857 15.5735 12.3806C15.5753 12.3756 15.5755 12.3701 15.5741 12.3649L15.5151 12.1779L15.6741 12.0609C15.6791 12.0578 15.6829 12.0532 15.6849 12.0476C15.6869 12.0421 15.6869 12.0361 15.6851 12.0306C15.6832 12.025 15.6796 12.0203 15.6747 12.0171C15.6698 12.0138 15.6639 12.0124 15.6581 12.0129L15.4611 12.0119ZM15.3991 13.2989L15.4611 13.4849L15.6581 13.4869C15.6841 13.4869 15.6941 13.5199 15.6741 13.5349L15.5151 13.6519L15.5751 13.8389C15.5821 13.8629 15.5551 13.8829 15.5341 13.8689L15.3741 13.7539L15.2141 13.8689C15.1941 13.8829 15.1651 13.8629 15.1741 13.8389L15.2331 13.6509L15.0741 13.5349C15.0691 13.5318 15.0653 13.5272 15.0634 13.5216C15.0614 13.5161 15.0613 13.5101 15.0631 13.5046C15.065 13.499 15.0687 13.4943 15.0736 13.4911C15.0785 13.4878 15.0843 13.4864 15.0901 13.4869L15.2871 13.4849L15.3491 13.2989C15.3511 13.2939 15.3546 13.2897 15.3591 13.2867C15.3635 13.2837 15.3687 13.2821 15.3741 13.2821C15.3795 13.2821 15.3847 13.2837 15.3892 13.2867C15.3936 13.2897 15.3971 13.2939 15.3991 13.2989ZM16.2201 7.90888L16.1581 7.72088C16.1501 7.69688 16.1161 7.69688 16.1081 7.72088L16.0451 7.90788L15.8491 7.90988C15.8436 7.90974 15.8381 7.91137 15.8336 7.91454C15.829 7.91771 15.8256 7.92225 15.8238 7.9275C15.822 7.93274 15.822 7.93843 15.8236 7.94371C15.8253 7.949 15.8286 7.95362 15.8331 7.95688L15.9911 8.07388L15.9321 8.26188C15.9308 8.26707 15.931 8.27255 15.9327 8.27762C15.9345 8.28268 15.9377 8.28711 15.942 8.29032C15.9463 8.29354 15.9515 8.29541 15.9568 8.29569C15.9622 8.29597 15.9675 8.29464 15.9721 8.29188L16.1321 8.17688L16.2921 8.29088C16.2967 8.29399 16.3022 8.2956 16.3077 8.29549C16.3133 8.29539 16.3187 8.29357 16.3232 8.29029C16.3276 8.28701 16.331 8.28242 16.3328 8.27716C16.3346 8.2719 16.3347 8.26621 16.3331 8.26088L16.2741 8.07388L16.4321 7.95688C16.4365 7.95367 16.4398 7.94914 16.4415 7.94395C16.4432 7.93877 16.4432 7.93318 16.4416 7.92798C16.4399 7.92278 16.4366 7.91823 16.4323 7.91498C16.4279 7.91174 16.4226 7.90995 16.4171 7.90988L16.2201 7.90888ZM16.1581 9.27788L16.2201 9.46488L16.4171 9.46588C16.4421 9.46588 16.4531 9.49888 16.4321 9.51388L16.2741 9.63088L16.3341 9.81788C16.3357 9.82321 16.3356 9.8289 16.3338 9.83416C16.332 9.83942 16.3286 9.84401 16.3242 9.84729C16.3197 9.85057 16.3143 9.85239 16.3087 9.85249C16.3032 9.8526 16.2977 9.85099 16.2931 9.84788L16.1331 9.73288L15.9731 9.84788C15.9685 9.85099 15.9631 9.8526 15.9575 9.85249C15.9519 9.85239 15.9466 9.85057 15.9421 9.84729C15.9376 9.84401 15.9342 9.83942 15.9324 9.83416C15.9307 9.8289 15.9305 9.82321 15.9321 9.81788L15.9921 9.63088L15.8331 9.51388C15.8281 9.5108 15.8243 9.50613 15.8224 9.50063C15.8204 9.49512 15.8203 9.48911 15.8221 9.48356C15.824 9.47801 15.8277 9.47324 15.8326 9.47003C15.8374 9.46683 15.8433 9.46536 15.8491 9.46588L16.0451 9.46488L16.1081 9.27788C16.1161 9.25388 16.1501 9.25388 16.1581 9.27788ZM16.2201 11.1909L16.1581 11.0049C16.1501 10.9799 16.1161 10.9799 16.1081 11.0049L16.0451 11.1909L15.8491 11.1929C15.8436 11.1931 15.8383 11.195 15.8339 11.1983C15.8295 11.2016 15.8262 11.2061 15.8244 11.2113C15.8227 11.2166 15.8226 11.2222 15.8242 11.2275C15.8257 11.2328 15.8288 11.2374 15.8331 11.2409L15.9911 11.3579L15.9321 11.5449C15.9308 11.5501 15.931 11.5556 15.9327 11.5606C15.9345 11.5657 15.9377 11.5701 15.942 11.5733C15.9463 11.5766 15.9515 11.5784 15.9568 11.5787C15.9622 11.579 15.9675 11.5777 15.9721 11.5749L16.1321 11.4599L16.2921 11.5749C16.2967 11.578 16.3022 11.5796 16.3077 11.5795C16.3133 11.5794 16.3187 11.5776 16.3232 11.5743C16.3276 11.571 16.331 11.5664 16.3328 11.5612C16.3346 11.5559 16.3347 11.5502 16.3331 11.5449L16.2741 11.3569L16.4321 11.2409C16.4364 11.2375 16.4395 11.2329 16.4411 11.2277C16.4426 11.2225 16.4426 11.217 16.441 11.2118C16.4394 11.2066 16.4362 11.202 16.432 11.1987C16.4277 11.1953 16.4225 11.1933 16.4171 11.1929L16.2201 11.1909ZM16.1581 12.5909L16.2201 12.7779L16.4171 12.7799C16.4421 12.7799 16.4531 12.8119 16.4321 12.8269L16.2741 12.9439L16.3341 13.1319C16.3365 13.1373 16.337 13.1434 16.3355 13.1491C16.3339 13.1549 16.3305 13.1599 16.3257 13.1634C16.3209 13.1669 16.3151 13.1687 16.3091 13.1684C16.3032 13.1681 16.2976 13.1658 16.2931 13.1619L16.1331 13.0469L15.9731 13.1609C15.9687 13.1648 15.963 13.1671 15.9571 13.1674C15.9512 13.1677 15.9453 13.1659 15.9405 13.1624C15.9357 13.1589 15.9323 13.1539 15.9308 13.1481C15.9292 13.1424 15.9297 13.1363 15.9321 13.1309L15.9921 12.9439L15.8331 12.8269C15.8292 12.8234 15.8264 12.8188 15.825 12.8136C15.8237 12.8085 15.8239 12.8031 15.8256 12.7981C15.8273 12.7931 15.8304 12.7887 15.8346 12.7855C15.8388 12.7822 15.8438 12.7803 15.8491 12.7799L16.0451 12.7779L16.1081 12.5909C16.1161 12.5669 16.1501 12.5669 16.1581 12.5909ZM16.2201 14.2209L16.1581 14.0339C16.1501 14.0099 16.1161 14.0099 16.1081 14.0339L16.0451 14.2209L15.8491 14.2229C15.8438 14.2233 15.8388 14.2252 15.8346 14.2285C15.8304 14.2317 15.8273 14.2361 15.8256 14.2411C15.8239 14.2461 15.8237 14.2515 15.825 14.2566C15.8264 14.2618 15.8292 14.2664 15.8331 14.2699L15.9911 14.3869L15.9321 14.5749C15.9241 14.5989 15.9521 14.6189 15.9721 14.6049L16.1321 14.4899L16.2921 14.6039C16.3131 14.6189 16.3421 14.5989 16.3331 14.5739L16.2741 14.3869L16.4321 14.2699C16.436 14.2664 16.4388 14.2619 16.4402 14.2569C16.4416 14.2518 16.4415 14.2465 16.4399 14.2415C16.4383 14.2366 16.4353 14.2322 16.4313 14.2288C16.4272 14.2255 16.4223 14.2235 16.4171 14.2229L16.2201 14.2209Z" fill="#F5F5F5"/>
</g>
</g>
<defs>
<clipPath id="clip0_443_597">
<rect width="24" height="24" fill="white"/>
</clipPath>
</defs>
</svg>
