<svg width="24" height="24" viewBox="0 0 24 24" fill="none" xmlns="http://www.w3.org/2000/svg">
<g clip-path="url(#clip0_443_600)">
<mask id="mask0_443_600" style="mask-type:luminance" maskUnits="userSpaceOnUse" x="0" y="0" width="24" height="24">
<path d="M24 0H0V24H24V0Z" fill="white"/>
</mask>
<g mask="url(#mask0_443_600)">
<path d="M11.719 17H3.28C2.41 16.9997 1.57572 16.6539 0.960629 16.0387C0.345538 15.4234 -4.0409e-08 14.589 0 13.719V5.28C0.000265164 4.41 0.346058 3.57572 0.961336 2.96063C1.57661 2.34554 2.411 2 3.281 2H11.719C12.5892 2 13.4237 2.34568 14.039 2.96098C14.6543 3.57629 15 4.41082 15 5.281V13.719C15 14.5892 14.6543 15.4237 14.039 16.039C13.4237 16.6543 12.5892 17 11.719 17Z" fill="#2841C1"/>
<path fill-rule="evenodd" clip-rule="evenodd" d="M2.4061e-08 5.393V6.002L2.327 7.526H2.4061e-08V8.316H6.316V2H5.526V6.791L0.52 3.511C0.325 3.813 0.179 4.151 0.092 4.511L2.4061e-08 5.393ZM0.519 15.49C0.400251 15.3052 0.300414 15.1088 0.221 14.904L0.021 14.092C0.00699613 13.9682 -1.49895e-05 13.8436 2.4061e-08 13.719V12.999L2.327 11.474H2.4061e-08V10.684H6.316V17H5.526V12.21L0.52 15.489L0.519 15.49ZM14.999 12.998V13.718L14.884 14.585C14.7965 14.9054 14.6606 15.2106 14.481 15.49L9.473 12.209V17H8.683V10.684H15V11.474H12.674L15 12.998H14.999ZM14.481 3.51C14.597 3.69 14.695 3.883 14.774 4.085L14.977 4.895C14.991 5.022 14.999 5.151 14.999 5.281V6.001L12.673 7.526H14.999V8.316H8.684V2H9.474V6.791L14.481 3.51Z" fill="#F6F6F6"/>
<path fill-rule="evenodd" clip-rule="evenodd" d="M8.68402 2H6.31602V8.316H2.34374e-05V10.684H6.31602V17H8.68402V10.684H15V8.316H8.68402V2ZM4.05402 11.474L0.0220234 14.092C0.0550234 14.375 0.122024 14.647 0.222024 14.904L5.50602 11.474H4.05602H4.05402ZM14.884 14.584L10.092 11.474H11.542L15 13.719C15 14.019 14.96 14.309 14.884 14.585V14.584ZM4.73702 7.527L0.0900234 4.511C0.0300234 4.758 -0.000976562 5.016 -0.000976562 5.281V5.393L3.28602 7.526H4.73602L4.73702 7.527ZM14.978 4.897L10.925 7.527H9.47502L14.776 4.087C14.876 4.342 14.945 4.614 14.978 4.897Z" fill="#FB4B4E"/>
<path fill-rule="evenodd" clip-rule="evenodd" d="M13.736 7H12.281C11.4108 7 10.5763 7.34568 9.96098 7.96098C9.34568 8.57629 9 9.41082 9 10.281V18.72C9.00027 19.59 9.34606 20.4243 9.96134 21.0394C10.5766 21.6545 11.411 22 12.281 22H20.719C21.5892 22 22.4237 21.6543 23.039 21.039C23.6543 20.4237 24 19.5892 24 18.719V10.28C23.9997 9.41 23.6539 8.57572 23.0387 7.96063C22.4234 7.34554 21.589 7 20.719 7H13.736Z" fill="#2841C1"/>
<path fill-rule="evenodd" clip-rule="evenodd" d="M16.5 9.763V10.158H13.342V7H13.736V9.396L16.5 7.586V7.97L13.736 9.763H14.462L16.5 8.44V9.001L15.336 9.763H16.5ZM12.157 7.003C12.0247 7.00772 11.8928 7.02041 11.762 7.041V9.396L9.813 8.119C9.69561 8.25284 9.58926 8.39597 9.495 8.547L11.368 9.763H10.643L9.306 8.895C9.26949 8.97364 9.23613 9.0537 9.206 9.135L10.163 9.763H9.04C9.02 9.893 9.007 10.024 9.002 10.158H12.157V7.003ZM12.157 14.5H11.763V12.104L9 13.914V13.524L11.752 11.737H11.027L9 13.053V12.499L10.163 11.737H9V11.342H12.158V14.5H12.157ZM13.737 14.5H13.342V11.342H16.5V11.737H15.336L16.5 12.499V12.859L14.77 11.737H14.046L16.5 13.33V13.915L13.736 12.105V14.5H13.737Z" fill="#F6F6F6"/>
<path fill-rule="evenodd" clip-rule="evenodd" d="M12.158 14.5H13.342V11.342H16.5V10.158H13.342V7H12.282C12.24 7 12.199 7.001 12.158 7.003V10.158H9.003C9.00125 10.1986 9.00025 10.2393 9 10.28V11.341H12.158V14.5ZM11.028 11.737L9 13.053V13.523L11.752 11.737H11.028ZM16.499 13.33L14.045 11.737H14.77L16.5 12.859V13.329L16.499 13.33ZM11.367 9.763L9.494 8.547C9.424 8.659 9.361 8.775 9.304 8.895L10.642 9.763H11.367ZM16.5 8.44L14.46 9.763H13.735L16.5 7.97V8.441V8.44Z" fill="#FF4B55"/>
<path d="M19.59 19.9271C19.5792 19.9269 19.5687 19.9234 19.56 19.9171L19.254 19.6981L18.948 19.9181C18.9391 19.9242 18.9286 19.9273 18.9178 19.9271C18.9071 19.927 18.8967 19.9234 18.888 19.9171C18.8789 19.9108 18.8721 19.9018 18.8685 19.8914C18.8649 19.8809 18.8648 19.8696 18.868 19.8591L18.982 19.5011L18.679 19.2771C18.6706 19.2705 18.6644 19.2616 18.6612 19.2514C18.6581 19.2412 18.6582 19.2303 18.6614 19.2201C18.6647 19.2099 18.671 19.201 18.6795 19.1946C18.6881 19.1882 18.6983 19.1845 18.709 19.1841L19.086 19.1811L19.205 18.8241C19.2085 18.8139 19.2151 18.8051 19.2239 18.7988C19.2327 18.7925 19.2432 18.7891 19.254 18.7891C19.276 18.7891 19.296 18.8031 19.303 18.8241L19.422 19.1811L19.798 19.1841C19.8087 19.1845 19.8189 19.1882 19.8274 19.1946C19.836 19.201 19.8423 19.2099 19.8455 19.2201C19.8488 19.2303 19.8489 19.2412 19.8458 19.2514C19.8426 19.2616 19.8364 19.2705 19.828 19.2771L19.526 19.5011L19.639 19.8591C19.6415 19.8669 19.6422 19.8751 19.6409 19.8832C19.6396 19.8912 19.6365 19.8989 19.6317 19.9055C19.6269 19.9121 19.6207 19.9175 19.6134 19.9213C19.6062 19.925 19.5982 19.927 19.59 19.9271Z" fill="#FF4B55"/>
<path d="M19.2531 18.8401L19.3831 19.2321L19.7971 19.2351L19.4641 19.4811L19.5891 19.8751L19.2531 19.6351L18.9171 19.8751L19.0411 19.4811L18.7091 19.2351L19.1221 19.2321L19.2531 18.8401ZM19.2531 18.7371C19.2315 18.7372 19.2105 18.7439 19.1929 18.7565C19.1754 18.769 19.1622 18.7867 19.1551 18.8071L19.0471 19.1291L18.7081 19.1321C18.6862 19.132 18.6649 19.1389 18.6472 19.1518C18.6295 19.1646 18.6163 19.1828 18.6096 19.2036C18.603 19.2245 18.6031 19.2469 18.61 19.2677C18.6169 19.2884 18.6303 19.3064 18.6481 19.3191L18.9201 19.5201L18.8181 19.8431C18.811 19.8639 18.8107 19.8865 18.8173 19.9075C18.8239 19.9285 18.837 19.9468 18.8548 19.9597C18.8726 19.9727 18.8941 19.9796 18.9161 19.9795C18.9381 19.9794 18.9595 19.9723 18.9771 19.9591L19.2531 19.7621L19.5291 19.9591C19.5466 19.9716 19.5676 19.9784 19.5891 19.9784C19.6106 19.9784 19.6316 19.9716 19.6491 19.9591C19.6672 19.9465 19.6807 19.9284 19.6877 19.9075C19.6947 19.8866 19.6949 19.8641 19.6881 19.8431L19.5851 19.5201L19.8581 19.3191C19.876 19.3064 19.8893 19.2884 19.8962 19.2677C19.9031 19.2469 19.9033 19.2245 19.8966 19.2036C19.8899 19.1828 19.8767 19.1646 19.859 19.1518C19.8413 19.1389 19.82 19.132 19.7981 19.1321L19.4581 19.1291L19.3511 18.8071C19.3441 18.7867 19.3308 18.769 19.3133 18.7565C19.2957 18.7439 19.2747 18.7372 19.2531 18.7371Z" fill="#F5F5F5"/>
<path d="M19.59 14.8399C19.5792 14.8398 19.5687 14.8363 19.56 14.8299L19.254 14.6119L18.948 14.8309C18.9391 14.8373 18.9284 14.8408 18.9175 14.8408C18.9065 14.8408 18.8959 14.8373 18.887 14.8309C18.8781 14.8244 18.8715 14.8154 18.8681 14.805C18.8647 14.7945 18.8647 14.7833 18.868 14.7729L18.982 14.4139L18.679 14.1909C18.6706 14.1843 18.6644 14.1754 18.6612 14.1652C18.6581 14.155 18.6582 14.144 18.6614 14.1339C18.6647 14.1237 18.671 14.1148 18.6795 14.1084C18.6881 14.102 18.6983 14.0983 18.709 14.0979L19.086 14.0939L19.205 13.7379C19.2084 13.7275 19.2149 13.7184 19.2237 13.712C19.2325 13.7055 19.2431 13.702 19.254 13.7019C19.276 13.7019 19.296 13.7159 19.303 13.7379L19.422 14.0939L19.798 14.0969C19.82 14.0969 19.84 14.1119 19.847 14.1329C19.8503 14.1433 19.8503 14.1546 19.8469 14.165C19.8435 14.1754 19.8369 14.1845 19.828 14.1909L19.526 14.4139L19.639 14.7729C19.6413 14.7806 19.6418 14.7887 19.6405 14.7967C19.6391 14.8046 19.6359 14.8121 19.6312 14.8186C19.6264 14.8251 19.6202 14.8304 19.6131 14.8341C19.6059 14.8378 19.598 14.8398 19.59 14.8399Z" fill="#FF4B55"/>
<path d="M19.2531 13.7539L19.3831 14.1459L19.7971 14.1489L19.4641 14.3939L19.5891 14.7879L19.2531 14.5479L18.9171 14.7879L19.0411 14.3939L18.7091 14.1489L19.1221 14.1459L19.2531 13.7539ZM19.2531 13.6499C19.2315 13.65 19.2105 13.6567 19.1929 13.6693C19.1754 13.6818 19.1622 13.6995 19.1551 13.7199L19.0471 14.0429L18.7081 14.0449C18.6862 14.0448 18.6649 14.0517 18.6472 14.0646C18.6295 14.0774 18.6163 14.0956 18.6096 14.1164C18.603 14.1373 18.6031 14.1597 18.61 14.1805C18.6169 14.2012 18.6303 14.2192 18.6481 14.2319L18.9201 14.4339L18.8181 14.7569C18.8113 14.7777 18.8113 14.8 18.818 14.8208C18.8247 14.8416 18.8379 14.8597 18.8556 14.8725C18.8733 14.8853 18.8946 14.8921 18.9165 14.892C18.9383 14.8919 18.9595 14.8849 18.9771 14.8719L19.2531 14.6749L19.5291 14.8719C19.5468 14.8842 19.5679 14.8907 19.5894 14.8905C19.611 14.8902 19.6319 14.8833 19.6493 14.8707C19.6668 14.8581 19.6799 14.8404 19.6868 14.82C19.6938 14.7996 19.6942 14.7776 19.6881 14.7569L19.5851 14.4339L19.8581 14.2319C19.876 14.2192 19.8893 14.2012 19.8962 14.1805C19.9031 14.1597 19.9033 14.1373 19.8966 14.1164C19.8899 14.0956 19.8767 14.0774 19.859 14.0646C19.8413 14.0517 19.82 14.0448 19.7981 14.0449L19.4581 14.0429L19.3511 13.7209C19.3441 13.7005 19.3308 13.6828 19.3133 13.6703C19.2957 13.6577 19.2747 13.651 19.2531 13.6509V13.6499Z" fill="#F5F5F5"/>
<path d="M21.4 16.7479C21.3892 16.7478 21.3787 16.7443 21.37 16.7379L21.064 16.5199L20.758 16.7389C20.7492 16.7451 20.7387 16.7484 20.728 16.7484C20.7173 16.7484 20.7068 16.7451 20.698 16.7389C20.6889 16.7326 20.6821 16.7236 20.6785 16.7132C20.6749 16.7027 20.6747 16.6914 20.678 16.6809L20.792 16.3219L20.49 16.0989C20.4811 16.0925 20.4745 16.0834 20.4711 16.073C20.4677 16.0626 20.4676 16.0513 20.471 16.0409C20.4744 16.0304 20.4811 16.0212 20.4901 16.0147C20.4991 16.0082 20.5099 16.0048 20.521 16.0049L20.896 16.0029L21.016 15.6459C21.0196 15.6358 21.0262 15.627 21.035 15.6208C21.0438 15.6146 21.0543 15.6113 21.065 15.6113C21.0757 15.6113 21.0862 15.6146 21.095 15.6208C21.1038 15.627 21.1104 15.6358 21.114 15.6459L21.233 16.0029L21.609 16.0049C21.6199 16.005 21.6305 16.0086 21.6393 16.0151C21.6481 16.0216 21.6546 16.0307 21.6579 16.0411C21.6612 16.0515 21.6612 16.0627 21.6578 16.073C21.6544 16.0834 21.6478 16.0925 21.639 16.0989L21.336 16.3219L21.45 16.6809C21.4523 16.6887 21.4528 16.6969 21.4514 16.7049C21.45 16.7129 21.4467 16.7205 21.4419 16.727C21.437 16.7335 21.4307 16.7388 21.4234 16.7424C21.4161 16.7461 21.4081 16.7479 21.4 16.7479Z" fill="#FF4B55"/>
<path d="M21.063 15.6621L21.194 16.0541L21.607 16.0571L21.275 16.3031L21.4 16.6961L21.063 16.4561L20.727 16.6961L20.852 16.3031L20.52 16.0571L20.933 16.0541L21.063 15.6621ZM21.063 15.5591C21.0414 15.559 21.0203 15.5657 21.0027 15.5783C20.9851 15.5908 20.9719 15.6086 20.965 15.6291L20.858 15.9511L20.518 15.9541C20.4964 15.9543 20.4754 15.9613 20.458 15.9741C20.4405 15.9869 20.4276 16.0049 20.421 16.0255C20.4143 16.0461 20.4143 16.0682 20.421 16.0888C20.4276 16.1093 20.4406 16.1273 20.458 16.1401L20.731 16.3421L20.629 16.6651C20.6221 16.6858 20.622 16.7081 20.6286 16.7288C20.6352 16.7496 20.6482 16.7677 20.6658 16.7806C20.6834 16.7935 20.7045 16.8005 20.7263 16.8006C20.7481 16.8006 20.7693 16.7938 20.787 16.7811L21.063 16.5841L21.339 16.7811C21.3566 16.7947 21.3781 16.8022 21.4004 16.8026C21.4226 16.8029 21.4444 16.796 21.4624 16.783C21.4804 16.7699 21.4937 16.7514 21.5003 16.7301C21.5069 16.7089 21.5064 16.6861 21.499 16.6651L21.396 16.3421L21.669 16.1401C21.6864 16.1273 21.6994 16.1093 21.706 16.0888C21.7127 16.0682 21.7127 16.0461 21.706 16.0255C21.6994 16.0049 21.6865 15.9869 21.669 15.9741C21.6516 15.9613 21.6306 15.9543 21.609 15.9541L21.269 15.9511L21.162 15.6291C21.155 15.6085 21.1417 15.5906 21.1239 15.578C21.1061 15.5654 21.0848 15.5588 21.063 15.5591Z" fill="#F5F5F5"/>
<path d="M17.7801 17.2659C17.7693 17.2658 17.7588 17.2623 17.7501 17.2559L17.4431 17.0369L17.1371 17.2569C17.1282 17.263 17.1177 17.2661 17.107 17.2659C17.0962 17.2657 17.0858 17.2622 17.0771 17.2559C17.0681 17.2496 17.0612 17.2406 17.0576 17.2302C17.0541 17.2197 17.0539 17.2084 17.0571 17.1979L17.1711 16.8399L16.8691 16.6159C16.8604 16.6095 16.854 16.6006 16.8505 16.5904C16.8471 16.5802 16.847 16.5692 16.8501 16.5589C16.8535 16.5485 16.86 16.5395 16.8688 16.533C16.8776 16.5265 16.8882 16.523 16.8991 16.5229L17.2751 16.5199L17.3951 16.1629C17.3986 16.1529 17.405 16.1441 17.4136 16.1379C17.4222 16.1316 17.4325 16.1281 17.4431 16.1279C17.4651 16.1279 17.4851 16.1419 17.4931 16.1629L17.6111 16.5199L17.9881 16.5229C18.0101 16.5229 18.0291 16.5369 18.0361 16.5589C18.0431 16.5789 18.0361 16.6029 18.0181 16.6159L17.7151 16.8399L17.8291 17.1979C17.8316 17.2057 17.8323 17.2141 17.831 17.2222C17.8296 17.2304 17.8264 17.2381 17.8215 17.2447C17.8166 17.2513 17.8103 17.2567 17.8029 17.2604C17.7955 17.2641 17.7874 17.266 17.7791 17.2659H17.7801Z" fill="#FF4B55"/>
<path d="M17.442 16.1799L17.573 16.5709L17.986 16.5739L17.654 16.8199L17.778 17.2139L17.442 16.9739L17.106 17.2139L17.231 16.8199L16.898 16.5739L17.311 16.5709L17.442 16.1799ZM17.442 16.0759C17.4204 16.0758 17.3993 16.0825 17.3817 16.0951C17.3641 16.1077 17.3509 16.1254 17.344 16.1459L17.237 16.4679L16.897 16.4709C16.8757 16.4717 16.8551 16.479 16.8381 16.4919C16.8211 16.5048 16.8084 16.5226 16.8019 16.5429C16.7953 16.5632 16.7952 16.585 16.8015 16.6054C16.8078 16.6258 16.8202 16.6438 16.837 16.6569L17.11 16.8589L17.008 17.1819C17.0011 17.2026 17.001 17.2249 17.0076 17.2456C17.0142 17.2664 17.0272 17.2845 17.0448 17.2974C17.0623 17.3103 17.0835 17.3173 17.1053 17.3174C17.1271 17.3175 17.1483 17.3106 17.166 17.2979L17.442 17.1009L17.718 17.2979C17.7356 17.3111 17.757 17.3182 17.779 17.3183C17.801 17.3185 17.8225 17.3115 17.8403 17.2985C17.8581 17.2856 17.8712 17.2673 17.8778 17.2463C17.8844 17.2253 17.8841 17.2027 17.877 17.1819L17.775 16.8589L18.048 16.6569C18.0649 16.6437 18.0773 16.6257 18.0836 16.6052C18.0898 16.5847 18.0896 16.5628 18.0829 16.5425C18.0762 16.5221 18.0634 16.5043 18.0463 16.4915C18.0291 16.4787 18.0084 16.4715 17.987 16.4709L17.647 16.4679L17.54 16.1459C17.5331 16.1254 17.5199 16.1077 17.5023 16.0951C17.4847 16.0825 17.4636 16.0758 17.442 16.0759Z" fill="#F5F5F5"/>
</g>
</g>
<defs>
<clipPath id="clip0_443_600">
<rect width="24" height="24" fill="white"/>
</clipPath>
</defs>
</svg>
