<svg width="24" height="24" viewBox="0 0 24 24" fill="none" xmlns="http://www.w3.org/2000/svg">
<g clip-path="url(#clip0_442_478)">
<path d="M12 24C18.6274 24 24 18.6274 24 12C24 5.37258 18.6274 0 12 0C5.37258 0 0 5.37258 0 12C0 18.6274 5.37258 24 12 24Z" fill="#1AAB9B"/>
<path d="M5.6685 15.8669V9.83319L10.2443 13.2772V15.8669H11.4128V13.0349C11.4127 12.9293 11.388 12.8251 11.3408 12.7306C11.2935 12.6361 11.225 12.5539 11.1405 12.4904L5.59125 8.31369C5.49008 8.23768 5.36974 8.19133 5.24372 8.17982C5.1177 8.16832 4.99096 8.19212 4.8777 8.24856C4.76444 8.30499 4.66912 8.39184 4.60241 8.49938C4.5357 8.60692 4.50024 8.7309 4.5 8.85744V15.8669H5.6685ZM18.324 15.8669V9.83319L13.7482 13.2772V15.8669H12.5798V13.0349C12.5798 12.8204 12.6803 12.6187 12.8513 12.4904L18.4012 8.31369C18.5025 8.23764 18.6229 8.19128 18.749 8.17981C18.8751 8.16833 19.0018 8.1922 19.1151 8.24873C19.2284 8.30525 19.3237 8.39221 19.3904 8.49986C19.457 8.6075 19.4924 8.73158 19.4925 8.85819V15.8677L18.324 15.8669Z" fill="white"/>
</g>
<defs>
<clipPath id="clip0_442_478">
<rect width="24" height="24" fill="white"/>
</clipPath>
</defs>
</svg>
