<svg width="24" height="24" viewBox="0 0 24 24" fill="none" xmlns="http://www.w3.org/2000/svg">
<path fill-rule="evenodd" clip-rule="evenodd" d="M3.045 3.53906H20.956C21.336 3.98406 21.628 4.50506 21.805 5.07706H2.197C2.374 4.50506 2.667 3.98406 3.045 3.53906ZM2 6.61606H22V8.15406H2V6.61606ZM22 9.69306H2V11.2311H22V9.69306ZM2 12.7691H22V14.3071H2V12.7701V12.7691ZM22 15.8471H2V17.3851H22V15.8471ZM2.197 18.9241H21.805C21.6291 19.489 21.3403 20.0122 20.956 20.4621H3.046C2.66138 20.0123 2.37319 19.4891 2.197 18.9241Z" fill="#F5F5F5"/>
<path fill-rule="evenodd" clip-rule="evenodd" d="M17.625 2H6.375C5.7416 1.9994 5.11565 2.13666 4.54061 2.40225C3.96557 2.66783 3.45523 3.05539 3.045 3.538H20.955C20.5448 3.05539 20.0344 2.66783 19.4594 2.40225C18.8844 2.13666 18.2584 1.9994 17.625 2ZM22 8.154H2V9.692H22V8.154ZM21.804 5.077C21.931 5.487 22 5.923 22 6.375V6.615H2V6.375C2 5.923 2.069 5.488 2.196 5.077H21.804ZM22 11.231H2V12.769H22V11.23V11.231ZM22 17.385V17.625C22 18.077 21.931 18.513 21.804 18.923H2.196C2.06573 18.5027 1.99965 18.0651 2 17.625V17.385H22ZM20.955 20.461H3.045C3.45502 20.9437 3.96517 21.3313 4.54003 21.5971C5.11488 21.8629 5.74069 22.0003 6.374 22H17.624C18.2575 22.0005 18.8835 21.8631 19.4585 21.5973C20.0336 21.3315 20.5449 20.9438 20.955 20.461ZM2 14.308H22V15.846H2V14.308Z" fill="#FA4051"/>
<path d="M12.666 2H6.333C3.94 2 2 3.959 2 6.375V12.769H12.666V2Z" fill="#1939C9"/>
<path fill-rule="evenodd" clip-rule="evenodd" d="M5.48386 2.962L5.56686 3.211L5.82886 3.213C5.86286 3.213 5.87686 3.256 5.84886 3.277L5.63886 3.432L5.71786 3.682C5.72084 3.68925 5.7213 3.69729 5.71916 3.70483C5.71702 3.71238 5.71241 3.71898 5.70607 3.7236C5.69973 3.72821 5.69202 3.73056 5.68419 3.73027C5.67635 3.72998 5.66884 3.72706 5.66286 3.722L5.44986 3.569L5.23686 3.722C5.23088 3.72706 5.22337 3.72998 5.21553 3.73027C5.2077 3.73056 5.19999 3.72821 5.19365 3.7236C5.18731 3.71898 5.1827 3.71238 5.18056 3.70483C5.17843 3.69729 5.17888 3.68925 5.18186 3.682L5.26186 3.432L5.05086 3.277C5.04462 3.27278 5.03991 3.26667 5.03742 3.25956C5.03493 3.25246 5.0348 3.24474 5.03705 3.23755C5.03929 3.23037 5.04379 3.2241 5.04989 3.21967C5.05598 3.21525 5.06333 3.21291 5.07086 3.213L5.33286 3.211L5.41586 2.962C5.41772 2.95438 5.42208 2.94761 5.42825 2.94277C5.43441 2.93793 5.44202 2.9353 5.44986 2.9353C5.4577 2.9353 5.46531 2.93793 5.47147 2.94277C5.47764 2.94761 5.482 2.95438 5.48386 2.962ZM3.15986 3.682C3.14986 3.715 3.18586 3.742 3.21386 3.722L3.42686 3.57L3.64086 3.722C3.64689 3.72658 3.65425 3.72908 3.66182 3.72912C3.66939 3.72917 3.67678 3.72676 3.68286 3.72225C3.68895 3.71774 3.69341 3.71138 3.69557 3.70412C3.69773 3.69686 3.69748 3.6891 3.69486 3.682L3.61486 3.432L3.82686 3.277C3.8331 3.27278 3.83781 3.26667 3.8403 3.25956C3.84279 3.25246 3.84292 3.24474 3.84068 3.23755C3.83843 3.23037 3.83393 3.2241 3.82784 3.21967C3.82174 3.21525 3.81439 3.21291 3.80686 3.213L3.54386 3.211L3.49886 3.077C3.38686 3.175 3.27886 3.279 3.17786 3.387L3.23786 3.433L3.15986 3.683V3.682ZM3.46086 5.037L3.54386 5.286L3.80586 5.288C3.83986 5.288 3.85486 5.332 3.82686 5.352L3.61686 5.508L3.69486 5.758C3.69748 5.7651 3.69773 5.77286 3.69557 5.78012C3.69341 5.78738 3.68895 5.79374 3.68286 5.79825C3.67678 5.80276 3.66939 5.80517 3.66182 5.80512C3.65425 5.80508 3.64689 5.80258 3.64086 5.798L3.42786 5.645L3.21386 5.797C3.20783 5.80158 3.20048 5.80408 3.1929 5.80412C3.18533 5.80417 3.17795 5.80176 3.17186 5.79725C3.16577 5.79274 3.16131 5.78638 3.15915 5.77912C3.15699 5.77186 3.15724 5.7641 3.15986 5.757L3.23986 5.507L3.02786 5.352C3.02162 5.34778 3.01691 5.34167 3.01442 5.33456C3.01193 5.32746 3.0118 5.31974 3.01405 5.31255C3.01629 5.30537 3.02079 5.2991 3.02689 5.29467C3.03298 5.29025 3.04033 5.28791 3.04786 5.288L3.31086 5.286L3.39386 5.037C3.39604 5.02981 3.40047 5.02351 3.4065 5.01903C3.41253 5.01455 3.41985 5.01213 3.42736 5.01213C3.43487 5.01213 3.44219 5.01455 3.44822 5.01903C3.45425 5.02351 3.45868 5.02981 3.46086 5.037ZM3.54386 7.588L3.46086 7.34C3.45868 7.33281 3.45425 7.32651 3.44822 7.32203C3.44219 7.31755 3.43487 7.31513 3.42736 7.31513C3.41985 7.31513 3.41253 7.31755 3.4065 7.32203C3.40047 7.32651 3.39604 7.33281 3.39386 7.34L3.31086 7.588L3.04886 7.59C3.04133 7.58991 3.03398 7.59225 3.02789 7.59667C3.02179 7.6011 3.01729 7.60737 3.01505 7.61455C3.0128 7.62174 3.01293 7.62946 3.01542 7.63656C3.01791 7.64367 3.02262 7.64978 3.02886 7.654L3.23886 7.81L3.15986 8.06C3.14986 8.092 3.18686 8.12 3.21386 8.1L3.42786 7.947L3.64086 8.099C3.64683 8.10337 3.65403 8.10575 3.66143 8.10577C3.66883 8.1058 3.67605 8.10348 3.68205 8.09915C3.68805 8.09481 3.69253 8.08869 3.69483 8.08166C3.69713 8.07462 3.69714 8.06704 3.69486 8.06L3.61586 7.81L3.82686 7.654C3.8331 7.64978 3.83781 7.64367 3.8403 7.63656C3.84279 7.62946 3.84292 7.62174 3.84068 7.61455C3.83843 7.60737 3.83393 7.6011 3.82784 7.59667C3.82174 7.59225 3.81439 7.58991 3.80686 7.59L3.54386 7.588ZM3.46086 9.455L3.54386 9.704L3.80586 9.706C3.83986 9.706 3.85486 9.749 3.82686 9.77L3.61686 9.925L3.69486 10.175C3.69748 10.1821 3.69773 10.1899 3.69557 10.1971C3.69341 10.2044 3.68895 10.2107 3.68286 10.2152C3.67678 10.2198 3.66939 10.2222 3.66182 10.2221C3.65425 10.2221 3.64689 10.2196 3.64086 10.215L3.42786 10.062L3.21386 10.215C3.20783 10.2196 3.20048 10.2221 3.1929 10.2221C3.18533 10.2222 3.17795 10.2198 3.17186 10.2152C3.16577 10.2107 3.16131 10.2044 3.15915 10.1971C3.15699 10.1899 3.15724 10.1821 3.15986 10.175L3.23986 9.925L3.02786 9.77C3.02162 9.76578 3.01691 9.75967 3.01442 9.75256C3.01193 9.74546 3.0118 9.73774 3.01405 9.73055C3.01629 9.72337 3.02079 9.7171 3.02689 9.71267C3.03298 9.70825 3.04033 9.70591 3.04786 9.706L3.31086 9.704L3.39386 9.455C3.39604 9.44781 3.40047 9.44151 3.4065 9.43703C3.41253 9.43255 3.41985 9.43013 3.42736 9.43013C3.43487 9.43013 3.44219 9.43255 3.44822 9.43703C3.45425 9.44151 3.45868 9.44781 3.46086 9.455ZM3.54386 11.628L3.46086 11.379C3.45868 11.3718 3.45425 11.3655 3.44822 11.361C3.44219 11.3566 3.43487 11.3541 3.42736 11.3541C3.41985 11.3541 3.41253 11.3566 3.4065 11.361C3.40047 11.3655 3.39604 11.3718 3.39386 11.379L3.31086 11.628L3.04886 11.63C3.04133 11.6299 3.03398 11.6322 3.02789 11.6367C3.02179 11.6411 3.01729 11.6474 3.01505 11.6546C3.0128 11.6617 3.01293 11.6695 3.01542 11.6766C3.01791 11.6837 3.02262 11.6898 3.02886 11.694L3.23886 11.85L3.15986 12.1C3.14986 12.132 3.18686 12.159 3.21386 12.14L3.42786 11.987L3.64086 12.139C3.64689 12.1436 3.65425 12.1461 3.66182 12.1461C3.66939 12.1462 3.67678 12.1438 3.68286 12.1392C3.68895 12.1347 3.69341 12.1284 3.69557 12.1211C3.69773 12.1139 3.69748 12.1061 3.69486 12.099L3.61586 11.849L3.82686 11.694C3.8331 11.6898 3.83781 11.6837 3.8403 11.6766C3.84279 11.6695 3.84292 11.6617 3.84068 11.6546C3.83843 11.6474 3.83393 11.6411 3.82784 11.6367C3.82174 11.6322 3.81439 11.6299 3.80686 11.63L3.54386 11.628ZM4.46986 3.945L4.55286 4.194L4.81486 4.196C4.84886 4.196 4.86286 4.239 4.83486 4.259L4.62486 4.415L4.70386 4.665C4.70648 4.6721 4.70673 4.67986 4.70457 4.68712C4.70241 4.69438 4.69795 4.70074 4.69186 4.70525C4.68578 4.70976 4.67839 4.71217 4.67082 4.71212C4.66325 4.71208 4.65589 4.70958 4.64986 4.705L4.43586 4.552L4.22286 4.705C4.21683 4.70958 4.20948 4.71208 4.2019 4.71212C4.19433 4.71217 4.18695 4.70976 4.18086 4.70525C4.17477 4.70074 4.17031 4.69438 4.16815 4.68712C4.16599 4.67986 4.16624 4.6721 4.16886 4.665L4.24786 4.415L4.03686 4.259C4.03105 4.25464 4.02673 4.24859 4.02451 4.24167C4.0223 4.23475 4.02229 4.22732 4.02448 4.22039C4.02668 4.21347 4.03098 4.2074 4.03678 4.20303C4.04258 4.19866 4.0496 4.1962 4.05686 4.196L4.31986 4.194L4.40286 3.944C4.40504 3.93681 4.40947 3.93051 4.4155 3.92603C4.42153 3.92155 4.42885 3.91913 4.43636 3.91913C4.44387 3.91913 4.45119 3.92155 4.45722 3.92603C4.46325 3.93051 4.46768 3.93781 4.46986 3.945ZM4.55286 6.495L4.46986 6.246C4.46768 6.23881 4.46325 6.23251 4.45722 6.22803C4.45119 6.22355 4.44387 6.22113 4.43636 6.22113C4.42885 6.22113 4.42153 6.22355 4.4155 6.22803C4.40947 6.23251 4.40504 6.23881 4.40286 6.246L4.31986 6.496L4.05786 6.497C4.05025 6.49668 4.04274 6.49886 4.03647 6.5032C4.03021 6.50754 4.02553 6.51381 4.02316 6.52105C4.02078 6.5283 4.02083 6.53612 4.02331 6.54332C4.02578 6.55053 4.03054 6.55674 4.03686 6.561L4.24686 6.717L4.16886 6.967C4.15886 6.999 4.19486 7.027 4.22286 7.007L4.43586 6.854L4.64986 7.006C4.65583 7.01037 4.66303 7.01275 4.67043 7.01277C4.67783 7.0128 4.68505 7.01048 4.69105 7.00615C4.69705 7.00181 4.70153 6.99569 4.70383 6.98866C4.70613 6.98162 4.70614 6.97404 4.70386 6.967L4.62386 6.717L4.83586 6.561C4.8421 6.55678 4.84681 6.55067 4.8493 6.54356C4.85179 6.53646 4.85192 6.52874 4.84968 6.52155C4.84743 6.51437 4.84293 6.5081 4.83684 6.50367C4.83074 6.49925 4.82339 6.49691 4.81586 6.497L4.55286 6.495ZM4.46986 8.434L4.55286 8.682L4.81486 8.684C4.84886 8.684 4.86286 8.728 4.83486 8.748L4.62486 8.904L4.70386 9.154C4.70648 9.1611 4.70673 9.16886 4.70457 9.17612C4.70241 9.18338 4.69795 9.18974 4.69186 9.19425C4.68578 9.19876 4.67839 9.20117 4.67082 9.20112C4.66325 9.20108 4.65589 9.19858 4.64986 9.194L4.43586 9.041L4.22286 9.193C4.21689 9.19737 4.20969 9.19975 4.20229 9.19977C4.19489 9.1998 4.18767 9.19748 4.18167 9.19315C4.17567 9.18881 4.1712 9.18269 4.16889 9.17566C4.16659 9.16862 4.16658 9.16104 4.16886 9.154L4.24786 8.904L4.03686 8.748C4.03062 8.74378 4.02591 8.73767 4.02342 8.73056C4.02093 8.72346 4.0208 8.71574 4.02305 8.70855C4.02529 8.70137 4.02979 8.6951 4.03589 8.69067C4.04198 8.68625 4.04933 8.68391 4.05686 8.684L4.31986 8.682L4.40286 8.434C4.40504 8.42681 4.40947 8.42051 4.4155 8.41603C4.42153 8.41155 4.42885 8.40913 4.43636 8.40913C4.44387 8.40913 4.45119 8.41155 4.45722 8.41603C4.46325 8.42051 4.46768 8.42681 4.46986 8.434ZM4.55286 10.647L4.46986 10.398C4.46768 10.3908 4.46325 10.3845 4.45722 10.38C4.45119 10.3756 4.44387 10.3731 4.43636 10.3731C4.42885 10.3731 4.42153 10.3756 4.4155 10.38C4.40947 10.3845 4.40504 10.3908 4.40286 10.398L4.31986 10.647L4.05786 10.649C4.05025 10.6487 4.04274 10.6509 4.03647 10.6552C4.03021 10.6595 4.02553 10.6658 4.02316 10.6731C4.02078 10.6803 4.02083 10.6881 4.02331 10.6953C4.02578 10.7025 4.03054 10.7087 4.03686 10.713L4.24686 10.868L4.16886 11.118C4.15886 11.151 4.19486 11.178 4.22286 11.158L4.43586 11.006L4.64986 11.158C4.65589 11.1626 4.66325 11.1651 4.67082 11.1651C4.67839 11.1652 4.68578 11.1628 4.69186 11.1582C4.69795 11.1537 4.70241 11.1474 4.70457 11.1401C4.70673 11.1329 4.70648 11.1251 4.70386 11.118L4.62386 10.868L4.83586 10.713C4.8421 10.7088 4.84681 10.7027 4.8493 10.6956C4.85179 10.6885 4.85192 10.6807 4.84968 10.6736C4.84743 10.6664 4.84293 10.6601 4.83684 10.6557C4.83074 10.6512 4.82339 10.6489 4.81586 10.649L4.55286 10.647ZM5.56686 5.286L5.48386 5.037C5.482 5.02938 5.47764 5.02261 5.47147 5.01777C5.46531 5.01293 5.4577 5.0103 5.44986 5.0103C5.44202 5.0103 5.43441 5.01293 5.42825 5.01777C5.42208 5.02261 5.41772 5.02938 5.41586 5.037L5.33286 5.286L5.07086 5.288C5.06333 5.28791 5.05598 5.29025 5.04989 5.29467C5.04379 5.2991 5.03929 5.30537 5.03705 5.31255C5.0348 5.31974 5.03493 5.32746 5.03742 5.33456C5.03991 5.34167 5.04462 5.34778 5.05086 5.352L5.26086 5.508L5.18186 5.758C5.17186 5.79 5.20886 5.817 5.23686 5.798L5.44986 5.645L5.66286 5.797C5.66884 5.80206 5.67635 5.80498 5.68419 5.80527C5.69202 5.80556 5.69973 5.80321 5.70607 5.7986C5.71241 5.79398 5.71702 5.78738 5.71916 5.77983C5.7213 5.77229 5.72084 5.76425 5.71786 5.757L5.63786 5.507L5.84986 5.352C5.85618 5.34774 5.86094 5.34153 5.86341 5.33432C5.86589 5.32712 5.86594 5.3193 5.86356 5.31205C5.86119 5.30481 5.85651 5.29854 5.85025 5.2942C5.84399 5.28986 5.83648 5.28768 5.82886 5.288L5.56686 5.286ZM5.48386 7.34L5.56686 7.588L5.82886 7.59C5.86286 7.59 5.87686 7.634 5.84886 7.654L5.63886 7.81L5.71786 8.06C5.72084 8.06725 5.7213 8.07529 5.71916 8.08283C5.71702 8.09038 5.71241 8.09698 5.70607 8.1016C5.69973 8.10621 5.69202 8.10856 5.68419 8.10827C5.67635 8.10798 5.66884 8.10506 5.66286 8.1L5.44986 7.947L5.23686 8.099C5.23093 8.10381 5.22358 8.10656 5.21594 8.1068C5.2083 8.10705 5.20079 8.10479 5.19456 8.10037C5.18832 8.09595 5.18371 8.08961 5.18141 8.08232C5.17912 8.07503 5.17928 8.06719 5.18186 8.06L5.26186 7.81L5.05086 7.654C5.04462 7.64978 5.03991 7.64367 5.03742 7.63656C5.03493 7.62946 5.0348 7.62174 5.03705 7.61455C5.03929 7.60737 5.04379 7.6011 5.04989 7.59667C5.05598 7.59225 5.06333 7.58991 5.07086 7.59L5.33286 7.588L5.41586 7.34C5.41772 7.33238 5.42208 7.32561 5.42825 7.32077C5.43441 7.31593 5.44202 7.3133 5.44986 7.3133C5.4577 7.3133 5.46531 7.31593 5.47147 7.32077C5.47764 7.32561 5.482 7.33238 5.48386 7.34ZM5.56686 9.704L5.48386 9.455C5.482 9.44738 5.47764 9.44061 5.47147 9.43577C5.46531 9.43093 5.4577 9.4283 5.44986 9.4283C5.44202 9.4283 5.43441 9.43093 5.42825 9.43577C5.42208 9.44061 5.41772 9.44738 5.41586 9.455L5.33286 9.704L5.07086 9.706C5.06333 9.70591 5.05598 9.70825 5.04989 9.71267C5.04379 9.7171 5.03929 9.72337 5.03705 9.73055C5.0348 9.73774 5.03493 9.74546 5.03742 9.75256C5.03991 9.75967 5.04462 9.76578 5.05086 9.77L5.26086 9.925L5.18186 10.175C5.17186 10.208 5.20886 10.235 5.23686 10.215L5.44986 10.062L5.66286 10.215C5.66884 10.2201 5.67635 10.223 5.68419 10.2233C5.69202 10.2236 5.69973 10.2212 5.70607 10.2166C5.71241 10.212 5.71702 10.2054 5.71916 10.1978C5.7213 10.1903 5.72084 10.1822 5.71786 10.175L5.63786 9.925L5.84986 9.77C5.85618 9.76574 5.86094 9.75953 5.86341 9.75233C5.86589 9.74512 5.86594 9.7373 5.86356 9.73005C5.86119 9.72281 5.85651 9.71654 5.85025 9.7122C5.84399 9.70786 5.83648 9.70568 5.82886 9.706L5.56686 9.704ZM5.48386 11.379L5.56686 11.628L5.82886 11.63C5.86286 11.63 5.87686 11.674 5.84886 11.694L5.63886 11.85L5.71786 12.1C5.72084 12.1072 5.7213 12.1153 5.71916 12.1228C5.71702 12.1304 5.71241 12.137 5.70607 12.1416C5.69973 12.1462 5.69202 12.1486 5.68419 12.1483C5.67635 12.148 5.66884 12.1451 5.66286 12.14L5.44986 11.987L5.23686 12.139C5.23088 12.1441 5.22337 12.147 5.21553 12.1473C5.2077 12.1476 5.19999 12.1452 5.19365 12.1406C5.18731 12.136 5.1827 12.1294 5.18056 12.1218C5.17843 12.1143 5.17888 12.1062 5.18186 12.099L5.26186 11.849L5.05086 11.694C5.04462 11.6898 5.03991 11.6837 5.03742 11.6766C5.03493 11.6695 5.0348 11.6617 5.03705 11.6546C5.03929 11.6474 5.04379 11.6411 5.04989 11.6367C5.05598 11.6322 5.06333 11.6299 5.07086 11.63L5.33286 11.628L5.41586 11.379C5.41772 11.3714 5.42208 11.3646 5.42825 11.3598C5.43441 11.3549 5.44202 11.3523 5.44986 11.3523C5.4577 11.3523 5.46531 11.3549 5.47147 11.3598C5.47764 11.3646 5.482 11.3714 5.48386 11.379ZM6.57386 4.194L6.49086 3.944C6.48869 3.93681 6.48425 3.93051 6.47822 3.92603C6.47219 3.92155 6.46487 3.91913 6.45736 3.91913C6.44985 3.91913 6.44253 3.92155 6.4365 3.92603C6.43047 3.93051 6.42604 3.93681 6.42386 3.944L6.34086 4.194L6.07786 4.196C6.0706 4.1962 6.06358 4.19866 6.05778 4.20303C6.05198 4.2074 6.04768 4.21347 6.04548 4.22039C6.04329 4.22732 6.0433 4.23475 6.04551 4.24167C6.04773 4.24859 6.05205 4.25464 6.05786 4.259L6.26786 4.415L6.18986 4.665C6.17986 4.698 6.21586 4.725 6.24386 4.705L6.45686 4.552L6.67086 4.705C6.67689 4.70958 6.68425 4.71208 6.69182 4.71212C6.69939 4.71217 6.70678 4.70976 6.71286 4.70525C6.71895 4.70074 6.72341 4.69438 6.72557 4.68712C6.72773 4.67986 6.72748 4.6721 6.72486 4.665L6.64486 4.415L6.85686 4.259C6.86274 4.25459 6.86708 4.24844 6.86927 4.24143C6.87146 4.23442 6.87139 4.2269 6.86906 4.21993C6.86674 4.21296 6.86228 4.2069 6.85633 4.2026C6.85037 4.19831 6.84321 4.196 6.83586 4.196L6.57386 4.194ZM6.48986 6.246L6.57286 6.496L6.83486 6.497C6.86886 6.497 6.88286 6.541 6.85486 6.561L6.64486 6.717L6.72386 6.967C6.72648 6.9741 6.72673 6.98186 6.72457 6.98912C6.72241 6.99638 6.71795 7.00274 6.71186 7.00725C6.70578 7.01176 6.69839 7.01417 6.69082 7.01412C6.68325 7.01408 6.67589 7.01158 6.66986 7.007L6.45586 6.854L6.24286 7.006C6.23689 7.01037 6.22969 7.01275 6.22229 7.01277C6.21489 7.0128 6.20767 7.01048 6.20167 7.00615C6.19567 7.00181 6.1912 6.99569 6.18889 6.98866C6.18659 6.98162 6.18658 6.97404 6.18886 6.967L6.26786 6.717L6.05686 6.561C6.05062 6.55678 6.04591 6.55067 6.04342 6.54356C6.04093 6.53646 6.0408 6.52874 6.04305 6.52155C6.04529 6.51437 6.04979 6.5081 6.05589 6.50367C6.06198 6.49925 6.06933 6.49691 6.07686 6.497L6.33986 6.495L6.42286 6.246C6.42504 6.23881 6.42947 6.23251 6.4355 6.22803C6.44153 6.22355 6.44885 6.22113 6.45636 6.22113C6.46387 6.22113 6.47119 6.22355 6.47722 6.22803C6.48325 6.23251 6.48768 6.23881 6.48986 6.246ZM6.57286 8.682L6.48986 8.434C6.48768 8.42681 6.48325 8.42051 6.47722 8.41603C6.47119 8.41155 6.46387 8.40913 6.45636 8.40913C6.44885 8.40913 6.44153 8.41155 6.4355 8.41603C6.42947 8.42051 6.42504 8.42681 6.42286 8.434L6.33986 8.682L6.07686 8.684C6.06933 8.68391 6.06198 8.68625 6.05589 8.69067C6.04979 8.6951 6.04529 8.70137 6.04305 8.70855C6.0408 8.71574 6.04093 8.72346 6.04342 8.73056C6.04591 8.73767 6.05062 8.74378 6.05686 8.748L6.26686 8.904L6.18886 9.154C6.17886 9.186 6.21486 9.214 6.24286 9.194L6.45586 9.041L6.66986 9.193C6.67583 9.19737 6.68303 9.19975 6.69043 9.19977C6.69783 9.1998 6.70505 9.19748 6.71105 9.19315C6.71705 9.18881 6.72153 9.18269 6.72383 9.17566C6.72613 9.16862 6.72614 9.16104 6.72386 9.154L6.64386 8.904L6.85586 8.748C6.86218 8.74374 6.86694 8.73753 6.86941 8.73032C6.87189 8.72312 6.87194 8.7153 6.86956 8.70805C6.86719 8.70081 6.86251 8.69454 6.85625 8.6902C6.84999 8.68586 6.84248 8.68368 6.83486 8.684L6.57286 8.682ZM6.48986 10.398L6.57286 10.647L6.83486 10.649C6.86886 10.649 6.88286 10.693 6.85486 10.713L6.64486 10.868L6.72386 11.118C6.72648 11.1251 6.72673 11.1329 6.72457 11.1401C6.72241 11.1474 6.71795 11.1537 6.71186 11.1582C6.70578 11.1628 6.69839 11.1652 6.69082 11.1651C6.68325 11.1651 6.67589 11.1626 6.66986 11.158L6.45586 11.006L6.24286 11.158C6.23683 11.1626 6.22948 11.1651 6.2219 11.1651C6.21433 11.1652 6.20695 11.1628 6.20086 11.1582C6.19477 11.1537 6.19031 11.1474 6.18815 11.1401C6.18599 11.1329 6.18624 11.1251 6.18886 11.118L6.26786 10.868L6.05686 10.713C6.05062 10.7088 6.04591 10.7027 6.04342 10.6956C6.04093 10.6885 6.0408 10.6807 6.04305 10.6736C6.04529 10.6664 6.04979 10.6601 6.05589 10.6557C6.06198 10.6512 6.06933 10.6489 6.07686 10.649L6.33986 10.647L6.42286 10.398C6.42504 10.3908 6.42947 10.3845 6.4355 10.38C6.44153 10.3756 6.44885 10.3731 6.45636 10.3731C6.46387 10.3731 6.47119 10.3756 6.47722 10.38C6.48325 10.3845 6.48768 10.3908 6.48986 10.398ZM7.58586 3.211L7.50286 2.962C7.50068 2.95481 7.49625 2.94851 7.49022 2.94403C7.48419 2.93955 7.47687 2.93713 7.46936 2.93713C7.46185 2.93713 7.45453 2.93955 7.4485 2.94403C7.44247 2.94851 7.43804 2.95481 7.43586 2.962L7.35286 3.211L7.09086 3.213C7.08333 3.21291 7.07598 3.21525 7.06989 3.21967C7.06379 3.2241 7.05929 3.23037 7.05705 3.23755C7.0548 3.24474 7.05493 3.25246 7.05742 3.25956C7.05991 3.26667 7.06462 3.27278 7.07086 3.277L7.28086 3.432L7.20186 3.682C7.19186 3.715 7.22886 3.742 7.25586 3.722L7.46986 3.569L7.68286 3.722C7.68889 3.72658 7.69625 3.72908 7.70382 3.72912C7.71139 3.72917 7.71878 3.72676 7.72486 3.72225C7.73095 3.71774 7.73541 3.71138 7.73757 3.70412C7.73973 3.69686 7.73948 3.6891 7.73686 3.682L7.65786 3.432L7.86886 3.277C7.8751 3.27278 7.87981 3.26667 7.8823 3.25956C7.88479 3.25246 7.88492 3.24474 7.88268 3.23755C7.88043 3.23037 7.87593 3.2241 7.86984 3.21967C7.86374 3.21525 7.85639 3.21291 7.84886 3.213L7.58586 3.211ZM7.50286 5.037L7.58586 5.286L7.84886 5.288C7.88286 5.288 7.89686 5.332 7.86886 5.352L7.65886 5.508L7.73686 5.758C7.73948 5.7651 7.73973 5.77286 7.73757 5.78012C7.73541 5.78738 7.73095 5.79374 7.72486 5.79825C7.71878 5.80276 7.71139 5.80517 7.70382 5.80512C7.69625 5.80508 7.68889 5.80258 7.68286 5.798L7.46986 5.645L7.25586 5.797C7.24983 5.80158 7.24248 5.80408 7.2349 5.80412C7.22733 5.80417 7.21995 5.80176 7.21386 5.79725C7.20777 5.79274 7.20331 5.78638 7.20115 5.77912C7.19899 5.77186 7.19924 5.7641 7.20186 5.757L7.28186 5.507L7.06986 5.352C7.06354 5.34774 7.05878 5.34153 7.05631 5.33432C7.05383 5.32712 7.05378 5.3193 7.05616 5.31205C7.05853 5.30481 7.06321 5.29854 7.06947 5.2942C7.07574 5.28986 7.08325 5.28768 7.09086 5.288L7.35286 5.286L7.43586 5.037C7.43804 5.02981 7.44247 5.02351 7.4485 5.01903C7.45453 5.01455 7.46185 5.01213 7.46936 5.01213C7.47687 5.01213 7.48419 5.01455 7.49022 5.01903C7.49625 5.02351 7.50068 5.02981 7.50286 5.037ZM7.58586 7.588L7.50286 7.34C7.50068 7.33281 7.49625 7.32651 7.49022 7.32203C7.48419 7.31755 7.47687 7.31513 7.46936 7.31513C7.46185 7.31513 7.45453 7.31755 7.4485 7.32203C7.44247 7.32651 7.43804 7.33281 7.43586 7.34L7.35286 7.588L7.09086 7.59C7.08333 7.58991 7.07598 7.59225 7.06989 7.59667C7.06379 7.6011 7.05929 7.60737 7.05705 7.61455C7.0548 7.62174 7.05493 7.62946 7.05742 7.63656C7.05991 7.64367 7.06462 7.64978 7.07086 7.654L7.28086 7.81L7.20186 8.06C7.19186 8.092 7.22886 8.12 7.25586 8.1L7.46986 7.947L7.68286 8.099C7.68883 8.10337 7.69603 8.10575 7.70343 8.10577C7.71083 8.1058 7.71805 8.10348 7.72405 8.09915C7.73005 8.09481 7.73453 8.08869 7.73683 8.08166C7.73913 8.07462 7.73914 8.06704 7.73686 8.06L7.65786 7.81L7.86886 7.654C7.8751 7.64978 7.87981 7.64367 7.8823 7.63656C7.88479 7.62946 7.88492 7.62174 7.88268 7.61455C7.88043 7.60737 7.87593 7.6011 7.86984 7.59667C7.86374 7.59225 7.85639 7.58991 7.84886 7.59L7.58586 7.588ZM7.50286 9.455L7.58586 9.704L7.84886 9.706C7.88286 9.706 7.89686 9.749 7.86886 9.77L7.65886 9.925L7.73686 10.175C7.73948 10.1821 7.73973 10.1899 7.73757 10.1971C7.73541 10.2044 7.73095 10.2107 7.72486 10.2152C7.71878 10.2198 7.71139 10.2222 7.70382 10.2221C7.69625 10.2221 7.68889 10.2196 7.68286 10.215L7.46986 10.062L7.25586 10.215C7.24983 10.2196 7.24248 10.2221 7.2349 10.2221C7.22733 10.2222 7.21995 10.2198 7.21386 10.2152C7.20777 10.2107 7.20331 10.2044 7.20115 10.1971C7.19899 10.1899 7.19924 10.1821 7.20186 10.175L7.28186 9.925L7.06986 9.77C7.06354 9.76574 7.05878 9.75953 7.05631 9.75233C7.05383 9.74512 7.05378 9.7373 7.05616 9.73005C7.05853 9.72281 7.06321 9.71654 7.06947 9.7122C7.07574 9.70786 7.08325 9.70568 7.09086 9.706L7.35286 9.704L7.43586 9.455C7.43804 9.44781 7.44247 9.44151 7.4485 9.43703C7.45453 9.43255 7.46185 9.43013 7.46936 9.43013C7.47687 9.43013 7.48419 9.43255 7.49022 9.43703C7.49625 9.44151 7.50068 9.44781 7.50286 9.455ZM7.58586 11.628L7.50286 11.379C7.50068 11.3718 7.49625 11.3655 7.49022 11.361C7.48419 11.3566 7.47687 11.3541 7.46936 11.3541C7.46185 11.3541 7.45453 11.3566 7.4485 11.361C7.44247 11.3655 7.43804 11.3718 7.43586 11.379L7.35286 11.628L7.09086 11.63C7.08333 11.6299 7.07598 11.6322 7.06989 11.6367C7.06379 11.6411 7.05929 11.6474 7.05705 11.6546C7.0548 11.6617 7.05493 11.6695 7.05742 11.6766C7.05991 11.6837 7.06462 11.6898 7.07086 11.694L7.28086 11.85L7.20186 12.1C7.19186 12.132 7.22886 12.159 7.25586 12.14L7.46986 11.987L7.68286 12.139C7.68889 12.1436 7.69625 12.1461 7.70382 12.1461C7.71139 12.1462 7.71878 12.1438 7.72486 12.1392C7.73095 12.1347 7.73541 12.1284 7.73757 12.1211C7.73973 12.1139 7.73948 12.1061 7.73686 12.099L7.65786 11.849L7.86886 11.694C7.8751 11.6898 7.87981 11.6837 7.8823 11.6766C7.88479 11.6695 7.88492 11.6617 7.88268 11.6546C7.88043 11.6474 7.87593 11.6411 7.86984 11.6367C7.86374 11.6322 7.85639 11.6299 7.84886 11.63L7.58586 11.628ZM8.51186 3.945L8.59486 4.194L8.85686 4.196C8.89086 4.196 8.90586 4.239 8.87786 4.259L8.66786 4.415L8.74586 4.665C8.74849 4.6721 8.74873 4.67986 8.74657 4.68712C8.74441 4.69438 8.73995 4.70074 8.73386 4.70525C8.72778 4.70976 8.72039 4.71217 8.71282 4.71212C8.70525 4.71208 8.69789 4.70958 8.69186 4.705L8.47886 4.552L8.26486 4.705C8.25883 4.70958 8.25148 4.71208 8.2439 4.71212C8.23633 4.71217 8.22894 4.70976 8.22286 4.70525C8.21677 4.70074 8.21232 4.69438 8.21015 4.68712C8.20799 4.67986 8.20824 4.6721 8.21086 4.665L8.29086 4.415L8.07886 4.259C8.07305 4.25464 8.06873 4.24859 8.06651 4.24167C8.0643 4.23475 8.06429 4.22732 8.06648 4.22039C8.06868 4.21347 8.07298 4.2074 8.07878 4.20303C8.08458 4.19866 8.0916 4.1962 8.09886 4.196L8.36186 4.194L8.44486 3.944C8.44704 3.93681 8.45147 3.93051 8.4575 3.92603C8.46353 3.92155 8.47085 3.91913 8.47836 3.91913C8.48587 3.91913 8.49319 3.92155 8.49922 3.92603C8.50525 3.93051 8.50969 3.93781 8.51186 3.945ZM8.59486 6.495L8.51186 6.246C8.50969 6.23881 8.50525 6.23251 8.49922 6.22803C8.49319 6.22355 8.48587 6.22113 8.47836 6.22113C8.47085 6.22113 8.46353 6.22355 8.4575 6.22803C8.45147 6.23251 8.44704 6.23881 8.44486 6.246L8.36186 6.496L8.09986 6.497C8.09233 6.49691 8.08498 6.49925 8.07889 6.50367C8.07279 6.5081 8.06829 6.51437 8.06605 6.52155C8.0638 6.52874 8.06393 6.53646 8.06642 6.54356C8.06891 6.55067 8.07362 6.55678 8.07986 6.561L8.28986 6.717L8.21086 6.967C8.20086 6.999 8.23786 7.027 8.26486 7.007L8.47886 6.854L8.69186 7.006C8.69783 7.01037 8.70503 7.01275 8.71243 7.01277C8.71983 7.0128 8.72705 7.01048 8.73305 7.00615C8.73905 7.00181 8.74353 6.99569 8.74583 6.98866C8.74813 6.98162 8.74814 6.97404 8.74586 6.967L8.66686 6.717L8.87786 6.561C8.8841 6.55678 8.88881 6.55067 8.8913 6.54356C8.89379 6.53646 8.89392 6.52874 8.89168 6.52155C8.88943 6.51437 8.88493 6.5081 8.87884 6.50367C8.87274 6.49925 8.86539 6.49691 8.85786 6.497L8.59486 6.495ZM8.51186 8.434L8.59486 8.682L8.85686 8.684C8.89086 8.684 8.90586 8.728 8.87786 8.748L8.66786 8.904L8.74586 9.154C8.74849 9.1611 8.74873 9.16886 8.74657 9.17612C8.74441 9.18338 8.73995 9.18974 8.73386 9.19425C8.72778 9.19876 8.72039 9.20117 8.71282 9.20112C8.70525 9.20108 8.69789 9.19858 8.69186 9.194L8.47986 9.04L8.26586 9.192C8.25989 9.19637 8.25269 9.19875 8.24529 9.19877C8.23789 9.1988 8.23067 9.19648 8.22467 9.19215C8.21867 9.18781 8.2142 9.18169 8.21189 9.17466C8.20959 9.16762 8.20958 9.16004 8.21186 9.153L8.29186 8.903L8.07986 8.747C8.07362 8.74278 8.06891 8.73667 8.06642 8.72956C8.06393 8.72246 8.0638 8.71474 8.06605 8.70755C8.06829 8.70037 8.07279 8.6941 8.07889 8.68967C8.08498 8.68525 8.09233 8.68291 8.09986 8.683L8.36286 8.681L8.44586 8.433C8.45686 8.4 8.50186 8.4 8.51286 8.433L8.51186 8.434ZM8.59486 10.647L8.51186 10.398C8.50969 10.3908 8.50525 10.3845 8.49922 10.38C8.49319 10.3756 8.48587 10.3731 8.47836 10.3731C8.47085 10.3731 8.46353 10.3756 8.4575 10.38C8.45147 10.3845 8.44704 10.3908 8.44486 10.398L8.36186 10.647L8.09986 10.649C8.09233 10.6489 8.08498 10.6512 8.07889 10.6557C8.07279 10.6601 8.06829 10.6664 8.06605 10.6736C8.0638 10.6807 8.06393 10.6885 8.06642 10.6956C8.06891 10.7027 8.07362 10.7088 8.07986 10.713L8.28986 10.868L8.21086 11.118C8.20086 11.151 8.23786 11.178 8.26486 11.158L8.47886 11.006L8.69186 11.158C8.69789 11.1626 8.70525 11.1651 8.71282 11.1651C8.72039 11.1652 8.72778 11.1628 8.73386 11.1582C8.73995 11.1537 8.74441 11.1474 8.74657 11.1401C8.74873 11.1329 8.74849 11.1251 8.74586 11.118L8.66686 10.868L8.87786 10.713C8.8841 10.7088 8.88881 10.7027 8.8913 10.6956C8.89379 10.6885 8.89392 10.6807 8.89168 10.6736C8.88943 10.6664 8.88493 10.6601 8.87884 10.6557C8.87274 10.6512 8.86539 10.6489 8.85786 10.649L8.59486 10.647ZM9.52286 2.962L9.60586 3.211L9.86786 3.213C9.90186 3.213 9.91586 3.256 9.88786 3.277L9.67786 3.432L9.75686 3.682C9.75984 3.68925 9.7603 3.69729 9.75816 3.70483C9.75602 3.71238 9.75141 3.71898 9.74507 3.7236C9.73873 3.72821 9.73102 3.73056 9.72319 3.73027C9.71535 3.72998 9.70784 3.72706 9.70186 3.722L9.48886 3.569L9.27586 3.722C9.26988 3.72706 9.26237 3.72998 9.25453 3.73027C9.2467 3.73056 9.23899 3.72821 9.23265 3.7236C9.22631 3.71898 9.2217 3.71238 9.21956 3.70483C9.21743 3.69729 9.21788 3.68925 9.22086 3.682L9.30086 3.432L9.08886 3.277C9.08254 3.27274 9.07778 3.26653 9.07531 3.25932C9.07283 3.25212 9.07278 3.2443 9.07516 3.23705C9.07753 3.22981 9.08221 3.22354 9.08847 3.2192C9.09474 3.21486 9.10225 3.21268 9.10986 3.213L9.37186 3.211L9.45486 2.962C9.46586 2.93 9.51186 2.93 9.52286 2.962ZM9.60586 5.286L9.52286 5.037C9.51186 5.005 9.46586 5.005 9.45486 5.037L9.37186 5.286L9.10986 5.288C9.10233 5.28791 9.09498 5.29025 9.08889 5.29467C9.08279 5.2991 9.07829 5.30537 9.07605 5.31255C9.0738 5.31974 9.07393 5.32746 9.07642 5.33456C9.07891 5.34167 9.08362 5.34778 9.08986 5.352L9.29986 5.508L9.22086 5.758C9.21086 5.79 9.24786 5.817 9.27586 5.798L9.48886 5.645L9.70186 5.797C9.70784 5.80206 9.71535 5.80498 9.72319 5.80527C9.73102 5.80556 9.73873 5.80321 9.74507 5.7986C9.75141 5.79398 9.75602 5.78738 9.75816 5.77983C9.7603 5.77229 9.75984 5.76425 9.75686 5.757L9.67686 5.507L9.88886 5.352C9.89518 5.34774 9.89994 5.34153 9.90242 5.33432C9.90489 5.32712 9.90494 5.3193 9.90257 5.31205C9.90019 5.30481 9.89551 5.29854 9.88925 5.2942C9.88299 5.28986 9.87548 5.28768 9.86786 5.288L9.60586 5.286ZM9.52386 7.34L9.60686 7.588L9.86886 7.59C9.90286 7.59 9.91686 7.634 9.88886 7.654L9.67886 7.81L9.75786 8.06C9.76084 8.06725 9.7613 8.07529 9.75916 8.08283C9.75702 8.09038 9.75241 8.09698 9.74607 8.1016C9.73973 8.10621 9.73202 8.10856 9.72419 8.10827C9.71635 8.10798 9.70884 8.10506 9.70286 8.1L9.48986 7.947L9.27686 8.099C9.27093 8.10381 9.26358 8.10656 9.25594 8.1068C9.2483 8.10705 9.24079 8.10479 9.23456 8.10037C9.22832 8.09595 9.22371 8.08961 9.22141 8.08232C9.21912 8.07503 9.21928 8.06719 9.22186 8.06L9.30186 7.81L9.08986 7.654C9.08354 7.64974 9.07878 7.64353 9.07631 7.63632C9.07383 7.62912 9.07378 7.6213 9.07616 7.61405C9.07853 7.60681 9.08321 7.60054 9.08947 7.5962C9.09574 7.59186 9.10325 7.58968 9.11086 7.59L9.37286 7.588L9.45586 7.34C9.46686 7.307 9.51286 7.307 9.52386 7.34ZM9.60686 9.704L9.52386 9.455C9.51286 9.423 9.46686 9.423 9.45586 9.455L9.37286 9.704L9.11086 9.706C9.10333 9.70591 9.09598 9.70825 9.08989 9.71267C9.08379 9.7171 9.07929 9.72337 9.07705 9.73055C9.0748 9.73774 9.07493 9.74546 9.07742 9.75256C9.07991 9.75967 9.08462 9.76578 9.09086 9.77L9.30086 9.925L9.22186 10.175C9.21186 10.208 9.24886 10.235 9.27686 10.215L9.48986 10.062L9.70286 10.215C9.70884 10.2201 9.71635 10.223 9.72419 10.2233C9.73202 10.2236 9.73973 10.2212 9.74607 10.2166C9.75241 10.212 9.75702 10.2054 9.75916 10.1978C9.7613 10.1903 9.76084 10.1822 9.75786 10.175L9.67786 9.925L9.88986 9.77C9.89618 9.76574 9.90094 9.75953 9.90341 9.75233C9.90589 9.74512 9.90594 9.7373 9.90356 9.73005C9.90119 9.72281 9.89651 9.71654 9.89025 9.7122C9.88399 9.70786 9.87648 9.70568 9.86886 9.706L9.60686 9.704ZM9.52386 11.379L9.60686 11.628L9.86886 11.63C9.90286 11.63 9.91686 11.674 9.88886 11.694L9.67886 11.85L9.75786 12.1C9.76084 12.1072 9.7613 12.1153 9.75916 12.1228C9.75702 12.1304 9.75241 12.137 9.74607 12.1416C9.73973 12.1462 9.73202 12.1486 9.72419 12.1483C9.71635 12.148 9.70884 12.1451 9.70286 12.14L9.48986 11.987L9.27686 12.139C9.27088 12.1441 9.26337 12.147 9.25553 12.1473C9.2477 12.1476 9.23999 12.1452 9.23365 12.1406C9.22731 12.136 9.2227 12.1294 9.22056 12.1218C9.21843 12.1143 9.21888 12.1062 9.22186 12.099L9.30186 11.849L9.08986 11.694C9.08354 11.6897 9.07878 11.6835 9.07631 11.6763C9.07383 11.6691 9.07378 11.6613 9.07616 11.6541C9.07853 11.6468 9.08321 11.6405 9.08947 11.6362C9.09574 11.6319 9.10325 11.6297 9.11086 11.63L9.37286 11.628L9.45586 11.379C9.45772 11.3714 9.46208 11.3646 9.46825 11.3598C9.47441 11.3549 9.48202 11.3523 9.48986 11.3523C9.4977 11.3523 9.50531 11.3549 9.51147 11.3598C9.51764 11.3646 9.522 11.3714 9.52386 11.379ZM10.6139 4.194L10.5309 3.944C10.5287 3.93681 10.5243 3.93051 10.5182 3.92603C10.5122 3.92155 10.5049 3.91913 10.4974 3.91913C10.4899 3.91913 10.4826 3.92155 10.4765 3.92603C10.4705 3.93051 10.4661 3.93681 10.4639 3.944L10.3809 4.194L10.1189 4.196C10.1116 4.1962 10.1046 4.19866 10.0988 4.20303C10.093 4.2074 10.0887 4.21347 10.0865 4.22039C10.0843 4.22732 10.0843 4.23475 10.0865 4.24167C10.0888 4.24859 10.0931 4.25464 10.0989 4.259L10.3089 4.415L10.2299 4.665C10.2199 4.698 10.2569 4.725 10.2839 4.705L10.4979 4.552L10.7109 4.705C10.7169 4.70958 10.7243 4.71208 10.7318 4.71212C10.7394 4.71217 10.7468 4.70976 10.7529 4.70525C10.759 4.70074 10.7634 4.69438 10.7656 4.68712C10.7678 4.67986 10.7675 4.6721 10.7649 4.665L10.6859 4.415L10.8969 4.259C10.9027 4.25464 10.907 4.24859 10.9092 4.24167C10.9114 4.23475 10.9115 4.22732 10.9093 4.22039C10.9071 4.21347 10.9028 4.2074 10.897 4.20303C10.8912 4.19866 10.8841 4.1962 10.8769 4.196L10.6139 4.194ZM10.5309 6.246L10.6139 6.496L10.8769 6.497C10.9109 6.497 10.9249 6.541 10.8969 6.561L10.6869 6.717L10.7659 6.967C10.7689 6.97425 10.7693 6.98229 10.7672 6.98983C10.765 6.99738 10.7604 7.00398 10.7541 7.0086C10.7477 7.01321 10.74 7.01556 10.7322 7.01527C10.7244 7.01498 10.7169 7.01206 10.7109 7.007L10.4979 6.854L10.2849 7.006C10.2789 7.01081 10.2716 7.01356 10.264 7.0138C10.2563 7.01405 10.2488 7.01179 10.2426 7.00737C10.2363 7.00295 10.2317 6.99661 10.2294 6.98932C10.2271 6.98203 10.2273 6.97419 10.2299 6.967L10.3099 6.717L10.0979 6.561C10.0916 6.55674 10.0868 6.55053 10.0843 6.54332C10.0819 6.53612 10.0818 6.5283 10.0842 6.52105C10.0866 6.51381 10.0912 6.50754 10.0975 6.5032C10.1038 6.49886 10.1113 6.49668 10.1189 6.497L10.3809 6.495L10.4639 6.246C10.4661 6.23881 10.4705 6.23251 10.4765 6.22803C10.4826 6.22355 10.4899 6.22113 10.4974 6.22113C10.5049 6.22113 10.5122 6.22355 10.5182 6.22803C10.5243 6.23251 10.5287 6.23881 10.5309 6.246ZM10.6139 8.682L10.5309 8.434C10.5209 8.401 10.4749 8.401 10.4639 8.434L10.3809 8.682L10.1189 8.684C10.1114 8.68391 10.104 8.68625 10.0979 8.69067C10.0918 8.6951 10.0873 8.70137 10.0851 8.70855C10.0828 8.71574 10.083 8.72346 10.0854 8.73056C10.0879 8.73767 10.0926 8.74378 10.0989 8.748L10.3089 8.904L10.2299 9.154C10.2199 9.186 10.2569 9.214 10.2839 9.194L10.4979 9.041L10.7109 9.193C10.7168 9.19737 10.7241 9.19975 10.7315 9.19977C10.7389 9.1998 10.7461 9.19748 10.7521 9.19315C10.7581 9.18881 10.7625 9.18269 10.7648 9.17566C10.7671 9.16862 10.7672 9.16104 10.7649 9.154L10.6859 8.904L10.8969 8.748C10.9031 8.74378 10.9078 8.73767 10.9103 8.73056C10.9128 8.72346 10.9129 8.71574 10.9107 8.70855C10.9084 8.70137 10.9039 8.6951 10.8979 8.69067C10.8918 8.68625 10.8844 8.68391 10.8769 8.684L10.6139 8.682ZM10.5309 10.398L10.6139 10.647L10.8769 10.649C10.9109 10.649 10.9249 10.693 10.8969 10.713L10.6869 10.868L10.7659 11.118C10.7689 11.1252 10.7693 11.1333 10.7672 11.1408C10.765 11.1484 10.7604 11.155 10.7541 11.1596C10.7477 11.1642 10.74 11.1666 10.7322 11.1663C10.7244 11.166 10.7169 11.1631 10.7109 11.158L10.4979 11.006L10.2849 11.158C10.2789 11.1631 10.2714 11.166 10.2636 11.1663C10.2557 11.1666 10.248 11.1642 10.2417 11.1596C10.2353 11.155 10.2307 11.1484 10.2286 11.1408C10.2264 11.1333 10.2269 11.1252 10.2299 11.118L10.3099 10.868L10.0979 10.713C10.0916 10.7087 10.0868 10.7025 10.0843 10.6953C10.0819 10.6881 10.0818 10.6803 10.0842 10.6731C10.0866 10.6658 10.0912 10.6595 10.0975 10.6552C10.1038 10.6509 10.1113 10.6487 10.1189 10.649L10.3809 10.647L10.4639 10.398C10.4661 10.3908 10.4705 10.3845 10.4765 10.38C10.4826 10.3756 10.4899 10.3731 10.4974 10.3731C10.5049 10.3731 10.5122 10.3756 10.5182 10.38C10.5243 10.3845 10.5287 10.3908 10.5309 10.398ZM11.6259 3.211L11.5429 2.962C11.5329 2.93 11.4869 2.93 11.4759 2.962L11.3929 3.211L11.1299 3.213C11.1224 3.21291 11.115 3.21525 11.1089 3.21967C11.1028 3.2241 11.0983 3.23037 11.0961 3.23755C11.0938 3.24474 11.094 3.25246 11.0964 3.25956C11.0989 3.26667 11.1036 3.27278 11.1099 3.277L11.3199 3.432L11.2419 3.682C11.2319 3.715 11.2679 3.742 11.2959 3.722L11.5089 3.569L11.7229 3.722C11.7289 3.72658 11.7363 3.72908 11.7438 3.72912C11.7514 3.72917 11.7588 3.72676 11.7649 3.72225C11.771 3.71774 11.7754 3.71138 11.7776 3.70412C11.7798 3.69686 11.7795 3.6891 11.7769 3.682L11.6969 3.432L11.9089 3.277C11.9151 3.27278 11.9198 3.26667 11.9223 3.25956C11.9248 3.25246 11.9249 3.24474 11.9227 3.23755C11.9204 3.23037 11.9159 3.2241 11.9099 3.21967C11.9038 3.21525 11.8964 3.21291 11.8889 3.213L11.6259 3.211ZM11.5429 5.037L11.6259 5.286L11.8879 5.288C11.9219 5.288 11.9359 5.332 11.9079 5.352L11.6979 5.508L11.7769 5.758C11.7795 5.7651 11.7798 5.77286 11.7776 5.78012C11.7754 5.78738 11.771 5.79374 11.7649 5.79825C11.7588 5.80276 11.7514 5.80517 11.7438 5.80512C11.7363 5.80508 11.7289 5.80258 11.7229 5.798L11.5089 5.645L11.2959 5.797C11.2898 5.80158 11.2825 5.80408 11.2749 5.80412C11.2673 5.80417 11.26 5.80176 11.2539 5.79725C11.2478 5.79274 11.2433 5.78638 11.2412 5.77912C11.239 5.77186 11.2393 5.7641 11.2419 5.757L11.3209 5.507L11.1099 5.352C11.1036 5.34778 11.0989 5.34167 11.0964 5.33456C11.094 5.32746 11.0938 5.31974 11.0961 5.31255C11.0983 5.30537 11.1028 5.2991 11.1089 5.29467C11.115 5.29025 11.1224 5.28791 11.1299 5.288L11.3929 5.286L11.4759 5.037C11.4859 5.005 11.5319 5.005 11.5429 5.037ZM11.6259 7.588L11.5429 7.34C11.5329 7.307 11.4869 7.307 11.4759 7.34L11.3929 7.588L11.1299 7.59C11.1224 7.58991 11.115 7.59225 11.1089 7.59667C11.1028 7.6011 11.0983 7.60737 11.0961 7.61455C11.0938 7.62174 11.094 7.62946 11.0964 7.63656C11.0989 7.64367 11.1036 7.64978 11.1099 7.654L11.3199 7.81L11.2419 8.06C11.2319 8.092 11.2679 8.12 11.2959 8.1L11.5089 7.947L11.7229 8.099C11.7288 8.10337 11.7361 8.10575 11.7435 8.10577C11.7509 8.1058 11.7581 8.10348 11.7641 8.09915C11.7701 8.09481 11.7745 8.08869 11.7768 8.08166C11.7791 8.07462 11.7792 8.06704 11.7769 8.06L11.6969 7.81L11.9089 7.654C11.9151 7.64978 11.9198 7.64367 11.9223 7.63656C11.9248 7.62946 11.9249 7.62174 11.9227 7.61455C11.9204 7.60737 11.9159 7.6011 11.9099 7.59667C11.9038 7.59225 11.8964 7.58991 11.8889 7.59L11.6259 7.588ZM11.5429 9.455L11.6259 9.704L11.8879 9.706C11.9219 9.706 11.9359 9.749 11.9079 9.77L11.6979 9.925L11.7769 10.175C11.7795 10.1821 11.7798 10.1899 11.7776 10.1971C11.7754 10.2044 11.771 10.2107 11.7649 10.2152C11.7588 10.2198 11.7514 10.2222 11.7438 10.2221C11.7363 10.2221 11.7289 10.2196 11.7229 10.215L11.5089 10.062L11.2959 10.215C11.2898 10.2196 11.2825 10.2221 11.2749 10.2221C11.2673 10.2222 11.26 10.2198 11.2539 10.2152C11.2478 10.2107 11.2433 10.2044 11.2412 10.1971C11.239 10.1899 11.2393 10.1821 11.2419 10.175L11.3209 9.925L11.1099 9.77C11.1036 9.76578 11.0989 9.75967 11.0964 9.75256C11.094 9.74546 11.0938 9.73774 11.0961 9.73055C11.0983 9.72337 11.1028 9.7171 11.1089 9.71267C11.115 9.70825 11.1224 9.70591 11.1299 9.706L11.3929 9.704L11.4759 9.455C11.4859 9.423 11.5319 9.423 11.5429 9.455ZM11.6259 11.628L11.5429 11.379C11.5407 11.3718 11.5363 11.3655 11.5302 11.361C11.5242 11.3566 11.5169 11.3541 11.5094 11.3541C11.5019 11.3541 11.4946 11.3566 11.4885 11.361C11.4825 11.3655 11.4781 11.3718 11.4759 11.379L11.3929 11.628L11.1299 11.63C11.1224 11.6299 11.115 11.6322 11.1089 11.6367C11.1028 11.6411 11.0983 11.6474 11.0961 11.6546C11.0938 11.6617 11.094 11.6695 11.0964 11.6766C11.0989 11.6837 11.1036 11.6898 11.1099 11.694L11.3199 11.85L11.2419 12.1C11.2319 12.132 11.2679 12.159 11.2959 12.14L11.5089 11.987L11.7229 12.139C11.7289 12.1436 11.7363 12.1461 11.7438 12.1461C11.7514 12.1462 11.7588 12.1438 11.7649 12.1392C11.771 12.1347 11.7754 12.1284 11.7776 12.1211C11.7798 12.1139 11.7795 12.1061 11.7769 12.099L11.6969 11.849L11.9089 11.694C11.9151 11.6898 11.9198 11.6837 11.9223 11.6766C11.9248 11.6695 11.9249 11.6617 11.9227 11.6546C11.9204 11.6474 11.9159 11.6411 11.9099 11.6367C11.9038 11.6322 11.8964 11.6299 11.8889 11.63L11.6259 11.628Z" fill="#F5F5F5"/>
</svg>
