<svg width="25" height="24" viewBox="0 0 25 24" fill="none" xmlns="http://www.w3.org/2000/svg">
<path fill-rule="evenodd" clip-rule="evenodd" d="M5.236 2H3.781C2.91082 2 2.07629 2.34568 1.46098 2.96098C0.845676 3.57629 0.5 4.41082 0.5 5.281V13.72C0.500265 14.59 0.846058 15.4243 1.46134 16.0394C2.07661 16.6545 2.911 17 3.781 17H12.219C13.0892 17 13.9237 16.6543 14.539 16.039C15.1543 15.4237 15.5 14.5892 15.5 13.719V5.28C15.4997 4.41 15.1539 3.57572 14.5387 2.96063C13.9234 2.34554 13.089 2 12.219 2H5.236Z" fill="#2841C1"/>
<path fill-rule="evenodd" clip-rule="evenodd" d="M8 4.763V5.158H4.842V2H5.237V4.396L8 2.586V2.97L5.237 4.763H5.962L8 3.44V4L6.836 4.763H8ZM3.657 2.003C3.52502 2.00776 3.39345 2.02045 3.263 2.041V4.396L1.313 3.119C1.19561 3.25284 1.08926 3.39597 0.995 3.547L2.868 4.763H2.143L0.806 3.895C0.769488 3.97364 0.736129 4.0537 0.706 4.135L1.663 4.763H0.54C0.52 4.893 0.507 5.024 0.502 5.158H3.657V2.003ZM3.657 9.5H3.263V7.104L0.5 8.914V8.524L3.252 6.737H2.527L0.5 8.053V7.499L1.663 6.737H0.5V6.342H3.658L3.657 9.5ZM5.237 9.5H4.842V6.342H8V6.737H6.836L8 7.499V7.859L6.27 6.737H5.546L8 8.33V8.915L5.237 7.105V9.5Z" fill="#F6F6F6"/>
<path fill-rule="evenodd" clip-rule="evenodd" d="M3.658 9.5H4.842V6.342H8V5.158H4.842V2H3.782C3.74 2 3.699 2.001 3.658 2.003V5.158H0.503C0.501251 5.19864 0.500251 5.23932 0.5 5.28V6.341H3.658V9.5ZM2.528 6.737L0.5 8.053V8.523L3.252 6.737H2.527H2.528ZM7.998 8.33L5.545 6.737H6.27L8 7.859V8.329L7.998 8.33ZM2.867 4.763L0.994 3.547C0.924 3.659 0.861 3.775 0.804 3.895L2.142 4.763H2.867ZM7.999 3.44L5.961 4.763H5.236L8 2.97V3.441L7.999 3.44Z" fill="#FF4B55"/>
<path d="M11.09 14.9271C11.0792 14.9269 11.0687 14.9234 11.06 14.9171L10.754 14.6981L10.448 14.9181C10.4391 14.924 10.4286 14.9271 10.4178 14.9269C10.4071 14.9267 10.3967 14.9233 10.388 14.9171C10.3789 14.9108 10.3721 14.9018 10.3685 14.8914C10.3649 14.8809 10.3647 14.8696 10.368 14.8591L10.482 14.5011L10.179 14.2781C10.1706 14.2715 10.1644 14.2626 10.1612 14.2524C10.1581 14.2422 10.1582 14.2313 10.1614 14.2211C10.1647 14.2109 10.171 14.202 10.1795 14.1956C10.1881 14.1892 10.1983 14.1855 10.209 14.1851L10.586 14.1811L10.705 13.8241C10.7085 13.8139 10.7151 13.8051 10.7239 13.7988C10.7327 13.7925 10.7432 13.7891 10.754 13.7891C10.776 13.7891 10.796 13.8031 10.803 13.8241L10.922 14.1811L11.298 14.1841C11.3089 14.1842 11.3195 14.1878 11.3283 14.1943C11.3371 14.2008 11.3436 14.2099 11.3469 14.2203C11.3502 14.2307 11.3502 14.2419 11.3468 14.2522C11.3434 14.2626 11.3368 14.2717 11.328 14.2781L11.026 14.5011L11.139 14.8591C11.1415 14.8669 11.1422 14.8751 11.1409 14.8832C11.1396 14.8912 11.1365 14.8989 11.1317 14.9055C11.1269 14.9121 11.1207 14.9175 11.1134 14.9213C11.1062 14.925 11.0982 14.927 11.09 14.9271Z" fill="#FF4B55"/>
<path d="M10.7531 13.8401L10.8831 14.2321L11.2971 14.2351L10.9641 14.4811L11.0891 14.8751L10.7531 14.6351L10.4171 14.8751L10.5411 14.4811L10.2091 14.2351L10.6221 14.2321L10.7521 13.8401H10.7531ZM10.7531 13.7371C10.7315 13.7372 10.7105 13.7439 10.6929 13.7565C10.6754 13.769 10.6622 13.7867 10.6551 13.8071L10.5471 14.1291L10.2081 14.1321C10.1862 14.132 10.1649 14.1389 10.1472 14.1518C10.1295 14.1646 10.1163 14.1828 10.1096 14.2036C10.103 14.2245 10.1031 14.2469 10.11 14.2677C10.1169 14.2884 10.1303 14.3064 10.1481 14.3191L10.4201 14.5201L10.3181 14.8441C10.3113 14.8648 10.3113 14.8872 10.318 14.908C10.3248 14.9288 10.3379 14.9469 10.3556 14.9597C10.3733 14.9725 10.3946 14.9793 10.4165 14.9792C10.4383 14.9791 10.4595 14.9721 10.4771 14.9591L10.7531 14.7621L11.0291 14.9591C11.0466 14.9716 11.0676 14.9784 11.0891 14.9784C11.1106 14.9784 11.1316 14.9716 11.1491 14.9591C11.167 14.9465 11.1803 14.9286 11.1874 14.908C11.1944 14.8873 11.1946 14.8649 11.1881 14.8441L11.0851 14.5201L11.3581 14.3191C11.376 14.3064 11.3893 14.2884 11.3962 14.2677C11.4031 14.2469 11.4033 14.2245 11.3966 14.2036C11.3899 14.1828 11.3767 14.1646 11.359 14.1518C11.3413 14.1389 11.32 14.132 11.2981 14.1321L10.9581 14.1291L10.8511 13.8071C10.8441 13.7867 10.8308 13.769 10.8133 13.7565C10.7957 13.7439 10.7747 13.7372 10.7531 13.7371Z" fill="#F5F5F5"/>
<path d="M11.0901 9.8399C11.0793 9.83976 11.0688 9.83626 11.0601 9.8299L10.7541 9.61191L10.4481 9.8309C10.4393 9.8371 10.4289 9.84042 10.4181 9.84042C10.4074 9.84042 10.3969 9.8371 10.3881 9.8309C10.3791 9.8246 10.3722 9.81559 10.3686 9.80516C10.365 9.79473 10.3649 9.78344 10.3681 9.7729L10.4821 9.4139L10.1791 9.1909C10.1704 9.18433 10.164 9.1752 10.1608 9.1648C10.1575 9.15439 10.1577 9.14324 10.1611 9.13291C10.1645 9.12252 10.171 9.11345 10.1798 9.10699C10.1886 9.10053 10.1992 9.097 10.2101 9.0969L10.5861 9.0939L10.7051 8.7379C10.7085 8.72751 10.715 8.71845 10.7238 8.71199C10.7326 8.70553 10.7432 8.702 10.7541 8.7019C10.7761 8.7019 10.7961 8.7169 10.8031 8.7379L10.9221 9.0939L11.2981 9.0969C11.3201 9.0969 11.3401 9.11191 11.3471 9.13291C11.3541 9.15391 11.3471 9.1769 11.3281 9.1909L11.0261 9.4139L11.1391 9.7729C11.1414 9.7806 11.1419 9.78874 11.1406 9.79667C11.1392 9.8046 11.136 9.8121 11.1313 9.8186C11.1265 9.82509 11.1204 9.83041 11.1132 9.8341C11.1061 9.8378 11.0982 9.83977 11.0901 9.8399Z" fill="#FF4B55"/>
<path d="M10.7531 8.7539L10.8831 9.1459L11.2971 9.1489L10.9641 9.3939L11.0891 9.7879L10.7531 9.5479L10.4171 9.7879L10.5411 9.3939L10.2091 9.1489L10.6221 9.1459L10.7521 8.7539H10.7531ZM10.7531 8.6499C10.7315 8.64996 10.7105 8.65673 10.6929 8.66927C10.6754 8.68182 10.6622 8.69951 10.6551 8.7199L10.5471 9.0429L10.2081 9.0449C10.1862 9.04482 10.1649 9.05171 10.1472 9.06457C10.1295 9.07743 10.1163 9.0956 10.1096 9.11643C10.103 9.13727 10.1031 9.1597 10.11 9.18046C10.1169 9.20122 10.1303 9.21924 10.1481 9.2319L10.4201 9.4329L10.3181 9.7569C10.312 9.77755 10.3124 9.79959 10.3194 9.81998C10.3263 9.84037 10.3394 9.8581 10.3569 9.87072C10.3743 9.88335 10.3953 9.89024 10.4168 9.89045C10.4383 9.89066 10.4594 9.88418 10.4771 9.8719L10.7531 9.6749L11.0291 9.8719C11.0467 9.88486 11.0679 9.8919 11.0898 9.892C11.1116 9.8921 11.1329 9.88526 11.1506 9.87246C11.1683 9.85966 11.1815 9.84157 11.1882 9.8208C11.195 9.80003 11.1949 9.77765 11.1881 9.7569L11.0851 9.4329L11.3581 9.2319C11.376 9.21924 11.3893 9.20122 11.3962 9.18046C11.4031 9.1597 11.4033 9.13727 11.3966 9.11643C11.3899 9.0956 11.3767 9.07743 11.359 9.06457C11.3413 9.05171 11.32 9.04482 11.2981 9.0449L10.9581 9.0429L10.8511 8.7209C10.8441 8.70051 10.8308 8.68282 10.8133 8.67027C10.7957 8.65773 10.7747 8.65096 10.7531 8.6509V8.6499Z" fill="#F5F5F5"/>
<path d="M12.9 11.7479C12.8892 11.7478 12.8787 11.7443 12.87 11.7379L12.564 11.5199L12.258 11.7389C12.2492 11.7451 12.2387 11.7484 12.228 11.7484C12.2172 11.7484 12.2068 11.7451 12.198 11.7389C12.1889 11.7326 12.1821 11.7236 12.1785 11.7132C12.1749 11.7027 12.1747 11.6914 12.178 11.6809L12.292 11.3219L11.99 11.0989C11.9811 11.0925 11.9745 11.0834 11.9711 11.073C11.9677 11.0626 11.9676 11.0513 11.971 11.0409C11.9744 11.0304 11.9811 11.0212 11.9901 11.0147C11.9991 11.0082 12.0099 11.0048 12.021 11.0049L12.396 11.0029L12.516 10.6459C12.5196 10.6358 12.5262 10.627 12.535 10.6208C12.5438 10.6146 12.5543 10.6113 12.565 10.6113C12.5757 10.6113 12.5862 10.6146 12.595 10.6208C12.6038 10.627 12.6104 10.6358 12.614 10.6459L12.732 11.0029L13.109 11.0049C13.1199 11.005 13.1305 11.0086 13.1393 11.0151C13.1481 11.0216 13.1546 11.0307 13.1579 11.0411C13.1612 11.0515 13.1612 11.0627 13.1578 11.073C13.1544 11.0834 13.1478 11.0925 13.139 11.0989L12.836 11.3219L12.95 11.6809C12.9523 11.6887 12.9528 11.6969 12.9514 11.7049C12.95 11.7129 12.9467 11.7205 12.9419 11.727C12.937 11.7335 12.9307 11.7388 12.9234 11.7424C12.9161 11.7461 12.9081 11.7479 12.9 11.7479Z" fill="#FF4B55"/>
<path d="M12.563 10.6621L12.694 11.0541L13.107 11.0571L12.775 11.3031L12.899 11.6961L12.563 11.4561L12.227 11.6961L12.352 11.3031L12.02 11.0571L12.433 11.0541L12.563 10.6621ZM12.563 10.5591C12.5414 10.559 12.5203 10.5657 12.5027 10.5783C12.4851 10.5908 12.472 10.6086 12.465 10.6291L12.358 10.9511L12.018 10.9541C11.9964 10.9543 11.9754 10.9613 11.958 10.9741C11.9406 10.9869 11.9276 11.0049 11.921 11.0255C11.9144 11.0461 11.9144 11.0682 11.921 11.0888C11.9277 11.1093 11.9406 11.1273 11.958 11.1401L12.231 11.3421L12.129 11.6651C12.1222 11.6858 12.122 11.7081 12.1286 11.7288C12.1353 11.7496 12.1483 11.7677 12.1658 11.7806C12.1834 11.7935 12.2046 11.8005 12.2263 11.8006C12.2481 11.8007 12.2694 11.7938 12.287 11.7811L12.563 11.5841L12.839 11.7811C12.8566 11.7947 12.8782 11.8022 12.9004 11.8026C12.9227 11.8029 12.9444 11.796 12.9624 11.783C12.9804 11.7699 12.9937 11.7514 13.0003 11.7301C13.0069 11.7089 13.0065 11.6861 12.999 11.6651L12.896 11.3421L13.169 11.1401C13.1865 11.1273 13.1994 11.1093 13.2061 11.0888C13.2127 11.0682 13.2127 11.0461 13.2061 11.0255C13.1994 11.0049 13.1865 10.9869 13.1691 10.9741C13.1517 10.9613 13.1306 10.9543 13.109 10.9541L12.769 10.9511L12.662 10.6291C12.6551 10.6085 12.6417 10.5906 12.6239 10.578C12.6061 10.5654 12.5848 10.5588 12.563 10.5591Z" fill="#F5F5F5"/>
<path d="M9.27989 12.2659C9.2691 12.2658 9.25861 12.2623 9.24989 12.2559L8.94289 12.0369L8.63689 12.2569C8.62802 12.2633 8.61734 12.2668 8.60639 12.2668C8.59543 12.2668 8.58476 12.2633 8.57589 12.2569C8.56702 12.2504 8.56041 12.2414 8.557 12.231C8.55359 12.2206 8.55355 12.2093 8.55689 12.1989L8.67089 11.8389L8.36889 11.6159C8.36022 11.6095 8.35373 11.6006 8.35033 11.5904C8.34692 11.5802 8.34677 11.5692 8.34989 11.5589C8.35325 11.5485 8.35979 11.5395 8.36858 11.533C8.37738 11.5265 8.38798 11.523 8.39889 11.5229L8.77489 11.5199L8.89489 11.1629C8.89836 11.1529 8.90482 11.1441 8.9134 11.1379C8.92198 11.1316 8.93227 11.1281 8.94289 11.1279C8.96589 11.1279 8.98489 11.1419 8.99289 11.1629L9.11089 11.5199L9.48789 11.5229C9.50989 11.5229 9.52889 11.5369 9.53589 11.5589C9.54289 11.5789 9.53589 11.6029 9.51789 11.6159L9.21489 11.8399L9.32889 12.1979C9.33143 12.2057 9.33207 12.2141 9.33075 12.2222C9.32943 12.2304 9.32619 12.2381 9.32131 12.2447C9.31643 12.2513 9.31003 12.2567 9.30266 12.2604C9.29528 12.2641 9.28714 12.266 9.27889 12.2659H9.27989Z" fill="#FF4B55"/>
<path d="M8.94203 11.1799L9.07303 11.5709L9.48603 11.5739L9.15403 11.8199L9.27803 12.2139L8.94203 11.9739L8.60603 12.2139L8.73103 11.8199L8.39803 11.5739L8.81203 11.5709L8.94203 11.1789V11.1799ZM8.94203 11.0759C8.92045 11.076 8.89943 11.0827 8.88187 11.0953C8.86431 11.1078 8.85109 11.1255 8.84403 11.1459L8.73703 11.4679L8.39703 11.4709C8.37546 11.4714 8.35459 11.4787 8.33731 11.4916C8.32004 11.5046 8.30722 11.5225 8.30063 11.5431C8.29403 11.5636 8.294 11.5857 8.30052 11.6063C8.30704 11.6269 8.3198 11.6449 8.33703 11.6579L8.61003 11.8589L8.50703 12.1819C8.49959 12.2029 8.49913 12.2257 8.50573 12.2469C8.51233 12.2682 8.52563 12.2867 8.54364 12.2998C8.56165 12.3128 8.5834 12.3197 8.60564 12.3194C8.62788 12.319 8.64942 12.3115 8.66703 12.2979L8.94203 12.1009L9.21803 12.2979C9.23562 12.3107 9.2568 12.3175 9.27853 12.3175C9.30026 12.3175 9.32144 12.3107 9.33903 12.2979C9.3569 12.2851 9.37023 12.267 9.37707 12.2461C9.3839 12.2253 9.38389 12.2028 9.37703 12.1819L9.27503 11.8589L9.54803 11.6579C9.56595 11.6452 9.57934 11.6271 9.58623 11.6062C9.59313 11.5854 9.59317 11.5628 9.58636 11.542C9.57955 11.5211 9.56623 11.5029 9.54836 11.4901C9.53049 11.4773 9.509 11.4706 9.48703 11.4709L9.14703 11.4679L9.04003 11.1459C9.03298 11.1255 9.01975 11.1078 9.00219 11.0953C8.98464 11.0827 8.96361 11.076 8.94203 11.0759Z" fill="#F5F5F5"/>
<path d="M21.5 7H12.5V22H21.5V7Z" fill="#F6F6F6"/>
<path fill-rule="evenodd" clip-rule="evenodd" d="M12.637 7C12.591 7 12.545 7.001 12.5 7.003L12.637 7ZM12.5 21.996C10.831 21.921 9.5 20.482 9.5 18.718V10.281C9.5 8.517 10.831 7.078 12.5 7.003V21.996ZM12.637 21.999L12.5 21.996C12.545 21.998 12.591 21.999 12.637 21.999ZM21.364 7L21.5 7.003C21.4547 7.00099 21.4094 6.99999 21.364 7ZM21.5 7.003C23.17 7.077 24.501 8.516 24.501 10.281V18.718C24.501 20.53 23.097 21.999 21.364 21.999L21.499 21.996L21.5 7.003ZM20.104 14.758L18.569 15.635C18.492 15.679 18.4332 15.7489 18.403 15.8322C18.3728 15.9155 18.3731 16.0069 18.404 16.09L18.536 16.44L17.22 16.328C17.2028 16.3266 17.1855 16.3288 17.1693 16.3346C17.153 16.3403 17.1382 16.3494 17.1257 16.3613C17.1132 16.3732 17.1034 16.3877 17.0969 16.4036C17.0904 16.4196 17.0874 16.4368 17.088 16.454L17.129 17.861H16.87L16.912 16.454C16.9126 16.4367 16.9096 16.4194 16.903 16.4034C16.8965 16.3873 16.8866 16.3729 16.874 16.3609C16.8614 16.349 16.8464 16.3399 16.83 16.3342C16.8137 16.3285 16.7963 16.3264 16.779 16.328L15.464 16.441L15.595 16.09C15.6262 16.007 15.6268 15.9157 15.5967 15.8323C15.5667 15.7489 15.5079 15.679 15.431 15.635L13.897 14.758L14.249 14.582C14.2971 14.5577 14.3364 14.5191 14.3615 14.4714C14.3866 14.4237 14.3962 14.3694 14.389 14.316L14.275 13.457L14.925 13.647C14.959 13.6567 14.9946 13.6594 15.0296 13.6548C15.0646 13.6502 15.0983 13.6386 15.1287 13.6205C15.159 13.6024 15.1854 13.5783 15.206 13.5497C15.2267 13.521 15.2414 13.4885 15.249 13.454L15.311 13.173L15.921 13.887C16.006 13.986 16.167 13.91 16.145 13.782L15.885 12.267L16.283 12.376C16.3397 12.3915 16.4 12.3873 16.4539 12.3641C16.5079 12.3408 16.5524 12.2999 16.58 12.248L17 11.461L17.42 12.248C17.477 12.355 17.6 12.408 17.717 12.376L18.116 12.266L17.855 13.782C17.833 13.91 17.995 13.986 18.079 13.887L18.689 13.173L18.751 13.453C18.7586 13.4876 18.7733 13.5203 18.794 13.549C18.8148 13.5777 18.8412 13.6018 18.8717 13.6199C18.9021 13.638 18.936 13.6497 18.9711 13.6541C19.0063 13.6586 19.042 13.6559 19.076 13.646L19.726 13.457L19.611 14.317C19.604 14.3702 19.6137 14.4243 19.6388 14.4718C19.6639 14.5193 19.7031 14.5578 19.751 14.582L20.104 14.758Z" fill="#FB4B4E"/>
</svg>
