<svg width="24" height="24" viewBox="0 0 24 24" fill="none" xmlns="http://www.w3.org/2000/svg">
<g clip-path="url(#clip0_443_929)">
<mask id="mask0_443_929" style="mask-type:luminance" maskUnits="userSpaceOnUse" x="0" y="0" width="24" height="24">
<path d="M24 0H0V24H24V0Z" fill="white"/>
</mask>
<g mask="url(#mask0_443_929)">
<path fill-rule="evenodd" clip-rule="evenodd" d="M4.736 2H3.281C2.41082 2 1.57629 2.34568 0.960983 2.96098C0.345676 3.57629 0 4.41082 0 5.281V13.72C0.000265164 14.59 0.346058 15.4243 0.961336 16.0394C1.57661 16.6545 2.411 17 3.281 17H11.719C12.5892 17 13.4237 16.6543 14.039 16.039C14.6543 15.4237 15 14.5892 15 13.719V5.28C14.9997 4.41 14.6539 3.57572 14.0387 2.96063C13.4234 2.34554 12.589 2 11.719 2H4.736Z" fill="#2841C1"/>
<path fill-rule="evenodd" clip-rule="evenodd" d="M7.5 4.763V5.158H4.342V2H4.737V4.396L7.5 2.586V2.97L4.737 4.763H5.462L7.5 3.44V4L6.336 4.763H7.5ZM3.157 2.003C3.02502 2.00776 2.89345 2.02045 2.763 2.041V4.396L0.813 3.119C0.695608 3.25284 0.58926 3.39597 0.495 3.547L2.368 4.763H1.643L0.306 3.895C0.269488 3.97364 0.236129 4.0537 0.206 4.135L1.163 4.763H0.04C0.02 4.893 0.007 5.024 0.002 5.158H3.157V2.003ZM3.157 9.5H2.763V7.104L0 8.914V8.524L2.752 6.737H2.027L0 8.053V7.499L1.163 6.737H0V6.342H3.158L3.157 9.5ZM4.737 9.5H4.342V6.342H7.5V6.737H6.336L7.5 7.499V7.859L5.77 6.737H5.046L7.5 8.33V8.915L4.737 7.105V9.5Z" fill="#F6F6F6"/>
<path fill-rule="evenodd" clip-rule="evenodd" d="M3.158 9.5H4.342V6.342H7.5V5.158H4.342V2H3.282C3.24 2 3.199 2.001 3.158 2.003V5.158H0.003C0.00125125 5.19864 0.000251084 5.23932 0 5.28V6.341H3.158V9.5ZM2.028 6.737L0 8.053V8.523L2.752 6.737H2.027H2.028ZM7.498 8.33L5.045 6.737H5.77L7.5 7.859V8.329L7.498 8.33ZM2.367 4.763L0.494 3.547C0.424 3.659 0.361 3.775 0.304 3.895L1.642 4.763H2.367ZM7.499 3.44L5.461 4.763H4.736L7.5 2.97V3.441L7.499 3.44Z" fill="#FF4B55"/>
<path d="M10.59 14.9271C10.5792 14.9269 10.5687 14.9234 10.56 14.9171L10.254 14.6981L9.948 14.9181C9.93907 14.924 9.92855 14.9271 9.91784 14.9269C9.90713 14.9267 9.89673 14.9233 9.888 14.9171C9.87894 14.9108 9.87213 14.9018 9.86853 14.8914C9.86494 14.8809 9.86475 14.8696 9.868 14.8591L9.982 14.5011L9.679 14.2781C9.67058 14.2715 9.66438 14.2626 9.66124 14.2524C9.6581 14.2422 9.65817 14.2313 9.66145 14.2211C9.66472 14.2109 9.67104 14.202 9.67955 14.1956C9.68805 14.1892 9.69834 14.1855 9.709 14.1851L10.086 14.1811L10.205 13.8241C10.2085 13.8139 10.2151 13.8051 10.2239 13.7988C10.2327 13.7925 10.2432 13.7891 10.254 13.7891C10.276 13.7891 10.296 13.8031 10.303 13.8241L10.422 14.1811L10.798 14.1841C10.8089 14.1842 10.8195 14.1878 10.8283 14.1943C10.8371 14.2008 10.8436 14.2099 10.8469 14.2203C10.8502 14.2307 10.8502 14.2419 10.8468 14.2522C10.8434 14.2626 10.8368 14.2717 10.828 14.2781L10.526 14.5011L10.639 14.8591C10.6415 14.8669 10.6422 14.8751 10.6409 14.8832C10.6396 14.8912 10.6365 14.8989 10.6317 14.9055C10.6269 14.9121 10.6207 14.9175 10.6134 14.9213C10.6062 14.925 10.5982 14.927 10.59 14.9271Z" fill="#FF4B55"/>
<path d="M10.2529 13.8401L10.3829 14.2321L10.7969 14.2351L10.4639 14.4811L10.5889 14.8751L10.2529 14.6351L9.91689 14.8751L10.0409 14.4811L9.70889 14.2351L10.1219 14.2321L10.2519 13.8401H10.2529ZM10.2529 13.7371C10.2313 13.7372 10.2103 13.7439 10.1927 13.7565C10.1752 13.769 10.162 13.7867 10.1549 13.8071L10.0469 14.1291L9.70789 14.1321C9.68601 14.132 9.66466 14.1389 9.64696 14.1518C9.62925 14.1646 9.6161 14.1828 9.60942 14.2036C9.60273 14.2245 9.60286 14.2469 9.60977 14.2677C9.61669 14.2884 9.63004 14.3064 9.64789 14.3191L9.91989 14.5201L9.81789 14.8441C9.81108 14.8648 9.81105 14.8872 9.81779 14.908C9.82453 14.9288 9.8377 14.9469 9.8554 14.9597C9.87309 14.9725 9.8944 14.9793 9.91623 14.9792C9.93807 14.9791 9.95931 14.9721 9.97689 14.9591L10.2529 14.7621L10.5289 14.9591C10.5464 14.9716 10.5674 14.9784 10.5889 14.9784C10.6104 14.9784 10.6314 14.9716 10.6489 14.9591C10.6668 14.9465 10.6801 14.9286 10.6872 14.908C10.6942 14.8873 10.6944 14.8649 10.6879 14.8441L10.5849 14.5201L10.8579 14.3191C10.8758 14.3064 10.8891 14.2884 10.896 14.2677C10.9029 14.2469 10.9031 14.2245 10.8964 14.2036C10.8897 14.1828 10.8765 14.1646 10.8588 14.1518C10.8411 14.1389 10.8198 14.132 10.7979 14.1321L10.4579 14.1291L10.3509 13.8071C10.3439 13.7867 10.3306 13.769 10.3131 13.7565C10.2955 13.7439 10.2745 13.7372 10.2529 13.7371Z" fill="#F5F5F5"/>
<path d="M10.5899 9.8399C10.5791 9.83976 10.5686 9.83626 10.5599 9.8299L10.2539 9.61191L9.94789 9.8309C9.93911 9.8371 9.92863 9.84042 9.91789 9.84042C9.90714 9.84042 9.89666 9.8371 9.88789 9.8309C9.87883 9.8246 9.87202 9.81559 9.86842 9.80516C9.86483 9.79473 9.86464 9.78344 9.86789 9.7729L9.98189 9.4139L9.67889 9.1909C9.67019 9.18433 9.66377 9.1752 9.66054 9.1648C9.65731 9.15439 9.65743 9.14324 9.66089 9.13291C9.66425 9.12252 9.67078 9.11345 9.67958 9.10699C9.68837 9.10053 9.69898 9.097 9.70989 9.0969L10.0859 9.0939L10.2049 8.7379C10.2083 8.72751 10.2148 8.71845 10.2236 8.71199C10.2324 8.70553 10.243 8.702 10.2539 8.7019C10.2759 8.7019 10.2959 8.7169 10.3029 8.7379L10.4219 9.0939L10.7979 9.0969C10.8199 9.0969 10.8399 9.11191 10.8469 9.13291C10.8539 9.15391 10.8469 9.1769 10.8279 9.1909L10.5259 9.4139L10.6389 9.7729C10.6412 9.7806 10.6417 9.78874 10.6404 9.79667C10.639 9.8046 10.6358 9.8121 10.6311 9.8186C10.6263 9.82509 10.6202 9.83041 10.613 9.8341C10.6059 9.8378 10.598 9.83977 10.5899 9.8399Z" fill="#FF4B55"/>
<path d="M10.2529 8.7539L10.3829 9.1459L10.7969 9.1489L10.4639 9.3939L10.5889 9.7879L10.2529 9.5479L9.91689 9.7879L10.0409 9.3939L9.70889 9.1489L10.1219 9.1459L10.2519 8.7539H10.2529ZM10.2529 8.6499C10.2313 8.64996 10.2103 8.65673 10.1927 8.66927C10.1752 8.68182 10.162 8.69951 10.1549 8.7199L10.0469 9.0429L9.70789 9.0449C9.68601 9.04482 9.66466 9.05171 9.64696 9.06457C9.62925 9.07743 9.6161 9.0956 9.60942 9.11643C9.60273 9.13727 9.60286 9.1597 9.60977 9.18046C9.61669 9.20122 9.63004 9.21924 9.64789 9.2319L9.91989 9.4329L9.81789 9.7569C9.81177 9.77755 9.81221 9.79959 9.81915 9.81998C9.8261 9.84037 9.8392 9.8581 9.85665 9.87072C9.8741 9.88335 9.89505 9.89024 9.91658 9.89045C9.93812 9.89066 9.95919 9.88418 9.97689 9.8719L10.2529 9.6749L10.5289 9.8719C10.5465 9.88486 10.5677 9.8919 10.5896 9.892C10.6114 9.8921 10.6327 9.88526 10.6504 9.87246C10.6681 9.85966 10.6813 9.84157 10.688 9.8208C10.6948 9.80003 10.6947 9.77765 10.6879 9.7569L10.5849 9.4329L10.8579 9.2319C10.8758 9.21924 10.8891 9.20122 10.896 9.18046C10.9029 9.1597 10.9031 9.13727 10.8964 9.11643C10.8897 9.0956 10.8765 9.07743 10.8588 9.06457C10.8411 9.05171 10.8198 9.04482 10.7979 9.0449L10.4579 9.0429L10.3509 8.7209C10.3439 8.70051 10.3306 8.68282 10.3131 8.67027C10.2955 8.65773 10.2745 8.65096 10.2529 8.6509V8.6499Z" fill="#F5F5F5"/>
<path d="M12.4 11.7479C12.3892 11.7478 12.3787 11.7443 12.37 11.7379L12.064 11.5199L11.758 11.7389C11.7492 11.7451 11.7387 11.7484 11.728 11.7484C11.7172 11.7484 11.7068 11.7451 11.698 11.7389C11.6889 11.7326 11.6821 11.7236 11.6785 11.7132C11.6749 11.7027 11.6747 11.6914 11.678 11.6809L11.792 11.3219L11.49 11.0989C11.4811 11.0925 11.4745 11.0834 11.4711 11.073C11.4677 11.0626 11.4676 11.0513 11.471 11.0409C11.4744 11.0304 11.4811 11.0212 11.4901 11.0147C11.4991 11.0082 11.5099 11.0048 11.521 11.0049L11.896 11.0029L12.016 10.6459C12.0196 10.6358 12.0262 10.627 12.035 10.6208C12.0438 10.6146 12.0543 10.6113 12.065 10.6113C12.0757 10.6113 12.0862 10.6146 12.095 10.6208C12.1038 10.627 12.1104 10.6358 12.114 10.6459L12.232 11.0029L12.609 11.0049C12.6199 11.005 12.6305 11.0086 12.6393 11.0151C12.6481 11.0216 12.6546 11.0307 12.6579 11.0411C12.6612 11.0515 12.6612 11.0627 12.6578 11.073C12.6544 11.0834 12.6478 11.0925 12.639 11.0989L12.336 11.3219L12.45 11.6809C12.4523 11.6887 12.4528 11.6969 12.4514 11.7049C12.45 11.7129 12.4467 11.7205 12.4419 11.727C12.437 11.7335 12.4307 11.7388 12.4234 11.7424C12.4161 11.7461 12.4081 11.7479 12.4 11.7479Z" fill="#FF4B55"/>
<path d="M12.063 10.6621L12.194 11.0541L12.607 11.0571L12.275 11.3031L12.399 11.6961L12.063 11.4561L11.727 11.6961L11.852 11.3031L11.52 11.0571L11.933 11.0541L12.063 10.6621ZM12.063 10.5591C12.0414 10.559 12.0203 10.5657 12.0027 10.5783C11.9851 10.5908 11.972 10.6086 11.965 10.6291L11.858 10.9511L11.518 10.9541C11.4964 10.9543 11.4754 10.9613 11.458 10.9741C11.4406 10.9869 11.4276 11.0049 11.421 11.0255C11.4144 11.0461 11.4144 11.0682 11.421 11.0888C11.4277 11.1093 11.4406 11.1273 11.458 11.1401L11.731 11.3421L11.629 11.6651C11.6222 11.6858 11.622 11.7081 11.6286 11.7288C11.6353 11.7496 11.6483 11.7677 11.6658 11.7806C11.6834 11.7935 11.7046 11.8005 11.7263 11.8006C11.7481 11.8007 11.7694 11.7938 11.787 11.7811L12.063 11.5841L12.339 11.7811C12.3566 11.7947 12.3782 11.8022 12.4004 11.8026C12.4227 11.8029 12.4444 11.796 12.4624 11.783C12.4804 11.7699 12.4937 11.7514 12.5003 11.7301C12.5069 11.7089 12.5065 11.6861 12.499 11.6651L12.396 11.3421L12.669 11.1401C12.6865 11.1273 12.6994 11.1093 12.7061 11.0888C12.7127 11.0682 12.7127 11.0461 12.7061 11.0255C12.6994 11.0049 12.6865 10.9869 12.6691 10.9741C12.6517 10.9613 12.6306 10.9543 12.609 10.9541L12.269 10.9511L12.162 10.6291C12.1551 10.6085 12.1417 10.5906 12.1239 10.578C12.1061 10.5654 12.0848 10.5588 12.063 10.5591Z" fill="#F5F5F5"/>
<path d="M8.77989 12.2659C8.7691 12.2658 8.75861 12.2623 8.74989 12.2559L8.44289 12.0369L8.13689 12.2569C8.12802 12.2633 8.11734 12.2668 8.10639 12.2668C8.09543 12.2668 8.08476 12.2633 8.07589 12.2569C8.06702 12.2504 8.06041 12.2414 8.057 12.231C8.05359 12.2206 8.05355 12.2093 8.05689 12.1989L8.17089 11.8389L7.86889 11.6159C7.86022 11.6095 7.85373 11.6006 7.85033 11.5904C7.84692 11.5802 7.84677 11.5692 7.84989 11.5589C7.85325 11.5485 7.85979 11.5395 7.86858 11.533C7.87738 11.5265 7.88798 11.523 7.89889 11.5229L8.27489 11.5199L8.39489 11.1629C8.39836 11.1529 8.40482 11.1441 8.4134 11.1379C8.42198 11.1316 8.43227 11.1281 8.44289 11.1279C8.46589 11.1279 8.48489 11.1419 8.49289 11.1629L8.61089 11.5199L8.98789 11.5229C9.00989 11.5229 9.02889 11.5369 9.03589 11.5589C9.04289 11.5789 9.03589 11.6029 9.01789 11.6159L8.71489 11.8399L8.82889 12.1979C8.83143 12.2057 8.83207 12.2141 8.83075 12.2222C8.82943 12.2304 8.82619 12.2381 8.82131 12.2447C8.81643 12.2513 8.81003 12.2567 8.80266 12.2604C8.79528 12.2641 8.78714 12.266 8.77889 12.2659H8.77989Z" fill="#FF4B55"/>
<path d="M8.44203 11.1799L8.57303 11.5709L8.98603 11.5739L8.65403 11.8199L8.77803 12.2139L8.44203 11.9739L8.10603 12.2139L8.23103 11.8199L7.89803 11.5739L8.31203 11.5709L8.44203 11.1789V11.1799ZM8.44203 11.0759C8.42045 11.076 8.39943 11.0827 8.38187 11.0953C8.36431 11.1078 8.35109 11.1255 8.34403 11.1459L8.23703 11.4679L7.89703 11.4709C7.87546 11.4714 7.85459 11.4787 7.83731 11.4916C7.82004 11.5046 7.80722 11.5225 7.80063 11.5431C7.79403 11.5636 7.794 11.5857 7.80052 11.6063C7.80704 11.6269 7.8198 11.6449 7.83703 11.6579L8.11003 11.8589L8.00703 12.1819C7.99959 12.2029 7.99913 12.2257 8.00573 12.2469C8.01233 12.2682 8.02563 12.2867 8.04364 12.2998C8.06165 12.3128 8.0834 12.3197 8.10564 12.3194C8.12788 12.319 8.14942 12.3115 8.16703 12.2979L8.44203 12.1009L8.71803 12.2979C8.73562 12.3107 8.7568 12.3175 8.77853 12.3175C8.80026 12.3175 8.82144 12.3107 8.83903 12.2979C8.8569 12.2851 8.87023 12.267 8.87707 12.2461C8.8839 12.2253 8.88389 12.2028 8.87703 12.1819L8.77503 11.8589L9.04803 11.6579C9.06595 11.6452 9.07934 11.6271 9.08623 11.6062C9.09313 11.5854 9.09317 11.5628 9.08636 11.542C9.07955 11.5211 9.06623 11.5029 9.04836 11.4901C9.03049 11.4773 9.009 11.4706 8.98703 11.4709L8.64703 11.4679L8.54003 11.1459C8.53298 11.1255 8.51975 11.1078 8.50219 11.0953C8.48464 11.0827 8.46361 11.076 8.44203 11.0759Z" fill="#F5F5F5"/>
<path d="M20.719 7H12.28C11.41 7.00027 10.5757 7.34606 9.96063 7.96134C9.34554 8.57661 9 9.411 9 10.281V18.719C9 19.5892 9.34568 20.4237 9.96098 21.039C10.5763 21.6543 11.4108 22 12.281 22H20.719C21.5892 22 22.4237 21.6543 23.039 21.039C23.6543 20.4237 24 19.5892 24 18.719V10.28C23.9997 9.41 23.6539 8.57572 23.0387 7.96063C22.4234 7.34554 21.589 7 20.719 7Z" fill="#FB4B4E"/>
<path d="M19.708 13.333H17.667V11.292C17.667 11.2146 17.6362 11.1403 17.5815 11.0855C17.5267 11.0308 17.4524 11 17.375 11H15.625C15.5476 11 15.4733 11.0308 15.4185 11.0855C15.3638 11.1403 15.333 11.2146 15.333 11.292V13.333H13.292C13.2146 13.333 13.1403 13.3638 13.0855 13.4185C13.0308 13.4733 13 13.5476 13 13.625V15.375C13 15.536 13.13 15.667 13.292 15.667H15.333V17.708C15.333 17.869 15.463 18 15.625 18H17.375C17.536 18 17.667 17.87 17.667 17.708V15.667H19.708C19.869 15.667 20 15.537 20 15.375V13.625C20 13.5867 19.9924 13.5487 19.9778 13.5133C19.9631 13.4778 19.9416 13.4456 19.9145 13.4185C19.8874 13.3914 19.8552 13.3699 19.8197 13.3552C19.7843 13.3406 19.7463 13.333 19.708 13.333Z" fill="#F6F6F6"/>
</g>
</g>
<defs>
<clipPath id="clip0_443_929">
<rect width="24" height="24" fill="white"/>
</clipPath>
</defs>
</svg>
