<svg width="24" height="24" viewBox="0 0 24 24" fill="none" xmlns="http://www.w3.org/2000/svg">
<g clip-path="url(#clip0_442_477)">
<path d="M12 24C18.6274 24 24 18.6274 24 12C24 5.37258 18.6274 0 12 0C5.37258 0 0 5.37258 0 12C0 18.6274 5.37258 24 12 24Z" fill="#5546FF"/>
<path d="M14.4893 14.2748L17.1968 18.375H15.174L11.994 13.5577L8.8155 18.375H6.8025L9.51075 14.2853H5.625V12.7327H18.375V14.2748H14.4893ZM18.375 9.67125V11.235H5.625V9.672H9.43575L6.75975 5.625H8.78325L11.9948 10.5067L15.2167 5.625H17.2402L14.5643 9.67125H18.375Z" fill="white"/>
</g>
<defs>
<clipPath id="clip0_442_477">
<rect width="24" height="24" fill="white"/>
</clipPath>
</defs>
</svg>
