<svg width="24" height="24" viewBox="0 0 24 24" fill="none" xmlns="http://www.w3.org/2000/svg">
<g clip-path="url(#clip0_442_466)">
<path d="M12 24C18.6274 24 24 18.6274 24 12C24 5.37258 18.6274 0 12 0C5.37258 0 0 5.37258 0 12C0 18.6274 5.37258 24 12 24Z" fill="#EF0027"/>
<path d="M16.449 7.43487L5.625 5.44287L11.3213 19.7769L19.2585 10.1064L16.449 7.43487ZM16.275 8.31237L17.931 9.88662L13.4025 10.7064L16.275 8.31237ZM12.4185 10.5421L7.6455 6.58362L15.447 8.01912L12.4185 10.5421ZM12.0787 11.2426L11.3003 17.6776L7.104 7.11537L12.0787 11.2426ZM12.7988 11.5839L17.814 10.6764L12.0615 17.6836L12.7988 11.5839Z" fill="white"/>
</g>
<defs>
<clipPath id="clip0_442_466">
<rect width="24" height="24" fill="white"/>
</clipPath>
</defs>
</svg>
