<svg width="24" height="24" viewBox="0 0 24 24" fill="none" xmlns="http://www.w3.org/2000/svg">
<g clip-path="url(#clip0_443_624)">
<mask id="mask0_443_624" style="mask-type:luminance" maskUnits="userSpaceOnUse" x="0" y="0" width="24" height="24">
<path d="M24 0H0V24H24V0Z" fill="white"/>
</mask>
<g mask="url(#mask0_443_624)">
<path fill-rule="evenodd" clip-rule="evenodd" d="M0.784 3.15405H14.217C14.502 3.48805 14.721 3.87905 14.854 4.30805H0.147C0.281 3.87905 0.499 3.48805 0.784 3.15405ZM0 5.46205H15V6.61605H0V5.46205ZM15 7.77005H0V8.92305H15V7.77005ZM0 10.0771H15V11.2311H0V10.0771ZM15 12.3851H0V13.5391H15V12.3851ZM0.147 14.6931H14.854C14.721 15.1221 14.502 15.5131 14.217 15.8471H0.784C0.495627 15.5096 0.278902 15.117 0.147 14.6931Z" fill="#F5F5F5"/>
<path fill-rule="evenodd" clip-rule="evenodd" d="M11.719 2H3.28C2.28 2 1.384 2.448 0.782001 3.154H14.216C13.9084 2.79202 13.5258 2.50131 13.0946 2.30204C12.6634 2.10276 12.194 1.9997 11.719 2ZM15 6.615H1.4296e-06V7.77H15V6.615ZM14.853 4.308C14.949 4.616 15 4.943 15 5.282V5.462H1.4296e-06V5.282C1.4296e-06 4.942 0.0510014 4.616 0.147001 4.308H14.853ZM15 8.923H1.4296e-06V10.077H15V8.923ZM15 13.539V13.719C15 14.059 14.949 14.385 14.853 14.693H0.147001C0.0492519 14.3776 -0.000306872 14.0492 1.4296e-06 13.719V13.539H15ZM14.217 15.846H0.783001C1.09069 16.2081 1.47351 16.4989 1.90488 16.6982C2.33625 16.8975 2.80583 17.0004 3.281 17H11.719C12.719 17 13.615 16.552 14.217 15.846ZM1.4296e-06 11.231H15V12.385H1.4296e-06V11.23V11.231Z" fill="#FA4051"/>
<path d="M8 2H3.25C1.455 2 0 3.47 0 5.281V10.077H8V2Z" fill="#1939C9"/>
<path fill-rule="evenodd" clip-rule="evenodd" d="M2.61307 2.7209L2.67507 2.9079L2.87207 2.9099C2.89707 2.9099 2.90807 2.9419 2.88707 2.9569L2.72907 3.0739L2.78907 3.2619C2.79064 3.26723 2.79052 3.27291 2.78874 3.27818C2.78696 3.28344 2.7836 3.28802 2.77911 3.2913C2.77463 3.29458 2.76924 3.2964 2.76369 3.29651C2.75813 3.29662 2.75268 3.29501 2.74807 3.2919L2.58807 3.1769L2.42807 3.2909C2.42347 3.29366 2.41815 3.29498 2.4128 3.2947C2.40744 3.29443 2.40228 3.29256 2.39799 3.28934C2.3937 3.28612 2.39046 3.2817 2.3887 3.27663C2.38693 3.27157 2.38671 3.26609 2.38807 3.2609L2.44607 3.0739L2.28807 2.9569C2.28359 2.95363 2.28027 2.94902 2.2786 2.94373C2.27693 2.93844 2.27699 2.93276 2.27878 2.92751C2.28057 2.92226 2.28398 2.91772 2.28853 2.91455C2.29309 2.91138 2.29853 2.90975 2.30407 2.9099L2.50007 2.9079L2.56307 2.7209C2.5651 2.71593 2.56856 2.71168 2.57301 2.70869C2.57747 2.7057 2.58271 2.7041 2.58807 2.7041C2.59344 2.7041 2.59868 2.7057 2.60313 2.70869C2.60759 2.71168 2.61105 2.71593 2.61307 2.7209ZM0.870074 3.2619C0.868508 3.26723 0.868623 3.27291 0.870406 3.27818C0.872188 3.28344 0.875551 3.28802 0.880035 3.2913C0.884519 3.29458 0.889905 3.2964 0.89546 3.29651C0.901015 3.29662 0.906468 3.29501 0.911074 3.2919L1.07107 3.1769L1.23107 3.2919C1.23567 3.29466 1.24099 3.29598 1.24635 3.29571C1.25171 3.29543 1.25686 3.29356 1.26115 3.29034C1.26545 3.28712 1.26868 3.2827 1.27045 3.27763C1.27222 3.27257 1.27243 3.26709 1.27107 3.2619L1.21307 3.0749L1.37107 2.9579C1.37536 2.95444 1.37848 2.94976 1.38003 2.94448C1.38158 2.9392 1.38148 2.93357 1.37974 2.92834C1.378 2.92312 1.3747 2.91856 1.37029 2.91526C1.36589 2.91196 1.36057 2.91009 1.35507 2.9099L1.15907 2.9079L1.12507 2.8079C1.04084 2.88143 0.960405 2.9592 0.884074 3.0409L0.930074 3.0749L0.870074 3.2619ZM1.09607 4.2779L1.15907 4.4649L1.35507 4.4659C1.38107 4.4659 1.39107 4.4989 1.37107 4.5139L1.21307 4.6309L1.27207 4.8179C1.27343 4.82309 1.27322 4.82857 1.27145 4.83363C1.26968 4.8387 1.26645 4.84312 1.26215 4.84634C1.25786 4.84956 1.25271 4.85143 1.24735 4.8517C1.24199 4.85198 1.23667 4.85066 1.23207 4.8479L1.07207 4.7329L0.912074 4.8479C0.907485 4.8514 0.901893 4.85334 0.896119 4.85344C0.890345 4.85353 0.884693 4.85177 0.879994 4.84841C0.875295 4.84506 0.871796 4.84028 0.870011 4.83479C0.868225 4.8293 0.868248 4.82338 0.870074 4.8179L0.930074 4.6309L0.772074 4.5139C0.767837 4.5105 0.764722 4.50591 0.763138 4.50071C0.761553 4.49552 0.761572 4.48996 0.763192 4.48478C0.764812 4.4796 0.767958 4.47502 0.772218 4.47165C0.776479 4.46828 0.781656 4.46628 0.787074 4.4659L0.984074 4.4649L1.04607 4.2779C1.0481 4.27293 1.05156 4.26868 1.05601 4.26569C1.06047 4.2627 1.06571 4.2611 1.07107 4.2611C1.07644 4.2611 1.08168 4.2627 1.08613 4.26569C1.09059 4.26868 1.09405 4.27293 1.09607 4.2779ZM1.16007 6.1899L1.09707 6.0039C1.09505 5.99893 1.09159 5.99468 1.08713 5.99169C1.08268 5.9887 1.07744 5.9871 1.07207 5.9871C1.06671 5.9871 1.06147 5.9887 1.05701 5.99169C1.05256 5.99468 1.0491 5.99893 1.04707 6.0039L0.985074 6.1899L0.788074 6.1919C0.782656 6.19228 0.777479 6.19428 0.773218 6.19765C0.768958 6.20102 0.765812 6.2056 0.764192 6.21078C0.762572 6.21596 0.762553 6.22152 0.764138 6.22671C0.765722 6.23191 0.768837 6.2365 0.773074 6.2399L0.931074 6.3569L0.871074 6.5439C0.869508 6.54923 0.869623 6.55491 0.871406 6.56018C0.873188 6.56544 0.876551 6.57002 0.881035 6.5733C0.885519 6.57658 0.890905 6.5784 0.89646 6.57851C0.902015 6.57862 0.907468 6.57701 0.912074 6.5739L1.07207 6.4589L1.23207 6.5739C1.23668 6.57701 1.24213 6.57862 1.24769 6.57851C1.25324 6.5784 1.25863 6.57658 1.26311 6.5733C1.2676 6.57002 1.27096 6.56544 1.27274 6.56018C1.27452 6.55491 1.27464 6.54923 1.27307 6.5439L1.21307 6.3569L1.37207 6.2399C1.37636 6.23644 1.37948 6.23176 1.38103 6.22648C1.38258 6.2212 1.38248 6.21557 1.38074 6.21034C1.379 6.20512 1.3757 6.20056 1.37129 6.19726C1.36689 6.19396 1.36157 6.19209 1.35607 6.1919L1.16007 6.1899ZM1.09707 7.5899L1.16007 7.7769L1.35607 7.7789C1.38207 7.7789 1.39207 7.8109 1.37207 7.8259L1.21407 7.9429L1.27307 8.1309C1.27443 8.13609 1.27422 8.14157 1.27245 8.14663C1.27068 8.1517 1.26745 8.15612 1.26315 8.15934C1.25886 8.16256 1.25371 8.16443 1.24835 8.1647C1.24299 8.16498 1.23768 8.16366 1.23307 8.1609L1.07307 8.0459L0.913074 8.1599C0.908485 8.1634 0.902893 8.16535 0.897119 8.16544C0.891345 8.16553 0.885693 8.16377 0.880994 8.16041C0.876295 8.15706 0.872796 8.15228 0.871011 8.14679C0.869225 8.1413 0.869248 8.13538 0.871074 8.1299L0.931074 7.9429L0.773074 7.8259C0.769176 7.82243 0.766368 7.8179 0.76499 7.81286C0.763612 7.80783 0.763723 7.8025 0.76531 7.79753C0.766898 7.79255 0.769893 7.78815 0.773933 7.78484C0.777973 7.78154 0.782885 7.77947 0.788074 7.7789L0.985074 7.7769L1.04707 7.5899C1.0491 7.58493 1.05256 7.58068 1.05701 7.57769C1.06147 7.5747 1.06671 7.5731 1.07207 7.5731C1.07744 7.5731 1.08268 7.5747 1.08713 7.57769C1.09159 7.58068 1.09505 7.58493 1.09707 7.5899ZM1.16007 9.2199L1.09707 9.0329C1.09505 9.02793 1.09159 9.02368 1.08713 9.02069C1.08268 9.0177 1.07744 9.0161 1.07207 9.0161C1.06671 9.0161 1.06147 9.0177 1.05701 9.02069C1.05256 9.02368 1.0491 9.02793 1.04707 9.0329L0.985074 9.2199L0.788074 9.2219C0.782885 9.22247 0.777973 9.22454 0.773933 9.22784C0.769893 9.23115 0.766898 9.23555 0.76531 9.24053C0.763723 9.2455 0.763612 9.25083 0.76499 9.25586C0.766368 9.2609 0.769176 9.26543 0.773074 9.2689L0.931074 9.3859L0.871074 9.5739C0.869508 9.57923 0.869623 9.58491 0.871406 9.59018C0.873188 9.59544 0.876551 9.60002 0.881035 9.6033C0.885519 9.60658 0.890905 9.6084 0.89646 9.60851C0.902015 9.60862 0.907468 9.60701 0.912074 9.6039L1.07207 9.4889L1.23207 9.6029C1.23668 9.60601 1.24213 9.60762 1.24769 9.60751C1.25324 9.6074 1.25863 9.60558 1.26311 9.6023C1.2676 9.59902 1.27096 9.59444 1.27274 9.58918C1.27452 9.58391 1.27464 9.57823 1.27307 9.5729L1.21307 9.3859L1.37207 9.2689C1.37601 9.26536 1.37881 9.26075 1.38015 9.25564C1.38148 9.25052 1.38129 9.24513 1.37958 9.24012C1.37788 9.23512 1.37474 9.23072 1.37056 9.22748C1.36638 9.22424 1.36135 9.2223 1.35607 9.2219L1.16007 9.2199ZM1.85407 3.4579L1.91607 3.6439L2.11307 3.6459C2.13907 3.6459 2.14907 3.6779 2.12907 3.6939L1.97007 3.8099L2.03007 3.9979C2.03164 4.00323 2.03152 4.00891 2.02974 4.01418C2.02796 4.01944 2.0246 4.02402 2.02011 4.0273C2.01563 4.03058 2.01024 4.0324 2.00469 4.03251C1.99913 4.03262 1.99368 4.03101 1.98907 4.0279L1.82907 3.9129L1.66907 4.0279C1.66447 4.03066 1.65915 4.03198 1.6538 4.03171C1.64844 4.03143 1.64328 4.02956 1.63899 4.02634C1.6347 4.02312 1.63146 4.0187 1.6297 4.01363C1.62793 4.00857 1.62771 4.00309 1.62907 3.9979L1.68807 3.8099L1.52907 3.6939C1.5241 3.69082 1.52031 3.68615 1.51832 3.68064C1.51633 3.67514 1.51625 3.66913 1.5181 3.66358C1.51995 3.65802 1.52362 3.65326 1.52852 3.65005C1.53341 3.64684 1.53924 3.64538 1.54507 3.6459L1.74207 3.6439L1.80407 3.4579C1.8061 3.45293 1.80956 3.44868 1.81401 3.44569C1.81847 3.4427 1.82371 3.4411 1.82907 3.4411C1.83444 3.4411 1.83968 3.4427 1.84413 3.44569C1.84859 3.44868 1.85205 3.45293 1.85407 3.4579ZM1.91607 5.3709L1.85407 5.1839C1.85205 5.17893 1.84859 5.17468 1.84413 5.17169C1.83968 5.1687 1.83444 5.1671 1.82907 5.1671C1.82371 5.1671 1.81847 5.1687 1.81401 5.17169C1.80956 5.17468 1.8061 5.17893 1.80407 5.1839L1.74207 5.3709L1.54507 5.3719C1.53957 5.37209 1.53426 5.37396 1.52985 5.37726C1.52544 5.38056 1.52215 5.38512 1.52041 5.39034C1.51867 5.39557 1.51857 5.4012 1.52011 5.40648C1.52166 5.41176 1.52479 5.41644 1.52907 5.4199L1.68807 5.5369L1.62807 5.7239C1.62651 5.72923 1.62662 5.73491 1.6284 5.74018C1.63019 5.74544 1.63355 5.75002 1.63803 5.7533C1.64252 5.75658 1.6479 5.7584 1.65346 5.75851C1.65901 5.75862 1.66447 5.75701 1.66907 5.7539L1.82907 5.6389L1.98907 5.7539C1.99368 5.75666 1.99899 5.75798 2.00435 5.7577C2.00971 5.75743 2.01486 5.75556 2.01915 5.75234C2.02345 5.74912 2.02668 5.7447 2.02845 5.73963C2.03022 5.73457 2.03043 5.72909 2.02907 5.7239L1.97007 5.5369L2.12907 5.4199C2.13336 5.41644 2.13648 5.41176 2.13803 5.40648C2.13958 5.4012 2.13948 5.39557 2.13774 5.39034C2.136 5.38512 2.1327 5.38056 2.12829 5.37726C2.12389 5.37396 2.11857 5.37209 2.11307 5.3719L1.91607 5.3709ZM1.85407 6.8239L1.91607 7.0109L2.11307 7.0119C2.13907 7.0119 2.14907 7.0449 2.12907 7.0599L1.97007 7.1769L2.03007 7.3649C2.03143 7.37009 2.03122 7.37557 2.02945 7.38063C2.02768 7.3857 2.02445 7.39012 2.02015 7.39334C2.01586 7.39656 2.01071 7.39843 2.00535 7.39871C1.99999 7.39898 1.99468 7.39766 1.99007 7.3949L1.82907 7.2799L1.66907 7.3939C1.66447 7.39666 1.65915 7.39798 1.6538 7.3977C1.64844 7.39743 1.64328 7.39556 1.63899 7.39234C1.6347 7.38912 1.63146 7.3847 1.6297 7.37963C1.62793 7.37457 1.62771 7.36909 1.62907 7.3639L1.68807 7.1769L1.52907 7.0599C1.52479 7.05644 1.52166 7.05176 1.52011 7.04648C1.51857 7.0412 1.51867 7.03557 1.52041 7.03034C1.52215 7.02512 1.52544 7.02056 1.52985 7.01726C1.53426 7.01396 1.53957 7.01209 1.54507 7.0119L1.74207 7.0109L1.80407 6.8239C1.8061 6.81893 1.80956 6.81468 1.81401 6.81169C1.81847 6.8087 1.82371 6.8071 1.82907 6.8071C1.83444 6.8071 1.83968 6.8087 1.84413 6.81169C1.84859 6.81468 1.85205 6.81893 1.85407 6.8239ZM1.91607 8.4839L1.85307 8.2999C1.85105 8.29493 1.84759 8.29068 1.84313 8.28769C1.83868 8.2847 1.83344 8.2831 1.82807 8.2831C1.82271 8.2831 1.81747 8.2847 1.81301 8.28769C1.80856 8.29068 1.8051 8.29493 1.80307 8.2999L1.74107 8.4859L1.54407 8.4879C1.53857 8.48809 1.53326 8.48996 1.52885 8.49326C1.52444 8.49656 1.52115 8.50112 1.51941 8.50634C1.51767 8.51157 1.51757 8.5172 1.51911 8.52248C1.52066 8.52776 1.52379 8.53244 1.52807 8.5359L1.68707 8.6519L1.62707 8.8399C1.62551 8.84523 1.62562 8.85091 1.6274 8.85618C1.62919 8.86144 1.63255 8.86602 1.63703 8.8693C1.64152 8.87258 1.6469 8.8744 1.65246 8.87451C1.65801 8.87462 1.66347 8.87301 1.66807 8.8699L1.82807 8.7549L1.98807 8.8699C1.99268 8.87266 1.99799 8.87398 2.00335 8.8737C2.00871 8.87343 2.01386 8.87156 2.01815 8.86834C2.02245 8.86512 2.02568 8.8607 2.02745 8.85563C2.02922 8.85057 2.02943 8.84509 2.02807 8.8399L1.96907 8.6519L2.12807 8.5359C2.13236 8.53244 2.13548 8.52776 2.13703 8.52248C2.13858 8.5172 2.13848 8.51157 2.13674 8.50634C2.135 8.50112 2.1317 8.49656 2.12729 8.49326C2.12289 8.48996 2.11757 8.48809 2.11207 8.4879L1.91507 8.4859L1.91607 8.4839ZM2.67607 4.4639L2.61407 4.2769C2.61205 4.27193 2.60859 4.26768 2.60413 4.26469C2.59968 4.2617 2.59444 4.2601 2.58907 4.2601C2.58371 4.2601 2.57847 4.2617 2.57401 4.26469C2.56956 4.26768 2.5661 4.27193 2.56407 4.2769L2.50107 4.4639L2.30507 4.4649C2.29957 4.46509 2.29426 4.46696 2.28985 4.47026C2.28545 4.47356 2.28215 4.47812 2.28041 4.48334C2.27867 4.48857 2.27857 4.4942 2.28011 4.49948C2.28166 4.50476 2.28479 4.50944 2.28907 4.5129L2.44707 4.6299L2.38807 4.8169C2.38671 4.82209 2.38693 4.82757 2.3887 4.83263C2.39046 4.8377 2.3937 4.84212 2.39799 4.84534C2.40228 4.84856 2.40744 4.85043 2.4128 4.8507C2.41815 4.85098 2.42347 4.84966 2.42807 4.8469L2.58807 4.7319L2.74807 4.8469C2.75266 4.8504 2.75826 4.85234 2.76403 4.85244C2.7698 4.85253 2.77545 4.85077 2.78015 4.84741C2.78485 4.84405 2.78835 4.83928 2.79014 4.83379C2.79192 4.8283 2.7919 4.82238 2.79007 4.8169L2.73007 4.6299L2.88807 4.5129C2.89231 4.5095 2.89543 4.50491 2.89701 4.49971C2.8986 4.49452 2.89858 4.48896 2.89696 4.48378C2.89534 4.4786 2.89219 4.47402 2.88793 4.47065C2.88367 4.46728 2.87849 4.46528 2.87307 4.4649L2.67607 4.4639ZM2.61407 6.0039L2.67607 6.1899L2.87307 6.1919C2.89807 6.1919 2.90907 6.2249 2.88807 6.2399L2.73007 6.3569L2.79007 6.5439C2.79164 6.54923 2.79152 6.55491 2.78974 6.56018C2.78796 6.56544 2.7846 6.57002 2.78011 6.5733C2.77563 6.57658 2.77024 6.5784 2.76469 6.57851C2.75913 6.57862 2.75368 6.57701 2.74907 6.5739L2.58907 6.4589L2.42907 6.5739C2.42447 6.57666 2.41915 6.57798 2.4138 6.57771C2.40844 6.57743 2.40328 6.57556 2.39899 6.57234C2.3947 6.56912 2.39146 6.5647 2.3897 6.55963C2.38793 6.55457 2.38771 6.54909 2.38907 6.5439L2.44707 6.3569L2.28907 6.2399C2.28479 6.23644 2.28166 6.23176 2.28011 6.22648C2.27857 6.2212 2.27867 6.21557 2.28041 6.21034C2.28215 6.20512 2.28545 6.20056 2.28985 6.19726C2.29426 6.19396 2.29957 6.19209 2.30507 6.1919L2.50007 6.1899L2.56307 6.0039C2.5651 5.99893 2.56856 5.99468 2.57301 5.99169C2.57747 5.9887 2.58271 5.9871 2.58807 5.9871C2.59344 5.9871 2.59868 5.9887 2.60313 5.99169C2.60759 5.99468 2.61105 5.99893 2.61307 6.0039H2.61407ZM2.67607 7.7769L2.61407 7.5899C2.61205 7.58493 2.60859 7.58068 2.60413 7.57769C2.59968 7.5747 2.59444 7.5731 2.58907 7.5731C2.58371 7.5731 2.57847 7.5747 2.57401 7.57769C2.56956 7.58068 2.5661 7.58493 2.56407 7.5899L2.50107 7.7769L2.30507 7.7789C2.2998 7.7793 2.29476 7.78124 2.29058 7.78448C2.28641 7.78772 2.28327 7.79211 2.28157 7.79712C2.27986 7.80213 2.27967 7.80752 2.281 7.81264C2.28233 7.81775 2.28514 7.82236 2.28907 7.8259L2.44707 7.9429L2.38807 8.1309C2.38671 8.13609 2.38693 8.14157 2.3887 8.14663C2.39046 8.1517 2.3937 8.15612 2.39799 8.15934C2.40228 8.16256 2.40744 8.16443 2.4128 8.1647C2.41815 8.16498 2.42347 8.16366 2.42807 8.1609L2.58807 8.0459L2.74807 8.1599C2.75266 8.1634 2.75826 8.16535 2.76403 8.16544C2.7698 8.16553 2.77545 8.16377 2.78015 8.16041C2.78485 8.15706 2.78835 8.15228 2.79014 8.14679C2.79192 8.1413 2.7919 8.13538 2.79007 8.1299L2.73007 7.9429L2.88807 7.8259C2.89197 7.82243 2.89478 7.8179 2.89616 7.81286C2.89754 7.80783 2.89742 7.8025 2.89584 7.79753C2.89425 7.79255 2.89126 7.78815 2.88721 7.78484C2.88317 7.78154 2.87826 7.77947 2.87307 7.7789L2.67607 7.7769ZM2.61407 9.0329L2.67607 9.2199L2.87307 9.2219C2.89807 9.2219 2.90907 9.2539 2.88807 9.2689L2.73007 9.3859L2.79007 9.5739C2.79164 9.57923 2.79152 9.58491 2.78974 9.59018C2.78796 9.59544 2.7846 9.60002 2.78011 9.6033C2.77563 9.60658 2.77024 9.6084 2.76469 9.60851C2.75913 9.60862 2.75368 9.60701 2.74907 9.6039L2.58907 9.4889L2.42907 9.6029C2.42447 9.60566 2.41915 9.60698 2.4138 9.60671C2.40844 9.60643 2.40328 9.60456 2.39899 9.60134C2.3947 9.59812 2.39146 9.5937 2.3897 9.58863C2.38793 9.58357 2.38771 9.57809 2.38907 9.5729L2.44707 9.3859L2.28907 9.2689C2.28514 9.26536 2.28233 9.26075 2.281 9.25564C2.27967 9.25052 2.27986 9.24513 2.28157 9.24012C2.28327 9.23512 2.28641 9.23072 2.29058 9.22748C2.29476 9.22424 2.2998 9.2223 2.30507 9.2219L2.50007 9.2199L2.56307 9.0329C2.5651 9.02793 2.56856 9.02368 2.57301 9.02069C2.57747 9.0177 2.58271 9.0161 2.58807 9.0161C2.59344 9.0161 2.59868 9.0177 2.60313 9.02069C2.60759 9.02368 2.61105 9.02793 2.61307 9.0329H2.61407ZM3.43207 3.6439L3.37007 3.4599C3.36805 3.45493 3.36459 3.45068 3.36013 3.44769C3.35568 3.4447 3.35044 3.4431 3.34507 3.4431C3.33971 3.4431 3.33447 3.4447 3.33001 3.44769C3.32556 3.45068 3.3221 3.45493 3.32007 3.4599L3.25707 3.6459L3.06107 3.6479C3.05557 3.64809 3.05026 3.64996 3.04585 3.65326C3.04144 3.65656 3.03815 3.66112 3.03641 3.66634C3.03467 3.67157 3.03457 3.6772 3.03611 3.68248C3.03766 3.68776 3.04079 3.69244 3.04507 3.6959L3.20307 3.8119L3.14307 3.9999C3.14125 4.00538 3.14122 4.0113 3.14301 4.01679C3.1448 4.02228 3.14829 4.02706 3.15299 4.03041C3.15769 4.03377 3.16334 4.03553 3.16912 4.03544C3.17489 4.03535 3.18048 4.0334 3.18507 4.0299L3.34507 3.9149L3.50507 4.0299C3.50967 4.03266 3.51499 4.03398 3.52035 4.03371C3.52571 4.03343 3.53086 4.03156 3.53515 4.02834C3.53945 4.02512 3.54268 4.0207 3.54445 4.01563C3.54622 4.01057 3.54643 4.00509 3.54507 3.9999L3.48607 3.8119L3.64407 3.6959C3.64894 3.69285 3.65266 3.68827 3.65465 3.68288C3.65664 3.6775 3.65679 3.6716 3.65508 3.66612C3.65336 3.66064 3.64988 3.65587 3.64518 3.65258C3.64047 3.64928 3.63481 3.64764 3.62907 3.6479L3.43207 3.6459V3.6439ZM3.37007 5.1839L3.43207 5.3709L3.62907 5.3719C3.65407 5.3719 3.66507 5.4049 3.64407 5.4199L3.48607 5.5369L3.54607 5.7239C3.54764 5.72923 3.54752 5.73491 3.54574 5.74018C3.54396 5.74544 3.5406 5.75002 3.53611 5.7533C3.53163 5.75658 3.52624 5.7584 3.52069 5.75851C3.51513 5.75862 3.50968 5.75701 3.50507 5.7539L3.34507 5.6389L3.18507 5.7539C3.18047 5.75701 3.17501 5.75862 3.16946 5.75851C3.1639 5.7584 3.15852 5.75658 3.15403 5.7533C3.14955 5.75002 3.14619 5.74544 3.1444 5.74018C3.14262 5.73491 3.14251 5.72923 3.14407 5.7239L3.20407 5.5369L3.04507 5.4199C3.04079 5.41644 3.03766 5.41176 3.03611 5.40648C3.03457 5.4012 3.03467 5.39557 3.03641 5.39034C3.03815 5.38512 3.04144 5.38056 3.04585 5.37726C3.05026 5.37396 3.05557 5.37209 3.06107 5.3719L3.25707 5.3699L3.31907 5.1839C3.3211 5.17893 3.32456 5.17468 3.32901 5.17169C3.33347 5.1687 3.33871 5.1671 3.34407 5.1671C3.34944 5.1671 3.35468 5.1687 3.35913 5.17169C3.36359 5.17468 3.36805 5.17893 3.37007 5.1839ZM3.43207 7.0109L3.37007 6.8239C3.36207 6.7999 3.32807 6.7999 3.32007 6.8239L3.25707 7.0109L3.06107 7.0119C3.05557 7.01209 3.05026 7.01396 3.04585 7.01726C3.04144 7.02056 3.03815 7.02512 3.03641 7.03034C3.03467 7.03557 3.03457 7.0412 3.03611 7.04648C3.03766 7.05176 3.04079 7.05644 3.04507 7.0599L3.20307 7.1769L3.14307 7.3649C3.14125 7.37038 3.14122 7.3763 3.14301 7.38179C3.1448 7.38728 3.14829 7.39206 3.15299 7.39541C3.15769 7.39877 3.16334 7.40053 3.16912 7.40044C3.17489 7.40035 3.18048 7.3984 3.18507 7.3949L3.34507 7.2799L3.50507 7.3939C3.50967 7.39666 3.51499 7.39798 3.52035 7.3977C3.52571 7.39743 3.53086 7.39556 3.53515 7.39234C3.53945 7.38912 3.54268 7.3847 3.54445 7.37963C3.54622 7.37457 3.54643 7.36909 3.54507 7.3639L3.48607 7.1769L3.64407 7.0599C3.64831 7.0565 3.65143 7.05191 3.65301 7.04671C3.65459 7.04152 3.65458 7.03596 3.65296 7.03078C3.65134 7.0256 3.64819 7.02102 3.64393 7.01765C3.63967 7.01428 3.63449 7.01228 3.62907 7.0119L3.43207 7.0109ZM3.37007 8.2989L3.43207 8.4849L3.62907 8.4869C3.65407 8.4869 3.66507 8.5189 3.64407 8.5349L3.48607 8.6509L3.54607 8.8389C3.54764 8.84423 3.54752 8.84991 3.54574 8.85518C3.54396 8.86044 3.5406 8.86502 3.53611 8.8683C3.53163 8.87158 3.52624 8.8734 3.52069 8.87351C3.51513 8.87362 3.50968 8.87201 3.50507 8.8689L3.34507 8.7539L3.18507 8.8689C3.18047 8.87201 3.17501 8.87362 3.16946 8.87351C3.1639 8.8734 3.15852 8.87158 3.15403 8.8683C3.14955 8.86502 3.14619 8.86044 3.1444 8.85518C3.14262 8.84991 3.14251 8.84423 3.14407 8.8389L3.20407 8.6509L3.04507 8.5349C3.04079 8.53144 3.03766 8.52676 3.03611 8.52148C3.03457 8.5162 3.03467 8.51057 3.03641 8.50535C3.03815 8.50012 3.04144 8.49556 3.04585 8.49226C3.05026 8.48896 3.05557 8.48709 3.06107 8.4869L3.25707 8.4849L3.31907 8.2989C3.3211 8.29393 3.32456 8.28968 3.32901 8.28669C3.33347 8.2837 3.33871 8.2821 3.34407 8.2821C3.34944 8.2821 3.35468 8.2837 3.35913 8.28669C3.36359 8.28968 3.36805 8.29393 3.37007 8.2989ZM4.19207 2.9089L4.13007 2.7209C4.12805 2.71593 4.12459 2.71168 4.12013 2.70869C4.11568 2.7057 4.11044 2.7041 4.10507 2.7041C4.09971 2.7041 4.09447 2.7057 4.09001 2.70869C4.08556 2.71168 4.0821 2.71593 4.08007 2.7209L4.01707 2.9079L3.82007 2.9099C3.81462 2.90997 3.80932 2.91175 3.80493 2.915C3.80054 2.91825 3.79729 2.92279 3.79563 2.92799C3.79397 2.93319 3.79399 2.93878 3.79569 2.94397C3.79738 2.94916 3.80066 2.95368 3.80507 2.9569L3.96307 3.0739L3.90307 3.2619C3.90151 3.26723 3.90162 3.27291 3.9034 3.27818C3.90519 3.28344 3.90855 3.28802 3.91303 3.2913C3.91752 3.29458 3.9229 3.2964 3.92846 3.29651C3.93401 3.29662 3.93947 3.29501 3.94407 3.2919L4.10407 3.1769L4.26407 3.2909C4.26868 3.29401 4.27413 3.29562 4.27969 3.29551C4.28524 3.2954 4.29063 3.29358 4.29511 3.2903C4.2996 3.28702 4.30296 3.28244 4.30474 3.27718C4.30652 3.27191 4.30664 3.26623 4.30507 3.2609L4.24507 3.0739L4.40507 2.9569C4.40955 2.95363 4.41287 2.94902 4.41455 2.94373C4.41622 2.93844 4.41616 2.93276 4.41437 2.92751C4.41258 2.92226 4.40916 2.91772 4.40461 2.91455C4.40006 2.91138 4.39462 2.90975 4.38907 2.9099L4.19207 2.9089ZM4.13007 4.2779L4.19207 4.4649L4.38907 4.4659C4.41407 4.4659 4.42507 4.4989 4.40407 4.5139L4.24607 4.6309L4.30607 4.8179C4.3079 4.82338 4.30792 4.8293 4.30614 4.83479C4.30435 4.84028 4.30085 4.84506 4.29615 4.84841C4.29145 4.85177 4.2858 4.85353 4.28003 4.85344C4.27426 4.85334 4.26866 4.8514 4.26407 4.8479L4.10407 4.7329L3.94407 4.8479C3.93947 4.85066 3.93415 4.85198 3.9288 4.8517C3.92344 4.85143 3.91828 4.84956 3.91399 4.84634C3.9097 4.84312 3.90646 4.8387 3.9047 4.83363C3.90293 4.82857 3.90271 4.82309 3.90407 4.8179L3.96307 4.6309L3.80507 4.5139C3.80084 4.5105 3.79772 4.50591 3.79614 4.50071C3.79455 4.49552 3.79457 4.48996 3.79619 4.48478C3.79781 4.4796 3.80096 4.47502 3.80522 4.47165C3.80948 4.46828 3.81466 4.46628 3.82007 4.4659L4.01707 4.4639L4.07907 4.2779C4.0811 4.27293 4.08456 4.26868 4.08901 4.26569C4.09347 4.2627 4.09871 4.2611 4.10407 4.2611C4.10944 4.2611 4.11468 4.2627 4.11913 4.26569C4.12359 4.26868 4.12805 4.27293 4.13007 4.2779ZM4.19007 6.1899L4.12807 6.0039C4.12605 5.99893 4.12259 5.99468 4.11813 5.99169C4.11368 5.9887 4.10844 5.9871 4.10307 5.9871C4.09771 5.9871 4.09247 5.9887 4.08801 5.99169C4.08356 5.99468 4.0801 5.99893 4.07807 6.0039L4.01507 6.1899L3.81807 6.1919C3.81266 6.19228 3.80748 6.19428 3.80322 6.19765C3.79896 6.20102 3.79581 6.2056 3.79419 6.21078C3.79257 6.21596 3.79255 6.22152 3.79414 6.22671C3.79572 6.23191 3.79884 6.2365 3.80307 6.2399L3.96107 6.3569L3.90107 6.5439C3.89951 6.54923 3.89962 6.55491 3.9014 6.56018C3.90319 6.56544 3.90655 6.57002 3.91103 6.5733C3.91552 6.57658 3.9209 6.5784 3.92646 6.57851C3.93201 6.57862 3.93747 6.57701 3.94207 6.5739L4.10207 6.4589L4.26207 6.5739C4.26668 6.57701 4.27213 6.57862 4.27769 6.57851C4.28324 6.5784 4.28863 6.57658 4.29311 6.5733C4.2976 6.57002 4.30096 6.56544 4.30274 6.56018C4.30452 6.55491 4.30464 6.54923 4.30307 6.5439L4.24307 6.3569L4.40307 6.2399C4.40736 6.23644 4.41048 6.23176 4.41203 6.22648C4.41358 6.2212 4.41348 6.21557 4.41174 6.21034C4.41 6.20512 4.4067 6.20056 4.40229 6.19726C4.39789 6.19396 4.39257 6.19209 4.38707 6.1919L4.19007 6.1899ZM4.12807 7.5899L4.19007 7.7769L4.38707 7.7789C4.41207 7.7789 4.42307 7.8109 4.40207 7.8259L4.24407 7.9429L4.30407 8.1309C4.3059 8.13638 4.30592 8.1423 4.30414 8.14779C4.30235 8.15328 4.29885 8.15806 4.29415 8.16141C4.28945 8.16477 4.2838 8.16653 4.27803 8.16644C4.27225 8.16634 4.26666 8.1644 4.26207 8.1609L4.10207 8.0459L3.94207 8.1599C3.93747 8.16266 3.93215 8.16398 3.9268 8.1637C3.92144 8.16343 3.91628 8.16156 3.91199 8.15834C3.9077 8.15512 3.90446 8.1507 3.9027 8.14563C3.90093 8.14057 3.90071 8.13509 3.90207 8.1299L3.96107 7.9429L3.80307 7.8259C3.79917 7.82243 3.79637 7.8179 3.79499 7.81286C3.79361 7.80783 3.79372 7.8025 3.79531 7.79753C3.7969 7.79255 3.79989 7.78815 3.80393 7.78484C3.80797 7.78154 3.81288 7.77947 3.81807 7.7789L4.01507 7.7769L4.07707 7.5899C4.0791 7.58493 4.08256 7.58068 4.08701 7.57769C4.09147 7.5747 4.09671 7.5731 4.10207 7.5731C4.10744 7.5731 4.11268 7.5747 4.11713 7.57769C4.12159 7.58068 4.12605 7.58493 4.12807 7.5899ZM4.19007 9.2199L4.12807 9.0329C4.12605 9.02793 4.12259 9.02368 4.11813 9.02069C4.11368 9.0177 4.10844 9.0161 4.10307 9.0161C4.09771 9.0161 4.09247 9.0177 4.08801 9.02069C4.08356 9.02368 4.0801 9.02793 4.07807 9.0329L4.01507 9.2199L3.81807 9.2219C3.81288 9.22247 3.80797 9.22454 3.80393 9.22784C3.79989 9.23115 3.7969 9.23555 3.79531 9.24053C3.79372 9.2455 3.79361 9.25083 3.79499 9.25586C3.79637 9.2609 3.79917 9.26543 3.80307 9.2689L3.96107 9.3859L3.90107 9.5739C3.89951 9.57923 3.89962 9.58491 3.9014 9.59018C3.90319 9.59544 3.90655 9.60002 3.91103 9.6033C3.91552 9.60658 3.9209 9.6084 3.92646 9.60851C3.93201 9.60862 3.93747 9.60701 3.94207 9.6039L4.10207 9.4889L4.26207 9.6029C4.26668 9.60601 4.27213 9.60762 4.27769 9.60751C4.28324 9.6074 4.28863 9.60558 4.29311 9.6023C4.2976 9.59902 4.30096 9.59444 4.30274 9.58918C4.30452 9.58391 4.30464 9.57823 4.30307 9.5729L4.24307 9.3859L4.40307 9.2689C4.407 9.26536 4.40981 9.26075 4.41115 9.25564C4.41248 9.25052 4.41229 9.24513 4.41058 9.24012C4.40888 9.23512 4.40574 9.23072 4.40156 9.22748C4.39738 9.22424 4.39235 9.2223 4.38707 9.2219L4.19007 9.2199ZM4.88407 3.4579L4.94707 3.6439L5.14307 3.6459C5.16907 3.6459 5.17907 3.6779 5.15907 3.6939L5.00107 3.8099L5.06007 3.9999C5.06143 4.00509 5.06122 4.01057 5.05945 4.01563C5.05768 4.0207 5.05445 4.02512 5.05015 4.02834C5.04586 4.03156 5.04071 4.03343 5.03535 4.03371C5.02999 4.03398 5.02467 4.03266 5.02007 4.0299L4.86007 3.9149L4.70007 4.0299C4.69547 4.03301 4.69001 4.03462 4.68446 4.03451C4.6789 4.0344 4.67352 4.03258 4.66903 4.0293C4.66455 4.02602 4.66119 4.02144 4.6594 4.01618C4.65762 4.01091 4.65751 4.00523 4.65907 3.9999L4.71807 3.8119L4.56007 3.6959C4.55584 3.6925 4.55272 3.68791 4.55114 3.68271C4.54955 3.67752 4.54957 3.67196 4.55119 3.66678C4.55281 3.6616 4.55596 3.65702 4.56022 3.65365C4.56448 3.65028 4.56966 3.64828 4.57507 3.6479L4.77207 3.6459L4.83407 3.4599C4.84207 3.4349 4.87607 3.4349 4.88407 3.4599V3.4579ZM4.94707 5.3709L4.88407 5.1839C4.87607 5.1599 4.84207 5.1599 4.83407 5.1839L4.77207 5.3709L4.57507 5.3719C4.56966 5.37228 4.56448 5.37428 4.56022 5.37765C4.55596 5.38102 4.55281 5.3856 4.55119 5.39078C4.54957 5.39596 4.54955 5.40152 4.55114 5.40671C4.55272 5.41191 4.55584 5.4165 4.56007 5.4199L4.71807 5.5369L4.65807 5.7239C4.65651 5.72923 4.65662 5.73491 4.6584 5.74018C4.66019 5.74544 4.66355 5.75002 4.66803 5.7533C4.67252 5.75658 4.6779 5.7584 4.68346 5.75851C4.68901 5.75862 4.69447 5.75701 4.69907 5.7539L4.85907 5.6389L5.01907 5.7539C5.02368 5.75701 5.02913 5.75862 5.03469 5.75851C5.04024 5.7584 5.04563 5.75658 5.05011 5.7533C5.0546 5.75002 5.05796 5.74544 5.05974 5.74018C5.06152 5.73491 5.06164 5.72923 5.06007 5.7239L5.00007 5.5369L5.15907 5.4199C5.16336 5.41644 5.16648 5.41176 5.16803 5.40648C5.16958 5.4012 5.16948 5.39557 5.16774 5.39034C5.166 5.38512 5.1627 5.38056 5.15829 5.37726C5.15389 5.37396 5.14857 5.37209 5.14307 5.3719L4.94707 5.3709ZM4.88407 6.8239L4.94707 7.0109L5.14307 7.0119C5.16907 7.0119 5.17907 7.0449 5.15907 7.0599L5.00107 7.1769L5.06007 7.3649C5.06143 7.37009 5.06122 7.37557 5.05945 7.38063C5.05768 7.3857 5.05445 7.39012 5.05015 7.39334C5.04586 7.39656 5.04071 7.39843 5.03535 7.39871C5.02999 7.39898 5.02467 7.39766 5.02007 7.3949L4.86007 7.2799L4.70007 7.3939C4.69547 7.39701 4.69001 7.39862 4.68446 7.39851C4.6789 7.3984 4.67352 7.39658 4.66903 7.3933C4.66455 7.39002 4.66119 7.38544 4.6594 7.38018C4.65762 7.37491 4.65751 7.36923 4.65907 7.3639L4.71807 7.1769L4.56007 7.0599C4.55584 7.0565 4.55272 7.05191 4.55114 7.04671C4.54955 7.04152 4.54957 7.03596 4.55119 7.03078C4.55281 7.0256 4.55596 7.02102 4.56022 7.01765C4.56448 7.01428 4.56966 7.01228 4.57507 7.0119L4.77207 7.0109L4.83407 6.8239C4.84207 6.7999 4.87607 6.7999 4.88407 6.8239ZM4.94707 8.4839L4.88507 8.2999C4.87707 8.2749 4.84307 8.2749 4.83507 8.2999L4.77307 8.4859L4.57607 8.4879C4.57066 8.48828 4.56548 8.49028 4.56122 8.49365C4.55696 8.49702 4.55381 8.5016 4.55219 8.50678C4.55057 8.51196 4.55055 8.51752 4.55214 8.52271C4.55372 8.52791 4.55684 8.5325 4.56107 8.5359L4.71907 8.6519L4.65907 8.8399C4.65751 8.84523 4.65762 8.85091 4.6594 8.85618C4.66119 8.86144 4.66455 8.86602 4.66903 8.8693C4.67352 8.87258 4.6789 8.8744 4.68446 8.87451C4.69001 8.87462 4.69547 8.87301 4.70007 8.8699L4.86007 8.7549L5.02007 8.8699C5.02468 8.87301 5.03013 8.87462 5.03569 8.87451C5.04124 8.8744 5.04663 8.87258 5.05111 8.8693C5.0556 8.86602 5.05896 8.86144 5.06074 8.85618C5.06252 8.85091 5.06264 8.84523 5.06107 8.8399L5.00107 8.6519L5.16007 8.5359C5.16436 8.53244 5.16748 8.52776 5.16903 8.52248C5.17058 8.5172 5.17048 8.51157 5.16874 8.50634C5.167 8.50112 5.1637 8.49656 5.15929 8.49326C5.15489 8.48996 5.14957 8.48809 5.14407 8.4879L4.94807 8.4859L4.94707 8.4839ZM5.64207 2.7199L5.70507 2.9069L5.90107 2.9089C5.92707 2.9089 5.93707 2.9409 5.91707 2.9559L5.75907 3.0729L5.81807 3.2609C5.81943 3.26609 5.81922 3.27157 5.81745 3.27663C5.81568 3.2817 5.81245 3.28612 5.80815 3.28934C5.80386 3.29256 5.79871 3.29443 5.79335 3.2947C5.78799 3.29498 5.78267 3.29366 5.77807 3.2909L5.61807 3.1759L5.45807 3.2899C5.45348 3.2934 5.44789 3.29535 5.44212 3.29544C5.43634 3.29553 5.43069 3.29377 5.42599 3.29041C5.42129 3.28706 5.4178 3.28228 5.41601 3.27679C5.41422 3.2713 5.41425 3.26538 5.41607 3.2599L5.47607 3.0729L5.31707 2.9559C5.31259 2.95263 5.30927 2.94802 5.3076 2.94273C5.30593 2.93744 5.30599 2.93176 5.30778 2.92651C5.30956 2.92126 5.31298 2.91672 5.31753 2.91355C5.32209 2.91038 5.32753 2.90875 5.33307 2.9089L5.53007 2.9069L5.59207 2.7199C5.60007 2.6959 5.63407 2.6959 5.64207 2.7199ZM5.70507 4.4639L5.64207 4.2769C5.64005 4.27193 5.63659 4.26768 5.63213 4.26469C5.62768 4.2617 5.62244 4.2601 5.61707 4.2601C5.61171 4.2601 5.60647 4.2617 5.60201 4.26469C5.59756 4.26768 5.5941 4.27193 5.59207 4.2769L5.53007 4.4639L5.33307 4.4649C5.32757 4.46509 5.32226 4.46696 5.31785 4.47026C5.31345 4.47356 5.31015 4.47812 5.30841 4.48334C5.30667 4.48857 5.30656 4.4942 5.30811 4.49948C5.30966 4.50476 5.31279 4.50944 5.31707 4.5129L5.47607 4.6299L5.41607 4.8169C5.41451 4.82223 5.41462 4.82791 5.4164 4.83318C5.41819 4.83844 5.42155 4.84302 5.42603 4.8463C5.43052 4.84958 5.4359 4.8514 5.44146 4.85151C5.44701 4.85162 5.45247 4.85001 5.45707 4.8469L5.61707 4.7319L5.77707 4.8469C5.78167 4.84966 5.78699 4.85098 5.79235 4.8507C5.79771 4.85043 5.80286 4.84856 5.80715 4.84534C5.81145 4.84212 5.81468 4.8377 5.81645 4.83263C5.81822 4.82757 5.81843 4.82209 5.81707 4.8169L5.75907 4.6299L5.91707 4.5129C5.92136 4.50944 5.92448 4.50476 5.92603 4.49948C5.92758 4.4942 5.92748 4.48857 5.92574 4.48334C5.924 4.47812 5.9207 4.47356 5.91629 4.47026C5.91189 4.46696 5.90657 4.46509 5.90107 4.4649L5.70507 4.4639ZM5.64207 6.0039L5.70507 6.1899L5.90107 6.1919C5.92707 6.1919 5.93707 6.2249 5.91707 6.2399L5.75907 6.3569L5.81807 6.5439C5.81943 6.54909 5.81922 6.55457 5.81745 6.55963C5.81568 6.5647 5.81245 6.56912 5.80815 6.57234C5.80386 6.57556 5.79871 6.57743 5.79335 6.57771C5.78799 6.57798 5.78267 6.57666 5.77807 6.5739L5.61807 6.4589L5.45807 6.5739C5.45348 6.5774 5.44789 6.57935 5.44212 6.57944C5.43634 6.57953 5.43069 6.57777 5.42599 6.57441C5.42129 6.57106 5.4178 6.56628 5.41601 6.56079C5.41422 6.5553 5.41425 6.54938 5.41607 6.5439L5.47607 6.3569L5.31707 6.2399C5.31279 6.23644 5.30966 6.23176 5.30811 6.22648C5.30656 6.2212 5.30667 6.21557 5.30841 6.21034C5.31015 6.20512 5.31345 6.20056 5.31785 6.19726C5.32226 6.19396 5.32757 6.19209 5.33307 6.1919L5.53007 6.1899L5.59207 6.0039C5.5941 5.99893 5.59756 5.99468 5.60201 5.99169C5.60647 5.9887 5.61171 5.9871 5.61707 5.9871C5.62244 5.9871 5.62768 5.9887 5.63213 5.99169C5.63659 5.99468 5.64005 5.99893 5.64207 6.0039ZM5.70507 7.7769L5.64207 7.5899C5.64005 7.58493 5.63659 7.58068 5.63213 7.57769C5.62768 7.5747 5.62244 7.5731 5.61707 7.5731C5.61171 7.5731 5.60647 7.5747 5.60201 7.57769C5.59756 7.58068 5.5941 7.58493 5.59207 7.5899L5.53007 7.7769L5.33307 7.7789C5.3278 7.7793 5.32276 7.78124 5.31858 7.78448C5.31441 7.78772 5.31127 7.79211 5.30957 7.79712C5.30786 7.80213 5.30766 7.80752 5.309 7.81264C5.31033 7.81775 5.31314 7.82236 5.31707 7.8259L5.47607 7.9429L5.41607 8.1309C5.41451 8.13623 5.41462 8.14191 5.4164 8.14718C5.41819 8.15244 5.42155 8.15702 5.42603 8.1603C5.43052 8.16358 5.4359 8.1654 5.44146 8.16551C5.44701 8.16562 5.45247 8.16401 5.45707 8.1609L5.61707 8.0459L5.77707 8.1599C5.78167 8.16266 5.78699 8.16398 5.79235 8.1637C5.79771 8.16343 5.80286 8.16156 5.80715 8.15834C5.81145 8.15512 5.81468 8.1507 5.81645 8.14563C5.81822 8.14057 5.81843 8.13509 5.81707 8.1299L5.75907 7.9429L5.91707 7.8259C5.92101 7.82236 5.92381 7.81775 5.92515 7.81264C5.92648 7.80752 5.92628 7.80213 5.92458 7.79712C5.92288 7.79211 5.91974 7.78772 5.91556 7.78448C5.91138 7.78124 5.90635 7.7793 5.90107 7.7789L5.70507 7.7769ZM5.64207 9.0329L5.70507 9.2199L5.90107 9.2219C5.92707 9.2219 5.93707 9.2539 5.91707 9.2689L5.75907 9.3859L5.81807 9.5739C5.81943 9.57909 5.81922 9.58457 5.81745 9.58963C5.81568 9.5947 5.81245 9.59912 5.80815 9.60234C5.80386 9.60556 5.79871 9.60743 5.79335 9.6077C5.78799 9.60798 5.78267 9.60666 5.77807 9.6039L5.61807 9.4889L5.45807 9.6029C5.45348 9.6064 5.44789 9.60835 5.44212 9.60844C5.43634 9.60853 5.43069 9.60677 5.42599 9.60341C5.42129 9.60005 5.4178 9.59528 5.41601 9.58979C5.41422 9.5843 5.41425 9.57838 5.41607 9.5729L5.47607 9.3859L5.31707 9.2689C5.31314 9.26536 5.31033 9.26075 5.309 9.25564C5.30766 9.25052 5.30786 9.24513 5.30957 9.24012C5.31127 9.23512 5.31441 9.23072 5.31858 9.22748C5.32276 9.22424 5.3278 9.2223 5.33307 9.2219L5.53007 9.2199L5.59207 9.0329C5.5941 9.02793 5.59756 9.02368 5.60201 9.02069C5.60647 9.0177 5.61171 9.0161 5.61707 9.0161C5.62244 9.0161 5.62768 9.0177 5.63213 9.02069C5.63659 9.02368 5.64005 9.02793 5.64207 9.0329ZM6.46007 3.6439L6.40007 3.4599C6.39805 3.45493 6.39459 3.45068 6.39013 3.44769C6.38568 3.4447 6.38044 3.4431 6.37507 3.4431C6.36971 3.4431 6.36447 3.4447 6.36001 3.44769C6.35556 3.45068 6.3521 3.45493 6.35007 3.4599L6.28807 3.6459L6.09107 3.6479C6.08557 3.64809 6.08026 3.64996 6.07585 3.65326C6.07144 3.65656 6.06815 3.66112 6.06641 3.66634C6.06467 3.67157 6.06457 3.6772 6.06611 3.68248C6.06766 3.68776 6.07079 3.69244 6.07507 3.6959L6.23407 3.8119L6.17407 3.9999C6.17271 4.00509 6.17293 4.01057 6.1747 4.01563C6.17646 4.0207 6.1797 4.02512 6.18399 4.02834C6.18828 4.03156 6.19344 4.03343 6.1988 4.03371C6.20415 4.03398 6.20947 4.03266 6.21407 4.0299L6.37507 3.9149L6.53507 4.0299C6.53967 4.03266 6.54499 4.03398 6.55035 4.03371C6.55571 4.03343 6.56086 4.03156 6.56515 4.02834C6.56945 4.02512 6.57268 4.0207 6.57445 4.01563C6.57622 4.01057 6.57643 4.00509 6.57507 3.9999L6.51607 3.8119L6.67507 3.6959C6.68005 3.69282 6.68384 3.68815 6.68583 3.68264C6.68782 3.67714 6.6879 3.67113 6.68605 3.66558C6.6842 3.66002 6.68053 3.65526 6.67563 3.65205C6.67074 3.64884 6.6649 3.64738 6.65907 3.6479L6.46207 3.6459L6.46007 3.6439ZM6.40007 5.1849L6.46207 5.3719L6.65907 5.3729C6.68507 5.3729 6.69507 5.4059 6.67507 5.4209L6.51607 5.5379L6.57607 5.7249C6.57764 5.73023 6.57752 5.73591 6.57574 5.74118C6.57396 5.74644 6.5706 5.75102 6.56611 5.7543C6.56163 5.75758 6.55624 5.7594 6.55069 5.75951C6.54513 5.75962 6.53968 5.75801 6.53507 5.7549L6.37507 5.6399L6.21507 5.7549C6.21047 5.75766 6.20515 5.75898 6.1998 5.7587C6.19444 5.75843 6.18928 5.75656 6.18499 5.75334C6.1807 5.75012 6.17746 5.7457 6.1757 5.74063C6.17393 5.73557 6.17371 5.73009 6.17507 5.7249L6.23407 5.5379L6.07507 5.4209C6.07079 5.41744 6.06766 5.41276 6.06611 5.40748C6.06457 5.4022 6.06467 5.39657 6.06641 5.39134C6.06815 5.38612 6.07144 5.38156 6.07585 5.37826C6.08026 5.37496 6.08557 5.37309 6.09107 5.3729L6.28807 5.3709L6.35007 5.1849C6.3521 5.17993 6.35556 5.17568 6.36001 5.17269C6.36447 5.1697 6.36971 5.1681 6.37507 5.1681C6.38044 5.1681 6.38568 5.1697 6.39013 5.17269C6.39459 5.17568 6.39805 5.17993 6.40007 5.1849ZM6.46207 7.0119L6.40007 6.8249C6.39805 6.81993 6.39459 6.81568 6.39013 6.81269C6.38568 6.8097 6.38044 6.8081 6.37507 6.8081C6.36971 6.8081 6.36447 6.8097 6.36001 6.81269C6.35556 6.81568 6.3521 6.81993 6.35007 6.8249L6.28807 7.0119L6.09107 7.0129C6.08557 7.01309 6.08026 7.01496 6.07585 7.01826C6.07144 7.02156 6.06815 7.02612 6.06641 7.03134C6.06467 7.03657 6.06457 7.0422 6.06611 7.04748C6.06766 7.05276 6.07079 7.05744 6.07507 7.0609L6.23407 7.1779L6.17407 7.3659C6.17271 7.37109 6.17293 7.37657 6.1747 7.38163C6.17646 7.3867 6.1797 7.39112 6.18399 7.39434C6.18828 7.39756 6.19344 7.39943 6.1988 7.39971C6.20415 7.39998 6.20947 7.39866 6.21407 7.3959L6.37507 7.2809L6.53507 7.3949C6.53967 7.39766 6.54499 7.39898 6.55035 7.39871C6.55571 7.39843 6.56086 7.39656 6.56515 7.39334C6.56945 7.39012 6.57268 7.3857 6.57445 7.38063C6.57622 7.37557 6.57643 7.37009 6.57507 7.3649L6.51607 7.1779L6.67507 7.0609C6.67936 7.05744 6.68248 7.05276 6.68403 7.04748C6.68558 7.0422 6.68548 7.03657 6.68374 7.03134C6.682 7.02612 6.6787 7.02156 6.67429 7.01826C6.66989 7.01496 6.66457 7.01309 6.65907 7.0129L6.46207 7.0119ZM6.40007 8.2989L6.46207 8.4849L6.65907 8.4869C6.68507 8.4869 6.69507 8.5189 6.67507 8.5349L6.51607 8.6509L6.57607 8.8389C6.57764 8.84423 6.57752 8.84991 6.57574 8.85518C6.57396 8.86044 6.5706 8.86502 6.56611 8.8683C6.56163 8.87158 6.55624 8.8734 6.55069 8.87351C6.54513 8.87362 6.53968 8.87201 6.53507 8.8689L6.37507 8.7539L6.21507 8.8689C6.21047 8.87166 6.20515 8.87298 6.1998 8.87271C6.19444 8.87243 6.18928 8.87056 6.18499 8.86734C6.1807 8.86412 6.17746 8.8597 6.1757 8.85463C6.17393 8.84957 6.17371 8.84409 6.17507 8.8389L6.23407 8.6509L6.07507 8.5349C6.07079 8.53144 6.06766 8.52676 6.06611 8.52148C6.06457 8.5162 6.06467 8.51057 6.06641 8.50535C6.06815 8.50012 6.07144 8.49556 6.07585 8.49226C6.08026 8.48896 6.08557 8.48709 6.09107 8.4869L6.28807 8.4849L6.35007 8.2989C6.3521 8.29393 6.35556 8.28968 6.36001 8.28669C6.36447 8.2837 6.36971 8.2821 6.37507 8.2821C6.38044 8.2821 6.38568 8.2837 6.39013 8.28669C6.39459 8.28968 6.39805 8.29393 6.40007 8.2989ZM7.22107 2.9089L7.15907 2.7209C7.15107 2.6969 7.11707 2.6969 7.10907 2.7209L7.04607 2.9079L6.85007 2.9099C6.84453 2.90975 6.83909 2.91138 6.83453 2.91455C6.82998 2.91772 6.82657 2.92226 6.82478 2.92751C6.82299 2.93276 6.82293 2.93844 6.8246 2.94373C6.82627 2.94902 6.82959 2.95363 6.83407 2.9569L6.99207 3.0739L6.93307 3.2619C6.93171 3.26709 6.93193 3.27257 6.9337 3.27763C6.93546 3.2827 6.9387 3.28712 6.94299 3.29034C6.94728 3.29356 6.95244 3.29543 6.9578 3.29571C6.96315 3.29598 6.96847 3.29466 6.97307 3.2919L7.13307 3.1769L7.29307 3.2909C7.29766 3.2944 7.30325 3.29635 7.30903 3.29644C7.3148 3.29653 7.32045 3.29477 7.32515 3.29141C7.32985 3.28806 7.33335 3.28328 7.33514 3.27779C7.33692 3.2723 7.3369 3.26638 7.33507 3.2609L7.27507 3.0739L7.43307 2.9569C7.43697 2.95343 7.43978 2.9489 7.44116 2.94386C7.44254 2.93883 7.44243 2.9335 7.44084 2.92853C7.43925 2.92355 7.43626 2.91915 7.43222 2.91584C7.42817 2.91254 7.42326 2.91047 7.41807 2.9099L7.22107 2.9089ZM7.15907 4.2779L7.22107 4.4649L7.41807 4.4659C7.44307 4.4659 7.45407 4.4989 7.43307 4.5139L7.27507 4.6309L7.33507 4.8179C7.33664 4.82323 7.33652 4.82891 7.33474 4.83418C7.33296 4.83944 7.3296 4.84402 7.32511 4.8473C7.32063 4.85058 7.31524 4.8524 7.30969 4.85251C7.30413 4.85262 7.29868 4.85101 7.29407 4.8479L7.13407 4.7329L6.97407 4.8479C6.96947 4.85101 6.96401 4.85262 6.95846 4.85251C6.9529 4.8524 6.94752 4.85058 6.94303 4.8473C6.93855 4.84402 6.93519 4.83944 6.9334 4.83418C6.93162 4.82891 6.93151 4.82323 6.93307 4.8179L6.99307 4.6309L6.83407 4.5139C6.82979 4.51044 6.82666 4.50576 6.82511 4.50048C6.82356 4.4952 6.82367 4.48957 6.82541 4.48434C6.82715 4.47912 6.83044 4.47456 6.83485 4.47126C6.83926 4.46796 6.84457 4.46609 6.85007 4.4659L7.04607 4.4649L7.10907 4.2779C7.1111 4.27293 7.11456 4.26868 7.11901 4.26569C7.12347 4.2627 7.12871 4.2611 7.13407 4.2611C7.13944 4.2611 7.14468 4.2627 7.14913 4.26569C7.15359 4.26868 7.15705 4.27293 7.15907 4.2779ZM7.22007 6.1899L7.15807 6.0039C7.15605 5.99893 7.15259 5.99468 7.14813 5.99169C7.14368 5.9887 7.13844 5.9871 7.13307 5.9871C7.12771 5.9871 7.12247 5.9887 7.11801 5.99169C7.11356 5.99468 7.1101 5.99893 7.10807 6.0039L7.04507 6.1899L6.84907 6.1919C6.84357 6.19209 6.83826 6.19396 6.83385 6.19726C6.82944 6.20056 6.82615 6.20512 6.82441 6.21034C6.82267 6.21557 6.82256 6.2212 6.82411 6.22648C6.82566 6.23176 6.82879 6.23644 6.83307 6.2399L6.99107 6.3569L6.93207 6.5439C6.93071 6.54909 6.93093 6.55457 6.9327 6.55963C6.93446 6.5647 6.9377 6.56912 6.94199 6.57234C6.94628 6.57556 6.95144 6.57743 6.9568 6.57771C6.96215 6.57798 6.96747 6.57666 6.97207 6.5739L7.13207 6.4589L7.29207 6.5739C7.29666 6.5774 7.30226 6.57935 7.30803 6.57944C7.3138 6.57953 7.31945 6.57777 7.32415 6.57441C7.32885 6.57106 7.33235 6.56628 7.33414 6.56079C7.33592 6.5553 7.3359 6.54938 7.33407 6.5439L7.27407 6.3569L7.43207 6.2399C7.43631 6.2365 7.43943 6.23191 7.44101 6.22671C7.44259 6.22152 7.44258 6.21596 7.44096 6.21078C7.43934 6.2056 7.43619 6.20102 7.43193 6.19765C7.42767 6.19428 7.42249 6.19228 7.41707 6.1919L7.22007 6.1899ZM7.15807 7.5899L7.22007 7.7769L7.41707 7.7789C7.44207 7.7789 7.45307 7.8109 7.43207 7.8259L7.27407 7.9429L7.33407 8.1309C7.33564 8.13623 7.33552 8.14191 7.33374 8.14718C7.33196 8.15244 7.3286 8.15702 7.32411 8.1603C7.31963 8.16358 7.31424 8.1654 7.30869 8.16551C7.30313 8.16562 7.29768 8.16401 7.29307 8.1609L7.13307 8.0459L6.97307 8.1599C6.96847 8.16301 6.96301 8.16462 6.95746 8.16451C6.9519 8.1644 6.94652 8.16258 6.94203 8.1593C6.93755 8.15602 6.93419 8.15144 6.9324 8.14618C6.93062 8.14091 6.93051 8.13523 6.93207 8.1299L6.99207 7.9429L6.83307 7.8259C6.82914 7.82236 6.82633 7.81775 6.825 7.81264C6.82367 7.80752 6.82386 7.80213 6.82557 7.79712C6.82727 7.79211 6.83041 7.78772 6.83458 7.78448C6.83876 7.78124 6.8438 7.7793 6.84907 7.7789L7.04507 7.7769L7.10807 7.5899C7.1101 7.58493 7.11356 7.58068 7.11801 7.57769C7.12247 7.5747 7.12771 7.5731 7.13307 7.5731C7.13844 7.5731 7.14368 7.5747 7.14813 7.57769C7.15259 7.58068 7.15605 7.58493 7.15807 7.5899ZM7.22007 9.2199L7.15807 9.0329C7.15605 9.02793 7.15259 9.02368 7.14813 9.02069C7.14368 9.0177 7.13844 9.0161 7.13307 9.0161C7.12771 9.0161 7.12247 9.0177 7.11801 9.02069C7.11356 9.02368 7.1101 9.02793 7.10807 9.0329L7.04507 9.2199L6.84907 9.2219C6.8438 9.2223 6.83876 9.22424 6.83458 9.22748C6.83041 9.23072 6.82727 9.23512 6.82557 9.24012C6.82386 9.24513 6.82367 9.25052 6.825 9.25564C6.82633 9.26075 6.82914 9.26536 6.83307 9.2689L6.99107 9.3859L6.93207 9.5739C6.93071 9.57909 6.93093 9.58457 6.9327 9.58963C6.93446 9.5947 6.9377 9.59912 6.94199 9.60234C6.94628 9.60556 6.95144 9.60743 6.9568 9.6077C6.96215 9.60798 6.96747 9.60666 6.97207 9.6039L7.13207 9.4889L7.29207 9.6029C7.29666 9.6064 7.30226 9.60835 7.30803 9.60844C7.3138 9.60853 7.31945 9.60677 7.32415 9.60341C7.32885 9.60005 7.33235 9.59528 7.33414 9.58979C7.33592 9.5843 7.3359 9.57838 7.33407 9.5729L7.27407 9.3859L7.43207 9.2689C7.43597 9.26543 7.43878 9.2609 7.44016 9.25586C7.44154 9.25083 7.44142 9.2455 7.43984 9.24053C7.43825 9.23555 7.43525 9.23115 7.43121 9.22784C7.42717 9.22454 7.42226 9.22247 7.41707 9.2219L7.22007 9.2199Z" fill="#F5F5F5"/>
<path d="M20.719 7H12.28C11.41 7.00027 10.5757 7.34606 9.96063 7.96134C9.34554 8.57661 9 9.411 9 10.281V18.719C9 19.5892 9.34568 20.4237 9.96098 21.039C10.5763 21.6543 11.4108 22 12.281 22H20.719C21.5892 22 22.4237 21.6543 23.039 21.039C23.6543 20.4237 24 19.5892 24 18.719V10.28C23.9997 9.41 23.6539 8.57572 23.0387 7.96063C22.4234 7.34554 21.589 7 20.719 7Z" fill="#F6F6F6"/>
<path d="M16.5 18C16.9596 18 17.4148 17.9095 17.8394 17.7336C18.264 17.5577 18.6499 17.2999 18.9749 16.9749C19.2999 16.6499 19.5577 16.264 19.7336 15.8394C19.9095 15.4148 20 14.9596 20 14.5C20 14.0404 19.9095 13.5852 19.7336 13.1606C19.5577 12.736 19.2999 12.3501 18.9749 12.0251C18.6499 11.7001 18.264 11.4423 17.8394 11.2664C17.4148 11.0905 16.9596 11 16.5 11C15.5717 11 14.6815 11.3687 14.0251 12.0251C13.3687 12.6815 13 13.5717 13 14.5C13 15.4283 13.3687 16.3185 14.0251 16.9749C14.6815 17.6313 15.5717 18 16.5 18Z" fill="#FB4B4E"/>
</g>
</g>
<defs>
<clipPath id="clip0_443_624">
<rect width="24" height="24" fill="white"/>
</clipPath>
</defs>
</svg>
