<svg width="24" height="24" viewBox="0 0 24 24" fill="none" xmlns="http://www.w3.org/2000/svg">
<g clip-path="url(#clip0_442_471)">
<path d="M12 24C18.6274 24 24 18.6274 24 12C24 5.37258 18.6274 0 12 0C5.37258 0 0 5.37258 0 12C0 18.6274 5.37258 24 12 24Z" fill="black"/>
<path d="M17.3475 6.96891L15.5475 7.88691L6.84902 12.3172C6.72508 11.3651 6.86809 10.3973 7.26209 9.52181C7.65609 8.64629 8.28558 7.89745 9.08034 7.35882C9.8751 6.82019 10.8039 6.51295 11.7631 6.47138C12.7223 6.42982 13.6741 6.65555 14.5125 7.12341L15.543 6.59841L15.6968 6.51966C14.7192 5.81023 13.5589 5.39536 12.3531 5.32403C11.1474 5.25271 9.94633 5.52792 8.8919 6.11716C7.83747 6.7064 6.97366 7.58506 6.40249 8.64939C5.83132 9.71371 5.57664 10.9193 5.66852 12.1237C5.68571 12.3502 5.63549 12.5768 5.52419 12.7748C5.41288 12.9729 5.24546 13.1336 5.04302 13.2367L4.49927 13.5142V14.8072L6.09977 13.9912L6.61802 13.7264L7.12877 13.4662L16.2983 8.79366L17.3288 8.26941L19.4588 7.18416V5.89191L17.3475 6.96891ZM19.4595 8.47791L7.65077 14.4899L6.62027 15.0149L4.50002 16.0972V17.3894L6.60602 16.3169L8.40677 15.3989L17.1143 10.9619C17.2401 11.9154 17.0981 12.8851 16.7041 13.7625C16.3101 14.6399 15.6797 15.3903 14.8834 15.9298C14.0872 16.4692 13.1565 16.7764 12.1956 16.817C11.2346 16.8575 10.2814 16.6298 9.44252 16.1594L9.37877 16.1932L8.26127 16.7632C9.23904 17.473 10.3996 17.8881 11.6057 17.9595C12.8118 18.0309 14.0132 17.7555 15.0679 17.1659C16.1225 16.5764 16.9864 15.6973 17.5574 14.6325C18.1284 13.5676 18.3827 12.3616 18.2903 11.1569C18.2733 10.9306 18.3235 10.7043 18.4346 10.5064C18.5458 10.3085 18.7129 10.1479 18.915 10.0447L19.4595 9.76716V8.47866V8.47791Z" fill="white"/>
</g>
<defs>
<clipPath id="clip0_442_471">
<rect width="24" height="24" fill="white"/>
</clipPath>
</defs>
</svg>
