<svg width="24" height="24" viewBox="0 0 24 24" fill="none" xmlns="http://www.w3.org/2000/svg">
<g clip-path="url(#clip0_442_480)">
<path d="M12 24C18.6274 24 24 18.6274 24 12C24 5.37258 18.6274 0 12 0C5.37258 0 0 5.37258 0 12C0 18.6274 5.37258 24 12 24Z" fill="#FF6600"/>
<path d="M11.9776 3.92627C16.4664 3.92627 20.0964 7.55627 20.0964 12.0443C20.0933 12.919 19.9521 13.7877 19.6779 14.6183H17.2584V7.79777L11.9784 13.0778L6.69835 7.79777V14.6183H4.2781C4.00414 13.7876 3.86315 12.9189 3.86035 12.0443C3.86035 7.55627 7.4896 3.92627 11.9776 3.92627ZM10.7686 14.265L12.0001 15.4763L13.2099 14.2658L15.4981 11.9558V16.2458H18.9084C18.185 17.4354 17.1674 18.4187 15.9536 19.1008C14.7397 19.7828 13.3707 20.1406 11.9784 20.1398C9.05185 20.1398 6.47785 18.5783 5.04835 16.2458H8.45785V11.9558L10.7679 14.2658L10.7686 14.265Z" fill="white"/>
</g>
<defs>
<clipPath id="clip0_442_480">
<rect width="24" height="24" fill="white"/>
</clipPath>
</defs>
</svg>
