<svg width="24" height="24" viewBox="0 0 24 24" fill="none" xmlns="http://www.w3.org/2000/svg">
<circle cx="12" cy="12" r="12" fill="black"/>
<g clip-path="url(#clip0_442_288)">
<path d="M17.0908 6.00024H19.1721L14.8408 10.2887C13.2723 11.841 10.7293 11.841 9.1596 10.2887L4.82666 6.00024H6.9096L10.2002 9.25796C10.6797 9.73049 11.3258 9.99538 11.999 9.99538C12.6721 9.99538 13.3182 9.73049 13.7977 9.25796L17.0908 6.00024Z" fill="white"/>
<path d="M6.88295 17.9252H4.80029L9.15967 13.6102C10.7282 12.058 13.2713 12.058 14.8409 13.6102L19.2003 17.9252H17.119L13.8003 14.641C13.3209 14.1685 12.6747 13.9036 12.0016 13.9036C11.3284 13.9036 10.6823 14.1685 10.2028 14.641L6.88295 17.9252Z" fill="white"/>
</g>
<defs>
<clipPath id="clip0_442_288">
<rect width="14.4" height="14.4" fill="white" transform="translate(4.80029 4.80029)"/>
</clipPath>
</defs>
</svg>
