<svg width="24" height="24" viewBox="0 0 24 24" fill="none" xmlns="http://www.w3.org/2000/svg">
<g clip-path="url(#clip0_442_414)">
<path d="M12 24C18.6274 24 24 18.6274 24 12C24 5.37258 18.6274 0 12 0C5.37258 0 0 5.37258 0 12C0 18.6274 5.37258 24 12 24Z" fill="#006AE3"/>
<path d="M11.4075 16.7702V7.31567H12.4365V16.7702H11.4075Z" fill="white"/>
<path d="M16.6478 10.4656L13.4678 11.3086L12.759 8.00857L13.704 7.79557L14.0775 9.35857C14.0775 9.35857 14.9363 7.95007 13.791 6.49057C13.116 5.74057 12.7958 5.70907 12.039 5.59057C11.373 5.49532 9.825 5.72032 9.36375 7.52707C9.16875 8.69107 9.3885 9.55207 10.8885 10.6793L10.8045 11.9341C10.8045 11.9341 9.12975 10.7543 8.69775 9.92707C8.364 9.27232 7.79025 7.97932 8.82525 6.17932C9.38175 5.27932 10.4798 4.41607 12.414 4.50682C13.386 4.54732 15.7613 5.73682 15.393 8.51332C15.3293 9.03382 15.0593 9.72682 15.0593 9.72682L16.3643 9.43657L16.6478 10.4656ZM14.832 17.8636C14.25 18.7478 13.1295 19.5811 11.1998 19.4408C10.227 19.3748 7.88625 18.1223 8.32725 15.3563C8.4045 14.8388 8.69325 14.1541 8.69325 14.1541L7.3815 14.4091L7.125 13.3748L10.3275 12.6158L10.95 15.9338L9.9975 16.1228L9.666 14.5478C9.666 14.5478 8.7705 15.9316 9.87525 17.4226C10.5293 18.1906 10.848 18.2296 11.6048 18.3676C12.2663 18.4816 13.8203 18.2956 14.3295 16.5023C14.5545 15.3451 14.3565 14.4773 12.8888 13.3088L13.0065 12.0563C13.0065 12.0563 14.6498 13.2788 15.0593 14.1181C15.3728 14.7841 15.9113 16.0928 14.832 17.8636Z" fill="white"/>
</g>
<defs>
<clipPath id="clip0_442_414">
<rect width="24" height="24" fill="white"/>
</clipPath>
</defs>
</svg>
