<svg width="88" height="88" viewBox="0 0 88 88" fill="none" xmlns="http://www.w3.org/2000/svg">
<g clip-path="url(#clip0_247_54)">
<path fill-rule="evenodd" clip-rule="evenodd" d="M88 44C88 68.3 68.3 88 44 88C19.7 88 0 68.3 0 44C0 19.7 19.7 0 44 0C68.3 0 88 19.7 88 44Z" fill="#F4F4F9"/>
<path d="M44 69C57.8071 69 69 57.8071 69 44C69 30.1929 57.8071 19 44 19C30.1929 19 19 30.1929 19 44C19 57.8071 30.1929 69 44 69Z" fill="white"/>
<path d="M49.009 10.6836C49.597 10.6836 50.081 11.1286 50.143 11.6996L50.15 11.8246V16.2816C50.15 16.8706 49.705 17.3546 49.133 17.4166L49.009 17.4226H48.366V19.1476L48.609 19.1846C53.4827 19.9672 58.0155 22.1753 61.636 25.5306L62.011 25.8836L62.379 26.2446C64.7276 28.5805 66.5897 31.3591 67.8573 34.4194C69.1249 37.4797 69.773 40.7611 69.764 44.0736C69.7729 47.3859 69.1247 50.6671 67.8571 53.7272C66.5895 56.7874 64.7275 59.5658 62.379 61.9016C60.0432 64.2501 57.2648 66.1121 54.2047 67.3797C51.1445 68.6473 47.8633 69.2955 44.551 69.2866C41.2385 69.2956 37.9572 68.6475 34.8968 67.3799C31.8365 66.1122 29.0579 64.2502 26.722 61.9016C24.3737 59.5657 22.5119 56.7873 21.2444 53.7271C19.977 50.667 19.329 47.3858 19.338 44.0736C19.3289 40.7612 19.9768 37.4799 21.2443 34.4195C22.5117 31.3592 24.3735 28.5806 26.722 26.2446C30.5 22.4676 35.282 20.0226 40.492 19.1846L40.735 19.1466V17.4226H40.093C39.8328 17.4227 39.5805 17.334 39.3777 17.171C39.1749 17.008 39.0339 16.7807 38.978 16.5266L38.958 16.4066L38.952 16.2816V11.8246C38.952 11.2356 39.397 10.7516 39.969 10.6896L40.093 10.6836H49.009ZM45.691 21.1736V22.6756C45.6904 22.9671 45.5784 23.2473 45.3777 23.4588C45.1771 23.6702 44.9032 23.7969 44.6121 23.8127C44.321 23.8286 44.035 23.7325 43.8125 23.5441C43.5901 23.3557 43.4482 23.0893 43.416 22.7996L43.41 22.6756L43.409 21.1726L43.174 21.1846C40.082 21.3666 37.0596 22.1778 34.292 23.5686L34.089 23.6726L34.839 24.9726C35.134 25.4816 34.991 26.1226 34.527 26.4626L34.422 26.5306C34.1806 26.6708 33.896 26.7173 33.6226 26.6613C33.3491 26.6052 33.1058 26.4505 32.939 26.2266L32.864 26.1126L32.116 24.8166L31.923 24.9416C29.3413 26.6521 27.1295 28.8639 25.419 31.4456L25.294 31.6386L26.59 32.3866C27.1 32.6806 27.296 33.3076 27.064 33.8336L27.008 33.9446C26.87 34.1845 26.6494 34.3661 26.3874 34.4553C26.1253 34.5446 25.8398 34.5354 25.584 34.4296L25.449 34.3626L24.149 33.6126L24.046 33.8156C22.6555 36.5826 21.8443 39.6042 21.662 42.6956L21.65 42.9316H23.153C23.741 42.9316 24.226 43.3776 24.288 43.9486L24.294 44.0736C24.294 44.6616 23.849 45.1456 23.278 45.2076L23.153 45.2146L21.65 45.2136L21.662 45.4506C21.8442 48.5423 22.6554 51.5643 24.046 54.3316L24.151 54.5336L25.45 53.7836C25.6934 53.6433 25.9801 53.5977 26.255 53.6557C26.53 53.7136 26.7739 53.871 26.94 54.0976L27.008 54.2016C27.302 54.7116 27.158 55.3526 26.695 55.6916L26.591 55.7606L25.295 56.5076L25.42 56.7006C27.1305 59.2823 29.3423 61.4941 31.924 63.2046L32.116 63.3286L32.864 62.0336C33.158 61.5246 33.786 61.3276 34.312 61.5596L34.422 61.6166C34.932 61.9106 35.129 62.5376 34.897 63.0636L34.84 63.1746L34.09 64.4736L34.293 64.5786C37.0603 65.9693 40.0823 66.7805 43.174 66.9626L43.41 66.9726V65.4706C43.41 64.8826 43.855 64.3986 44.427 64.3366L44.551 64.3296C45.139 64.3296 45.623 64.7746 45.685 65.3466L45.692 65.4706V66.9736L45.928 66.9626C49.0197 66.7804 52.0417 65.9692 54.809 64.5786L55.011 64.4726L54.261 63.1746C54.1207 62.9311 54.0751 62.6445 54.1331 62.3695C54.191 62.0946 54.3484 61.8507 54.575 61.6846L54.679 61.6166C54.9223 61.4762 55.2089 61.4305 55.4838 61.4882C55.7588 61.546 56.0027 61.7031 56.169 61.9296L56.238 62.0336L56.985 63.3286L57.178 63.2046C59.7598 61.4942 61.9716 59.2824 63.682 56.7006L63.806 56.5066L62.511 55.7606C62.2675 55.6201 62.0844 55.3945 61.9969 55.1273C61.9094 54.8601 61.9237 54.5699 62.037 54.3126L62.094 54.2026C62.2342 53.9589 62.4595 53.7757 62.7265 53.688C62.9936 53.6003 63.2837 53.6144 63.541 53.7276L63.652 53.7836L64.95 54.5336L65.056 54.3316C66.4467 51.5643 67.2579 48.5423 67.44 45.4506L67.45 45.2136H65.948C65.6671 45.2136 65.396 45.1099 65.1868 44.9224C64.9775 44.7349 64.8448 44.4768 64.814 44.1976L64.807 44.0736C64.807 43.4856 65.252 43.0006 65.824 42.9386L65.948 42.9326L67.451 42.9316L67.44 42.6966C67.258 39.6049 66.4467 36.5829 65.056 33.8156L64.95 33.6126L63.652 34.3626C63.5224 34.4375 63.3794 34.4861 63.231 34.5056L63.083 34.5156C62.8421 34.5165 62.6071 34.441 62.4117 34.3C62.2164 34.1591 62.0707 33.9598 61.9956 33.7309C61.9205 33.502 61.9199 33.2552 61.9938 33.0259C62.0677 32.7966 62.2124 32.5966 62.407 32.4546L62.511 32.3866L63.806 31.6386L63.682 31.4456C61.9715 28.8638 59.7597 26.6521 57.178 24.9416L56.985 24.8176L56.238 26.1126C56.1491 26.2667 56.0255 26.3979 55.8768 26.4957C55.7282 26.5934 55.5587 26.6551 55.382 26.6756L55.249 26.6836C55.0594 26.6835 54.8727 26.6361 54.706 26.5458C54.5393 26.4554 54.3977 26.3249 54.294 26.1661C54.1904 26.0073 54.128 25.8251 54.1124 25.6361C54.0969 25.4471 54.1287 25.2572 54.205 25.0836L54.262 24.9716L55.012 23.6716L54.809 23.5686C52.0417 22.1779 49.0197 21.3667 45.928 21.1846L45.691 21.1736ZM46.084 17.4096H43.016V18.9066L43.309 18.8896C43.516 18.8796 43.723 18.8726 43.929 18.8676L44.551 18.8596C44.965 18.8596 45.379 18.8696 45.792 18.8896L46.084 18.9066V17.4096ZM47.867 12.6086H41.234V15.4696H47.867V12.6086ZM27.943 17.9986C23.012 17.9986 19 22.0106 19 26.9426C19 27.2228 19.1113 27.4915 19.3094 27.6897C19.5076 27.8878 19.7763 27.9991 20.0565 27.9991C20.3367 27.9991 20.6054 27.8878 20.8036 27.6897C21.0017 27.4915 21.113 27.2228 21.113 26.9426C21.1151 25.1317 21.8354 23.3956 23.1157 22.115C24.3961 20.8345 26.1321 20.114 27.943 20.1116C28.2232 20.1116 28.4919 20.0003 28.6901 19.8022C28.8882 19.604 28.9995 19.3353 28.9995 19.0551C28.9995 18.7749 28.8882 18.5062 28.6901 18.308C28.4919 18.1099 28.2232 17.9986 27.943 17.9986ZM60.057 17.9986C64.988 17.9986 69 22.0106 69 26.9426C69 27.2228 68.8887 27.4915 68.6906 27.6897C68.4924 27.8878 68.2237 27.9991 67.9435 27.9991C67.6633 27.9991 67.3946 27.8878 67.1964 27.6897C66.9983 27.4915 66.887 27.2228 66.887 26.9426C66.8849 25.1317 66.1646 23.3956 64.8843 22.115C63.6039 20.8345 61.8679 20.114 60.057 20.1116C59.7768 20.1116 59.5081 20.0003 59.3099 19.8022C59.1118 19.604 59.0005 19.3353 59.0005 19.0551C59.0005 18.7749 59.1118 18.5062 59.3099 18.308C59.5081 18.1099 59.7768 17.9986 60.057 17.9986Z" fill="#25258E"/>
<path d="M37.5909 32.7273V56H34.7727V35.6818H34.6364L28.9545 39.4545V36.5909L34.7727 32.7273H37.5909ZM51.875 56.3182C50.1629 56.3182 48.7045 55.8523 47.5 54.9205C46.2955 53.9811 45.375 52.6212 44.7386 50.8409C44.1023 49.053 43.7841 46.8939 43.7841 44.3636C43.7841 41.8485 44.1023 39.7008 44.7386 37.9205C45.3826 36.1326 46.3068 34.7689 47.5114 33.8295C48.7235 32.8826 50.178 32.4091 51.875 32.4091C53.572 32.4091 55.0227 32.8826 56.2273 33.8295C57.4394 34.7689 58.3636 36.1326 59 37.9205C59.6439 39.7008 59.9659 41.8485 59.9659 44.3636C59.9659 46.8939 59.6477 49.053 59.0114 50.8409C58.375 52.6212 57.4545 53.9811 56.25 54.9205C55.0455 55.8523 53.5871 56.3182 51.875 56.3182ZM51.875 53.8182C53.572 53.8182 54.8902 53 55.8295 51.3636C56.7689 49.7273 57.2386 47.3939 57.2386 44.3636C57.2386 42.3485 57.0227 40.6326 56.5909 39.2159C56.1667 37.7992 55.553 36.7197 54.75 35.9773C53.9545 35.2348 52.9962 34.8636 51.875 34.8636C50.1932 34.8636 48.8788 35.6932 47.9318 37.3523C46.9848 39.0038 46.5114 41.3409 46.5114 44.3636C46.5114 46.3788 46.7235 48.0909 47.1477 49.5C47.572 50.9091 48.1818 51.9811 48.9773 52.7159C49.7803 53.4508 50.7462 53.8182 51.875 53.8182Z" fill="#25258E"/>
</g>
<defs>
<clipPath id="clip0_247_54">
<rect width="88" height="88" fill="white"/>
</clipPath>
</defs>
</svg>
