<svg width="56" height="56" viewBox="0 0 56 56" fill="none" xmlns="http://www.w3.org/2000/svg">
<g clip-path="url(#clip0_228_45)">
<path d="M56 28C56 12.536 43.464 0 28 0C12.536 0 0 12.536 0 28C0 43.464 12.536 56 28 56C43.464 56 56 43.464 56 28Z" fill="#3F444E"/>
<path fill-rule="evenodd" clip-rule="evenodd" d="M39.9632 20.6454C37.9602 17.7254 34.8562 17.3254 33.7652 17.2944C31.1572 17.0194 28.6282 18.8544 27.3002 18.8544C25.9462 18.8544 23.9002 17.3204 21.6962 17.3654C18.8602 17.4094 16.2062 19.0514 14.7502 21.6024C11.7472 26.8024 13.9872 34.4434 16.8652 38.6464C18.3052 40.7054 19.9862 43.0034 22.1882 42.9214C24.3422 42.8334 25.1462 41.5494 27.7462 41.5494C30.3212 41.5494 31.0762 42.9214 33.3222 42.8694C35.6342 42.8334 37.0892 40.8034 38.4782 38.7244C40.1422 36.3664 40.8102 34.0414 40.8362 33.9224C40.7832 33.9054 36.3482 32.2114 36.3032 27.0924C36.2652 22.8204 39.8012 20.7424 39.9632 20.6454ZM30.5852 14.5294C31.7432 13.0804 32.5362 11.1094 32.3162 9.10938C30.6392 9.18338 28.5422 10.2694 27.3352 11.6864C26.2662 12.9344 25.3122 14.9814 25.5592 16.9064C27.4422 17.0464 29.3762 15.9564 30.5852 14.5294Z" fill="white"/>
</g>
<defs>
<clipPath id="clip0_228_45">
<rect width="56" height="56" fill="white"/>
</clipPath>
</defs>
</svg>
