<svg width="68" height="92" viewBox="0 0 68 92" fill="none" xmlns="http://www.w3.org/2000/svg">
<g opacity="0.2">
<path d="M44 92V72.5C49.22 70.436 51.838 67.936 51.858 65C51.888 60.399 51.878 55.548 51.828 50.449V48.455C51.8299 46.723 51.5662 45.001 51.046 43.349L49.643 40.057C47.495 36.213 43.989 33.401 39.841 32C40.7531 31.1347 41.4793 30.0927 41.9755 28.9375C42.4717 27.7823 42.7274 26.5382 42.727 25.281C42.727 20.163 38.568 16 33.457 16C28.347 16 24.188 20.163 24.188 25.281C24.1876 26.6017 24.4696 27.9073 25.0152 29.1101C25.5607 30.3129 26.3571 31.3852 27.351 32.255C23.527 33.725 20.301 36.455 18.273 40.057L16.861 43.295C16.331 44.96 16 46.689 16 48.455V65C16.716 68.306 19.416 70.806 24.1 72.5L24.3 92H44ZM33.457 19.524C36.627 19.524 39.207 22.107 39.207 25.281C39.207 28.455 36.627 31.037 33.457 31.037C30.287 31.037 27.708 28.455 27.708 25.281C27.708 22.107 30.287 19.524 33.457 19.524ZM33.945 34.562C39.847 34.562 45.082 37.986 47.281 43.284C47.9621 44.9228 48.3115 46.6803 48.309 48.455V63.427C48.309 65.897 46.463 67.958 44.027 68.407V48.977C44.035 48.7409 43.9953 48.5056 43.9105 48.2851C43.8256 48.0646 43.6972 47.8635 43.533 47.6936C43.3688 47.5238 43.1721 47.3887 42.9546 47.2964C42.7371 47.2042 42.5033 47.1567 42.267 47.1567C42.0307 47.1567 41.7969 47.2042 41.5794 47.2964C41.3619 47.3887 41.1652 47.5238 41.001 47.6936C40.8368 47.8635 40.7084 48.0646 40.6235 48.2851C40.5387 48.5056 40.499 48.7409 40.507 48.977V92H35.445V70.723C35.453 70.4869 35.4133 70.2516 35.3285 70.0311C35.2436 69.8106 35.1152 69.6095 34.951 69.4396C34.7868 69.2698 34.5901 69.1347 34.3726 69.0424C34.1551 68.9502 33.9213 68.9027 33.685 68.9027C33.4487 68.9027 33.2149 68.9502 32.9974 69.0424C32.7799 69.1347 32.5832 69.2698 32.419 69.4396C32.2548 69.6095 32.1264 69.8106 32.0415 70.0311C31.9567 70.2516 31.917 70.4869 31.925 70.723V92H27.643V48.976C27.651 48.7399 27.6113 48.5046 27.5265 48.2841C27.4416 48.0636 27.3132 47.8625 27.149 47.6926C26.9848 47.5228 26.7881 47.3877 26.5706 47.2954C26.3531 47.2032 26.1193 47.1557 25.883 47.1557C25.6467 47.1557 25.4129 47.2032 25.1954 47.2954C24.9779 47.3877 24.7812 47.5228 24.617 47.6926C24.4528 47.8625 24.3244 48.0636 24.2395 48.2841C24.1547 48.5046 24.115 48.7399 24.123 48.976V68.45C21.56 68.104 19.581 65.984 19.581 63.427V48.455C19.581 46.652 19.934 44.895 20.631 43.237C22.847 37.963 28.071 34.562 33.945 34.562Z" fill="#2E3DA2"/>
</g>
</svg>
