<svg width="68" height="92" viewBox="0 0 68 92" fill="none" xmlns="http://www.w3.org/2000/svg">
<g clip-path="url(#clip0_243_31)">
<path d="M28 92V72.5C33.22 70.436 35.838 67.936 35.858 65C35.888 60.399 35.878 55.548 35.828 50.449V48.455C35.8299 46.723 35.5662 45.001 35.046 43.349L33.643 40.057C31.495 36.213 27.989 33.401 23.841 32C24.7531 31.1347 25.4793 30.0927 25.9755 28.9375C26.4717 27.7823 26.7274 26.5382 26.727 25.281C26.727 20.163 22.568 16 17.457 16C12.347 16 8.188 20.163 8.188 25.281C8.18762 26.6017 8.46965 27.9073 9.01518 29.1101C9.5607 30.3129 10.3571 31.3852 11.351 32.255C7.527 33.725 4.301 36.455 2.273 40.057L0.86 43.295C0.331 44.96 0 46.69 0 48.455V65C0.716 68.306 3.416 70.806 8.1 72.5L8.3 92H28ZM17.457 19.524C20.627 19.524 23.207 22.107 23.207 25.281C23.207 28.455 20.627 31.037 17.457 31.037C14.287 31.037 11.708 28.455 11.708 25.281C11.708 22.107 14.287 19.524 17.457 19.524ZM17.945 34.562C23.847 34.562 29.082 37.986 31.281 43.284C31.9621 44.9228 32.3115 46.6803 32.309 48.455V63.427C32.309 65.897 30.463 67.958 28.027 68.407V48.977C28.035 48.7409 27.9953 48.5056 27.9105 48.2851C27.8256 48.0646 27.6972 47.8635 27.533 47.6936C27.3688 47.5238 27.1721 47.3887 26.9546 47.2964C26.7371 47.2042 26.5033 47.1567 26.267 47.1567C26.0307 47.1567 25.7969 47.2042 25.5794 47.2964C25.3619 47.3887 25.1652 47.5238 25.001 47.6936C24.8368 47.8635 24.7084 48.0646 24.6235 48.2851C24.5387 48.5056 24.499 48.7409 24.507 48.977V92H19.445V70.723C19.453 70.4869 19.4133 70.2516 19.3285 70.0311C19.2436 69.8106 19.1152 69.6095 18.951 69.4396C18.7868 69.2698 18.5901 69.1347 18.3726 69.0424C18.1551 68.9502 17.9213 68.9027 17.685 68.9027C17.4487 68.9027 17.2149 68.9502 16.9974 69.0424C16.7799 69.1347 16.5832 69.2698 16.419 69.4396C16.2548 69.6095 16.1264 69.8106 16.0415 70.0311C15.9567 70.2516 15.917 70.4869 15.925 70.723V92H11.643V48.976C11.651 48.7399 11.6113 48.5046 11.5265 48.2841C11.4416 48.0636 11.3132 47.8625 11.149 47.6926C10.9848 47.5228 10.7881 47.3877 10.5706 47.2954C10.3531 47.2032 10.1193 47.1557 9.883 47.1557C9.64675 47.1557 9.41291 47.2032 9.19541 47.2954C8.97791 47.3877 8.7812 47.5228 8.61698 47.6926C8.45276 47.8625 8.3244 48.0636 8.23954 48.2841C8.15467 48.5046 8.11504 48.7399 8.123 48.976V68.45C5.56 68.104 3.581 65.984 3.581 63.427V48.455C3.581 46.652 3.934 44.895 4.631 43.237C6.847 37.963 12.071 34.562 17.945 34.562Z" fill="#3A34B1"/>
<path d="M61 92V72.5C66.22 70.436 68.838 67.936 68.858 65C68.888 60.399 68.878 55.548 68.828 50.449V48.455C68.8299 46.723 68.5662 45.001 68.046 43.349L66.643 40.057C64.495 36.213 60.989 33.401 56.841 32C57.7531 31.1347 58.4793 30.0927 58.9755 28.9375C59.4717 27.7823 59.7274 26.5382 59.727 25.281C59.727 20.163 55.568 16 50.457 16C45.347 16 41.188 20.163 41.188 25.281C41.1876 26.6017 41.4697 27.9073 42.0152 29.1101C42.5607 30.3129 43.3571 31.3852 44.351 32.255C40.527 33.725 37.301 36.455 35.273 40.057L33.861 43.295C33.331 44.96 33 46.689 33 48.455V65C33.716 68.306 36.416 70.806 41.1 72.5L41.3 92H61ZM50.457 19.524C53.627 19.524 56.207 22.107 56.207 25.281C56.207 28.455 53.627 31.037 50.457 31.037C47.287 31.037 44.708 28.455 44.708 25.281C44.708 22.107 47.287 19.524 50.457 19.524ZM50.945 34.562C56.847 34.562 62.082 37.986 64.281 43.284C64.9621 44.9228 65.3115 46.6803 65.309 48.455V63.427C65.309 65.897 63.463 67.958 61.027 68.407V48.977C61.035 48.7409 60.9953 48.5056 60.9105 48.2851C60.8256 48.0646 60.6972 47.8635 60.533 47.6936C60.3688 47.5238 60.1721 47.3887 59.9546 47.2964C59.7371 47.2042 59.5033 47.1567 59.267 47.1567C59.0307 47.1567 58.7969 47.2042 58.5794 47.2964C58.3619 47.3887 58.1652 47.5238 58.001 47.6936C57.8368 47.8635 57.7084 48.0646 57.6235 48.2851C57.5387 48.5056 57.499 48.7409 57.507 48.977V92H52.445V70.723C52.453 70.4869 52.4133 70.2516 52.3285 70.0311C52.2436 69.8106 52.1152 69.6095 51.951 69.4396C51.7868 69.2698 51.5901 69.1347 51.3726 69.0424C51.1551 68.9502 50.9213 68.9027 50.685 68.9027C50.4487 68.9027 50.2149 68.9502 49.9974 69.0424C49.7799 69.1347 49.5832 69.2698 49.419 69.4396C49.2548 69.6095 49.1264 69.8106 49.0415 70.0311C48.9567 70.2516 48.917 70.4869 48.925 70.723V92H44.643V48.976C44.651 48.7399 44.6113 48.5046 44.5265 48.2841C44.4416 48.0636 44.3132 47.8625 44.149 47.6926C43.9848 47.5228 43.7881 47.3877 43.5706 47.2954C43.3531 47.2032 43.1193 47.1557 42.883 47.1557C42.6467 47.1557 42.4129 47.2032 42.1954 47.2954C41.9779 47.3877 41.7812 47.5228 41.617 47.6926C41.4528 47.8625 41.3244 48.0636 41.2395 48.2841C41.1547 48.5046 41.115 48.7399 41.123 48.976V68.45C38.56 68.104 36.581 65.984 36.581 63.427V48.455C36.581 46.652 36.934 44.895 37.631 43.237C39.847 37.963 45.071 34.562 50.945 34.562Z" fill="#3A34B1"/>
<path d="M34 16.25C38.0041 16.25 41.25 13.0041 41.25 9C41.25 4.99594 38.0041 1.75 34 1.75C29.9959 1.75 26.75 4.99594 26.75 9C26.75 13.0041 29.9959 16.25 34 16.25Z" stroke="#2E3DA2" stroke-width="3.5"/>
</g>
<defs>
<clipPath id="clip0_243_31">
<rect width="68" height="92" fill="white"/>
</clipPath>
</defs>
</svg>
