<svg width="68" height="92" viewBox="0 0 68 92" fill="none" xmlns="http://www.w3.org/2000/svg">
<path d="M28 92V72.5C33.22 70.436 35.838 67.936 35.858 65C35.888 60.399 35.878 55.548 35.828 50.449V48.455C35.8299 46.723 35.5662 45.001 35.046 43.349L33.643 40.057C31.495 36.213 27.989 33.401 23.841 32C24.7531 31.1347 25.4793 30.0927 25.9755 28.9375C26.4717 27.7823 26.7274 26.5382 26.727 25.281C26.727 20.163 22.568 16 17.457 16C12.347 16 8.188 20.163 8.188 25.281C8.18762 26.6017 8.46965 27.9073 9.01518 29.1101C9.5607 30.3129 10.3571 31.3852 11.351 32.255C7.527 33.725 4.301 36.455 2.273 40.057L0.86 43.295C0.331 44.96 0 46.69 0 48.455V65C0.716 68.306 3.416 70.806 8.1 72.5L8.3 92H28ZM17.457 19.524C20.627 19.524 23.207 22.107 23.207 25.281C23.207 28.455 20.627 31.037 17.457 31.037C14.287 31.037 11.708 28.455 11.708 25.281C11.708 22.107 14.287 19.524 17.457 19.524ZM17.945 34.562C23.847 34.562 29.082 37.986 31.281 43.284C31.9621 44.9228 32.3115 46.6803 32.309 48.455V63.427C32.309 65.897 30.463 67.958 28.027 68.407V48.977C28.035 48.7409 27.9953 48.5056 27.9105 48.2851C27.8256 48.0646 27.6972 47.8635 27.533 47.6936C27.3688 47.5238 27.1721 47.3887 26.9546 47.2964C26.7371 47.2042 26.5033 47.1567 26.267 47.1567C26.0307 47.1567 25.7969 47.2042 25.5794 47.2964C25.3619 47.3887 25.1652 47.5238 25.001 47.6936C24.8368 47.8635 24.7084 48.0646 24.6235 48.2851C24.5387 48.5056 24.499 48.7409 24.507 48.977V92H19.445V70.723C19.453 70.4869 19.4133 70.2516 19.3285 70.0311C19.2436 69.8106 19.1152 69.6095 18.951 69.4396C18.7868 69.2698 18.5901 69.1347 18.3726 69.0424C18.1551 68.9502 17.9213 68.9027 17.685 68.9027C17.4487 68.9027 17.2149 68.9502 16.9974 69.0424C16.7799 69.1347 16.5832 69.2698 16.419 69.4396C16.2548 69.6095 16.1264 69.8106 16.0415 70.0311C15.9567 70.2516 15.917 70.4869 15.925 70.723V92H11.643V48.976C11.651 48.7399 11.6113 48.5046 11.5265 48.2841C11.4416 48.0636 11.3132 47.8625 11.149 47.6926C10.9848 47.5228 10.7881 47.3877 10.5706 47.2954C10.3531 47.2032 10.1193 47.1557 9.883 47.1557C9.64675 47.1557 9.41291 47.2032 9.19541 47.2954C8.97791 47.3877 8.7812 47.5228 8.61698 47.6926C8.45276 47.8625 8.3244 48.0636 8.23954 48.2841C8.15467 48.5046 8.11504 48.7399 8.123 48.976V68.45C5.56 68.104 3.581 65.984 3.581 63.427V48.455C3.581 46.652 3.934 44.895 4.631 43.237C6.847 37.963 12.071 34.562 17.945 34.562Z" fill="#979ED1"/>
<path d="M60 92V72.5C65.22 70.436 67.838 67.936 67.858 65C67.888 60.399 67.878 55.548 67.828 50.449V48.455C67.8299 46.723 67.5662 45.001 67.046 43.349L65.643 40.057C63.495 36.213 59.989 33.401 55.841 32C56.7531 31.1347 57.4793 30.0927 57.9755 28.9375C58.4717 27.7823 58.7274 26.5382 58.727 25.281C58.727 20.163 54.568 16 49.457 16C44.347 16 40.188 20.163 40.188 25.281C40.1876 26.6017 40.4697 27.9073 41.0152 29.1101C41.5607 30.3129 42.3571 31.3852 43.351 32.255C39.527 33.725 36.301 36.455 34.273 40.057L32.861 43.295C32.331 44.96 32 46.689 32 48.455V65C32.716 68.306 35.416 70.806 40.1 72.5L40.3 92H60ZM49.457 19.524C52.627 19.524 55.207 22.107 55.207 25.281C55.207 28.455 52.627 31.037 49.457 31.037C46.287 31.037 43.708 28.455 43.708 25.281C43.708 22.107 46.287 19.524 49.457 19.524ZM49.945 34.562C55.847 34.562 61.082 37.986 63.281 43.284C63.9621 44.9228 64.3115 46.6803 64.309 48.455V63.427C64.309 65.897 62.463 67.958 60.027 68.407V48.977C60.035 48.7409 59.9953 48.5056 59.9105 48.2851C59.8256 48.0646 59.6972 47.8635 59.533 47.6936C59.3688 47.5238 59.1721 47.3887 58.9546 47.2964C58.7371 47.2042 58.5033 47.1567 58.267 47.1567C58.0307 47.1567 57.7969 47.2042 57.5794 47.2964C57.3619 47.3887 57.1652 47.5238 57.001 47.6936C56.8368 47.8635 56.7084 48.0646 56.6235 48.2851C56.5387 48.5056 56.499 48.7409 56.507 48.977V92H51.445V70.723C51.453 70.4869 51.4133 70.2516 51.3285 70.0311C51.2436 69.8106 51.1152 69.6095 50.951 69.4396C50.7868 69.2698 50.5901 69.1347 50.3726 69.0424C50.1551 68.9502 49.9213 68.9027 49.685 68.9027C49.4487 68.9027 49.2149 68.9502 48.9974 69.0424C48.7799 69.1347 48.5832 69.2698 48.419 69.4396C48.2548 69.6095 48.1264 69.8106 48.0415 70.0311C47.9567 70.2516 47.917 70.4869 47.925 70.723V92H43.643V48.976C43.651 48.7399 43.6113 48.5046 43.5265 48.2841C43.4416 48.0636 43.3132 47.8625 43.149 47.6926C42.9848 47.5228 42.7881 47.3877 42.5706 47.2954C42.3531 47.2032 42.1193 47.1557 41.883 47.1557C41.6467 47.1557 41.4129 47.2032 41.1954 47.2954C40.9779 47.3877 40.7812 47.5228 40.617 47.6926C40.4528 47.8625 40.3244 48.0636 40.2395 48.2841C40.1547 48.5046 40.115 48.7399 40.123 48.976V68.45C37.56 68.104 35.581 65.984 35.581 63.427V48.455C35.581 46.652 35.934 44.895 36.631 43.237C38.847 37.963 44.071 34.562 49.945 34.562Z" fill="#979ED1"/>
</svg>
