<svg width="56" height="56" viewBox="0 0 56 56" fill="none" xmlns="http://www.w3.org/2000/svg">
<g clip-path="url(#clip0_228_44)">
<path d="M56 28C56 12.536 43.464 0 28 0C12.536 0 0 12.536 0 28C0 43.464 12.536 56 28 56C43.464 56 56 43.464 56 28Z" fill="#212121"/>
<path fill-rule="evenodd" clip-rule="evenodd" d="M21.5108 13.3899C24.0108 12.0749 26.9668 11.7669 29.7368 12.1579C31.8428 12.4679 34.0268 13.3149 35.3198 15.0909C36.3218 16.4309 36.5318 18.1629 36.5798 19.7859V29.3159C36.5769 30.263 36.841 31.1919 37.3418 31.9959C37.6488 32.5319 38.0788 32.9849 38.3978 33.5129C38.6058 33.8499 38.5878 34.3499 38.2388 34.5859C37.1188 35.5399 36.0088 36.5019 34.9008 37.4689C34.5468 37.8439 33.8778 37.8989 33.5078 37.5179C32.7588 36.8699 32.0628 36.1519 31.5328 35.3079C31.3758 35.1039 31.2818 34.8379 31.0738 34.6809C30.1158 35.5959 29.1258 36.5299 27.9118 37.1009C27.0118 37.5699 26.0018 37.7749 25.0018 37.8829C23.4018 38.0009 21.7148 37.9649 20.2498 37.2289C18.7788 36.5369 17.6628 35.1979 17.1758 33.6539C16.5358 31.5919 16.6088 29.2869 17.4988 27.3089C18.4218 25.2689 20.3308 23.8069 22.4298 23.1269C24.9278 22.3069 27.5748 22.1619 30.1708 21.8769C30.1208 20.4779 30.4248 18.8469 29.4028 17.7079C27.6788 16.0379 24.2308 16.7759 23.5278 19.1379C23.4178 19.6719 23.2108 20.3429 22.5648 20.4009C21.1288 20.1749 19.6728 20.0769 18.2298 19.8929C17.8228 19.8579 17.4478 19.4869 17.5218 19.0619C17.8508 16.6769 19.3718 14.5019 21.5118 13.3899H21.5108ZM25.2708 26.5139C24.7955 26.791 24.3887 27.1716 24.0805 27.6274C23.7724 28.0832 23.5708 28.6025 23.4908 29.1469C23.3078 30.2449 23.4028 31.4779 24.0918 32.3929C24.7458 33.2779 25.9878 33.5679 27.0118 33.2529C28.2818 32.8929 29.1918 31.7809 29.6718 30.5969C30.3558 28.9839 30.1278 27.1969 30.1668 25.4919C28.5028 25.5559 26.7368 25.6319 25.2708 26.5139Z" fill="white"/>
<path fill-rule="evenodd" clip-rule="evenodd" d="M39.6248 36.3741C41.1308 35.3571 43.0388 35.1471 44.8088 35.3201C45.2808 35.3931 45.7818 35.4581 46.1868 35.7301C46.4628 36.1201 46.3498 36.6411 46.3328 37.0901C46.0898 38.8841 45.3758 40.6911 44.0298 41.9441C43.8448 42.1241 43.4828 42.3661 43.3328 42.0171C43.7928 40.6771 44.4108 39.3711 44.5938 37.9531C44.6498 37.5621 44.6068 37.0291 44.1528 36.9071C42.5788 36.4471 40.9428 36.9651 39.3468 36.9141C39.3608 36.6991 39.4138 36.4781 39.6248 36.3741ZM9.25084 36.0051C9.41684 35.9751 9.56384 36.0701 9.70584 36.1441C18.2238 41.0511 28.7638 42.3361 38.1938 39.5241C39.4892 39.1505 40.7611 38.7001 42.0028 38.1751C42.2778 38.0511 42.6418 37.9451 42.8948 38.1781C43.2048 38.4121 43.0778 38.9141 42.7588 39.0811C40.4108 40.8131 37.6828 41.9711 34.8768 42.7311C30.3953 43.9536 25.6788 44.0326 21.1588 42.9611C16.7031 41.9031 12.5868 39.7367 9.19184 36.6631C8.93784 36.5121 8.91384 36.0441 9.25084 36.0051Z" fill="#F8981D"/>
</g>
<defs>
<clipPath id="clip0_228_44">
<rect width="56" height="56" fill="white"/>
</clipPath>
</defs>
</svg>
