<svg class="loginIcon" width="21px" height="20px" viewBox="0 0 21 20" version="1.1" xmlns="http://www.w3.org/2000/svg"><g fill="#25258e"><path d="M0,10.0479728 C0,10.4361105 0.315746374,10.7507063 0.705303589,10.7507063 L14.1388766,10.7507063 L11.5185918,13.3573572 C11.2438514,13.6310964 11.2438514,14.0764333 11.5185918,14.3501725 C11.6539116,14.4849992 11.8343381,14.5544554 12.0147646,14.5544554 C12.1951911,14.5544554 12.3756176,14.4849992 12.5109375,14.3501725 L16.3285982,10.5464233 C16.6033386,10.2726841 16.6033386,9.82734721 16.3285982,9.55360801 L12.5109375,5.74985885 C12.2361971,5.47611966 11.7892315,5.47611966 11.5144911,5.74985885 C11.2397508,6.02359805 11.2397508,6.46893496 11.5144911,6.74267415 L14.1306754,9.34932502 L0.705303589,9.34932502 C0.315746374,9.34932502 0,9.65983516 0,10.0479728 Z"></path><path d="M16.1964894,20 C18.5150337,20 20.3960396,18.1156755 20.3960396,15.7980789 L20.3960396,4.20192111 C20.3960396,1.88432455 18.5109445,0 16.1964894,0 L4.5955898,0 C2.27704553,0 0.396039604,1.88432455 0.396039604,4.20192111 L0.396039604,6.58491723 C0.396039604,6.97322706 0.71090364,7.28387492 1.09528311,7.28387492 C1.48375173,7.28387492 1.79861576,6.96913959 1.79861576,6.58491723 L1.79861576,4.20192111 C1.79861576,2.66094421 3.05398276,1.40200286 4.5955898,1.40200286 L16.1964894,1.40200286 C17.7380964,1.40200286 18.9934634,2.65685673 18.9934634,4.20192111 L18.9934634,15.7980789 C18.9934634,17.3390558 17.7380964,18.5979971 16.1964894,18.5979971 L4.5955898,18.5979971 C3.05398276,18.5979971 1.79861576,17.3431433 1.79861576,15.7980789 L1.79861576,13.4436951 C1.79861576,13.0553852 1.48375173,12.7406499 1.09528311,12.7406499 C0.706814497,12.7406499 0.396039604,13.0553852 0.396039604,13.4436951 L0.396039604,15.7980789 C0.396039604,18.1156755 2.28113468,20 4.5955898,20 L16.1964894,20 L16.1964894,20 Z"></path></g></svg>