<svg width="130" height="22" viewBox="0 0 130 22" fill="none" xmlns="http://www.w3.org/2000/svg">
<mask id="mask0_257_149" style="mask-type:luminance" maskUnits="userSpaceOnUse" x="0" y="0" width="130" height="22">
<path d="M129.724 0.960938H0.648438V21.0393H129.724V0.960938Z" fill="white"/>
</mask>
<g mask="url(#mask0_257_149)">
<mask id="mask1_257_149" style="mask-type:luminance" maskUnits="userSpaceOnUse" x="0" y="0" width="130" height="22">
<path d="M129.724 0.960938H0.648438V21.0393H129.724V0.960938Z" fill="white"/>
</mask>
<g mask="url(#mask1_257_149)">
<path d="M52.5591 2.16224C52.5591 1.76449 52.8861 1.4375 53.2838 1.4375H56.0709C56.4686 1.4375 56.7956 1.76449 56.7966 2.16224V4.43301C56.7966 4.83076 57.1245 5.1587 57.5223 5.1587H59.7185C59.9102 5.1602 60.0937 5.23704 60.2293 5.37263C60.3649 5.50822 60.4417 5.69169 60.4432 5.88344V16.1158C60.4422 16.3072 60.3657 16.4905 60.2304 16.6258C60.095 16.7612 59.9118 16.8376 59.7204 16.8386H57.5223C57.3301 16.8396 57.1461 16.9164 57.0102 17.0523C56.8744 17.1882 56.7976 17.3722 56.7966 17.5643V19.8351C56.7958 20.0271 56.7192 20.211 56.5835 20.3467C56.4477 20.4825 56.2638 20.5591 56.0718 20.5598H53.2838C53.0918 20.5591 52.9079 20.4825 52.7722 20.3467C52.6364 20.211 52.5598 20.0271 52.5591 19.8351V17.0452C52.5591 16.6474 52.8861 16.3204 53.2838 16.3204H55.4829C55.6749 16.3194 55.8587 16.2428 55.9946 16.1071C56.1304 15.9714 56.2073 15.7877 56.2086 15.5957V6.39687C56.2076 6.20522 56.131 6.02171 55.9955 5.88619C55.8599 5.75068 55.6764 5.6741 55.4848 5.67309H53.2828C53.0912 5.67209 52.9077 5.59551 52.7722 5.45999C52.6367 5.32448 52.5601 5.14096 52.5591 4.94931V2.16224ZM32.3401 2.16224C32.3393 1.97026 32.2627 1.78636 32.127 1.65061C31.9912 1.51485 31.8073 1.43826 31.6154 1.4375H28.8245C28.6327 1.439 28.4492 1.51584 28.3136 1.65143C28.1781 1.78702 28.1012 1.97049 28.0997 2.16224V4.43301C28.0987 4.62517 28.0219 4.80917 27.8861 4.94504C27.7502 5.08092 27.5662 5.1577 27.374 5.1587H25.1778C24.9861 5.1602 24.8026 5.23704 24.667 5.37263C24.5314 5.50822 24.4546 5.69169 24.4531 5.88344V16.1158C24.4541 16.3072 24.5306 16.4905 24.6659 16.6258C24.8012 16.7612 24.9845 16.8376 25.1759 16.8386H27.374C27.7718 16.8386 28.0997 17.1666 28.0997 17.5643V19.8341C28.101 20.0261 28.1777 20.2098 28.3133 20.3456C28.4489 20.4814 28.6325 20.5583 28.8245 20.5598H31.6154C31.8073 20.5591 31.9912 20.4825 32.127 20.3467C32.2627 20.211 32.3393 20.0271 32.3401 19.8351V17.0452C32.3393 16.8532 32.2627 16.6693 32.127 16.5335C31.9912 16.3978 31.8073 16.3212 31.6154 16.3204H29.4172C29.2253 16.3194 29.0414 16.2428 28.9055 16.1071C28.7697 15.9714 28.6928 15.7877 28.6916 15.5957V6.39879C28.6916 6.00104 29.0195 5.67309 29.4172 5.67309H31.6163C31.808 5.67209 31.9915 5.59551 32.127 5.45999C32.2625 5.32448 32.3391 5.14096 32.3401 4.94931V2.16224ZM39.8666 6.45424C39.8679 6.29411 39.9321 6.1409 40.0453 6.02767C40.1585 5.91443 40.3117 5.85027 40.4719 5.84902H46.5948C46.7124 5.84984 46.8272 5.88479 46.9253 5.94963C47.0234 6.01446 47.1006 6.1064 47.1475 6.21425L48.1399 8.50702C48.1864 8.6152 48.2635 8.70747 48.3616 8.77251C48.4598 8.83756 48.5748 8.87255 48.6925 8.87321H50.7472C51.078 8.87321 51.3505 9.14571 51.3505 9.47652V16.2449C51.3498 16.4052 51.2858 16.5587 51.1724 16.672C51.0591 16.7853 50.9056 16.8494 50.7453 16.8501H48.1476C47.9873 16.8494 47.8338 16.7853 47.7204 16.672C47.6071 16.5587 47.5431 16.4052 47.5423 16.2449V9.96032C47.5413 9.80044 47.4775 9.64737 47.3646 9.53414C47.2518 9.4209 47.0989 9.3566 46.939 9.3551H44.2782C44.1183 9.3566 43.9654 9.4209 43.8525 9.53414C43.7397 9.64737 43.6758 9.80044 43.6748 9.96032V16.2449C43.6741 16.4052 43.6101 16.5587 43.4967 16.672C43.3834 16.7853 43.2299 16.8494 43.0696 16.8501H40.4719C40.3116 16.8494 40.1581 16.7853 40.0447 16.672C39.9314 16.5587 39.8674 16.4052 39.8666 16.2449V6.45424ZM33.7016 6.45424C33.7028 6.29411 33.767 6.1409 33.8802 6.02767C33.9935 5.91443 34.1467 5.85027 34.3068 5.84902H36.9055C37.0656 5.85027 37.2187 5.91447 37.3318 6.02773C37.4449 6.14098 37.5088 6.2942 37.5098 6.45424V16.2449C37.5091 16.405 37.4452 16.5584 37.332 16.6717C37.2189 16.785 37.0657 16.8491 36.9055 16.8501H34.3068C34.1465 16.8494 33.993 16.7853 33.8797 16.672C33.7664 16.5587 33.7024 16.4052 33.7016 16.2449V6.45424Z" fill="#0060FD"/>
<path d="M8.31648 11.0434V11.1074C8.83279 11.2862 9.28312 11.6113 9.61584 12.0444C9.96387 12.5129 10.1436 13.0866 10.1235 13.6708C10.1343 14.0999 10.0518 14.5263 9.88179 14.9205C9.71177 15.3147 9.45826 15.6673 9.13874 15.954C8.48943 16.5459 7.63636 16.8638 6.75801 16.8412H0.648438V5.83636H6.5601C7.49136 5.83636 8.26868 6.10502 8.89206 6.64236C9.19663 6.89931 9.43912 7.22182 9.60139 7.58576C9.76365 7.9497 9.84148 8.34563 9.82906 8.7439C9.83191 9.23555 9.68737 9.71677 9.4141 10.1255C9.14182 10.5282 8.76085 10.8462 8.31648 11.0434ZM6.01894 8.2515H3.35807V10.2068H6.01894C6.29621 10.2192 6.56583 10.1102 6.75801 9.91037C6.9435 9.7287 7.04963 9.48011 7.05345 9.22005C7.05345 8.96764 6.95402 8.72574 6.77714 8.54599C6.67857 8.44641 6.56007 8.36878 6.42941 8.31819C6.29874 8.26761 6.15886 8.24425 6.01894 8.2515ZM3.35807 14.4433H6.2484C6.39559 14.4475 6.54199 14.4204 6.67795 14.3639C6.81391 14.3073 6.93635 14.2226 7.0372 14.1154C7.23416 13.9193 7.34698 13.6535 7.34889 13.3753C7.34808 13.2498 7.31975 13.1261 7.26589 13.0128C7.21204 12.8994 7.13397 12.7993 7.0372 12.7194C6.82378 12.5203 6.54018 12.4137 6.2484 12.423H3.35807V14.4433ZM19.9859 16.8412H11.4095V5.83636H19.9859V8.46089H14.1182V10.0394H19.1569V12.5043H14.1182V14.2129H19.9859V16.8412ZM72.8266 12.2452H75.6002C75.4885 13.5821 74.8631 14.8236 73.8553 15.7092C72.8371 16.6175 71.5482 17.0717 69.9879 17.0717C68.2821 17.0717 66.9034 16.5248 65.8526 15.431C64.8019 14.3362 64.276 12.9795 64.2751 11.3579C64.2751 9.73062 64.8009 8.36337 65.8517 7.25619C66.9025 6.14901 68.2802 5.59159 69.9879 5.58203C71.51 5.58203 72.7797 6.03045 73.7961 6.92728C74.7961 7.7805 75.43 8.98538 75.5668 10.2928H72.7615C72.6172 9.69696 72.2717 9.16914 71.7834 8.7984C71.2593 8.40755 70.615 8.21208 69.962 8.24577C69.0537 8.25629 68.3366 8.55746 67.8108 9.1493C67.2914 9.75538 67.0166 10.5333 67.0401 11.3311C67.0193 12.1368 67.3003 12.9211 67.828 13.5302C68.3472 14.1173 69.0671 14.4117 69.9888 14.4117C70.654 14.4332 71.3071 14.2308 71.8437 13.8371C72.349 13.4388 72.6972 12.8756 72.8266 12.2452ZM79.2039 16.824H76.4952V5.82871H82.1745C83.3563 5.82871 84.2971 6.09642 84.997 6.63184C85.6968 7.16727 86.0525 7.9226 86.063 8.89784C86.063 9.93714 85.7026 10.7144 84.9807 11.2288V11.2939C85.9215 11.5233 86.3919 12.2289 86.3919 13.4097V16.824H83.6833V13.8868C83.6833 13.4814 83.4758 13.2797 83.0608 13.2807H79.2029V16.825L79.2039 16.824ZM79.2039 8.45516V10.8837H81.945C82.316 10.9028 82.6812 10.7862 82.9719 10.5548C83.2396 10.3272 83.3859 9.98686 83.3668 9.63596C83.3753 9.47007 83.3438 9.30457 83.2751 9.15334C83.2064 9.00211 83.1024 8.86957 82.9719 8.76685C82.6792 8.54893 82.3201 8.43882 81.9556 8.45516H79.2039ZM94.0083 5.82966H97.0125L92.7119 12.8198V16.8259H90.0041V12.8351L85.6882 5.82871H88.7574L91.3809 10.2584L94.0083 5.82966ZM103.308 5.82966C103.82 5.81693 104.329 5.9092 104.804 6.10076C105.279 6.29233 105.71 6.57915 106.07 6.94354C106.815 7.67592 107.186 8.59762 107.186 9.70671C107.186 10.8445 106.808 11.7815 106.053 12.5148C105.694 12.8731 105.266 13.1551 104.795 13.3437C104.324 13.5323 103.82 13.6237 103.312 13.6124H100.336V16.8298H97.6292V5.82966H103.308ZM100.336 11.0462H103.062C103.418 11.0558 103.765 10.9267 104.028 10.6858C104.295 10.4372 104.44 10.0834 104.422 9.71914C104.427 9.54697 104.392 9.37604 104.32 9.21954C104.248 9.06305 104.141 8.92518 104.007 8.81657C103.749 8.57766 103.408 8.44843 103.056 8.45611H100.336V11.0472V11.0462ZM107.459 5.82966H117.292V8.45325H113.729V16.8231H111.021V8.45516H107.459V5.82966ZM127.181 15.43C126.109 16.5229 124.703 17.0698 122.962 17.0717C121.222 17.0736 119.817 16.5267 118.747 15.431C117.674 14.3257 117.138 12.968 117.138 11.3579C117.138 9.74878 117.674 8.38154 118.747 7.25619C119.818 6.1404 121.223 5.58203 122.962 5.58203C124.703 5.58203 126.108 6.1404 127.181 7.25523C128.253 8.37198 128.789 9.73922 128.789 11.3589C128.789 12.9776 128.253 14.3343 127.181 15.43ZM122.962 14.4127C123.894 14.4127 124.638 14.1115 125.195 13.5092C125.749 12.919 126.049 12.1354 126.032 11.3264C126.042 10.9255 125.974 10.5265 125.83 10.1521C125.687 9.77776 125.471 9.43535 125.195 9.14452C124.648 8.54121 123.904 8.24003 122.962 8.24099C122.022 8.24099 121.272 8.54312 120.714 9.14452C120.166 9.73677 119.871 10.5199 119.893 11.3264C119.875 12.1325 120.169 12.9144 120.714 13.5092C121.272 14.1115 122.022 14.4127 122.962 14.4127Z" fill="#030303"/>
</g>
</g>
</svg>
