<svg width="129" height="18" viewBox="0 0 129 18" fill="none" xmlns="http://www.w3.org/2000/svg">
<g clip-path="url(#clip0_258_152)">
<mask id="mask0_258_152" style="mask-type:luminance" maskUnits="userSpaceOnUse" x="0" y="0" width="129" height="18">
<path d="M128.379 0.285156H0.378906V17.7126H128.379V0.285156Z" fill="white"/>
</mask>
<g mask="url(#mask0_258_152)">
<path d="M18.7851 17.631H31.0739V14.3956H22.5098V10.4262H29.6058V7.19085H22.5098V3.5205H31.1283V0.285156H18.7851V17.631ZM45.8641 11.2147L37.8165 0.285156H32.2702L34.0102 2.48737V17.6853H37.7078V6.29365L46.0272 17.631H49.5888V0.285156H45.8641V11.2147ZM13.1844 8.71336C14.8157 8.4143 16.175 6.89178 16.175 4.74395C16.175 2.43299 14.4894 0.285156 11.1453 0.285156H0.378906L2.06455 2.43299V17.6582H11.5259C14.87 17.6582 16.61 15.5647 16.61 12.9547C16.5285 10.8068 15.0603 8.95805 13.1844 8.71336ZM5.76209 3.54769H10.4112C11.6619 3.54769 12.4503 4.28176 12.4503 5.36927C12.4503 6.45678 11.6619 7.19085 10.4112 7.19085H5.76209V3.54769ZM10.5744 14.4228H5.76209V10.4262H10.5744C11.9881 10.4262 12.7766 11.3234 12.7766 12.4109C12.7766 13.6616 11.9338 14.3956 10.5744 14.4228ZM103.91 11.2147H105.841V13.2537C104.835 14.0694 103.584 14.5316 102.279 14.5588C99.1793 14.5588 97.0043 12.1934 97.0043 9.01243C97.0043 5.83146 99.2065 3.46613 102.279 3.46613C103.883 3.46613 105.378 4.30895 106.248 5.66833L109.185 4.03707C107.934 2.05236 105.732 0.285156 102.252 0.285156C97.3305 0.285156 93.2524 3.68363 93.2524 8.95805C93.2524 14.2325 97.2762 17.631 102.252 17.631C104.971 17.6853 107.553 16.5163 109.348 14.5044V8.08805H101.409L103.91 11.2147ZM87.1895 11.2147L79.1147 0.285156H73.5956L75.3084 2.48737V17.6853H79.0332V6.29365L87.3526 17.631H90.887V0.285156H87.1895V11.2147ZM121.637 0.285156H114.486L116.199 2.48737L115.9 3.33019L110.354 17.6853H114.541L115.628 14.7491H123.105L124.192 17.6853H128.379L121.637 0.285156ZM116.58 11.4865L119.299 4.00988L122.017 11.4865H116.58ZM67.723 0.285156H71.4478V17.7125H67.723V0.285156ZM64.7596 3.27581V0.285156H51.6823V3.5205H59.893L51.6823 14.6675V17.631H64.8955V14.3956H56.4945L64.7596 3.27581Z" fill="#051B3D"/>
</g>
</g>
<defs>
<clipPath id="clip0_258_152">
<rect width="129" height="18" fill="white"/>
</clipPath>
</defs>
</svg>
