<svg width="56" height="56" viewBox="0 0 56 56" fill="none" xmlns="http://www.w3.org/2000/svg">
<g clip-path="url(#clip0_449_306)">
<path d="M0 0H56V56H0V0Z" fill="url(#paint0_linear_449_306)"/>
<path d="M37.8934 25.9778L30.5201 22.4623L34.409 20.3156C37.489 18.5734 37.3645 14.8401 34.0979 13.2845L25.8534 9.3645C25.3245 9.17784 24.7956 9.67562 25.1067 10.0489L29.4623 15.3378C29.7734 15.7423 29.649 16.3023 29.1512 16.5201L18.9779 20.4089C18.7601 20.5023 18.6667 20.6267 18.6667 20.8134V28.1245C18.6667 28.5289 19.1956 28.7467 19.5067 28.5289L29.2445 23.1467L33.2579 27.9378C33.569 28.3423 33.4756 28.9334 32.9467 29.1201L18.9779 35.3423C18.7601 35.4667 18.6667 35.5601 18.6667 35.7467V43.089C18.6667 43.4934 19.1956 43.6801 19.5067 43.4934L38.2356 33.0089C41.2845 31.2667 41.1912 27.5645 37.9245 25.9778H37.8934Z" fill="white"/>
</g>
<defs>
<linearGradient id="paint0_linear_449_306" x1="8.80444" y1="6.28444" x2="43.1822" y2="51.0533" gradientUnits="userSpaceOnUse">
<stop stop-color="#013687"/>
<stop offset="0.38" stop-color="#051429"/>
<stop offset="1" stop-color="#010101"/>
</linearGradient>
<clipPath id="clip0_449_306">
<rect width="56" height="56" rx="28" fill="white"/>
</clipPath>
</defs>
</svg>
