<svg width="129" height="14" viewBox="0 0 129 14" fill="none" xmlns="http://www.w3.org/2000/svg">
<g clip-path="url(#clip0_258_151)">
<mask id="mask0_258_151" style="mask-type:luminance" maskUnits="userSpaceOnUse" x="0" y="0" width="129" height="14">
<path d="M128.38 0.0976562H0.5V13.9044H128.38V0.0976562Z" fill="white"/>
</mask>
<g mask="url(#mask0_258_151)">
<path d="M1.49593 0.438368C2.97004 0.438368 4.3959 0.391704 5.81681 0.45536C6.71086 0.495413 7.61784 0.537856 8.46582 0.953402C10.4991 1.94984 11.0222 5.24378 8.92978 6.49208C8.7908 6.575 8.67876 6.70308 8.56587 6.80012C9.01572 7.06772 9.52432 7.29693 9.9455 7.63503C11.0573 8.52752 11.2086 10.2816 10.6672 11.5988C10.1644 12.8223 9.19497 13.451 7.9852 13.5416C5.50559 13.7274 3.015 13.7667 0.5 13.8674C0.5 9.32471 0.5 4.9095 0.5 0.438368C0.813392 0.438368 1.12948 0.438368 1.49593 0.438368ZM4.50265 11.2267C5.18042 11.1589 5.86232 11.0079 6.53506 11.0413C7.75514 11.1019 8.12747 10.0147 7.80375 9.14629C7.67196 8.79274 7.52724 8.48171 7.06262 8.46475C6.72147 8.45229 6.38494 8.34097 6.04314 8.31318C5.18241 8.24319 4.31986 8.19554 3.45059 8.13845C3.45059 9.25457 3.45059 10.281 3.45059 11.3403C3.78757 11.3003 4.0972 11.2635 4.50265 11.2267ZM6.59232 5.52629C7.18373 5.02811 7.32881 4.59708 7.07272 3.8714C6.9152 3.42505 6.57351 3.12878 6.08292 3.08925C5.43297 3.03688 4.78029 3.01919 4.12908 2.98146C3.90542 2.9685 3.68266 2.94011 3.46335 2.91914C3.46335 3.88655 3.46335 4.85667 3.46335 5.92758C4.51169 5.79569 5.51159 5.66989 6.59232 5.52629Z" fill="#302D51"/>
<path d="M32.7001 0.973156C33.6742 1.58137 34.5024 2.29014 35.0842 3.24897C35.6158 4.12502 35.9432 5.06953 36.1087 6.08901C36.3114 7.33813 36.1551 8.52221 35.6949 9.68596C35.0305 11.3662 33.8329 12.5221 32.2085 13.2632C31.0012 13.814 29.725 13.9701 28.4172 13.8709C27.0708 13.7687 25.8897 13.2221 24.8227 12.4194C23.3986 11.348 22.5017 9.89222 22.2914 8.16246C22.0555 6.22245 22.3631 4.34513 23.6674 2.72738C25.3181 0.680083 27.4873 -0.0671742 30.0054 0.1661C30.9092 0.249824 31.7808 0.680381 32.7001 0.973156ZM28.5577 11.2292C29.5887 11.3033 30.5895 11.2174 31.4337 10.5435C33.5829 8.82807 33.6796 5.7599 31.8264 3.84752C30.1959 2.16494 27.5317 2.495 26.1786 4.32971C24.7393 6.28148 25.0556 9.10107 27.0285 10.5373C27.451 10.8448 27.9835 11.0012 28.5577 11.2292Z" fill="#302D51"/>
<path d="M62.4472 13.7745C61.8048 13.7745 61.211 13.7599 60.6183 13.7786C60.023 13.7974 59.633 13.5084 59.2966 13.0477C58.2863 11.6639 57.2541 10.2962 56.2311 8.9217C56.1603 8.82664 56.0947 8.72778 56.01 8.60679C55.1878 9.32335 54.5425 10.0272 54.6194 11.1364C54.6645 11.7883 54.6999 12.4413 54.7167 13.0944C54.7221 13.3049 54.6543 13.5173 54.6125 13.7743C53.7333 13.7743 52.8553 13.7729 51.9773 13.7751C51.6372 13.7759 51.6693 13.5374 51.6694 13.314C51.67 11.9918 51.6697 10.6696 51.6697 9.34749C51.6697 6.56756 51.6789 3.78756 51.6602 1.00774C51.6572 0.565417 51.7722 0.407254 52.2284 0.432206C52.9044 0.469177 53.5845 0.457711 54.2617 0.435273C54.6179 0.423473 54.7333 0.544447 54.7297 0.901548C54.714 2.45948 54.723 4.01765 54.723 5.71756C54.9541 5.47115 55.1104 5.30561 55.2655 5.13895C56.1692 4.16789 57.0728 3.19678 57.976 2.22525C58.3988 1.77052 58.7861 1.27437 59.256 0.875286C59.5225 0.648961 59.9179 0.480051 60.265 0.460946C61.2558 0.4064 62.2516 0.441771 63.3639 0.441771C61.558 2.45879 59.8256 4.39359 58.0854 6.33717C59.8108 8.77774 61.5437 11.229 63.3433 13.7745C63.0106 13.7745 62.7535 13.7745 62.4472 13.7745Z" fill="#302D51"/>
<path d="M39.533 12.0697C36.5054 9.33025 36.8866 4.44257 39.5282 1.96553C42.3571 -0.687071 47.1362 -0.571789 49.8541 2.67986C49.2697 3.35467 48.6817 4.03355 48.1885 4.60296C47.2374 4.10949 46.3805 3.55906 45.4491 3.20319C43.3809 2.41289 41.2504 3.84854 40.6999 5.81671C40.2806 7.31548 40.5101 8.8009 41.6129 9.94186C43.1496 11.5319 45.4098 11.4464 47.084 10.1627C47.3482 9.96009 47.5965 9.73668 47.863 9.5138C48.4779 10.0755 49.1036 10.6469 49.7299 11.219C48.4125 13.9911 42.7253 15.1555 39.533 12.0697Z" fill="#302D51"/>
<path d="M122.707 0.441216C123.423 0.442041 123.423 0.442041 123.423 1.10084C123.423 5.13785 123.423 9.17487 123.423 13.2119C123.423 13.3796 123.423 13.5473 123.423 13.701C123.376 13.7333 123.349 13.7669 123.323 13.767C121.949 13.7695 122.211 13.9214 122.206 12.7019C122.193 9.54694 122.202 6.39193 122.202 3.23695C122.202 3.05849 122.202 2.88004 122.202 2.70158C122.164 2.68612 122.126 2.67065 122.088 2.65519C122 2.77412 121.894 2.88359 121.828 3.01342C120.995 4.64704 120.178 6.28857 119.337 7.91786C118.653 9.24198 117.954 10.5584 117.232 11.8616C117.133 12.0396 116.855 12.2284 116.67 12.219C116.458 12.2083 116.168 12.0298 116.066 11.841C115.208 10.2583 114.385 8.65601 113.551 7.06035C112.861 5.7408 112.171 4.421 111.473 3.10563C111.418 3.00136 111.299 2.93077 111.118 2.75564C111.118 6.50715 111.118 10.1127 111.118 13.7461C110.704 13.7461 110.323 13.7461 109.914 13.7461C109.914 9.33137 109.914 4.91364 109.914 0.441391C110.312 0.441391 110.713 0.428771 111.113 0.444893C111.525 0.461477 111.669 0.791934 111.83 1.10028C112.775 2.91594 113.721 4.73084 114.671 6.5443C115.308 7.76143 115.95 8.97575 116.644 10.2935C116.929 9.82501 117.193 9.44558 117.401 9.03745C118.473 6.93708 119.528 4.82828 120.593 2.72494C120.852 2.21421 121.164 1.72772 121.389 1.20338C121.64 0.619711 122.01 0.318295 122.707 0.441216Z" fill="#302D51"/>
<path d="M13.0938 1.96659C13.0938 1.44312 13.0938 0.97045 13.0938 0.46875C14.0727 0.46875 15.03 0.46875 16.0277 0.46875C16.0277 3.9973 16.0277 7.53264 16.0277 11.1083C17.9065 11.1083 19.7458 11.1083 21.614 11.1083C21.614 12.0036 21.614 12.859 21.614 13.7436C18.7971 13.7436 15.9743 13.7436 13.0938 13.7436C13.0938 9.83877 13.0938 5.92809 13.0938 1.96659Z" fill="#302D51"/>
<path d="M91.0567 9.4977C91.0567 10.8032 91.0459 12.0581 91.064 13.3125C91.0688 13.6448 90.9207 13.7437 90.6344 13.7742C89.9988 13.8421 89.5632 13.6356 89.1653 13.0776C86.9299 9.94258 84.6487 6.84002 82.3762 3.73149C82.1473 3.41849 81.8715 3.13987 81.5041 2.89722C81.5041 6.50911 81.5041 10.121 81.5041 13.7099C81.4204 13.7448 81.3912 13.7678 81.3621 13.7676C79.8911 13.758 80.1764 13.9582 80.1716 12.6227C80.1576 8.74005 80.1666 4.85725 80.1666 0.974484C80.1666 0.809185 80.1666 0.643886 80.1666 0.488388C81.164 0.260953 81.8031 0.670166 82.3536 1.44024C84.3249 4.19804 86.3343 6.92862 88.3276 9.67075C88.7419 10.2406 89.1488 10.8159 89.6102 11.4599C89.8406 10.7036 89.7047 9.99028 89.7282 9.29174C89.7527 8.56348 89.7336 7.83376 89.7336 7.10468C89.7336 6.35865 89.7336 5.61262 89.7336 4.86658C89.7336 4.1375 89.7336 3.40843 89.7336 2.67935C89.7336 1.9524 89.7336 1.22545 89.7336 0.511897C89.7816 0.479904 89.8076 0.447575 89.8349 0.446498C91.0567 0.398193 91.0567 0.398519 91.0567 1.61345C91.0567 4.22457 91.0567 6.83569 91.0567 9.4977Z" fill="#302D51"/>
<path d="M69.1624 0.539915C70.0704 0.302824 70.9328 0.292908 71.8228 0.424207C72.9673 0.593063 73.9956 0.980016 74.9382 1.65304C76.419 2.71027 77.2803 4.13852 77.6216 5.90725C77.9574 7.64762 77.5967 9.27788 76.6811 10.7452C75.7213 12.2833 74.2969 13.2679 72.5104 13.669C69.7286 14.2937 67.3671 13.5092 65.4667 11.4212C64.6291 10.5008 64.1536 9.38199 63.9666 8.11672C63.62 5.77199 64.3024 3.79327 65.9832 2.18068C66.8507 1.34843 67.891 0.739486 69.1624 0.539915ZM65.9188 4.38122C65.4987 5.19175 65.2343 6.05655 65.215 6.96403C65.1919 8.04914 65.4642 9.07326 66.0604 10.0016C67.0933 11.6099 68.5773 12.4874 70.4601 12.6415C71.5976 12.7345 72.6867 12.4686 73.6601 11.8378C75.5406 10.6192 76.4415 8.91545 76.3079 6.64841C76.2184 5.12918 75.5663 3.93927 74.4678 2.93082C72.7702 1.37227 70.3773 1.18785 68.3885 2.10396C67.3524 2.58126 66.5798 3.37037 65.9188 4.38122Z" fill="#302D51"/>
<path d="M97.2011 1.07468C100.012 -0.154464 102.659 0.072134 105.026 1.97994C106.45 3.1265 107.235 4.68489 107.353 6.56843C107.453 8.15178 107.119 9.58723 106.223 10.8927C105.088 12.5473 103.525 13.487 101.538 13.7805C99.6658 14.0571 97.9767 13.6592 96.4265 12.5869C94.9608 11.5731 94.0508 10.1949 93.706 8.45532C93.1496 5.64879 94.1662 2.90382 96.8008 1.34633C96.928 1.27113 97.0456 1.17962 97.2011 1.07468ZM101.761 1.66451C100.984 1.66341 100.19 1.56319 99.431 1.67952C97.0038 2.05113 95.2159 4.01615 94.9452 6.34683C94.7174 8.30864 95.3048 10.0374 96.9046 11.3302C98.6671 12.7547 100.601 13.0588 102.679 12.1681C104.938 11.1999 106.399 8.68446 105.937 6.0951C105.545 3.90496 103.745 2.1315 101.761 1.66451Z" fill="#302D51"/>
<path d="M127.188 7.86912C127.188 5.40989 127.188 3.00154 127.189 0.593199C127.189 0.561422 127.202 0.529652 127.214 0.46875C127.588 0.46875 127.97 0.46875 128.38 0.46875C128.38 4.87873 128.38 9.2961 128.38 13.7428C128.008 13.7428 127.627 13.7428 127.188 13.7428C127.188 11.8072 127.188 9.86361 127.188 7.86912Z" fill="#302D51"/>
</g>
</g>
<defs>
<clipPath id="clip0_258_151">
<rect width="129" height="14" fill="white"/>
</clipPath>
</defs>
</svg>
