<svg width="46" height="16" viewBox="0 0 46 16" fill="none" xmlns="http://www.w3.org/2000/svg">
<path d="M32.7861 11.8362V0H35.1622V11.8362H32.7861Z" fill="#F7A600"/>
<path d="M5.09388 15.352H0V3.51587H4.88904C7.26514 3.51587 8.64964 4.8125 8.64964 6.84073C8.64964 8.15362 7.76046 9.00205 7.14502 9.28455C7.87964 9.61686 8.82 10.3648 8.82 11.9448C8.82 14.155 7.26514 15.352 5.09388 15.352ZM4.70097 5.5776H2.37608V8.30392H4.70097C5.70934 8.30392 6.27355 7.75523 6.27355 6.94031C6.27355 6.12629 5.70934 5.5776 4.70097 5.5776ZM4.85459 10.382H2.37608V13.2912H4.85459C5.93183 13.2912 6.44391 12.6266 6.44391 11.828C6.44391 11.0303 5.93088 10.382 4.85459 10.382Z" fill="white"/>
<path d="M16.0673 10.4979V15.352H13.708V10.4979L10.0498 3.51587H12.6307L14.9044 8.28671L17.1436 3.51587H19.7246L16.0673 10.4979Z" fill="white"/>
<path d="M26.4611 15.352H21.3672V3.51587H26.2562C28.6323 3.51587 30.0168 4.8125 30.0168 6.84073C30.0168 8.15362 29.1277 9.00205 28.5122 9.28455C29.2468 9.61686 30.1872 10.3648 30.1872 11.9448C30.1872 14.155 28.6323 15.352 26.4611 15.352ZM26.0682 5.5776H23.7433V8.30392H26.0682C27.0765 8.30392 27.6407 7.75523 27.6407 6.94031C27.6407 6.12629 27.0765 5.5776 26.0682 5.5776ZM26.2218 10.382H23.7433V13.2912H26.2218C27.299 13.2912 27.8111 12.6266 27.8111 11.828C27.8111 11.0303 27.299 10.382 26.2218 10.382Z" fill="white"/>
<path d="M42.8203 5.5776V15.3529H40.4443V5.5776H37.2646V3.51587H45.9999V5.5776H42.8203Z" fill="white"/>
</svg>
