<svg width="72" height="72" viewBox="0 0 72 72" fill="none" xmlns="http://www.w3.org/2000/svg">
<g clip-path="url(#clip0_232_3)">
<path fill-rule="evenodd" clip-rule="evenodd" d="M72 36C72 55.882 55.882 72 36 72C16.118 72 0 55.882 0 36C0 16.118 16.118 0 36 0C55.882 0 72 16.118 72 36Z" fill="#F4F4F9"/>
<path d="M36 56C47.0457 56 56 47.0457 56 36C56 24.9543 47.0457 16 36 16C24.9543 16 16 24.9543 16 36C16 47.0457 24.9543 56 36 56Z" fill="#DADAEB"/>
<path fill-rule="evenodd" clip-rule="evenodd" d="M29 23.6016H35.4V40.4016H29V23.6016ZM48.689 28.4016H55.089V37.2016H48.689V28.4016Z" fill="white"/>
<path d="M44.9526 42.3492L44.7856 42.5162H39.8616L39.6946 42.3492V36.9092L39.8616 36.7422H44.7856L44.9526 36.9092V42.3492ZM24.6086 46.0202L24.4426 46.1872H19.5186L19.3516 46.0202V42.8302L19.5186 42.6632H24.4426L24.6096 42.8302L24.6086 46.0202Z" fill="white"/>
<path d="M25.3228 41.2375H22.8608L22.6938 41.0705V25.9965C22.6938 25.8074 22.6187 25.626 22.4849 25.4923C22.3512 25.3586 22.1699 25.2835 21.9808 25.2835C21.7917 25.2835 21.6103 25.3586 21.4766 25.4923C21.3429 25.626 21.2678 25.8074 21.2678 25.9965V41.0705L21.1008 41.2375H18.6388C18.5451 41.2375 18.4524 41.2559 18.3659 41.2918C18.2794 41.3276 18.2008 41.3801 18.1346 41.4463C18.0684 41.5125 18.0159 41.5911 17.9801 41.6776C17.9442 41.7642 17.9258 41.8569 17.9258 41.9505V46.9005C17.9258 47.2945 18.2448 47.6135 18.6388 47.6135H21.1008L21.2678 47.7805V52.6005C21.2678 52.7896 21.3429 52.971 21.4766 53.1047C21.6103 53.2384 21.7917 53.3135 21.9808 53.3135C22.1699 53.3135 22.3512 53.2384 22.4849 53.1047C22.6187 52.971 22.6938 52.7896 22.6938 52.6005V47.7805L22.8608 47.6135H25.3228C25.5119 47.6135 25.6932 47.5384 25.8269 47.4047C25.9607 47.271 26.0358 47.0896 26.0358 46.9005V41.9505C26.0358 41.8569 26.0173 41.7642 25.9815 41.6776C25.9457 41.5911 25.8932 41.5125 25.8269 41.4463C25.7607 41.3801 25.6821 41.3276 25.5956 41.2918C25.5091 41.2559 25.4164 41.2375 25.3228 41.2375ZM38.9818 43.9425H41.4438L41.6108 44.1095V49.8195C41.6108 50.0086 41.6859 50.19 41.8196 50.3237C41.9533 50.4574 42.1347 50.5325 42.3238 50.5325C42.5129 50.5325 42.6942 50.4574 42.8279 50.3237C42.9617 50.19 43.0368 50.0086 43.0368 49.8195V44.1095L43.2038 43.9425H45.6658C45.8549 43.9425 46.0362 43.8674 46.1699 43.7337C46.3037 43.6 46.3788 43.4186 46.3788 43.2295V36.0295C46.3788 35.8404 46.3037 35.659 46.1699 35.5253C46.0362 35.3916 45.8549 35.3165 45.6658 35.3165H43.2038L43.0368 35.1495V26.0005C43.0368 25.8114 42.9617 25.63 42.8279 25.4963C42.6942 25.3626 42.5129 25.2875 42.3238 25.2875C42.1347 25.2875 41.9533 25.3626 41.8196 25.4963C41.6859 25.63 41.6108 25.8114 41.6108 26.0005V35.1495L41.4438 35.3165H38.9818C38.7927 35.3165 38.6113 35.3916 38.4776 35.5253C38.3439 35.659 38.2688 35.8404 38.2688 36.0295V43.2295C38.2688 43.6235 38.5878 43.9425 38.9818 43.9425ZM49.1548 37.7795H51.6168L51.7838 37.9465V44.7315C51.7838 44.9206 51.8589 45.102 51.9926 45.2357C52.1263 45.3694 52.3077 45.4445 52.4968 45.4445C52.6859 45.4445 52.8672 45.3694 53.0009 45.2357C53.1347 45.102 53.2098 44.9206 53.2098 44.7315V37.9465L53.3768 37.7795H55.8388C56.0279 37.7795 56.2092 37.7044 56.3429 37.5707C56.4767 37.437 56.5518 37.2556 56.5518 37.0665V28.2045C56.5518 28.0154 56.4767 27.834 56.3429 27.7003C56.2092 27.5666 56.0279 27.4915 55.8388 27.4915H53.3768L53.2098 27.3245V21.8835C53.2098 21.6944 53.1347 21.513 53.0009 21.3793C52.8672 21.2456 52.6859 21.1705 52.4968 21.1705C52.3077 21.1705 52.1263 21.2456 51.9926 21.3793C51.8589 21.513 51.7838 21.6944 51.7838 21.8835V27.3245L51.6168 27.4915H49.1548C48.9657 27.4915 48.7843 27.5666 48.6506 27.7003C48.5169 27.834 48.4418 28.0154 48.4418 28.2045V37.0665C48.4418 37.4605 48.7608 37.7795 49.1548 37.7795ZM28.8118 41.3375H31.2738L31.4408 41.5045V46.4025C31.441 46.4961 31.4597 46.5888 31.4958 46.6752C31.5319 46.7616 31.5846 46.8401 31.651 46.9061C31.7174 46.9721 31.7962 47.0244 31.8828 47.06C31.9694 47.0956 32.0622 47.1138 32.1558 47.1135C32.2494 47.1132 32.3421 47.0945 32.4285 47.0585C32.5149 47.0224 32.5933 46.9696 32.6594 46.9033C32.7254 46.8369 32.7777 46.7581 32.8133 46.6715C32.8489 46.5849 32.867 46.4921 32.8668 46.3985V41.5045L33.0338 41.3375H35.4988C35.6879 41.3375 35.8692 41.2624 36.0029 41.1287C36.1367 40.995 36.2118 40.8136 36.2118 40.6245V23.5245C36.2118 23.3354 36.1367 23.154 36.0029 23.0203C35.8692 22.8866 35.6879 22.8115 35.4988 22.8115H33.0338L32.8668 22.6445V15.4005C32.8668 15.2114 32.7917 15.03 32.6579 14.8963C32.5242 14.7626 32.3429 14.6875 32.1538 14.6875C31.9647 14.6875 31.7833 14.7626 31.6496 14.8963C31.5159 15.03 31.4408 15.2114 31.4408 15.4005V22.6445L31.2738 22.8115H28.8118C28.6227 22.8115 28.4413 22.8866 28.3076 23.0203C28.1739 23.154 28.0988 23.3354 28.0988 23.5245V40.6245C28.0988 41.0185 28.4178 41.3375 28.8118 41.3375ZM34.7858 39.7445L34.6188 39.9115H29.6948L29.5278 39.7445L29.5248 24.4045L29.6918 24.2375H34.6188L34.7858 24.4045V39.7445ZM55.1258 36.1865L54.9588 36.3535H50.0348L49.8678 36.1865V29.0845L50.0348 28.9175H54.9588L55.1258 29.0845V36.1865ZM44.9528 42.3495L44.7858 42.5165H39.8618L39.6948 42.3495V36.9095L39.8618 36.7425H44.7858L44.9528 36.9095V42.3495ZM24.6088 46.0205L24.4418 46.1875H19.5188L19.3518 46.0205V42.8305L19.5188 42.6635H24.4428L24.6098 42.8305L24.6088 46.0205Z" fill="#25258E"/>
</g>
<defs>
<clipPath id="clip0_232_3">
<rect width="72" height="72" fill="white"/>
</clipPath>
</defs>
</svg>
