<svg width="56" height="56" viewBox="0 0 56 56" fill="none" xmlns="http://www.w3.org/2000/svg">
<g clip-path="url(#clip0_450_284)">
<path d="M0 0H56V56H0V0Z" fill="url(#paint0_linear_450_284)"/>
<path d="M42.1244 21.4665L33.6186 25.3243C33.0181 24.0644 32.0114 23.043 30.7604 22.4242C29.5094 21.8054 28.0866 21.6252 26.7208 21.9125C25.355 22.1998 24.1255 22.938 23.2298 24.0084C22.3341 25.0788 21.8243 26.4193 21.7823 27.8143C21.7404 29.2094 22.1686 30.5781 22.9983 31.7004C23.828 32.8227 25.011 33.6335 26.357 34.0024C27.7031 34.3713 29.1341 34.2769 30.4201 33.7345C31.7061 33.192 32.7723 32.233 33.4475 31.0114L41.9595 34.8692C40.401 38.0349 37.8125 40.5766 34.619 42.0772C31.4254 43.5778 27.8166 43.9481 24.3849 43.1273C20.9532 42.3064 17.9025 40.3433 15.7336 37.5601C13.5648 34.7769 12.4065 31.3389 12.4491 27.8107C12.4917 24.2824 13.7326 20.8735 15.968 18.1434C18.2035 15.4134 21.3006 13.5244 24.7512 12.7867C28.2017 12.0489 31.8005 12.5062 34.9569 14.0835C38.1132 15.6607 40.6396 18.2642 42.1213 21.4665H42.1244Z" fill="white"/>
<path d="M40.4444 31.1111C42.1626 31.1111 43.5555 29.7182 43.5555 28C43.5555 26.2818 42.1626 24.8889 40.4444 24.8889C38.7261 24.8889 37.3333 26.2818 37.3333 28C37.3333 29.7182 38.7261 31.1111 40.4444 31.1111Z" fill="#C59A78"/>
</g>
<defs>
<linearGradient id="paint0_linear_450_284" x1="10.4191" y1="9.71289" x2="68.1458" y2="76.0169" gradientUnits="userSpaceOnUse">
<stop stop-color="#1A1E21"/>
<stop offset="1" stop-color="#06060A"/>
</linearGradient>
<clipPath id="clip0_450_284">
<rect width="56" height="56" rx="28" fill="white"/>
</clipPath>
</defs>
</svg>
