<svg width="72" height="72" viewBox="0 0 72 72" fill="none" xmlns="http://www.w3.org/2000/svg">
<g clip-path="url(#clip0_231_361)">
<path fill-rule="evenodd" clip-rule="evenodd" d="M72 36C72 55.882 55.882 72 36 72C16.118 72 0 55.882 0 36C0 16.118 16.118 0 36 0C55.882 0 72 16.118 72 36Z" fill="#F4F4F9"/>
<path d="M36 56C47.0457 56 56 47.0457 56 36C56 24.9543 47.0457 16 36 16C24.9543 16 16 24.9543 16 36C16 47.0457 24.9543 56 36 56Z" fill="#DADAEB"/>
<path d="M47 19H24C23.4477 19 23 19.4477 23 20V51C23 51.5523 23.4477 52 24 52H47C47.5523 52 48 51.5523 48 51V20C48 19.4477 47.5523 19 47 19Z" fill="white"/>
<path fill-rule="evenodd" clip-rule="evenodd" d="M41.1332 19.4697H44.8112V23.8848H41.1322V19.4688L41.1332 19.4697ZM51.5992 27.2557L53.6802 29.3357L38.5932 44.4248C38.3172 44.7006 37.943 44.8555 37.5528 44.8554C37.1626 44.8553 36.7885 44.7002 36.5127 44.4243C36.2368 44.1483 36.0819 43.7741 36.082 43.3839C36.0821 42.9937 36.2372 42.6196 36.5132 42.3438L51.5982 27.2557H51.5992Z" fill="white"/>
<path d="M54.2308 28.3218C54.2969 28.3879 54.3494 28.4663 54.3851 28.5526C54.4209 28.6389 54.4393 28.7314 54.4393 28.8248C54.4393 28.9183 54.4209 29.0108 54.3851 29.0971C54.3494 29.1834 54.2969 29.2618 54.2308 29.3278L53.1278 30.4318C53.2165 30.5685 53.2556 30.7315 53.2384 30.8935C53.2213 31.0555 53.1491 31.2067 53.0338 31.3218L52.3408 32.0158L53.0338 32.7088C53.1002 32.7748 53.1529 32.8533 53.1888 32.9397C53.2248 33.0261 53.2433 33.1188 53.2433 33.2123C53.2433 33.3059 53.2248 33.3986 53.1888 33.485C53.1529 33.5714 53.1002 33.6499 53.0338 33.7158L48.9418 37.8078L48.8318 37.6978V50.8878C48.8316 51.3757 48.6376 51.8434 48.2926 52.1883C47.9475 52.5331 47.4797 52.7268 46.9918 52.7268H24.4298C23.9418 52.7268 23.4738 52.533 23.1288 52.1879C22.7837 51.8429 22.5898 51.3748 22.5898 50.8868V20.4268C22.5906 19.9392 22.785 19.4718 23.1302 19.1274C23.4754 18.7829 23.9432 18.5896 24.4308 18.5898H46.9918C47.4797 18.5898 47.9475 18.7836 48.2926 19.1284C48.6376 19.4733 48.8316 19.941 48.8318 20.4288V28.7288L49.6348 27.9248C49.75 27.8093 49.9014 27.737 50.0637 27.7198C50.2259 27.7027 50.3891 27.7419 50.5258 27.8308L51.6298 26.7278C51.6959 26.6617 51.7743 26.6093 51.8606 26.5735C51.9469 26.5378 52.0394 26.5193 52.1328 26.5193C52.2263 26.5193 52.3188 26.5378 52.4051 26.5735C52.4914 26.6093 52.5698 26.6617 52.6358 26.7278L54.2308 28.3228V28.3218ZM48.7508 30.8198L50.1378 32.2068L51.5258 30.8198L50.1378 29.4318L48.7508 30.8198ZM49.1328 33.2128L47.7448 31.8248L38.3808 41.1898L39.7678 42.5768L49.1328 33.2128ZM36.7408 44.3388L38.6828 43.5048L37.4568 42.2748L36.6228 44.2188L36.7408 44.3388ZM44.0248 20.0098H42.0628V23.2228L42.5408 22.7438C42.6743 22.6106 42.8552 22.5358 43.0438 22.5358C43.2325 22.5358 43.4134 22.6106 43.5468 22.7438L44.0248 23.2228V20.0098ZM40.6408 20.0098H24.4298C24.3192 20.0098 24.2132 20.0538 24.135 20.132C24.0568 20.2102 24.0128 20.3162 24.0128 20.4268V50.8868C24.0128 51.1168 24.1998 51.3028 24.4298 51.3028H46.9918C47.2218 51.3028 47.4088 51.1168 47.4088 50.8858V36.9458L39.8698 44.4818C39.8059 44.5458 39.7302 44.5967 39.6468 44.6318L36.8548 45.8298C36.7475 45.8757 36.6304 45.8944 36.5141 45.8843C36.3978 45.8741 36.2857 45.8355 36.1878 45.7718L35.4838 46.4768C35.3504 46.6102 35.1695 46.6852 34.9808 46.6852C34.7922 46.6852 34.6112 46.6102 34.4778 46.4768C34.3444 46.3434 34.2695 46.1625 34.2695 45.9738C34.2695 45.7852 34.3444 45.6042 34.4778 45.4708L35.1818 44.7668C35.1182 44.6687 35.0797 44.5565 35.0698 44.44C35.0599 44.3235 35.0788 44.2063 35.1248 44.0988L36.3228 41.3078C36.3579 41.2245 36.4089 41.1488 36.4728 41.0848L47.4088 30.1478V20.4278C47.4088 20.3172 47.3649 20.2112 47.2867 20.133C47.2085 20.0548 47.1024 20.0108 46.9918 20.0108H45.4468V24.9408C45.4467 25.0815 45.405 25.2189 45.3268 25.3357C45.2486 25.4526 45.1375 25.5437 45.0075 25.5974C44.8776 25.6511 44.7346 25.6651 44.5968 25.6376C44.4589 25.6101 44.3322 25.5423 44.2328 25.4428L43.0438 24.2538L41.8538 25.4438C41.7541 25.5426 41.6274 25.6097 41.4897 25.6367C41.3519 25.6636 41.2093 25.6493 41.0797 25.5954C40.95 25.5416 40.8392 25.4506 40.7611 25.334C40.6831 25.2173 40.6412 25.0802 40.6408 24.9398V20.0098ZM51.3358 33.0198L48.8318 35.5238V35.9048L51.5258 33.2118L51.3358 33.0198ZM52.7228 28.8238L52.1338 28.2338L51.5438 28.8238L52.1328 29.4138L52.7228 28.8238ZM27.2018 28.7418H40.2618C40.47 28.7418 40.6697 28.8245 40.8169 28.9718C40.9641 29.119 41.0468 29.3186 41.0468 29.5268C41.0468 29.735 40.9641 29.9347 40.8169 30.0819C40.6697 30.2291 40.47 30.3118 40.2618 30.3118H27.1998C27.0968 30.3118 26.9947 30.2915 26.8994 30.2521C26.8042 30.2126 26.7177 30.1548 26.6448 30.0819C26.5719 30.009 26.514 29.9225 26.4746 29.8273C26.4351 29.732 26.4148 29.6299 26.4148 29.5268C26.4148 29.4238 26.4351 29.3217 26.4746 29.2264C26.514 29.1312 26.5719 29.0447 26.6448 28.9718C26.7177 28.8989 26.8042 28.841 26.8994 28.8016C26.9947 28.7621 27.0968 28.7418 27.1998 28.7418H27.2018ZM27.2018 32.1258H40.2618C40.47 32.1258 40.6697 32.2085 40.8169 32.3558C40.9641 32.503 41.0468 32.7026 41.0468 32.9108C41.0468 33.119 40.9641 33.3187 40.8169 33.4659C40.6697 33.6131 40.47 33.6958 40.2618 33.6958H27.1998C26.9916 33.6958 26.792 33.6131 26.6448 33.4659C26.4975 33.3187 26.4148 33.119 26.4148 32.9108C26.4148 32.7026 26.4975 32.503 26.6448 32.3558C26.792 32.2085 26.9916 32.1258 27.1998 32.1258H27.2018ZM27.2018 35.5108H35.4918C35.7 35.5108 35.8997 35.5935 36.0469 35.7408C36.1941 35.888 36.2768 36.0876 36.2768 36.2958C36.2768 36.504 36.1941 36.7037 36.0469 36.8509C35.8997 36.9981 35.7 37.0808 35.4918 37.0808H27.2018C26.9936 37.0808 26.794 36.9981 26.6468 36.8509C26.4995 36.7037 26.4168 36.504 26.4168 36.2958C26.4168 36.0876 26.4995 35.888 26.6468 35.7408C26.794 35.5935 26.9936 35.5108 27.2018 35.5108ZM27.2018 25.3568H31.7148C31.8179 25.3568 31.92 25.3771 32.0153 25.4166C32.1105 25.456 32.197 25.5139 32.2699 25.5868C32.3428 25.6597 32.4006 25.7462 32.4401 25.8414C32.4795 25.9367 32.4998 26.0388 32.4998 26.1418C32.4998 26.2449 32.4795 26.347 32.4401 26.4423C32.4006 26.5375 32.3428 26.624 32.2699 26.6969C32.197 26.7698 32.1105 26.8276 32.0153 26.8671C31.92 26.9065 31.8179 26.9268 31.7148 26.9268H27.2008C26.9926 26.9268 26.793 26.8441 26.6458 26.6969C26.4985 26.5497 26.4158 26.35 26.4158 26.1418C26.4158 25.9336 26.4985 25.734 26.6458 25.5868C26.793 25.4395 26.9936 25.3568 27.2018 25.3568Z" fill="#25258E"/>
</g>
<defs>
<clipPath id="clip0_231_361">
<rect width="72" height="72" fill="white"/>
</clipPath>
</defs>
</svg>
