<svg width="100" height="30" viewBox="0 0 100 30" fill="none" xmlns="http://www.w3.org/2000/svg">
<path fill-rule="evenodd" clip-rule="evenodd" d="M20.7951 15.89C20.8063 14.7609 21.1008 13.6527 21.6515 12.667C22.2022 11.6812 22.9915 10.8495 23.9471 10.248C23.3491 9.37523 22.5544 8.65523 21.627 8.1461C20.6996 7.63697 19.6655 7.35297 18.6081 7.31701C16.3621 7.07701 14.1841 8.68201 13.0391 8.68201C11.8721 8.68201 10.1091 7.34101 8.21211 7.38001C6.97868 7.42417 5.7781 7.78922 4.72887 8.43914C3.67964 9.08906 2.81803 10.0014 2.22911 11.086C-0.358894 15.636 1.57111 22.321 4.04911 25.998C5.28911 27.798 6.73911 29.81 8.63511 29.738C10.4901 29.661 11.1831 28.538 13.4231 28.538C15.6421 28.538 16.2921 29.738 18.2271 29.693C20.2171 29.661 21.4721 27.885 22.6691 26.067C23.5609 24.7812 24.2459 23.3637 24.6991 21.866C22.3351 20.85 20.7971 18.496 20.7951 15.889V15.89ZM17.1411 4.89901C18.2288 3.5682 18.7623 1.86973 18.6311 0.156006C16.9668 0.336333 15.4333 1.14242 14.3411 2.41101C13.2521 3.67389 12.7027 5.31396 12.8111 6.97801C13.6438 6.98506 14.467 6.80126 15.2176 6.44069C15.9682 6.08013 16.6262 5.5524 17.1411 4.89801V4.89901Z" fill="white"/>
<path d="M31.6572 13.1172C30.6481 13.1172 29.849 12.7917 29.2598 12.1406C28.6738 11.4896 28.3809 10.6009 28.3809 9.47461C28.3809 8.35482 28.6755 7.4694 29.2646 6.81836C29.8571 6.16406 30.6546 5.83691 31.6572 5.83691C32.4775 5.83691 33.1693 6.07129 33.7324 6.54004C34.2956 7.00553 34.6162 7.61589 34.6943 8.37109H33.4541C33.3727 7.92839 33.166 7.57357 32.834 7.30664C32.5052 7.03971 32.113 6.90625 31.6572 6.90625C31.0518 6.90625 30.5684 7.139 30.207 7.60449C29.849 8.06673 29.6699 8.6901 29.6699 9.47461C29.6699 10.2656 29.849 10.8923 30.207 11.3545C30.5651 11.8167 31.0501 12.0479 31.6621 12.0479C32.1276 12.0479 32.5182 11.929 32.834 11.6914C33.153 11.4505 33.3613 11.1185 33.459 10.6953H34.6943C34.5837 11.4505 34.2581 12.043 33.7178 12.4727C33.1774 12.9023 32.4906 13.1172 31.6572 13.1172ZM39.6455 12.3848C39.193 12.8633 38.5843 13.1025 37.8193 13.1025C37.0544 13.1025 36.4456 12.8633 35.9932 12.3848C35.5407 11.903 35.3145 11.2454 35.3145 10.4121C35.3145 9.58203 35.5423 8.92611 35.998 8.44434C36.4538 7.95931 37.0609 7.7168 37.8193 7.7168C38.5811 7.7168 39.1882 7.95931 39.6406 8.44434C40.0964 8.92611 40.3242 9.58203 40.3242 10.4121C40.3242 11.2454 40.098 11.903 39.6455 12.3848ZM36.8916 11.6865C37.1195 11.9893 37.4287 12.1406 37.8193 12.1406C38.21 12.1406 38.5192 11.9893 38.7471 11.6865C38.9749 11.3838 39.0889 10.959 39.0889 10.4121C39.0889 9.86849 38.9749 9.44531 38.7471 9.14258C38.5192 8.83659 38.21 8.68359 37.8193 8.68359C37.432 8.68359 37.1227 8.83659 36.8916 9.14258C36.6637 9.44531 36.5498 9.86849 36.5498 10.4121C36.5498 10.959 36.6637 11.3838 36.8916 11.6865ZM41.1055 13V7.82422H42.2725V8.72266H42.2969C42.4108 8.41667 42.598 8.17415 42.8584 7.99512C43.1188 7.81608 43.4232 7.72656 43.7715 7.72656C44.1361 7.72656 44.4437 7.81771 44.6943 8C44.9482 8.17904 45.1224 8.43457 45.2168 8.7666H45.2461C45.3698 8.44759 45.5749 8.19531 45.8613 8.00977C46.151 7.82096 46.4831 7.72656 46.8574 7.72656C47.3685 7.72656 47.777 7.88444 48.083 8.2002C48.3923 8.51595 48.5469 8.93262 48.5469 9.4502V13H47.3311V9.74805C47.3311 9.42904 47.2497 9.18327 47.0869 9.01074C46.9274 8.83822 46.6995 8.75195 46.4033 8.75195C46.1104 8.75195 45.8727 8.84961 45.6904 9.04492C45.5081 9.24023 45.417 9.49251 45.417 9.80176V13H44.2354V9.68457C44.2354 9.39811 44.1523 9.17188 43.9863 9.00586C43.8236 8.83659 43.6006 8.75195 43.3174 8.75195C43.0244 8.75195 42.7852 8.85449 42.5996 9.05957C42.4141 9.26139 42.3213 9.51855 42.3213 9.83105V13H41.1055ZM49.5527 13V7.82422H50.7686V13H49.5527ZM50.6367 6.95508C50.5065 7.08203 50.347 7.14551 50.1582 7.14551C49.9694 7.14551 49.8099 7.08203 49.6797 6.95508C49.5495 6.82487 49.4844 6.66862 49.4844 6.48633C49.4844 6.30078 49.5495 6.14453 49.6797 6.01758C49.8099 5.88737 49.9694 5.82227 50.1582 5.82227C50.347 5.82227 50.5065 5.88737 50.6367 6.01758C50.7702 6.14453 50.8369 6.30078 50.8369 6.48633C50.8369 6.66862 50.7702 6.82487 50.6367 6.95508ZM51.7891 13V7.82422H52.9561V8.71289H52.9805C53.1237 8.40039 53.332 8.15788 53.6055 7.98535C53.8822 7.81283 54.2158 7.72656 54.6064 7.72656C55.1729 7.72656 55.6123 7.89746 55.9248 8.23926C56.2406 8.58105 56.3984 9.05306 56.3984 9.65527V13H55.1826V9.89941C55.1826 9.52832 55.0947 9.24512 54.9189 9.0498C54.7464 8.85449 54.4893 8.75684 54.1475 8.75684C53.7992 8.75684 53.5208 8.87077 53.3125 9.09863C53.1074 9.3265 53.0049 9.6276 53.0049 10.002V13H51.7891ZM59.6602 12.0381C60.0508 12.0381 60.3617 11.8916 60.5928 11.5986C60.8239 11.3024 60.9395 10.902 60.9395 10.3975C60.9395 9.8929 60.8223 9.49089 60.5879 9.19141C60.3568 8.88867 60.0475 8.7373 59.6602 8.7373C59.276 8.7373 58.9701 8.88704 58.7422 9.18652C58.5176 9.486 58.4053 9.88965 58.4053 10.3975C58.4053 10.9085 58.5176 11.3105 58.7422 11.6035C58.9701 11.8932 59.276 12.0381 59.6602 12.0381ZM59.6553 14.9531C59.0205 14.9531 58.4899 14.8066 58.0635 14.5137C57.6403 14.224 57.3978 13.8496 57.3359 13.3906H58.542C58.6071 13.5892 58.7438 13.7487 58.9521 13.8691C59.1605 13.9928 59.4079 14.0547 59.6943 14.0547C60.085 14.0547 60.3893 13.9538 60.6074 13.752C60.8288 13.5534 60.9395 13.2865 60.9395 12.9512V12.0771H60.9102C60.7734 12.3604 60.5602 12.5866 60.2705 12.7559C59.984 12.9219 59.6569 13.0049 59.2891 13.0049C58.6445 13.0049 58.1286 12.7705 57.7412 12.3018C57.3538 11.8298 57.1602 11.1934 57.1602 10.3926C57.1602 9.57552 57.3538 8.92936 57.7412 8.4541C58.1286 7.97559 58.6527 7.73633 59.3135 7.73633C59.6781 7.73633 60.0036 7.82422 60.29 8C60.5765 8.17253 60.7946 8.41016 60.9443 8.71289H60.9639V7.82422H62.1553V12.917C62.1553 13.5355 61.9274 14.0286 61.4717 14.3965C61.016 14.7676 60.4105 14.9531 59.6553 14.9531ZM65.0557 9.30859C65.0557 8.83333 65.2477 8.44922 65.6318 8.15625C66.016 7.86328 66.5221 7.7168 67.1504 7.7168C67.7559 7.7168 68.2474 7.86654 68.625 8.16602C69.0059 8.46224 69.2044 8.84961 69.2207 9.32812H68.0879C68.0684 9.10352 67.974 8.92773 67.8047 8.80078C67.6354 8.67383 67.4092 8.61035 67.126 8.61035C66.859 8.61035 66.6442 8.66895 66.4814 8.78613C66.3187 8.90007 66.2373 9.05143 66.2373 9.24023C66.2373 9.52669 66.4847 9.73014 66.9795 9.85059L67.9023 10.0557C68.4199 10.1761 68.7894 10.3454 69.0107 10.5635C69.2321 10.7816 69.3428 11.0827 69.3428 11.4668C69.3428 11.9551 69.1377 12.3506 68.7275 12.6533C68.3174 12.9528 67.7852 13.1025 67.1309 13.1025C66.4863 13.1025 65.9671 12.9561 65.5732 12.6631C65.1826 12.3669 64.9661 11.9714 64.9238 11.4766H66.1201C66.1559 11.7142 66.2633 11.8965 66.4424 12.0234C66.6247 12.1504 66.8688 12.2139 67.1748 12.2139C67.471 12.2139 67.7038 12.1585 67.873 12.0479C68.0456 11.9339 68.1318 11.7809 68.1318 11.5889C68.1318 11.4391 68.0781 11.3203 67.9707 11.2324C67.8665 11.1413 67.6891 11.0632 67.4385 10.998L66.4961 10.7783C65.5358 10.5537 65.0557 10.0638 65.0557 9.30859ZM74.2354 12.3848C73.7829 12.8633 73.1742 13.1025 72.4092 13.1025C71.6442 13.1025 71.0355 12.8633 70.583 12.3848C70.1305 11.903 69.9043 11.2454 69.9043 10.4121C69.9043 9.58203 70.1322 8.92611 70.5879 8.44434C71.0436 7.95931 71.6507 7.7168 72.4092 7.7168C73.1709 7.7168 73.778 7.95931 74.2305 8.44434C74.6862 8.92611 74.9141 9.58203 74.9141 10.4121C74.9141 11.2454 74.6878 11.903 74.2354 12.3848ZM71.4814 11.6865C71.7093 11.9893 72.0186 12.1406 72.4092 12.1406C72.7998 12.1406 73.109 11.9893 73.3369 11.6865C73.5648 11.3838 73.6787 10.959 73.6787 10.4121C73.6787 9.86849 73.5648 9.44531 73.3369 9.14258C73.109 8.83659 72.7998 8.68359 72.4092 8.68359C72.0218 8.68359 71.7126 8.83659 71.4814 9.14258C71.2536 9.44531 71.1396 9.86849 71.1396 10.4121C71.1396 10.959 71.2536 11.3838 71.4814 11.6865ZM79.8115 12.3848C79.359 12.8633 78.7503 13.1025 77.9854 13.1025C77.2204 13.1025 76.6117 12.8633 76.1592 12.3848C75.7067 11.903 75.4805 11.2454 75.4805 10.4121C75.4805 9.58203 75.7083 8.92611 76.1641 8.44434C76.6198 7.95931 77.2269 7.7168 77.9854 7.7168C78.7471 7.7168 79.3542 7.95931 79.8066 8.44434C80.2624 8.92611 80.4902 9.58203 80.4902 10.4121C80.4902 11.2454 80.264 11.903 79.8115 12.3848ZM77.0576 11.6865C77.2855 11.9893 77.5947 12.1406 77.9854 12.1406C78.376 12.1406 78.6852 11.9893 78.9131 11.6865C79.141 11.3838 79.2549 10.959 79.2549 10.4121C79.2549 9.86849 79.141 9.44531 78.9131 9.14258C78.6852 8.83659 78.376 8.68359 77.9854 8.68359C77.598 8.68359 77.2887 8.83659 77.0576 9.14258C76.8298 9.44531 76.7158 9.86849 76.7158 10.4121C76.7158 10.959 76.8298 11.3838 77.0576 11.6865ZM81.2715 13V7.82422H82.4385V8.71289H82.4629C82.6061 8.40039 82.8145 8.15788 83.0879 7.98535C83.3646 7.81283 83.6982 7.72656 84.0889 7.72656C84.6553 7.72656 85.0947 7.89746 85.4072 8.23926C85.723 8.58105 85.8809 9.05306 85.8809 9.65527V13H84.665V9.89941C84.665 9.52832 84.5771 9.24512 84.4014 9.0498C84.2288 8.85449 83.9717 8.75684 83.6299 8.75684C83.2816 8.75684 83.0033 8.87077 82.7949 9.09863C82.5898 9.3265 82.4873 9.6276 82.4873 10.002V13H81.2715ZM92.9756 12.3848C92.5231 12.8633 91.9144 13.1025 91.1494 13.1025C90.3844 13.1025 89.7757 12.8633 89.3232 12.3848C88.8708 11.903 88.6445 11.2454 88.6445 10.4121C88.6445 9.58203 88.8724 8.92611 89.3281 8.44434C89.7839 7.95931 90.391 7.7168 91.1494 7.7168C91.9111 7.7168 92.5182 7.95931 92.9707 8.44434C93.4264 8.92611 93.6543 9.58203 93.6543 10.4121C93.6543 11.2454 93.4281 11.903 92.9756 12.3848ZM90.2217 11.6865C90.4495 11.9893 90.7588 12.1406 91.1494 12.1406C91.54 12.1406 91.8493 11.9893 92.0771 11.6865C92.305 11.3838 92.4189 10.959 92.4189 10.4121C92.4189 9.86849 92.305 9.44531 92.0771 9.14258C91.8493 8.83659 91.54 8.68359 91.1494 8.68359C90.762 8.68359 90.4528 8.83659 90.2217 9.14258C89.9938 9.44531 89.8799 9.86849 89.8799 10.4121C89.8799 10.959 89.9938 11.3838 90.2217 11.6865ZM94.4355 13V7.82422H95.6025V8.71289H95.627C95.7702 8.40039 95.9785 8.15788 96.252 7.98535C96.5286 7.81283 96.8623 7.72656 97.2529 7.72656C97.8193 7.72656 98.2588 7.89746 98.5713 8.23926C98.887 8.58105 99.0449 9.05306 99.0449 9.65527V13H97.8291V9.89941C97.8291 9.52832 97.7412 9.24512 97.5654 9.0498C97.3929 8.85449 97.1357 8.75684 96.7939 8.75684C96.4456 8.75684 96.1673 8.87077 95.959 9.09863C95.7539 9.3265 95.6514 9.6276 95.6514 10.002V13H94.4355ZM34.2402 27L33.5957 24.9492H30.625L29.9805 27H28.1641L31.0996 18.5449H33.1797L36.1211 27H34.2402ZM32.0898 20.1621L31.0059 23.625H33.2148L32.1309 20.1621H32.0898ZM40.5098 20.6191C41.3066 20.6191 41.9336 20.9062 42.3906 21.4805C42.8516 22.0547 43.082 22.8477 43.082 23.8594C43.082 24.8672 42.8555 25.6602 42.4023 26.2383C41.9492 26.8125 41.3281 27.0996 40.5391 27.0996C40.0898 27.0996 39.6934 26.998 39.3496 26.7949C39.0098 26.5879 38.7559 26.3047 38.5879 25.9453H38.5527V29.0508H36.8418V20.7188H38.5293V21.8145H38.5645C38.7363 21.4395 38.9902 21.1465 39.3262 20.9355C39.666 20.7246 40.0605 20.6191 40.5098 20.6191ZM39.9355 25.7227C40.3613 25.7227 40.6992 25.5547 40.9492 25.2188C41.2031 24.8828 41.3301 24.4297 41.3301 23.8594C41.3301 23.2891 41.2031 22.8359 40.9492 22.5C40.6992 22.1602 40.3613 21.9902 39.9355 21.9902C39.5176 21.9902 39.1816 22.1621 38.9277 22.5059C38.6738 22.8457 38.5469 23.2969 38.5469 23.8594C38.5469 24.4258 38.6719 24.8789 38.9219 25.2188C39.1758 25.5547 39.5137 25.7227 39.9355 25.7227ZM47.6348 20.6191C48.4316 20.6191 49.0586 20.9062 49.5156 21.4805C49.9766 22.0547 50.207 22.8477 50.207 23.8594C50.207 24.8672 49.9805 25.6602 49.5273 26.2383C49.0742 26.8125 48.4531 27.0996 47.6641 27.0996C47.2148 27.0996 46.8184 26.998 46.4746 26.7949C46.1348 26.5879 45.8809 26.3047 45.7129 25.9453H45.6777V29.0508H43.9668V20.7188H45.6543V21.8145H45.6895C45.8613 21.4395 46.1152 21.1465 46.4512 20.9355C46.791 20.7246 47.1855 20.6191 47.6348 20.6191ZM47.0605 25.7227C47.4863 25.7227 47.8242 25.5547 48.0742 25.2188C48.3281 24.8828 48.4551 24.4297 48.4551 23.8594C48.4551 23.2891 48.3281 22.8359 48.0742 22.5C47.8242 22.1602 47.4863 21.9902 47.0605 21.9902C46.6426 21.9902 46.3066 22.1621 46.0527 22.5059C45.7988 22.8457 45.6719 23.2969 45.6719 23.8594C45.6719 24.4258 45.7969 24.8789 46.0469 25.2188C46.3008 25.5547 46.6387 25.7227 47.0605 25.7227ZM53.3008 24.5918H55.0059C55.0449 24.9355 55.2266 25.2148 55.5508 25.4297C55.8789 25.6406 56.2793 25.7461 56.752 25.7461C57.2207 25.7461 57.6016 25.6465 57.8945 25.4473C58.1914 25.2441 58.3398 24.9863 58.3398 24.6738C58.3398 24.4004 58.2305 24.1797 58.0117 24.0117C57.793 23.8438 57.4277 23.7031 56.916 23.5898L55.8145 23.3496C54.2637 23.0176 53.4883 22.2305 53.4883 20.9883C53.4883 20.2148 53.7891 19.5898 54.3906 19.1133C54.9961 18.6367 55.7734 18.3984 56.7227 18.3984C57.6992 18.3984 58.4785 18.6309 59.0605 19.0957C59.6426 19.5566 59.9414 20.1719 59.957 20.9414H58.2988C58.2715 20.5859 58.1133 20.3066 57.8242 20.1035C57.5391 19.8965 57.1738 19.793 56.7285 19.793C56.291 19.793 55.9375 19.8887 55.668 20.0801C55.4023 20.2715 55.2695 20.5234 55.2695 20.8359C55.2695 21.0938 55.377 21.3027 55.5918 21.4629C55.8105 21.623 56.1641 21.7598 56.6523 21.873L57.6777 22.0898C58.5254 22.2695 59.1426 22.5508 59.5293 22.9336C59.916 23.3125 60.1094 23.8242 60.1094 24.4688C60.1094 25.2891 59.8008 25.9414 59.1836 26.4258C58.5664 26.9062 57.7324 27.1465 56.6816 27.1465C55.6621 27.1465 54.8496 26.9199 54.2441 26.4668C53.6426 26.0098 53.3281 25.3848 53.3008 24.5918ZM61.5098 19.2715H63.2207V20.7188H64.3809V22.0078H63.2207V25.0137C63.2207 25.4863 63.4668 25.7227 63.959 25.7227C64.1191 25.7227 64.2578 25.7129 64.375 25.6934V26.9531C64.1758 27 63.9043 27.0234 63.5605 27.0234C62.8223 27.0234 62.2949 26.8906 61.9785 26.625C61.666 26.3594 61.5098 25.9199 61.5098 25.3066V22.0078H60.625V20.7188H61.5098V19.2715ZM70.3809 26.2676C69.8223 26.8457 69.0645 27.1348 68.1074 27.1348C67.1504 27.1348 66.3926 26.8438 65.834 26.2617C65.2754 25.6797 64.9961 24.877 64.9961 23.8535C64.9961 22.8418 65.2773 22.0449 65.8398 21.4629C66.4062 20.877 67.1621 20.584 68.1074 20.584C69.0566 20.584 69.8125 20.877 70.375 21.4629C70.9375 22.0449 71.2188 22.8418 71.2188 23.8535C71.2188 24.8809 70.9395 25.6855 70.3809 26.2676ZM68.1074 25.8281C68.5293 25.8281 68.8633 25.6562 69.1094 25.3125C69.3555 24.9688 69.4785 24.4844 69.4785 23.8594C69.4785 23.2422 69.3555 22.7598 69.1094 22.4121C68.8633 22.0645 68.5293 21.8906 68.1074 21.8906C67.6855 21.8906 67.3496 22.0645 67.0996 22.4121C66.8535 22.7598 66.7305 23.2422 66.7305 23.8594C66.7305 24.4844 66.8535 24.9688 67.0996 25.3125C67.3457 25.6562 67.6816 25.8281 68.1074 25.8281ZM72.1035 27V20.7188H73.7559V21.8496H73.791C73.9004 21.4512 74.084 21.1465 74.3418 20.9355C74.5996 20.7246 74.9141 20.6191 75.2852 20.6191C75.4648 20.6191 75.627 20.6406 75.7715 20.6836V22.1895C75.6113 22.123 75.4043 22.0898 75.1504 22.0898C74.7285 22.0898 74.4004 22.2129 74.166 22.459C73.9316 22.7051 73.8145 23.0488 73.8145 23.4902V27H72.1035ZM79.082 21.8496C78.7109 21.8496 78.4004 21.9766 78.1504 22.2305C77.9043 22.4844 77.7656 22.8086 77.7344 23.2031H80.4004C80.3809 22.8008 80.25 22.4746 80.0078 22.2246C79.7695 21.9746 79.4609 21.8496 79.082 21.8496ZM80.4238 25.0781H81.9941C81.9004 25.6953 81.5918 26.1934 81.0684 26.5723C80.5488 26.9473 79.9023 27.1348 79.1289 27.1348C78.1641 27.1348 77.4062 26.8457 76.8555 26.2676C76.3086 25.6895 76.0352 24.8965 76.0352 23.8887C76.0352 22.8848 76.3086 22.084 76.8555 21.4863C77.4023 20.8848 78.1387 20.584 79.0645 20.584C79.9746 20.584 80.6992 20.8691 81.2383 21.4395C81.7773 22.0098 82.0469 22.7734 82.0469 23.7305V24.252H77.7168V24.3574C77.7168 24.8066 77.8477 25.1719 78.1094 25.4531C78.375 25.7305 78.7246 25.8691 79.1582 25.8691C79.4707 25.8691 79.7402 25.7988 79.9668 25.6582C80.1934 25.5137 80.3457 25.3203 80.4238 25.0781Z" fill="white"/>
</svg>
