<svg width="129" height="20" viewBox="0 0 129 20" fill="none" xmlns="http://www.w3.org/2000/svg">
<g clip-path="url(#clip0_258_150)">
<mask id="mask0_258_150" style="mask-type:luminance" maskUnits="userSpaceOnUse" x="0" y="0" width="129" height="20">
<path d="M128.502 0.0585938H0.726562V19.9421H128.502V0.0585938Z" fill="white"/>
</mask>
<g mask="url(#mask0_258_150)">
<path d="M27.3828 16.6147C27.7023 16.1519 27.8349 15.6561 27.8086 15.1099C27.7918 14.7599 27.8077 14.4084 27.8037 14.0576C27.8029 13.9832 27.7793 13.9091 27.7662 13.8349C27.7284 13.8111 27.6906 13.7872 27.6527 13.7634C27.5326 13.9203 27.4304 14.0958 27.2892 14.2307C26.8205 14.6782 26.2341 14.8534 25.6051 14.9374C24.8571 15.0373 24.1266 14.9944 23.4264 14.7049C22.3822 14.2731 21.6241 13.5704 21.2929 12.4511C21.1679 12.0287 21.1136 11.609 21.1154 11.1724C21.1214 9.67749 21.1219 8.18254 21.1156 6.68765C21.1132 6.104 21.0832 5.52051 21.0746 4.93682C21.0723 4.78137 21.0807 4.61903 21.1236 4.47131C21.18 4.27759 21.3347 4.1745 21.5408 4.18116C21.8045 4.18967 22.0679 4.22338 22.3313 4.22199C22.6789 4.22015 23.0262 4.19181 23.3738 4.18031C23.7684 4.16724 23.9639 4.36167 23.9621 4.75188C23.9527 6.79591 23.9476 8.8401 23.968 10.884C23.9713 11.213 24.0789 11.5522 24.1943 11.8662C24.3619 12.3225 24.7479 12.5518 25.2059 12.6419C26.032 12.8045 26.7584 12.6091 27.3447 11.9833C27.6392 11.669 27.804 11.2958 27.8045 10.8621C27.8068 8.83322 27.8054 6.8044 27.8055 4.77558C27.8056 4.35806 27.9374 4.22529 28.3506 4.22529C28.9842 4.22528 29.6179 4.22503 30.2515 4.22539C30.5671 4.22557 30.6911 4.34586 30.6911 4.65377C30.6914 8.20801 30.7068 11.7624 30.6817 15.3165C30.6743 16.3552 30.3527 17.3207 29.6925 18.1544C28.9623 19.0764 27.9804 19.5633 26.864 19.832C26.2128 19.9888 25.5501 19.9379 24.8957 19.9127C23.8774 19.8736 23.0032 19.447 22.2889 18.7285C21.6735 18.1094 21.3085 17.3478 21.1671 16.4866C21.1284 16.2505 21.1338 16.0072 21.1175 15.7673C21.1011 15.5266 21.1698 15.4031 21.4934 15.396C21.7564 15.3902 22.0203 15.4351 22.2838 15.4341C22.6007 15.433 22.9193 15.3784 23.2339 15.3986C23.6657 15.4264 23.7185 15.461 23.7799 15.8904C23.9005 16.7352 24.4013 17.243 25.2825 17.4045C25.7923 17.4979 26.2893 17.4757 26.7584 17.2225C27.0201 17.0813 27.208 16.8678 27.3828 16.6147Z" fill="#EAB308"/>
<path d="M4.13658 0.852401C4.8593 0.469338 5.59541 0.165764 6.40261 0.113163C7.06111 0.0702536 7.72441 0.0414835 8.38281 0.0700573C9.4056 0.114444 10.343 0.464877 11.1331 1.1102C11.6473 1.53021 12.1096 2.02211 12.5499 2.52162C12.9534 2.97932 13.1604 3.55497 13.3294 4.13772C13.3887 4.34213 13.4619 4.5442 13.5003 4.75257C13.5554 5.05052 13.4877 5.28077 13.1034 5.27955C12.4011 5.27731 11.6982 5.2945 10.9965 5.27333C10.5425 5.25963 10.4792 5.15249 10.3445 4.81099C9.91418 3.72069 9.15582 2.96986 7.96844 2.76651C6.74024 2.55618 5.66212 2.87616 4.84878 3.85505C4.38514 4.41306 4.11865 5.08778 3.99669 5.79599C3.88782 6.42823 3.79769 7.07721 3.8181 7.715C3.84961 8.69993 3.88051 9.69693 4.25919 10.6356C4.69016 11.7039 5.42606 12.4046 6.58128 12.6531C7.42195 12.8339 8.21137 12.7187 8.951 12.3146C9.4893 12.0205 9.90059 11.5836 10.1244 10.9964C10.21 10.7721 10.2863 10.5442 10.3692 10.3189C10.4608 10.07 10.6352 9.94839 10.9147 9.94759C11.6846 9.94539 12.4545 9.94572 13.2244 9.94755C13.4364 9.94806 13.5401 10.0856 13.4704 10.2969C13.2802 10.8738 13.1242 11.4679 12.8722 12.0175C12.3776 13.0957 11.629 13.968 10.5862 14.5702C9.8195 15.0129 8.99412 15.2667 8.11702 15.3425C7.64969 15.3829 7.17585 15.4152 6.70947 15.3839C5.99265 15.3359 5.29891 15.1566 4.63418 14.8732C3.77407 14.5066 3.04138 13.9638 2.43213 13.2619C1.9451 12.7008 1.58201 12.057 1.33494 11.3578C1.15188 10.8398 0.999854 10.3093 0.86372 9.7769C0.788704 9.48348 0.750837 9.17535 0.739086 8.87219C0.719306 8.36194 0.726941 7.85026 0.735006 7.33936C0.754415 6.1098 0.993035 4.92777 1.51206 3.80647C1.88694 2.99658 2.3415 2.23885 3.02358 1.6513C3.36378 1.35824 3.75485 1.12413 4.13658 0.852401Z" fill="#EAB308"/>
<path d="M40.6893 14.0308C40.075 14.6426 39.3434 14.9829 38.5092 15.118C37.7002 15.2489 36.9082 15.1804 36.169 14.8262C35.7517 14.6262 35.3432 14.385 35.0662 13.9823C35.0194 13.9144 34.9085 13.8467 34.8324 13.852C34.6872 13.8622 34.7236 14.0014 34.7236 14.1008C34.7228 15.9084 34.7231 17.716 34.7229 19.5237C34.7229 19.8402 34.6409 19.9226 34.3258 19.9227C33.6769 19.923 33.0279 19.9146 32.3791 19.9255C31.8791 19.9339 31.8665 19.8192 31.8453 19.3888C31.8238 18.9519 31.8806 18.5119 31.881 18.0732C31.8845 14.2139 31.8847 10.3545 31.881 6.49519C31.8805 5.99549 31.8475 5.49588 31.84 4.99607C31.8376 4.83298 31.8588 4.66781 31.8861 4.50643C31.9182 4.31666 32.1204 4.18135 32.3834 4.18293C32.6241 4.18437 32.8647 4.22385 33.1051 4.22246C33.4222 4.22063 33.7389 4.18457 34.056 4.18252C34.5238 4.17949 34.7226 4.38235 34.6776 4.80749C34.6744 4.83767 34.6706 4.87028 34.6785 4.89863C34.7008 4.9795 34.7291 5.05876 34.755 5.13865C34.8382 5.09917 34.9417 5.07917 35.0013 5.01706C35.4155 4.58494 35.8979 4.27108 36.4703 4.0838C37.0978 3.87854 37.7329 3.89388 38.3636 4.01254C39.0109 4.13435 39.6111 4.38592 40.1573 4.76985C40.8324 5.24438 41.2632 5.89464 41.5959 6.63007C41.8843 7.26756 42.0548 7.94235 42.1289 8.62712C42.195 9.2379 42.1586 9.86182 42.1398 10.4791C42.1202 11.1269 41.9589 11.7487 41.7354 12.3569C41.505 12.9842 41.1901 13.5549 40.6893 14.0308ZM39.0102 7.84443C38.9099 7.66476 38.8188 7.47922 38.7075 7.30658C38.4484 6.90425 38.1283 6.55413 37.6502 6.43147C37.3577 6.35643 37.045 6.34278 36.7406 6.3353C36.2758 6.32388 35.8751 6.50913 35.5396 6.82201C34.9192 7.40065 34.6922 8.17426 34.5982 8.96922C34.488 9.90106 34.6644 10.8088 35.084 11.6589C35.2125 11.9193 35.357 12.1593 35.6104 12.3314C36.254 12.7682 36.9418 12.816 37.6688 12.613C38.061 12.5035 38.4083 12.3195 38.6626 11.9935C39.1126 11.4164 39.2092 10.7214 39.2484 10.0294C39.2895 9.3059 39.3103 8.57234 39.0102 7.84443Z" fill="#EAB308"/>
<path d="M64.498 5.59843C64.498 4.59953 64.5029 3.62349 64.4959 2.64753C64.4922 2.13263 64.4672 1.6179 64.4524 1.10308C64.4508 1.04975 64.4453 0.995101 64.4541 0.943164C64.5166 0.573041 64.584 0.518638 64.97 0.518638C67.0002 0.518636 69.0308 0.498472 71.0605 0.526999C72.1018 0.541634 73.0388 0.890667 73.8434 1.58727C74.614 2.25437 75.0922 3.08925 75.2909 4.06682C75.5869 5.5223 75.3691 6.88674 74.4374 8.09742C73.7914 8.93684 72.9193 9.36544 71.9086 9.58322C70.9486 9.79007 69.9785 9.68933 69.0125 9.71766C68.5894 9.73007 68.1665 9.75215 67.7434 9.76097C67.5377 9.76525 67.5195 9.8879 67.5198 10.0489C67.5222 11.4824 67.5243 12.916 67.5164 14.3494C67.5156 14.4974 67.478 14.663 67.4019 14.7863C67.3518 14.8674 67.2026 14.9263 67.0968 14.928C66.3566 14.9399 65.616 14.9437 64.876 14.9301C64.5339 14.9238 64.4717 14.7622 64.4597 14.3712C64.4443 13.8726 64.4949 13.3724 64.4958 12.8728C64.5005 10.4556 64.498 8.03847 64.498 5.59843ZM69.2855 7.24593C69.907 7.20014 70.5316 7.17909 71.1487 7.09979C71.5541 7.04769 71.9467 6.88033 72.2117 6.55463C72.6574 6.00687 72.8387 5.37512 72.6989 4.66529C72.5942 4.13426 72.2953 3.74525 71.8574 3.44524C71.418 3.14429 70.9052 3.06978 70.4035 3.04691C69.5205 3.00666 68.6344 3.0366 67.7496 3.03472C67.602 3.03441 67.5206 3.09025 67.5207 3.24659C67.5216 4.46588 67.5179 5.68518 67.5254 6.90442C67.5263 7.05432 67.5824 7.19759 67.7871 7.20183C68.2717 7.21188 68.756 7.23067 69.2855 7.24593Z" fill="#3B3C39"/>
<path d="M97.1878 12.8911C97.0539 12.2307 97.0875 11.5841 97.2581 10.9623C97.4623 10.2184 97.8987 9.63055 98.6009 9.24926C99.234 8.90546 99.9113 8.73016 100.614 8.62096C101.295 8.51502 101.977 8.41533 102.656 8.29598C102.856 8.26087 103.053 8.18337 103.238 8.09862C103.586 7.94009 103.789 7.62092 103.75 7.29046C103.695 6.83203 103.547 6.52461 103.113 6.37423C102.739 6.24439 102.363 6.13578 101.964 6.15136C101.457 6.17114 100.973 6.30041 100.597 6.64451C100.423 6.80323 100.308 7.05606 100.236 7.28783C100.138 7.60566 99.925 7.78211 99.579 7.75299C99.3162 7.73088 99.0523 7.70832 98.789 7.7092C98.4798 7.71022 98.1707 7.74315 97.8613 7.74977C97.5351 7.75676 97.3751 7.58273 97.4336 7.27405C97.5788 6.50704 97.7957 5.76289 98.3445 5.17593C98.7883 4.70126 99.3481 4.40188 99.9738 4.22811C100.527 4.07462 101.084 3.95091 101.663 3.95295C102.06 3.95436 102.46 3.92221 102.853 3.95949C103.756 4.045 104.647 4.21303 105.381 4.79256C106.016 5.29329 106.421 5.96502 106.537 6.76523C106.63 7.40238 106.642 8.05159 106.682 8.69592C106.695 8.90766 106.682 9.12091 106.684 9.33345C106.699 10.908 106.717 12.4825 106.728 14.057C106.729 14.2665 106.705 14.4769 106.682 14.6856C106.66 14.8819 106.504 14.932 106.344 14.9337C105.688 14.9405 105.031 14.9412 104.375 14.9343C104.101 14.9314 103.907 14.7284 103.89 14.4547C103.887 14.3939 103.897 14.3317 103.888 14.2719C103.863 14.102 103.75 14.0529 103.63 14.1685C103.018 14.7562 102.253 15.0173 101.447 15.1574C100.846 15.2619 100.243 15.1866 99.638 15.0863C99.0848 14.9945 98.5881 14.8156 98.1397 14.484C97.7709 14.2113 97.4987 13.8668 97.3416 13.4376C97.279 13.2666 97.2462 13.0846 97.1878 12.8911ZM100.491 12.9679C100.877 13.1148 101.266 13.2075 101.684 13.1075C102.527 12.9056 103.238 12.521 103.611 11.6923C103.843 11.1775 103.858 10.6224 103.844 10.0675C103.839 9.84775 103.774 9.81224 103.565 9.90121C103.37 9.98441 103.174 10.0743 102.97 10.1279C102.295 10.305 101.609 10.4465 100.94 10.6415C100.439 10.787 100.068 11.1217 100.007 11.6603C99.951 12.1445 99.9633 12.6432 100.491 12.9679Z" fill="#3B3C39"/>
<path d="M87.5842 9.94738C87.5842 9.56611 87.5784 9.20759 87.5856 8.84932C87.5952 8.36486 87.6296 7.88053 87.6273 7.39627C87.6186 5.56978 87.5988 3.74334 87.5847 1.91686C87.5814 1.48984 87.7094 1.35132 88.1358 1.34585C88.7463 1.33802 89.3571 1.33762 89.9676 1.34601C90.3873 1.35177 90.47 1.44775 90.47 1.87108C90.47 2.49638 90.4846 3.12215 90.4647 3.74683C90.4519 4.14952 90.5804 4.19438 90.9453 4.22025C91.214 4.23929 91.4869 4.18422 91.7581 4.18329C93.0862 4.17871 94.4143 4.18109 95.7424 4.18129C96.1454 4.18135 96.2874 4.32055 96.2874 4.71407C96.2875 5.0801 96.2875 5.44613 96.2874 5.81217C96.2874 6.17977 96.179 6.28614 95.8013 6.28622C94.29 6.28654 92.7787 6.28635 91.2674 6.28635C91.1071 6.28635 90.9468 6.28285 90.7866 6.28722C90.5704 6.2931 90.4715 6.38834 90.4711 6.60578C90.469 8.11566 90.4431 9.62624 90.4825 11.1351C90.4995 11.7879 90.8245 12.4731 91.6571 12.6647C92.4162 12.8394 93.4378 12.3795 93.533 11.4954C93.5831 11.0307 93.5766 10.5591 93.583 10.0905C93.5907 9.53392 93.5846 8.97716 93.5849 8.42049C93.5851 7.95511 93.7832 7.82282 94.1535 7.83653C94.7404 7.85827 95.3287 7.84179 95.9164 7.84258C96.1684 7.84291 96.285 7.94928 96.2859 8.20394C96.2896 9.22576 96.3116 10.2484 96.2808 11.2693C96.2485 12.3408 95.8989 13.3061 95.1124 14.0661C94.5807 14.58 93.9396 14.9091 93.202 15.026C92.7688 15.0946 92.3338 15.195 91.899 15.1987C91.3589 15.2034 90.8151 15.1333 90.3032 14.9338C89.7225 14.7074 89.1628 14.4449 88.7167 13.9875C88.2043 13.4622 87.887 12.8292 87.7781 12.1183C87.6695 11.409 87.6453 10.6868 87.5842 9.94738Z" fill="#3B3C39"/>
<path d="M112.733 4.18056C113.786 4.18056 114.816 4.17903 115.847 4.18254C115.972 4.18297 116.098 4.22469 116.223 4.22261C116.487 4.21822 116.534 4.3821 116.534 4.59129C116.535 4.98021 116.535 5.36913 116.535 5.75805C116.535 6.14611 116.391 6.2855 115.99 6.28562C115.188 6.28587 114.387 6.2857 113.585 6.2857C112.738 6.2857 111.891 6.2852 111.044 6.28597C110.753 6.28623 110.671 6.36965 110.671 6.65844C110.671 7.97772 110.658 9.29724 110.68 10.6161C110.686 11.0045 110.762 11.3997 110.863 11.7766C110.99 12.2504 111.366 12.5187 111.816 12.6375C112.257 12.7538 112.701 12.6991 113.105 12.4627C113.54 12.2088 113.706 11.792 113.786 11.325C113.959 10.3152 113.851 9.29696 113.875 8.28273C113.882 7.97304 114.009 7.8233 114.307 7.83476C114.909 7.85793 115.513 7.84107 116.116 7.84193C116.412 7.84235 116.534 7.96607 116.535 8.26246C116.535 9.0098 116.539 9.75717 116.533 10.5044C116.529 11.1705 116.498 11.8366 116.302 12.4785C116.147 12.9862 115.865 13.4258 115.516 13.8265C114.884 14.5535 114.081 14.9686 113.141 15.1135C112.015 15.287 110.916 15.1966 109.889 14.6584C108.813 14.0942 108.168 13.2043 107.974 12.0068C107.909 11.6084 107.882 11.1999 107.881 10.7959C107.874 7.85238 107.885 4.90872 107.871 1.96518C107.867 1.30698 108.148 1.33351 108.676 1.34933C109.059 1.36079 109.442 1.3494 109.825 1.35325C110.004 1.35505 110.184 1.36146 110.362 1.37892C110.606 1.40281 110.67 1.57568 110.671 1.78644C110.672 2.47277 110.671 3.15911 110.671 3.84544C110.672 4.12908 110.725 4.18019 111.015 4.18042C111.58 4.18088 112.145 4.18056 112.733 4.18056Z" fill="#3B3C39"/>
<path d="M84.8891 13.9439C84.4664 14.2146 84.0697 14.5021 83.6394 14.7243C83.1252 14.9898 82.5602 15.1083 81.982 15.1679C80.963 15.273 79.9758 15.1454 79.015 14.7996C78.275 14.5333 77.6557 14.1023 77.1366 13.503C76.5625 12.8403 76.1906 12.0799 75.9656 11.2488C75.8635 10.8717 75.8422 10.4693 75.8158 10.0762C75.7919 9.71956 75.7898 9.35858 75.8146 9.00204C75.895 7.84489 76.1999 6.76685 76.9555 5.84846C77.3884 5.32231 77.9022 4.90591 78.499 4.57915C79.0696 4.26675 79.6689 4.06691 80.3171 3.99665C81.5807 3.85969 82.804 3.98129 83.9563 4.55003C84.5534 4.8448 85.0357 5.28078 85.4681 5.78932C86.1058 6.5393 86.4709 7.41077 86.6055 8.36242C86.6869 8.93812 86.6582 9.53765 86.6105 10.1209C86.5655 10.6712 86.4832 11.2301 86.3236 11.7569C86.0652 12.61 85.5719 13.3354 84.8891 13.9439ZM83.5546 11.206C83.6148 10.9563 83.7304 10.7053 83.7247 10.4571C83.7085 9.75186 83.8729 9.04284 83.6896 8.34111C83.5279 7.7223 83.2759 7.15287 82.7155 6.79281C81.9978 6.33161 81.2227 6.26893 80.4108 6.51197C79.685 6.72927 79.2069 7.21121 78.9817 7.91267C78.8497 8.32384 78.7798 8.76481 78.7512 9.19695C78.703 9.92324 78.7594 10.6481 79.0192 11.3394C79.1524 11.6938 79.3472 12.0068 79.6474 12.2562C79.9975 12.5471 80.409 12.6894 80.8411 12.7268C81.3845 12.7739 81.9412 12.7737 82.4509 12.5316C83.0038 12.2689 83.3375 11.8035 83.5546 11.206Z" fill="#3B3C39"/>
<path d="M46.0461 11.5707C46.206 12.0146 46.4533 12.3537 46.8787 12.5533C47.3129 12.7569 48.0221 12.7494 48.4539 12.46C48.9317 12.1398 49.0752 11.6592 49.1015 11.1384C49.1401 10.373 49.1389 9.60561 49.1528 8.83904C49.1565 8.63372 49.14 8.42718 49.1569 8.2232C49.1752 8.00343 49.3002 7.84542 49.5834 7.84412C50.1941 7.84132 50.8048 7.842 51.4155 7.84384C51.6795 7.84464 51.8089 7.97854 51.8097 8.24826C51.8111 8.70585 51.8101 9.16346 51.8101 9.62106C51.8101 10.1318 51.8297 10.6435 51.8062 11.1532C51.7508 12.3564 51.373 13.4257 50.4283 14.233C49.9007 14.6839 49.2787 14.9477 48.601 15.0697C48.2205 15.1383 47.8293 15.221 47.4484 15.1996C46.397 15.1406 45.381 14.9522 44.5317 14.2395C43.84 13.6591 43.4638 12.9226 43.2858 12.0535C43.1326 11.3062 43.1538 10.5533 43.1533 9.79995C43.1516 7.19163 43.1526 4.58331 43.1526 1.97499C43.1526 1.46369 43.4429 1.27519 43.9532 1.34063C44.4291 1.40165 44.9199 1.38823 45.4005 1.35556C45.7134 1.33428 45.9465 1.47215 45.9467 1.78164C45.9471 2.43753 45.9545 3.09355 45.9437 3.74927C45.938 4.09528 46.0292 4.21673 46.4288 4.22265C46.9057 4.22971 47.3831 4.187 47.8604 4.18423C48.9826 4.17772 50.1048 4.18077 51.2269 4.18419C51.3444 4.18454 51.4715 4.19007 51.577 4.2342C51.7304 4.2984 51.8131 4.42967 51.8113 4.60841C51.8074 4.99733 51.7979 5.38682 51.814 5.77511C51.8269 6.08677 51.6959 6.27607 51.3356 6.28158C50.29 6.29758 49.244 6.29237 48.1982 6.28519C47.614 6.28119 47.03 6.24567 46.4459 6.24525C46.0254 6.24494 45.9468 6.34383 45.9468 6.77217C45.9468 8.00006 45.9399 9.22801 45.9511 10.4558C45.9544 10.8216 46.0086 11.187 46.0461 11.5707Z" fill="#EAB308"/>
<path d="M128.304 7.81015C128.486 8.58959 128.533 9.36382 128.482 10.1376C128.408 11.2618 128.098 12.3129 127.391 13.2201C126.759 14.0301 125.94 14.5846 124.982 14.9161C124.561 15.0618 124.1 15.0963 123.654 15.1635C122.747 15.3003 121.876 15.1016 121.017 14.8435C120.234 14.6081 119.555 14.1837 119.007 13.5799C118.328 12.8316 117.93 11.9366 117.721 10.9512C117.608 10.4181 117.552 9.88028 117.59 9.3393C117.677 8.08339 117.947 6.88133 118.762 5.87107C119.343 5.15091 120.071 4.6326 120.947 4.31785C121.544 4.10278 122.158 3.99113 122.791 3.95064C124.233 3.85845 125.53 4.25103 126.661 5.13557C127.449 5.75157 127.91 6.60228 128.214 7.54235C128.241 7.62606 128.273 7.7079 128.304 7.81015ZM124.066 12.606C124.472 12.4911 124.759 12.2253 125.012 11.8984C125.437 11.3496 125.568 10.7017 125.589 10.0458C125.608 9.44967 125.552 8.84314 125.455 8.25332C125.33 7.49219 124.935 6.88497 124.184 6.59064C123.656 6.38401 123.107 6.32312 122.538 6.42073C121.605 6.58064 120.976 7.16711 120.751 8.0451C120.578 8.72186 120.493 9.41291 120.611 10.1121C120.679 10.519 120.726 10.9347 120.845 11.3272C121.113 12.2078 121.894 12.7344 122.784 12.734C123.203 12.7339 123.621 12.6687 124.066 12.606Z" fill="#3B3C39"/>
<path d="M53.6765 12.9832C53.1972 12.3501 52.9245 11.6419 52.8279 10.8831C52.7482 10.2567 52.7048 9.6163 52.7375 8.98693C52.7981 7.82044 53.1501 6.73148 53.9105 5.8243C54.5944 5.00841 55.4599 4.45945 56.5038 4.17175C57.2498 3.96619 58.0017 3.90334 58.7566 3.9628C59.8337 4.04763 60.833 4.38912 61.6971 5.06656C62.6527 5.81565 63.1519 6.83521 63.4467 7.98127C63.6209 8.65826 63.6731 9.34818 63.6215 10.0377C63.5328 11.2217 63.1679 12.3307 62.4528 13.2819C61.7303 14.243 60.7208 14.7772 59.5471 15.035C58.9265 15.1713 58.3045 15.1878 57.6813 15.1584C57.0221 15.1272 56.3831 14.9821 55.7692 14.7175C55.143 14.4476 54.6064 14.0613 54.14 13.5743C53.9716 13.3984 53.8368 13.1903 53.6765 12.9832ZM55.7687 8.44077C55.7189 8.90678 55.6062 9.36556 55.6979 9.84381C55.772 10.2303 55.7604 10.6345 55.8491 11.0164C55.9983 11.6587 56.339 12.1808 56.9489 12.4961C57.5448 12.8041 58.1739 12.7892 58.8082 12.6918C59.6382 12.5644 60.1832 12.0782 60.4654 11.3004C60.8327 10.2878 60.7718 9.24324 60.5894 8.21542C60.485 7.62761 60.1503 7.13021 59.643 6.75885C59.0849 6.35025 58.4537 6.33817 57.8213 6.39162C57.493 6.41937 57.1493 6.52516 56.8581 6.68077C56.1812 7.04243 55.9199 7.69184 55.7687 8.44077Z" fill="#EAB308"/>
<path d="M14.1546 9.39908C14.1546 7.84352 14.1531 6.31085 14.1556 4.77818C14.1563 4.34042 14.3096 4.15025 14.7563 4.18095C15.0575 4.20165 15.3593 4.22274 15.661 4.22445C15.8937 4.22577 16.1266 4.18684 16.3596 4.18434C16.7448 4.1802 16.8572 4.29712 16.8572 4.67206C16.8572 4.80932 16.8504 4.94709 16.8608 5.08356C16.8646 5.13449 16.8989 5.21063 16.937 5.22362C16.9742 5.2363 17.0511 5.19617 17.0811 5.1568C17.5832 4.497 18.2454 4.1073 19.0652 4.00331C19.4002 3.96083 19.7414 3.95712 20.0798 3.95703C20.2926 3.95698 20.3791 4.12087 20.3811 4.30576C20.3889 5.04533 20.3867 5.78504 20.3828 6.52466C20.3817 6.74506 20.2758 6.83097 20.0135 6.83528C19.7388 6.8398 19.4633 6.82366 19.1894 6.8387C18.4158 6.88117 17.7523 7.15812 17.3466 7.84846C17.2034 8.09213 17.1093 8.39751 17.0972 8.67921C17.0539 9.68084 17.0501 10.6844 17.0421 11.6872C17.0345 12.6251 17.0407 13.563 17.0403 14.5009C17.0402 14.8108 16.9212 14.9341 16.6073 14.9356C15.9585 14.9386 15.3097 14.9309 14.661 14.9386C14.2647 14.9432 14.1624 14.81 14.1587 14.4317C14.1474 13.2804 14.1546 12.1289 14.1546 10.9775C14.1546 10.459 14.1546 9.94048 14.1546 9.39908Z" fill="#EAB308"/>
<path d="M123.871 7.64522C124.303 8.05753 124.513 8.55282 124.499 9.12754C124.484 9.75069 124.371 10.3352 123.898 10.8157C123.482 11.2383 122.543 11.2668 122.122 10.7188C121.75 10.2352 121.555 9.71405 121.576 9.11948C121.599 8.46244 121.886 7.91595 122.397 7.50316C122.751 7.21655 123.269 7.22986 123.681 7.50158C123.743 7.54221 123.8 7.58899 123.871 7.64522Z" fill="#EAB308"/>
<path d="M56.8005 10.1654C56.5601 9.37601 56.6615 8.6603 57.1557 8.01412C57.7887 7.18652 58.8139 7.34071 59.3157 8.20728C59.7243 8.91276 59.7162 9.6742 59.4201 10.3995C59.2218 10.8852 58.8494 11.2833 58.275 11.3572C57.9914 11.3937 57.7271 11.28 57.4863 11.1175C57.1444 10.8868 56.9642 10.5431 56.8005 10.1654Z" fill="#3B3C39"/>
</g>
</g>
<defs>
<clipPath id="clip0_258_150">
<rect width="129" height="20" fill="white"/>
</clipPath>
</defs>
</svg>
