<svg width="90" height="18" viewBox="0 0 90 18" fill="none" xmlns="http://www.w3.org/2000/svg">
<g clip-path="url(#clip0_47_133)">
<path fill-rule="evenodd" clip-rule="evenodd" d="M23.2177 13.0321C21.2507 13.0321 19.797 11.499 19.797 9.61587C19.797 7.73271 21.2507 6.16199 23.2299 6.16199C24.4835 6.16199 25.2603 6.6236 25.8744 7.29702L24.9347 8.3066C24.4708 7.8206 23.9823 7.48391 23.2177 7.48391C22.1147 7.48391 21.3129 8.43156 21.3129 9.59099C21.3129 10.7753 22.1275 11.7229 23.2927 11.7229C24.0073 11.7229 24.5335 11.3862 25.0097 10.9002L25.9244 11.7976C25.2731 12.5207 24.5085 13.0321 23.2177 13.0321Z" fill="white"/>
<path fill-rule="evenodd" clip-rule="evenodd" d="M28.8017 13.0321H27.2858V6.17463H28.8017V7.78302C29.2151 6.79775 29.9797 6.12437 31.145 6.17463V7.77083H31.0572C29.7291 7.77083 28.8017 8.63114 28.8017 10.3766V13.0321Z" fill="white"/>
<path fill-rule="evenodd" clip-rule="evenodd" d="M39.0818 6.16199L35.7314 14.8782H34.1942L34.9263 13.0343L32.0558 6.16199H33.6722L35.6308 11.238L37.5111 6.16199H39.0818Z" fill="white"/>
<path fill-rule="evenodd" clip-rule="evenodd" d="M43.5555 7.47122C42.5281 7.47122 41.6257 8.3066 41.6257 9.59099C41.6257 10.8753 42.5281 11.7102 43.5555 11.7102C44.5957 11.7102 45.4478 10.9002 45.4478 9.59099C45.4478 8.29391 44.5829 7.47122 43.5555 7.47122ZM43.9061 13.0194C42.8165 13.0194 42.1269 12.471 41.6629 11.86V14.8777H40.147V6.16199H41.6629V7.39602C42.1519 6.71045 42.8415 6.16199 43.9061 6.16199C45.4726 6.16199 46.9891 7.39602 46.9891 9.59099C46.9891 11.7854 45.4853 13.0194 43.9061 13.0194Z" fill="white"/>
<path fill-rule="evenodd" clip-rule="evenodd" d="M50.3123 7.59612V10.8245C50.3123 11.41 50.6112 11.6467 51.1264 11.6467H51.7211V12.994H50.684C49.5805 12.9908 48.7963 12.5027 48.7963 11.0611V7.59612H47.9547V6.30066H48.7963V4.49219H50.3123V6.30066H51.7211V7.59612H50.3123Z" fill="white"/>
<path fill-rule="evenodd" clip-rule="evenodd" d="M56.5173 7.48379C55.3016 7.48379 54.5246 8.43144 54.5246 9.59087C54.5246 10.763 55.364 11.7228 56.5421 11.7228C57.7696 11.7228 58.547 10.7757 58.547 9.61575C58.547 8.44364 57.7076 7.48379 56.5173 7.48379ZM56.5173 13.032C54.4997 13.032 53.0082 11.4989 53.0082 9.61575C53.0082 7.72044 54.5119 6.16187 56.5421 6.16187C58.5719 6.16187 60.0635 7.69556 60.0635 9.59087C60.0635 11.474 58.5592 13.032 56.5173 13.032Z" fill="white"/>
<path fill-rule="evenodd" clip-rule="evenodd" d="M62.8386 11.6484V12.4087C62.8386 12.441 62.8223 12.4701 62.7942 12.4849L62.133 12.865C62.105 12.8809 62.0711 12.8809 62.0453 12.865L61.3823 12.4849C61.3556 12.4701 61.338 12.441 61.338 12.4087V11.6484C61.338 11.6177 61.3556 11.5886 61.3823 11.5722L62.0453 11.1921C62.0711 11.1762 62.105 11.1762 62.133 11.1921L62.7942 11.5722C62.8223 11.5886 62.8386 11.6177 62.8386 11.6484Z" fill="white"/>
<path fill-rule="evenodd" clip-rule="evenodd" d="M74.5589 7.48379C73.3432 7.48379 72.5667 8.43144 72.5667 9.59087C72.5667 10.763 73.4061 11.7228 74.5842 11.7228C75.8116 11.7228 76.5882 10.7757 76.5882 9.61575C76.5882 8.44364 75.7492 7.48379 74.5589 7.48379ZM74.5589 13.032C72.5413 13.032 71.0502 11.4989 71.0502 9.61575C71.0502 7.72044 72.5535 6.16187 74.5842 6.16187C76.6139 6.16187 78.1055 7.69556 78.1055 9.59087C78.1055 11.474 76.6013 13.032 74.5589 13.032Z" fill="white"/>
<path fill-rule="evenodd" clip-rule="evenodd" d="M67.4548 13.0244C65.4879 12.9868 64.0642 11.4256 64.1008 9.54302C64.137 7.66094 65.6204 6.11825 67.5995 6.15582C68.8527 6.17967 69.6206 6.65559 70.2217 7.34067L69.2625 8.33225C68.8084 7.83725 68.3263 7.49156 67.5619 7.47671C66.4593 7.45556 65.6389 8.38782 65.6168 9.54725C65.5937 10.7316 66.3901 11.6946 67.5552 11.7168C68.2697 11.7306 68.802 11.4039 69.2873 10.9269L70.1851 11.8417C69.5198 12.5522 68.746 13.0488 67.4548 13.0244Z" fill="white"/>
<path fill-rule="evenodd" clip-rule="evenodd" d="M87.1177 6.16199C88.5591 6.16199 89.436 7.07202 89.436 8.68037V13.0321H87.9205V9.14202C87.9205 8.09487 87.4311 7.53368 86.5795 7.53368C85.7528 7.53368 85.1631 8.10702 85.1631 9.16691V13.0321H83.6471V9.12933C83.6471 8.10702 83.1455 7.53368 82.3057 7.53368C81.4667 7.53368 80.8901 8.15733 80.8901 9.1796V13.0321H79.3737V6.16199H80.8901V7.29702C81.3161 6.71099 81.8928 6.16199 82.9076 6.16199C83.8601 6.16199 84.524 6.6236 84.8745 7.32137C85.4141 6.6236 86.1155 6.16199 87.1177 6.16199Z" fill="white"/>
<path fill-rule="evenodd" clip-rule="evenodd" d="M0 4.81512V13.3861L7.42188 17.6723L14.8421 13.3861V4.81512L7.42188 0.529419L0 4.81512ZM0.653255 13.0103V5.19254L7.42188 1.28177L14.1909 5.19254V13.0103L7.42188 16.9195L0.653255 13.0103Z" fill="#FEFEFE"/>
<path fill-rule="evenodd" clip-rule="evenodd" d="M10.3299 4.22974H4.49819L3.82214 7.20374H11.0328L10.3299 4.22974Z" fill="#FEFEFE"/>
<path fill-rule="evenodd" clip-rule="evenodd" d="M5.53281 11.2965V9.32033L3.80547 8.22192L1.85059 9.67533L4.5153 14.3103H5.57962L6.83853 13.1383V12.5492L5.53281 11.2965Z" fill="#FEFEFE"/>
<path fill-rule="evenodd" clip-rule="evenodd" d="M9.3156 7.65247H5.53931L6.1755 9.31391L5.98175 11.1757H7.42094L8.87396 11.1691L8.69288 9.31391L9.3156 7.65247Z" fill="#FEFEFE"/>
<path fill-rule="evenodd" clip-rule="evenodd" d="M11.043 8.2085L9.33561 9.32031V11.2964L8.03033 12.5492V13.1382L9.2888 14.2973H10.3397L12.9914 9.67532L11.043 8.2085Z" fill="#FEFEFE"/>
</g>
<defs>
<clipPath id="clip0_47_133">
<rect width="90" height="18" fill="white"/>
</clipPath>
</defs>
</svg>
