<svg width="72" height="72" viewBox="0 0 72 72" fill="none" xmlns="http://www.w3.org/2000/svg">
<path fill-rule="evenodd" clip-rule="evenodd" d="M72 36C72 55.882 55.882 72 36 72C16.118 72 0 55.882 0 36C0 16.118 16.118 0 36 0C55.882 0 72 16.118 72 36Z" fill="#F4F4F9"/>
<path opacity="0.3" d="M36 56C47.0457 56 56 47.0457 56 36C56 24.9543 47.0457 16 36 16C24.9543 16 16 24.9543 16 36C16 47.0457 24.9543 56 36 56Z" fill="#9F9FCD"/>
<path d="M42.5 41C49.9558 41 56 34.9558 56 27.5C56 20.0442 49.9558 14 42.5 14C35.0442 14 29 20.0442 29 27.5C29 34.9558 35.0442 41 42.5 41Z" fill="white"/>
<path d="M28 57C35.732 57 42 50.732 42 43C42 35.268 35.732 29 28 29C20.268 29 14 35.268 14 43C14 50.732 20.268 57 28 57Z" fill="white"/>
<path fill-rule="evenodd" clip-rule="evenodd" d="M43 14C35.28 14 29 20.28 29 28C29 28.2237 29.0889 28.4383 29.2471 28.5964C29.4052 28.7546 29.6198 28.8435 29.8435 28.8435C30.0672 28.8435 30.2818 28.7546 30.4399 28.5964C30.5981 28.4383 30.687 28.2237 30.687 28C30.687 21.21 36.21 15.687 43 15.687C49.79 15.687 55.313 21.21 55.313 28C55.313 34.79 49.79 40.313 43 40.313C42.7763 40.313 42.5617 40.4019 42.4036 40.5601C42.2454 40.7182 42.1565 40.9328 42.1565 41.1565C42.1565 41.3802 42.2454 41.5948 42.4036 41.7529C42.5617 41.9111 42.7763 42 43 42C50.72 42 57 35.72 57 28C57 20.28 50.72 14 43 14Z" fill="#25258E"/>
<path d="M50.833 20.172C49.8295 19.1632 48.6359 18.3633 47.3212 17.8188C46.0066 17.2744 44.597 16.9961 43.174 17C41.7512 16.9962 40.3418 17.2746 39.0273 17.819C37.7128 18.3635 36.5194 19.1633 35.516 20.172C34.2751 21.407 33.3535 22.9254 32.8308 24.5963C32.3081 26.2671 32.2001 28.0401 32.516 29.762C31.061 29.2645 29.5337 29.011 27.996 29.012C20.277 29.013 14 35.29 14 43.007C14 50.724 20.278 57 27.995 57C35.712 57 41.991 50.722 41.991 43.006C41.991 41.425 41.727 39.904 41.241 38.485C42.9631 38.7971 44.7351 38.6873 46.4056 38.1652C48.076 37.6432 49.5951 36.7242 50.833 35.487C55.056 31.265 55.056 24.394 50.833 20.172ZM27.995 30.699C34.783 30.699 40.305 36.219 40.305 43.006C40.305 49.793 34.783 55.314 27.995 55.314C21.208 55.314 15.686 49.793 15.686 43.006C15.686 36.22 21.207 30.699 27.995 30.699ZM43.005 19C45.408 19 47.668 19.936 49.368 21.636C52.878 25.146 52.878 30.855 49.368 34.364C48.231 35.4995 46.8112 36.3104 45.2555 36.7127C43.6998 37.1149 42.0649 37.094 40.52 36.652C40.449 36.6321 40.3757 36.6216 40.302 36.621C38.9931 34.0999 36.9416 32.0415 34.425 30.724C33.9224 29.1521 33.8633 27.4719 34.2541 25.8685C34.6449 24.265 35.4705 22.8005 36.64 21.636C37.4738 20.7977 38.4656 20.133 39.558 19.6806C40.6503 19.2281 41.8226 18.9968 43.005 19Z" fill="#25258E"/>
<path d="M43.734 23.7347C43.4424 24.0251 43.2279 24.3837 43.1098 24.778C42.9918 25.1723 42.974 25.5898 43.058 25.9927L43.003 26.1757C42.9721 26.2788 42.9157 26.3725 42.839 26.448C42.7623 26.5235 42.6678 26.5785 42.5642 26.6078C42.4606 26.6371 42.3513 26.6398 42.2464 26.6157C42.1415 26.5915 42.0444 26.5413 41.964 26.4697L41.802 26.3267C41.6849 26.0253 41.5083 25.7507 41.2827 25.5191C41.0571 25.2875 40.7872 25.1037 40.489 24.9787C40.0751 24.7991 39.6202 24.7353 39.1728 24.7939C38.7254 24.8526 38.3023 25.0316 37.9487 25.3118C37.595 25.592 37.3241 25.9629 37.1647 26.385C37.0053 26.8071 36.9634 27.2646 37.0436 27.7086C37.1237 28.1526 37.3229 28.5666 37.6198 28.9063C37.9167 29.2461 38.3003 29.4989 38.7296 29.6377C39.1588 29.7766 39.6178 29.7964 40.0574 29.6949C40.4971 29.5935 40.901 29.3746 41.226 29.0617C41.3214 29.0514 41.4178 29.0627 41.5082 29.0946C41.5987 29.1265 41.6808 29.1782 41.7486 29.246C41.8165 29.3139 41.8682 29.396 41.9001 29.4864C41.932 29.5769 41.9433 29.6733 41.933 29.7687C41.6781 30.0326 41.4848 30.3498 41.367 30.6973C41.2493 31.0448 41.21 31.4141 41.252 31.7787C41.34 32.5407 41.772 33.2217 42.426 33.6257C43.226 34.1247 44.241 34.1247 45.041 33.6257C45.3634 33.4264 45.6365 33.1567 45.8398 32.8368C46.0431 32.5169 46.1714 32.1552 46.215 31.7787C46.2583 31.4055 46.2164 31.0274 46.0924 30.6728C45.9684 30.3183 45.7655 29.9965 45.499 29.7317C45.2624 29.4967 44.9803 29.3126 44.67 29.1907L44.527 29.0297C44.4554 28.9493 44.4051 28.8522 44.381 28.7473C44.3568 28.6424 44.3596 28.5331 44.3889 28.4295C44.4182 28.3259 44.4731 28.2314 44.5487 28.1547C44.6242 28.078 44.7179 28.0216 44.821 27.9907L45.004 27.9367C45.4783 28.0343 45.9707 27.9917 46.4212 27.8141C46.8716 27.6364 47.2606 27.3315 47.5406 26.9364C47.8206 26.5413 47.9794 26.0733 47.9978 25.5894C48.0162 25.1056 47.8932 24.6268 47.644 24.2117C47.4462 23.8851 47.1767 23.6078 46.8558 23.401C46.5349 23.1941 46.1711 23.063 45.792 23.0177C45.417 22.9727 45.0367 23.0139 44.6801 23.1381C44.3234 23.2624 43.9998 23.4664 43.734 23.7347ZM46.789 24.7287C46.9417 24.9847 47.0144 25.2806 46.9976 25.5782C46.9808 25.8759 46.8754 26.1617 46.6948 26.3989C46.5143 26.6362 46.2668 26.814 45.9844 26.9094C45.702 27.0049 45.3975 27.0137 45.11 26.9347L44.976 26.8997L44.531 27.0327C44.2672 27.1121 44.0277 27.2567 43.8345 27.453C43.6413 27.6494 43.5008 27.8913 43.4257 28.1564C43.3507 28.4214 43.3436 28.7011 43.4052 28.9696C43.4668 29.2381 43.595 29.4868 43.778 29.6927L44.092 30.0457L44.216 30.0887C44.885 30.3077 45.305 30.9687 45.22 31.6677C45.1936 31.9062 45.1104 32.1349 44.9774 32.3346C44.8443 32.5343 44.6653 32.6992 44.4553 32.8154C44.2454 32.9316 44.0106 32.9957 43.7707 33.0023C43.5308 33.009 43.2929 32.958 43.0768 32.8537C42.8607 32.7493 42.6728 32.5946 42.5289 32.4026C42.3849 32.2106 42.2892 31.9869 42.2496 31.7502C42.21 31.5135 42.2278 31.2708 42.3015 31.0424C42.3752 30.814 42.5026 30.6066 42.673 30.4377L42.81 30.3377L42.86 30.1777C42.9477 29.8927 42.9561 29.5892 42.8841 29.2999C42.8122 29.0105 42.6626 28.7463 42.4517 28.5356C42.2407 28.3249 41.9762 28.1758 41.6868 28.1043C41.3973 28.0328 41.0938 28.0415 40.809 28.1297L40.652 28.1797L40.552 28.3167C40.4123 28.4552 40.2467 28.5648 40.0646 28.6392C39.8826 28.7137 39.6876 28.7515 39.4909 28.7506C39.2942 28.7497 39.0996 28.71 38.9183 28.6338C38.7369 28.5577 38.5724 28.4465 38.434 28.3067C38.2809 28.1519 38.1634 27.9657 38.0896 27.7609C38.0157 27.5561 37.9873 27.3377 38.0064 27.1209C38.0254 26.904 38.0914 26.6939 38.1998 26.5052C38.3082 26.3164 38.4563 26.1534 38.634 26.0277C39.064 25.7347 39.614 25.6817 40.091 25.8887C40.478 26.0487 40.775 26.3727 40.902 26.7717L40.945 26.8967L41.298 27.2097C41.5038 27.3928 41.7524 27.521 42.0208 27.5825C42.2892 27.6441 42.5689 27.6369 42.8338 27.5618C43.0988 27.4866 43.3405 27.3458 43.5366 27.1525C43.7328 26.9592 43.877 26.7195 43.956 26.4557L44.089 26.0127L44.054 25.8777C43.9653 25.5295 44.0045 25.161 44.1646 24.8392C44.3247 24.5175 44.5949 24.2639 44.9262 24.1247C45.2574 23.9854 45.6277 23.9696 45.9695 24.0803C46.3114 24.191 46.6022 24.4217 46.789 24.7287Z" fill="#25258E" stroke="#25258E" stroke-width="0.5"/>
<path fill-rule="evenodd" clip-rule="evenodd" d="M35.778 35.222C34.7588 34.1973 33.5465 33.3848 32.2112 32.8318C30.876 32.2787 29.4442 31.996 27.999 32C25.061 32 22.299 33.144 20.22 35.222C18.5233 36.9088 17.4284 39.1067 17.104 41.477C16.783 43.783 17.211 46.177 18.31 48.217C18.4178 48.417 18.6006 48.566 18.8182 48.6311C19.0359 48.6963 19.2705 48.6724 19.4705 48.5645C19.6704 48.4567 19.8194 48.2739 19.8846 48.0563C19.9497 47.8386 19.9258 47.604 19.818 47.404C17.889 43.824 18.552 39.312 21.432 36.434C22.2923 35.5688 23.3157 34.8828 24.4429 34.4158C25.5701 33.9487 26.7788 33.7099 27.999 33.713C30.48 33.713 32.812 34.679 34.567 36.433C35.4321 37.2936 36.1179 38.3172 36.5848 39.4446C37.0517 40.572 37.2904 41.7808 37.287 43.001C37.2904 44.2213 37.0518 45.4301 36.5849 46.5575C36.118 47.6849 35.4321 48.7085 34.567 49.569C31.687 52.448 27.177 53.111 23.596 51.182C23.3961 51.0742 23.1616 51.0502 22.9441 51.1153C22.7266 51.1804 22.5438 51.3292 22.436 51.529C22.3281 51.7289 22.3041 51.9634 22.3692 52.1809C22.4343 52.3985 22.5831 52.5812 22.783 52.689C24.8458 53.7931 27.2052 54.2156 29.523 53.896C31.8933 53.5716 34.0912 52.4767 35.778 50.78C36.8028 49.7607 37.6153 48.5483 38.1684 47.2128C38.7214 45.8774 39.0041 44.4455 39 43C39.0037 41.555 38.7209 40.1235 38.1679 38.7884C37.6148 37.4533 36.8025 36.2411 35.778 35.222Z" fill="#25258E"/>
<path d="M27.437 37C27.887 37 28.25 37.338 28.25 37.755V38.625H28.51C30.433 38.625 31.34 39.608 31.34 41.097C31.34 42.148 30.86 42.749 30.286 43.063V43.09C30.846 43.309 31.5 44.046 31.5 45.18C31.5 47.023 30.366 47.91 28.377 47.91H28.25V48.53C28.25 48.958 27.886 49.304 27.437 49.304C26.988 49.304 26.625 48.958 26.625 48.53V47.91H25.134C25.054 47.91 25 47.856 25 47.774V38.761C25 38.679 25.054 38.625 25.134 38.625H26.625V37.755C26.625 37.338 26.988 37 27.437 37ZM28.55 43.91H26.655C26.602 43.91 26.575 43.936 26.575 43.991V46.408C26.575 46.463 26.602 46.491 26.655 46.491H28.55C29.431 46.491 29.925 45.971 29.925 45.193C29.925 44.428 29.431 43.91 28.55 43.91ZM28.47 40.045H26.655C26.602 40.045 26.575 40.072 26.575 40.126V42.408C26.575 42.462 26.602 42.489 26.655 42.489H28.471C29.271 42.489 29.766 41.998 29.766 41.274C29.766 40.537 29.271 40.044 28.471 40.044L28.47 40.045Z" fill="#25258E"/>
<path fill-rule="evenodd" clip-rule="evenodd" d="M21.7075 49.29C21.6147 49.1977 21.5047 49.1245 21.3837 49.0748C21.2626 49.025 21.133 48.9996 21.0022 49C20.8713 49.0004 20.7418 49.0265 20.6211 49.077C20.5003 49.1274 20.3907 49.2011 20.2985 49.2939L20.2915 49.3019C20.198 49.3944 20.1238 49.5045 20.0731 49.6259C20.0224 49.7472 19.9962 49.8774 19.9961 50.0089C19.996 50.1404 20.0219 50.2706 20.0723 50.392C20.1228 50.5135 20.1968 50.6237 20.2901 50.7164C20.3834 50.8091 20.4941 50.8824 20.6158 50.9321C20.7376 50.9817 20.868 51.0068 20.9995 51.0058C21.1309 51.0049 21.2609 50.9779 21.382 50.9264C21.503 50.8749 21.6126 50.8 21.7045 50.706L21.7115 50.698C21.8038 50.6052 21.8769 50.4952 21.9266 50.3741C21.9764 50.2531 22.0018 50.1235 22.0014 49.9926C22.0011 49.8618 21.9749 49.7323 21.9245 49.6115C21.874 49.4908 21.8003 49.3822 21.7075 49.29Z" fill="#25258E"/>
</svg>
