<svg width="72" height="72" viewBox="0 0 72 72" fill="none" xmlns="http://www.w3.org/2000/svg">
<g clip-path="url(#clip0_231_333)">
<path fill-rule="evenodd" clip-rule="evenodd" d="M72 36C72 55.882 55.882 72 36 72C16.118 72 0 55.882 0 36C0 16.118 16.118 0 36 0C55.882 0 72 16.118 72 36Z" fill="#F4F4F9"/>
<path opacity="0.3" d="M36.0019 56.4569C47.2989 56.4569 56.4569 47.2989 56.4569 36.0019C56.4569 24.7049 47.2989 15.5469 36.0019 15.5469C24.7049 15.5469 15.5469 24.7049 15.5469 36.0019C15.5469 47.2989 24.7049 56.4569 36.0019 56.4569Z" fill="#9F9FCD"/>
<path d="M24 34H26V47H24C22.9391 47 21.9217 46.5786 21.1716 45.8284C20.4214 45.0783 20 44.0609 20 43V38C20 36.9391 20.4214 35.9217 21.1716 35.1716C21.9217 34.4214 22.9391 34 24 34ZM48 34H46V47H48C49.0609 47 50.0783 46.5786 50.8284 45.8284C51.5786 45.0783 52 44.0609 52 43V38C52 36.9391 51.5786 35.9217 50.8284 35.1716C50.0783 34.4214 49.0609 34 48 34Z" fill="white"/>
<path d="M39.3114 51.9425C39.1281 52.7038 38.6719 53.3716 38.0294 53.8193C37.3869 54.267 36.6025 54.4636 35.8248 54.3719C35.047 54.2803 34.3299 53.9067 33.809 53.3219C33.2882 52.7371 32.9998 51.9816 32.9984 51.1985C32.9977 50.4163 33.2834 49.661 33.8016 49.0751C34.3199 48.4893 35.0347 48.1135 35.8111 48.0189C36.5875 47.9242 37.3717 48.1172 38.0156 48.5613C38.6594 49.0055 39.1182 49.6701 39.3054 50.4295H42.7484C43.2936 50.429 43.8162 50.2122 44.2017 49.8267C44.5871 49.4413 44.8039 48.9186 44.8044 48.3735V33.6785C44.8044 33.2605 45.1434 32.9215 45.5614 32.9215H48.3734C49.6924 32.9231 50.9569 33.4477 51.8895 34.3804C52.8222 35.313 53.3468 36.5775 53.3484 37.8965V42.6785C53.3468 43.9975 52.8222 45.2619 51.8895 46.1946C50.9569 47.1272 49.6924 47.6519 48.3734 47.6535H46.3174V48.3735C46.3161 49.3196 45.9397 50.2267 45.2706 50.8957C44.6016 51.5647 43.6946 51.9412 42.7484 51.9425H39.3114ZM26.4364 32.9225C26.8534 32.9225 27.1924 33.2605 27.1924 33.6785V46.8965C27.1926 46.9959 27.1731 47.0943 27.1352 47.1861C27.0972 47.2779 27.0416 47.3614 26.9714 47.4317C26.9012 47.502 26.8178 47.5578 26.726 47.5959C26.6342 47.6339 26.5358 47.6535 26.4364 47.6535H23.6234C22.3045 47.6519 21.04 47.1272 20.1073 46.1946C19.1747 45.2619 18.65 43.9975 18.6484 42.6785V37.8965C18.6484 36.1045 19.6104 34.4765 21.1384 33.5895L21.4584 33.4045L21.4624 33.0345C21.4908 29.2295 23.0203 25.5896 25.7184 22.9065C27.0651 21.5521 28.6672 20.4783 30.4318 19.7474C32.1964 19.0165 34.0885 18.643 35.9984 18.6485C39.0284 18.6485 41.9314 19.5715 44.3954 21.3175C46.7932 23.0096 48.621 25.3894 49.6374 28.1425C49.7071 28.3307 49.6991 28.5388 49.6152 28.7211C49.5314 28.9034 49.3786 29.0449 49.1904 29.1145C49.0023 29.1841 48.7941 29.1761 48.6119 29.0923C48.4296 29.0085 48.2881 28.8557 48.2184 28.6675C46.3354 23.5775 41.4264 20.1605 35.9984 20.1605C29.1744 20.1605 23.5054 25.4535 23.0084 32.2245L22.9584 32.9215H26.4354L26.4364 32.9225ZM23.6234 46.1405H25.6794V34.4345H23.6234C22.7056 34.4356 21.8256 34.8006 21.1766 35.4497C20.5276 36.0987 20.1625 36.9786 20.1614 37.8965V42.6785C20.1625 43.5964 20.5276 44.4763 21.1766 45.1253C21.8256 45.7744 22.7056 46.1394 23.6234 46.1405ZM51.8364 42.6785V37.8965C51.8354 36.9785 51.4702 36.0984 50.8209 35.4493C50.1717 34.8003 49.2915 34.4353 48.3734 34.4345H46.3174V46.1405H48.3734C49.2915 46.1397 50.1717 45.7747 50.8209 45.1257C51.4702 44.4766 51.8354 43.5965 51.8364 42.6785ZM36.1984 52.9985C36.6758 52.9985 37.1337 52.8089 37.4712 52.4713C37.8088 52.1337 37.9984 51.6759 37.9984 51.1985C37.9984 50.7211 37.8088 50.2633 37.4712 49.9257C37.1337 49.5881 36.6758 49.3985 36.1984 49.3985C35.721 49.3985 35.2632 49.5881 34.9256 49.9257C34.5881 50.2633 34.3984 50.7211 34.3984 51.1985C34.3984 51.6759 34.5881 52.1337 34.9256 52.4713C35.2632 52.8089 35.721 52.9985 36.1984 52.9985Z" fill="#25258E"/>
</g>
<defs>
<clipPath id="clip0_231_333">
<rect width="72" height="72" fill="white"/>
</clipPath>
</defs>
</svg>
