<svg width="72" height="72" viewBox="0 0 72 72" fill="none" xmlns="http://www.w3.org/2000/svg">
<g clip-path="url(#clip0_231_331)">
<path fill-rule="evenodd" clip-rule="evenodd" d="M72 36C72 55.882 55.882 72 36 72C16.118 72 0 55.882 0 36C0 16.118 16.118 0 36 0C55.882 0 72 16.118 72 36Z" fill="#F4F4F9"/>
<path opacity="0.3" d="M36 55C46.4934 55 55 46.4934 55 36C55 25.5066 46.4934 17 36 17C25.5066 17 17 25.5066 17 36C17 46.4934 25.5066 55 36 55Z" fill="#9F9FCD"/>
<path fill-rule="evenodd" clip-rule="evenodd" d="M19 19H49V38H19V19Z" fill="white"/>
<path d="M36 43H32.5V46H36V43ZM37.5 43V46H39.25C39.4489 46 39.6397 46.079 39.7803 46.2197C39.921 46.3603 40 46.5511 40 46.75C40 46.9489 39.921 47.1397 39.7803 47.2803C39.6397 47.421 39.4489 47.5 39.25 47.5H26.75C26.5511 47.5 26.3603 47.421 26.2197 47.2803C26.079 47.1397 26 46.9489 26 46.75C26 46.5511 26.079 46.3603 26.2197 46.2197C26.3603 46.079 26.5511 46 26.75 46H31V43H20C19.4696 43 18.9609 42.7893 18.5858 42.4142C18.2107 42.0391 18 41.5304 18 41V20C18 19.4696 18.2107 18.9609 18.5858 18.5858C18.9609 18.2107 19.4696 18 20 18H48C48.5304 18 49.0391 18.2107 49.4142 18.5858C49.7893 18.9609 50 19.4696 50 20V41C50 41.5304 49.7893 42.0391 49.4142 42.4142C49.0391 42.7893 48.5304 43 48 43H37.5ZM19.5 37H40V38.5H19.5V41C19.5 41.1326 19.5527 41.2598 19.6464 41.3536C19.7402 41.4473 19.8674 41.5 20 41.5H48C48.1326 41.5 48.2598 41.4473 48.3536 41.3536C48.4473 41.2598 48.5 41.1326 48.5 41V20C48.5 19.8674 48.4473 19.7402 48.3536 19.6464C48.2598 19.5527 48.1326 19.5 48 19.5H20C19.8674 19.5 19.7402 19.5527 19.6464 19.6464C19.5527 19.7402 19.5 19.8674 19.5 20V37Z" fill="#25258E"/>
<path fill-rule="evenodd" clip-rule="evenodd" d="M40 35H53V49H40V35Z" fill="white"/>
<path fill-rule="evenodd" clip-rule="evenodd" d="M43 31H50C50.7956 31 51.5587 31.3161 52.1213 31.8787C52.6839 32.4413 53 33.2044 53 34V36H40V34C40 33.2044 40.3161 32.4413 40.8787 31.8787C41.4413 31.3161 42.2044 31 43 31ZM43 54H50C50.7956 54 51.5587 53.6839 52.1213 53.1213C52.6839 52.5587 53 51.7956 53 51V49H40V51C40 51.7956 40.3161 52.5587 40.8787 53.1213C41.4413 53.6839 42.2044 54 43 54Z" fill="#DADAEB"/>
<path d="M40.5 48H52.5V36.5H40.5V48ZM40.5 49.5V51C40.5 51.3978 40.658 51.7794 40.9393 52.0607C41.2206 52.342 41.6022 52.5 42 52.5H51C51.3978 52.5 51.7794 52.342 52.0607 52.0607C52.342 51.7794 52.5 51.3978 52.5 51V49.5H40.5ZM40.5 35H52.5V34C52.5 33.6022 52.342 33.2206 52.0607 32.9393C51.7794 32.658 51.3978 32.5 51 32.5H42C41.6022 32.5 41.2206 32.658 40.9393 32.9393C40.658 33.2206 40.5 33.6022 40.5 34V35ZM42 31H51C51.7956 31 52.5587 31.3161 53.1213 31.8787C53.6839 32.4413 54 33.2044 54 34V51C54 51.7956 53.6839 52.5587 53.1213 53.1213C52.5587 53.6839 51.7956 54 51 54H42C41.2044 54 40.4413 53.6839 39.8787 53.1213C39.3161 52.5587 39 51.7956 39 51V34C39 33.2044 39.3161 32.4413 39.8787 31.8787C40.4413 31.3161 41.2044 31 42 31Z" fill="#25258E"/>
</g>
<defs>
<clipPath id="clip0_231_331">
<rect width="72" height="72" fill="white"/>
</clipPath>
</defs>
</svg>
