<svg width="72" height="72" viewBox="0 0 72 72" fill="none" xmlns="http://www.w3.org/2000/svg">
<path fill-rule="evenodd" clip-rule="evenodd" d="M72 36C72 55.882 55.882 72 36 72C16.118 72 0 55.882 0 36C0 16.118 16.118 0 36 0C55.882 0 72 16.118 72 36Z" fill="#F4F4F9"/>
<path opacity="0.3" d="M36 56C47.0457 56 56 47.0457 56 36C56 24.9543 47.0457 16 36 16C24.9543 16 16 24.9543 16 36C16 47.0457 24.9543 56 36 56Z" fill="#9F9FCD"/>
<path d="M42.5 42C49.9558 42 56 35.9558 56 28.5C56 21.0442 49.9558 15 42.5 15C35.0442 15 29 21.0442 29 28.5C29 35.9558 35.0442 42 42.5 42Z" fill="white"/>
<path d="M27.5 57C34.9558 57 41 50.9558 41 43.5C41 36.0442 34.9558 30 27.5 30C20.0442 30 14 36.0442 14 43.5C14 50.9558 20.0442 57 27.5 57Z" fill="white"/>
<path fill-rule="evenodd" clip-rule="evenodd" d="M42.5039 14.875C34.7839 14.875 28.5039 21.155 28.5039 28.875C28.5039 29.0987 28.5928 29.3133 28.751 29.4714C28.9091 29.6296 29.1237 29.7185 29.3474 29.7185C29.5711 29.7185 29.7857 29.6296 29.9438 29.4714C30.102 29.3133 30.1909 29.0987 30.1909 28.875C30.1909 22.085 35.7139 16.561 42.5039 16.561C49.2939 16.561 54.8169 22.085 54.8169 28.875C54.8169 35.665 49.2929 41.188 42.5039 41.188C42.2802 41.188 42.0656 41.2769 41.9075 41.4351C41.7493 41.5932 41.6604 41.8078 41.6604 42.0315C41.6604 42.2552 41.7493 42.4698 41.9075 42.6279C42.0656 42.7861 42.2802 42.875 42.5039 42.875C50.2239 42.875 56.5039 36.595 56.5039 28.875C56.5039 21.155 50.2239 14.875 42.5039 14.875Z" fill="#25258E"/>
<path d="M49.912 21.092C48.9336 20.1086 47.7699 19.329 46.4882 18.7982C45.2065 18.2675 43.8322 17.9962 42.445 18C39.625 18 36.973 19.098 34.978 21.093C33.7681 22.297 32.8695 23.7775 32.3599 25.4065C31.8503 27.0356 31.745 28.7642 32.053 30.443C30.6343 29.9583 29.1452 29.7116 27.646 29.713C20.12 29.712 14 35.832 14 43.355C14 50.88 20.121 57 27.646 57C35.17 57 41.291 50.88 41.291 43.356C41.291 41.814 41.034 40.331 40.56 38.948C42.239 39.2523 43.9667 39.1453 45.5953 38.6362C47.224 38.1272 48.7051 37.2313 49.912 36.025C54.029 31.908 54.029 25.209 49.912 21.092ZM27.646 31.356C34.263 31.356 39.647 36.739 39.647 43.356C39.647 49.973 34.263 55.356 27.646 55.356C21.028 55.356 15.644 49.973 15.644 43.356C15.644 36.739 21.028 31.356 27.646 31.356ZM42.279 19.95C44.623 19.95 46.827 20.863 48.484 22.52C51.905 25.942 51.905 31.509 48.484 34.93C47.3754 36.0372 45.9911 36.8278 44.4742 37.2201C42.9574 37.6123 41.3633 37.5919 39.857 37.161C39.788 37.1417 39.7167 37.1316 39.645 37.131C38.3686 34.6727 36.3681 32.6655 33.914 31.381C33.4243 29.8484 33.3669 28.2104 33.748 26.6473C34.1291 25.0841 34.9339 23.6563 36.074 22.521C36.8869 21.7035 37.8539 21.0553 38.919 20.614C39.9841 20.1727 41.1261 19.947 42.279 19.95Z" fill="#25258E"/>
<path fill-rule="evenodd" clip-rule="evenodd" d="M43.9568 31.415C43.5391 31.6408 43.0716 31.7587 42.5968 31.758C41.4618 31.758 40.4708 31.092 39.9468 30.107H42.0548C42.4348 30.107 42.7448 29.829 42.7448 29.486C42.7448 29.143 42.4348 28.865 42.0548 28.865H39.5678C39.547 28.664 39.5437 28.4616 39.5578 28.26H42.7678C43.1488 28.26 43.4578 27.982 43.4578 27.639C43.4578 27.296 43.1488 27.018 42.7678 27.018H39.8828C40.3888 25.965 41.4148 25.242 42.5968 25.242C43.0728 25.242 43.5308 25.357 43.9568 25.585C44.2838 25.761 44.7068 25.665 44.9018 25.37C45.0968 25.075 44.9888 24.694 44.6618 24.518C44.0264 24.1784 43.3172 24.0005 42.5968 24C40.6668 24 39.0208 25.263 38.4168 27.018H37.6888C37.3078 27.018 36.9988 27.296 36.9988 27.638C36.9988 27.982 37.3078 28.26 37.6888 28.26H38.1748C38.1649 28.4617 38.1683 28.6638 38.1848 28.865H37.6888C37.3078 28.865 36.9988 29.143 36.9988 29.485C36.9988 29.829 37.3078 30.107 37.6888 30.107H38.4618C39.0988 31.797 40.7118 33 42.5968 33C43.3148 33 44.0288 32.82 44.6618 32.481C44.9888 32.306 45.0968 31.925 44.9018 31.631C44.7068 31.336 44.2838 31.239 43.9568 31.415ZM34.9228 36.076C33.9502 35.0979 32.7932 34.3224 31.5189 33.7945C30.2446 33.2665 28.8782 32.9964 27.4988 33C26.1193 32.9963 24.7527 33.2663 23.4782 33.7943C22.2037 34.3223 21.0466 35.0978 20.0738 36.076C18.4542 37.6858 17.4088 39.7836 17.0988 42.046C16.7944 44.2585 17.1976 46.5106 18.2508 48.48C18.3537 48.671 18.5283 48.8132 18.736 48.8755C18.8389 48.9063 18.9469 48.9166 19.0537 48.9057C19.1606 48.8948 19.2643 48.863 19.3588 48.812C19.4534 48.761 19.537 48.692 19.6048 48.6087C19.6727 48.5255 19.7235 48.4296 19.7543 48.3268C19.7851 48.2239 19.7954 48.1159 19.7845 48.0091C19.7736 47.9022 19.7418 47.7986 19.6908 47.704C17.8488 44.286 18.4808 39.98 21.2308 37.232C22.052 36.4062 23.0288 35.7515 24.1047 35.3058C25.1806 34.86 26.3342 34.632 27.4988 34.635C29.8668 34.635 32.0938 35.557 33.7688 37.232C34.5945 38.0534 35.2491 39.0304 35.6947 40.1065C36.1403 41.1826 36.3681 42.3363 36.3648 43.501C36.3679 44.6657 36.14 45.8196 35.6942 46.8956C35.2485 47.9717 34.5937 48.9487 33.7678 49.77C31.0198 52.518 26.7138 53.152 23.2958 51.31C23.105 51.2071 22.8811 51.1842 22.6734 51.2464C22.4657 51.3085 22.2912 51.4507 22.1883 51.6415C22.0854 51.8323 22.0625 52.0562 22.1247 52.2639C22.1869 52.4716 22.329 52.6461 22.5198 52.749C24.489 53.8029 26.7413 54.2062 28.9538 53.901C31.2162 53.591 33.314 52.5456 34.9238 50.926C35.9018 49.9532 36.6772 48.796 37.205 47.5215C37.7328 46.247 38.0026 44.8805 37.9988 43.501C37.9988 40.696 36.9058 38.059 34.9228 36.076Z" fill="#25258E"/>
<path fill-rule="evenodd" clip-rule="evenodd" d="M21.7075 50.29C21.6147 50.1977 21.5047 50.1245 21.3837 50.0748C21.2626 50.025 21.133 49.9996 21.0022 50C20.8713 50.0004 20.7418 50.0265 20.6211 50.077C20.5003 50.1274 20.3907 50.2011 20.2985 50.2939L20.2915 50.3019C20.198 50.3944 20.1238 50.5045 20.0731 50.6259C20.0224 50.7472 19.9962 50.8774 19.9961 51.0089C19.996 51.1404 20.0219 51.2706 20.0723 51.392C20.1228 51.5135 20.1968 51.6237 20.2901 51.7164C20.3834 51.8091 20.4941 51.8824 20.6158 51.9321C20.7376 51.9817 20.868 52.0068 20.9995 52.0058C21.1309 52.0049 21.2609 51.9779 21.382 51.9264C21.503 51.8749 21.6126 51.8 21.7045 51.706L21.7115 51.698C21.8038 51.6052 21.8769 51.4952 21.9266 51.3741C21.9764 51.2531 22.0018 51.1235 22.0014 50.9926C22.0011 50.8618 21.9749 50.7323 21.9245 50.6115C21.874 50.4908 21.8003 50.3822 21.7075 50.29Z" fill="#25258E"/>
<path d="M27.652 42.91V40.17C28.264 40.38 28.696 40.877 28.696 41.455C28.696 41.795 28.988 42.069 29.348 42.069C29.708 42.069 30 41.794 30 41.455C30 40.205 28.994 39.159 27.652 38.898V38.614C27.652 38.274 27.36 38 27 38C26.64 38 26.348 38.275 26.348 38.614V38.898C25.006 39.158 24 40.206 24 41.455C24 42.705 25.006 43.752 26.348 44.013V46.753C25.736 46.543 25.304 46.046 25.304 45.468C25.304 45.128 25.012 44.854 24.652 44.854C24.292 44.854 24 45.129 24 45.468C24 46.718 25.006 47.765 26.348 48.025V48.385C26.348 48.725 26.64 49 27 49C27.36 49 27.652 48.725 27.652 48.386V48.026C28.994 47.764 30 46.716 30 45.467C30 44.217 28.994 43.17 27.652 42.91ZM26.348 42.74C25.736 42.53 25.304 42.033 25.304 41.455C25.304 40.877 25.736 40.38 26.348 40.17V42.74ZM27.652 46.753V44.183C28.264 44.393 28.696 44.89 28.696 45.468C28.696 46.046 28.264 46.543 27.652 46.753Z" fill="#25258E"/>
</svg>
