<svg width="24" height="24" viewBox="0 0 24 24" fill="none" xmlns="http://www.w3.org/2000/svg">
<g clip-path="url(#clip0_227_230)">
<mask id="mask0_227_230" style="mask-type:luminance" maskUnits="userSpaceOnUse" x="0" y="0" width="24" height="24">
<path d="M24 0H0V24H24V0Z" fill="white"/>
</mask>
<g mask="url(#mask0_227_230)">
<path d="M11.719 2H3.28C2.41 2.00027 1.57572 2.34606 0.960629 2.96134C0.345538 3.57661 -4.0409e-08 4.411 0 5.281V13.719C0 14.5892 0.345676 15.4237 0.960983 16.039C1.57629 16.6543 2.41082 17 3.281 17H11.719C12.5892 17 13.4237 16.6543 14.039 16.039C14.6543 15.4237 15 14.5892 15 13.719V5.28C14.9997 4.41 14.6539 3.57572 14.0387 2.96063C13.4234 2.34554 12.589 2 11.719 2Z" fill="#0A48B6"/>
<path fill-rule="evenodd" clip-rule="evenodd" d="M7.7387 5.30104L7.6127 4.92604C7.60906 4.91569 7.6023 4.90672 7.59334 4.90037C7.58438 4.89403 7.57368 4.89062 7.5627 4.89062C7.55173 4.89062 7.54102 4.89403 7.53207 4.90037C7.52311 4.90672 7.51634 4.91569 7.5127 4.92604L7.3867 5.30104L6.9917 5.30504C6.98049 5.30504 6.96957 5.30859 6.9605 5.31519C6.95144 5.32178 6.9447 5.33109 6.94125 5.34175C6.93781 5.35242 6.93783 5.36391 6.94133 5.37456C6.94482 5.38522 6.95161 5.39449 6.9607 5.40104L7.2787 5.63604L7.1587 6.01304C7.1437 6.06104 7.1987 6.10204 7.2407 6.07204L7.5627 5.84204L7.8847 6.07204C7.9257 6.10204 7.9817 6.06204 7.9657 6.01204L7.8467 5.63604L8.1647 5.40104C8.1738 5.39449 8.18058 5.38522 8.18408 5.37456C8.18757 5.36391 8.1876 5.35242 8.18415 5.34175C8.18071 5.33109 8.17397 5.32178 8.1649 5.31519C8.15584 5.30859 8.14491 5.30504 8.1337 5.30504L7.7387 5.30104ZM7.7387 13.355L7.6127 12.98C7.60906 12.9696 7.6023 12.9607 7.59334 12.9543C7.58438 12.948 7.57368 12.9446 7.5627 12.9446C7.55173 12.9446 7.54102 12.948 7.53207 12.9543C7.52311 12.9607 7.51634 12.9696 7.5127 12.98L7.3867 13.355L6.9917 13.358C6.98049 13.358 6.96957 13.3616 6.9605 13.3681C6.95144 13.3747 6.9447 13.384 6.94125 13.3947C6.93781 13.4054 6.93783 13.4169 6.94133 13.4275C6.94482 13.4382 6.95161 13.4474 6.9607 13.454L7.2787 13.689L7.1587 14.066C7.1437 14.115 7.1987 14.156 7.2407 14.126L7.5627 13.896L7.8847 14.126C7.9257 14.156 7.9817 14.115 7.9657 14.066L7.8467 13.689L8.1647 13.454C8.1738 13.4474 8.18058 13.4382 8.18408 13.4275C8.18757 13.4169 8.1876 13.4054 8.18415 13.3947C8.18071 13.384 8.17397 13.3747 8.1649 13.3681C8.15584 13.3616 8.14491 13.358 8.1337 13.358L7.7387 13.355ZM11.6387 8.95304L11.7647 9.32804L12.1597 9.33105C12.2117 9.33105 12.2327 9.39705 12.1917 9.42805L11.8727 9.66204L11.9927 10.039C11.9965 10.0498 11.9968 10.0615 11.9934 10.0724C11.9901 10.0833 11.9833 10.0928 11.9741 10.0996C11.9648 10.1063 11.9537 10.1099 11.9423 10.1098C11.9309 10.1097 11.9198 10.1059 11.9107 10.099L11.5887 9.86905L11.2677 10.099C11.2586 10.1059 11.2475 10.1097 11.2361 10.1098C11.2247 10.1099 11.2135 10.1063 11.2043 10.0996C11.1951 10.0928 11.1883 10.0833 11.1849 10.0724C11.1816 10.0615 11.1818 10.0498 11.1857 10.039L11.3057 9.66204L10.9867 9.42805C10.9771 9.42165 10.9699 9.41232 10.9662 9.40147C10.9624 9.39062 10.9622 9.37884 10.9657 9.3679C10.9692 9.35695 10.9762 9.34744 10.9855 9.34079C10.9949 9.33415 11.0062 9.33073 11.0177 9.33105L11.4137 9.32804L11.5387 8.95304C11.5423 8.94269 11.5491 8.93372 11.558 8.92737C11.567 8.92103 11.5777 8.91762 11.5887 8.91762C11.5997 8.91762 11.6104 8.92103 11.6193 8.92737C11.6283 8.93372 11.635 8.94269 11.6387 8.95304ZM3.7117 9.32804L3.5867 8.95304C3.58329 8.94233 3.57656 8.93298 3.56748 8.92634C3.5584 8.9197 3.54745 8.91613 3.5362 8.91613C3.52496 8.91613 3.514 8.9197 3.50493 8.92634C3.49585 8.93298 3.48912 8.94233 3.4857 8.95304L3.3607 9.32804L2.9657 9.33105C2.95413 9.33049 2.94269 9.33374 2.93314 9.3403C2.92359 9.34686 2.91646 9.35637 2.91283 9.36738C2.9092 9.37838 2.90927 9.39027 2.91304 9.40123C2.91681 9.41218 2.92407 9.42161 2.9337 9.42805L3.2517 9.66204L3.1327 10.039C3.1177 10.089 3.1727 10.129 3.2147 10.099L3.5367 9.86905L3.8577 10.099C3.8997 10.129 3.9547 10.089 3.9397 10.039L3.8197 9.66204L4.1387 9.42805C4.14825 9.42165 4.15545 9.41232 4.15923 9.40147C4.16302 9.39062 4.16317 9.37884 4.15967 9.3679C4.15617 9.35695 4.14921 9.34744 4.13984 9.34079C4.13047 9.33415 4.11919 9.33073 4.1077 9.33105L3.7117 9.32804ZM4.1917 6.85004L4.3177 7.22504L4.7127 7.22804C4.7637 7.22804 4.7847 7.29404 4.7437 7.32404L4.4257 7.55904L4.5457 7.93604C4.54954 7.9468 4.5498 7.95851 4.54645 7.96942C4.54309 7.98034 4.5363 7.98988 4.52708 7.99663C4.51787 8.00337 4.50672 8.00697 4.4953 8.00686C4.48387 8.00676 4.47279 8.00295 4.4637 7.99604L4.1417 7.76604L3.8197 7.99604C3.81059 8.00253 3.79965 8.00597 3.78846 8.00587C3.77727 8.00576 3.7664 8.00212 3.75741 7.99546C3.74842 7.9888 3.74177 7.97946 3.73841 7.96879C3.73505 7.95811 3.73515 7.94665 3.7387 7.93604L3.8577 7.55904L3.5397 7.32404C3.53061 7.31749 3.52382 7.30822 3.52033 7.29756C3.51683 7.28691 3.51681 7.27542 3.52025 7.26475C3.5237 7.25409 3.53044 7.24478 3.5395 7.23819C3.54857 7.23159 3.55949 7.22804 3.5707 7.22804L3.9657 7.22504L4.0907 6.85004C4.09384 6.83893 4.10052 6.82917 4.10973 6.8222C4.11893 6.81524 4.13016 6.81146 4.1417 6.81146C4.15324 6.81146 4.16447 6.81524 4.17368 6.8222C4.18288 6.82917 4.18956 6.83893 4.1927 6.85004H4.1917ZM11.2917 11.252L11.1657 10.877C11.162 10.8666 11.1553 10.8577 11.1463 10.8513C11.1374 10.845 11.1267 10.8416 11.1157 10.8416C11.1047 10.8416 11.094 10.845 11.085 10.8513C11.0761 10.8577 11.0693 10.8666 11.0657 10.877L10.9397 11.252L10.5447 11.255C10.5334 11.2548 10.5223 11.2582 10.5131 11.2647C10.5039 11.2712 10.4969 11.2805 10.4934 11.2912C10.4898 11.302 10.4897 11.3135 10.4932 11.3243C10.4967 11.335 10.5035 11.3444 10.5127 11.351L10.8317 11.586L10.7117 11.963C10.6967 12.012 10.7517 12.053 10.7937 12.023L11.1157 11.793L11.4367 12.023C11.4787 12.053 11.5347 12.012 11.5187 11.963L11.3987 11.586L11.7177 11.351C11.7268 11.3444 11.7336 11.3352 11.7371 11.3245C11.7406 11.3139 11.7406 11.3024 11.7371 11.2917C11.7337 11.281 11.7269 11.2717 11.7179 11.2651C11.7088 11.2585 11.6979 11.255 11.6867 11.255L11.2907 11.252H11.2917ZM9.6917 5.37604L9.8167 5.75104L10.2117 5.75405C10.2627 5.75405 10.2847 5.82004 10.2427 5.85104L9.9247 6.08504L10.0447 6.46204C10.0485 6.4728 10.0488 6.48451 10.0454 6.49542C10.0421 6.50634 10.0353 6.51588 10.0261 6.52263C10.0168 6.52937 10.0057 6.53297 9.9943 6.53286C9.98288 6.53276 9.97179 6.52895 9.9627 6.52204L9.6407 6.29204L9.3187 6.52204C9.30959 6.52853 9.29865 6.53197 9.28746 6.53187C9.27627 6.53176 9.26541 6.52812 9.25641 6.52146C9.24742 6.5148 9.24077 6.50546 9.23741 6.49479C9.23405 6.48411 9.23415 6.47265 9.2377 6.46204L9.3567 6.08504L9.0387 5.85104C9.02916 5.84464 9.02195 5.83532 9.01817 5.82447C9.01439 5.81362 9.01424 5.80183 9.01773 5.79089C9.02123 5.77994 9.02819 5.77043 9.03757 5.76378C9.04694 5.75714 9.05822 5.75373 9.0697 5.75405L9.4647 5.75104L9.5907 5.37604C9.59434 5.36569 9.60111 5.35672 9.61007 5.35037C9.61902 5.34403 9.62973 5.34062 9.6407 5.34062C9.65168 5.34062 9.66238 5.34403 9.67134 5.35037C9.6803 5.35672 9.68806 5.36569 9.6917 5.37604ZM5.7897 12.726L5.6647 12.351C5.66106 12.3406 5.6543 12.3317 5.64534 12.3253C5.63638 12.319 5.62568 12.3156 5.6147 12.3156C5.60373 12.3156 5.59302 12.319 5.58407 12.3253C5.57511 12.3317 5.56834 12.3406 5.5647 12.351L5.4387 12.726L5.0437 12.729C5.0324 12.7288 5.02133 12.7322 5.0121 12.7387C5.00287 12.7452 4.99597 12.7545 4.99239 12.7652C4.98882 12.776 4.98877 12.7875 4.99224 12.7983C4.99571 12.809 5.00253 12.8184 5.0117 12.825L5.3307 13.06L5.2107 13.437C5.1957 13.486 5.2507 13.527 5.2927 13.497L5.6147 13.267L5.9357 13.497C5.9777 13.527 6.0337 13.486 6.0177 13.437L5.8977 13.06L6.2167 12.825C6.2258 12.8184 6.23258 12.8092 6.23608 12.7985C6.23957 12.7879 6.2396 12.7764 6.23615 12.7657C6.23271 12.755 6.22597 12.7457 6.2169 12.7391C6.20784 12.7325 6.19691 12.729 6.1857 12.729L5.7897 12.726ZM11.0647 6.85004L10.9397 7.22504L10.5447 7.22804C10.5334 7.22782 10.5223 7.23122 10.5131 7.23774C10.5039 7.24425 10.4969 7.25355 10.4934 7.26427C10.4898 7.27499 10.4897 7.28657 10.4932 7.29732C10.4967 7.30808 10.5035 7.31744 10.5127 7.32404L10.8317 7.55904L10.7117 7.93604C10.6967 7.98604 10.7517 8.02604 10.7937 7.99604L11.1157 7.76604L11.4367 7.99604C11.4787 8.02604 11.5347 7.98604 11.5187 7.93604L11.3987 7.55904L11.7177 7.32404C11.7268 7.31749 11.7336 7.30822 11.7371 7.29756C11.7406 7.28691 11.7406 7.27542 11.7371 7.26475C11.7337 7.25409 11.7269 7.24478 11.7179 7.23819C11.7088 7.23159 11.6979 7.22804 11.6867 7.22804L11.2907 7.22504L11.1657 6.85004C11.162 6.83969 11.1553 6.83072 11.1463 6.82437C11.1374 6.81803 11.1267 6.81462 11.1157 6.81462C11.1047 6.81462 11.094 6.81803 11.085 6.82437C11.0761 6.83072 11.0693 6.83969 11.0657 6.85004H11.0647ZM3.9657 11.252L4.0907 10.877C4.09384 10.8659 4.10052 10.8561 4.10973 10.8492C4.11893 10.8422 4.13016 10.8384 4.1417 10.8384C4.15324 10.8384 4.16447 10.8422 4.17368 10.8492C4.18288 10.8561 4.18956 10.8659 4.1927 10.877L4.3177 11.252L4.7127 11.255C4.7637 11.255 4.7857 11.321 4.7437 11.351L4.4257 11.586L4.5457 11.963C4.54954 11.9738 4.5498 11.9855 4.54645 11.9964C4.54309 12.0073 4.5363 12.0168 4.52708 12.0236C4.51787 12.0303 4.50672 12.0339 4.4953 12.0338C4.48387 12.0337 4.47279 12.0299 4.4637 12.023L4.1417 11.793L3.8197 12.023C3.81059 12.0295 3.79965 12.0329 3.78846 12.0328C3.77727 12.0327 3.7664 12.0291 3.75741 12.0224C3.74842 12.0158 3.74177 12.0064 3.73841 11.9957C3.73505 11.9851 3.73515 11.9736 3.7387 11.963L3.8577 11.586L3.5397 11.351C3.53061 11.3444 3.52382 11.3352 3.52033 11.3245C3.51683 11.3139 3.51681 11.3024 3.52025 11.2917C3.5237 11.281 3.53044 11.2717 3.5395 11.2651C3.54857 11.2585 3.55949 11.255 3.5707 11.255L3.9657 11.252ZM5.5637 5.37604L5.4387 5.75104L5.0437 5.75405C5.03213 5.75349 5.02069 5.75674 5.01114 5.7633C5.00159 5.76986 4.99446 5.77937 4.99083 5.79038C4.9872 5.80138 4.98727 5.81327 4.99104 5.82423C4.99481 5.83518 5.00207 5.8446 5.0117 5.85104L5.3307 6.08504L5.2107 6.46204C5.1957 6.51204 5.2507 6.55204 5.2927 6.52204L5.6147 6.29204L5.9357 6.52204C5.9777 6.55204 6.0337 6.51204 6.0177 6.46204L5.8977 6.08504L6.2167 5.85104C6.22625 5.84464 6.23345 5.83532 6.23723 5.82447C6.24102 5.81362 6.24117 5.80183 6.23767 5.79089C6.23417 5.77994 6.22721 5.77043 6.21784 5.76378C6.20847 5.75714 6.19719 5.75373 6.1857 5.75405L5.7897 5.75104L5.6647 5.37604C5.66106 5.36569 5.6543 5.35672 5.64534 5.35037C5.63638 5.34403 5.62568 5.34062 5.6147 5.34062C5.60373 5.34062 5.59302 5.34403 5.58407 5.35037C5.57511 5.35672 5.56734 5.36569 5.5637 5.37604ZM9.4647 12.726L9.5907 12.351C9.59434 12.3406 9.60111 12.3317 9.61007 12.3253C9.61902 12.319 9.62973 12.3156 9.6407 12.3156C9.65168 12.3156 9.66238 12.319 9.67134 12.3253C9.6803 12.3317 9.68706 12.3406 9.6907 12.351L9.8167 12.726L10.2117 12.729C10.2627 12.729 10.2847 12.795 10.2427 12.825L9.9247 13.06L10.0447 13.437C10.0485 13.4478 10.0488 13.4595 10.0454 13.4704C10.0421 13.4813 10.0353 13.4908 10.0261 13.4976C10.0168 13.5043 10.0057 13.5079 9.9943 13.5078C9.98288 13.5077 9.97179 13.5039 9.9627 13.497L9.6407 13.267L9.3187 13.497C9.30959 13.5035 9.29865 13.5069 9.28746 13.5068C9.27627 13.5067 9.26541 13.5031 9.25641 13.4964C9.24742 13.4898 9.24077 13.4804 9.23741 13.4697C9.23405 13.4591 9.23415 13.4476 9.2377 13.437L9.3567 13.06L9.0387 12.825C9.02961 12.8184 9.02282 12.8092 9.01933 12.7985C9.01583 12.7879 9.01581 12.7764 9.01925 12.7657C9.0227 12.755 9.02944 12.7457 9.0385 12.7391C9.04757 12.7325 9.05849 12.729 9.0697 12.729L9.4647 12.726Z" fill="#FFE15A"/>
<path d="M20.719 22H12.28C11.41 21.9997 10.5757 21.6539 9.96063 21.0387C9.34554 20.4234 9 19.589 9 18.719V10.28C9.00027 9.41 9.34606 8.57572 9.96134 7.96063C10.5766 7.34554 11.411 7 12.281 7H20.719C21.5892 7 22.4237 7.34568 23.039 7.96098C23.6543 8.57629 24 9.41082 24 10.281V18.719C24 19.5892 23.6543 20.4237 23.039 21.039C22.4237 21.6543 21.5892 22 20.719 22Z" fill="#2841C1"/>
<path fill-rule="evenodd" clip-rule="evenodd" d="M9 10.393V11.002L11.327 12.526H9V13.316H15.316V7H14.526V11.791L9.52 8.511C9.325 8.813 9.179 9.151 9.092 9.511L9 10.393ZM9.519 20.49C9.40026 20.3052 9.30042 20.1088 9.221 19.904L9.021 19.092C9.007 18.9682 8.99999 18.8436 9 18.719V17.999L11.327 16.474H9V15.684H15.316V22H14.526V17.21L9.519 20.49ZM23.999 17.998V18.718L23.884 19.585C23.7965 19.9054 23.6606 20.2106 23.481 20.49L18.473 17.209V22H17.683V15.684H24V16.474H21.674L23.999 17.998ZM23.481 8.51C23.597 8.69 23.695 8.883 23.774 9.085L23.977 9.895C23.991 10.022 23.999 10.151 23.999 10.281V11.001L21.673 12.526H23.999V13.316H17.684V7H18.474V11.791L23.481 8.51Z" fill="#F6F6F6"/>
<path fill-rule="evenodd" clip-rule="evenodd" d="M17.685 7H15.317V13.316H9.001V15.684H15.317V22H17.685V15.684H24.001V13.316H17.685V7ZM13.055 16.474L9.022 19.092C9.055 19.375 9.122 19.647 9.222 19.904L14.506 16.474H13.056H13.055ZM23.885 19.584L19.093 16.474H20.543L24.001 18.719C24.001 19.019 23.961 19.308 23.885 19.584ZM13.738 12.526L9.091 9.511C9.031 9.758 9 10.016 9 10.281V10.393L12.287 12.526H13.737H13.738ZM23.979 9.896L19.926 12.526H18.476L23.777 9.086C23.877 9.341 23.946 9.613 23.979 9.896Z" fill="#FB4B4E"/>
</g>
</g>
<defs>
<clipPath id="clip0_227_230">
<rect width="24" height="24" fill="white"/>
</clipPath>
</defs>
</svg>
