<svg width="143" height="34" viewBox="0 0 143 34" fill="none" xmlns="http://www.w3.org/2000/svg">
<path fill-rule="evenodd" clip-rule="evenodd" d="M0.816437 2.47763C0.471437 2.84563 0.273438 3.41762 0.273438 4.15762V30.5676C0.273438 31.3076 0.473437 31.8786 0.816437 32.2466L0.900437 32.3266L15.4044 17.5336V17.1836L0.896438 2.39062L0.816437 2.47763Z" fill="url(#paint0_linear_465_307)"/>
<path fill-rule="evenodd" clip-rule="evenodd" d="M20.2352 22.467L15.4102 17.533V17.183L20.2402 12.25L20.3482 12.314L26.0742 15.635C27.7082 16.578 27.7082 18.131 26.0742 19.08L20.3482 22.401L20.2352 22.467Z" fill="url(#paint1_linear_465_307)"/>
<path fill-rule="evenodd" clip-rule="evenodd" d="M20.3484 22.4034L15.4044 17.3594L0.816406 32.2474C1.35841 32.8294 2.24441 32.8994 3.25041 32.3174L20.3484 22.4034Z" fill="url(#paint2_linear_465_307)"/>
<path fill-rule="evenodd" clip-rule="evenodd" d="M20.3473 12.3144L3.25431 2.39837C2.24731 1.82137 1.36331 1.89237 0.820312 2.47437L15.4033 17.3594L20.3473 12.3144Z" fill="url(#paint3_linear_465_307)"/>
<path d="M37.61 6.71C37.61 7.71 37.3133 8.50667 36.72 9.1C36.0533 9.80667 35.1767 10.16 34.09 10.16C33.05 10.16 32.17 9.8 31.45 9.08C30.73 8.36 30.37 7.47333 30.37 6.42C30.37 5.36667 30.73 4.48 31.45 3.76C32.17 3.04 33.05 2.68 34.09 2.68C34.6167 2.68 35.1133 2.77333 35.58 2.96C36.0467 3.14667 36.43 3.41 36.73 3.75L36.07 4.41C35.85 4.14333 35.5633 3.93667 35.21 3.79C34.8633 3.63667 34.49 3.56 34.09 3.56C33.31 3.56 32.65 3.83 32.11 4.37C31.5767 4.91667 31.31 5.6 31.31 6.42C31.31 7.24 31.5767 7.92333 32.11 8.47C32.65 9.01 33.31 9.28 34.09 9.28C34.8033 9.28 35.3967 9.08 35.87 8.68C36.3433 8.28 36.6167 7.73 36.69 7.03H34.09V6.17H37.56C37.5933 6.35667 37.61 6.53667 37.61 6.71ZM42.9078 2.84V3.72H39.6478V5.99H42.5878V6.85H39.6478V9.12H42.9078V10H38.7278V2.84H42.9078ZM46.5877 3.72V10H45.6677V3.72H43.6677V2.84H48.5877V3.72H46.5877Z" fill="white"/>
<path d="M35.62 14.68H38.22L43.6 29H41.1L39.8 25.32H34.04L32.74 29H30.24L35.62 14.68ZM39.04 23.26L37.54 19.04L36.98 17.36H36.86L36.3 19.04L34.8 23.26H39.04ZM47.0677 20.52H47.1877C47.481 20.0533 47.8943 19.6667 48.4277 19.36C48.9743 19.04 49.5877 18.88 50.2677 18.88C51.5077 18.88 52.4343 19.2533 53.0477 20C53.661 20.7333 53.9677 21.7133 53.9677 22.94V29H51.7477V23.24C51.7477 22.3867 51.5477 21.7933 51.1477 21.46C50.761 21.1133 50.2477 20.94 49.6077 20.94C49.221 20.94 48.881 21.02 48.5877 21.18C48.2943 21.34 48.041 21.56 47.8277 21.84C47.6143 22.1067 47.4543 22.42 47.3477 22.78C47.241 23.1267 47.1877 23.4933 47.1877 23.88V29H44.9677V19.2H47.0677V20.52ZM63.54 27.74H63.42C63.1533 28.1667 62.7467 28.54 62.2 28.86C61.6533 29.1667 61 29.32 60.24 29.32C59.6133 29.32 59.0133 29.1933 58.44 28.94C57.88 28.6733 57.3867 28.3067 56.96 27.84C56.5333 27.3733 56.1933 26.8267 55.94 26.2C55.6867 25.56 55.56 24.86 55.56 24.1C55.56 23.34 55.6867 22.6467 55.94 22.02C56.1933 21.38 56.5333 20.8267 56.96 20.36C57.3867 19.8933 57.88 19.5333 58.44 19.28C59.0133 19.0133 59.6133 18.88 60.24 18.88C61 18.88 61.6533 19.04 62.2 19.36C62.7467 19.6667 63.1533 20.0333 63.42 20.46H63.54L63.42 19.1V14.68H65.64V29H63.54V27.74ZM60.66 27.26C61.0333 27.26 61.3933 27.1867 61.74 27.04C62.1 26.8933 62.4067 26.6867 62.66 26.42C62.9267 26.1533 63.14 25.8267 63.3 25.44C63.46 25.04 63.54 24.5933 63.54 24.1C63.54 23.6067 63.46 23.1667 63.3 22.78C63.14 22.38 62.9267 22.0467 62.66 21.78C62.4067 21.5133 62.1 21.3067 61.74 21.16C61.3933 21.0133 61.0333 20.94 60.66 20.94C60.2733 20.94 59.9067 21.0133 59.56 21.16C59.2133 21.3067 58.9067 21.52 58.64 21.8C58.3867 22.0667 58.18 22.3933 58.02 22.78C57.86 23.1667 57.78 23.6067 57.78 24.1C57.78 24.5933 57.86 25.0333 58.02 25.42C58.18 25.8067 58.3867 26.14 58.64 26.42C58.9067 26.6867 59.2133 26.8933 59.56 27.04C59.9067 27.1867 60.2733 27.26 60.66 27.26ZM67.8778 19.2H69.9778V20.68H70.0978C70.2178 20.4267 70.3778 20.1933 70.5778 19.98C70.7911 19.7533 71.0245 19.5667 71.2778 19.42C71.5445 19.26 71.8178 19.14 72.0978 19.06C72.3911 18.9667 72.6711 18.92 72.9378 18.92C73.2578 18.92 73.5311 18.9467 73.7578 19C73.9845 19.0533 74.1911 19.1267 74.3778 19.22L73.7378 21.28C73.5911 21.2133 73.4245 21.1667 73.2378 21.14C73.0645 21.1 72.8511 21.08 72.5978 21.08C72.2378 21.08 71.9045 21.1533 71.5978 21.3C71.3045 21.4467 71.0445 21.6467 70.8178 21.9C70.5911 22.1533 70.4111 22.4533 70.2778 22.8C70.1578 23.1467 70.0978 23.5133 70.0978 23.9V29H67.8778V19.2ZM79.5277 18.88C80.2743 18.88 80.961 19.0133 81.5877 19.28C82.2143 19.5333 82.7543 19.8933 83.2077 20.36C83.661 20.8267 84.0143 21.38 84.2677 22.02C84.521 22.66 84.6477 23.3533 84.6477 24.1C84.6477 24.8467 84.521 25.54 84.2677 26.18C84.0143 26.82 83.661 27.3733 83.2077 27.84C82.7543 28.3067 82.2143 28.6733 81.5877 28.94C80.961 29.1933 80.2743 29.32 79.5277 29.32C78.781 29.32 78.0943 29.1933 77.4677 28.94C76.841 28.6733 76.301 28.3067 75.8477 27.84C75.3943 27.3733 75.041 26.82 74.7877 26.18C74.5343 25.54 74.4077 24.8467 74.4077 24.1C74.4077 23.3533 74.5343 22.66 74.7877 22.02C75.041 21.38 75.3943 20.8267 75.8477 20.36C76.301 19.8933 76.841 19.5333 77.4677 19.28C78.0943 19.0133 78.781 18.88 79.5277 18.88ZM79.5277 27.26C79.901 27.26 80.261 27.1867 80.6077 27.04C80.9543 26.8933 81.261 26.6867 81.5277 26.42C81.8077 26.1533 82.0277 25.8267 82.1877 25.44C82.3477 25.04 82.4277 24.5933 82.4277 24.1C82.4277 23.6067 82.3477 23.1667 82.1877 22.78C82.0277 22.38 81.8077 22.0467 81.5277 21.78C81.261 21.5133 80.9543 21.3067 80.6077 21.16C80.261 21.0133 79.901 20.94 79.5277 20.94C79.1543 20.94 78.7943 21.0133 78.4477 21.16C78.101 21.3067 77.7877 21.5133 77.5077 21.78C77.241 22.0467 77.0277 22.38 76.8677 22.78C76.7077 23.1667 76.6277 23.6067 76.6277 24.1C76.6277 24.5933 76.7077 25.04 76.8677 25.44C77.0277 25.8267 77.241 26.1533 77.5077 26.42C77.7877 26.6867 78.101 26.8933 78.4477 27.04C78.7943 27.1867 79.1543 27.26 79.5277 27.26ZM87.4195 17.46C86.9929 17.46 86.6329 17.3133 86.3395 17.02C86.0595 16.7267 85.9195 16.3733 85.9195 15.96C85.9195 15.5467 86.0595 15.1933 86.3395 14.9C86.6329 14.6067 86.9929 14.46 87.4195 14.46C87.8329 14.46 88.1795 14.6067 88.4595 14.9C88.7529 15.1933 88.8995 15.5467 88.8995 15.96C88.8995 16.3733 88.7529 16.7267 88.4595 17.02C88.1795 17.3133 87.8329 17.46 87.4195 17.46ZM86.2995 29V19.2H88.5195V29H86.2995ZM98.247 27.74H98.127C97.8604 28.1667 97.4537 28.54 96.907 28.86C96.3604 29.1667 95.707 29.32 94.947 29.32C94.3204 29.32 93.7204 29.1933 93.147 28.94C92.587 28.6733 92.0937 28.3067 91.667 27.84C91.2404 27.3733 90.9004 26.8267 90.647 26.2C90.3937 25.56 90.267 24.86 90.267 24.1C90.267 23.34 90.3937 22.6467 90.647 22.02C90.9004 21.38 91.2404 20.8267 91.667 20.36C92.0937 19.8933 92.587 19.5333 93.147 19.28C93.7204 19.0133 94.3204 18.88 94.947 18.88C95.707 18.88 96.3604 19.04 96.907 19.36C97.4537 19.6667 97.8604 20.0333 98.127 20.46H98.247L98.127 19.1V14.68H100.347V29H98.247V27.74ZM95.367 27.26C95.7404 27.26 96.1004 27.1867 96.447 27.04C96.807 26.8933 97.1137 26.6867 97.367 26.42C97.6337 26.1533 97.847 25.8267 98.007 25.44C98.167 25.04 98.247 24.5933 98.247 24.1C98.247 23.6067 98.167 23.1667 98.007 22.78C97.847 22.38 97.6337 22.0467 97.367 21.78C97.1137 21.5133 96.807 21.3067 96.447 21.16C96.1004 21.0133 95.7404 20.94 95.367 20.94C94.9804 20.94 94.6137 21.0133 94.267 21.16C93.9204 21.3067 93.6137 21.52 93.347 21.8C93.0937 22.0667 92.887 22.3933 92.727 22.78C92.567 23.1667 92.487 23.6067 92.487 24.1C92.487 24.5933 92.567 25.0333 92.727 25.42C92.887 25.8067 93.0937 26.14 93.347 26.42C93.6137 26.6867 93.9204 26.8933 94.267 27.04C94.6137 27.1867 94.9804 27.26 95.367 27.26ZM110.874 14.68H113.474L118.854 29H116.354L115.054 25.32H109.294L107.994 29H105.494L110.874 14.68ZM114.294 23.26L112.794 19.04L112.234 17.36H112.114L111.554 19.04L110.054 23.26H114.294ZM120.239 19.2H122.339V20.46H122.459C122.726 20.0333 123.133 19.6667 123.679 19.36C124.226 19.04 124.879 18.88 125.639 18.88C126.266 18.88 126.859 19.0133 127.419 19.28C127.993 19.5333 128.493 19.8933 128.919 20.36C129.346 20.8267 129.686 21.38 129.939 22.02C130.193 22.6467 130.319 23.34 130.319 24.1C130.319 24.86 130.193 25.56 129.939 26.2C129.686 26.8267 129.346 27.3733 128.919 27.84C128.493 28.3067 127.993 28.6733 127.419 28.94C126.859 29.1933 126.266 29.32 125.639 29.32C124.879 29.32 124.226 29.1667 123.679 28.86C123.133 28.54 122.726 28.1667 122.459 27.74H122.339L122.459 29.1V33.32H120.239V19.2ZM125.219 27.26C125.593 27.26 125.953 27.1867 126.299 27.04C126.659 26.8933 126.966 26.6867 127.219 26.42C127.486 26.14 127.699 25.8067 127.859 25.42C128.019 25.0333 128.099 24.5933 128.099 24.1C128.099 23.6067 128.019 23.1667 127.859 22.78C127.699 22.3933 127.486 22.0667 127.219 21.8C126.966 21.52 126.659 21.3067 126.299 21.16C125.953 21.0133 125.593 20.94 125.219 20.94C124.833 20.94 124.466 21.0133 124.119 21.16C123.773 21.3067 123.466 21.5133 123.199 21.78C122.946 22.0467 122.739 22.38 122.579 22.78C122.419 23.1667 122.339 23.6067 122.339 24.1C122.339 24.5933 122.419 25.04 122.579 25.44C122.739 25.8267 122.946 26.1533 123.199 26.42C123.466 26.6867 123.773 26.8933 124.119 27.04C124.466 27.1867 124.833 27.26 125.219 27.26ZM131.724 19.2H133.824V20.46H133.944C134.21 20.0333 134.617 19.6667 135.164 19.36C135.71 19.04 136.364 18.88 137.124 18.88C137.75 18.88 138.344 19.0133 138.904 19.28C139.477 19.5333 139.977 19.8933 140.404 20.36C140.83 20.8267 141.17 21.38 141.424 22.02C141.677 22.6467 141.804 23.34 141.804 24.1C141.804 24.86 141.677 25.56 141.424 26.2C141.17 26.8267 140.83 27.3733 140.404 27.84C139.977 28.3067 139.477 28.6733 138.904 28.94C138.344 29.1933 137.75 29.32 137.124 29.32C136.364 29.32 135.71 29.1667 135.164 28.86C134.617 28.54 134.21 28.1667 133.944 27.74H133.824L133.944 29.1V33.32H131.724V19.2ZM136.704 27.26C137.077 27.26 137.437 27.1867 137.784 27.04C138.144 26.8933 138.45 26.6867 138.704 26.42C138.97 26.14 139.184 25.8067 139.344 25.42C139.504 25.0333 139.584 24.5933 139.584 24.1C139.584 23.6067 139.504 23.1667 139.344 22.78C139.184 22.3933 138.97 22.0667 138.704 21.8C138.45 21.52 138.144 21.3067 137.784 21.16C137.437 21.0133 137.077 20.94 136.704 20.94C136.317 20.94 135.95 21.0133 135.604 21.16C135.257 21.3067 134.95 21.5133 134.684 21.78C134.43 22.0467 134.224 22.38 134.064 22.78C133.904 23.1667 133.824 23.6067 133.824 24.1C133.824 24.5933 133.904 25.04 134.064 25.44C134.224 25.8267 134.43 26.1533 134.684 26.42C134.95 26.6867 135.257 26.8933 135.604 27.04C135.95 27.1867 136.317 27.26 136.704 27.26Z" fill="white"/>
<defs>
<linearGradient id="paint0_linear_465_307" x1="918.271" y1="2861.04" x2="-334.994" y2="1567.26" gradientUnits="userSpaceOnUse">
<stop stop-color="#00A0FF"/>
<stop offset="0.01" stop-color="#00A1FF"/>
<stop offset="0.26" stop-color="#00BEFF"/>
<stop offset="0.51" stop-color="#00D2FF"/>
<stop offset="0.76" stop-color="#00DFFF"/>
<stop offset="1" stop-color="#00E3FF"/>
</linearGradient>
<linearGradient id="paint1_linear_465_307" x1="1295.61" y1="523.928" x2="-1529.54" y2="523.928" gradientUnits="userSpaceOnUse">
<stop stop-color="#FFE000"/>
<stop offset="0.41" stop-color="#FFBD00"/>
<stop offset="0.78" stop-color="#FFA500"/>
<stop offset="1" stop-color="#FF9C00"/>
</linearGradient>
<linearGradient id="paint2_linear_465_307" x1="714.32" y1="761.849" x2="-1419.96" y2="-1441.47" gradientUnits="userSpaceOnUse">
<stop stop-color="#FF3A44"/>
<stop offset="1" stop-color="#C31162"/>
</linearGradient>
<linearGradient id="paint3_linear_465_307" x1="-1332.72" y1="2101.84" x2="-379.516" y2="1117.81" gradientUnits="userSpaceOnUse">
<stop stop-color="#32A071"/>
<stop offset="0.07" stop-color="#2DA771"/>
<stop offset="0.48" stop-color="#15CF74"/>
<stop offset="0.8" stop-color="#06E775"/>
<stop offset="1" stop-color="#00F076"/>
</linearGradient>
</defs>
</svg>
