<svg width="72" height="72" viewBox="0 0 72 72" fill="none" xmlns="http://www.w3.org/2000/svg">
<g clip-path="url(#clip0_232_2)">
<path fill-rule="evenodd" clip-rule="evenodd" d="M72 36C72 55.882 55.882 72 36 72C16.118 72 0 55.882 0 36C0 16.118 16.118 0 36 0C55.882 0 72 16.118 72 36Z" fill="#F4F4F9"/>
<path d="M36 56C47.0457 56 56 47.0457 56 36C56 24.9543 47.0457 16 36 16C24.9543 16 16 24.9543 16 36C16 47.0457 24.9543 56 36 56Z" fill="#DADAEB"/>
<path d="M14.5781 30.4624C14.6931 30.3684 14.8231 30.2944 14.9611 30.2424L34.1201 22.2654C35.0951 21.8594 36.8061 21.8594 37.7801 22.2654L56.9401 30.2414C57.0781 30.2944 57.2071 30.3684 57.3231 30.4614C57.2076 30.5547 57.078 30.629 56.9391 30.6814L37.7811 38.6584C36.8061 39.0644 35.0951 39.0644 34.1201 38.6584L14.9611 30.6814C14.8226 30.6289 14.6933 30.5556 14.5781 30.4624Z" fill="white"/>
<path d="M13.5 30.5003C13.621 30.3963 13.758 30.3133 13.903 30.2543L34.073 21.3413C35.1 20.8862 36.901 20.8862 37.927 21.3413L58.097 30.2543C58.242 30.3133 58.379 30.3963 58.5 30.5003C58.3799 30.6033 58.2438 30.6861 58.097 30.7453L37.927 39.6593C36.9 40.1143 35.099 40.1143 34.073 39.6593L13.903 30.7453C13.7562 30.6861 13.6201 30.6033 13.5 30.5003Z" fill="white"/>
<path d="M36 31.632C34.388 31.632 33 30.938 33 29.816C33 28.694 34.388 28 36 28C37.612 28 39 28.694 39 29.816C39 30.938 37.612 31.632 36 31.632ZM36 30.368C36.543 30.368 37.044 30.263 37.392 30.088C37.642 29.964 37.737 29.851 37.737 29.816C37.737 29.78 37.642 29.668 37.392 29.543C37.044 29.369 36.543 29.263 36 29.263C35.457 29.263 34.956 29.369 34.608 29.543C34.358 29.668 34.263 29.78 34.263 29.816C34.263 29.851 34.358 29.964 34.608 30.088C34.956 30.263 35.457 30.368 36 30.368Z" fill="#25258E"/>
<path d="M55.8624 44.7304V32.6684L57.4864 31.9924C58.6224 31.5194 58.7924 30.8294 58.7924 30.4604C58.7924 30.0904 58.6224 29.4004 57.4864 28.9284L38.3274 20.9514C36.9944 20.3964 34.9074 20.3964 33.5734 20.9514L14.4144 28.9284C13.2784 29.4014 13.1094 30.0914 13.1094 30.4604C13.1094 30.8304 13.2794 31.5204 14.4144 31.9924L21.0164 34.7424V44.6724C21.0171 44.7639 21.0362 44.8542 21.0727 44.9381C21.1092 45.022 21.1622 45.0977 21.2285 45.1606C21.2949 45.2235 21.3733 45.2724 21.459 45.3043C21.5447 45.3363 21.636 45.3506 21.7274 45.3464H22.7394C26.4514 45.3464 30.1844 48.7714 32.6544 51.0254C34.3074 52.5334 35.0684 53.2094 35.7854 53.2094C36.4904 53.2094 37.2484 52.5294 38.8934 51.0194C41.3514 48.7654 45.0664 45.3454 48.6664 45.3454H49.8684C49.9598 45.3497 50.0512 45.3355 50.137 45.3037C50.2229 45.2718 50.3014 45.2229 50.3679 45.16C50.4344 45.0971 50.4874 45.0213 50.524 44.9374C50.5605 44.8534 50.5797 44.763 50.5804 44.6714V34.8674L54.4404 33.2604V44.7204C53.5216 44.8915 52.6995 45.3988 52.1347 46.1435C51.5699 46.8881 51.3029 47.8165 51.3859 48.7474C51.4688 49.6783 51.8957 50.5449 52.5833 51.1779C53.2709 51.8109 54.1697 52.1649 55.1042 52.1709C56.0388 52.1768 56.942 51.8341 57.6376 51.2099C58.3331 50.5856 58.771 49.7245 58.8657 48.7947C58.9604 47.8649 58.7052 46.9332 58.1498 46.1815C57.5945 45.4298 56.7789 44.9131 55.8624 44.7304ZM14.5784 30.4604C14.6934 30.3674 14.8234 30.2934 14.9614 30.2404L34.1204 22.2644C35.0954 21.8584 36.8064 21.8584 37.7804 22.2644L56.9404 30.2404C57.0784 30.2934 57.2074 30.3674 57.3234 30.4604C57.2079 30.5537 57.0782 30.6279 56.9394 30.6804L37.7814 38.6574C36.8064 39.0634 35.0954 39.0634 34.1204 38.6574L14.9614 30.6804C14.8229 30.6278 14.6936 30.5536 14.5784 30.4604ZM49.1584 43.9234H48.6664C44.5124 43.9234 40.5524 47.5734 37.9324 49.9764C37.1354 50.7064 36.1524 51.6184 35.7824 51.7754C35.4084 51.6224 34.4174 50.7034 33.6124 49.9704C30.9804 47.5684 27.0024 43.9234 22.7394 43.9234H22.4394V35.3334L33.5734 39.9704C34.2394 40.2474 35.0954 40.3864 35.9504 40.3864C36.8064 40.3864 37.6604 40.2474 38.3274 39.9704L49.1574 35.4604V43.9234H49.1584ZM55.1264 50.7764C54.818 50.7779 54.5123 50.7187 54.2268 50.602C53.9413 50.4854 53.6815 50.3137 53.4624 50.0967C53.2432 49.8797 53.069 49.6216 52.9495 49.3373C52.8301 49.0529 52.7679 48.7478 52.7664 48.4394C52.7649 48.131 52.8241 47.8253 52.9407 47.5398C53.0574 47.2543 53.2291 46.9945 53.4461 46.7754C53.6631 46.5562 53.9212 46.382 54.2055 46.2626C54.4899 46.1432 54.795 46.0809 55.1034 46.0794C55.7262 46.0764 56.3248 46.3209 56.7674 46.7591C57.21 47.1974 57.4603 47.7935 57.4634 48.4164C57.4664 49.0393 57.2219 49.6378 56.7836 50.0804C56.3454 50.523 55.7492 50.7734 55.1264 50.7764Z" fill="#25258E"/>
</g>
<defs>
<clipPath id="clip0_232_2">
<rect width="72" height="72" fill="white"/>
</clipPath>
</defs>
</svg>
