<svg width="72" height="72" viewBox="0 0 72 72" fill="none" xmlns="http://www.w3.org/2000/svg">
<path fill-rule="evenodd" clip-rule="evenodd" d="M72 36C72 55.882 55.882 72 36 72C16.118 72 0 55.882 0 36C0 16.118 16.118 0 36 0C55.882 0 72 16.118 72 36Z" fill="#F4F4F9"/>
<path opacity="0.3" d="M36 56C47.0457 56 56 47.0457 56 36C56 24.9543 47.0457 16 36 16C24.9543 16 16 24.9543 16 36C16 47.0457 24.9543 56 36 56Z" fill="#9F9FCD"/>
<path fill-rule="evenodd" clip-rule="evenodd" d="M34 33.0005H28V46.0005H23V33.0005H21.217V29.3405H19V26.0005L36.077 19.2305L53 26.0005V29.3405H50.915V33.0005H49V46.0005H53V50.0005H19V46.0005H34V33.0005ZM45 46.0005V33.0005H38V46.0005H45Z" fill="white"/>
<path fill-rule="evenodd" clip-rule="evenodd" d="M36.372 18.0601C36.222 17.9961 36.0553 17.9828 35.897 18.0221L35.781 18.0611L18.455 25.4881C18.3374 25.5384 18.2346 25.6178 18.1564 25.719C18.0781 25.8202 18.027 25.9397 18.008 26.0661L18 26.1771V29.4361C18 29.8161 18.282 30.1291 18.648 30.1791L18.75 30.1861L20.148 30.1791V31.4921C20.148 32.7361 20.951 33.8331 22.128 34.2441C22.181 34.2631 22.237 34.2801 22.295 34.2941V45.2361L20.972 45.2311C19.391 45.2311 18.096 46.4511 18.005 47.9801L18 48.1501V50.3201C18 50.7001 18.282 51.0131 18.648 51.0631L18.75 51.0691H53.403C53.5842 51.0691 53.7593 51.0035 53.8959 50.8843C54.0325 50.7652 54.1214 50.6007 54.146 50.4211L54.153 50.3191V48.1501C54.153 46.5991 52.914 45.3241 51.356 45.2351L51.182 45.2301H49.858V34.4801V34.2941C50.4414 34.1324 50.9604 33.7942 51.3439 33.3258C51.7274 32.8575 51.9566 32.2819 52 31.6781L52.006 31.4921L52 30.1861H53.403C53.5842 30.1861 53.7593 30.1205 53.8959 30.0013C54.0325 29.8822 54.1214 29.7177 54.146 29.5381L54.153 29.4361V26.1771C54.153 26.0492 54.1202 25.9235 54.0579 25.8118C53.9956 25.7002 53.9058 25.6063 53.797 25.5391L53.699 25.4881L36.372 18.0611V18.0601ZM51.182 46.8451C51.865 46.8451 52.431 47.3591 52.499 48.0171L52.506 48.1511V49.4571H19.654L19.648 48.1511C19.648 47.4741 20.17 46.9181 20.836 46.8511L20.972 46.8451H51.182ZM26.662 34.4181V45.2311H23.943V34.4111L26.662 34.4181ZM43.915 34.4121V45.2321H39.048V34.4121H43.915ZM37.4 34.4181V45.2311H34.753V34.4181H37.4ZM33.105 34.4181V45.2321H28.31V34.4171L33.105 34.4181ZM48.204 34.4121L48.21 45.2321H45.563V34.4121H48.204ZM50.358 30.1861V31.4921C50.358 32.1691 49.835 32.7251 49.169 32.7921L49.034 32.7991H23.12C22.7944 32.8006 22.4798 32.6817 22.2366 32.4651C21.9935 32.2485 21.839 31.9497 21.803 31.6261L21.796 31.4921V30.1861H50.358ZM36.175 19.7361L52.355 26.6721C52.3907 26.6876 52.4224 26.7112 52.4474 26.7411C52.4724 26.7709 52.4901 26.8062 52.499 26.8441L52.506 26.9021V28.5721H19.648V26.9021C19.648 26.8633 19.657 26.825 19.6744 26.7903C19.6917 26.7556 19.717 26.7254 19.748 26.7021L19.799 26.6721L35.979 19.7371L36.175 19.7361Z" fill="#25258E"/>
</svg>
