<svg width="72" height="72" viewBox="0 0 72 72" fill="none" xmlns="http://www.w3.org/2000/svg">
<rect width="72" height="72" rx="36" fill="#EEF3FD"/>
<g clip-path="url(#clip0_68_23)">
<mask id="mask0_68_23" style="mask-type:luminance" maskUnits="userSpaceOnUse" x="26" y="24" width="20" height="24">
<path d="M45.0018 24.0107H26.9976V47.9892H45.0018V24.0107Z" fill="white"/>
</mask>
<g mask="url(#mask0_68_23)">
<path d="M41.8746 26.0859L38.2652 34.5234H43.5152C44.1246 34.5234 44.6871 34.8984 44.9214 35.4609C45.1089 36.0703 44.9683 36.7266 44.4996 37.1484L32.4995 47.6484C31.937 48.0703 31.187 48.1172 30.6245 47.6953C30.062 47.3203 29.8276 46.5703 30.1089 45.9141L33.7183 37.4766H28.5151C27.8589 37.4766 27.2964 37.1016 27.1089 36.5391C26.8745 35.9297 27.0151 35.2734 27.4839 34.8516L39.4839 24.3516C40.0464 23.9297 40.7964 23.8828 41.3589 24.3047C41.9214 24.6797 42.1558 25.4297 41.8746 26.0859Z" fill="#2563EB"/>
</g>
</g>
<defs>
<clipPath id="clip0_68_23">
<rect width="18" height="24" fill="white" transform="translate(27 24)"/>
</clipPath>
</defs>
</svg>
