<svg width="72" height="72" viewBox="0 0 72 72" fill="none" xmlns="http://www.w3.org/2000/svg">
<rect width="72" height="72" rx="36" fill="#EEFAF2"/>
<g clip-path="url(#clip0_68_22)">
<mask id="mask0_68_22" style="mask-type:luminance" maskUnits="userSpaceOnUse" x="22" y="22" width="28" height="28">
<path d="M49.6646 26.8439L46.0176 49.0463L22.335 45.1561L25.982 22.9537L49.6646 26.8439Z" fill="white"/>
</mask>
<g mask="url(#mask0_68_22)">
<path d="M41.8853 28.5111L31.9755 28.6885C31.4951 27.5645 30.445 26.727 29.1962 26.5218C27.1147 26.1799 25.2222 27.5792 24.8879 29.6144C24.546 31.6959 25.899 33.5807 27.9805 33.9227C28.3505 33.9834 28.7282 33.9979 29.1134 33.9663L33.886 41.6382C33.5713 42.109 33.3951 42.6026 33.304 43.1577C32.962 45.2392 34.315 47.124 36.3965 47.4659C38.4317 47.8002 40.3629 46.4549 40.7048 44.3734C40.8643 43.402 40.6 42.4085 40.0201 41.6007L44.8411 33.652C46.8376 33.9325 48.7225 32.5795 49.0568 30.5443C49.3911 28.5091 47.9995 26.5703 45.9642 26.236C44.2065 25.9473 42.5212 26.953 41.8853 28.5111ZM36.4254 40.0602L31.6528 32.3882C31.7833 32.1721 31.9214 31.9098 32.0056 31.6861L41.9154 31.5089C42.0238 31.7167 42.1321 31.9245 42.2868 32.1399L37.4734 40.0423C37.142 40.0354 36.7644 40.0209 36.4254 40.0602Z" fill="#22C55E"/>
</g>
</g>
<defs>
<clipPath id="clip0_68_22">
<rect width="24" height="24" fill="white" transform="matrix(0.162092 -0.986776 -0.986776 -0.162092 45.896 49.7864)"/>
</clipPath>
</defs>
</svg>
