<svg width="53" height="41" viewBox="0 0 53 41" fill="none" xmlns="http://www.w3.org/2000/svg">
<path fill-rule="evenodd" clip-rule="evenodd" d="M48.995 37.6596V33.8706H48.1232V36.0684C47.8108 35.6631 47.3242 35.434 46.8155 35.453C45.6118 35.453 44.636 36.437 44.636 37.6508C44.636 38.8646 45.6118 39.8486 46.8155 39.8486C47.3242 39.8675 47.8108 39.6385 48.1232 39.2332V39.7431H48.995V37.6596ZM21.9694 35.5585H23.4601L23.4688 36.3936H21.9868V38.3101C21.9868 38.7321 22.1524 39.0134 22.5883 39.0134C22.8713 39.004 23.1472 38.9223 23.3904 38.776L23.6519 39.5585C23.3121 39.7723 22.9192 39.8851 22.5186 39.8837C21.4463 39.8837 21.0714 39.3035 21.0714 38.3277V36.3936H20.2258V35.5585H21.054V34.2837H21.9694V35.5585ZM9.91679 37.1233V39.7607L9.00141 39.7782V37.4398C9.00141 36.7277 8.705 36.3321 8.08602 36.3321C7.7957 36.3179 7.51408 36.4343 7.31714 36.6498C7.12019 36.8654 7.02822 37.158 7.06602 37.4486V39.7782H6.15064V37.4398C6.15064 36.7277 5.84551 36.3321 5.24397 36.3321C4.95319 36.3163 4.67058 36.4322 4.47327 36.6481C4.27597 36.8641 4.18455 37.1576 4.22397 37.4486V39.7607H3.30859V35.5585H4.21526V36.0771C4.48358 35.6656 4.94796 35.4281 5.43577 35.453C5.99602 35.4287 6.52455 35.7154 6.8132 36.2002C7.12981 35.7005 7.69103 35.4142 8.27782 35.453C8.72309 35.4266 9.15807 35.5948 9.47179 35.9145C9.78551 36.2342 9.94763 36.6746 9.91679 37.1233ZM31.1929 35.453C30.7426 35.4396 30.3211 35.6757 30.0945 36.0684V35.5585H29.1965V39.7607H30.1032V37.4046C30.1032 36.7101 30.3996 36.3233 30.975 36.3233C31.1689 36.3206 31.3615 36.3565 31.5417 36.4288L31.8206 35.5497C31.6136 35.475 31.3954 35.4363 31.1755 35.4354L31.1929 35.453ZM17.8022 35.453C18.3989 35.4323 18.989 35.5848 19.5022 35.8925L19.1012 36.631C18.703 36.4 18.2528 36.2759 17.7935 36.2706C17.2965 36.2706 17.0001 36.4815 17.0001 36.7629C17.0001 37.0442 17.314 37.1233 17.7063 37.176L18.1422 37.2376C19.0488 37.3695 19.5981 37.6947 19.5981 38.4947C19.5981 39.2947 18.9006 39.8662 17.6976 39.8662C17.0537 39.884 16.4211 39.693 15.8929 39.3211L16.3288 38.609C16.7289 38.9083 17.2171 39.0631 17.715 39.0486C18.334 39.0486 18.6653 38.864 18.6653 38.5387C18.6653 38.3013 18.4299 38.1695 17.9329 38.0991L17.497 38.0376C16.5642 37.9057 16.0586 37.4837 16.0586 36.798C16.0586 35.9629 16.7473 35.453 17.8022 35.453ZM43.786 35.453C43.3357 35.4396 42.9142 35.6757 42.6876 36.0684V35.5585H41.7896V39.7607H42.6963V37.4046C42.6963 36.7101 42.9927 36.3233 43.5681 36.3233C43.762 36.3206 43.9546 36.3565 44.1347 36.4288L44.4137 35.5497C44.2067 35.475 43.9885 35.4363 43.7686 35.4354L43.786 35.453ZM32.734 39.2449C32.3109 38.8266 32.0822 38.2479 32.104 37.6508V37.6332C32.0822 37.0361 32.3109 36.4573 32.734 36.039C33.1571 35.6207 33.7355 35.4016 34.327 35.4354C34.8714 35.4075 35.4064 35.5862 35.8265 35.9365L35.3906 36.6749C35.0772 36.4339 34.695 36.3014 34.3009 36.2969C33.6059 36.3536 33.0706 36.9389 33.0706 37.642C33.0706 38.3451 33.6059 38.9303 34.3009 38.987C34.695 38.9826 35.0772 38.85 35.3906 38.609L35.8265 39.3475C35.4064 39.6977 34.8714 39.8765 34.327 39.8486C33.7355 39.8824 33.1571 39.6632 32.734 39.2449ZM40.5953 37.6508V35.5585H39.6886V36.0684C39.3762 35.6631 38.8896 35.434 38.3809 35.453C37.1772 35.453 36.2014 36.437 36.2014 37.6508C36.2014 38.8646 37.1772 39.8486 38.3809 39.8486C38.8896 39.8675 39.3762 39.6385 39.6886 39.2332V39.7431H40.5953V37.6508ZM38.5262 36.4561C37.8414 36.4302 37.2617 36.961 37.2214 37.6508C37.1983 38.0019 37.3216 38.3468 37.5617 38.6022C37.8017 38.8576 38.1366 39.0003 38.4855 38.9958C39.1708 38.9922 39.7275 38.437 39.7385 37.746C39.7496 37.0551 39.211 36.482 38.5262 36.4561ZM26.2804 35.453C25.0767 35.47 24.1146 36.4677 24.1314 37.6815C24.1483 38.8954 25.1377 39.8656 26.3414 39.8486C26.9686 39.881 27.5853 39.6774 28.0719 39.2771L27.636 38.6002C27.2918 38.8786 26.8654 39.0333 26.4242 39.0398C25.8011 39.0938 25.2484 38.6379 25.1776 38.0112H28.2724V37.6596C28.2724 36.3409 27.4617 35.4618 26.2935 35.4618L26.2804 35.453ZM27.0173 36.5601C26.8195 36.3688 26.5544 36.2647 26.2804 36.2706H26.2629C25.6804 36.2505 25.1886 36.7034 25.1558 37.2903H27.3353C27.3295 37.014 27.2152 36.7513 27.0173 36.5601ZM50.5182 39.1497C50.5713 39.1503 50.6238 39.1607 50.6732 39.1804C50.7233 39.201 50.7691 39.2309 50.8083 39.2684C50.8466 39.3063 50.8777 39.351 50.8999 39.4002C50.9445 39.504 50.9445 39.6217 50.8999 39.7255C50.8777 39.7748 50.8466 39.8195 50.8083 39.8574C50.7691 39.8949 50.7233 39.9247 50.6732 39.9453C50.621 39.9685 50.5646 39.9805 50.5076 39.9804C50.3389 39.9792 50.1861 39.8799 50.1153 39.7255C50.0712 39.6216 50.0712 39.5041 50.1153 39.4002C50.1375 39.351 50.1685 39.3063 50.2068 39.2684C50.246 39.2309 50.2919 39.201 50.3419 39.1804C50.3987 39.1577 50.4596 39.1472 50.5206 39.1497H50.5182ZM50.5113 39.8925C50.5535 39.8923 50.5953 39.8833 50.634 39.8662C50.6715 39.8493 50.7055 39.8254 50.7342 39.7958C50.8473 39.6715 50.8473 39.4806 50.7342 39.3563C50.7056 39.3266 50.6715 39.3027 50.634 39.2859C50.5941 39.2684 50.5511 39.2594 50.5076 39.2596C50.4641 39.2598 50.4211 39.2688 50.3812 39.2859C50.342 39.3021 50.3064 39.326 50.2765 39.3563C50.1635 39.4806 50.1635 39.6715 50.2765 39.7958C50.3065 39.826 50.342 39.8499 50.3812 39.8662C50.4251 39.8853 50.4728 39.8943 50.5206 39.8925H50.5113ZM50.647 39.4046C50.6145 39.3799 50.5744 39.3675 50.5337 39.3695L50.3506 39.3738V39.7607H50.4335V39.6156H50.4727L50.5904 39.7607H50.6906L50.5642 39.6156C50.5983 39.6131 50.6305 39.5992 50.6558 39.576C50.6765 39.5551 50.6875 39.5264 50.6863 39.4969C50.6887 39.4616 50.6741 39.4272 50.647 39.4046ZM50.4378 39.4442V39.5497H50.5337C50.5508 39.5548 50.569 39.5548 50.586 39.5497C50.5922 39.5372 50.5922 39.5226 50.586 39.5101C50.5922 39.4977 50.5922 39.483 50.586 39.4706C50.569 39.4654 50.5508 39.4654 50.5337 39.4706L50.4378 39.4442ZM46.9478 36.4649C46.263 36.439 45.6833 36.9697 45.6429 37.6596C45.6198 38.0107 45.7432 38.3556 45.9832 38.611C46.2232 38.8664 46.5581 39.0091 46.907 39.0046C47.5923 39.001 48.149 38.4458 48.1601 37.7548C48.1712 37.0639 47.6325 36.4908 46.9478 36.4649ZM15.0299 37.6596V35.5585H14.1232V36.0684C13.8108 35.6631 13.3242 35.434 12.8155 35.453C11.6118 35.453 10.636 36.437 10.636 37.6508C10.636 38.8646 11.6118 39.8486 12.8155 39.8486C13.3242 39.8675 13.8108 39.6385 14.1232 39.2332V39.7431H15.0299V37.6596ZM12.9608 36.4649C12.2761 36.439 11.6963 36.9697 11.656 37.6596H11.6473C11.624 38.0122 11.7485 38.3585 11.9905 38.6142C12.2325 38.8699 12.5697 39.0116 12.9201 39.0046C13.6054 39.001 14.1621 38.4458 14.1732 37.7548C14.1842 37.0639 13.6456 36.4908 12.9608 36.4649Z" fill="black"/>
<path d="M19.1992 3.53662H32.93V28.4201H19.1992V3.53662Z" fill="#FF5F00"/>
<path d="M20.0748 15.9804C20.0697 11.124 22.28 6.53495 26.0684 3.53647C19.6345 -1.56241 10.3951 -0.819706 4.84342 5.24261C-0.708224 11.3049 -0.708224 20.6515 4.84342 26.7139C10.3951 32.7762 19.6345 33.5189 26.0684 28.42C22.2812 25.4225 20.071 20.8354 20.0748 15.9804Z" fill="#EB001B"/>
<path d="M51.4575 15.9801C51.4573 22.0388 48.0267 27.5655 42.6226 30.2131C37.2185 32.8606 30.7896 32.1643 26.0664 28.4197C29.852 25.4196 32.0623 20.8332 32.0623 15.9779C32.0623 11.1227 29.852 6.53631 26.0664 3.53624C30.7896 -0.208337 37.2185 -0.904707 42.6226 1.74288C48.0267 4.39046 51.4573 9.91717 51.4575 15.9757V15.9801Z" fill="#F79E1B"/>
<path fill-rule="evenodd" clip-rule="evenodd" d="M50.0405 25.3429V26.1927H49.925V25.3429H49.6445V25.167H50.2991V25.3429H50.0405ZM51.3112 25.167V26.1927L51.1957 26.2V25.4235L50.9811 26.0901H50.8326L50.6181 25.4235V26.1927H50.4751V25.167H50.6511L50.8821 25.8996L51.1131 25.167H51.3112Z" fill="#F79E1B"/>
</svg>
