<svg width="32" height="32" viewBox="0 0 32 32" fill="none" xmlns="http://www.w3.org/2000/svg">
<g clip-path="url(#clip0_229_296)">
<path fill-rule="evenodd" clip-rule="evenodd" d="M0 16.0011C0 22.8811 4.342 28.7451 10.435 31.0061L11.826 16.0011L10.435 0.996094C4.342 3.25609 0 9.12209 0 16.0011Z" fill="#6DA544"/>
<path fill-rule="evenodd" clip-rule="evenodd" d="M31.9986 16C31.9986 7.163 24.8356 0 15.9986 0C14.0416 0 12.1666 0.352 10.4336 0.995V31.005C12.1666 31.648 14.0416 32 15.9986 32C24.8356 32 31.9986 24.837 31.9986 16Z" fill="#D80027"/>
<path d="M10.4361 21.0636C13.2334 21.0636 15.5011 18.7959 15.5011 15.9986C15.5011 13.2013 13.2334 10.9336 10.4361 10.9336C7.63877 10.9336 5.37109 13.2013 5.37109 15.9986C5.37109 18.7959 7.63877 21.0636 10.4361 21.0636Z" stroke="#FFDA44"/>
<path d="M12.2122 14.1896V16.7886C12.2122 17.8636 11.4242 18.7376 10.4572 18.7376C9.48925 18.7376 8.70125 17.8636 8.70125 16.7886V14.1896H12.2122ZM12.7972 12.8906H8.11725C7.79325 12.8906 7.53125 13.1816 7.53125 13.5406V16.7886C7.53125 18.5826 8.84125 20.0366 10.4572 20.0366C12.0722 20.0366 13.3822 18.5826 13.3822 16.7886V13.5406C13.3822 13.1816 13.1202 12.8906 12.7972 12.8906Z" fill="#D80027"/>
<path fill-rule="evenodd" clip-rule="evenodd" d="M12.2141 14.1875V16.7865C12.2141 17.8615 11.4261 18.7355 10.4591 18.7355C9.49112 18.7355 8.70312 17.8615 8.70312 16.7865V14.1875H12.2141Z" fill="#F5F5F5"/>
<path d="M8.11328 14.5391C8.66557 14.5391 9.11328 14.0913 9.11328 13.5391C9.11328 12.9868 8.66557 12.5391 8.11328 12.5391C7.561 12.5391 7.11328 12.9868 7.11328 13.5391C7.11328 14.0913 7.561 14.5391 8.11328 14.5391Z" fill="#FFE15A"/>
<path d="M12.793 14.5391C13.3453 14.5391 13.793 14.0913 13.793 13.5391C13.793 12.9868 13.3453 12.5391 12.793 12.5391C12.2407 12.5391 11.793 12.9868 11.793 13.5391C11.793 14.0913 12.2407 14.5391 12.793 14.5391Z" fill="#FFE15A"/>
<path d="M8.11328 17.1367C8.66557 17.1367 9.11328 16.689 9.11328 16.1367C9.11328 15.5844 8.66557 15.1367 8.11328 15.1367C7.561 15.1367 7.11328 15.5844 7.11328 16.1367C7.11328 16.689 7.561 17.1367 8.11328 17.1367Z" fill="#FFE15A"/>
<path d="M12.793 17.1367C13.3453 17.1367 13.793 16.689 13.793 16.1367C13.793 15.5844 13.3453 15.1367 12.793 15.1367C12.2407 15.1367 11.793 15.5844 11.793 16.1367C11.793 16.689 12.2407 17.1367 12.793 17.1367Z" fill="#FFE15A"/>
<path d="M10.4531 14.5391C11.0054 14.5391 11.4531 14.0913 11.4531 13.5391C11.4531 12.9868 11.0054 12.5391 10.4531 12.5391C9.90084 12.5391 9.45312 12.9868 9.45312 13.5391C9.45312 14.0913 9.90084 14.5391 10.4531 14.5391Z" fill="#FFE15A"/>
<path d="M12.2109 19.5312C12.7632 19.5312 13.2109 19.0835 13.2109 18.5312C13.2109 17.979 12.7632 17.5312 12.2109 17.5312C11.6587 17.5312 11.2109 17.979 11.2109 18.5312C11.2109 19.0835 11.6587 19.5312 12.2109 19.5312Z" fill="#FFE15A"/>
<path d="M8.73047 19.5312C9.28275 19.5312 9.73047 19.0835 9.73047 18.5312C9.73047 17.979 9.28275 17.5312 8.73047 17.5312C8.17818 17.5312 7.73047 17.979 7.73047 18.5312C7.73047 19.0835 8.17818 19.5312 8.73047 19.5312Z" fill="#FFE15A"/>
<path fill-rule="evenodd" clip-rule="evenodd" d="M10.8355 15.9715V16.5315C10.8355 16.7615 10.6655 16.9505 10.4585 16.9505C10.2495 16.9505 10.0805 16.7625 10.0805 16.5305V15.9705L10.8355 15.9715ZM10.8355 14.6445V15.2045C10.8355 15.4355 10.6655 15.6245 10.4585 15.6245C10.2495 15.6245 10.0805 15.4355 10.0805 15.2045V14.6445H10.8355ZM10.8355 17.3115V17.8715C10.8355 18.1015 10.6655 18.2905 10.4585 18.2905C10.2495 18.2905 10.0805 18.1015 10.0805 17.8705V17.3105L10.8355 17.3115ZM11.8535 15.9715V16.5315C11.8535 16.7615 11.6835 16.9505 11.4755 16.9505C11.2675 16.9505 11.0975 16.7625 11.0975 16.5305V15.9705L11.8535 15.9715ZM9.8185 15.9715V16.5315C9.8185 16.7615 9.6485 16.9505 9.4405 16.9505C9.2315 16.9505 9.0625 16.7625 9.0625 16.5305V15.9705L9.8185 15.9715Z" fill="#41479B"/>
</g>
<defs>
<clipPath id="clip0_229_296">
<rect width="32" height="32" fill="white"/>
</clipPath>
</defs>
</svg>
