<svg width="32" height="32" viewBox="0 0 32 32" fill="none" xmlns="http://www.w3.org/2000/svg">
<g clip-path="url(#clip0_229_300)">
<path d="M0 0H32V10.6667H0V0Z" fill="#FF9933"/>
<path d="M0 10.668H32V21.3347H0V10.668Z" fill="white"/>
<path d="M0 21.332H32V31.9987H0V21.332Z" fill="#128807"/>
<path d="M15.9971 20.2638C18.3535 20.2638 20.2638 18.3535 20.2638 15.9971C20.2638 13.6407 18.3535 11.7305 15.9971 11.7305C13.6407 11.7305 11.7305 13.6407 11.7305 15.9971C11.7305 18.3535 13.6407 20.2638 15.9971 20.2638Z" fill="#000088"/>
<path d="M15.999 19.7323C18.0608 19.7323 19.7323 18.0608 19.7323 15.999C19.7323 13.9371 18.0608 12.2656 15.999 12.2656C13.9371 12.2656 12.2656 13.9371 12.2656 15.999C12.2656 18.0608 13.9371 19.7323 15.999 19.7323Z" fill="white"/>
<path d="M15.9967 16.7433C16.409 16.7433 16.7433 16.409 16.7433 15.9967C16.7433 15.5843 16.409 15.25 15.9967 15.25C15.5843 15.25 15.25 15.5843 15.25 15.9967C15.25 16.409 15.5843 16.7433 15.9967 16.7433Z" fill="#000088"/>
<path d="M19.6754 16.6758C19.7776 16.6892 19.8714 16.6173 19.8848 16.515C19.8983 16.4128 19.8263 16.3191 19.7241 16.3056C19.6219 16.2922 19.5282 16.3641 19.5147 16.4663C19.5012 16.5685 19.5732 16.6623 19.6754 16.6758Z" fill="#000088"/>
<path d="M15.9991 19.7364L16.1271 17.4964L15.9991 16.4297L15.8711 17.4964L15.9991 19.7364Z" fill="#000088"/>
<path d="M19.3772 17.6038C19.4725 17.6433 19.5817 17.5981 19.6211 17.5028C19.6606 17.4076 19.6154 17.2984 19.5201 17.2589C19.4249 17.2195 19.3157 17.2647 19.2762 17.36C19.2368 17.4552 19.282 17.5644 19.3772 17.6038Z" fill="#000088"/>
<path d="M15.0334 19.6099L15.7368 17.4794L15.8893 16.4159L15.4896 17.4131L15.0334 19.6099Z" fill="#000088"/>
<path d="M18.8466 18.4254C18.9284 18.4882 19.0456 18.4728 19.1083 18.391C19.1711 18.3092 19.1557 18.192 19.0739 18.1293C18.9921 18.0665 18.8749 18.0819 18.8121 18.1637C18.7494 18.2455 18.7648 18.3627 18.8466 18.4254Z" fill="#000088"/>
<path d="M14.1333 19.2362L15.3642 17.3604L15.7866 16.3726L15.1424 17.2324L14.1333 19.2362Z" fill="#000088"/>
<path d="M18.1221 19.0746C18.1849 19.1564 18.3021 19.1718 18.3839 19.109C18.4657 19.0463 18.4811 18.9291 18.4183 18.8473C18.3556 18.7655 18.2384 18.7501 18.1566 18.8129C18.0748 18.8756 18.0594 18.9928 18.1221 19.0746Z" fill="#000088"/>
<path d="M13.3578 18.6396L15.0322 17.1462L15.696 16.3014L14.8512 16.9652L13.3578 18.6396Z" fill="#000088"/>
<path d="M17.2578 19.5185C17.2972 19.6137 17.4064 19.6589 17.5017 19.6195C17.5969 19.58 17.6421 19.4708 17.6027 19.3756C17.5632 19.2803 17.454 19.2351 17.3588 19.2746C17.2635 19.314 17.2183 19.4232 17.2578 19.5185Z" fill="#000088"/>
<path d="M12.7668 17.8657L14.7706 16.8566L15.6304 16.2124L14.6426 16.6349L12.7668 17.8657Z" fill="#000088"/>
<path d="M16.2988 19.7221C16.3122 19.8243 16.406 19.8962 16.5082 19.8828C16.6104 19.8693 16.6824 19.7756 16.6689 19.6734C16.6554 19.5711 16.5617 19.4992 16.4595 19.5126C16.3573 19.5261 16.2853 19.6199 16.2988 19.7221Z" fill="#000088"/>
<path d="M12.3899 16.9638L14.5867 16.5077L15.5839 16.108L14.5205 16.2604L12.3899 16.9638Z" fill="#000088"/>
<path d="M15.3282 19.6754C15.3147 19.7776 15.3866 19.8714 15.4889 19.8848C15.5911 19.8983 15.6848 19.8263 15.6983 19.7241C15.7117 19.6219 15.6398 19.5282 15.5376 19.5147C15.4354 19.5012 15.3416 19.5732 15.3282 19.6754Z" fill="#000088"/>
<path d="M12.2676 15.9991L14.5076 16.1271L15.5742 15.9991L14.5076 15.8711L12.2676 15.9991Z" fill="#000088"/>
<path d="M14.4001 19.3772C14.3606 19.4725 14.4058 19.5817 14.5011 19.6211C14.5963 19.6606 14.7055 19.6154 14.745 19.5201C14.7844 19.4249 14.7392 19.3157 14.6439 19.2762C14.5487 19.2368 14.4395 19.282 14.4001 19.3772Z" fill="#000088"/>
<path d="M12.394 15.0334L14.5245 15.7368L15.588 15.8893L14.5908 15.4896L12.394 15.0334Z" fill="#000088"/>
<path d="M13.5706 18.8466C13.5079 18.9284 13.5233 19.0456 13.6051 19.1083C13.6869 19.1711 13.8041 19.1557 13.8668 19.0739C13.9296 18.9921 13.9142 18.8749 13.8324 18.8121C13.7506 18.7494 13.6334 18.7648 13.5706 18.8466Z" fill="#000088"/>
<path d="M12.7598 14.1333L14.6357 15.3642L15.6235 15.7866L14.7637 15.1424L12.7598 14.1333Z" fill="#000088"/>
<path d="M12.9215 18.1221C12.8397 18.1849 12.8243 18.3021 12.8871 18.3839C12.9498 18.4657 13.067 18.4811 13.1488 18.4183C13.2306 18.3556 13.246 18.2384 13.1832 18.1566C13.1205 18.0748 13.0033 18.0594 12.9215 18.1221Z" fill="#000088"/>
<path d="M13.3565 13.3578L14.8499 15.0322L15.6946 15.696L15.0309 14.8512L13.3565 13.3578Z" fill="#000088"/>
<path d="M12.4737 17.2578C12.3785 17.2972 12.3333 17.4064 12.3727 17.5017C12.4122 17.5969 12.5214 17.6421 12.6166 17.6027C12.7119 17.5632 12.7571 17.454 12.7176 17.3588C12.6782 17.2635 12.569 17.2183 12.4737 17.2578Z" fill="#000088"/>
<path d="M14.1264 12.7668L15.1356 14.7706L15.7798 15.6304L15.3573 14.6426L14.1264 12.7668Z" fill="#000088"/>
<path d="M12.2701 16.2988C12.1679 16.3122 12.0959 16.406 12.1094 16.5082C12.1229 16.6104 12.2166 16.6824 12.3188 16.6689C12.421 16.6554 12.493 16.5617 12.4795 16.4595C12.4661 16.3573 12.3723 16.2853 12.2701 16.2988Z" fill="#000088"/>
<path d="M15.0283 12.3899L15.4845 14.5867L15.8842 15.5839L15.7317 14.5205L15.0283 12.3899Z" fill="#000088"/>
<path d="M12.3207 15.3242C12.2185 15.3108 12.1247 15.3827 12.1113 15.485C12.0978 15.5872 12.1698 15.6809 12.272 15.6944C12.3742 15.7078 12.4679 15.6359 12.4814 15.5337C12.4949 15.4315 12.4229 15.3377 12.3207 15.3242Z" fill="#000088"/>
<path d="M15.997 12.2636L15.869 14.5036L15.997 15.5703L16.125 14.5036L15.997 12.2636Z" fill="#000088"/>
<path d="M12.6188 14.3962C12.5236 14.3567 12.4144 14.4019 12.375 14.4972C12.3355 14.5924 12.3807 14.7016 12.476 14.7411C12.5712 14.7805 12.6804 14.7353 12.7199 14.64C12.7593 14.5448 12.7141 14.4356 12.6188 14.3962Z" fill="#000088"/>
<path d="M16.9627 12.3901L16.2593 14.5206L16.1068 15.5841L16.5065 14.5869L16.9627 12.3901Z" fill="#000088"/>
<path d="M13.1495 13.5746C13.0677 13.5118 12.9505 13.5272 12.8878 13.609C12.825 13.6908 12.8404 13.808 12.9222 13.8707C13.004 13.9335 13.1212 13.9181 13.1839 13.8363C13.2467 13.7545 13.2313 13.6373 13.1495 13.5746Z" fill="#000088"/>
<path d="M17.8628 12.7638L16.6319 14.6396L16.2095 15.6274L16.8536 14.7676L17.8628 12.7638Z" fill="#000088"/>
<path d="M13.874 12.9254C13.8112 12.8436 13.694 12.8282 13.6122 12.891C13.5304 12.9537 13.515 13.0709 13.5778 13.1527C13.6405 13.2345 13.7577 13.2499 13.8395 13.1871C13.9213 13.1244 13.9367 13.0072 13.874 12.9254Z" fill="#000088"/>
<path d="M18.6383 13.3604L16.9639 14.8538L16.3001 15.6986L17.1449 15.0348L18.6383 13.3604Z" fill="#000088"/>
<path d="M14.7422 12.4776C14.7028 12.3824 14.5936 12.3372 14.4983 12.3766C14.4031 12.4161 14.3579 12.5253 14.3973 12.6205C14.4368 12.7158 14.546 12.761 14.6412 12.7215C14.7365 12.6821 14.7817 12.5729 14.7422 12.4776Z" fill="#000088"/>
<path d="M19.2332 14.1303L17.2294 15.1395L16.3696 15.7837L17.3574 15.3612L19.2332 14.1303Z" fill="#000088"/>
<path d="M15.7012 12.274C15.6878 12.1718 15.594 12.0999 15.4918 12.1133C15.3896 12.1268 15.3176 12.2205 15.3311 12.3227C15.3446 12.425 15.4383 12.4969 15.5405 12.4834C15.6427 12.47 15.7147 12.3762 15.7012 12.274Z" fill="#000088"/>
<path d="M19.6101 15.0323L17.4133 15.4884L16.4161 15.8881L17.4795 15.7356L19.6101 15.0323Z" fill="#000088"/>
<path d="M16.6718 12.3207C16.6853 12.2185 16.6134 12.1247 16.5111 12.1113C16.4089 12.0978 16.3152 12.1698 16.3017 12.272C16.2883 12.3742 16.3602 12.4679 16.4624 12.4814C16.5646 12.4949 16.6584 12.4229 16.6718 12.3207Z" fill="#000088"/>
<path d="M19.7324 15.997L17.4924 15.869L16.4258 15.997L17.4924 16.125L19.7324 15.997Z" fill="#000088"/>
<path d="M17.5999 12.6188C17.6394 12.5236 17.5942 12.4144 17.4989 12.375C17.4037 12.3355 17.2945 12.3807 17.255 12.476C17.2156 12.5712 17.2608 12.6804 17.3561 12.7199C17.4513 12.7593 17.5605 12.7141 17.5999 12.6188Z" fill="#000088"/>
<path d="M19.606 16.9627L17.4755 16.2593L16.412 16.1068L17.4092 16.5065L19.606 16.9627Z" fill="#000088"/>
<path d="M18.4254 13.1495C18.4882 13.0677 18.4728 12.9505 18.391 12.8878C18.3092 12.825 18.192 12.8404 18.1293 12.9222C18.0665 13.004 18.0819 13.1212 18.1637 13.1839C18.2455 13.2467 18.3627 13.2313 18.4254 13.1495Z" fill="#000088"/>
<path d="M19.2362 17.8628L17.3604 16.6319L16.3726 16.2095L17.2324 16.8536L19.2362 17.8628Z" fill="#000088"/>
<path d="M19.0746 13.874C19.1564 13.8112 19.1718 13.694 19.109 13.6122C19.0463 13.5304 18.9291 13.515 18.8473 13.5778C18.7655 13.6405 18.7501 13.7577 18.8129 13.8395C18.8756 13.9213 18.9928 13.9367 19.0746 13.874Z" fill="#000088"/>
<path d="M18.6396 18.6383L17.1462 16.9639L16.3014 16.3001L16.9652 17.1449L18.6396 18.6383Z" fill="#000088"/>
<path d="M19.5224 14.7383C19.6176 14.6989 19.6628 14.5897 19.6234 14.4944C19.5839 14.3992 19.4747 14.354 19.3795 14.3934C19.2842 14.4329 19.239 14.5421 19.2785 14.6373C19.3179 14.7325 19.4271 14.7778 19.5224 14.7383Z" fill="#000088"/>
<path d="M17.8697 19.2293L16.8605 17.2254L16.2163 16.3657L16.6388 17.3534L17.8697 19.2293Z" fill="#000088"/>
<path d="M19.726 15.6973C19.8282 15.6839 19.9001 15.5901 19.8867 15.4879C19.8732 15.3857 19.7795 15.3137 19.6773 15.3272C19.575 15.3407 19.5031 15.4344 19.5166 15.5366C19.53 15.6388 19.6238 15.7108 19.726 15.6973Z" fill="#000088"/>
<path d="M16.9677 19.6062L16.5116 17.4094L16.1119 16.4122L16.2644 17.4756L16.9677 19.6062Z" fill="#000088"/>
</g>
<defs>
<clipPath id="clip0_229_300">
<rect width="32" height="32" rx="16" fill="white"/>
</clipPath>
</defs>
</svg>
