<svg width="32" height="32" viewBox="0 0 32 32" fill="none" xmlns="http://www.w3.org/2000/svg">
<circle cx="16" cy="16" r="16" fill="#D80027"/>
<g clip-path="url(#clip0_229_298)">
<path fill-rule="evenodd" clip-rule="evenodd" d="M8.83399e-06 16C8.83399e-06 17.957 0.352009 19.832 0.995009 21.565L16 22.956L31.005 21.566C31.648 19.831 32 17.956 32 16C32 14.043 31.648 12.168 31.005 10.435L16 9.04297L0.995009 10.435C0.334958 12.216 -0.0019892 14.1006 8.83399e-06 16Z" fill="#FFDA44"/>
<path fill-rule="evenodd" clip-rule="evenodd" d="M21.5005 16L21.9925 13.456C22.0375 13.222 21.8825 13 21.6735 13H21.3275C21.1175 13 20.9635 13.222 21.0075 13.456L21.5005 16Z" fill="#AD1519"/>
<path fill-rule="evenodd" clip-rule="evenodd" d="M21 15H22V21H21V15Z" fill="#E6E6E6"/>
<path fill-rule="evenodd" clip-rule="evenodd" d="M21 14H23V15H21V14Z" fill="#FAB446"/>
<path fill-rule="evenodd" clip-rule="evenodd" d="M19.5229 16.1444H22.9629V16.8374H19.5229V16.1444ZM22.9619 18.9184L20.8999 18.2244V17.5314L22.9629 18.2244L22.9619 18.9184ZM11.6129 16.1444L12.1959 13.4984C12.2086 13.4416 12.2084 13.3827 12.1953 13.326C12.1823 13.2692 12.1567 13.2161 12.1204 13.1706C12.0842 13.125 12.0382 13.0882 11.9859 13.0627C11.9335 13.0372 11.8761 13.0238 11.8179 13.0234H11.4079C11.3496 13.0237 11.2921 13.037 11.2396 13.0624C11.1872 13.0878 11.141 13.1246 11.1047 13.1702C11.0683 13.2158 11.0426 13.2689 11.0295 13.3257C11.0164 13.3825 11.0162 13.4415 11.0289 13.4984L11.6129 16.1444Z" fill="#AD1519"/>
<path fill-rule="evenodd" clip-rule="evenodd" d="M13.7 14C13.313 14 13 14.326 13 14.727V19.455C13 20.338 13.794 22 16.5 22C19.206 22 20 20.338 20 19.455V14.727C20.0035 14.5378 19.9317 14.3549 19.8005 14.2186C19.6692 14.0823 19.4892 14.0037 19.3 14H13.7Z" fill="#E6E6E6"/>
<path fill-rule="evenodd" clip-rule="evenodd" d="M16.4653 17.4631H13.0703V14.7231C13.0703 14.3461 13.3743 14.0391 13.7493 14.0391H16.4653V17.4631ZM16.4653 17.4631H19.8603V19.1741C19.8603 20.1201 19.1003 20.8861 18.1623 20.8861C17.7103 20.8839 17.2776 20.7024 16.9594 20.3814C16.6412 20.0603 16.4635 19.6261 16.4653 19.1741V17.4631Z" fill="#AD1519"/>
<path fill-rule="evenodd" clip-rule="evenodd" d="M13 18H16V19.5C16 19.8978 15.842 20.2794 15.5607 20.5607C15.2794 20.842 14.8978 21 14.5 21C14.1022 21 13.7206 20.842 13.4393 20.5607C13.158 20.2794 13 19.8978 13 19.5V18Z" fill="#FAB446"/>
<path fill-rule="evenodd" clip-rule="evenodd" d="M15.9457 21.3157V18.0547H15.3157V21.6507C15.5497 21.5957 15.7617 21.4767 15.9457 21.3157ZM14.6847 21.6507V18.0547H14.0547V21.3157C14.2377 21.4757 14.4497 21.5957 14.6847 21.6507Z" fill="#AD1519"/>
<path fill-rule="evenodd" clip-rule="evenodd" d="M14 16H16V17H14V16Z" fill="#FFB441"/>
<path fill-rule="evenodd" clip-rule="evenodd" d="M14.0547 15.0312H15.9467V15.8342H14.0547V15.0312Z" fill="#FAB446"/>
<path fill-rule="evenodd" clip-rule="evenodd" d="M14.3711 15.5078H15.6311V16.9618H14.3711V15.5078Z" fill="#FAB446"/>
<path fill-rule="evenodd" clip-rule="evenodd" d="M11 15H12V21H11V15Z" fill="#E6E6E6"/>
<path fill-rule="evenodd" clip-rule="evenodd" d="M10.043 20.2021H11.935V20.8861H10.043V20.2021ZM10.043 14.0391H11.935V15.0391H10.043V14.0391Z" fill="#FAB446"/>
<path fill-rule="evenodd" clip-rule="evenodd" d="M10 21H13V22H10V21Z" fill="#5064AA"/>
<path fill-rule="evenodd" clip-rule="evenodd" d="M21 20H23V21H21V20Z" fill="#FAB446"/>
<path fill-rule="evenodd" clip-rule="evenodd" d="M20 21H23V22H20V21Z" fill="#5064AA"/>
<path fill-rule="evenodd" clip-rule="evenodd" d="M15 13H19V14H15V13Z" fill="#FAB446"/>
<path fill-rule="evenodd" clip-rule="evenodd" d="M16 11H17V13H16V11Z" fill="#FFB441"/>
<path fill-rule="evenodd" clip-rule="evenodd" d="M15.603 11.9773C14.995 11.9773 14.5 11.5493 14.5 11.0233C14.5 10.4973 14.995 10.0703 15.603 10.0703C16.212 10.0703 16.707 10.4973 16.707 11.0233C16.707 11.5493 16.212 11.9773 15.603 11.9773ZM15.603 10.7053C15.4 10.7053 15.236 10.8483 15.236 11.0233C15.236 11.1993 15.4 11.3413 15.603 11.3413C15.806 11.3413 15.971 11.1993 15.971 11.0233C15.971 10.8483 15.806 10.7053 15.603 10.7053Z" fill="#E6E6E6"/>
<path fill-rule="evenodd" clip-rule="evenodd" d="M17.0727 11.9773C16.4637 11.9773 15.9688 11.5493 15.9688 11.0233C15.9688 10.4973 16.4637 10.0703 17.0727 10.0703C17.6807 10.0703 18.1758 10.4973 18.1758 11.0233C18.1758 11.5493 17.6807 11.9773 17.0727 11.9773ZM17.0727 10.7053C16.8697 10.7053 16.7047 10.8483 16.7047 11.0233C16.7047 11.1993 16.8697 11.3413 17.0727 11.3413C17.2757 11.3413 17.4407 11.1993 17.4407 11.0233C17.4407 10.8483 17.2757 10.7053 17.0727 10.7053Z" fill="#E6E6E6"/>
<path fill-rule="evenodd" clip-rule="evenodd" d="M18.5443 12.615C17.9353 12.615 17.4413 12.187 17.4413 11.661C17.4413 11.135 17.9363 10.707 18.5443 10.707C19.1523 10.707 19.6473 11.135 19.6473 11.661C19.6473 12.187 19.1523 12.615 18.5443 12.615ZM18.5443 11.343C18.3413 11.343 18.1763 11.486 18.1763 11.661C18.1763 11.836 18.3413 11.979 18.5443 11.979C18.7473 11.979 18.9123 11.836 18.9123 11.661C18.9123 11.486 18.7473 11.343 18.5443 11.343ZM14.1303 12.615C13.5223 12.615 13.0273 12.187 13.0273 11.661C13.0273 11.135 13.5223 10.707 14.1303 10.707C14.7393 10.707 15.2343 11.135 15.2343 11.661C15.2343 12.187 14.7393 12.615 14.1303 12.615ZM14.1303 11.343C13.9273 11.343 13.7623 11.486 13.7623 11.661C13.7623 11.836 13.9273 11.979 14.1303 11.979C14.3333 11.979 14.4983 11.836 14.4983 11.661C14.4983 11.486 14.3333 11.343 14.1303 11.343Z" fill="#E6E6E6"/>
<path fill-rule="evenodd" clip-rule="evenodd" d="M18.333 18.667V19C18.3265 19.0839 18.2886 19.1622 18.2269 19.2193C18.1651 19.2764 18.0841 19.3082 18 19.3082C17.9159 19.3082 17.8349 19.2764 17.7731 19.2193C17.7114 19.1622 17.6735 19.0839 17.667 19V18.667H18.333ZM19 18H17V19C17.0115 19.2575 17.1219 19.5006 17.3082 19.6787C17.4945 19.8569 17.7423 19.9563 18 19.9563C18.2577 19.9563 18.5055 19.8569 18.6918 19.6787C18.8781 19.5006 18.9885 19.2575 19 19V18Z" fill="#FAB446"/>
<path fill-rule="evenodd" clip-rule="evenodd" d="M18.5 17C18.224 17 18 16.701 18 16.333V15.667C18 15.299 18.224 15 18.5 15C18.776 15 19 15.299 19 15.667V16.333C19 16.701 18.776 17 18.5 17Z" fill="#FFA0D2"/>
<path d="M17 19C17.5523 19 18 18.5523 18 18C18 17.4477 17.5523 17 17 17C16.4477 17 16 17.4477 16 18C16 18.5523 16.4477 19 17 19Z" fill="#5064AA"/>
<path fill-rule="evenodd" clip-rule="evenodd" d="M16 10H17V12H16V10Z" fill="#FAB446"/>
<path fill-rule="evenodd" clip-rule="evenodd" d="M14.625 13L14 12.333L14.366 11.943C14.638 11.6478 14.9678 11.4118 15.3349 11.2495C15.702 11.0873 16.0986 11.0024 16.5 11C17.3 11 18.068 11.34 18.634 11.943L19 12.333L18.375 13H14.625Z" fill="#AD1519"/>
<path d="M17.0039 13.4844C17.5562 13.4844 18.0039 13.0367 18.0039 12.4844C18.0039 11.9321 17.5562 11.4844 17.0039 11.4844C16.4516 11.4844 16.0039 11.9321 16.0039 12.4844C16.0039 13.0367 16.4516 13.4844 17.0039 13.4844Z" fill="#FFD250"/>
<path d="M15.4688 13.4844C16.021 13.4844 16.4688 13.0367 16.4688 12.4844C16.4688 11.9321 16.021 11.4844 15.4688 11.4844C14.9165 11.4844 14.4688 11.9321 14.4688 12.4844C14.4688 13.0367 14.9165 13.4844 15.4688 13.4844Z" fill="#FFD250"/>
<path d="M18.5391 13.4844C19.0913 13.4844 19.5391 13.0367 19.5391 12.4844C19.5391 11.9321 19.0913 11.4844 18.5391 11.4844C17.9868 11.4844 17.5391 11.9321 17.5391 12.4844C17.5391 13.0367 17.9868 13.4844 18.5391 13.4844Z" fill="#FFD250"/>
<path fill-rule="evenodd" clip-rule="evenodd" d="M10.0508 16H13.6548V16.636H10.0508V16ZM10.0508 18.543L12.2128 17.907V17.272L10.0518 17.907L10.0508 18.543Z" fill="#AD1519"/>
</g>
<defs>
<clipPath id="clip0_229_298">
<rect width="32" height="32" fill="white"/>
</clipPath>
</defs>
</svg>
