<svg width="56" height="56" viewBox="0 0 56 56" fill="none" xmlns="http://www.w3.org/2000/svg">
<g clip-path="url(#clip0_450_292)">
<path d="M0 0H56V56H0V0Z" fill="#0090BA"/>
<path d="M35.28 15.9912H42L35.7778 33.1957C35.6943 33.4251 35.5418 33.623 35.3412 33.7623C35.1407 33.9016 34.9019 33.9753 34.6578 33.9734H28.0622C28.2847 33.9512 28.4964 33.8663 28.6726 33.7287C28.8488 33.591 28.9824 33.4062 29.0578 33.1957L35.28 15.9912ZM27.5022 33.7245C27.2829 33.7235 27.0686 33.6581 26.8861 33.5365C26.7036 33.4148 26.5609 33.2422 26.4756 33.0401L25.1378 29.3379L27.44 23.0223C27.5097 22.8002 27.647 22.6054 27.8326 22.4649C28.0182 22.3244 28.2429 22.2452 28.4756 22.2383C28.7083 22.2315 28.9374 22.2973 29.1309 22.4267C29.3245 22.556 29.4729 22.7425 29.5556 22.9601L30.8933 26.6623L28.5911 32.9779C28.5138 33.1965 28.3705 33.3858 28.181 33.5195C27.9916 33.6533 27.7653 33.7249 27.5333 33.7245H27.5022ZM28 22.0268C27.5022 22.0268 27.0978 22.3379 26.9422 22.8045L20.72 40.009H14L20.2222 22.8045C20.4089 22.3379 20.8444 22.0268 21.3422 22.0268H28Z" fill="white"/>
</g>
<defs>
<clipPath id="clip0_450_292">
<rect width="56" height="56" rx="28" fill="white"/>
</clipPath>
</defs>
</svg>
