<svg width="89" height="15" viewBox="0 0 89 15" fill="none" xmlns="http://www.w3.org/2000/svg">
<g clip-path="url(#clip0_185_100)">
<path d="M82.5023 6.54596C82.0005 6.88999 81.2723 7.06008 80.2759 7.06008H79.8435H79.2878L80.0456 3.03433H80.4295H80.7722C81.5992 3.03433 82.2034 3.16528 82.6196 3.43105C82.9449 3.63948 83.3305 4.0521 83.3305 4.83509C83.3305 5.77847 82.8819 6.286 82.5023 6.54596ZM23.5567 11.5984H15.9096L16.4039 8.96699H21.2004L21.7454 6.00318H16.995L17.4542 3.39889H25.0879L23.5567 11.5984ZM86.6218 1.14019C85.4974 0.382007 83.796 0 81.5654 0H75.7233L73.5517 11.5988H65.8987L66.3894 8.96737H71L71.5482 6.0117L66.9404 6.01983L67.4339 3.39966H72.1819L72.8136 0.000385714H63.1687L61.1074 11.0037H57.5708L59.647 0.000385714H54.6048L52.5435 11.0037H49.0951L51.1733 0.000385714H46.1362L43.9591 11.5992H36.2518L36.7374 8.96777H41.3689L41.9144 6.02913L37.29 6.02487L37.7811 3.39966H42.5819L43.2105 0.000385714H13.1623L11.4518 9.19209L8.04441 0H2.81472L0 15H4.99418L6.69751 5.5557L10.0045 15H27.905L30.0809 3.39928H32.8818L30.7047 15H77.8062L79.1705 7.67648L81.3818 15H86.3788L84.0894 9.01619L84.612 8.90501C85.7636 8.66248 86.6651 8.13984 87.2905 7.35685C87.9171 6.5665 88.2353 5.55182 88.2353 4.33297C88.2357 2.91345 87.7087 1.86972 86.6218 1.14019Z" fill="#7BB928"/>
</g>
<defs>
<clipPath id="clip0_185_100">
<rect width="89" height="15" fill="white"/>
</clipPath>
</defs>
</svg>
