<svg width="129" height="18" viewBox="0 0 129 18" fill="none" xmlns="http://www.w3.org/2000/svg">
<g clip-path="url(#clip0_258_153)">
<mask id="mask0_258_153" style="mask-type:luminance" maskUnits="userSpaceOnUse" x="0" y="0" width="129" height="18">
<path d="M128.26 0.875H0.378906V17.129H128.26V0.875Z" fill="white"/>
</mask>
<g mask="url(#mask0_258_153)">
<path d="M84.034 16.6993C82.5071 16.6993 81.0449 16.6993 79.5318 16.6993C79.5318 15.5445 79.5318 14.4139 79.5318 13.2329C78.9563 13.2329 78.4288 13.2329 77.8633 13.2329C77.8633 12.3979 77.8633 11.6124 77.8633 10.7755C78.3746 10.7755 78.902 10.7755 79.4778 10.7755C79.4778 7.56967 79.4778 4.41409 79.4778 1.20939C79.7079 1.19665 79.8925 1.17769 80.0772 1.17754C82.4898 1.17555 84.9036 1.13117 87.3146 1.19246C88.856 1.23164 90.384 1.52487 91.5305 2.67595C93.1304 4.28226 93.0306 7.45385 90.5438 8.66827C90.9865 8.96822 91.3962 9.22423 91.7825 9.51175C92.823 10.2862 93.3257 11.8091 93.0645 13.0349C92.5057 15.6573 90.2759 16.6015 88.2988 16.6875C86.9012 16.7483 85.4989 16.6993 84.034 16.6993ZM85.8989 7.77352C86.3613 7.7304 86.8229 7.67042 87.2863 7.64751C88.4193 7.5915 89.0662 6.85174 89.1987 6.14271C89.3821 5.16138 88.9185 4.31313 87.7984 4.19449C86.1392 4.01873 84.4476 4.14902 82.776 4.14902C82.776 5.31201 82.776 6.52742 82.776 7.77352C83.7983 7.77352 84.7853 7.77352 85.8989 7.77352ZM85.6508 10.102C84.6425 10.102 83.6341 10.102 82.6558 10.102C82.4728 10.7783 82.7749 10.9333 83.3228 10.8833C83.6352 10.8548 83.9523 10.8782 84.339 10.8782C84.339 11.6877 84.339 12.4237 84.339 13.2283C83.8409 13.2283 83.2937 13.2283 82.7613 13.2283C82.7613 13.507 82.7613 13.7173 82.7613 13.8527C84.5538 13.8527 86.3257 13.8872 88.0951 13.8357C88.8024 13.8151 89.5139 12.9296 89.604 12.253C89.7295 11.3099 89.0985 10.4906 88.4142 10.3724C87.5465 10.2224 86.659 10.1869 85.6508 10.102Z" fill="#1AA6BA"/>
<path d="M41.9969 15.391C40.3755 10.6443 38.7564 5.95039 37.1094 1.17593C37.7362 1.17593 38.2359 1.12862 38.7188 1.19824C38.9239 1.22781 39.1945 1.46761 39.2646 1.67078C40.5155 5.29673 41.7409 8.93152 42.9682 12.5656C43.0213 12.7229 43.0402 12.8917 43.2263 13.118C43.3758 12.7026 43.5515 12.2945 43.6704 11.8705C44.3713 9.37176 45.0582 6.86911 45.7515 4.36823C46.0065 3.44819 46.2715 2.53084 46.5206 1.60921C46.6011 1.31115 46.7234 1.16417 47.0788 1.16433C48.1327 1.16481 48.1506 1.13919 48.4213 2.12201C49.3917 5.64506 50.3481 9.17195 51.3141 12.6962C51.3466 12.8148 51.4259 12.9205 51.5362 13.135C51.6941 12.6835 51.8292 12.3078 51.9571 11.9297C53.093 8.57066 54.2361 5.21395 55.3538 1.84882C55.5208 1.34607 55.7695 1.11244 56.3103 1.16824C56.6919 1.20761 57.0808 1.17585 57.5746 1.17585C57.4135 1.74372 57.2953 2.26001 57.1213 2.75677C56.4017 4.81102 55.6555 6.85596 54.9374 8.91074C54.0622 11.4153 53.2019 13.9251 52.3452 16.4361C52.2401 16.7439 52.0735 16.8373 51.7496 16.8373C50.5687 16.837 50.5733 16.8494 50.255 15.7378C49.3636 12.6251 48.4671 9.51383 47.5766 6.40089C47.5375 6.26408 47.5374 6.11611 47.4068 5.94454C46.6668 7.67928 46.2322 9.50574 45.7273 11.3115C45.2144 13.1457 44.653 14.9664 44.1088 16.8067C44.1088 16.8067 44.0899 16.8225 44.0701 16.8232C42.5946 16.8787 42.5946 16.8786 41.9969 15.391Z" fill="#253D4B"/>
<path d="M117.845 15.6328C115.949 14.2319 114.995 12.3861 114.669 10.1002C114.334 7.74874 114.941 5.68457 116.286 3.83307C117.418 2.27475 119.066 1.40353 120.94 1.06371C122.64 0.755595 124.356 0.786569 125.99 1.44418C126.66 1.71369 127.296 2.07918 127.918 2.44983C128.256 2.65072 128.423 2.90669 128.045 3.32273C127.585 3.82729 127.262 4.45344 126.825 4.98157C126.726 5.10125 126.331 5.13464 126.191 5.03694C125.037 4.22669 123.77 3.92596 122.375 4.01555C120.331 4.14678 118.476 5.66836 118.058 7.75266C117.772 9.18077 117.922 10.5367 118.702 11.8032C119.439 13.0003 120.492 13.7705 121.865 13.9612C123.352 14.1676 124.814 14.0161 126.084 13.0757C126.151 13.0258 126.229 12.9861 126.286 12.927C126.361 12.85 126.422 12.7582 126.524 12.6265C127.065 13.3684 127.595 14.0408 128.055 14.7578C128.217 15.0096 128.277 15.3222 127.899 15.6129C126.768 16.4829 125.464 16.9265 124.097 17.0617C122.166 17.2526 120.263 17.0378 118.527 16.0436C118.31 15.9198 118.099 15.7878 117.845 15.6328Z" fill="#1AA6BA"/>
<path d="M3.67012 6.77005C3.18504 6.2523 2.73244 5.76691 2.17311 5.16705C2.17311 9.1448 2.17311 12.9465 2.17311 16.788C1.55894 16.788 0.988979 16.788 0.378906 16.788C0.378906 11.6217 0.378906 6.4383 0.378906 1.25211C0.901738 1.17091 1.30324 1.38991 1.73866 2.00494C1.8349 2.14087 1.91688 2.29102 2.03171 2.40905C3.8144 4.24148 5.61169 6.05981 7.38408 7.90211C8.73269 9.3039 10.0501 10.7356 11.384 12.1517C11.5269 12.3034 11.6866 12.4392 11.9401 12.6781C11.9401 8.78431 11.9401 5.0151 11.9401 1.21094C12.6255 1.21094 13.2385 1.21094 13.8871 1.21094C13.8871 6.39206 13.8871 11.5764 13.8871 16.9585C13.4986 16.73 13.126 16.6036 12.8818 16.3525C11.0149 14.4329 9.17539 12.4866 7.32247 10.5534C6.12012 9.29901 4.9095 8.05249 3.67012 6.77005Z" fill="#253D4B"/>
<path d="M21.8511 1.17352C25.5279 1.17351 29.1431 1.17351 32.7835 1.17351C32.7835 1.79441 32.7835 2.36413 32.7835 2.98486C29.6013 2.98486 26.4444 2.98486 23.2626 2.98486C23.2626 4.72653 23.2626 6.41717 23.2626 8.15893C26.0567 8.15893 28.8256 8.15893 31.6192 8.15893C31.6192 8.77979 31.6192 9.34952 31.6192 9.97035C28.8251 9.97035 26.0562 9.97035 23.2627 9.97035C23.2627 11.669 23.2627 13.3166 23.2627 15.0151C26.4449 15.0151 29.6018 15.0151 32.7834 15.0151C32.7834 15.6359 32.7834 16.2056 32.7834 16.8259C32.4192 16.8259 32.08 16.8259 31.7407 16.8259C28.486 16.8259 25.2312 16.8137 21.9767 16.8379C21.4304 16.8419 21.283 16.6797 21.2852 16.1414C21.3045 11.378 21.2969 6.61441 21.2954 1.8509C21.2953 1.49961 21.2379 1.11721 21.8511 1.17352Z" fill="#253D4B"/>
<path d="M99.3013 1.17671C103.113 1.17671 106.86 1.17671 110.646 1.17671C110.646 2.11597 110.646 3.03078 110.646 3.99705C109.011 3.99705 107.364 3.99705 105.666 3.99705C105.666 8.28129 105.666 12.5151 105.666 16.8277C104.658 16.8277 103.697 16.8505 102.739 16.7993C102.617 16.7928 102.421 16.4003 102.419 16.1853C102.397 13.4918 102.405 10.7981 102.405 8.10438C102.405 6.77039 102.405 5.43641 102.405 4.02261C101.014 4.02261 99.6442 4.02263 98.2746 4.0226C97.3598 4.02258 97.3598 4.02255 97.3598 3.12048C97.3597 2.62484 97.3217 2.12462 97.3806 1.63609C97.4009 1.46799 97.6489 1.21964 97.8175 1.19775C98.2837 1.13721 98.7628 1.17674 99.3013 1.17671Z" fill="#1AA6BA"/>
<path d="M65.1772 15.015C66.8194 15.4974 68.4267 15.518 69.9837 14.9799C71.5461 14.44 72.0066 12.8432 71.0799 11.4306C70.8423 11.0686 70.3695 10.7946 69.9464 10.6324C68.382 10.0326 66.7816 9.52668 65.2172 8.92679C64.0173 8.46668 62.8873 7.90171 62.2579 6.6468C61.598 5.33113 62.0527 3.09674 63.2653 2.16792C64.2501 1.41362 65.3506 1.04889 66.4979 0.948723C68.483 0.775432 70.4636 0.933462 72.3044 1.83271C72.6021 1.97813 72.8702 2.18426 73.2277 2.41027C72.8894 2.9272 72.5659 3.42126 72.2198 3.95004C70.6056 3.00245 68.9101 2.61089 67.1101 2.7344C66.097 2.80392 65.1282 3.03186 64.3829 3.81534C63.5133 4.72949 63.6782 6.08178 64.8407 6.59939C66.1025 7.16128 67.4366 7.56096 68.7386 8.03306C69.9857 8.48529 71.2502 8.84705 72.3008 9.76937C73.1304 10.4977 73.4725 11.3775 73.5435 12.3793C73.7308 15.0234 72.1234 16.5533 69.6502 16.9506C67.4235 17.3082 65.2361 17.1686 63.1716 16.1668C62.7264 15.9507 62.3369 15.6198 61.8672 15.3052C62.1962 14.8191 62.5198 14.3411 62.8329 13.8786C63.6164 14.2667 64.3697 14.6399 65.1772 15.015Z" fill="#253D4B"/>
</g>
</g>
<defs>
<clipPath id="clip0_258_153">
<rect width="129" height="18" fill="white"/>
</clipPath>
</defs>
</svg>
