<svg width="56" height="56" viewBox="0 0 56 56" fill="none" xmlns="http://www.w3.org/2000/svg">
<g clip-path="url(#clip0_228_47)">
<path d="M56 28C56 12.536 43.464 0 28 0C12.536 0 0 12.536 0 28C0 43.464 12.536 56 28 56C43.464 56 56 43.464 56 28Z" fill="#77B900"/>
<path fill-rule="evenodd" clip-rule="evenodd" d="M20.924 22.898V20.507C21.157 20.49 21.391 20.477 21.63 20.47C28.169 20.265 32.459 26.09 32.459 26.09C32.459 26.09 27.825 32.525 22.857 32.525C22.2001 32.5279 21.5471 32.4231 20.924 32.215V24.965C23.47 25.273 23.982 26.398 25.513 28.949L28.916 26.079C28.916 26.079 26.432 22.82 22.243 22.82C21.788 22.82 21.353 22.852 20.924 22.898ZM20.924 15V18.57C21.159 18.553 21.394 18.537 21.63 18.53C30.723 18.223 36.648 25.987 36.648 25.987C36.648 25.987 29.843 34.262 22.754 34.262C22.104 34.262 21.496 34.202 20.924 34.1V36.308C21.413 36.37 21.92 36.407 22.448 36.407C29.045 36.407 33.816 33.037 38.436 29.05C39.202 29.663 42.338 31.155 42.982 31.809C38.59 35.486 28.352 38.451 22.549 38.451C21.989 38.451 21.453 38.417 20.924 38.366V41.468H46V15H20.924ZM20.924 32.215V34.1C14.823 33.012 13.129 26.67 13.129 26.67C13.129 26.67 16.059 23.424 20.924 22.898V24.965H20.915C18.361 24.658 16.366 27.044 16.366 27.044C16.366 27.044 17.484 31.059 20.924 32.215ZM10.087 26.395C10.087 26.395 13.703 21.06 20.924 20.507V18.57C12.926 19.212 6 25.987 6 25.987C6 25.987 9.923 37.327 20.924 38.366V36.308C12.851 35.292 10.087 26.395 10.087 26.395Z" fill="#F7F9FA"/>
</g>
<defs>
<clipPath id="clip0_228_47">
<rect width="56" height="56" fill="white"/>
</clipPath>
</defs>
</svg>
