<svg width="60" height="17" viewBox="0 0 60 17" fill="none" xmlns="http://www.w3.org/2000/svg">
<g clip-path="url(#clip0_47_132)">
<path d="M18.2485 16.2289H18.7811C18.7811 16.4041 18.9586 16.5794 19.2071 16.5794C19.4556 16.5794 19.5976 16.4392 19.5976 16.2639C19.5976 16.1237 19.4911 16.0186 19.2781 15.9484L18.9586 15.8433C18.3905 15.7031 18.284 15.3526 18.284 15.1072C18.284 14.6515 18.6746 14.301 19.2071 14.301C19.7397 14.301 20.0947 14.6165 20.0947 15.1072H19.5266C19.5266 14.932 19.3846 14.7917 19.1716 14.7917C18.9586 14.7917 18.8166 14.932 18.8166 15.1072C18.8166 15.1773 18.8521 15.3175 19.1006 15.3876L19.3846 15.4577C19.7752 15.5629 20.1302 15.7732 20.1302 16.2289C20.1302 16.7546 19.6687 17.035 19.1716 17.035C18.6391 17.035 18.2485 16.6845 18.2485 16.2289Z" fill="white"/>
<path d="M24.1775 17H23.645L23.432 15.3525L22.7929 16.6845H22.3669L21.7278 15.3525L21.5503 16.9649H21.0178L21.3018 14.3711H21.7633L22.5799 16.0886L23.3965 14.3711H23.858L24.1775 17Z" fill="white"/>
<path d="M26.8403 17L26.6273 16.369H25.6332L25.4202 17H24.8521L25.8462 14.3711H26.4142L27.4083 17H26.8403ZM25.7752 15.9134H26.4497L26.0947 14.9319L25.7752 15.9134Z" fill="white"/>
<path d="M29.5385 17L28.8995 16.0536H28.7219V17H28.1894V14.3711H29.2545C29.858 14.3711 30.1066 14.7917 30.1066 15.2123C30.1066 15.5979 29.858 15.9484 29.4675 16.0185L30.1421 16.9649L29.5385 17ZM28.7219 14.8268V15.5979H29.148C29.432 15.5979 29.574 15.4226 29.574 15.2123C29.574 15.002 29.432 14.8268 29.1835 14.8268H28.7219Z" fill="white"/>
<path d="M32.8403 14.3711V14.8268H32.0947V16.9649H31.5622V14.8268H30.8166V14.3711H32.8403Z" fill="white"/>
<path d="M34.2604 16.5092H35.432V16.9649H33.7278V14.3711H35.3965V14.8268H34.2604V15.4577H35.2545V15.9484H34.2604V16.5092Z" fill="white"/>
<path d="M37.8107 17L37.1716 16.0536H36.9941V17H36.4615V14.3711H37.5266C38.1302 14.3711 38.3787 14.7917 38.3787 15.2123C38.3787 15.5979 38.1302 15.9484 37.7397 16.0185L38.4142 16.9649L37.8107 17ZM36.9941 14.8268V15.5979H37.4201C37.7042 15.5979 37.8462 15.4226 37.8462 15.2123C37.8462 15.002 37.7042 14.8268 37.4556 14.8268H36.9941Z" fill="white"/>
<path d="M42.426 14.3711V14.8268H41.6805V16.9649H41.1834V14.8268H40.4379V14.3711H42.426Z" fill="white"/>
<path d="M44.6982 17L44.0592 16.0536H43.8817V17H43.3491V14.3711H44.4142C45.0178 14.3711 45.2663 14.7917 45.2663 15.2123C45.2663 15.5979 45.0178 15.9484 44.6272 16.0185L45.3018 16.9649L44.6982 17ZM43.8817 14.8268V15.5979H44.3077C44.5917 15.5979 44.7337 15.4226 44.7337 15.2123C44.7337 15.002 44.5917 14.8268 44.3432 14.8268H43.8817Z" fill="white"/>
<path d="M47.929 17L47.716 16.369H46.7219L46.5089 17H45.9409L46.9349 14.3711H47.503L48.4971 17H47.929ZM46.8639 15.9134H47.5385L47.1835 14.9319L46.8639 15.9134Z" fill="white"/>
<path d="M50.3432 14.3711C51.0887 14.3711 51.5503 14.9319 51.5503 15.668C51.5503 16.4041 51.1243 16.9649 50.3432 16.9649H49.3136V14.3711H50.3432ZM50.3432 16.5092C50.7692 16.5092 51.0177 16.1237 51.0177 15.668C51.0177 15.2123 50.8047 14.8268 50.3432 14.8268H49.8461V16.5092H50.3432Z" fill="white"/>
<path d="M52.5444 17V14.3711H53.0769V17H52.5444Z" fill="white"/>
<path d="M55.6686 14.3711H56.2012V17H55.7041L54.7456 15.3525V17H54.213V14.3711H54.7101L55.6686 15.9835V14.3711Z" fill="white"/>
<path d="M57.1598 15.668C57.1598 14.932 57.7633 14.301 58.5089 14.301C58.8994 14.301 59.2545 14.4763 59.503 14.7216L59.1125 15.0371C58.9704 14.8619 58.7574 14.7917 58.5089 14.7917C58.0474 14.7917 57.6923 15.1773 57.6923 15.668C57.6923 16.1237 58.0474 16.5443 58.5444 16.5443C58.8994 16.5443 59.219 16.334 59.219 16.0186H58.4734V15.5979H59.8225C59.8225 16.5794 59.29 17 58.5444 17C57.7633 17.035 57.1598 16.4392 57.1598 15.668Z" fill="white"/>
<path d="M21.7988 3.71545C19.5621 3.71545 17.7515 5.53813 17.7515 7.74638C17.7515 9.95463 19.5621 11.8124 21.7988 11.8124C24.0355 11.8124 25.8461 9.98968 25.8461 7.74638C25.8461 5.50308 24.0355 3.71545 21.7988 3.71545ZM21.7988 10.0247C20.5562 10.0247 19.6686 9.07834 19.6686 7.74638C19.6686 6.41442 20.5562 5.46803 21.7988 5.46803C23.0414 5.46803 23.929 6.44947 23.929 7.74638C23.929 9.04329 23.0059 10.0247 21.7988 10.0247Z" fill="white"/>
<path d="M40.5799 3.82056V7.67623L37.7041 3.82056H35.8935V11.6721H37.9172V7.74633L40.8639 11.6721H42.6036V3.82056H40.5799Z" fill="white"/>
<path d="M47.645 3.82056H44.3432V11.6371H47.645C49.8107 11.6371 51.2663 10.0597 51.2663 7.74633C51.2663 5.43293 49.8107 3.82056 47.645 3.82056ZM46.3314 5.60819H47.645C48.7456 5.60819 49.2426 6.72984 49.2426 7.74633C49.2426 8.76283 48.7456 9.88447 47.645 9.88447H46.3314V5.60819Z" fill="white"/>
<path d="M32.5562 11.6722H34.7219L31.4911 3.85571H30.497H29.5029L26.2722 11.6722H28.4023L29.0414 9.88458H31.8816L32.5562 11.6722ZM29.6804 8.132L30.4615 5.99386L31.2426 8.132H29.6804Z" fill="white"/>
<path d="M57.8343 11.6722H60L56.7692 3.85571H55.7751H54.7811L51.5503 11.6722H53.716L54.355 9.88458H57.1953L57.8343 11.6722ZM54.9586 8.132L55.7396 5.99386L56.5207 8.132H54.9586Z" fill="white"/>
<path d="M3.40828 10.4454H1.1716L0 6.099H2.27219L3.40828 10.4454Z" fill="white"/>
<path d="M13.0651 6.69485H10.7929L12.6036 0H14.8757L13.0651 6.69485Z" fill="#00D37E"/>
<path d="M8.52072 3.36499L6.60356 10.4104L5.46747 14.5464H7.70416H7.73966L10.7929 3.36499H8.52072Z" fill="#00D37E"/>
<path d="M5.85801 7.74634H3.58582L5.43197 14.5463H5.46747H7.70416L5.85801 7.74634Z" fill="white"/>
</g>
<defs>
<clipPath id="clip0_47_132">
<rect width="60" height="17" fill="white"/>
</clipPath>
</defs>
</svg>
