<svg width="56" height="56" viewBox="0 0 56 56" fill="none" xmlns="http://www.w3.org/2000/svg">
<g clip-path="url(#clip0_228_46)">
<path d="M28 55.5C43.1878 55.5 55.5 43.1878 55.5 28C55.5 12.8122 43.1878 0.5 28 0.5C12.8122 0.5 0.5 12.8122 0.5 28C0.5 43.1878 12.8122 55.5 28 55.5Z" fill="white" stroke="#EAEAEA"/>
<path d="M40.9172 14.7023C40.8895 14.5003 40.713 14.3882 40.5665 14.376C40.4212 14.3638 37.5736 14.3205 37.5736 14.3205C37.5736 14.3205 35.1921 12.0078 34.9568 11.7726C34.7216 11.5373 34.2621 11.6083 34.0835 11.6616C34.0813 11.6627 33.6363 11.8003 32.8872 12.0322C32.7618 11.6261 32.5775 11.1267 32.3145 10.6251C31.4667 9.00711 30.2249 8.1515 28.7245 8.14929C28.7223 8.14929 28.7212 8.14929 28.719 8.14929C28.6147 8.14929 28.5115 8.15927 28.4072 8.16815C28.3628 8.11488 28.3184 8.06273 28.2718 8.01167C27.6181 7.31254 26.7803 6.97185 25.776 7.00182C23.8384 7.0573 21.9086 8.45668 20.3439 10.9425C19.243 12.6914 18.4051 14.8887 18.1677 16.5899C15.9426 17.2791 14.3868 17.7607 14.3524 17.7718C13.2293 18.1247 13.1938 18.1591 13.0473 19.2178C12.9386 20.0179 10 42.7409 10 42.7409L34.6261 47L45.2995 44.3466C45.2995 44.3466 40.9449 14.9043 40.9172 14.7023ZM31.6543 12.414C31.0872 12.5893 30.4424 12.7891 29.7433 13.0055C29.7289 12.0245 29.6123 10.6595 29.1551 9.47985C30.6255 9.7584 31.3491 11.4219 31.6543 12.414ZM28.4549 13.405C27.1643 13.8045 25.756 14.2406 24.3433 14.6779C24.7406 13.1564 25.4941 11.6416 26.4197 10.6484C26.7637 10.2789 27.2453 9.86715 27.8157 9.63189C28.3517 10.7505 28.4682 12.3341 28.4549 13.405ZM25.8148 8.29133C26.2698 8.28134 26.6527 8.38122 26.9801 8.59651C26.4563 8.86839 25.9502 9.25902 25.4753 9.76839C24.2445 11.089 23.3013 13.1387 22.9251 15.1162C21.7521 15.4791 20.6046 15.8353 19.5481 16.1616C20.2151 13.0488 22.8241 8.37789 25.8148 8.29133Z" fill="#95BF47"/>
<path d="M40.5693 14.3766C40.424 14.3644 37.5764 14.3211 37.5764 14.3211C37.5764 14.3211 35.1949 12.0084 34.9596 11.7731C34.872 11.6855 34.7532 11.64 34.6289 11.6211L34.63 46.9984L45.3024 44.3461C45.3024 44.3461 40.9478 14.9048 40.92 14.7028C40.8922 14.5008 40.7147 14.3888 40.5693 14.3766Z" fill="#5E8E3E"/>
<path d="M28.713 19.8654L27.4734 24.5029C27.4734 24.5029 26.0907 23.8737 24.4516 23.9769C22.0479 24.129 22.0224 25.6449 22.0468 26.0255C22.1778 28.0996 27.6343 28.5524 27.9406 33.4108C28.1814 37.2327 25.9131 39.8473 22.645 40.0537C18.722 40.3011 16.5625 37.9873 16.5625 37.9873L17.3937 34.4517C17.3937 34.4517 19.5676 36.0919 21.3077 35.9821C22.4441 35.9099 22.8502 34.9855 22.8092 34.3319C22.6383 31.6263 18.1949 31.7861 17.9142 27.3405C17.6778 23.5997 20.1348 19.8088 25.5558 19.467C27.6443 19.3327 28.713 19.8654 28.713 19.8654Z" fill="white"/>
</g>
<defs>
<clipPath id="clip0_228_46">
<rect width="56" height="56" fill="white"/>
</clipPath>
</defs>
</svg>
