<svg width="70" height="24" viewBox="0 0 70 24" fill="none" xmlns="http://www.w3.org/2000/svg">
<g clip-path="url(#clip0_185_98)">
<path d="M49.8704 5.76593C51.4448 5.76593 52.7202 4.47556 52.7202 2.88379C52.7202 1.29161 51.4448 0 49.8704 0C48.2989 0 47.0235 1.29161 47.0235 2.88379C47.0235 4.47556 48.2989 5.76593 49.8704 5.76593ZM28.0455 7.32187C27.9166 7.64921 26.9915 10.295 24.7528 13.0372V1.3122L18.7888 2.50499V23.7587H24.7528V17.1891C26.4805 19.8106 27.3332 23.7587 27.3332 23.7587H34.4769C33.7703 20.7856 30.6793 15.3033 30.6793 15.3033C33.4534 11.7439 34.6718 7.95101 34.8654 7.32187H28.0455ZM43.7243 7.10036C38.3828 7.27411 35.6705 9.69964 35.6705 14.5215V23.7587H41.499V16.2256C41.499 13.339 41.8724 12.1009 45.2571 11.9831V7.18518C44.6876 7.06248 43.7243 7.10036 43.7243 7.10036ZM8.78684 9.66258C8.05619 9.61441 6.36506 9.50365 6.36506 7.96253C6.36506 6.10314 8.79985 6.10314 9.71316 6.10314C11.3189 6.10314 13.3985 6.58282 14.8838 7.03284C14.8838 7.03284 15.7125 7.32846 16.4175 7.63109L16.483 7.64921V7.58167V2.55646L16.3931 2.5297C14.6401 1.90921 12.602 1.3122 8.82345 1.3122C2.30828 1.3122 0 5.15327 0 8.44385C0 10.3407 0.803056 14.8056 8.26489 15.3206C8.89708 15.3597 10.5756 15.4577 10.5756 17.0499C10.5756 18.365 9.20138 19.1399 6.89026 19.1399C4.35741 19.1399 1.89943 18.4865 0.407224 17.8664V23.1111C2.64187 23.7036 5.16006 24 8.11233 24C14.4827 24 17.3357 20.3656 17.3357 16.7638C17.3357 12.6798 14.143 10.0257 8.78684 9.66258ZM46.9816 23.7587H52.7621V7.34081H46.9816V23.7587ZM63.6469 2.35842V23.7587H69.4286V1.3122L63.6469 2.35842ZM55.2111 2.35842L60.9867 1.3122V23.7587H55.2111V2.35842Z" fill="#972772"/>
</g>
<defs>
<clipPath id="clip0_185_98">
<rect width="70" height="24" fill="white"/>
</clipPath>
</defs>
</svg>
