<svg width="56" height="56" viewBox="0 0 56 56" fill="none" xmlns="http://www.w3.org/2000/svg">
<g clip-path="url(#clip0_228_48)">
<path d="M56 28C56 12.536 43.464 0 28 0C12.536 0 0 12.536 0 28C0 43.464 12.536 56 28 56C43.464 56 56 43.464 56 28Z" fill="#EF1320"/>
<path fill-rule="evenodd" clip-rule="evenodd" d="M17.6 14.327C21.0232 13.4631 24.5385 13.0175 28.069 13C32.223 13.016 36.374 13.632 40.355 14.816C41.645 15.2 42.92 15.637 44.17 16.136C43.922 16.777 43.597 17.385 43.27 17.988C39.5613 16.3764 35.6111 15.3907 31.58 15.071C30.3825 14.9745 29.1813 14.9317 27.98 14.943C25.3103 14.9232 22.6459 15.1846 20.031 15.723C17.5811 16.2293 15.1903 16.9883 12.897 17.988C12.571 17.383 12.254 16.772 12 16.132C13.8259 15.4105 15.6964 14.8076 17.6 14.327ZM23.456 16.199C23.894 16.159 24.333 16.119 24.773 16.112C25.314 16.782 25.866 17.444 26.41 18.111L28.084 20.149C29.185 18.8 30.294 17.457 31.398 16.111C32.518 16.152 33.632 16.288 34.738 16.461C36.68 16.777 38.598 17.251 40.452 17.912C41.234 18.189 42.002 18.508 42.757 18.85C42.673 19.002 42.56 19.136 42.456 19.275C41.881 19.997 41.159 20.59 40.389 21.093C39.766 21.491 39.11 21.841 38.423 22.116C38.379 21.686 38.269 21.246 38.005 20.894C37.785 20.594 37.468 20.379 37.128 20.234C36.635 20.026 36.102 19.928 35.573 19.86C34.597 19.741 33.611 19.73 32.629 19.723C32.603 19.719 32.589 19.73 32.585 19.754L28.145 44.729C28.126 44.828 28.113 44.927 28.083 45.023C27.899 44.041 27.729 43.057 27.551 42.075L23.791 21.097C23.705 20.637 23.634 20.175 23.538 19.718C22.83 19.725 22.122 19.729 21.416 19.78C20.718 19.83 20.016 19.903 19.346 20.116C18.91 20.259 18.482 20.481 18.193 20.848C17.906 21.206 17.789 21.666 17.741 22.115C16.9846 21.8092 16.2626 21.4244 15.587 20.967C14.93 20.519 14.314 20.003 13.803 19.391C13.6578 19.2202 13.5248 19.0394 13.405 18.85C14.2358 18.4709 15.0837 18.1305 15.946 17.83C18.3764 16.9928 20.8972 16.4457 23.456 16.2V16.199Z" fill="white"/>
</g>
<defs>
<clipPath id="clip0_228_48">
<rect width="56" height="56" fill="white"/>
</clipPath>
</defs>
</svg>
