<svg width="24" height="24" viewBox="0 0 24 24" fill="none" xmlns="http://www.w3.org/2000/svg">
<g clip-path="url(#clip0_227_227)">
<mask id="mask0_227_227" style="mask-type:luminance" maskUnits="userSpaceOnUse" x="0" y="0" width="24" height="24">
<path d="M24 0H0V24H24V0Z" fill="white"/>
</mask>
<g mask="url(#mask0_227_227)">
<path d="M11.719 17H3.28C2.41 16.9997 1.57572 16.6539 0.960629 16.0387C0.345538 15.4234 -4.0409e-08 14.589 0 13.719V5.28C0.000265164 4.41 0.346058 3.57572 0.961336 2.96063C1.57661 2.34554 2.411 2 3.281 2H11.719C12.5892 2 13.4237 2.34568 14.039 2.96098C14.6543 3.57629 15 4.41082 15 5.281V13.719C15 14.5892 14.6543 15.4237 14.039 16.039C13.4237 16.6543 12.5892 17 11.719 17Z" fill="#2841C1"/>
<path fill-rule="evenodd" clip-rule="evenodd" d="M2.4061e-08 5.393V6.002L2.327 7.526H2.4061e-08V8.316H6.316V2H5.526V6.791L0.52 3.511C0.325 3.813 0.179 4.151 0.092 4.511L2.4061e-08 5.393ZM0.519 15.49C0.400251 15.3052 0.300414 15.1088 0.221 14.904L0.021 14.092C0.00699613 13.9682 -1.49895e-05 13.8436 2.4061e-08 13.719V12.999L2.327 11.474H2.4061e-08V10.684H6.316V17H5.526V12.21L0.52 15.489L0.519 15.49ZM14.999 12.998V13.718L14.884 14.585C14.7965 14.9054 14.6606 15.2106 14.481 15.49L9.473 12.209V17H8.683V10.684H15V11.474H12.674L15 12.998H14.999ZM14.481 3.51C14.597 3.69 14.695 3.883 14.774 4.085L14.977 4.895C14.991 5.022 14.999 5.151 14.999 5.281V6.001L12.673 7.526H14.999V8.316H8.684V2H9.474V6.791L14.481 3.51Z" fill="#F6F6F6"/>
<path fill-rule="evenodd" clip-rule="evenodd" d="M8.685 2H6.317V8.316H0.001V10.684H6.317V17H8.685V10.684H15.001V8.316H8.685V2ZM4.055 11.474L0.023 14.092C0.056 14.375 0.123 14.647 0.223 14.904L5.507 11.474H4.057H4.055ZM14.885 14.584L10.093 11.474H11.543L15.001 13.719C15.001 14.019 14.961 14.309 14.885 14.585V14.584ZM4.738 7.527L0.091 4.511C0.031 4.758 0 5.016 0 5.281V5.393L3.287 7.526H4.737L4.738 7.527ZM14.979 4.897L10.926 7.527H9.476L14.777 4.087C14.877 4.342 14.946 4.614 14.979 4.897Z" fill="#FB4B4E"/>
<path fill-rule="evenodd" clip-rule="evenodd" d="M9.784 8.15234H23.217C23.502 8.48634 23.721 8.87734 23.854 9.30634H9.147C9.281 8.87734 9.499 8.48634 9.784 8.15234ZM9 10.4603H24V11.6143H9V10.4603ZM24 12.7683H9V13.9213H24V12.7683ZM9 15.0753H24V16.2293H9V15.0753ZM24 17.3833H9V18.5373H24V17.3833ZM9.147 19.6913H23.854C23.721 20.1203 23.502 20.5113 23.217 20.8453H9.784C9.49563 20.5078 9.2789 20.1152 9.147 19.6913Z" fill="#F5F5F5"/>
<path fill-rule="evenodd" clip-rule="evenodd" d="M20.719 7H12.28C11.28 7 10.384 7.448 9.782 8.154H23.216C22.9084 7.79203 22.5258 7.50131 22.0946 7.30204C21.6634 7.10276 21.194 6.9997 20.719 7ZM24 11.615H9V12.769H24V11.615ZM23.853 9.308C23.949 9.616 24 9.943 24 10.282V10.462H9V10.282C9 9.942 9.051 9.616 9.147 9.308H23.853ZM24 13.923H9V15.077H24V13.923ZM24 18.539V18.719C24 19.059 23.949 19.385 23.853 19.693H9.147C9.04925 19.3776 8.99969 19.0492 9 18.719V18.539H24ZM23.217 20.846H9.783C10.0907 21.2081 10.4735 21.4989 10.9049 21.6982C11.3362 21.8975 11.8058 22.0004 12.281 22H20.719C21.719 22 22.615 21.552 23.217 20.846ZM9 16.231H24V17.385H9V16.23V16.231Z" fill="#FA4051"/>
<path d="M17 7H12.25C10.455 7 9 8.47 9 10.281V15.077H17V7Z" fill="#1939C9"/>
<path fill-rule="evenodd" clip-rule="evenodd" d="M11.6128 7.72112L11.6748 7.90812L11.8718 7.91012C11.8968 7.91012 11.9078 7.94212 11.8868 7.95712L11.7288 8.07413L11.7888 8.26212C11.7904 8.26745 11.7903 8.27315 11.7885 8.27841C11.7867 8.28367 11.7833 8.28826 11.7789 8.29154C11.7744 8.29482 11.769 8.29663 11.7634 8.29673C11.7579 8.29684 11.7524 8.29523 11.7478 8.29212L11.5878 8.17712L11.4278 8.29113C11.4232 8.29389 11.4179 8.29522 11.4125 8.29494C11.4072 8.29466 11.402 8.29278 11.3977 8.28956C11.3934 8.28634 11.3902 8.28192 11.3884 8.27686C11.3867 8.27179 11.3865 8.26631 11.3878 8.26112L11.4458 8.07413L11.2878 7.95712C11.2833 7.95386 11.28 7.94924 11.2783 7.94395C11.2767 7.93867 11.2767 7.93298 11.2785 7.92774C11.2803 7.92249 11.2837 7.91795 11.2883 7.91478C11.2928 7.91161 11.2983 7.90998 11.3038 7.91012L11.4998 7.90812L11.5628 7.72112C11.5648 7.71616 11.5683 7.7119 11.5728 7.70891C11.5772 7.70592 11.5824 7.70432 11.5878 7.70432C11.5932 7.70432 11.5984 7.70592 11.6029 7.70891C11.6073 7.7119 11.6108 7.71616 11.6128 7.72112ZM9.86983 8.26212C9.86827 8.26745 9.86838 8.27315 9.87016 8.27841C9.87195 8.28367 9.87531 8.28826 9.87979 8.29154C9.88428 8.29482 9.88966 8.29663 9.89522 8.29673C9.90077 8.29684 9.90623 8.29523 9.91083 8.29212L10.0708 8.17712L10.2308 8.29212C10.2354 8.29488 10.2407 8.29621 10.2461 8.29593C10.2514 8.29565 10.2566 8.29378 10.2609 8.29056C10.2652 8.28735 10.2684 8.28292 10.2702 8.27786C10.272 8.27279 10.2722 8.26731 10.2708 8.26212L10.2128 8.07512L10.3708 7.95812C10.3751 7.95467 10.3782 7.94998 10.3798 7.9447C10.3813 7.93942 10.3812 7.93379 10.3795 7.92857C10.3777 7.92335 10.3744 7.91878 10.37 7.91548C10.3656 7.91219 10.3603 7.91032 10.3548 7.91012L10.1588 7.90812L10.1248 7.80812C10.0406 7.88166 9.96017 7.95943 9.88383 8.04113L9.92983 8.07512L9.86983 8.26212ZM10.0958 9.27812L10.1588 9.46512L10.3548 9.46612C10.3808 9.46612 10.3908 9.49912 10.3708 9.51412L10.2128 9.63112L10.2718 9.81812C10.2732 9.82331 10.273 9.82879 10.2712 9.83386C10.2694 9.83892 10.2662 9.84336 10.2619 9.84657C10.2576 9.84979 10.2524 9.85166 10.2471 9.85194C10.2417 9.85222 10.2364 9.85088 10.2318 9.84812L10.0718 9.73312L9.91183 9.84812C9.90724 9.85163 9.90165 9.85358 9.89588 9.85367C9.8901 9.85376 9.88445 9.85199 9.87975 9.84863C9.87505 9.84528 9.87155 9.84051 9.86977 9.83502C9.86798 9.82953 9.86801 9.8236 9.86983 9.81812L9.92983 9.63112L9.77183 9.51412C9.7676 9.51073 9.76448 9.50613 9.7629 9.50093C9.76131 9.49574 9.76133 9.4902 9.76295 9.48501C9.76457 9.47983 9.76772 9.47524 9.77198 9.47188C9.77624 9.46851 9.78141 9.4665 9.78683 9.46612L9.98383 9.46512L10.0458 9.27812C10.0538 9.25412 10.0878 9.25412 10.0958 9.27812ZM10.1588 11.1911L10.0958 11.0051C10.0878 10.9801 10.0538 10.9801 10.0458 11.0051L9.98383 11.1911L9.78683 11.1931C9.78141 11.1935 9.77624 11.1955 9.77198 11.1989C9.76772 11.2022 9.76457 11.2068 9.76295 11.212C9.76133 11.2172 9.76131 11.2227 9.7629 11.2279C9.76448 11.2331 9.7676 11.2377 9.77183 11.2411L9.92983 11.3581L9.86983 11.5451C9.86827 11.5504 9.86838 11.5561 9.87016 11.5614C9.87195 11.5666 9.87531 11.5712 9.87979 11.5745C9.88428 11.5778 9.88966 11.5796 9.89522 11.5797C9.90077 11.5798 9.90623 11.5782 9.91083 11.5751L10.0708 11.4601L10.2308 11.5751C10.2518 11.5891 10.2798 11.5691 10.2718 11.5451L10.2118 11.3571L10.3708 11.2411C10.3751 11.2376 10.3782 11.233 10.3798 11.2277C10.3813 11.2224 10.3812 11.2168 10.3795 11.2115C10.3777 11.2063 10.3744 11.2018 10.37 11.1985C10.3656 11.1952 10.3603 11.1933 10.3548 11.1931L10.1588 11.1911ZM10.0958 12.5911L10.1588 12.7781L10.3548 12.7801C10.3808 12.7801 10.3908 12.8121 10.3708 12.8271L10.2128 12.9441L10.2718 13.1321C10.2738 13.1374 10.2741 13.1432 10.2725 13.1486C10.2709 13.154 10.2676 13.1588 10.2631 13.1622C10.2586 13.1656 10.2531 13.1674 10.2475 13.1674C10.2418 13.1674 10.2363 13.1655 10.2318 13.1621L10.0718 13.0471L9.91183 13.1611C9.90754 13.1658 9.90169 13.1687 9.89538 13.1694C9.88906 13.17 9.88272 13.1684 9.87756 13.1647C9.87239 13.161 9.86876 13.1555 9.86733 13.1494C9.86591 13.1432 9.8668 13.1367 9.86983 13.1311L9.92983 12.9441L9.77183 12.8271C9.76793 12.8236 9.76513 12.8191 9.76375 12.8141C9.76237 12.809 9.76248 12.8037 9.76407 12.7987C9.76566 12.7938 9.76865 12.7894 9.77269 12.786C9.77673 12.7827 9.78164 12.7807 9.78683 12.7801L9.98383 12.7781L10.0458 12.5911C10.0538 12.5671 10.0878 12.5671 10.0958 12.5911ZM10.1588 14.2211L10.0958 14.0341C10.0878 14.0101 10.0538 14.0101 10.0458 14.0341L9.98383 14.2211L9.78683 14.2231C9.78164 14.2237 9.77673 14.2257 9.77269 14.229C9.76865 14.2324 9.76566 14.2368 9.76407 14.2417C9.76248 14.2467 9.76237 14.252 9.76375 14.2571C9.76513 14.2621 9.76793 14.2666 9.77183 14.2701L9.92983 14.3871L9.86983 14.5751C9.86827 14.5804 9.86838 14.5861 9.87016 14.5914C9.87195 14.5966 9.87531 14.6012 9.87979 14.6045C9.88428 14.6078 9.88966 14.6096 9.89522 14.6097C9.90077 14.6098 9.90623 14.6082 9.91083 14.6051L10.0708 14.4901L10.2308 14.6041C10.2354 14.6072 10.2409 14.6088 10.2464 14.6087C10.252 14.6086 10.2574 14.6068 10.2619 14.6035C10.2663 14.6002 10.2697 14.5956 10.2715 14.5904C10.2733 14.5851 10.2734 14.5794 10.2718 14.5741L10.2118 14.3871L10.3708 14.2701C10.3747 14.2666 10.3776 14.262 10.3789 14.2568C10.3802 14.2517 10.38 14.2463 10.3783 14.2413C10.3766 14.2363 10.3735 14.2319 10.3693 14.2287C10.3651 14.2254 10.3601 14.2235 10.3548 14.2231L10.1588 14.2211ZM10.8528 8.45912L10.9148 8.64513L11.1118 8.64713C11.1378 8.64713 11.1478 8.67912 11.1278 8.69512L10.9688 8.81112L11.0288 8.99912C11.0304 9.00445 11.0303 9.01014 11.0285 9.0154C11.0267 9.02066 11.0233 9.02525 11.0189 9.02853C11.0144 9.03181 11.009 9.03364 11.0034 9.03374C10.9979 9.03385 10.9924 9.03224 10.9878 9.02913L10.8278 8.91412L10.6678 9.02812C10.6632 9.03088 10.6579 9.03221 10.6525 9.03193C10.6472 9.03165 10.642 9.02978 10.6377 9.02656C10.6334 9.02335 10.6302 9.01892 10.6284 9.01386C10.6267 9.00879 10.6265 9.00331 10.6278 8.99812L10.6868 8.81112L10.5278 8.69512C10.5235 8.69167 10.5204 8.68698 10.5189 8.6817C10.5173 8.67642 10.5174 8.67079 10.5191 8.66557C10.5209 8.66035 10.5242 8.65578 10.5286 8.65248C10.533 8.64919 10.5383 8.64733 10.5438 8.64713L10.7408 8.64513L10.8028 8.45912C10.8048 8.45415 10.8083 8.4499 10.8128 8.44691C10.8172 8.44392 10.8224 8.44232 10.8278 8.44232C10.8332 8.44232 10.8384 8.44392 10.8429 8.44691C10.8473 8.4499 10.8508 8.45415 10.8528 8.45912ZM10.9158 10.3711L10.8528 10.1851C10.8448 10.1611 10.8108 10.1611 10.8028 10.1851L10.7408 10.3711L10.5438 10.3731C10.5383 10.3733 10.533 10.3752 10.5286 10.3785C10.5242 10.3818 10.5209 10.3863 10.5191 10.3915C10.5174 10.3968 10.5173 10.4024 10.5189 10.4077C10.5204 10.413 10.5235 10.4176 10.5278 10.4211L10.6868 10.5381L10.6268 10.7251C10.6244 10.7305 10.6239 10.7366 10.6255 10.7423C10.627 10.7481 10.6304 10.7531 10.6352 10.7566C10.64 10.7601 10.6459 10.7619 10.6518 10.7616C10.6577 10.7613 10.6634 10.759 10.6678 10.7551L10.8278 10.6401L10.9878 10.7551C10.9923 10.7585 10.9978 10.7604 11.0035 10.7604C11.0091 10.7604 11.0146 10.7586 11.0191 10.7552C11.0236 10.7518 11.0269 10.747 11.0285 10.7416C11.0301 10.7362 11.0298 10.7304 11.0278 10.7251L10.9688 10.5381L11.1278 10.4211C11.1321 10.4176 11.1352 10.413 11.1368 10.4077C11.1383 10.4024 11.1382 10.3968 11.1365 10.3915C11.1347 10.3863 11.1314 10.3818 11.127 10.3785C11.1226 10.3752 11.1173 10.3733 11.1118 10.3731L10.9148 10.3711H10.9158ZM10.8528 11.8251L10.9158 12.0121L11.1118 12.0131C11.1378 12.0131 11.1478 12.0461 11.1278 12.0611L10.9688 12.1781L11.0288 12.3661C11.0302 12.3713 11.03 12.3768 11.0282 12.3818C11.0264 12.3869 11.0232 12.3913 11.0189 12.3945C11.0146 12.3978 11.0094 12.3996 11.0041 12.3999C10.9987 12.4002 10.9934 12.3989 10.9888 12.3961L10.8278 12.2811L10.6678 12.3951C10.6632 12.3979 10.6579 12.3992 10.6525 12.3989C10.6472 12.3986 10.642 12.3968 10.6377 12.3935C10.6334 12.3903 10.6302 12.3859 10.6284 12.3808C10.6267 12.3758 10.6265 12.3703 10.6278 12.3651L10.6868 12.1781L10.5278 12.0611C10.5228 12.058 10.519 12.0534 10.5171 12.0478C10.5151 12.0423 10.515 12.0363 10.5168 12.0308C10.5187 12.0252 10.5224 12.0205 10.5273 12.0173C10.5322 12.014 10.538 12.0126 10.5438 12.0131L10.7408 12.0121L10.8028 11.8251C10.8108 11.8011 10.8448 11.8011 10.8528 11.8251ZM10.9158 13.4851L10.8528 13.2991C10.8448 13.2751 10.8108 13.2751 10.8028 13.2991L10.7408 13.4851L10.5438 13.4871C10.538 13.4866 10.5322 13.488 10.5273 13.4913C10.5224 13.4945 10.5187 13.4992 10.5168 13.5048C10.515 13.5103 10.5151 13.5163 10.5171 13.5218C10.519 13.5274 10.5228 13.532 10.5278 13.5351L10.6868 13.6521L10.6268 13.8391C10.6198 13.8631 10.6468 13.8831 10.6678 13.8691L10.8278 13.7541L10.9878 13.8691C11.0078 13.8831 11.0368 13.8631 11.0278 13.8391L10.9688 13.6511L11.1278 13.5351C11.1328 13.532 11.1366 13.5274 11.1386 13.5218C11.1406 13.5163 11.1406 13.5103 11.1388 13.5048C11.1369 13.4992 11.1333 13.4945 11.1284 13.4913C11.1235 13.488 11.1176 13.4866 11.1118 13.4871L10.9148 13.4851H10.9158ZM11.6758 9.46512L11.6128 9.27812C11.6108 9.27316 11.6073 9.2689 11.6029 9.26591C11.5984 9.26292 11.5932 9.26132 11.5878 9.26132C11.5824 9.26132 11.5772 9.26292 11.5728 9.26591C11.5683 9.2689 11.5648 9.27316 11.5628 9.27812L11.4998 9.46512L11.3038 9.46612C11.298 9.4656 11.2921 9.46707 11.2873 9.47027C11.2824 9.47348 11.2787 9.47825 11.2768 9.4838C11.275 9.48935 11.2751 9.49536 11.2771 9.50087C11.279 9.50637 11.2828 9.51104 11.2878 9.51412L11.4458 9.63112L11.3868 9.81812C11.3855 9.82331 11.3857 9.82879 11.3874 9.83386C11.3892 9.83892 11.3924 9.84336 11.3967 9.84657C11.401 9.84979 11.4062 9.85166 11.4115 9.85194C11.4169 9.85222 11.4222 9.85088 11.4268 9.84812L11.5868 9.73312L11.7468 9.84812C11.7514 9.85163 11.757 9.85358 11.7628 9.85367C11.7685 9.85376 11.7742 9.85199 11.7789 9.84863C11.7836 9.84528 11.7871 9.84051 11.7889 9.83502C11.7907 9.82953 11.7906 9.8236 11.7888 9.81812L11.7288 9.63112L11.8878 9.51412C11.8921 9.51067 11.8952 9.50598 11.8968 9.5007C11.8983 9.49542 11.8982 9.4898 11.8965 9.48458C11.8947 9.47936 11.8914 9.47479 11.887 9.47149C11.8826 9.4682 11.8773 9.46632 11.8718 9.46612L11.6758 9.46512ZM11.6128 11.0051L11.6748 11.1911L11.8718 11.1931C11.8968 11.1931 11.9078 11.2261 11.8868 11.2411L11.7288 11.3581L11.7888 11.5451C11.7904 11.5504 11.7903 11.5561 11.7885 11.5614C11.7867 11.5666 11.7833 11.5712 11.7789 11.5745C11.7744 11.5778 11.769 11.5796 11.7634 11.5797C11.7579 11.5798 11.7524 11.5782 11.7478 11.5751L11.5878 11.4601L11.4278 11.5751C11.4232 11.5779 11.4179 11.5792 11.4125 11.5789C11.4072 11.5786 11.402 11.5768 11.3977 11.5735C11.3934 11.5703 11.3902 11.5659 11.3884 11.5608C11.3867 11.5558 11.3865 11.5503 11.3878 11.5451L11.4458 11.3571L11.2878 11.2411C11.2835 11.2376 11.2804 11.233 11.2789 11.2277C11.2773 11.2224 11.2774 11.2168 11.2791 11.2115C11.2809 11.2063 11.2842 11.2018 11.2886 11.1985C11.293 11.1952 11.2983 11.1933 11.3038 11.1931L11.4998 11.1911L11.5628 11.0051C11.5648 11.0001 11.5683 10.9959 11.5728 10.9929C11.5772 10.9899 11.5824 10.9883 11.5878 10.9883C11.5932 10.9883 11.5984 10.9899 11.6029 10.9929C11.6073 10.9959 11.6108 11.0001 11.6128 11.0051ZM11.6748 12.7781L11.6128 12.5911C11.6108 12.5861 11.6073 12.5819 11.6029 12.5789C11.5984 12.5759 11.5932 12.5743 11.5878 12.5743C11.5824 12.5743 11.5772 12.5759 11.5728 12.5789C11.5683 12.5819 11.5648 12.5861 11.5628 12.5911L11.4998 12.7781L11.3038 12.7801C11.2985 12.7805 11.2935 12.7824 11.2893 12.7857C11.2851 12.7889 11.282 12.7933 11.2803 12.7983C11.2786 12.8033 11.2784 12.8087 11.2797 12.8138C11.2811 12.819 11.2839 12.8236 11.2878 12.8271L11.4458 12.9441L11.3868 13.1321C11.3848 13.1374 11.3846 13.1432 11.3861 13.1486C11.3877 13.154 11.391 13.1588 11.3955 13.1622C11.4 13.1656 11.4055 13.1674 11.4112 13.1674C11.4168 13.1674 11.4223 13.1655 11.4268 13.1621L11.5868 13.0471L11.7468 13.1611C11.7511 13.1658 11.757 13.1687 11.7633 13.1694C11.7696 13.17 11.7759 13.1684 11.7811 13.1647C11.7863 13.161 11.7899 13.1555 11.7913 13.1494C11.7927 13.1432 11.7918 13.1367 11.7888 13.1311L11.7288 12.9441L11.8878 12.8271C11.8917 12.8236 11.8946 12.819 11.8959 12.8138C11.8972 12.8087 11.897 12.8033 11.8953 12.7983C11.8936 12.7933 11.8905 12.7889 11.8863 12.7857C11.8821 12.7824 11.8771 12.7805 11.8718 12.7801L11.6748 12.7781ZM11.6128 14.0341L11.6748 14.2211L11.8718 14.2231C11.8968 14.2231 11.9078 14.2551 11.8868 14.2701L11.7288 14.3871L11.7888 14.5751C11.7904 14.5804 11.7903 14.5861 11.7885 14.5914C11.7867 14.5966 11.7833 14.6012 11.7789 14.6045C11.7744 14.6078 11.769 14.6096 11.7634 14.6097C11.7579 14.6098 11.7524 14.6082 11.7478 14.6051L11.5878 14.4901L11.4278 14.6041C11.4232 14.6069 11.4179 14.6082 11.4125 14.6079C11.4072 14.6076 11.402 14.6058 11.3977 14.6025C11.3934 14.5993 11.3902 14.5949 11.3884 14.5898C11.3867 14.5848 11.3865 14.5793 11.3878 14.5741L11.4458 14.3871L11.2878 14.2701C11.2839 14.2666 11.2811 14.262 11.2797 14.2568C11.2784 14.2517 11.2786 14.2463 11.2803 14.2413C11.282 14.2363 11.2851 14.2319 11.2893 14.2287C11.2935 14.2254 11.2985 14.2235 11.3038 14.2231L11.4998 14.2211L11.5628 14.0341C11.5648 14.0291 11.5683 14.0249 11.5728 14.0219C11.5772 14.0189 11.5824 14.0173 11.5878 14.0173C11.5932 14.0173 11.5984 14.0189 11.6029 14.0219C11.6073 14.0249 11.6108 14.0291 11.6128 14.0341ZM12.4308 8.64513L12.3688 8.45912C12.3668 8.45415 12.3633 8.4499 12.3589 8.44691C12.3544 8.44392 12.3492 8.44232 12.3438 8.44232C12.3384 8.44232 12.3332 8.44392 12.3288 8.44691C12.3243 8.4499 12.3208 8.45415 12.3188 8.45912L12.2558 8.64513L12.0598 8.64713C12.0543 8.64733 12.049 8.64919 12.0446 8.65248C12.0402 8.65578 12.0369 8.66035 12.0351 8.66557C12.0334 8.67079 12.0333 8.67642 12.0349 8.6817C12.0364 8.68698 12.0395 8.69167 12.0438 8.69512L12.2018 8.81112L12.1418 8.99912C12.14 9.0046 12.14 9.01052 12.1417 9.01601C12.1435 9.0215 12.147 9.02628 12.1517 9.02964C12.1564 9.03299 12.1621 9.03475 12.1679 9.03466C12.1736 9.03457 12.1792 9.03264 12.1838 9.02913L12.3438 8.91412L12.5038 9.02812C12.5084 9.03088 12.5137 9.03221 12.5191 9.03193C12.5244 9.03165 12.5296 9.02978 12.5339 9.02656C12.5382 9.02335 12.5414 9.01892 12.5432 9.01386C12.545 9.00879 12.5452 9.00331 12.5438 8.99812L12.4848 8.81112L12.6428 8.69512C12.6477 8.69207 12.6514 8.68749 12.6534 8.68211C12.6554 8.67672 12.6555 8.67083 12.6538 8.66535C12.6521 8.65987 12.6486 8.6551 12.6439 8.6518C12.6392 8.64851 12.6336 8.64687 12.6278 8.64713L12.4308 8.64513ZM12.3688 10.1851L12.4308 10.3711L12.6278 10.3731C12.6528 10.3731 12.6638 10.4061 12.6428 10.4211L12.4848 10.5381L12.5448 10.7251C12.5472 10.7305 12.5477 10.7366 12.5462 10.7423C12.5446 10.7481 12.5412 10.7531 12.5364 10.7566C12.5316 10.7601 12.5258 10.7619 12.5198 10.7616C12.5139 10.7613 12.5083 10.759 12.5038 10.7551L12.3438 10.6401L12.1838 10.7551C12.1628 10.7701 12.1348 10.7501 12.1428 10.7251L12.2028 10.5381L12.0438 10.4211C12.0395 10.4176 12.0364 10.413 12.0349 10.4077C12.0333 10.4024 12.0334 10.3968 12.0351 10.3915C12.0369 10.3863 12.0402 10.3818 12.0446 10.3785C12.049 10.3752 12.0543 10.3733 12.0598 10.3731L12.2558 10.3711L12.3188 10.1851C12.3208 10.1801 12.3243 10.1759 12.3288 10.1729C12.3332 10.1699 12.3384 10.1683 12.3438 10.1683C12.3492 10.1683 12.3544 10.1699 12.3589 10.1729C12.3633 10.1759 12.3668 10.1801 12.3688 10.1851ZM12.4308 12.0121L12.3688 11.8251C12.3668 11.8201 12.3633 11.8159 12.3589 11.8129C12.3544 11.8099 12.3492 11.8083 12.3438 11.8083C12.3384 11.8083 12.3332 11.8099 12.3288 11.8129C12.3243 11.8159 12.3208 11.8201 12.3188 11.8251L12.2558 12.0121L12.0598 12.0131C12.054 12.0126 12.0481 12.014 12.0433 12.0173C12.0384 12.0205 12.0347 12.0252 12.0328 12.0308C12.031 12.0363 12.0311 12.0423 12.0331 12.0478C12.035 12.0534 12.0388 12.058 12.0438 12.0611L12.2018 12.1781L12.1418 12.3661C12.1348 12.3901 12.1618 12.4101 12.1838 12.3961L12.3438 12.2811L12.5038 12.3951C12.5084 12.3979 12.5137 12.3992 12.5191 12.3989C12.5244 12.3986 12.5296 12.3968 12.5339 12.3935C12.5382 12.3903 12.5414 12.3859 12.5432 12.3808C12.545 12.3758 12.5452 12.3703 12.5438 12.3651L12.4848 12.1781L12.6428 12.0611C12.6477 12.0581 12.6514 12.0535 12.6534 12.0481C12.6554 12.0427 12.6555 12.0368 12.6538 12.0313C12.6521 12.0258 12.6486 12.0211 12.6439 12.0178C12.6392 12.0145 12.6336 12.0128 12.6278 12.0131L12.4308 12.0121ZM12.3688 13.2991L12.4308 13.4851L12.6278 13.4871C12.6528 13.4871 12.6638 13.5201 12.6428 13.5351L12.4848 13.6521L12.5448 13.8391C12.5472 13.8445 12.5477 13.8506 12.5462 13.8563C12.5446 13.8621 12.5412 13.8671 12.5364 13.8706C12.5316 13.8741 12.5258 13.8759 12.5198 13.8756C12.5139 13.8753 12.5083 13.873 12.5038 13.8691L12.3438 13.7541L12.1838 13.8691C12.1792 13.8722 12.1738 13.8738 12.1682 13.8737C12.1626 13.8736 12.1573 13.8718 12.1528 13.8685C12.1483 13.8652 12.1449 13.8606 12.1431 13.8554C12.1414 13.8501 12.1412 13.8444 12.1428 13.8391L12.2028 13.6511L12.0438 13.5351C12.0388 13.532 12.035 13.5274 12.0331 13.5218C12.0311 13.5163 12.031 13.5103 12.0328 13.5048C12.0347 13.4992 12.0384 13.4945 12.0433 13.4913C12.0481 13.488 12.054 13.4866 12.0598 13.4871L12.2558 13.4851L12.3188 13.2991C12.3208 13.2941 12.3243 13.2899 12.3288 13.2869C12.3332 13.2839 12.3384 13.2823 12.3438 13.2823C12.3492 13.2823 12.3544 13.2839 12.3589 13.2869C12.3633 13.2899 12.3668 13.2941 12.3688 13.2991ZM13.1908 7.90912L13.1288 7.72112C13.1208 7.69712 13.0858 7.69712 13.0788 7.72112L13.0158 7.90812L12.8188 7.91012C12.8134 7.91019 12.8081 7.91198 12.8037 7.91522C12.7993 7.91847 12.796 7.92302 12.7944 7.92822C12.7927 7.93342 12.7927 7.93901 12.7944 7.94419C12.7961 7.94938 12.7994 7.95391 12.8038 7.95712L12.9618 8.07413L12.9018 8.26212C12.9002 8.26745 12.9004 8.27315 12.9021 8.27841C12.9039 8.28367 12.9073 8.28826 12.9118 8.29154C12.9163 8.29482 12.9216 8.29663 12.9272 8.29673C12.9328 8.29684 12.9382 8.29523 12.9428 8.29212L13.1028 8.17712L13.2628 8.29113C13.2674 8.29424 13.2729 8.29585 13.2784 8.29574C13.284 8.29564 13.2894 8.29381 13.2939 8.29053C13.2983 8.28725 13.3017 8.28266 13.3035 8.2774C13.3053 8.27214 13.3054 8.26645 13.3038 8.26112L13.2438 8.07413L13.4038 7.95712C13.4078 7.95353 13.4106 7.94883 13.4119 7.94363C13.4132 7.93843 13.4129 7.93296 13.4111 7.92792C13.4093 7.92288 13.406 7.9185 13.4017 7.91533C13.3973 7.91216 13.3922 7.91034 13.3868 7.91012L13.1908 7.90912ZM13.1288 9.27812L13.1908 9.46512L13.3868 9.46612C13.4128 9.46612 13.4238 9.49912 13.4028 9.51412L13.2448 9.63112L13.3048 9.81812C13.3064 9.82345 13.3063 9.82914 13.3045 9.8344C13.3027 9.83966 13.2993 9.84425 13.2949 9.84753C13.2904 9.85081 13.285 9.85263 13.2794 9.85273C13.2739 9.85284 13.2684 9.85123 13.2638 9.84812L13.1038 9.73312L12.9438 9.84812C12.9392 9.85123 12.9338 9.85284 12.9282 9.85273C12.9226 9.85263 12.9173 9.85081 12.9128 9.84753C12.9083 9.84425 12.9049 9.83966 12.9031 9.8344C12.9014 9.82914 12.9012 9.82345 12.9028 9.81812L12.9618 9.63112L12.8038 9.51412C12.7996 9.51073 12.7965 9.50613 12.7949 9.50093C12.7933 9.49574 12.7933 9.4902 12.7949 9.48501C12.7966 9.47983 12.7997 9.47524 12.804 9.47188C12.8082 9.46851 12.8134 9.4665 12.8188 9.46612L13.0158 9.46412L13.0778 9.27812C13.0798 9.27316 13.0833 9.2689 13.0878 9.26591C13.0922 9.26292 13.0974 9.26132 13.1028 9.26132C13.1082 9.26132 13.1134 9.26292 13.1179 9.26591C13.1223 9.2689 13.1268 9.27316 13.1288 9.27812ZM13.1908 11.1911L13.1288 11.0051C13.1273 10.9997 13.124 10.9949 13.1195 10.9915C13.115 10.9881 13.1095 10.9862 13.1038 10.9862C13.0982 10.9862 13.0927 10.9881 13.0882 10.9915C13.0836 10.9949 13.0804 10.9997 13.0788 11.0051L13.0158 11.1911L12.8188 11.1931C12.8134 11.1935 12.8082 11.1955 12.804 11.1989C12.7997 11.2022 12.7966 11.2068 12.7949 11.212C12.7933 11.2172 12.7933 11.2227 12.7949 11.2279C12.7965 11.2331 12.7996 11.2377 12.8038 11.2411L12.9618 11.3581L12.9018 11.5451C12.9002 11.5504 12.9004 11.5561 12.9021 11.5614C12.9039 11.5666 12.9073 11.5712 12.9118 11.5745C12.9163 11.5778 12.9216 11.5796 12.9272 11.5797C12.9328 11.5798 12.9382 11.5782 12.9428 11.5751L13.1028 11.4601L13.2628 11.5751C13.2838 11.5891 13.3118 11.5691 13.3038 11.5451L13.2438 11.3571L13.4038 11.2411C13.4082 11.2376 13.4113 11.2328 13.4128 11.2274C13.4143 11.2221 13.4142 11.2164 13.4123 11.2111C13.4104 11.2058 13.407 11.2013 13.4024 11.198C13.3978 11.1948 13.3924 11.1931 13.3868 11.1931L13.1908 11.1911ZM13.1288 12.5911L13.1908 12.7781L13.3868 12.7801C13.4128 12.7801 13.4238 12.8121 13.4028 12.8271L13.2448 12.9441L13.3048 13.1321C13.3072 13.1375 13.3077 13.1436 13.3062 13.1493C13.3046 13.1551 13.3012 13.1601 13.2964 13.1636C13.2916 13.1671 13.2858 13.1689 13.2798 13.1686C13.2739 13.1683 13.2683 13.166 13.2638 13.1621L13.1038 13.0471L12.9438 13.1611C12.9394 13.165 12.9337 13.1673 12.9278 13.1676C12.9219 13.1679 12.916 13.1661 12.9112 13.1626C12.9064 13.1591 12.903 13.1541 12.9015 13.1483C12.8999 13.1426 12.9004 13.1365 12.9028 13.1311L12.9618 12.9441L12.8038 12.8271C12.7999 12.8236 12.7971 12.8191 12.7957 12.8141C12.7944 12.809 12.7945 12.8037 12.796 12.7987C12.7976 12.7938 12.8006 12.7894 12.8047 12.786C12.8087 12.7827 12.8136 12.7807 12.8188 12.7801L13.0158 12.7781L13.0778 12.5911C13.0794 12.5857 13.0826 12.5809 13.0872 12.5775C13.0917 12.5741 13.0972 12.5722 13.1028 12.5722C13.1085 12.5722 13.114 12.5741 13.1185 12.5775C13.123 12.5809 13.1273 12.5857 13.1288 12.5911ZM13.1908 14.2211L13.1288 14.0341C13.1273 14.0287 13.124 14.0239 13.1195 14.0205C13.115 14.0171 13.1095 14.0152 13.1038 14.0152C13.0982 14.0152 13.0927 14.0171 13.0882 14.0205C13.0836 14.0239 13.0804 14.0287 13.0788 14.0341L13.0158 14.2211L12.8188 14.2231C12.8136 14.2237 12.8087 14.2257 12.8047 14.229C12.8006 14.2324 12.7976 14.2368 12.796 14.2417C12.7945 14.2467 12.7944 14.252 12.7957 14.2571C12.7971 14.2621 12.7999 14.2666 12.8038 14.2701L12.9618 14.3871L12.9018 14.5751C12.8948 14.5991 12.9218 14.6191 12.9428 14.6051L13.1028 14.4901L13.2628 14.6041C13.2674 14.6072 13.2729 14.6088 13.2784 14.6087C13.284 14.6086 13.2894 14.6068 13.2939 14.6035C13.2983 14.6002 13.3017 14.5956 13.3035 14.5904C13.3053 14.5851 13.3054 14.5794 13.3038 14.5741L13.2438 14.3871L13.4038 14.2701C13.4078 14.2665 13.4106 14.2618 13.4119 14.2566C13.4132 14.2514 13.4129 14.2459 13.4111 14.2409C13.4093 14.2359 13.406 14.2315 13.4017 14.2283C13.3973 14.2251 13.3922 14.2233 13.3868 14.2231L13.1908 14.2211ZM13.8848 8.45912L13.9478 8.64513L14.1438 8.64713C14.1698 8.64713 14.1798 8.67912 14.1598 8.69512L14.0018 8.81112L14.0608 8.99912C14.0622 9.00431 14.062 9.00979 14.0602 9.01486C14.0584 9.01992 14.0552 9.02435 14.0509 9.02756C14.0466 9.03078 14.0414 9.03266 14.0361 9.03294C14.0307 9.03322 14.0254 9.03189 14.0208 9.02913L13.8608 8.91412L13.7008 9.02812C13.6962 9.03163 13.6906 9.03357 13.6849 9.03366C13.6791 9.03375 13.6734 9.03199 13.6687 9.02863C13.664 9.02528 13.6605 9.0205 13.6587 9.01501C13.657 9.00952 13.657 9.0036 13.6588 8.99812L13.7188 8.81112L13.5608 8.69512C13.5566 8.69173 13.5535 8.68714 13.5519 8.68194C13.5503 8.67675 13.5503 8.6712 13.5519 8.66601C13.5536 8.66083 13.5567 8.65624 13.561 8.65288C13.5652 8.64951 13.5704 8.64751 13.5758 8.64713L13.7728 8.64513L13.8348 8.45912C13.8368 8.45415 13.8403 8.4499 13.8448 8.44691C13.8492 8.44392 13.8544 8.44232 13.8598 8.44232C13.8652 8.44232 13.8704 8.44392 13.8749 8.44691C13.8793 8.4499 13.8828 8.45415 13.8848 8.45912ZM13.9478 10.3711L13.8848 10.1851C13.8828 10.1801 13.8793 10.1759 13.8749 10.1729C13.8704 10.1699 13.8652 10.1683 13.8598 10.1683C13.8544 10.1683 13.8492 10.1699 13.8448 10.1729C13.8403 10.1759 13.8368 10.1801 13.8348 10.1851L13.7728 10.3711L13.5758 10.3731C13.5704 10.3735 13.5652 10.3755 13.561 10.3789C13.5567 10.3822 13.5536 10.3868 13.5519 10.392C13.5503 10.3972 13.5503 10.4027 13.5519 10.4079C13.5535 10.4131 13.5566 10.4177 13.5608 10.4211L13.7188 10.5381L13.6588 10.7251C13.6564 10.7305 13.6559 10.7366 13.6575 10.7423C13.659 10.7481 13.6624 10.7531 13.6672 10.7566C13.672 10.7601 13.6779 10.7619 13.6838 10.7616C13.6897 10.7613 13.6954 10.759 13.6998 10.7551L13.8598 10.6401L14.0198 10.7551C14.0243 10.759 14.0299 10.7613 14.0358 10.7616C14.0418 10.7619 14.0476 10.7601 14.0524 10.7566C14.0572 10.7531 14.0606 10.7481 14.0622 10.7423C14.0637 10.7366 14.0632 10.7305 14.0608 10.7251L14.0008 10.5381L14.1598 10.4211C14.1641 10.4176 14.1672 10.413 14.1688 10.4077C14.1703 10.4024 14.1702 10.3968 14.1685 10.3915C14.1667 10.3863 14.1634 10.3818 14.159 10.3785C14.1546 10.3752 14.1493 10.3733 14.1438 10.3731L13.9478 10.3711ZM13.8848 11.8251L13.9478 12.0121L14.1438 12.0131C14.1698 12.0131 14.1798 12.0461 14.1598 12.0611L14.0018 12.1781L14.0608 12.3661C14.0622 12.3713 14.062 12.3768 14.0602 12.3818C14.0584 12.3869 14.0552 12.3913 14.0509 12.3945C14.0466 12.3978 14.0414 12.3996 14.0361 12.3999C14.0307 12.4002 14.0254 12.3989 14.0208 12.3961L13.8608 12.2811L13.7008 12.3951C13.6962 12.3986 13.6906 12.4005 13.6849 12.4006C13.6791 12.4007 13.6734 12.399 13.6687 12.3956C13.664 12.3923 13.6605 12.3875 13.6587 12.382C13.657 12.3765 13.657 12.3706 13.6588 12.3651L13.7188 12.1781L13.5608 12.0611C13.5559 12.0581 13.5522 12.0535 13.5502 12.0481C13.5482 12.0427 13.5481 12.0368 13.5498 12.0313C13.5515 12.0258 13.555 12.0211 13.5597 12.0178C13.5644 12.0145 13.5701 12.0128 13.5758 12.0131L13.7728 12.0121L13.8348 11.8251C13.8368 11.8201 13.8403 11.8159 13.8448 11.8129C13.8492 11.8099 13.8544 11.8083 13.8598 11.8083C13.8652 11.8083 13.8704 11.8099 13.8749 11.8129C13.8793 11.8159 13.8828 11.8201 13.8848 11.8251ZM13.9478 13.4851L13.8848 13.2991C13.8828 13.2941 13.8793 13.2899 13.8749 13.2869C13.8704 13.2839 13.8652 13.2823 13.8598 13.2823C13.8544 13.2823 13.8492 13.2839 13.8448 13.2869C13.8403 13.2899 13.8368 13.2941 13.8348 13.2991L13.7728 13.4851L13.5758 13.4871C13.5701 13.4868 13.5644 13.4885 13.5597 13.4918C13.555 13.4951 13.5515 13.4998 13.5498 13.5053C13.5481 13.5108 13.5482 13.5167 13.5502 13.5221C13.5522 13.5275 13.5559 13.5321 13.5608 13.5351L13.7188 13.6521L13.6588 13.8391C13.6518 13.8631 13.6788 13.8831 13.6998 13.8691L13.8598 13.7541L14.0198 13.8691C14.0408 13.8831 14.0688 13.8631 14.0608 13.8391L14.0008 13.6511L14.1598 13.5351C14.1648 13.532 14.1686 13.5274 14.1706 13.5218C14.1726 13.5163 14.1726 13.5103 14.1708 13.5048C14.1689 13.4992 14.1653 13.4945 14.1604 13.4913C14.1555 13.488 14.1496 13.4866 14.1438 13.4871L13.9478 13.4851ZM14.6428 7.72112L14.7058 7.90812L14.9018 7.91012C14.9278 7.91012 14.9378 7.94212 14.9178 7.95712L14.7588 8.07413L14.8188 8.26212C14.8208 8.2674 14.8211 8.27319 14.8195 8.27862C14.8179 8.28405 14.8146 8.28883 14.8101 8.29222C14.8056 8.29561 14.8001 8.29743 14.7945 8.29741C14.7888 8.29739 14.7833 8.29554 14.7788 8.29212L14.6188 8.17712L14.4588 8.29113C14.4542 8.29464 14.4486 8.29658 14.4429 8.29667C14.4371 8.29676 14.4314 8.29499 14.4267 8.29163C14.422 8.28828 14.4185 8.28351 14.4168 8.27802C14.415 8.27253 14.415 8.2666 14.4168 8.26112L14.4768 8.07413L14.3178 7.95712C14.3133 7.95386 14.31 7.94924 14.3083 7.94395C14.3067 7.93867 14.3067 7.93298 14.3085 7.92774C14.3103 7.92249 14.3137 7.91795 14.3183 7.91478C14.3228 7.91161 14.3283 7.90998 14.3338 7.91012L14.5308 7.90812L14.5928 7.72112C14.6008 7.69712 14.6348 7.69712 14.6428 7.72112ZM14.7058 9.46512L14.6428 9.27812C14.6348 9.25412 14.6008 9.25412 14.5928 9.27812L14.5308 9.46512L14.3338 9.46612C14.3283 9.46632 14.323 9.4682 14.3186 9.47149C14.3142 9.47479 14.3109 9.47936 14.3091 9.48458C14.3074 9.4898 14.3073 9.49542 14.3089 9.5007C14.3104 9.50598 14.3135 9.51067 14.3178 9.51412L14.4768 9.63112L14.4168 9.81812C14.4152 9.82345 14.4154 9.82914 14.4171 9.8344C14.4189 9.83966 14.4223 9.84425 14.4268 9.84753C14.4313 9.85081 14.4366 9.85263 14.4422 9.85273C14.4478 9.85284 14.4532 9.85123 14.4578 9.84812L14.6178 9.73312L14.7778 9.84812C14.7823 9.85154 14.7878 9.85339 14.7935 9.85341C14.7991 9.85343 14.8046 9.8516 14.8091 9.84821C14.8136 9.84482 14.8169 9.84006 14.8185 9.83463C14.8201 9.8292 14.8198 9.8234 14.8178 9.81812L14.7588 9.63112L14.9178 9.51412C14.9221 9.51067 14.9252 9.50598 14.9268 9.5007C14.9283 9.49542 14.9282 9.4898 14.9265 9.48458C14.9247 9.47936 14.9214 9.47479 14.917 9.47149C14.9126 9.4682 14.9073 9.46632 14.9018 9.46612L14.7058 9.46512ZM14.6428 11.0051L14.7058 11.1911L14.9018 11.1931C14.9278 11.1931 14.9378 11.2261 14.9178 11.2411L14.7588 11.3581L14.8188 11.5451C14.8208 11.5504 14.8211 11.5562 14.8195 11.5616C14.8179 11.567 14.8146 11.5718 14.8101 11.5752C14.8056 11.5786 14.8001 11.5804 14.7945 11.5804C14.7888 11.5804 14.7833 11.5785 14.7788 11.5751L14.6188 11.4601L14.4588 11.5751C14.4542 11.5786 14.4486 11.5805 14.4429 11.5806C14.4371 11.5807 14.4314 11.579 14.4267 11.5756C14.422 11.5723 14.4185 11.5675 14.4168 11.562C14.415 11.5565 14.415 11.5506 14.4168 11.5451L14.4768 11.3571L14.3178 11.2411C14.3135 11.2376 14.3104 11.233 14.3089 11.2277C14.3073 11.2224 14.3074 11.2168 14.3091 11.2115C14.3109 11.2063 14.3142 11.2018 14.3186 11.1985C14.323 11.1952 14.3283 11.1933 14.3338 11.1931L14.5308 11.1911L14.5928 11.0051C14.6008 10.9801 14.6348 10.9801 14.6428 11.0051ZM14.7058 12.7781L14.6428 12.5911C14.6348 12.5671 14.6008 12.5671 14.5928 12.5911L14.5308 12.7781L14.3338 12.7801C14.3285 12.7805 14.3235 12.7824 14.3193 12.7857C14.3151 12.7889 14.312 12.7933 14.3103 12.7983C14.3086 12.8033 14.3084 12.8087 14.3097 12.8138C14.3111 12.819 14.3139 12.8236 14.3178 12.8271L14.4768 12.9441L14.4168 13.1321C14.4144 13.1375 14.4139 13.1436 14.4155 13.1493C14.417 13.1551 14.4204 13.1601 14.4252 13.1636C14.43 13.1671 14.4359 13.1689 14.4418 13.1686C14.4477 13.1683 14.4534 13.166 14.4578 13.1621L14.6178 13.0471L14.7778 13.1611C14.7823 13.1645 14.7878 13.1664 14.7935 13.1664C14.7991 13.1664 14.8046 13.1646 14.8091 13.1612C14.8136 13.1578 14.8169 13.153 14.8185 13.1476C14.8201 13.1422 14.8198 13.1364 14.8178 13.1311L14.7588 12.9441L14.9178 12.8271C14.9217 12.8236 14.9246 12.819 14.9259 12.8138C14.9272 12.8087 14.927 12.8033 14.9253 12.7983C14.9236 12.7933 14.9205 12.7889 14.9163 12.7857C14.9121 12.7824 14.9071 12.7805 14.9018 12.7801L14.7058 12.7781ZM14.6428 14.0341L14.7058 14.2211L14.9018 14.2231C14.9278 14.2231 14.9378 14.2551 14.9178 14.2701L14.7588 14.3871L14.8188 14.5751C14.8208 14.5804 14.8211 14.5862 14.8195 14.5916C14.8179 14.597 14.8146 14.6018 14.8101 14.6052C14.8056 14.6086 14.8001 14.6104 14.7945 14.6104C14.7888 14.6104 14.7833 14.6085 14.7788 14.6051L14.6188 14.4901L14.4588 14.6041C14.4542 14.6076 14.4486 14.6095 14.4429 14.6096C14.4371 14.6097 14.4314 14.608 14.4267 14.6046C14.422 14.6013 14.4185 14.5965 14.4168 14.591C14.415 14.5855 14.415 14.5796 14.4168 14.5741L14.4768 14.3871L14.3178 14.2701C14.3139 14.2666 14.3111 14.262 14.3097 14.2568C14.3084 14.2517 14.3086 14.2463 14.3103 14.2413C14.312 14.2363 14.3151 14.2319 14.3193 14.2287C14.3235 14.2254 14.3285 14.2235 14.3338 14.2231L14.5308 14.2211L14.5928 14.0341C14.6008 14.0101 14.6348 14.0101 14.6428 14.0341ZM15.4608 8.64513L15.3998 8.46012C15.3978 8.45516 15.3943 8.4509 15.3899 8.44791C15.3854 8.44492 15.3802 8.44332 15.3748 8.44332C15.3694 8.44332 15.3642 8.44492 15.3598 8.44791C15.3553 8.4509 15.3518 8.45516 15.3498 8.46012L15.2868 8.64612L15.0908 8.64812C15.0853 8.64832 15.08 8.6502 15.0756 8.65349C15.0712 8.65679 15.0679 8.66135 15.0661 8.66657C15.0644 8.67179 15.0643 8.67742 15.0659 8.6827C15.0674 8.68798 15.0705 8.69267 15.0748 8.69612L15.2338 8.81213L15.1738 9.00012C15.1725 9.00531 15.1727 9.0108 15.1744 9.01587C15.1762 9.02093 15.1794 9.02536 15.1837 9.02857C15.188 9.03179 15.1932 9.03365 15.1985 9.03393C15.2039 9.03421 15.2092 9.03288 15.2138 9.03012L15.3748 8.91512L15.5348 9.02913C15.5394 9.03189 15.5447 9.03322 15.5501 9.03294C15.5554 9.03266 15.5606 9.03078 15.5649 9.02756C15.5692 9.02435 15.5724 9.01992 15.5742 9.01486C15.576 9.00979 15.5762 9.00431 15.5748 8.99912L15.5158 8.81213L15.6748 8.69612C15.6798 8.69304 15.6836 8.68837 15.6856 8.68287C15.6876 8.67736 15.6876 8.67135 15.6858 8.6658C15.6839 8.66025 15.6803 8.65548 15.6754 8.65227C15.6705 8.64907 15.6646 8.6476 15.6588 8.64812L15.4618 8.64612L15.4608 8.64513ZM15.3988 10.1851L15.4608 10.3711L15.6578 10.3731C15.6838 10.3731 15.6938 10.4061 15.6738 10.4211L15.5148 10.5381L15.5748 10.7251C15.5772 10.7305 15.5777 10.7366 15.5762 10.7423C15.5746 10.7481 15.5712 10.7531 15.5664 10.7566C15.5616 10.7601 15.5558 10.7619 15.5498 10.7616C15.5439 10.7613 15.5383 10.759 15.5338 10.7551L15.3738 10.6401L15.2138 10.7551C15.2093 10.7585 15.2038 10.7604 15.1982 10.7604C15.1925 10.7604 15.187 10.7586 15.1825 10.7552C15.178 10.7518 15.1747 10.747 15.1731 10.7416C15.1716 10.7362 15.1718 10.7304 15.1738 10.7251L15.2328 10.5381L15.0738 10.4211C15.0695 10.4176 15.0664 10.413 15.0649 10.4077C15.0633 10.4024 15.0634 10.3968 15.0651 10.3915C15.0669 10.3863 15.0702 10.3818 15.0746 10.3785C15.079 10.3752 15.0843 10.3733 15.0898 10.3731L15.2868 10.3711L15.3488 10.1851C15.3508 10.1801 15.3543 10.1759 15.3588 10.1729C15.3632 10.1699 15.3684 10.1683 15.3738 10.1683C15.3792 10.1683 15.3844 10.1699 15.3889 10.1729C15.3933 10.1759 15.3968 10.1801 15.3988 10.1851ZM15.4608 12.0121L15.3988 11.8251C15.3968 11.8201 15.3933 11.8159 15.3889 11.8129C15.3844 11.8099 15.3792 11.8083 15.3738 11.8083C15.3684 11.8083 15.3632 11.8099 15.3588 11.8129C15.3543 11.8159 15.3508 11.8201 15.3488 11.8251L15.2858 12.0121L15.0898 12.0131C15.084 12.0126 15.0782 12.014 15.0733 12.0173C15.0684 12.0205 15.0647 12.0252 15.0628 12.0308C15.061 12.0363 15.0611 12.0423 15.0631 12.0478C15.065 12.0534 15.0688 12.058 15.0738 12.0611L15.2328 12.1781L15.1728 12.3661C15.1715 12.3713 15.1717 12.3768 15.1734 12.3818C15.1752 12.3869 15.1784 12.3913 15.1827 12.3945C15.187 12.3978 15.1922 12.3996 15.1975 12.3999C15.2029 12.4002 15.2082 12.3989 15.2128 12.3961L15.3738 12.2811L15.5338 12.3951C15.5384 12.3979 15.5437 12.3992 15.5491 12.3989C15.5544 12.3986 15.5596 12.3968 15.5639 12.3935C15.5682 12.3903 15.5714 12.3859 15.5732 12.3808C15.575 12.3758 15.5752 12.3703 15.5738 12.3651L15.5148 12.1781L15.6738 12.0611C15.6788 12.058 15.6826 12.0534 15.6846 12.0478C15.6866 12.0423 15.6866 12.0363 15.6848 12.0308C15.6829 12.0252 15.6793 12.0205 15.6744 12.0173C15.6695 12.014 15.6636 12.0126 15.6578 12.0131L15.4608 12.0121ZM15.3988 13.2991L15.4608 13.4851L15.6578 13.4871C15.6838 13.4871 15.6938 13.5201 15.6738 13.5351L15.5148 13.6521L15.5748 13.8391C15.5818 13.8631 15.5548 13.8831 15.5338 13.8691L15.3738 13.7541L15.2138 13.8691C15.1938 13.8831 15.1648 13.8631 15.1738 13.8391L15.2328 13.6511L15.0738 13.5351C15.0688 13.532 15.065 13.5274 15.0631 13.5218C15.0611 13.5163 15.061 13.5103 15.0628 13.5048C15.0647 13.4992 15.0684 13.4945 15.0733 13.4913C15.0782 13.488 15.084 13.4866 15.0898 13.4871L15.2868 13.4851L15.3488 13.2991C15.3508 13.2941 15.3543 13.2899 15.3588 13.2869C15.3632 13.2839 15.3684 13.2823 15.3738 13.2823C15.3792 13.2823 15.3844 13.2839 15.3889 13.2869C15.3933 13.2899 15.3968 13.2941 15.3988 13.2991ZM16.2198 7.90912L16.1578 7.72112C16.1498 7.69712 16.1158 7.69712 16.1078 7.72112L16.0448 7.90812L15.8488 7.91012C15.8433 7.90998 15.8378 7.91161 15.8333 7.91478C15.8287 7.91795 15.8253 7.92249 15.8235 7.92774C15.8217 7.93298 15.8217 7.93867 15.8233 7.94395C15.825 7.94924 15.8283 7.95386 15.8328 7.95712L15.9908 8.07413L15.9318 8.26212C15.9305 8.26731 15.9307 8.27279 15.9324 8.27786C15.9342 8.28292 15.9374 8.28735 15.9417 8.29056C15.946 8.29378 15.9512 8.29565 15.9565 8.29593C15.9619 8.29621 15.9672 8.29488 15.9718 8.29212L16.1318 8.17712L16.2918 8.29113C16.2964 8.29424 16.3019 8.29585 16.3074 8.29574C16.313 8.29564 16.3184 8.29381 16.3229 8.29053C16.3273 8.28725 16.3307 8.28266 16.3325 8.2774C16.3343 8.27214 16.3344 8.26645 16.3328 8.26112L16.2738 8.07413L16.4318 7.95712C16.4362 7.95391 16.4395 7.94938 16.4412 7.94419C16.4429 7.93901 16.4429 7.93342 16.4413 7.92822C16.4396 7.92302 16.4363 7.91847 16.432 7.91522C16.4276 7.91198 16.4223 7.91019 16.4168 7.91012L16.2198 7.90912ZM16.1578 9.27812L16.2198 9.46512L16.4168 9.46612C16.4418 9.46612 16.4528 9.49912 16.4318 9.51412L16.2738 9.63112L16.3338 9.81812C16.3354 9.82345 16.3353 9.82914 16.3335 9.8344C16.3317 9.83966 16.3283 9.84425 16.3239 9.84753C16.3194 9.85081 16.314 9.85263 16.3084 9.85273C16.3029 9.85284 16.2974 9.85123 16.2928 9.84812L16.1328 9.73312L15.9728 9.84812C15.9682 9.85123 15.9628 9.85284 15.9572 9.85273C15.9516 9.85263 15.9463 9.85081 15.9418 9.84753C15.9373 9.84425 15.9339 9.83966 15.9321 9.8344C15.9304 9.82914 15.9302 9.82345 15.9318 9.81812L15.9918 9.63112L15.8328 9.51412C15.8278 9.51104 15.824 9.50637 15.8221 9.50087C15.8201 9.49536 15.82 9.48935 15.8218 9.4838C15.8237 9.47825 15.8274 9.47348 15.8323 9.47027C15.8371 9.46707 15.843 9.4656 15.8488 9.46612L16.0448 9.46512L16.1078 9.27812C16.1158 9.25412 16.1498 9.25412 16.1578 9.27812ZM16.2198 11.1911L16.1578 11.0051C16.1498 10.9801 16.1158 10.9801 16.1078 11.0051L16.0448 11.1911L15.8488 11.1931C15.8433 11.1933 15.838 11.1952 15.8336 11.1985C15.8292 11.2018 15.8259 11.2063 15.8241 11.2115C15.8224 11.2168 15.8223 11.2224 15.8239 11.2277C15.8254 11.233 15.8285 11.2376 15.8328 11.2411L15.9908 11.3581L15.9318 11.5451C15.9305 11.5503 15.9307 11.5558 15.9324 11.5608C15.9342 11.5659 15.9374 11.5703 15.9417 11.5735C15.946 11.5768 15.9512 11.5786 15.9565 11.5789C15.9619 11.5792 15.9672 11.5779 15.9718 11.5751L16.1318 11.4601L16.2918 11.5751C16.2964 11.5782 16.3019 11.5798 16.3074 11.5797C16.313 11.5796 16.3184 11.5778 16.3229 11.5745C16.3273 11.5712 16.3307 11.5666 16.3325 11.5614C16.3343 11.5561 16.3344 11.5504 16.3328 11.5451L16.2738 11.3571L16.4318 11.2411C16.4361 11.2377 16.4392 11.2331 16.4408 11.2279C16.4423 11.2227 16.4423 11.2172 16.4407 11.212C16.4391 11.2068 16.4359 11.2022 16.4317 11.1989C16.4274 11.1955 16.4222 11.1935 16.4168 11.1931L16.2198 11.1911ZM16.1578 12.5911L16.2198 12.7781L16.4168 12.7801C16.4418 12.7801 16.4528 12.8121 16.4318 12.8271L16.2738 12.9441L16.3338 13.1321C16.3362 13.1375 16.3367 13.1436 16.3352 13.1493C16.3336 13.1551 16.3302 13.1601 16.3254 13.1636C16.3206 13.1671 16.3148 13.1689 16.3088 13.1686C16.3029 13.1683 16.2973 13.166 16.2928 13.1621L16.1328 13.0471L15.9728 13.1611C15.9684 13.165 15.9627 13.1673 15.9568 13.1676C15.9509 13.1679 15.945 13.1661 15.9402 13.1626C15.9354 13.1591 15.932 13.1541 15.9305 13.1483C15.9289 13.1426 15.9294 13.1365 15.9318 13.1311L15.9918 12.9441L15.8328 12.8271C15.8289 12.8236 15.8261 12.819 15.8247 12.8138C15.8234 12.8087 15.8236 12.8033 15.8253 12.7983C15.827 12.7933 15.8301 12.7889 15.8343 12.7857C15.8385 12.7824 15.8435 12.7805 15.8488 12.7801L16.0448 12.7781L16.1078 12.5911C16.1158 12.5671 16.1498 12.5671 16.1578 12.5911ZM16.2198 14.2211L16.1578 14.0341C16.1498 14.0101 16.1158 14.0101 16.1078 14.0341L16.0448 14.2211L15.8488 14.2231C15.8435 14.2235 15.8385 14.2254 15.8343 14.2287C15.8301 14.2319 15.827 14.2363 15.8253 14.2413C15.8236 14.2463 15.8234 14.2517 15.8247 14.2568C15.8261 14.262 15.8289 14.2666 15.8328 14.2701L15.9908 14.3871L15.9318 14.5751C15.9238 14.5991 15.9518 14.6191 15.9718 14.6051L16.1318 14.4901L16.2918 14.6041C16.3128 14.6191 16.3418 14.5991 16.3328 14.5741L16.2738 14.3871L16.4318 14.2701C16.4357 14.2666 16.4385 14.2621 16.4399 14.2571C16.4413 14.252 16.4412 14.2467 16.4396 14.2417C16.438 14.2368 16.435 14.2324 16.431 14.229C16.4269 14.2257 16.422 14.2237 16.4168 14.2231L16.2198 14.2211Z" fill="#F5F5F5"/>
</g>
</g>
<defs>
<clipPath id="clip0_227_227">
<rect width="24" height="24" fill="white"/>
</clipPath>
</defs>
</svg>
