<svg width="24" height="24" viewBox="0 0 24 24" fill="none" xmlns="http://www.w3.org/2000/svg">
<g clip-path="url(#clip0_227_228)">
<mask id="mask0_227_228" style="mask-type:luminance" maskUnits="userSpaceOnUse" x="0" y="0" width="24" height="24">
<path d="M24 0H0V24H24V0Z" fill="white"/>
</mask>
<g mask="url(#mask0_227_228)">
<path fill-rule="evenodd" clip-rule="evenodd" d="M0.784 3.15234H14.217C14.502 3.48634 14.721 3.87734 14.854 4.30634H0.147C0.281 3.87734 0.499 3.48634 0.784 3.15234ZM0 5.46034H15V6.61434H0V5.46034ZM15 7.76834H0V8.92134H15V7.76834ZM0 10.0753H15V11.2293H0V10.0753ZM15 12.3833H0V13.5373H15V12.3833ZM0.147 14.6913H14.854C14.721 15.1203 14.502 15.5113 14.217 15.8453H0.784C0.495627 15.5078 0.278902 15.1152 0.147 14.6913Z" fill="#F5F5F5"/>
<path fill-rule="evenodd" clip-rule="evenodd" d="M11.719 2H3.28C2.28 2 1.384 2.448 0.782001 3.154H14.216C13.9084 2.79202 13.5258 2.50131 13.0946 2.30204C12.6634 2.10276 12.194 1.9997 11.719 2ZM15 6.615H1.4296e-06V7.77H15V6.615ZM14.853 4.308C14.949 4.616 15 4.943 15 5.282V5.462H1.4296e-06V5.282C1.4296e-06 4.942 0.0510014 4.616 0.147001 4.308H14.853ZM15 8.923H1.4296e-06V10.077H15V8.923ZM15 13.539V13.719C15 14.059 14.949 14.385 14.853 14.693H0.147001C0.0492519 14.3776 -0.000306872 14.0492 1.4296e-06 13.719V13.539H15ZM14.217 15.846H0.783001C1.09069 16.2081 1.47351 16.4989 1.90488 16.6982C2.33625 16.8975 2.80583 17.0004 3.281 17H11.719C12.719 17 13.615 16.552 14.217 15.846ZM1.4296e-06 11.231H15V12.385H1.4296e-06V11.23V11.231Z" fill="#FA4051"/>
<path d="M8 2H3.25C1.455 2 0 3.47 0 5.281V10.077H8V2Z" fill="#1939C9"/>
<path fill-rule="evenodd" clip-rule="evenodd" d="M2.61283 2.72212L2.67483 2.90912L2.87183 2.91113C2.89683 2.91113 2.90783 2.94312 2.88683 2.95812L2.72883 3.07512L2.78883 3.26313C2.7904 3.26846 2.79028 3.27413 2.7885 3.2794C2.78672 3.28466 2.78336 3.28924 2.77887 3.29252C2.77439 3.2958 2.769 3.29763 2.76345 3.29774C2.75789 3.29785 2.75244 3.29624 2.74783 3.29313L2.58783 3.17813L2.42783 3.29212C2.42323 3.29488 2.41791 3.29621 2.41256 3.29593C2.4072 3.29566 2.40204 3.29378 2.39775 3.29056C2.39346 3.28734 2.39022 3.28293 2.38846 3.27786C2.38669 3.2728 2.38647 3.26731 2.38783 3.26212L2.44583 3.07512L2.28783 2.95812C2.28335 2.95485 2.28003 2.95024 2.27836 2.94495C2.27669 2.93966 2.27675 2.93398 2.27854 2.92873C2.28033 2.92348 2.28374 2.91894 2.28829 2.91577C2.29285 2.9126 2.29829 2.91098 2.30383 2.91113L2.49983 2.90912L2.56283 2.72212C2.56486 2.71715 2.56832 2.71291 2.57277 2.70992C2.57723 2.70693 2.58247 2.70533 2.58783 2.70533C2.5932 2.70533 2.59844 2.70693 2.60289 2.70992C2.60735 2.71291 2.61081 2.71715 2.61283 2.72212ZM0.86983 3.26313C0.868264 3.26846 0.868379 3.27413 0.870162 3.2794C0.871944 3.28466 0.875307 3.28924 0.879791 3.29252C0.884275 3.2958 0.889661 3.29763 0.895216 3.29774C0.900771 3.29785 0.906224 3.29624 0.91083 3.29313L1.07083 3.17813L1.23083 3.29313C1.23543 3.29589 1.24075 3.2972 1.24611 3.29693C1.25147 3.29665 1.25662 3.29479 1.26091 3.29157C1.26521 3.28835 1.26844 3.28392 1.27021 3.27885C1.27198 3.27379 1.27219 3.26832 1.27083 3.26313L1.21283 3.07613L1.37083 2.95912C1.37512 2.95566 1.37824 2.95099 1.37979 2.94571C1.38134 2.94043 1.38124 2.9348 1.3795 2.92957C1.37776 2.92435 1.37446 2.91978 1.37005 2.91648C1.36565 2.91318 1.36033 2.91132 1.35483 2.91113L1.15883 2.90912L1.12483 2.80913C1.0406 2.88266 0.960161 2.96042 0.88383 3.04212L0.92983 3.07613L0.86983 3.26313ZM1.09583 4.27912L1.15883 4.46613L1.35483 4.46713C1.38083 4.46713 1.39083 4.50012 1.37083 4.51512L1.21283 4.63213L1.27183 4.81912C1.27319 4.82431 1.27298 4.8298 1.27121 4.83486C1.26944 4.83993 1.26621 4.84434 1.26191 4.84756C1.25762 4.85078 1.25247 4.85265 1.24711 4.85292C1.24175 4.8532 1.23643 4.85188 1.23183 4.84912L1.07183 4.73412L0.91183 4.84912C0.907241 4.85262 0.901649 4.85456 0.895875 4.85466C0.890101 4.85475 0.884449 4.85299 0.87975 4.84963C0.875051 4.84628 0.871552 4.8415 0.869767 4.83601C0.867981 4.83052 0.868004 4.8246 0.86983 4.81912L0.92983 4.63213L0.77183 4.51512C0.767593 4.51172 0.764478 4.50714 0.762894 4.50194C0.761309 4.49675 0.761328 4.49118 0.762948 4.486C0.764568 4.48082 0.767714 4.47624 0.771974 4.47287C0.776235 4.4695 0.781412 4.46751 0.78683 4.46713L0.98383 4.46613L1.04583 4.27912C1.04786 4.27415 1.05132 4.2699 1.05577 4.26691C1.06023 4.26392 1.06547 4.26232 1.07083 4.26232C1.0762 4.26232 1.08144 4.26392 1.08589 4.26691C1.09035 4.2699 1.09381 4.27415 1.09583 4.27912ZM1.15983 6.19112L1.09683 6.00513C1.09481 6.00016 1.09135 5.9959 1.08689 5.99291C1.08244 5.98992 1.0772 5.98832 1.07183 5.98832C1.06647 5.98832 1.06123 5.98992 1.05677 5.99291C1.05232 5.9959 1.04886 6.00016 1.04683 6.00513L0.98483 6.19112L0.78783 6.19312C0.782412 6.1935 0.777235 6.1955 0.772974 6.19887C0.768714 6.20224 0.765568 6.20682 0.763948 6.212C0.762328 6.21718 0.762309 6.22274 0.763894 6.22793C0.765478 6.23313 0.768593 6.23772 0.77283 6.24112L0.93083 6.35812L0.87083 6.54513C0.869264 6.55046 0.869379 6.55613 0.871162 6.5614C0.872944 6.56666 0.876307 6.57124 0.880791 6.57452C0.885275 6.5778 0.890661 6.57962 0.896216 6.57973C0.901771 6.57984 0.907224 6.57823 0.91183 6.57512L1.07183 6.46012L1.23183 6.57512C1.23644 6.57823 1.24189 6.57984 1.24745 6.57973C1.253 6.57962 1.25839 6.5778 1.26287 6.57452C1.26736 6.57124 1.27072 6.56666 1.2725 6.5614C1.27428 6.55613 1.2744 6.55046 1.27283 6.54513L1.21283 6.35812L1.37183 6.24112C1.37612 6.23766 1.37924 6.23299 1.38079 6.22771C1.38234 6.22243 1.38224 6.2168 1.3805 6.21157C1.37876 6.20635 1.37546 6.20178 1.37105 6.19848C1.36665 6.19518 1.36133 6.19331 1.35583 6.19312L1.15983 6.19112ZM1.09683 7.59113L1.15983 7.77812L1.35583 7.78012C1.38183 7.78012 1.39183 7.81213 1.37183 7.82713L1.21383 7.94412L1.27283 8.13212C1.27419 8.13731 1.27398 8.1428 1.27221 8.14786C1.27044 8.15293 1.26721 8.15734 1.26291 8.16056C1.25862 8.16378 1.25347 8.16565 1.24811 8.16592C1.24275 8.1662 1.23744 8.16489 1.23283 8.16213L1.07283 8.04712L0.91283 8.16112C0.908241 8.16462 0.902649 8.16657 0.896875 8.16666C0.891101 8.16675 0.885449 8.16499 0.88075 8.16163C0.876051 8.15828 0.872552 8.1535 0.870767 8.14801C0.868981 8.14252 0.869004 8.1366 0.87083 8.13112L0.93083 7.94412L0.77283 7.82713C0.768932 7.82366 0.766124 7.81913 0.764746 7.81409C0.763368 7.80906 0.763479 7.80372 0.765066 7.79875C0.766654 7.79377 0.769649 7.78937 0.773689 7.78606C0.777729 7.78276 0.782641 7.78069 0.78783 7.78012L0.98483 7.77812L1.04683 7.59113C1.04886 7.58616 1.05232 7.5819 1.05677 7.57891C1.06123 7.57592 1.06647 7.57433 1.07183 7.57433C1.0772 7.57433 1.08244 7.57592 1.08689 7.57891C1.09135 7.5819 1.09481 7.58616 1.09683 7.59113ZM1.15983 9.22113L1.09683 9.03412C1.09481 9.02915 1.09135 9.0249 1.08689 9.02191C1.08244 9.01892 1.0772 9.01732 1.07183 9.01732C1.06647 9.01732 1.06123 9.01892 1.05677 9.02191C1.05232 9.0249 1.04886 9.02915 1.04683 9.03412L0.98483 9.22113L0.78783 9.22312C0.782641 9.22369 0.777729 9.22576 0.773689 9.22906C0.769649 9.23237 0.766654 9.23678 0.765066 9.24176C0.763479 9.24673 0.763368 9.25206 0.764746 9.25709C0.766124 9.26213 0.768932 9.26665 0.77283 9.27012L0.93083 9.38712L0.87083 9.57513C0.869264 9.58046 0.869379 9.58613 0.871162 9.5914C0.872944 9.59666 0.876307 9.60125 0.880791 9.60453C0.885275 9.60781 0.890661 9.60963 0.896216 9.60974C0.901771 9.60985 0.907224 9.60823 0.91183 9.60512L1.07183 9.49013L1.23183 9.60412C1.23644 9.60723 1.24189 9.60884 1.24745 9.60873C1.253 9.60862 1.25839 9.6068 1.26287 9.60352C1.26736 9.60024 1.27072 9.59566 1.2725 9.5904C1.27428 9.58513 1.2744 9.57945 1.27283 9.57412L1.21283 9.38712L1.37183 9.27012C1.37577 9.26658 1.37857 9.26198 1.37991 9.25687C1.38124 9.25175 1.38105 9.24635 1.37934 9.24134C1.37764 9.23634 1.3745 9.23194 1.37032 9.2287C1.36614 9.22546 1.36111 9.22352 1.35583 9.22312L1.15983 9.22113ZM1.85383 3.45912L1.91583 3.64513L2.11283 3.64712C2.13883 3.64712 2.14883 3.67912 2.12883 3.69512L1.96983 3.81112L2.02983 3.99912C2.0314 4.00445 2.03128 4.01013 2.0295 4.0154C2.02772 4.02066 2.02436 4.02524 2.01987 4.02852C2.01539 4.0318 2.01 4.03362 2.00445 4.03373C1.99889 4.03384 1.99344 4.03223 1.98883 4.02912L1.82883 3.91413L1.66883 4.02912C1.66423 4.03188 1.65891 4.0332 1.65356 4.03293C1.6482 4.03265 1.64304 4.03079 1.63875 4.02757C1.63446 4.02435 1.63122 4.01993 1.62946 4.01486C1.62769 4.0098 1.62747 4.00431 1.62883 3.99912L1.68783 3.81112L1.52883 3.69512C1.52386 3.69204 1.52007 3.68738 1.51808 3.68187C1.51609 3.67637 1.51601 3.67036 1.51786 3.66481C1.51971 3.65925 1.52338 3.65449 1.52828 3.65128C1.53317 3.64807 1.539 3.6466 1.54483 3.64712L1.74183 3.64513L1.80383 3.45912C1.80586 3.45415 1.80932 3.44991 1.81377 3.44692C1.81823 3.44393 1.82347 3.44232 1.82883 3.44232C1.8342 3.44232 1.83944 3.44393 1.84389 3.44692C1.84835 3.44991 1.85181 3.45415 1.85383 3.45912ZM1.91583 5.37212L1.85383 5.18512C1.85181 5.18015 1.84835 5.1759 1.84389 5.17291C1.83944 5.16992 1.8342 5.16832 1.82883 5.16832C1.82347 5.16832 1.81823 5.16992 1.81377 5.17291C1.80932 5.1759 1.80586 5.18015 1.80383 5.18512L1.74183 5.37212L1.54483 5.37313C1.53933 5.37332 1.53402 5.37518 1.52961 5.37848C1.5252 5.38178 1.52191 5.38634 1.52017 5.39156C1.51843 5.39679 1.51833 5.40242 1.51987 5.4077C1.52142 5.41298 1.52455 5.41766 1.52883 5.42112L1.68783 5.53813L1.62783 5.72512C1.62627 5.73045 1.62638 5.73614 1.62816 5.74141C1.62995 5.74667 1.63331 5.75124 1.63779 5.75452C1.64228 5.7578 1.64766 5.75962 1.65322 5.75973C1.65877 5.75984 1.66423 5.75824 1.66883 5.75513L1.82883 5.64012L1.98883 5.75513C1.99344 5.75789 1.99875 5.7592 2.00411 5.75892C2.00947 5.75865 2.01462 5.75678 2.01891 5.75356C2.02321 5.75034 2.02644 5.74592 2.02821 5.74085C2.02998 5.73579 2.03019 5.73031 2.02883 5.72512L1.96983 5.53813L2.12883 5.42112C2.13312 5.41766 2.13624 5.41298 2.13779 5.4077C2.13934 5.40242 2.13924 5.39679 2.1375 5.39156C2.13576 5.38634 2.13246 5.38178 2.12805 5.37848C2.12365 5.37518 2.11833 5.37332 2.11283 5.37313L1.91583 5.37212ZM1.85383 6.82512L1.91583 7.01213L2.11283 7.01312C2.13883 7.01312 2.14883 7.04612 2.12883 7.06112L1.96983 7.17812L2.02983 7.36612C2.03119 7.37131 2.03098 7.3768 2.02921 7.38186C2.02744 7.38693 2.02421 7.39134 2.01991 7.39456C2.01562 7.39778 2.01047 7.39965 2.00511 7.39993C1.99975 7.4002 1.99444 7.39888 1.98983 7.39612L1.82883 7.28113L1.66883 7.39512C1.66423 7.39788 1.65891 7.3992 1.65356 7.39892C1.6482 7.39865 1.64304 7.39678 1.63875 7.39356C1.63446 7.39034 1.63122 7.38593 1.62946 7.38086C1.62769 7.3758 1.62747 7.37031 1.62883 7.36512L1.68783 7.17812L1.52883 7.06112C1.52455 7.05766 1.52142 7.05298 1.51987 7.0477C1.51833 7.04242 1.51843 7.03679 1.52017 7.03156C1.52191 7.02634 1.5252 7.02179 1.52961 7.01849C1.53402 7.01519 1.53933 7.01331 1.54483 7.01312L1.74183 7.01213L1.80383 6.82512C1.80586 6.82015 1.80932 6.8159 1.81377 6.81291C1.81823 6.80992 1.82347 6.80832 1.82883 6.80832C1.8342 6.80832 1.83944 6.80992 1.84389 6.81291C1.84835 6.8159 1.85181 6.82015 1.85383 6.82512ZM1.91583 8.48513L1.85283 8.30113C1.85081 8.29616 1.84735 8.29191 1.84289 8.28892C1.83844 8.28593 1.8332 8.28433 1.82783 8.28433C1.82247 8.28433 1.81723 8.28593 1.81277 8.28892C1.80832 8.29191 1.80486 8.29616 1.80283 8.30113L1.74083 8.48712L1.54383 8.48912C1.53833 8.48931 1.53302 8.49118 1.52861 8.49448C1.5242 8.49778 1.52091 8.50235 1.51917 8.50757C1.51743 8.5128 1.51733 8.51843 1.51887 8.52371C1.52042 8.52899 1.52355 8.53367 1.52783 8.53713L1.68683 8.65313L1.62683 8.84113C1.62527 8.84646 1.62538 8.85214 1.62716 8.85741C1.62895 8.86267 1.63231 8.86724 1.63679 8.87052C1.64128 8.8738 1.64666 8.87562 1.65222 8.87573C1.65777 8.87584 1.66323 8.87423 1.66783 8.87112L1.82783 8.75612L1.98783 8.87112C1.99244 8.87388 1.99775 8.87521 2.00311 8.87493C2.00847 8.87466 2.01362 8.87278 2.01791 8.86956C2.02221 8.86634 2.02544 8.86192 2.02721 8.85685C2.02898 8.85179 2.02919 8.84632 2.02783 8.84113L1.96883 8.65313L2.12783 8.53713C2.13212 8.53367 2.13524 8.52899 2.13679 8.52371C2.13834 8.51843 2.13824 8.5128 2.1365 8.50757C2.13476 8.50235 2.13146 8.49778 2.12705 8.49448C2.12265 8.49118 2.11733 8.48931 2.11183 8.48912L1.91483 8.48712L1.91583 8.48513ZM2.67583 4.46513L2.61383 4.27812C2.61181 4.27315 2.60835 4.26891 2.60389 4.26592C2.59944 4.26293 2.5942 4.26133 2.58883 4.26133C2.58347 4.26133 2.57823 4.26293 2.57377 4.26592C2.56932 4.26891 2.56586 4.27315 2.56383 4.27812L2.50083 4.46513L2.30483 4.46613C2.29933 4.46632 2.29402 4.46818 2.28961 4.47148C2.28521 4.47478 2.28191 4.47934 2.28017 4.48456C2.27843 4.48979 2.27833 4.49542 2.27987 4.5007C2.28142 4.50598 2.28455 4.51066 2.28883 4.51412L2.44683 4.63113L2.38783 4.81812C2.38647 4.82331 2.38669 4.82879 2.38846 4.83385C2.39022 4.83892 2.39346 4.84334 2.39775 4.84656C2.40204 4.84978 2.4072 4.85165 2.41256 4.85192C2.41791 4.8522 2.42323 4.85088 2.42783 4.84812L2.58783 4.73312L2.74783 4.84812C2.75242 4.85162 2.75802 4.85356 2.76379 4.85366C2.76956 4.85375 2.77521 4.85199 2.77991 4.84863C2.78461 4.84527 2.78811 4.8405 2.7899 4.83501C2.79168 4.82952 2.79166 4.8236 2.78983 4.81812L2.72983 4.63113L2.88783 4.51412C2.89207 4.51072 2.89519 4.50614 2.89677 4.50094C2.89836 4.49575 2.89834 4.49019 2.89672 4.48501C2.8951 4.47983 2.89195 4.47524 2.88769 4.47187C2.88343 4.4685 2.87825 4.46651 2.87283 4.46613L2.67583 4.46513ZM2.61383 6.00513L2.67583 6.19112L2.87283 6.19312C2.89783 6.19312 2.90883 6.22612 2.88783 6.24112L2.72983 6.35812L2.78983 6.54513C2.7914 6.55046 2.79128 6.55613 2.7895 6.5614C2.78772 6.56666 2.78436 6.57124 2.77987 6.57452C2.77539 6.5778 2.77 6.57962 2.76445 6.57973C2.75889 6.57984 2.75344 6.57823 2.74883 6.57512L2.58883 6.46012L2.42883 6.57512C2.42423 6.57788 2.41891 6.5792 2.41356 6.57893C2.4082 6.57865 2.40304 6.57679 2.39875 6.57357C2.39446 6.57035 2.39122 6.56592 2.38946 6.56085C2.38769 6.55579 2.38747 6.55032 2.38883 6.54513L2.44683 6.35812L2.28883 6.24112C2.28455 6.23766 2.28142 6.23299 2.27987 6.22771C2.27833 6.22243 2.27843 6.2168 2.28017 6.21157C2.28191 6.20635 2.28521 6.20178 2.28961 6.19848C2.29402 6.19518 2.29933 6.19331 2.30483 6.19312L2.49983 6.19112L2.56283 6.00513C2.56486 6.00016 2.56832 5.9959 2.57277 5.99291C2.57723 5.98992 2.58247 5.98832 2.58783 5.98832C2.5932 5.98832 2.59844 5.98992 2.60289 5.99291C2.60735 5.9959 2.61081 6.00016 2.61283 6.00513H2.61383ZM2.67583 7.77812L2.61383 7.59113C2.61181 7.58616 2.60835 7.5819 2.60389 7.57891C2.59944 7.57592 2.5942 7.57433 2.58883 7.57433C2.58347 7.57433 2.57823 7.57592 2.57377 7.57891C2.56932 7.5819 2.56586 7.58616 2.56383 7.59113L2.50083 7.77812L2.30483 7.78012C2.29956 7.78052 2.29452 7.78247 2.29034 7.78571C2.28617 7.78895 2.28303 7.79334 2.28133 7.79835C2.27962 7.80336 2.27943 7.80874 2.28076 7.81386C2.28209 7.81897 2.2849 7.82359 2.28883 7.82713L2.44683 7.94412L2.38783 8.13212C2.38647 8.13731 2.38669 8.1428 2.38846 8.14786C2.39022 8.15293 2.39346 8.15734 2.39775 8.16056C2.40204 8.16378 2.4072 8.16565 2.41256 8.16592C2.41791 8.1662 2.42323 8.16489 2.42783 8.16213L2.58783 8.04712L2.74783 8.16112C2.75242 8.16462 2.75802 8.16657 2.76379 8.16666C2.76956 8.16675 2.77521 8.16499 2.77991 8.16163C2.78461 8.15828 2.78811 8.1535 2.7899 8.14801C2.79168 8.14252 2.79166 8.1366 2.78983 8.13112L2.72983 7.94412L2.88783 7.82713C2.89173 7.82366 2.89454 7.81913 2.89592 7.81409C2.8973 7.80906 2.89718 7.80372 2.8956 7.79875C2.89401 7.79377 2.89102 7.78937 2.88697 7.78606C2.88293 7.78276 2.87802 7.78069 2.87283 7.78012L2.67583 7.77812ZM2.61383 9.03412L2.67583 9.22113L2.87283 9.22312C2.89783 9.22312 2.90883 9.25512 2.88783 9.27012L2.72983 9.38712L2.78983 9.57513C2.7914 9.58046 2.79128 9.58613 2.7895 9.5914C2.78772 9.59666 2.78436 9.60125 2.77987 9.60453C2.77539 9.60781 2.77 9.60963 2.76445 9.60974C2.75889 9.60985 2.75344 9.60823 2.74883 9.60512L2.58883 9.49013L2.42883 9.60412C2.42423 9.60688 2.41891 9.6082 2.41356 9.60793C2.4082 9.60765 2.40304 9.60579 2.39875 9.60257C2.39446 9.59935 2.39122 9.59492 2.38946 9.58985C2.38769 9.58479 2.38747 9.57931 2.38883 9.57412L2.44683 9.38712L2.28883 9.27012C2.2849 9.26658 2.28209 9.26198 2.28076 9.25687C2.27943 9.25175 2.27962 9.24635 2.28133 9.24134C2.28303 9.23634 2.28617 9.23194 2.29034 9.2287C2.29452 9.22546 2.29956 9.22352 2.30483 9.22312L2.49983 9.22113L2.56283 9.03412C2.56486 9.02915 2.56832 9.0249 2.57277 9.02191C2.57723 9.01892 2.58247 9.01732 2.58783 9.01732C2.5932 9.01732 2.59844 9.01892 2.60289 9.02191C2.60735 9.0249 2.61081 9.02915 2.61283 9.03412H2.61383ZM3.43183 3.64513L3.36983 3.46113C3.36781 3.45616 3.36435 3.4519 3.35989 3.44891C3.35544 3.44592 3.3502 3.44433 3.34483 3.44433C3.33947 3.44433 3.33423 3.44592 3.32977 3.44891C3.32532 3.4519 3.32186 3.45616 3.31983 3.46113L3.25683 3.64712L3.06083 3.64912C3.05533 3.64931 3.05002 3.65118 3.04561 3.65448C3.0412 3.65778 3.03791 3.66234 3.03617 3.66756C3.03443 3.67279 3.03433 3.67842 3.03587 3.6837C3.03742 3.68898 3.04055 3.69367 3.04483 3.69713L3.20283 3.81313L3.14283 4.00112C3.14101 4.0066 3.14098 4.01253 3.14277 4.01802C3.14456 4.02351 3.14805 4.02828 3.15275 4.03163C3.15745 4.03499 3.1631 4.03676 3.16888 4.03667C3.17465 4.03658 3.18024 4.03463 3.18483 4.03113L3.34483 3.91612L3.50483 4.03113C3.50943 4.03389 3.51475 4.03521 3.52011 4.03494C3.52547 4.03466 3.53062 4.03278 3.53491 4.02956C3.53921 4.02634 3.54244 4.02192 3.54421 4.01685C3.54598 4.01179 3.54619 4.00631 3.54483 4.00112L3.48583 3.81313L3.64383 3.69713C3.6487 3.69408 3.65242 3.6895 3.65441 3.68411C3.6564 3.67873 3.65655 3.67282 3.65484 3.66734C3.65312 3.66186 3.64964 3.65709 3.64494 3.6538C3.64023 3.6505 3.63457 3.64886 3.62883 3.64912L3.43183 3.64712V3.64513ZM3.36983 5.18512L3.43183 5.37212L3.62883 5.37313C3.65383 5.37313 3.66483 5.40612 3.64383 5.42112L3.48583 5.53813L3.54583 5.72512C3.5474 5.73045 3.54728 5.73614 3.5455 5.74141C3.54372 5.74667 3.54036 5.75124 3.53587 5.75452C3.53139 5.7578 3.526 5.75962 3.52045 5.75973C3.51489 5.75984 3.50944 5.75824 3.50483 5.75513L3.34483 5.64012L3.18483 5.75513C3.18023 5.75824 3.17477 5.75984 3.16922 5.75973C3.16366 5.75962 3.15828 5.7578 3.15379 5.75452C3.14931 5.75124 3.14595 5.74667 3.14416 5.74141C3.14238 5.73614 3.14227 5.73045 3.14383 5.72512L3.20383 5.53813L3.04483 5.42112C3.04055 5.41766 3.03742 5.41298 3.03587 5.4077C3.03433 5.40242 3.03443 5.39679 3.03617 5.39156C3.03791 5.38634 3.0412 5.38178 3.04561 5.37848C3.05002 5.37518 3.05533 5.37332 3.06083 5.37313L3.25683 5.37112L3.31883 5.18512C3.32086 5.18015 3.32432 5.1759 3.32877 5.17291C3.33323 5.16992 3.33847 5.16832 3.34383 5.16832C3.3492 5.16832 3.35444 5.16992 3.35889 5.17291C3.36335 5.1759 3.36781 5.18015 3.36983 5.18512ZM3.43183 7.01213L3.36983 6.82512C3.36183 6.80112 3.32783 6.80112 3.31983 6.82512L3.25683 7.01213L3.06083 7.01312C3.05533 7.01331 3.05002 7.01519 3.04561 7.01849C3.0412 7.02179 3.03791 7.02634 3.03617 7.03156C3.03443 7.03679 3.03433 7.04242 3.03587 7.0477C3.03742 7.05298 3.04055 7.05766 3.04483 7.06112L3.20283 7.17812L3.14283 7.36612C3.14101 7.3716 3.14098 7.37752 3.14277 7.38301C3.14456 7.3885 3.14805 7.39329 3.15275 7.39664C3.15745 7.4 3.1631 7.40175 3.16888 7.40166C3.17465 7.40157 3.18024 7.39962 3.18483 7.39612L3.34483 7.28113L3.50483 7.39512C3.50943 7.39788 3.51475 7.3992 3.52011 7.39892C3.52547 7.39865 3.53062 7.39678 3.53491 7.39356C3.53921 7.39034 3.54244 7.38593 3.54421 7.38086C3.54598 7.3758 3.54619 7.37031 3.54483 7.36512L3.48583 7.17812L3.64383 7.06112C3.64807 7.05772 3.65119 7.05314 3.65277 7.04794C3.65435 7.04275 3.65434 7.03718 3.65272 7.032C3.6511 7.02682 3.64795 7.02224 3.64369 7.01887C3.63943 7.0155 3.63425 7.0135 3.62883 7.01312L3.43183 7.01213ZM3.36983 8.30012L3.43183 8.48612L3.62883 8.48813C3.65383 8.48813 3.66483 8.52012 3.64383 8.53612L3.48583 8.65212L3.54583 8.84012C3.5474 8.84545 3.54728 8.85113 3.5455 8.8564C3.54372 8.86166 3.54036 8.86624 3.53587 8.86952C3.53139 8.8728 3.526 8.87462 3.52045 8.87473C3.51489 8.87484 3.50944 8.87324 3.50483 8.87013L3.34483 8.75512L3.18483 8.87013C3.18023 8.87324 3.17477 8.87484 3.16922 8.87473C3.16366 8.87462 3.15828 8.8728 3.15379 8.86952C3.14931 8.86624 3.14595 8.86166 3.14416 8.8564C3.14238 8.85113 3.14227 8.84545 3.14383 8.84012L3.20383 8.65212L3.04483 8.53612C3.04055 8.53266 3.03742 8.52798 3.03587 8.5227C3.03433 8.51742 3.03443 8.5118 3.03617 8.50658C3.03791 8.50135 3.0412 8.49678 3.04561 8.49348C3.05002 8.49018 3.05533 8.48832 3.06083 8.48813L3.25683 8.48612L3.31883 8.30012C3.32086 8.29515 3.32432 8.2909 3.32877 8.28791C3.33323 8.28492 3.33847 8.28332 3.34383 8.28332C3.3492 8.28332 3.35444 8.28492 3.35889 8.28791C3.36335 8.2909 3.36781 8.29515 3.36983 8.30012ZM4.19183 2.91012L4.12983 2.72212C4.12781 2.71715 4.12435 2.71291 4.11989 2.70992C4.11544 2.70693 4.1102 2.70533 4.10483 2.70533C4.09947 2.70533 4.09423 2.70693 4.08977 2.70992C4.08532 2.71291 4.08186 2.71715 4.07983 2.72212L4.01683 2.90912L3.81983 2.91113C3.81438 2.9112 3.80908 2.91298 3.80469 2.91623C3.8003 2.91948 3.79705 2.92402 3.79539 2.92922C3.79373 2.93442 3.79375 2.94001 3.79545 2.9452C3.79714 2.95039 3.80042 2.9549 3.80483 2.95812L3.96283 3.07512L3.90283 3.26313C3.90127 3.26846 3.90138 3.27413 3.90316 3.2794C3.90495 3.28466 3.90831 3.28924 3.91279 3.29252C3.91728 3.2958 3.92266 3.29763 3.92822 3.29774C3.93377 3.29785 3.93923 3.29624 3.94383 3.29313L4.10383 3.17813L4.26383 3.29212C4.26844 3.29523 4.27389 3.29684 4.27945 3.29673C4.285 3.29662 4.29039 3.29481 4.29487 3.29153C4.29936 3.28825 4.30272 3.28367 4.3045 3.27841C4.30628 3.27314 4.3064 3.26745 4.30483 3.26212L4.24483 3.07512L4.40483 2.95812C4.40931 2.95485 4.41263 2.95024 4.41431 2.94495C4.41598 2.93966 4.41592 2.93398 4.41413 2.92873C4.41234 2.92348 4.40892 2.91894 4.40437 2.91577C4.39982 2.9126 4.39438 2.91098 4.38883 2.91113L4.19183 2.91012ZM4.12983 4.27912L4.19183 4.46613L4.38883 4.46713C4.41383 4.46713 4.42483 4.50012 4.40383 4.51512L4.24583 4.63213L4.30583 4.81912C4.30766 4.8246 4.30768 4.83052 4.3059 4.83601C4.30411 4.8415 4.30061 4.84628 4.29591 4.84963C4.29121 4.85299 4.28556 4.85475 4.27979 4.85466C4.27402 4.85456 4.26842 4.85262 4.26383 4.84912L4.10383 4.73412L3.94383 4.84912C3.93923 4.85188 3.93391 4.8532 3.92856 4.85292C3.9232 4.85265 3.91804 4.85078 3.91375 4.84756C3.90946 4.84434 3.90622 4.83993 3.90446 4.83486C3.90269 4.8298 3.90247 4.82431 3.90383 4.81912L3.96283 4.63213L3.80483 4.51512C3.8006 4.51172 3.79748 4.50714 3.7959 4.50194C3.79431 4.49675 3.79433 4.49118 3.79595 4.486C3.79757 4.48082 3.80072 4.47624 3.80498 4.47287C3.80924 4.4695 3.81442 4.46751 3.81983 4.46713L4.01683 4.46513L4.07883 4.27912C4.08086 4.27415 4.08432 4.2699 4.08877 4.26691C4.09323 4.26392 4.09847 4.26232 4.10383 4.26232C4.1092 4.26232 4.11444 4.26392 4.11889 4.26691C4.12335 4.2699 4.12781 4.27415 4.12983 4.27912ZM4.18983 6.19112L4.12783 6.00513C4.12581 6.00016 4.12235 5.9959 4.11789 5.99291C4.11344 5.98992 4.1082 5.98832 4.10283 5.98832C4.09747 5.98832 4.09223 5.98992 4.08777 5.99291C4.08332 5.9959 4.07986 6.00016 4.07783 6.00513L4.01483 6.19112L3.81783 6.19312C3.81242 6.1935 3.80724 6.1955 3.80298 6.19887C3.79872 6.20224 3.79557 6.20682 3.79395 6.212C3.79233 6.21718 3.79231 6.22274 3.7939 6.22793C3.79548 6.23313 3.7986 6.23772 3.80283 6.24112L3.96083 6.35812L3.90083 6.54513C3.89927 6.55046 3.89938 6.55613 3.90116 6.5614C3.90295 6.56666 3.90631 6.57124 3.91079 6.57452C3.91528 6.5778 3.92066 6.57962 3.92622 6.57973C3.93177 6.57984 3.93723 6.57823 3.94183 6.57512L4.10183 6.46012L4.26183 6.57512C4.26644 6.57823 4.27189 6.57984 4.27745 6.57973C4.283 6.57962 4.28839 6.5778 4.29287 6.57452C4.29736 6.57124 4.30072 6.56666 4.3025 6.5614C4.30428 6.55613 4.3044 6.55046 4.30283 6.54513L4.24283 6.35812L4.40283 6.24112C4.40712 6.23766 4.41024 6.23299 4.41179 6.22771C4.41334 6.22243 4.41324 6.2168 4.4115 6.21157C4.40976 6.20635 4.40646 6.20178 4.40205 6.19848C4.39765 6.19518 4.39233 6.19331 4.38683 6.19312L4.18983 6.19112ZM4.12783 7.59113L4.18983 7.77812L4.38683 7.78012C4.41183 7.78012 4.42283 7.81213 4.40183 7.82713L4.24383 7.94412L4.30383 8.13212C4.30566 8.1376 4.30568 8.14352 4.3039 8.14901C4.30211 8.1545 4.29861 8.15929 4.29391 8.16264C4.28921 8.166 4.28356 8.16776 4.27779 8.16767C4.27201 8.16757 4.26642 8.16563 4.26183 8.16213L4.10183 8.04712L3.94183 8.16112C3.93723 8.16388 3.93191 8.16521 3.92656 8.16493C3.9212 8.16466 3.91604 8.16278 3.91175 8.15956C3.90746 8.15634 3.90422 8.15192 3.90246 8.14685C3.90069 8.14179 3.90047 8.13631 3.90183 8.13112L3.96083 7.94412L3.80283 7.82713C3.79893 7.82366 3.79613 7.81913 3.79475 7.81409C3.79337 7.80906 3.79348 7.80372 3.79507 7.79875C3.79666 7.79377 3.79965 7.78937 3.80369 7.78606C3.80773 7.78276 3.81264 7.78069 3.81783 7.78012L4.01483 7.77812L4.07683 7.59113C4.07886 7.58616 4.08232 7.5819 4.08677 7.57891C4.09123 7.57592 4.09647 7.57433 4.10183 7.57433C4.1072 7.57433 4.11244 7.57592 4.11689 7.57891C4.12135 7.5819 4.12581 7.58616 4.12783 7.59113ZM4.18983 9.22113L4.12783 9.03412C4.12581 9.02915 4.12235 9.0249 4.11789 9.02191C4.11344 9.01892 4.1082 9.01732 4.10283 9.01732C4.09747 9.01732 4.09223 9.01892 4.08777 9.02191C4.08332 9.0249 4.07986 9.02915 4.07783 9.03412L4.01483 9.22113L3.81783 9.22312C3.81264 9.22369 3.80773 9.22576 3.80369 9.22906C3.79965 9.23237 3.79666 9.23678 3.79507 9.24176C3.79348 9.24673 3.79337 9.25206 3.79475 9.25709C3.79613 9.26213 3.79893 9.26665 3.80283 9.27012L3.96083 9.38712L3.90083 9.57513C3.89927 9.58046 3.89938 9.58613 3.90116 9.5914C3.90295 9.59666 3.90631 9.60125 3.91079 9.60453C3.91528 9.60781 3.92066 9.60963 3.92622 9.60974C3.93177 9.60985 3.93723 9.60823 3.94183 9.60512L4.10183 9.49013L4.26183 9.60412C4.26644 9.60723 4.27189 9.60884 4.27745 9.60873C4.283 9.60862 4.28839 9.6068 4.29287 9.60352C4.29736 9.60024 4.30072 9.59566 4.3025 9.5904C4.30428 9.58513 4.3044 9.57945 4.30283 9.57412L4.24283 9.38712L4.40283 9.27012C4.40676 9.26658 4.40957 9.26198 4.41091 9.25687C4.41224 9.25175 4.41205 9.24635 4.41034 9.24134C4.40864 9.23634 4.4055 9.23194 4.40132 9.2287C4.39714 9.22546 4.39211 9.22352 4.38683 9.22312L4.18983 9.22113ZM4.88383 3.45912L4.94683 3.64513L5.14283 3.64712C5.16883 3.64712 5.17883 3.67912 5.15883 3.69512L5.00083 3.81112L5.05983 4.00112C5.06119 4.00631 5.06098 4.01179 5.05921 4.01685C5.05744 4.02192 5.05421 4.02634 5.04991 4.02956C5.04562 4.03278 5.04047 4.03466 5.03511 4.03494C5.02975 4.03521 5.02443 4.03389 5.01983 4.03113L4.85983 3.91612L4.69983 4.03113C4.69523 4.03424 4.68977 4.03584 4.68422 4.03573C4.67866 4.03562 4.67328 4.0338 4.66879 4.03052C4.66431 4.02724 4.66095 4.02267 4.65916 4.01741C4.65738 4.01214 4.65727 4.00645 4.65883 4.00112L4.71783 3.81313L4.55983 3.69713C4.5556 3.69373 4.55248 3.68914 4.5509 3.68394C4.54931 3.67875 4.54933 3.67318 4.55095 3.668C4.55257 3.66282 4.55572 3.65824 4.55998 3.65487C4.56424 3.6515 4.56942 3.6495 4.57483 3.64912L4.77183 3.64712L4.83383 3.46113C4.84183 3.43613 4.87583 3.43613 4.88383 3.46113V3.45912ZM4.94683 5.37212L4.88383 5.18512C4.87583 5.16112 4.84183 5.16112 4.83383 5.18512L4.77183 5.37212L4.57483 5.37313C4.56942 5.37351 4.56424 5.3755 4.55998 5.37887C4.55572 5.38224 4.55257 5.38682 4.55095 5.392C4.54933 5.39718 4.54931 5.40274 4.5509 5.40793C4.55248 5.41313 4.5556 5.41772 4.55983 5.42112L4.71783 5.53813L4.65783 5.72512C4.65627 5.73045 4.65638 5.73614 4.65816 5.74141C4.65995 5.74667 4.66331 5.75124 4.66779 5.75452C4.67228 5.7578 4.67766 5.75962 4.68322 5.75973C4.68877 5.75984 4.69423 5.75824 4.69883 5.75513L4.85883 5.64012L5.01883 5.75513C5.02344 5.75824 5.02889 5.75984 5.03445 5.75973C5.04 5.75962 5.04539 5.7578 5.04987 5.75452C5.05436 5.75124 5.05772 5.74667 5.0595 5.74141C5.06128 5.73614 5.0614 5.73045 5.05983 5.72512L4.99983 5.53813L5.15883 5.42112C5.16312 5.41766 5.16624 5.41298 5.16779 5.4077C5.16934 5.40242 5.16924 5.39679 5.1675 5.39156C5.16576 5.38634 5.16246 5.38178 5.15805 5.37848C5.15365 5.37518 5.14833 5.37332 5.14283 5.37313L4.94683 5.37212ZM4.88383 6.82512L4.94683 7.01213L5.14283 7.01312C5.16883 7.01312 5.17883 7.04612 5.15883 7.06112L5.00083 7.17812L5.05983 7.36612C5.06119 7.37131 5.06098 7.3768 5.05921 7.38186C5.05744 7.38693 5.05421 7.39134 5.04991 7.39456C5.04562 7.39778 5.04047 7.39965 5.03511 7.39993C5.02975 7.4002 5.02443 7.39888 5.01983 7.39612L4.85983 7.28113L4.69983 7.39512C4.69523 7.39823 4.68977 7.39984 4.68422 7.39973C4.67866 7.39962 4.67328 7.39781 4.66879 7.39453C4.66431 7.39125 4.66095 7.38666 4.65916 7.3814C4.65738 7.37613 4.65727 7.37045 4.65883 7.36512L4.71783 7.17812L4.55983 7.06112C4.5556 7.05772 4.55248 7.05314 4.5509 7.04794C4.54931 7.04275 4.54933 7.03718 4.55095 7.032C4.55257 7.02682 4.55572 7.02224 4.55998 7.01887C4.56424 7.0155 4.56942 7.0135 4.57483 7.01312L4.77183 7.01213L4.83383 6.82512C4.84183 6.80112 4.87583 6.80112 4.88383 6.82512ZM4.94683 8.48513L4.88483 8.30113C4.87683 8.27613 4.84283 8.27613 4.83483 8.30113L4.77283 8.48712L4.57583 8.48912C4.57042 8.4895 4.56524 8.4915 4.56098 8.49487C4.55672 8.49824 4.55357 8.50282 4.55195 8.508C4.55033 8.51318 4.55031 8.51874 4.5519 8.52393C4.55348 8.52913 4.5566 8.53373 4.56083 8.53713L4.71883 8.65313L4.65883 8.84113C4.65727 8.84646 4.65738 8.85214 4.65916 8.85741C4.66095 8.86267 4.66431 8.86724 4.66879 8.87052C4.67328 8.8738 4.67866 8.87562 4.68422 8.87573C4.68977 8.87584 4.69523 8.87423 4.69983 8.87112L4.85983 8.75612L5.01983 8.87112C5.02444 8.87423 5.02989 8.87584 5.03545 8.87573C5.041 8.87562 5.04639 8.8738 5.05087 8.87052C5.05536 8.86724 5.05872 8.86267 5.0605 8.85741C5.06228 8.85214 5.0624 8.84646 5.06083 8.84113L5.00083 8.65313L5.15983 8.53713C5.16412 8.53367 5.16724 8.52899 5.16879 8.52371C5.17034 8.51843 5.17024 8.5128 5.1685 8.50757C5.16676 8.50235 5.16346 8.49778 5.15905 8.49448C5.15465 8.49118 5.14933 8.48931 5.14383 8.48912L4.94783 8.48712L4.94683 8.48513ZM5.64183 2.72112L5.70483 2.90813L5.90083 2.91012C5.92683 2.91012 5.93683 2.94213 5.91683 2.95713L5.75883 3.07412L5.81783 3.26212C5.81919 3.26731 5.81898 3.2728 5.81721 3.27786C5.81544 3.28293 5.81221 3.28734 5.80791 3.29056C5.80362 3.29378 5.79847 3.29566 5.79311 3.29593C5.78775 3.29621 5.78243 3.29488 5.77783 3.29212L5.61783 3.17713L5.45783 3.29112C5.45324 3.29462 5.44765 3.29658 5.44188 3.29667C5.4361 3.29676 5.43045 3.29499 5.42575 3.29163C5.42105 3.28828 5.41756 3.28351 5.41577 3.27802C5.41398 3.27253 5.41401 3.2666 5.41583 3.26112L5.47583 3.07412L5.31683 2.95713C5.31235 2.95386 5.30903 2.94925 5.30736 2.94396C5.30569 2.93867 5.30575 2.93298 5.30754 2.92773C5.30932 2.92248 5.31274 2.91795 5.31729 2.91478C5.32185 2.91161 5.32729 2.90997 5.33283 2.91012L5.52983 2.90813L5.59183 2.72112C5.59983 2.69712 5.63383 2.69712 5.64183 2.72112ZM5.70483 4.46513L5.64183 4.27812C5.63981 4.27315 5.63635 4.26891 5.63189 4.26592C5.62744 4.26293 5.6222 4.26133 5.61683 4.26133C5.61147 4.26133 5.60623 4.26293 5.60177 4.26592C5.59732 4.26891 5.59386 4.27315 5.59183 4.27812L5.52983 4.46513L5.33283 4.46613C5.32733 4.46632 5.32202 4.46818 5.31761 4.47148C5.31321 4.47478 5.30991 4.47934 5.30817 4.48456C5.30643 4.48979 5.30632 4.49542 5.30787 4.5007C5.30942 4.50598 5.31255 4.51066 5.31683 4.51412L5.47583 4.63113L5.41583 4.81812C5.41427 4.82345 5.41438 4.82913 5.41616 4.8344C5.41795 4.83966 5.42131 4.84424 5.42579 4.84752C5.43028 4.8508 5.43566 4.85263 5.44122 4.85274C5.44677 4.85285 5.45223 4.85123 5.45683 4.84812L5.61683 4.73312L5.77683 4.84812C5.78143 4.85088 5.78675 4.8522 5.79211 4.85192C5.79747 4.85165 5.80262 4.84978 5.80691 4.84656C5.81121 4.84334 5.81444 4.83892 5.81621 4.83385C5.81798 4.82879 5.81819 4.82331 5.81683 4.81812L5.75883 4.63113L5.91683 4.51412C5.92112 4.51066 5.92424 4.50598 5.92579 4.5007C5.92734 4.49542 5.92724 4.48979 5.9255 4.48456C5.92376 4.47934 5.92046 4.47478 5.91605 4.47148C5.91165 4.46818 5.90633 4.46632 5.90083 4.46613L5.70483 4.46513ZM5.64183 6.00513L5.70483 6.19112L5.90083 6.19312C5.92683 6.19312 5.93683 6.22612 5.91683 6.24112L5.75883 6.35812L5.81783 6.54513C5.81919 6.55032 5.81898 6.55579 5.81721 6.56085C5.81544 6.56592 5.81221 6.57035 5.80791 6.57357C5.80362 6.57679 5.79847 6.57865 5.79311 6.57893C5.78775 6.5792 5.78243 6.57788 5.77783 6.57512L5.61783 6.46012L5.45783 6.57512C5.45324 6.57862 5.44765 6.58057 5.44188 6.58066C5.4361 6.58075 5.43045 6.57899 5.42575 6.57563C5.42105 6.57228 5.41756 6.56751 5.41577 6.56202C5.41398 6.55653 5.41401 6.55061 5.41583 6.54513L5.47583 6.35812L5.31683 6.24112C5.31255 6.23766 5.30942 6.23299 5.30787 6.22771C5.30632 6.22243 5.30643 6.2168 5.30817 6.21157C5.30991 6.20635 5.31321 6.20178 5.31761 6.19848C5.32202 6.19518 5.32733 6.19331 5.33283 6.19312L5.52983 6.19112L5.59183 6.00513C5.59386 6.00016 5.59732 5.9959 5.60177 5.99291C5.60623 5.98992 5.61147 5.98832 5.61683 5.98832C5.6222 5.98832 5.62744 5.98992 5.63189 5.99291C5.63635 5.9959 5.63981 6.00016 5.64183 6.00513ZM5.70483 7.77812L5.64183 7.59113C5.63981 7.58616 5.63635 7.5819 5.63189 7.57891C5.62744 7.57592 5.6222 7.57433 5.61683 7.57433C5.61147 7.57433 5.60623 7.57592 5.60177 7.57891C5.59732 7.5819 5.59386 7.58616 5.59183 7.59113L5.52983 7.77812L5.33283 7.78012C5.32756 7.78052 5.32252 7.78247 5.31834 7.78571C5.31417 7.78895 5.31103 7.79334 5.30933 7.79835C5.30762 7.80336 5.30742 7.80874 5.30876 7.81386C5.31009 7.81897 5.3129 7.82359 5.31683 7.82713L5.47583 7.94412L5.41583 8.13212C5.41427 8.13745 5.41438 8.14313 5.41616 8.1484C5.41795 8.15366 5.42131 8.15825 5.42579 8.16153C5.43028 8.16481 5.43566 8.16663 5.44122 8.16674C5.44677 8.16685 5.45223 8.16524 5.45683 8.16213L5.61683 8.04712L5.77683 8.16112C5.78143 8.16388 5.78675 8.16521 5.79211 8.16493C5.79747 8.16466 5.80262 8.16278 5.80691 8.15956C5.81121 8.15634 5.81444 8.15192 5.81621 8.14685C5.81798 8.14179 5.81819 8.13631 5.81683 8.13112L5.75883 7.94412L5.91683 7.82713C5.92077 7.82359 5.92357 7.81897 5.92491 7.81386C5.92624 7.80874 5.92604 7.80336 5.92434 7.79835C5.92264 7.79334 5.9195 7.78895 5.91532 7.78571C5.91114 7.78247 5.90611 7.78052 5.90083 7.78012L5.70483 7.77812ZM5.64183 9.03412L5.70483 9.22113L5.90083 9.22312C5.92683 9.22312 5.93683 9.25512 5.91683 9.27012L5.75883 9.38712L5.81783 9.57513C5.81919 9.58032 5.81898 9.5858 5.81721 9.59086C5.81544 9.59593 5.81221 9.60034 5.80791 9.60356C5.80362 9.60678 5.79847 9.60865 5.79311 9.60892C5.78775 9.6092 5.78243 9.60788 5.77783 9.60512L5.61783 9.49013L5.45783 9.60412C5.45324 9.60762 5.44765 9.60957 5.44188 9.60966C5.4361 9.60975 5.43045 9.60799 5.42575 9.60463C5.42105 9.60127 5.41756 9.5965 5.41577 9.59101C5.41398 9.58552 5.41401 9.5796 5.41583 9.57412L5.47583 9.38712L5.31683 9.27012C5.3129 9.26658 5.31009 9.26198 5.30876 9.25687C5.30742 9.25175 5.30762 9.24635 5.30933 9.24134C5.31103 9.23634 5.31417 9.23194 5.31834 9.2287C5.32252 9.22546 5.32756 9.22352 5.33283 9.22312L5.52983 9.22113L5.59183 9.03412C5.59386 9.02915 5.59732 9.0249 5.60177 9.02191C5.60623 9.01892 5.61147 9.01732 5.61683 9.01732C5.6222 9.01732 5.62744 9.01892 5.63189 9.02191C5.63635 9.0249 5.63981 9.02915 5.64183 9.03412ZM6.45983 3.64513L6.39983 3.46113C6.39781 3.45616 6.39435 3.4519 6.38989 3.44891C6.38544 3.44592 6.3802 3.44433 6.37483 3.44433C6.36947 3.44433 6.36423 3.44592 6.35977 3.44891C6.35532 3.4519 6.35186 3.45616 6.34983 3.46113L6.28783 3.64712L6.09083 3.64912C6.08533 3.64931 6.08002 3.65118 6.07561 3.65448C6.0712 3.65778 6.06791 3.66234 6.06617 3.66756C6.06443 3.67279 6.06433 3.67842 6.06587 3.6837C6.06742 3.68898 6.07055 3.69367 6.07483 3.69713L6.23383 3.81313L6.17383 4.00112C6.17247 4.00631 6.17269 4.01179 6.17446 4.01685C6.17622 4.02192 6.17946 4.02634 6.18375 4.02956C6.18804 4.03278 6.1932 4.03466 6.19856 4.03494C6.20391 4.03521 6.20923 4.03389 6.21383 4.03113L6.37483 3.91612L6.53483 4.03113C6.53943 4.03389 6.54475 4.03521 6.55011 4.03494C6.55547 4.03466 6.56062 4.03278 6.56491 4.02956C6.56921 4.02634 6.57244 4.02192 6.57421 4.01685C6.57598 4.01179 6.57619 4.00631 6.57483 4.00112L6.51583 3.81313L6.67483 3.69713C6.67981 3.69405 6.6836 3.68937 6.68559 3.68386C6.68758 3.67836 6.68766 3.67235 6.68581 3.6668C6.68396 3.66124 6.68029 3.65648 6.67539 3.65327C6.6705 3.65006 6.66466 3.6486 6.65883 3.64912L6.46183 3.64712L6.45983 3.64513ZM6.39983 5.18612L6.46183 5.37313L6.65883 5.37413C6.68483 5.37413 6.69483 5.40712 6.67483 5.42212L6.51583 5.53912L6.57583 5.72612C6.5774 5.73145 6.57728 5.73713 6.5755 5.7424C6.57372 5.74766 6.57036 5.75224 6.56587 5.75552C6.56139 5.7588 6.556 5.76063 6.55045 5.76074C6.54489 5.76085 6.53944 5.75923 6.53483 5.75612L6.37483 5.64112L6.21483 5.75612C6.21023 5.75888 6.20491 5.7602 6.19956 5.75992C6.1942 5.75965 6.18904 5.75778 6.18475 5.75456C6.18046 5.75134 6.17722 5.74692 6.17546 5.74185C6.17369 5.73679 6.17347 5.73131 6.17483 5.72612L6.23383 5.53912L6.07483 5.42212C6.07055 5.41866 6.06742 5.41398 6.06587 5.4087C6.06433 5.40342 6.06443 5.39779 6.06617 5.39256C6.06791 5.38734 6.0712 5.38278 6.07561 5.37948C6.08002 5.37618 6.08533 5.37432 6.09083 5.37413L6.28783 5.37212L6.34983 5.18612C6.35186 5.18115 6.35532 5.1769 6.35977 5.17391C6.36423 5.17092 6.36947 5.16932 6.37483 5.16932C6.3802 5.16932 6.38544 5.17092 6.38989 5.17391C6.39435 5.1769 6.39781 5.18115 6.39983 5.18612ZM6.46183 7.01312L6.39983 6.82612C6.39781 6.82115 6.39435 6.8169 6.38989 6.81391C6.38544 6.81092 6.3802 6.80932 6.37483 6.80932C6.36947 6.80932 6.36423 6.81092 6.35977 6.81391C6.35532 6.8169 6.35186 6.82115 6.34983 6.82612L6.28783 7.01312L6.09083 7.01412C6.08533 7.01431 6.08002 7.01618 6.07561 7.01948C6.0712 7.02278 6.06791 7.02734 6.06617 7.03256C6.06443 7.03779 6.06433 7.04342 6.06587 7.0487C6.06742 7.05398 6.07055 7.05866 6.07483 7.06212L6.23383 7.17912L6.17383 7.36713C6.17247 7.37232 6.17269 7.37779 6.17446 7.38285C6.17622 7.38792 6.17946 7.39235 6.18375 7.39557C6.18804 7.39879 6.1932 7.40065 6.19856 7.40093C6.20391 7.4012 6.20923 7.39988 6.21383 7.39712L6.37483 7.28212L6.53483 7.39612C6.53943 7.39888 6.54475 7.4002 6.55011 7.39993C6.55547 7.39965 6.56062 7.39778 6.56491 7.39456C6.56921 7.39134 6.57244 7.38693 6.57421 7.38186C6.57598 7.3768 6.57619 7.37131 6.57483 7.36612L6.51583 7.17912L6.67483 7.06212C6.67912 7.05866 6.68224 7.05398 6.68379 7.0487C6.68534 7.04342 6.68524 7.03779 6.6835 7.03256C6.68176 7.02734 6.67846 7.02278 6.67405 7.01948C6.66965 7.01618 6.66433 7.01431 6.65883 7.01412L6.46183 7.01312ZM6.39983 8.30012L6.46183 8.48612L6.65883 8.48813C6.68483 8.48813 6.69483 8.52012 6.67483 8.53612L6.51583 8.65212L6.57583 8.84012C6.5774 8.84545 6.57728 8.85113 6.5755 8.8564C6.57372 8.86166 6.57036 8.86624 6.56587 8.86952C6.56139 8.8728 6.556 8.87462 6.55045 8.87473C6.54489 8.87484 6.53944 8.87324 6.53483 8.87013L6.37483 8.75512L6.21483 8.87013C6.21023 8.87289 6.20491 8.87421 6.19956 8.87394C6.1942 8.87366 6.18904 8.87179 6.18475 8.86857C6.18046 8.86535 6.17722 8.86092 6.17546 8.85585C6.17369 8.85079 6.17347 8.84531 6.17483 8.84012L6.23383 8.65212L6.07483 8.53612C6.07055 8.53266 6.06742 8.52798 6.06587 8.5227C6.06433 8.51742 6.06443 8.5118 6.06617 8.50658C6.06791 8.50135 6.0712 8.49678 6.07561 8.49348C6.08002 8.49018 6.08533 8.48832 6.09083 8.48813L6.28783 8.48612L6.34983 8.30012C6.35186 8.29515 6.35532 8.2909 6.35977 8.28791C6.36423 8.28492 6.36947 8.28332 6.37483 8.28332C6.3802 8.28332 6.38544 8.28492 6.38989 8.28791C6.39435 8.2909 6.39781 8.29515 6.39983 8.30012ZM7.22083 2.91012L7.15883 2.72212C7.15083 2.69812 7.11683 2.69812 7.10883 2.72212L7.04583 2.90912L6.84983 2.91113C6.84429 2.91098 6.83885 2.9126 6.83429 2.91577C6.82974 2.91894 6.82633 2.92348 6.82454 2.92873C6.82275 2.93398 6.82269 2.93966 6.82436 2.94495C6.82603 2.95024 6.82935 2.95485 6.83383 2.95812L6.99183 3.07512L6.93283 3.26313C6.93147 3.26832 6.93169 3.27379 6.93346 3.27885C6.93522 3.28392 6.93846 3.28835 6.94275 3.29157C6.94704 3.29479 6.9522 3.29665 6.95756 3.29693C6.96291 3.2972 6.96823 3.29589 6.97283 3.29313L7.13283 3.17813L7.29283 3.29212C7.29742 3.29562 7.30301 3.29757 7.30879 3.29766C7.31456 3.29775 7.32021 3.296 7.32491 3.29264C7.32961 3.28929 7.33311 3.2845 7.3349 3.27901C7.33668 3.27352 7.33666 3.2676 7.33483 3.26212L7.27483 3.07512L7.43283 2.95812C7.43673 2.95465 7.43954 2.95012 7.44092 2.94508C7.4423 2.94005 7.44219 2.93473 7.4406 2.92976C7.43901 2.92478 7.43602 2.92038 7.43198 2.91707C7.42793 2.91377 7.42302 2.9117 7.41783 2.91113L7.22083 2.91012ZM7.15883 4.27912L7.22083 4.46613L7.41783 4.46713C7.44283 4.46713 7.45383 4.50012 7.43283 4.51512L7.27483 4.63213L7.33483 4.81912C7.3364 4.82445 7.33628 4.83013 7.3345 4.8354C7.33272 4.84066 7.32936 4.84525 7.32487 4.84853C7.32039 4.85181 7.315 4.85362 7.30945 4.85373C7.30389 4.85384 7.29844 4.85223 7.29383 4.84912L7.13383 4.73412L6.97383 4.84912C6.96923 4.85223 6.96377 4.85384 6.95822 4.85373C6.95266 4.85362 6.94728 4.85181 6.94279 4.84853C6.93831 4.84525 6.93495 4.84066 6.93316 4.8354C6.93138 4.83013 6.93127 4.82445 6.93283 4.81912L6.99283 4.63213L6.83383 4.51512C6.82955 4.51166 6.82642 4.50698 6.82487 4.5017C6.82332 4.49642 6.82343 4.49079 6.82517 4.48556C6.82691 4.48034 6.8302 4.47579 6.83461 4.47249C6.83902 4.46919 6.84433 4.46732 6.84983 4.46713L7.04583 4.46613L7.10883 4.27912C7.11086 4.27415 7.11432 4.2699 7.11877 4.26691C7.12323 4.26392 7.12847 4.26232 7.13383 4.26232C7.1392 4.26232 7.14444 4.26392 7.14889 4.26691C7.15335 4.2699 7.15681 4.27415 7.15883 4.27912ZM7.21983 6.19112L7.15783 6.00513C7.15581 6.00016 7.15235 5.9959 7.14789 5.99291C7.14344 5.98992 7.1382 5.98832 7.13283 5.98832C7.12747 5.98832 7.12223 5.98992 7.11777 5.99291C7.11332 5.9959 7.10986 6.00016 7.10783 6.00513L7.04483 6.19112L6.84883 6.19312C6.84333 6.19331 6.83802 6.19518 6.83361 6.19848C6.8292 6.20178 6.82591 6.20635 6.82417 6.21157C6.82243 6.2168 6.82232 6.22243 6.82387 6.22771C6.82542 6.23299 6.82855 6.23766 6.83283 6.24112L6.99083 6.35812L6.93183 6.54513C6.93047 6.55032 6.93069 6.55579 6.93246 6.56085C6.93422 6.56592 6.93746 6.57035 6.94175 6.57357C6.94604 6.57679 6.9512 6.57865 6.95656 6.57893C6.96191 6.5792 6.96723 6.57788 6.97183 6.57512L7.13183 6.46012L7.29183 6.57512C7.29642 6.57862 7.30202 6.58057 7.30779 6.58066C7.31356 6.58075 7.31921 6.57899 7.32391 6.57563C7.32861 6.57228 7.33211 6.56751 7.3339 6.56202C7.33568 6.55653 7.33566 6.55061 7.33383 6.54513L7.27383 6.35812L7.43183 6.24112C7.43607 6.23772 7.43919 6.23313 7.44077 6.22793C7.44235 6.22274 7.44234 6.21718 7.44072 6.212C7.4391 6.20682 7.43595 6.20224 7.43169 6.19887C7.42743 6.1955 7.42225 6.1935 7.41683 6.19312L7.21983 6.19112ZM7.15783 7.59113L7.21983 7.77812L7.41683 7.78012C7.44183 7.78012 7.45283 7.81213 7.43183 7.82713L7.27383 7.94412L7.33383 8.13212C7.3354 8.13745 7.33528 8.14313 7.3335 8.1484C7.33172 8.15366 7.32836 8.15825 7.32387 8.16153C7.31939 8.16481 7.314 8.16663 7.30845 8.16674C7.30289 8.16685 7.29744 8.16524 7.29283 8.16213L7.13283 8.04712L6.97283 8.16112C6.96823 8.16423 6.96277 8.16584 6.95722 8.16573C6.95166 8.16562 6.94628 8.1638 6.94179 8.16052C6.93731 8.15724 6.93395 8.15267 6.93216 8.14741C6.93038 8.14214 6.93027 8.13645 6.93183 8.13112L6.99183 7.94412L6.83283 7.82713C6.8289 7.82359 6.82609 7.81897 6.82476 7.81386C6.82343 7.80874 6.82362 7.80336 6.82533 7.79835C6.82703 7.79334 6.83017 7.78895 6.83434 7.78571C6.83852 7.78247 6.84356 7.78052 6.84883 7.78012L7.04483 7.77812L7.10783 7.59113C7.10986 7.58616 7.11332 7.5819 7.11777 7.57891C7.12223 7.57592 7.12747 7.57433 7.13283 7.57433C7.1382 7.57433 7.14344 7.57592 7.14789 7.57891C7.15235 7.5819 7.15581 7.58616 7.15783 7.59113ZM7.21983 9.22113L7.15783 9.03412C7.15581 9.02915 7.15235 9.0249 7.14789 9.02191C7.14344 9.01892 7.1382 9.01732 7.13283 9.01732C7.12747 9.01732 7.12223 9.01892 7.11777 9.02191C7.11332 9.0249 7.10986 9.02915 7.10783 9.03412L7.04483 9.22113L6.84883 9.22312C6.84356 9.22352 6.83852 9.22546 6.83434 9.2287C6.83017 9.23194 6.82703 9.23634 6.82533 9.24134C6.82362 9.24635 6.82343 9.25175 6.82476 9.25687C6.82609 9.26198 6.8289 9.26658 6.83283 9.27012L6.99083 9.38712L6.93183 9.57513C6.93047 9.58032 6.93069 9.5858 6.93246 9.59086C6.93422 9.59593 6.93746 9.60034 6.94175 9.60356C6.94604 9.60678 6.9512 9.60865 6.95656 9.60892C6.96191 9.6092 6.96723 9.60788 6.97183 9.60512L7.13183 9.49013L7.29183 9.60412C7.29642 9.60762 7.30202 9.60957 7.30779 9.60966C7.31356 9.60975 7.31921 9.60799 7.32391 9.60463C7.32861 9.60127 7.33211 9.5965 7.3339 9.59101C7.33568 9.58552 7.33566 9.5796 7.33383 9.57412L7.27383 9.38712L7.43183 9.27012C7.43573 9.26665 7.43854 9.26213 7.43992 9.25709C7.4413 9.25206 7.44118 9.24673 7.4396 9.24176C7.43801 9.23678 7.43501 9.23237 7.43097 9.22906C7.42693 9.22576 7.42202 9.22369 7.41683 9.22312L7.21983 9.22113Z" fill="#F5F5F5"/>
<path d="M20.719 7H12.28C11.41 7.00027 10.5757 7.34606 9.96063 7.96134C9.34554 8.57661 9 9.411 9 10.281V18.719C9 19.5892 9.34568 20.4237 9.96098 21.039C10.5763 21.6543 11.4108 22 12.281 22H20.719C21.5892 22 22.4237 21.6543 23.039 21.039C23.6543 20.4237 24 19.5892 24 18.719V10.28C23.9997 9.41 23.6539 8.57572 23.0387 7.96063C22.4234 7.34554 21.589 7 20.719 7Z" fill="#F6F6F6"/>
<path d="M16.5 18C16.9596 18 17.4148 17.9095 17.8394 17.7336C18.264 17.5577 18.6499 17.2999 18.9749 16.9749C19.2999 16.6499 19.5577 16.264 19.7336 15.8394C19.9095 15.4148 20 14.9596 20 14.5C20 14.0404 19.9095 13.5852 19.7336 13.1606C19.5577 12.736 19.2999 12.3501 18.9749 12.0251C18.6499 11.7001 18.264 11.4423 17.8394 11.2664C17.4148 11.0905 16.9596 11 16.5 11C15.5717 11 14.6815 11.3687 14.0251 12.0251C13.3687 12.6815 13 13.5717 13 14.5C13 15.4283 13.3687 16.3185 14.0251 16.9749C14.6815 17.6313 15.5717 18 16.5 18Z" fill="#FB4B4E"/>
</g>
</g>
<defs>
<clipPath id="clip0_227_228">
<rect width="24" height="24" fill="white"/>
</clipPath>
</defs>
</svg>
