<svg width="91" height="32" viewBox="0 0 91 32" fill="none" xmlns="http://www.w3.org/2000/svg">
<g clip-path="url(#clip0_185_105)">
<path d="M47.8078 0.780762H0V31.1411H47.8078V0.780762Z" fill="white"/>
<path d="M46.9975 26.2163H0.78125V30.3605H46.9975V26.2163Z" fill="#F7B600"/>
<path d="M46.9975 1.5918H0.78125V5.73594H46.9975V1.5918Z" fill="#1A1F71"/>
<path d="M19.2774 10.3001L14.5027 21.6814H11.3795L9.0372 12.5823C8.88705 12.0118 8.76693 11.8316 8.34651 11.5914C7.42132 11.1461 6.44213 10.823 5.43359 10.6304L5.49365 10.3001H10.5087C11.1865 10.3031 11.7606 10.8007 11.86 11.4712L13.0913 18.0478L16.1543 10.3001H19.2774ZM31.4997 17.9577C31.4997 14.9547 27.3555 14.7745 27.3855 13.4532C27.3855 13.0328 27.7759 12.6124 28.6468 12.4923C29.646 12.399 30.6518 12.5752 31.5597 13.0028L32.0702 10.6004C31.1885 10.2618 30.2519 10.0887 29.3075 10.0898C26.3946 10.0898 24.3525 11.6514 24.3225 13.8436C24.2925 15.4953 25.794 16.3962 26.9051 16.9367C28.0162 17.4772 28.4366 17.8676 28.4366 18.3481C28.4366 19.0989 27.5057 19.4592 26.6648 19.4592C25.6082 19.4884 24.5623 19.2399 23.6318 18.7385L23.0913 21.231C24.1311 21.6484 25.2442 21.8526 26.3645 21.8316C29.4576 21.8616 31.4696 20.3301 31.4997 17.9577ZM39.1873 21.6814H41.9201L39.5477 10.3001H37.0252C36.4716 10.2934 35.9707 10.6273 35.7639 11.1409L31.3195 21.6814H34.4126L35.0132 19.9697H38.797L39.1873 21.6814ZM35.884 17.6574L37.4456 13.3932L38.3465 17.6574H35.884ZM23.4816 10.3001L21.0492 21.6814H18.1063L20.5387 10.3001H23.4816Z" fill="#1A1F71"/>
<path d="M62.2259 29.2794V27.4776C62.2538 27.1726 62.1468 26.8706 61.9331 26.6512C61.7195 26.4317 61.4205 26.3168 61.1148 26.3365C60.7095 26.3203 60.3241 26.513 60.0938 26.847C59.8934 26.5113 59.5232 26.3147 59.1329 26.3365C58.7904 26.3215 58.4633 26.4794 58.262 26.7569V26.3965H57.6914V29.2794H58.262V27.6277C58.238 27.4276 58.305 27.2272 58.4446 27.0817C58.5842 26.9363 58.7817 26.8612 58.9827 26.877C59.4031 26.877 59.6434 27.1473 59.6434 27.6277V29.2794H60.2139V27.6277C60.1899 27.4276 60.2569 27.2272 60.3966 27.0817C60.5362 26.9363 60.7337 26.8612 60.9347 26.877C61.3551 26.877 61.5953 27.1473 61.5953 27.6277V29.2794H62.2259ZM71.5953 26.4265H70.5443V25.5557H69.9737V26.4265H69.3731V26.9371H69.9737V28.2884C69.9737 28.9491 70.2139 29.3395 70.9347 29.3395C71.2082 29.3341 71.4762 29.2619 71.7154 29.1292L71.5352 28.6187C71.3734 28.72 71.1856 28.7721 70.9947 28.7689C70.8669 28.7794 70.7412 28.731 70.6535 28.6374C70.5657 28.5438 70.5255 28.4153 70.5443 28.2884V26.907H71.5953V26.4265ZM76.9407 26.3365C76.6247 26.3299 76.3284 26.4895 76.1599 26.7569V26.3965H75.5893V29.2794H76.1599V27.6578C76.1599 27.1773 76.4001 26.877 76.7905 26.877C76.9225 26.8823 77.0534 26.9024 77.1809 26.9371L77.3611 26.3965C77.2234 26.3618 77.0825 26.3417 76.9407 26.3365ZM68.8626 26.6368C68.511 26.4218 68.103 26.3172 67.6914 26.3365C66.9707 26.3365 66.5202 26.6668 66.5202 27.2374C66.5202 27.7178 66.8506 27.9881 67.4812 28.0782L67.7815 28.1082C68.1118 28.1683 68.322 28.2884 68.322 28.4386C68.322 28.6488 68.0818 28.7989 67.6313 28.7989C67.2869 28.8061 66.9495 28.7007 66.6704 28.4986L66.3701 28.9491C66.7349 29.1903 67.164 29.3159 67.6013 29.3094C68.4422 29.3094 68.8926 28.919 68.8926 28.3785C68.8926 27.838 68.5322 27.6277 67.9016 27.5377L67.6013 27.5076C67.331 27.4776 67.0908 27.3875 67.0908 27.2073C67.0908 27.0271 67.331 26.847 67.6614 26.847C67.9756 26.8607 68.283 26.9426 68.5623 27.0872L68.8626 26.6368ZM77.6013 27.838C77.5765 28.2433 77.7267 28.6398 78.0138 28.927C78.301 29.2141 78.6975 29.3643 79.1028 29.3395C79.4722 29.3589 79.8358 29.2412 80.1238 29.0091L79.8235 28.5587C79.6114 28.7317 79.3465 28.827 79.0728 28.8289C78.5715 28.7893 78.1849 28.3709 78.1849 27.868C78.1849 27.3651 78.5715 26.9467 79.0728 26.907C79.3465 26.9089 79.6114 27.0043 79.8235 27.1773L80.1238 26.7268C79.8358 26.4947 79.4722 26.3771 79.1028 26.3965C78.7025 26.3485 78.3017 26.4825 78.0108 26.7618C77.7199 27.041 77.5696 27.436 77.6013 27.838ZM73.5473 26.3365C72.7064 26.3365 72.1358 26.9371 72.1358 27.838C72.1098 28.2383 72.2554 28.6308 72.5362 28.9173C72.8171 29.2039 73.2065 29.3574 73.6073 29.3395C74.031 29.3483 74.4448 29.2103 74.7785 28.9491L74.4782 28.5286C74.237 28.7156 73.9424 28.8208 73.6374 28.8289C73.1951 28.8458 72.815 28.5181 72.7665 28.0782H74.8986V27.838C74.8986 26.9371 74.3581 26.3365 73.5473 26.3365ZM73.5473 26.877C73.7438 26.8679 73.9354 26.9399 74.0773 27.0762C74.2193 27.2124 74.299 27.401 74.298 27.5977H72.7365C72.7638 27.176 73.1253 26.8547 73.5473 26.877ZM65.7695 27.838V26.3965H65.1989V26.7569C64.9759 26.4731 64.6283 26.3162 64.268 26.3365C63.4387 26.3365 62.7665 27.0087 62.7665 27.838C62.7665 28.6672 63.4387 29.3395 64.268 29.3395C64.6283 29.3597 64.9759 29.2028 65.1989 28.919V29.2794H65.7695V27.838ZM63.4271 27.838C63.4598 27.3496 63.8764 26.9766 64.3654 26.998C64.8545 27.0194 65.2369 27.4273 65.2267 27.9167C65.2166 28.4061 64.8175 28.7978 64.328 28.7989C64.0766 28.805 63.8345 28.7036 63.6624 28.5201C63.4904 28.3366 63.4048 28.0885 63.4271 27.838ZM85.6193 26.3365C85.3034 26.3299 85.0071 26.4895 84.8386 26.7569V26.3965H84.268V29.2794H84.8386V27.6578C84.8386 27.1773 85.0788 26.877 85.4692 26.877C85.6012 26.8823 85.7321 26.9024 85.8596 26.9371L86.0398 26.3965C85.9021 26.3618 85.7612 26.3417 85.6193 26.3365ZM90.244 28.859C90.2863 28.8545 90.3288 28.8651 90.3641 28.889C90.3941 28.889 90.4241 28.919 90.4542 28.9491C90.4842 28.9791 90.5142 29.0091 90.5142 29.0392C90.5142 29.0692 90.5443 29.0992 90.5443 29.1593C90.5488 29.2016 90.5381 29.2442 90.5142 29.2794C90.4842 29.3094 90.4842 29.3395 90.4542 29.3695C90.4241 29.3995 90.3941 29.4295 90.3641 29.4295C90.3341 29.4295 90.304 29.4596 90.244 29.4596C90.2016 29.4641 90.1591 29.4534 90.1238 29.4295C90.0938 29.3995 90.0638 29.3995 90.0338 29.3695C90.0037 29.3395 89.9737 29.3094 89.9737 29.2794C89.9737 29.2494 89.9437 29.2193 89.9437 29.1593C89.9392 29.1169 89.9498 29.0744 89.9737 29.0392C90.0037 29.0091 90.0037 28.9791 90.0338 28.9491C90.0638 28.919 90.0938 28.889 90.1238 28.889C90.1539 28.889 90.2139 28.859 90.244 28.859ZM90.244 29.3695C90.277 29.3735 90.31 29.3624 90.3341 29.3395C90.366 29.3367 90.3913 29.3113 90.3941 29.2794L90.4542 29.2193C90.4542 29.1893 90.4842 29.1593 90.4842 29.1292C90.4882 29.0962 90.4772 29.0632 90.4542 29.0392C90.4514 29.0072 90.4261 28.9819 90.3941 28.9791L90.3341 28.919C90.304 28.919 90.274 28.889 90.244 28.889C90.2109 28.885 90.1779 28.896 90.1539 28.919C90.1219 28.9218 90.0966 28.9472 90.0938 28.9791L90.0338 29.0392C90.0338 29.0692 90.0037 29.0992 90.0037 29.1292C89.9997 29.1623 90.0108 29.1953 90.0338 29.2193C90.0365 29.2513 90.0619 29.2766 90.0938 29.2794L90.1539 29.3395C90.1779 29.3624 90.2109 29.3735 90.244 29.3695ZM90.274 29.0392C90.307 29.0352 90.3401 29.0462 90.3641 29.0692C90.3941 29.0992 90.3941 29.0992 90.3941 29.1292C90.3941 29.1593 90.3941 29.1593 90.3641 29.1893C90.3479 29.2056 90.3268 29.2162 90.304 29.2193L90.3941 29.3094H90.304L90.2139 29.2193H90.1839V29.3094H90.1238V29.0392H90.274ZM83.3971 27.838V26.3965H82.8265V26.7569C82.6035 26.4731 82.256 26.3162 81.8956 26.3365C81.0664 26.3365 80.3941 27.0087 80.3941 27.838C80.3941 28.6672 81.0664 29.3395 81.8956 29.3395C82.256 29.3597 82.6035 29.2028 82.8265 28.919V29.2794H83.3971V27.838ZM81.0848 27.838C81.1174 27.3496 81.5341 26.9766 82.0231 26.998C82.5121 27.0194 82.8946 27.4273 82.8844 27.9167C82.8742 28.4061 82.4752 28.7978 81.9857 28.7989C81.4151 28.8289 81.0848 28.3785 81.0848 27.838ZM89.2229 27.838V25.2554H88.6524V26.7569C88.4293 26.4731 88.0818 26.3162 87.7214 26.3365C86.8922 26.3365 86.2199 27.0087 86.2199 27.838C86.2199 28.6672 86.8922 29.3395 87.7214 29.3395C88.0818 29.3597 88.4293 29.2028 88.6524 28.919V29.2794H89.2229V27.838ZM86.8806 27.838C86.9132 27.3496 87.3299 26.9766 87.8189 26.998C88.3079 27.0194 88.6904 27.4273 88.6802 27.9167C88.67 28.4061 88.271 28.7978 87.7815 28.7989C87.53 28.805 87.2879 28.7036 87.1159 28.5201C86.9439 28.3366 86.8583 28.0885 86.8806 27.838Z" fill="black"/>
<path d="M78.6196 4.53467H68.1992V21.5317H78.6196V4.53467Z" fill="#FF5F00"/>
<path d="M69.2818 13.033C69.2827 9.72036 70.7982 6.58996 73.3959 4.53448C69.673 1.60729 64.4782 1.44403 60.5788 4.13167C56.6794 6.8193 54.9832 11.7321 56.3938 16.253C57.8044 20.774 61.9934 23.8505 66.7293 23.8438C69.1484 23.8455 71.4974 23.0308 73.3959 21.5315C70.7982 19.476 69.2827 16.3456 69.2818 13.033Z" fill="#EB001B"/>
<path d="M89.8508 19.8091V19.3805H90.001V19.3091H89.6406V19.3805H89.7908V19.8091H89.8508ZM90.5716 19.8091V19.3091H90.4514L90.3313 19.6662L90.2112 19.3091H90.0911V19.8091H90.1812V19.4162L90.3013 19.7377H90.3914L90.5115 19.4162V19.8091H90.5716Z" fill="#F79E1B"/>
<path d="M90.9033 13.0328C90.8987 17.1663 88.5374 20.9355 84.82 22.7431C81.1026 24.5507 76.6798 24.0803 73.4258 21.5313C76.0242 19.4763 77.5398 16.3456 77.5398 13.0328C77.5398 9.71995 76.0242 6.58918 73.4258 4.53426C76.6798 1.98521 81.1026 1.51483 84.82 3.32244C88.5374 5.13004 90.8987 8.89917 90.9033 13.0328Z" fill="#F79E1B"/>
</g>
<defs>
<clipPath id="clip0_185_105">
<rect width="91" height="32" fill="white"/>
</clipPath>
</defs>
</svg>
