<svg width="52" height="52" viewBox="0 0 52 52" fill="none" xmlns="http://www.w3.org/2000/svg">
<g clip-path="url(#clip0_185_104)">
<path d="M47.5 0.5H4.5C2.29086 0.5 0.5 2.29086 0.5 4.5V47.5C0.5 49.7091 2.29086 51.5 4.5 51.5H47.5C49.7091 51.5 51.5 49.7091 51.5 47.5V4.5C51.5 2.29086 49.7091 0.5 47.5 0.5Z" fill="white" stroke="#D0D5DF"/>
<path d="M4 0H48C50.2091 0 52 1.79086 52 4V10H0V4C0 1.79086 1.79086 0 4 0Z" fill="#1A1F71"/>
<path d="M4 52L48 52C50.2091 52 52 50.2091 52 48V42L0 42L0 48C0 50.2091 1.79086 52 4 52Z" fill="#F7B600"/>
<path d="M19.708 19.2832L13.9381 33.0178H10.1858L7.35398 22.0444C7.17699 21.3718 7.0354 21.124 6.50442 20.8408C5.3866 20.3142 4.21023 19.9221 3 19.6727L3.0708 19.2832H9.12389C9.94697 19.2747 10.6465 19.8829 10.7522 20.6992L12.2389 28.6638L15.9204 19.3187H19.708V19.2832ZM34.4336 28.5222C34.4336 24.9116 29.4071 24.6992 29.4425 23.0709C29.4425 22.5753 29.9381 22.0444 30.9646 21.9028C32.1653 21.7934 33.3736 22.0009 34.469 22.5045L35.1062 19.6019C34.043 19.2002 32.9153 18.9962 31.7788 19.0001C28.2743 19.0001 25.7965 20.8762 25.7611 23.5311C25.7257 25.5134 27.531 26.6107 28.8761 27.2833C30.2212 27.9559 30.7168 28.3806 30.7168 28.9824C30.7168 29.9028 29.6195 30.3275 28.5929 30.3275C27.3206 30.3613 26.0622 30.0559 24.9469 29.4426L24.3097 32.4514C25.1239 32.8408 26.6814 33.1594 28.2743 33.1948C31.9558 33.2302 34.3982 31.3895 34.4336 28.5222ZM43.708 33.0178H47L44.1327 19.2833H41.0885C40.4271 19.2747 39.826 19.6661 39.5664 20.2744L34.2212 33.0178H37.9381L38.6814 30.9647H43.2478L43.708 33.0178ZM39.7434 28.1329L41.6195 22.9647L42.6814 28.1329H39.7434ZM24.7699 19.2833L21.8319 33.0178H18.292L21.2301 19.2833H24.7699Z" fill="#1A1F71"/>
</g>
<defs>
<clipPath id="clip0_185_104">
<rect width="52" height="52" fill="white"/>
</clipPath>
</defs>
</svg>
