<svg width="100" height="28" viewBox="0 0 100 28" fill="none" xmlns="http://www.w3.org/2000/svg">
<path fill-rule="evenodd" clip-rule="evenodd" d="M50.1967 1.3418L44.0638 26.231H49.6071L55.7387 1.3418H50.1967ZM88.1889 19.0667L92.0216 19.8038L93.0318 20.0049C92.8988 21.1375 92.556 22.233 92.0216 23.2314C91.6828 23.8434 91.2554 24.3985 90.7543 24.8769C89.5088 26.0645 87.7265 26.6577 85.6484 26.6577C83.2134 26.6552 81.3805 25.9972 80.1499 24.6833C78.9191 23.3696 78.3037 21.6243 78.3037 19.4477V4.15125H83.5176V8.59523H90.7003V13.4847H83.5176V19.5358C83.517 20.3565 83.729 20.9712 84.1543 21.3799C84.5809 21.794 85.1486 22.017 85.7339 22.0004C86.4172 22.0004 87.1102 21.7546 87.4921 21.2793C87.8742 20.8041 88.1071 19.9986 88.1889 19.0667ZM37.9029 7.05728C39.4132 7.93903 40.6624 9.2296 41.5157 10.7902C42.3917 12.377 42.8297 14.1743 42.8297 16.1822C42.8297 18.1902 42.3917 19.9859 41.5157 21.5694C40.6607 23.1297 39.4098 24.4194 37.898 25.2998C36.3959 26.2048 34.6438 26.6574 32.6419 26.6574C30.6714 26.6574 28.9197 26.2023 27.387 25.2924C25.878 24.4133 24.629 23.1264 23.7742 21.5694C22.9005 19.9826 22.464 18.1852 22.4649 16.1773C22.4657 14.1694 22.9037 12.3737 23.779 10.7902C24.6324 9.2296 25.8816 7.93903 27.3919 7.05728C28.9252 6.15218 30.6769 5.69963 32.6467 5.69963C34.6461 5.69467 36.3982 6.14722 37.9029 7.05728ZM35.2339 21.2889C36.0016 20.7731 36.6233 20.0563 37.0356 19.2115C37.4729 18.3097 37.6919 17.2561 37.6925 16.0507C37.6934 14.8453 37.4744 13.7917 37.0356 12.8899C36.6396 12.0338 36.0143 11.3128 35.2339 10.8125C34.4489 10.3395 33.5562 10.0902 32.6474 10.0902C31.7385 10.0902 30.8459 10.3395 30.0607 10.8125C29.2803 11.3128 28.6552 12.0338 28.2592 12.8899C27.8219 13.7934 27.6029 14.8469 27.602 16.0507C27.6014 17.2545 27.8204 18.3081 28.2592 19.2115C28.6714 20.0563 29.2929 20.7731 30.0607 21.2889C30.8459 21.7619 31.7385 22.0112 32.6474 22.0112C33.5562 22.0112 34.4489 21.7619 35.2339 21.2889ZM70.7558 18.591C70.4796 19.64 69.9731 20.4756 69.2364 21.0977C68.4999 21.7199 67.4872 22.031 66.1988 22.031C65.3532 22.0314 64.5159 21.8585 63.7353 21.5222C62.98 21.1639 62.3288 20.6077 61.8461 19.9089C61.3809 19.1726 61.121 18.2675 61.0665 17.1936H74.3279C74.3832 16.7982 74.4233 16.4023 74.448 16.006C74.5022 15.5843 74.5294 15.1594 74.5298 14.734C74.5298 12.8675 74.1465 11.2696 73.3803 9.94005C72.6589 8.60039 71.5733 7.50876 70.2575 6.80034C68.9193 6.0665 67.3459 5.69958 65.537 5.69958C63.5935 5.69958 61.8965 6.16621 60.4454 7.09944C59.0123 8.01326 57.8372 9.30066 57.0381 10.8323C56.2444 12.3877 55.8478 14.1251 55.8478 16.0445C55.8478 18.1955 56.2857 20.0764 57.1617 21.6872C58.017 23.25 59.284 24.5297 60.8155 25.3778C62.3794 26.231 64.1602 26.6574 66.1581 26.6574C68.5115 26.6574 70.4408 26.092 71.9461 24.961C73.4796 23.8291 74.5606 22.3019 75.1891 20.3792L70.7558 18.591ZM62.7001 10.9589C63.5168 10.3648 64.494 10.0521 65.4927 10.0654C66.1971 10.0473 66.8971 10.1857 67.5452 10.4712C68.107 10.6836 68.5935 11.0664 68.941 11.5695C69.3104 12.0571 69.513 12.6577 69.5163 13.2771C69.5136 13.3469 69.4992 13.4157 69.4743 13.4806H61.1362C61.41 12.3724 61.8796 11.5322 62.7001 10.9626V10.9589ZM5.62125 6.12305L10.917 21.0918L16.4949 6.12305H22.0381L14.1203 26.2269H7.75442L0.078125 6.12305H5.62125ZM96.5127 26.3426C96.8611 26.5546 97.2591 26.6637 97.6634 26.6578C98.071 26.666 98.4726 26.5569 98.8237 26.3426C99.1572 26.1377 99.4336 25.8468 99.626 25.4987C99.8197 25.1415 99.9214 24.739 99.9214 24.3297C99.9214 23.9202 99.8197 23.5179 99.626 23.1607C99.4321 22.8122 99.1541 22.5219 98.8189 22.3181C98.4674 22.1115 98.0701 22.0028 97.6657 22.0028C97.2615 22.0028 96.8642 22.1115 96.5127 22.3181C96.1752 22.5255 95.8957 22.8202 95.7016 23.173C95.5075 23.5257 95.4056 23.9245 95.4056 24.3304C95.4056 24.7361 95.5075 25.135 95.7016 25.4877C95.8957 25.8405 96.1752 26.135 96.5127 26.3426ZM98.5389 25.8698C98.2743 26.032 97.9712 26.115 97.6634 26.1093V26.1067C97.357 26.1103 97.0558 26.0266 96.7925 25.8647C96.4009 25.624 96.117 25.2331 96.0028 24.777C95.8885 24.3211 95.953 23.8369 96.1824 23.4299C96.3302 23.1666 96.5402 22.9464 96.7925 22.7896C97.0596 22.6325 97.3617 22.5502 97.6691 22.5512C97.9762 22.5523 98.2779 22.6367 98.5437 22.7958C98.7988 22.951 99.0106 23.1715 99.1587 23.4363C99.3083 23.7082 99.3847 24.0169 99.3798 24.3297C99.3815 24.6399 99.3049 24.9451 99.1575 25.2152C99.01 25.4852 98.7967 25.711 98.5389 25.8698ZM97.13 25.2968C97.2967 25.3998 97.4862 25.4561 97.6803 25.4603V25.4578C97.9252 25.4675 98.1655 25.3884 98.36 25.2344C98.5549 25.0671 98.6908 24.8382 98.7467 24.5829L98.3096 24.4166C98.291 24.57 98.2277 24.7141 98.1281 24.8297C98.0708 24.8894 98.0016 24.9354 97.9252 24.9648C97.8488 24.9941 97.7674 25.0061 97.6862 24.9998C97.5539 24.9972 97.4254 24.9536 97.3174 24.8747C97.2094 24.7956 97.1269 24.6848 97.0807 24.5567C97.0345 24.4287 97.0264 24.2892 97.0581 24.1563C97.0895 24.0236 97.1589 23.9036 97.2575 23.8122C97.3667 23.7057 97.5108 23.6456 97.661 23.6434C97.7929 23.6407 97.9214 23.6884 98.0214 23.7774C98.1203 23.869 98.1847 23.9939 98.2026 24.1299L98.6566 23.9909C98.6201 23.7517 98.4948 23.5367 98.3072 23.3915C98.1146 23.2586 97.8866 23.1913 97.6549 23.1991C97.4697 23.1979 97.2872 23.2462 97.1252 23.3394C96.9627 23.4304 96.8273 23.5656 96.7336 23.7304C96.6372 23.9042 96.5862 24.101 96.5855 24.3015C96.5849 24.5021 96.6347 24.6991 96.7303 24.8736C96.8258 25.0483 96.9636 25.1941 97.13 25.2968Z" fill="#0B0F14"/>
</svg>
