<svg width="100" height="40" viewBox="0 0 100 40" fill="none" xmlns="http://www.w3.org/2000/svg">
<g clip-path="url(#clip0_185_103)">
<mask id="mask0_185_103" style="mask-type:luminance" maskUnits="userSpaceOnUse" x="0" y="0" width="100" height="40">
<path d="M100 0H0V40H100V0Z" fill="white"/>
</mask>
<g mask="url(#mask0_185_103)">
<path fill-rule="evenodd" clip-rule="evenodd" d="M50.1967 0.341797L44.0638 25.231H49.6071L55.7387 0.341797H50.1967ZM88.1889 18.0667L92.0216 18.8038L93.0318 19.0049C92.8988 20.1375 92.556 21.233 92.0216 22.2314C91.6828 22.8434 91.2554 23.3985 90.7543 23.8769C89.5088 25.0645 87.7265 25.6577 85.6484 25.6577C83.2134 25.6552 81.3805 24.9972 80.1499 23.6833C78.9191 22.3696 78.3037 20.6243 78.3037 18.4477V3.15125H83.5176V7.59523H90.7003V12.4847H83.5176V18.5358C83.517 19.3565 83.729 19.9712 84.1543 20.3799C84.5809 20.794 85.1486 21.017 85.7339 21.0004C86.4172 21.0004 87.1102 20.7546 87.4921 20.2793C87.8742 19.8041 88.1071 18.9986 88.1889 18.0667ZM37.9029 6.05728C39.4132 6.93903 40.6624 8.2296 41.5157 9.79015C42.3917 11.377 42.8297 13.1743 42.8297 15.1822C42.8297 17.1902 42.3917 18.9859 41.5157 20.5694C40.6607 22.1297 39.4098 23.4194 37.898 24.2998C36.3959 25.2048 34.6438 25.6574 32.6419 25.6574C30.6714 25.6574 28.9197 25.2023 27.387 24.2924C25.878 23.4133 24.629 22.1264 23.7742 20.5694C22.9005 18.9826 22.464 17.1852 22.4649 15.1773C22.4657 13.1694 22.9037 11.3737 23.779 9.79015C24.6324 8.2296 25.8816 6.93903 27.3919 6.05728C28.9252 5.15218 30.6769 4.69963 32.6467 4.69963C34.6461 4.69467 36.3982 5.14722 37.9029 6.05728ZM35.2339 20.2889C36.0016 19.7731 36.6233 19.0563 37.0356 18.2115C37.4729 17.3097 37.6919 16.2561 37.6925 15.0507C37.6934 13.8453 37.4744 12.7917 37.0356 11.8899C36.6396 11.0338 36.0143 10.3128 35.2339 9.81249C34.4489 9.33946 33.5562 9.09022 32.6474 9.09022C31.7385 9.09022 30.8459 9.33946 30.0607 9.81249C29.2803 10.3128 28.6552 11.0338 28.2592 11.8899C27.8219 12.7934 27.6029 13.8469 27.602 15.0507C27.6014 16.2545 27.8204 17.3081 28.2592 18.2115C28.6714 19.0563 29.2929 19.7731 30.0607 20.2889C30.8459 20.7619 31.7385 21.0112 32.6474 21.0112C33.5562 21.0112 34.4489 20.7619 35.2339 20.2889ZM70.7558 17.591C70.4796 18.64 69.9731 19.4756 69.2364 20.0977C68.4999 20.7199 67.4872 21.031 66.1988 21.031C65.3532 21.0314 64.5159 20.8585 63.7353 20.5222C62.98 20.1639 62.3288 19.6077 61.8461 18.9089C61.3809 18.1726 61.121 17.2675 61.0665 16.1936H74.3279C74.3832 15.7982 74.4233 15.4023 74.448 15.006C74.5022 14.5843 74.5294 14.1594 74.5298 13.734C74.5298 11.8675 74.1465 10.2696 73.3803 8.94005C72.6589 7.60039 71.5733 6.50876 70.2575 5.80034C68.9193 5.0665 67.3459 4.69958 65.537 4.69958C63.5935 4.69958 61.8965 5.16621 60.4454 6.09944C59.0123 7.01326 57.8372 8.30066 57.0381 9.83231C56.2444 11.3877 55.8478 13.1251 55.8478 15.0445C55.8478 17.1955 56.2857 19.0764 57.1617 20.6872C58.017 22.25 59.284 23.5297 60.8155 24.3778C62.3794 25.231 64.1602 25.6574 66.1581 25.6574C68.5115 25.6574 70.4408 25.092 71.9461 23.961C73.4796 22.8291 74.5606 21.3019 75.1891 19.3792L70.7558 17.591ZM62.7001 9.95889C63.5168 9.36477 64.494 9.0521 65.4927 9.06539C66.1971 9.04735 66.8971 9.18575 67.5452 9.47119C68.107 9.68359 68.5935 10.0664 68.941 10.5695C69.3104 11.0571 69.513 11.6577 69.5163 12.2771C69.5136 12.3469 69.4992 12.4157 69.4743 12.4806H61.1362C61.41 11.3724 61.8796 10.5322 62.7001 9.96262V9.95889ZM5.62125 5.12305L10.917 20.0918L16.4949 5.12305H22.0381L14.1203 25.2269H7.75442L0.078125 5.12305H5.62125ZM96.5127 25.3426C96.8611 25.5546 97.2591 25.6637 97.6634 25.6578C98.071 25.666 98.4726 25.5569 98.8237 25.3426C99.1572 25.1377 99.4336 24.8468 99.626 24.4987C99.8197 24.1415 99.9214 23.739 99.9214 23.3297C99.9214 22.9202 99.8197 22.5179 99.626 22.1607C99.4321 21.8122 99.1541 21.5219 98.8189 21.3181C98.4674 21.1115 98.0701 21.0028 97.6657 21.0028C97.2615 21.0028 96.8642 21.1115 96.5127 21.3181C96.1752 21.5255 95.8957 21.8202 95.7016 22.173C95.5075 22.5257 95.4056 22.9245 95.4056 23.3304C95.4056 23.7361 95.5075 24.135 95.7016 24.4877C95.8957 24.8405 96.1752 25.135 96.5127 25.3426ZM98.5389 24.8698C98.2743 25.032 97.9712 25.115 97.6634 25.1093V25.1067C97.357 25.1103 97.0558 25.0266 96.7925 24.8647C96.4009 24.624 96.117 24.2331 96.0028 23.777C95.8885 23.3211 95.953 22.8369 96.1824 22.4299C96.3302 22.1666 96.5402 21.9464 96.7925 21.7896C97.0596 21.6325 97.3617 21.5502 97.6691 21.5512C97.9762 21.5523 98.2779 21.6367 98.5437 21.7958C98.7988 21.951 99.0106 22.1715 99.1587 22.4363C99.3083 22.7082 99.3847 23.0169 99.3798 23.3297C99.3815 23.6399 99.3049 23.9451 99.1575 24.2152C99.01 24.4852 98.7967 24.711 98.5389 24.8698ZM97.13 24.2968C97.2967 24.3998 97.4862 24.4561 97.6803 24.4603V24.4578C97.9252 24.4675 98.1655 24.3884 98.36 24.2344C98.5549 24.0671 98.6908 23.8382 98.7467 23.5829L98.3096 23.4166C98.291 23.57 98.2277 23.7141 98.1281 23.8297C98.0708 23.8894 98.0016 23.9354 97.9252 23.9648C97.8488 23.9941 97.7674 24.0061 97.6862 23.9998C97.5539 23.9972 97.4254 23.9536 97.3174 23.8747C97.2094 23.7956 97.1269 23.6848 97.0807 23.5567C97.0345 23.4287 97.0264 23.2892 97.0581 23.1563C97.0895 23.0236 97.1589 22.9036 97.2575 22.8122C97.3667 22.7057 97.5108 22.6456 97.661 22.6434C97.7929 22.6407 97.9214 22.6884 98.0214 22.7774C98.1203 22.869 98.1847 22.9939 98.2026 23.1299L98.6566 22.9909C98.6201 22.7517 98.4948 22.5367 98.3072 22.3915C98.1146 22.2586 97.8866 22.1913 97.6549 22.1991C97.4697 22.1979 97.2872 22.2462 97.1252 22.3394C96.9627 22.4304 96.8273 22.5656 96.7336 22.7304C96.6372 22.9042 96.5862 23.101 96.5855 23.3015C96.5849 23.5021 96.6347 23.6991 96.7303 23.8736C96.8258 24.0483 96.9636 24.1941 97.13 24.2968Z" fill="#0B0F14"/>
<path d="M93 28H57V40H93V28Z" fill="#00569F"/>
<mask id="mask1_185_103" style="mask-type:luminance" maskUnits="userSpaceOnUse" x="60" y="29" width="10" height="10">
<path d="M69.5 34C69.5 31.5147 67.4853 29.5 65 29.5C62.5147 29.5 60.5 31.5147 60.5 34C60.5 36.4853 62.5147 38.5 65 38.5C67.4853 38.5 69.5 36.4853 69.5 34Z" fill="white"/>
</mask>
<g mask="url(#mask1_185_103)">
<path d="M68.7424 31.5H61.2589C61.0526 31.8084 60.8836 32.144 60.7578 32.5H69.2438C69.1178 32.144 68.949 31.8084 68.7424 31.5Z" fill="#FF3435"/>
<path d="M69.242 32.5H60.756C60.6435 32.8184 60.5656 33.1532 60.5273 33.5H69.4707C69.4324 33.1532 69.3545 32.8185 69.242 32.5Z" fill="white"/>
<path d="M64.9992 29.5C63.9279 29.5 62.9446 29.875 62.1719 30.5H67.8266C67.0538 29.875 66.0705 29.5 64.9992 29.5Z" fill="#FF3435"/>
<path d="M67.827 30.5H62.1723C61.8197 30.7852 61.5109 31.1222 61.2578 31.4997H68.7413C68.4884 31.1222 68.1795 30.7852 67.827 30.5Z" fill="white"/>
<path d="M69.5 34C69.5 33.8309 69.4898 33.6643 69.4717 33.5H60.5283C60.5102 33.6643 60.5 33.8309 60.5 34C60.5 34.1691 60.5102 34.3357 60.5283 34.5H69.4717C69.4898 34.3357 69.5 34.1691 69.5 34Z" fill="#FF3435"/>
<path d="M69.4707 34.5H60.5273C60.5656 34.8469 60.6435 35.1815 60.756 35.5H69.242C69.3545 35.1815 69.4324 34.8467 69.4707 34.5Z" fill="white"/>
<path d="M69.2438 35.5H60.7578C60.8836 35.856 61.0526 36.1917 61.2589 36.4999H68.7424C68.949 36.1917 69.1178 35.856 69.2438 35.5Z" fill="#FF3435"/>
<path d="M68.7413 36.5H61.2578C61.5109 36.8778 61.8197 37.2146 62.1723 37.4998H67.827C68.1795 37.215 68.4884 36.878 68.7413 36.5Z" fill="white"/>
<path d="M62.1719 37.5C62.9446 38.125 63.9279 38.5 64.9992 38.5C66.0705 38.5 67.0538 38.125 67.8266 37.5H62.1719Z" fill="#FF3435"/>
<path d="M65.5 29.5283C65.3357 29.5102 65.1691 29.5 65 29.5C62.5147 29.5 60.5 31.5147 60.5 34C60.5 34.169 60.5102 34.3357 60.5283 34.5H65.5V29.5283Z" fill="#011165"/>
<path d="M64.9596 33.7779L64.8547 33.4551L64.7497 33.7779H64.4102L64.6848 33.9772L64.5799 34.3001L64.8547 34.1005L65.1292 34.3001L65.0244 33.9772L65.2991 33.7779H64.9596Z" fill="white"/>
<path d="M64.073 33.1326L63.9678 32.8096L63.8631 33.1326H63.5234L63.798 33.3318L63.6932 33.655L63.9678 33.4553L64.2425 33.655L64.1375 33.3318L64.4122 33.1326H64.073Z" fill="white"/>
<path d="M62.9724 33.7779L63.0775 33.4551L63.1822 33.7779H63.5215L63.2469 33.9772L63.3519 34.3001L63.0775 34.1005L62.8026 34.3001L62.9075 33.9772L62.6328 33.7779H62.9724Z" fill="white"/>
<path d="M62.0859 33.1326L62.1908 32.8096L62.2958 33.1326H62.6351L62.3606 33.3318L62.4656 33.655L62.1908 33.4553L61.9162 33.655L62.0212 33.3318L61.7461 33.1326H62.0859Z" fill="white"/>
<path d="M64.073 31.8414L63.9678 31.5186L63.8631 31.8414H63.5234L63.798 32.0407L63.6932 32.3639L63.9678 32.1643L64.2425 32.3639L64.1375 32.0407L64.4122 31.8414H64.073Z" fill="white"/>
<path d="M62.0859 31.8417L62.1908 31.5186L62.2958 31.8417H62.6351L62.3606 32.0411L62.4656 32.3642L62.1908 32.1646L61.9162 32.3642L62.0212 32.0411L61.7461 31.8417H62.0859Z" fill="white"/>
<path d="M64.073 30.5504L63.9678 30.2275L63.8631 30.5505L63.5234 30.5504L63.798 30.7499L63.6932 31.0729L63.9678 30.8731L64.2425 31.0729L64.1375 30.7499L64.4122 30.5505L64.073 30.5504Z" fill="white"/>
<path d="M61.4048 33.7779L61.2998 33.4551L61.195 33.7779H60.8555L61.1301 33.9772L61.0254 34.3001L61.2998 34.1005L61.5747 34.3001L61.4697 33.9772L61.7444 33.7779H61.4048Z" fill="white"/>
<path d="M64.9596 32.4869L64.8547 32.1641L64.7497 32.4869H64.4102L64.6848 32.6863L64.5801 33.0095L64.8547 32.8097L65.1292 33.0095L65.0245 32.6863L65.2991 32.4869H64.9596Z" fill="white"/>
<path d="M62.9724 32.4869L63.0775 32.1641L63.1822 32.4869H63.5215L63.2469 32.6863L63.3519 33.0094L63.0775 32.8097L62.8026 33.0094L62.9075 32.6863L62.6328 32.4869H62.9724Z" fill="white"/>
<path d="M61.4048 32.4869L61.2998 32.1641L61.195 32.4869H60.8555L61.1301 32.6863L61.0254 33.0095L61.2998 32.8097L61.5747 33.0095L61.4697 32.6863L61.7444 32.4869H61.4048Z" fill="white"/>
<path d="M64.9596 31.1959L64.8547 30.873L64.7497 31.1959H64.4102L64.6848 31.3953L64.5801 31.7184L64.8547 31.519L65.1292 31.7184L65.0245 31.3953L65.2991 31.1959H64.9596Z" fill="white"/>
<path d="M62.9724 31.1958L63.0775 30.873L63.1822 31.1958H63.5215L63.2469 31.3952L63.3519 31.7182L63.0775 31.5189L62.8026 31.7182L62.9075 31.3952L62.6328 31.1958H62.9724Z" fill="white"/>
<path d="M64.9596 29.9053L64.8547 29.5825L64.7497 29.9054L64.4102 29.9053L64.6848 30.1049L64.5801 30.4277L64.8547 30.2283L65.1292 30.4277L65.0245 30.1049L65.2991 29.9054L64.9596 29.9053Z" fill="white"/>
<path d="M61.9141 31.0827L62.1887 30.8832L62.4634 31.0827L62.3585 30.7597L62.6329 30.5602H62.2935L62.2529 30.4355C62.1442 30.5195 62.0391 30.6081 61.9385 30.7015L62.0188 30.7597L61.9141 31.0827Z" fill="white"/>
<path d="M61.5747 31.7183L61.4697 31.3952L61.7444 31.1958H61.5345C61.445 31.3037 61.3604 31.416 61.2812 31.5321L61.2999 31.5185L61.5747 31.7183Z" fill="white"/>
<path d="M62.8047 30.4378L63.08 30.2381L63.3544 30.4378L63.2494 30.1146L63.524 29.9151L63.1847 29.9153L63.1754 29.8872C63.058 29.9394 62.9429 29.9958 62.831 30.0575L62.9097 30.1145L62.8047 30.4378Z" fill="white"/>
</g>
<path d="M76.4127 30.9727H77.5079V34.9225C77.5079 36.2214 76.5278 37.11 75.0547 37.11C73.5758 37.11 72.6016 36.2214 72.6016 34.9225V30.9727H73.6968V34.831C73.6968 35.5897 74.2223 36.1329 75.0547 36.1329C75.8843 36.1329 76.4127 35.5897 76.4127 34.831V30.9727Z" fill="white"/>
<path d="M82.4455 32.6348C82.3894 32.1211 81.9584 31.8171 81.306 31.8171C80.6211 31.8171 80.2137 32.1506 80.2108 32.6053C80.2049 33.1101 80.7422 33.3197 81.2381 33.4377L81.8049 33.5794C82.7141 33.7949 83.5791 34.2732 83.5821 35.3212C83.5791 36.3869 82.7378 37.1101 81.2883 37.1101C79.8802 37.1101 78.9857 36.4341 78.9414 35.2326H80.0189C80.0632 35.8673 80.5946 36.1743 81.2794 36.1743C81.9938 36.1743 82.4839 35.8289 82.4868 35.3123C82.4839 34.8429 82.0529 34.6392 81.4005 34.4739L80.7126 34.2968C79.7178 34.04 79.1008 33.5411 79.1008 32.6732C79.0979 31.6045 80.0514 30.8901 81.3208 30.8901C82.6079 30.8901 83.4787 31.6134 83.4994 32.6348H82.4455Z" fill="white"/>
<path d="M87.0682 37.0185H85.0195V30.9727H87.1095C88.9103 30.9727 90.0026 32.1063 90.0026 33.9897C90.0026 35.879 88.9103 37.0185 87.0682 37.0185ZM86.1147 36.0709H87.0151C88.2756 36.0709 88.9162 35.3801 88.9162 33.9897C88.9162 32.6052 88.2756 31.9203 87.0476 31.9203H86.1147V36.0709Z" fill="white"/>
</g>
</g>
<defs>
<clipPath id="clip0_185_103">
<rect width="100" height="40" fill="white"/>
</clipPath>
</defs>
</svg>
