<svg width="60" height="34" viewBox="0 0 60 34" fill="none" xmlns="http://www.w3.org/2000/svg">
<g clip-path="url(#clip0_185_102)">
<path d="M36.3261 14.3285L35.5509 7.08166L34.7757 14.3285H31.8493L30.3377 0.728516H32.4113L33.5547 11.4531L34.5819 0.728516H36.6362L37.7021 11.5308L38.8067 0.728516H40.6672L39.1556 14.3285H36.3261ZM41.7331 14.3285V0.728516H43.8649V14.3285H41.7331ZM52.0433 14.3285H49.8727C49.7435 13.9399 49.6789 13.383 49.6789 12.6577V10.5205C49.6789 9.8988 49.5691 9.45518 49.3494 9.18966C49.1298 8.92413 48.7745 8.79137 48.2835 8.79137H47.5471V14.3285H45.4153V0.728516H48.6324C49.7306 0.728516 50.5316 0.984323 51.0355 1.49594C51.5394 2.00757 51.7913 2.79442 51.7913 3.85652V4.92509C51.7913 6.32395 51.3262 7.24356 50.396 7.68394C51.3391 8.08547 51.8107 9.05041 51.8107 10.5788V12.6771C51.8107 13.4154 51.8882 13.9658 52.0433 14.3285ZM48.5742 2.67137H47.5471V6.84852H48.3804C48.8068 6.84852 49.1266 6.73842 49.3398 6.51823C49.5529 6.29804 49.6595 5.9289 49.6595 5.4108V4.07023C49.6595 3.13765 49.2978 2.67137 48.5742 2.67137ZM55.3379 2.67137V6.45994H58.2642V8.4028H55.3379V12.3857H59.0201V14.3285H53.2061V0.728516H59.0201V2.67137H55.3379ZM0.0273438 22.0999V20.1571H6.61654V22.0999H4.38784V33.7571H2.25604V22.0999H0.0273438ZM14.1747 33.7571H12.0042C11.875 33.3685 11.8104 32.8116 11.8104 32.0862V29.9491C11.8104 29.3274 11.7006 28.8838 11.4809 28.6182C11.2613 28.3527 10.906 28.2199 10.415 28.2199H9.67858V33.7571H7.54678V20.1571H10.7639C11.8621 20.1571 12.6631 20.4129 13.167 20.9245C13.6709 21.4361 13.9228 22.223 13.9228 23.2851V24.3537C13.9228 25.7525 13.4577 26.6721 12.5274 27.1125C13.4706 27.514 13.9422 28.479 13.9422 30.0074V32.1057C13.9422 32.8439 14.0197 33.3944 14.1747 33.7571ZM10.7057 22.0999H9.67858V26.2771H10.5119C10.9383 26.2771 11.2581 26.167 11.4712 25.9468C11.6844 25.7266 11.791 25.3575 11.791 24.8394V23.4988C11.791 22.5662 11.4292 22.0999 10.7057 22.0999ZM20.0663 20.1571L22.2368 33.7571H20.0856L19.7174 31.2897H17.1011L16.7329 33.7571H14.7755L16.9461 20.1571H20.0663ZM18.3996 22.5662L17.3724 29.4439H19.4267L18.3996 22.5662ZM27.7795 33.7571L25.1244 23.9068V33.7571H23.2058V20.1571H25.8803L28.0702 28.2977V20.1571H29.9694V33.7571H27.7795ZM31.2291 23.4211C31.2291 22.3201 31.494 21.475 32.0237 20.8857C32.5534 20.2963 33.3351 20.0017 34.3687 20.0017C35.4023 20.0017 36.184 20.2963 36.7137 20.8857C37.2434 21.475 37.5083 22.3201 37.5083 23.4211V23.8485H35.4927V23.2851C35.4927 22.3914 35.1374 21.9445 34.4268 21.9445C33.7162 21.9445 33.3609 22.3914 33.3609 23.2851C33.3609 23.7902 33.5031 24.2662 33.7873 24.7131C34.0715 25.1599 34.4171 25.5647 34.8241 25.9274C35.2311 26.29 35.6413 26.6689 36.0548 27.0639C36.4682 27.459 36.817 27.9512 37.1013 28.5405C37.3855 29.1299 37.5276 29.7807 37.5276 30.4931C37.5276 31.594 37.2563 32.4392 36.7137 33.0285C36.171 33.6179 35.3829 33.9125 34.3493 33.9125C33.3157 33.9125 32.5276 33.6179 31.985 33.0285C31.4423 32.4392 31.171 31.594 31.171 30.4931V29.6577H33.1865V30.6291C33.1865 31.5099 33.5547 31.9502 34.2912 31.9502C35.0276 31.9502 35.3958 31.5099 35.3958 30.6291C35.3958 30.1239 35.2537 29.6479 34.9695 29.2011C34.6852 28.7542 34.3396 28.3495 33.9327 27.9868C33.5257 27.6241 33.1155 27.2453 32.702 26.8502C32.2886 26.4552 31.9397 25.963 31.6555 25.3737C31.3713 24.7843 31.2291 24.1335 31.2291 23.4211ZM40.8804 22.0999V26.1994H43.6323V28.1422H40.8804V33.7571H38.7486V20.1571H44.3882V22.0999H40.8804ZM47.5471 22.0999V25.8885H50.4735V27.8314H47.5471V31.8142H51.2293V33.7571H45.4153V20.1571H51.2293V22.0999H47.5471ZM59.1751 33.7571H57.0045C56.8753 33.3685 56.8107 32.8116 56.8107 32.0862V29.9491C56.8107 29.3274 56.7009 28.8838 56.4813 28.6182C56.2616 28.3527 55.9063 28.2199 55.4154 28.2199H54.6789V33.7571H52.5471V20.1571H55.7642C56.8624 20.1571 57.6635 20.4129 58.1673 20.9245C58.6712 21.4361 58.9232 22.223 58.9232 23.2851V24.3537C58.9232 25.7525 58.458 26.6721 57.5278 27.1125C58.471 27.514 58.9425 28.479 58.9425 30.0074V32.1057C58.9425 32.8439 59.0201 33.3944 59.1751 33.7571ZM55.7061 22.0999H54.6789V26.2771H55.5123C55.9386 26.2771 56.2584 26.167 56.4716 25.9468C56.6848 25.7266 56.7914 25.3575 56.7914 24.8394V23.4988C56.7914 22.5662 56.4296 22.0999 55.7061 22.0999Z" fill="#5C6783"/>
<path d="M16.3966 3.50523H17.1442V5.5166H1.125V3.50523H1.87262L9.13461 0L16.3966 3.50523ZM16.1207 12.8636H17.1442V14.875H1.125V12.8636H1.89862V6.68047H4.00522V12.856H5.05211V6.68047H7.15871V12.8636H10.8606V6.68047H12.9672V12.856H14.0141V6.68047H16.1207V12.8636Z" fill="#5C6783"/>
</g>
<defs>
<clipPath id="clip0_185_102">
<rect width="60" height="34" fill="white"/>
</clipPath>
</defs>
</svg>
