<svg width="38" height="15" viewBox="0 0 38 15" fill="none" xmlns="http://www.w3.org/2000/svg">
<g clip-path="url(#clip0_769_6)">
<path d="M14.6724 0.5H0.506836V14.4792H14.6724V0.5Z" fill="white"/>
<path fill-rule="evenodd" clip-rule="evenodd" d="M0.105556 14.9792H15.1789V0H0V14.9792H0.105556ZM10.3233 10.625C10.26 10.5625 10.1967 10.5208 10.1122 10.4583C9.41556 9.83333 8.65556 9.25 7.87444 8.75C7.13556 9.1875 6.39667 9.58333 5.61556 9.9375L0.907778 9C1.83667 8.77083 2.72333 8.47917 3.61 8.125C4.20111 7.89583 4.77111 7.625 5.34111 7.33333C4.98222 7.16667 4.64444 7.02083 4.26444 6.875C3.37778 6.52083 2.47 6.25 1.56222 6L6.27 5.0625C6.79778 5.3125 7.30444 5.5625 7.83222 5.85417C8.40222 5.4375 8.95111 5 9.47889 4.54167C9.54222 4.47917 9.60556 4.4375 9.69 4.375L13.6589 3.625C12.6456 4.97917 11.4422 6.20833 10.0911 7.25C11.6956 8.39583 13.1311 9.79167 14.3133 11.3542L10.3444 10.625H10.3233Z" fill="#FE0103"/>
<path d="M20.8154 7.6875L18.2188 4.3125H20.1399L21.8499 6.52083L23.4965 4.3125H25.3754L22.7576 7.70833L25.4387 11.1667H23.5176L21.7654 8.89583L20.1188 11.1667H18.2399L20.8365 7.70833L20.8154 7.6875Z" fill="white"/>
<path d="M28.9434 11.1667C27.6134 11.1667 26.7056 10.3958 26.7056 8.875V5.83333H25.7134V4.3125H26.7056V3.0625L28.3523 2.5625V4.3125H29.8512V5.83333H28.3523V8.8125C28.3523 9.33333 28.6267 9.625 29.0278 9.625H29.8512V11.1458H28.9434V11.1667Z" fill="white"/>
<path d="M34.4321 11.2917C33.461 11.2917 32.7432 10.875 32.2365 10.2292V11.1458H30.6743V1.5625H32.321V5.16667C32.8277 4.58333 33.5665 4.1875 34.4954 4.1875C36.4165 4.1875 37.9365 5.79167 37.9365 7.79167C37.9365 9.79167 36.4376 11.2917 34.4532 11.2917H34.4321ZM36.2265 7.75C36.2265 6.60417 35.4032 5.79167 34.2421 5.79167C33.081 5.79167 32.2576 6.60417 32.2576 7.75C32.2576 8.89583 33.081 9.70833 34.2421 9.70833C35.4032 9.70833 36.2265 8.89583 36.2265 7.75Z" fill="white"/>
</g>
<defs>
<clipPath id="clip0_769_6">
<rect width="38" height="15" fill="white"/>
</clipPath>
</defs>
</svg>
