<svg width="129" height="18" viewBox="0 0 129 18" fill="none" xmlns="http://www.w3.org/2000/svg">
<g clip-path="url(#clip0_257_148)">
<mask id="mask0_257_148" style="mask-type:luminance" maskUnits="userSpaceOnUse" x="0" y="0" width="129" height="18">
<path d="M128.648 0.015625H0.738281V17.9805H128.648V0.015625Z" fill="white"/>
</mask>
<g mask="url(#mask0_257_148)">
<path fill-rule="evenodd" clip-rule="evenodd" d="M74.493 0.107756C73.2896 0.476267 72.7342 1.85819 73.3821 2.87159C73.5673 3.14798 73.9376 3.51648 74.2153 3.60861C74.493 3.70074 74.493 3.70074 75.0484 3.70074C75.5113 3.70074 75.6038 3.70074 75.8815 3.60861C76.2518 3.42436 76.6221 3.05584 76.8072 2.68733C77.2701 1.76606 76.8072 0.66052 75.8815 0.199882C75.6038 0.0156259 75.5113 0.015625 75.141 0.015625C74.7707 0.015625 74.6781 0.0156278 74.493 0.107756ZM69.4942 0.199882C67.9205 0.476265 66.9022 1.48967 66.4394 3.14797C66.3468 3.42436 66.3468 3.70074 66.3468 4.06925V4.71414H65.6988H65.0508V6.09606V7.47797H65.6988H66.3468V10.7945V14.1111H68.1056H69.8645V10.7945V7.47797H71.0679H72.2713V6.09606V4.71414H71.0679H69.8645V4.43776C69.957 3.79287 70.2348 3.33223 70.7902 3.2401C71.1605 3.14797 71.7159 3.14797 72.0862 3.33223C72.2713 3.42436 72.3639 3.42436 72.3639 3.42436C72.3639 3.42436 72.3639 2.77946 72.3639 1.95031V0.476264L72.0862 0.384138C71.7159 0.199882 71.253 0.199882 70.605 0.199882C70.1422 0.107754 69.7719 0.199882 69.4942 0.199882ZM83.5649 4.52989C82.8243 4.71415 82.2689 5.08265 81.8986 5.54329L81.7135 5.81968V5.26691V4.71414H79.9546H78.1958V9.41266V14.1111H79.9546H81.7135V11.5315C81.7135 10.0575 81.7135 8.8599 81.7135 8.67564C81.806 8.30713 81.9912 7.93862 82.1763 7.75436C82.6392 7.38585 83.4723 7.47798 83.8426 7.93861C84.1203 8.30713 84.1203 8.30713 84.1203 11.2552V14.019H85.8791H87.638V10.8867C87.638 7.57011 87.638 7.20159 87.4528 6.5567C87.2677 6.00393 87.0825 5.54329 86.6197 5.17478C86.2494 4.80627 85.8791 4.52989 85.3237 4.43776C84.8609 4.43776 83.9352 4.43776 83.5649 4.52989ZM92.3591 4.43776C91.8036 4.52989 90.9705 4.80627 90.5076 5.17478C89.4894 5.9118 88.8414 7.01734 88.5637 8.39925C88.4711 8.95202 88.4711 9.96543 88.5637 10.5181C88.7488 11.3473 89.0265 12.1764 89.4894 12.7292C90.1374 13.5584 90.9705 14.1111 91.9888 14.2954C92.5442 14.3875 93.4699 14.3875 93.9327 14.2033C94.4882 14.019 94.8584 13.8347 95.3213 13.4662L95.6916 13.0977V13.5584V14.019H97.4504H99.2092V9.32053V4.62202H97.4504H95.6916V5.08266V5.54329L95.4139 5.45117C94.951 4.99053 94.303 4.62202 93.5625 4.52989C93.2847 4.43776 92.6368 4.43776 92.3591 4.43776ZM105.782 4.52989C105.134 4.62202 104.486 5.08265 104.115 5.54329L103.93 5.72755V5.17478V4.62202H102.171H100.413V9.32053V14.019H102.171H103.93V11.3473C103.93 8.49138 103.93 8.49139 104.115 8.03075C104.301 7.66224 104.671 7.47797 105.041 7.47797C105.411 7.47797 105.597 7.5701 105.874 7.75436C106.244 8.12287 106.244 8.03074 106.244 11.163V13.9269H108.003H109.762V10.5181C109.762 7.10947 109.762 7.10947 109.67 6.74096C109.577 6.5567 109.484 6.18819 109.392 5.91181C109.207 5.54329 109.114 5.45116 108.836 5.17478C108.466 4.80627 108.188 4.62202 107.818 4.43776C107.17 4.43776 106.43 4.34564 105.782 4.52989ZM114.946 4.52989C113.372 4.80627 112.169 5.54329 111.428 6.83308C111.243 7.20159 111.058 7.66223 110.873 8.12287C110.78 8.58351 110.78 8.67564 110.78 9.41266C110.78 10.2418 110.78 10.5181 111.058 11.163C111.614 12.7292 112.91 13.9269 114.668 14.2954C114.946 14.3875 115.224 14.3875 115.872 14.3875C116.798 14.3875 117.168 14.2954 117.816 14.019L118.186 13.8347V12.2686V10.7024L117.908 10.8867C117.445 11.163 117.168 11.2552 116.612 11.2552C116.057 11.2552 115.779 11.2552 115.409 11.0709C115.039 10.8867 114.761 10.6103 114.576 10.2418C114.483 9.96543 114.483 9.96543 114.483 9.50479C114.483 9.13628 114.483 9.04415 114.576 8.76776C114.854 8.03074 115.502 7.66224 116.427 7.57011C117.075 7.57011 117.353 7.57011 118.279 8.03075C118.279 8.03075 118.279 7.29372 118.279 6.46457V4.8984L118.001 4.80628C116.983 4.43777 115.872 4.34564 114.946 4.52989ZM122.907 4.52989C120.223 4.99053 118.556 7.29373 118.741 9.96543C118.834 10.8867 119.112 11.7158 119.575 12.3607C120.223 13.3741 121.241 14.019 122.537 14.2954C123.092 14.3875 124.573 14.3875 125.221 14.2954C126.147 14.1111 126.98 13.6505 127.628 13.0056C127.906 12.7292 128.369 12.0843 128.369 12.0843C128.369 12.0843 127.721 11.8079 126.888 11.5315L125.407 10.9788L125.221 11.163C124.944 11.4394 124.759 11.5315 124.388 11.6237C123.37 11.9001 122.352 11.3473 122.167 10.426V10.2418H125.407H128.646V9.41266C128.646 8.8599 128.646 8.49138 128.554 8.30713C128.369 7.20159 127.906 6.46458 127.258 5.72755C126.61 5.08266 125.869 4.71415 124.851 4.52989C124.481 4.43776 123.37 4.43776 122.907 4.52989ZM73.2896 9.41266V14.1111H75.0484H76.8072V9.41266V4.71414H75.0484H73.2896V9.41266ZM124.296 7.10947C124.573 7.2016 124.666 7.29372 124.944 7.47797C125.129 7.66223 125.314 7.84649 125.314 8.12287V8.30713H123.74C121.981 8.30713 122.074 8.30713 122.259 7.93861C122.537 7.29372 123.37 6.92522 124.296 7.10947ZM94.3956 7.57011C94.8584 7.66224 95.4139 8.12287 95.599 8.58351C96.0619 9.59692 95.599 10.7945 94.4882 11.163C94.1179 11.2552 93.5625 11.2552 93.1922 11.163C92.6368 10.9788 92.0813 10.5181 91.9888 9.96543C91.8962 9.68905 91.8962 9.59692 91.8962 9.32053C91.8962 8.95202 91.8962 8.8599 92.0813 8.58351C92.4516 7.75436 93.3773 7.38585 94.3956 7.57011Z" fill="#7E1FFF"/>
<path fill-rule="evenodd" clip-rule="evenodd" d="M23.7933 7.12623V14.2368H25.5375H27.2816V11.5019C27.2816 9.69699 27.2816 8.71244 27.2816 8.60305C27.3361 8.32957 27.3906 8.05608 27.5541 7.83729C27.7721 7.45441 28.1536 7.29032 28.5897 7.34502C29.1892 7.39972 29.5707 7.7279 29.6797 8.43896C29.6797 8.54835 29.6797 9.64229 29.6797 11.3925V14.1821H31.4239H33.168V10.9003C33.168 8.11078 33.168 7.56381 33.1135 7.29032C33.0045 6.30578 32.6774 5.54002 32.0779 4.99305C31.5874 4.50078 30.9878 4.22729 30.2793 4.1179C30.0068 4.0632 29.2437 4.1179 29.0257 4.1726C28.3716 4.33669 27.8811 4.55548 27.4451 5.04775L27.1726 5.26653V2.64108V0.015625H25.4284H23.6843V7.12623H23.7933ZM60.8559 0.125019C60.7469 0.343807 57.2041 8.93123 57.2041 8.93123C57.2041 8.93123 58.1307 8.93123 59.2753 8.93123H61.3464L63.1995 4.50078C64.2351 2.03942 65.0527 0.015625 65.0527 0.015625C65.0527 0.015625 64.1261 0.015625 62.9815 0.015625H60.9104L60.8559 0.125019ZM16.1628 4.1726C15.3998 4.28199 14.8002 4.50078 14.2007 4.88366C13.0016 5.64942 12.2385 6.96214 12.0205 8.49366C11.9115 9.20472 11.966 10.0798 12.1295 10.7362C12.5656 12.4318 13.7101 13.7445 15.1817 14.2368C15.7268 14.4009 15.9448 14.4556 16.5988 14.4556C17.0894 14.4556 17.2529 14.4556 17.4164 14.4009C18.1249 14.2368 18.6155 13.9633 19.0515 13.5257L19.2695 13.3069V13.7445V14.1821H20.9591H22.6488V9.25941V4.33669H20.9591H19.2695V4.77426V5.21184L19.106 5.04775C18.7245 4.61017 18.1795 4.33669 17.4709 4.1726C17.2529 4.1179 17.1439 4.1179 16.7078 4.1179C16.4353 4.1726 16.2173 4.1726 16.1628 4.1726ZM38.4003 4.1726C37.4738 4.28199 36.4927 4.71957 35.7842 5.26653C34.4216 6.41517 33.713 8.22017 33.9855 10.0798C34.258 12.1583 35.7296 13.7445 37.8008 14.2915C38.2368 14.4009 38.6728 14.4556 39.2179 14.4556C40.199 14.4556 40.9075 14.2915 41.6706 13.9086C43.1967 13.1428 44.1777 11.7754 44.3957 10.0798C44.4502 9.64229 44.4502 8.93123 44.3957 8.54835C44.2867 7.7279 43.9597 6.90745 43.4692 6.25108C43.2512 5.9776 42.8151 5.48532 42.5426 5.26653C41.7796 4.66487 40.9075 4.28199 39.9264 4.1726C39.5449 4.1179 38.7819 4.1179 38.4003 4.1726ZM49.5191 4.1726C48.5925 4.28199 47.666 4.66487 46.9574 5.26653C46.6849 5.48532 46.1944 5.9776 46.0309 6.25108C45.5403 6.90745 45.2678 7.7279 45.1043 8.54835C45.0498 8.93123 45.0498 9.69699 45.1043 10.0798C45.4313 12.2677 47.0119 13.9633 49.1921 14.4009C49.6281 14.5103 49.8461 14.5103 50.3366 14.5103C51.2632 14.5103 52.0808 14.3462 52.8438 13.9086C54.8605 12.8694 55.9505 10.5721 55.46 8.22017C55.024 6.03229 53.2799 4.44608 51.0452 4.1726C50.6637 4.1179 49.9006 4.1179 49.5191 4.1726ZM0.738281 4.39138C0.738281 4.39138 1.66484 6.63396 2.80942 9.36881C3.954 12.1036 4.88056 14.3462 4.88056 14.3462C4.88056 14.3462 4.55354 15.1666 4.11751 16.1512C3.68148 17.1357 3.35446 17.9015 3.35446 17.9562C3.35446 18.0109 4.17201 17.9562 5.20758 17.9562H7.06071L9.8404 11.2285C11.3665 7.50911 12.6201 4.50078 12.6201 4.44608C12.6201 4.44608 12.2385 4.39138 10.7669 4.44608H8.91384L7.76926 7.29032C7.27872 8.82184 6.78819 10.1345 6.78819 10.1345C6.78819 10.1345 6.29766 8.82184 5.64361 7.29032L4.55354 4.44608H2.64591C1.61034 4.39138 0.738281 4.39138 0.738281 4.39138ZM17.8524 7.34502C18.561 7.50911 19.106 8.05608 19.324 8.76714C19.3785 9.04063 19.3785 9.5329 19.324 9.80638C19.1605 10.5174 18.6155 11.0644 17.9069 11.2285C17.6344 11.2832 17.1439 11.2832 16.8714 11.2285C16.2718 11.0644 15.7268 10.6268 15.5088 10.0798C15.2362 9.4782 15.3453 8.71244 15.6723 8.16548C16.1628 7.45441 16.9804 7.18093 17.8524 7.34502ZM39.5994 7.39972C40.3625 7.50911 40.962 8.11078 41.1255 8.87654C41.18 9.15002 41.18 9.5876 41.1255 9.86108C40.962 10.5721 40.417 11.0644 39.7629 11.2831C39.5449 11.3378 38.9454 11.3378 38.7274 11.2831C38.1823 11.1191 37.7463 10.7362 37.4738 10.2439C37.3103 9.91578 37.3103 9.75169 37.3103 9.36881C37.3103 9.04063 37.3648 8.87654 37.4738 8.60305C37.6373 8.27487 37.8553 7.94669 38.1823 7.7279C38.5093 7.39972 39.0544 7.29032 39.5994 7.39972ZM50.6637 7.39972C51.3177 7.50911 51.8628 7.94669 52.0808 8.54835C52.1898 8.82184 52.2443 8.98593 52.2443 9.31411C52.2443 9.69699 52.1898 9.86108 52.0808 10.1892C51.8628 10.6815 51.3722 11.0644 50.8272 11.2285C50.6092 11.2832 50.0096 11.2832 49.7916 11.2285C49.1376 11.0644 48.5925 10.5174 48.429 9.80638C48.3745 9.5329 48.3745 9.04063 48.429 8.76714C48.647 7.89199 49.4101 7.29032 50.2821 7.29032C50.3912 7.34502 50.5547 7.34502 50.6637 7.39972ZM58.0762 9.80638C57.0406 9.91578 56.2776 10.6815 56.0595 11.666C56.005 11.9395 56.005 12.4318 56.0595 12.7053C56.2776 13.5804 56.9316 14.1821 57.8037 14.4009C57.9127 14.4009 58.1307 14.4556 58.2942 14.4556C58.9482 14.4556 59.4933 14.2368 59.9293 13.7992C60.4198 13.3069 60.5833 12.8147 60.5833 12.1583C60.5833 11.3378 60.2018 10.6268 59.5478 10.2439C59.1117 9.86108 58.5122 9.75169 58.0762 9.80638Z" fill="#39007D"/>
</g>
</g>
<defs>
<clipPath id="clip0_257_148">
<rect width="129" height="18" fill="white"/>
</clipPath>
</defs>
</svg>
