<?xml version="1.0" encoding="UTF-8"?>
<svg id="Layer_1" xmlns="http://www.w3.org/2000/svg" version="1.1" viewBox="0 0 48.9 12">
  <!-- Generator: Adobe Illustrator 29.4.0, SVG Export Plug-In . SVG Version: 2.1.0 Build 152)  -->
  <defs>
    <style>
      .st0 {
        fill: #fff;
      }
    </style>
  </defs>
  <path class="st0" d="M7.4,1.4L2.8,6l4.6,4.6-1.4,1.4L0,6,6,0l1.4,1.4Z"/>
  <g>
    <path class="st0" d="M14.58,11.81V.32h4.21c.96,0,1.77.33,2.43.98.66.65.99,1.44.99,2.35,0,.83-.3,1.52-.91,2.05,1.13.56,1.7,1.47,1.7,2.72,0,.96-.34,1.76-1.02,2.41-.68.65-1.53.97-2.54.97h-4.85ZM16.93,5.03h1.63c.41,0,.74-.12.99-.36.25-.24.37-.55.37-.91s-.13-.66-.38-.91c-.25-.25-.58-.38-.98-.38h-1.63v2.57ZM16.93,9.66h2.35c.44,0,.79-.12,1.05-.36s.39-.56.39-.95-.13-.71-.39-.95-.61-.37-1.05-.37h-2.35v2.64Z"/>
    <path class="st0" d="M27.14,11.99c-1.17,0-2.12-.41-2.87-1.24-.75-.83-1.12-1.82-1.12-2.99s.37-2.16,1.12-2.99c.75-.83,1.71-1.24,2.87-1.24.85,0,1.54.25,2.07.76v-.58h2.22v8.09h-2.22v-.6c-.52.52-1.21.78-2.07.78ZM27.46,9.97c.73,0,1.32-.3,1.75-.89v-2.64c-.43-.58-1.01-.87-1.75-.87-.59,0-1.08.21-1.46.64-.38.43-.57.95-.57,1.56s.19,1.14.57,1.56c.38.43.86.64,1.46.64Z"/>
    <path class="st0" d="M36.36,11.99c-1.21,0-2.22-.4-3.05-1.21-.83-.8-1.24-1.81-1.24-3.02s.41-2.21,1.24-3.02c.83-.8,1.84-1.21,3.05-1.21.83,0,1.59.21,2.27.64.68.43,1.2.99,1.56,1.69l-1.93,1.04c-.17-.39-.42-.7-.75-.94-.33-.24-.72-.36-1.16-.36-.58,0-1.07.21-1.46.61-.39.41-.59.92-.59,1.54s.2,1.13.59,1.54c.39.41.88.61,1.46.61.44,0,.83-.12,1.16-.36.33-.24.58-.55.75-.94l1.93,1.04c-.36.7-.88,1.27-1.56,1.69-.69.43-1.44.64-2.27.64Z"/>
    <path class="st0" d="M46.17,11.81l-3.3-3.72v3.72h-2.22V0h2.22v6.7l2.62-2.98h2.67l-3.2,3.64,3.95,4.45h-2.74Z"/>
  </g>
</svg>