<svg width="20" height="20" viewBox="0 0 20 20" fill="none" xmlns="http://www.w3.org/2000/svg">
<path fill-rule="evenodd" clip-rule="evenodd" d="M18.2209 2.29206V2.29206C17.4379 1.50906 16.1829 1.46806 15.3499 2.19606L7.31286 9.22806C6.44186 9.99006 6.39786 11.3291 7.21586 12.1471L8.36486 13.2961C9.18286 14.1141 10.5229 14.0691 11.2839 13.1991L18.3159 5.16206C19.0449 4.33006 19.0029 3.07506 18.2209 2.29206V2.29206Z" stroke="white" stroke-width="1.5" stroke-linecap="round" stroke-linejoin="round"/>
<path d="M8.86987 7.87012L12.6499 11.6501" stroke="white" stroke-width="1.5" stroke-linecap="round" stroke-linejoin="round"/>
<path fill-rule="evenodd" clip-rule="evenodd" d="M1.59891 18.3233H5.30191C8.28691 18.3233 9.78191 14.7143 7.67091 12.6033V12.6033C6.11891 11.0513 3.48291 11.6223 2.71291 13.6773L1.19091 17.7353C1.08491 18.0203 1.29491 18.3233 1.59891 18.3233Z" stroke="white" stroke-width="1.5" stroke-linecap="round" stroke-linejoin="round"/>
</svg>
