<svg xmlns="http://www.w3.org/2000/svg" xmlns:xlink="http://www.w3.org/1999/xlink" id="Layer_1" x="0px" y="0px" viewBox="0 0 793.8 1596.5" style="enable-background:new 0 0 793.8 1596.5;" xml:space="preserve"><style type="text/css">	.st0{fill:#12141B;}	.st1{fill:#4AD9A6;}	.st2{fill:#34353C;}	.st3{fill:#4D7BFF;}	.st4{fill:#FFFFFF;}	.st5{clip-path:url(#SVGID_2_);}	.st6{fill:none;stroke:#FFFFFF;stroke-miterlimit:10;}</style><g>	<circle class="st0" cx="398.3" cy="1881.1" r="700"></circle>	<circle class="st1" cx="399.3" cy="73.1" r="43"></circle>	<circle class="st2" cx="399.3" cy="779.1" r="168"></circle>	<circle class="st3" cx="130.3" cy="250.1" r="96"></circle>	<path class="st4" d="M12.3,250.1c0-64.6,52.4-117,117-117s117,52.4,117,117s-52.4,117-117,117l0,0C64.7,367,12.3,314.7,12.3,250.1z   M245.3,250.1c0-64.1-51.9-116-116-116s-116,51.9-116,116s51.9,116,116,116l0,0C193.3,366,245.2,314.2,245.3,250.1z"></path>	<path class="st4" d="M430,125.1c0-0.2,0.1-0.3,0.2-0.4c0.2-0.1,0.5-0.1,0.7,0.2l40.3,63.2v414.3c0,0.3-0.2,0.5-0.5,0.5  s-0.5-0.2-0.5-0.5V188.3l-40.1-62.9C430.1,125.3,430,125.2,430,125.1z"></path>	<path class="st4" d="M208.3,779.1c0-105.3,85.7-191,191-191s191,85.7,191,191s-85.7,191-191,191S208.3,884.4,208.3,779.1z   M589.3,779.1c0-104.8-85.2-190-190-190s-190,85.2-190,190s85.2,190,190,190S589.3,883.9,589.3,779.1z"></path>	<path class="st3" d="M125.8,434.8v-68.1c0-0.3,0.2-0.5,0.5-0.5s0.5,0.2,0.5,0.5v67.8l132.4,213.9c0.1,0.2,0.1,0.5-0.1,0.7  c0,0,0,0,0,0c-0.2,0.1-0.5,0.1-0.7-0.1c0,0,0,0,0,0L125.8,434.8z"></path>	<path class="st1" d="M228.8,189.6c0-0.2,0.1-0.3,0.2-0.4l119.5-84c0.2-0.2,0.5-0.1,0.7,0.1c0.2,0.2,0.1,0.5-0.1,0.7l-119.5,84  c-0.2,0.2-0.5,0.1-0.7-0.1C228.8,189.8,228.8,189.7,228.8,189.6z"></path>	<path class="st1" d="M236.8,294.1c0-0.2,0.1-0.3,0.2-0.4c0.2-0.1,0.5-0.1,0.7,0.1L338.8,453v145.6c0,0.3-0.2,0.5-0.5,0.5  s-0.5-0.2-0.5-0.5V453.3L236.8,294.4C236.8,294.3,236.8,294.2,236.8,294.1z"></path>	<path class="st4" d="M182.8,354.1c0-0.2,0.1-0.3,0.2-0.4c0.2-0.1,0.5-0.1,0.7,0.2l113.1,185.6v79.6c0,0.3-0.2,0.5-0.5,0.5  s-0.5-0.2-0.5-0.5v-79.4L182.8,354.4C182.8,354.3,182.8,354.2,182.8,354.1z"></path>	<path class="st3" d="M426.1,967.1c0-0.2,0.1-0.3,0.2-0.4c0.2-0.1,0.5-0.1,0.7,0.2l40.3,63.6v130.7c0,0.3-0.2,0.5-0.5,0.5  s-0.5-0.2-0.5-0.5v-130.4l-40.1-63.4C426.1,967.3,426.1,967.2,426.1,967.1z"></path>	<path class="st4" d="M-324.7,1881.1c-0.3-399,322.8-722.7,721.8-723c0.4,0,0.8,0,1.2,0c399.2,0.3,722.6,324.1,722.3,723.3  S796.4,2604,397.2,2603.7c-290.2-0.2-552.1-173.9-665.1-441.2C-305.6,2073.5-324.9,1977.8-324.7,1881.1z M1120.3,1881.1  c0.3-398.4-322.4-721.7-720.8-722c-0.4,0-0.8,0-1.2,0c-398.6,0.3-721.5,323.7-721.3,722.3c0.3,398.6,323.7,721.5,722.3,721.3  c289.8-0.2,551.3-173.7,664.2-440.6C1101.1,2073.2,1120.4,1977.7,1120.3,1881.1z"></path>	<path class="st4" d="M285.9,791.1v-31.8h12c2.5,0,4.9,1,6.7,2.8c1.8,1.7,2.8,4.2,2.8,6.7c0,2.1-0.8,4-2.3,5.5  c2.8,1.5,4.6,4.4,4.5,7.5c0.1,2.5-1,4.9-2.8,6.7c-1.8,1.8-4.3,2.8-6.9,2.7H285.9z M293,784.6h6.3c0.9,0,1.7-0.3,2.4-0.9  c0.6-0.6,1-1.4,0.9-2.3c0-0.9-0.4-1.7-1-2.2c-0.6-0.6-1.5-1-2.4-0.9H293L293,784.6z M293,772.2h4c0.9,0,1.7-0.3,2.4-0.9  c0.6-0.6,1-1.4,0.9-2.2c0-0.9-0.3-1.7-0.9-2.3c-0.6-0.6-1.5-1-2.4-0.9h-4V772.2z M310.8,791.2v-22.5h6.8v2.5c0.4-0.9,1.1-1.6,1.9-2  c0.9-0.5,2-0.8,3-0.8c0.9,0,1.9,0.1,2.7,0.4l-1,6.3c-0.6-0.2-1.2-0.3-1.9-0.3c-2.2,0-3.8,0.7-4.8,2v14.2L310.8,791.2z M343.9,788.3  c-4.7,4.5-12,4.5-16.7,0c-2.3-2.2-3.5-5.2-3.5-8.3c-0.1-3.1,1.2-6.1,3.5-8.3c4.6-4.5,12.1-4.5,16.7,0c2.3,2.2,3.5,5.2,3.5,8.3  C347.4,783.1,346.2,786.1,343.9,788.3L343.9,788.3z M332,783.8c0.9,1,2.2,1.5,3.6,1.5c1.3,0,2.6-0.5,3.5-1.5c1.9-2.2,1.9-5.6,0-7.8  c-0.9-1-2.2-1.5-3.5-1.5c-1.3,0-2.7,0.5-3.6,1.5C330.1,778.3,330.1,781.5,332,783.8L332,783.8z M364,791.1l-8.3-10v10h-6.8v-32.7  h6.8v18.3l6.5-8h8l-8.2,10.1l10.2,12.3L364,791.1z M380.6,791.6c-3.1,0.1-6.2-1.1-8.5-3.2c-4.5-4.7-4.5-12.1,0-16.9  c4.5-4.3,11.6-4.5,16.4-0.5c2.2,1.9,3.2,4.6,3.2,8.1c0,0.8,0,1.6-0.1,2.4h-16.3c0.1,1.2,0.8,2.3,1.8,3c1.1,0.7,2.3,1,3.6,1  c1.1,0,2.3-0.2,3.3-0.7c0.9-0.4,1.6-1.1,2.2-1.8l5,3.8c-1.1,1.6-2.6,2.8-4.4,3.6C384.8,791.3,382.7,791.7,380.6,791.6L380.6,791.6z   M375.4,777.1h9.5c-0.2-1-0.8-1.9-1.7-2.5c-0.9-0.6-1.9-0.9-2.9-0.8c-1.1,0-2.2,0.3-3.1,0.8C376.2,775.1,375.6,776,375.4,777.1  L375.4,777.1z M393.2,791.1v-22.4h6.8v2.5c0.4-0.9,1.1-1.6,1.9-2c0.9-0.5,2-0.8,3-0.8c0.9,0,1.9,0.1,2.7,0.4l-1,6.3  c-0.6-0.2-1.2-0.3-1.9-0.3c-2.2,0-3.8,0.7-4.8,2v14.2L393.2,791.1z M403.8,796l17.3-36.8h6.1L409.9,796H403.8z M447.5,762.4  c4.3,4.2,4.3,11.2,0.1,15.4c0,0,0,0-0.1,0.1c-2.1,2.1-5,3.2-8,3.1h-3.7v10.1h-7.1v-31.8h10.8C442.4,759.2,445.3,760.3,447.5,762.4  L447.5,762.4z M443.8,770.2c0-1.1-0.4-2.2-1.3-3c-0.8-0.8-2-1.3-3.1-1.2h-3.6v8.3h3.6c1.2,0,2.3-0.4,3.1-1.2  C443.3,772.3,443.8,771.3,443.8,770.2L443.8,770.2z M451.5,791.1v-22.4h6.8v2.5c0.4-0.9,1.1-1.6,1.9-2c0.9-0.5,1.9-0.8,3-0.8  c0.9,0,1.9,0.1,2.7,0.4l-1,6.3c-0.6-0.2-1.2-0.3-1.9-0.3c-2.2,0-3.8,0.7-4.8,2v14.2L451.5,791.1z M484.6,788.2  c-4.7,4.5-12,4.5-16.7,0c-2.3-2.2-3.5-5.2-3.5-8.3c-0.1-3.1,1.2-6.1,3.5-8.3c4.6-4.5,12.1-4.5,16.7,0c2.3,2.2,3.5,5.2,3.5,8.3  C488.1,783,486.9,786.1,484.6,788.2L484.6,788.2z M472.7,783.8c0.9,1,2.2,1.5,3.6,1.5c1.3,0,2.6-0.5,3.5-1.5c1.9-2.2,1.9-5.6,0-7.8  c-0.9-1-2.2-1.5-3.5-1.5c-1.4,0-2.7,0.5-3.6,1.5C470.8,778.3,470.8,781.5,472.7,783.8z M489.6,799.8v-31.1h6.8v1.4  c1.5-1.3,3.4-2,5.3-1.9c3-0.1,5.9,1.2,7.9,3.5c2.1,2.3,3.2,5.2,3.1,8.2c0.1,3.1-1,6-3.1,8.3c-2,2.3-4.9,3.5-7.9,3.4  c-1.9,0.1-3.8-0.6-5.3-1.9v10.1L489.6,799.8z M500.6,785.4c1.4,0,2.7-0.6,3.6-1.6c1.9-2.3,1.9-5.6,0-7.9c-0.9-1.1-2.2-1.7-3.6-1.6  c-1.7,0-3.3,0.8-4.3,2.1v6.9C497.3,784.7,498.9,785.5,500.6,785.4L500.6,785.4z"></path>	<path class="st4" d="M331,1349.9v-31.3h6.4l9.7,16l9.8-16h6.4v31.3h-7.1V1332l-6.8,11.2h-4.6l-6.9-11.3v18L331,1349.9z   M375.8,1350.4c-3,0.1-5.8-1.1-7.8-3.3c-2-2.2-3.1-5.2-3-8.2c-0.1-3,1-5.9,3-8.1c2-2.2,4.8-3.5,7.8-3.4c1.9-0.1,3.8,0.6,5.2,1.9  v-1.4h6.7v22.1H381v-1.4C379.5,1349.8,377.7,1350.5,375.8,1350.4L375.8,1350.4z M376.8,1344.4c1.7,0,3.2-0.8,4.2-2.1v-6.8  c-1-1.3-2.5-2.1-4.2-2.1c-1.4,0-2.7,0.5-3.6,1.6c-1.8,2.3-1.8,5.5,0,7.8C374.1,1343.8,375.4,1344.4,376.8,1344.4L376.8,1344.4z   M390.5,1350v-22.1h6.7v2.5c0.4-0.8,1.1-1.5,1.9-1.9c0.9-0.5,1.9-0.8,3-0.8c0.9,0,1.8,0.1,2.7,0.4l-1,6.2c-0.6-0.2-1.2-0.3-1.9-0.3  c-2.2,0-3.8,0.7-4.7,2v14L390.5,1350z M420.2,1350l-8.2-9.8v9.8h-6.7v-32.3h6.7v18l6.4-7.9h7.9l-8.1,10l10.1,12.1L420.2,1350z   M436.4,1350.4c-3.1,0.1-6.1-1-8.4-3.1c-4.5-4.6-4.5-11.9,0-16.6c4.5-4.2,11.4-4.4,16.1-0.5c2.2,2,3.4,5,3.2,7.9  c0,0.8,0,1.6-0.1,2.3h-16c0.1,1.2,0.8,2.3,1.8,2.9c1.1,0.7,2.3,1,3.6,1c1.1,0,2.2-0.2,3.2-0.7c0.8-0.4,1.6-1,2.1-1.8l4.9,3.7  c-1.1,1.5-2.6,2.8-4.3,3.6C440.6,1350,438.5,1350.5,436.4,1350.4L436.4,1350.4z M431.3,1336.1h9.4c-0.2-1-0.8-1.9-1.7-2.5  c-0.9-0.6-1.9-0.9-2.9-0.8c-1.1,0-2.1,0.3-3,0.8C432.2,1334.2,431.5,1335.1,431.3,1336.1L431.3,1336.1z M460.6,1350.2  c-2.4,0.1-4.7-0.6-6.6-2.1c-1.7-1.6-2.6-3.9-2.4-6.2v-8.2h-5.3v-5.8h5.3v-6.7h6.7v6.7h6.6v5.8h-6.6v6.8c-0.1,1,0.2,2,0.8,2.8  c0.7,0.6,1.6,0.9,2.5,0.8c1,0,2.1-0.2,3-0.7l2,5.4c-0.8,0.4-1.7,0.7-2.6,0.9C462.9,1350.1,461.7,1350.2,460.6,1350.2L460.6,1350.2z  "></path>	<path class="st4" d="M399.3,86.9c-7.6,0-13.8-6.2-13.8-13.8c0-7.6,6.2-13.8,13.8-13.8c7.6,0,13.8,6.2,13.8,13.8  C413.1,80.7,406.9,86.9,399.3,86.9z M399.3,61.4c-6.5,0-11.7,5.3-11.6,11.7c0,6.5,5.3,11.7,11.7,11.6c6.4,0,11.6-5.3,11.6-11.7  C411,66.7,405.8,61.4,399.3,61.4C399.3,61.4,399.3,61.4,399.3,61.4z"></path>	<path class="st4" d="M404.9,79.8c-0.4,0-0.8-0.3-1-0.7c-0.1-0.3-0.3-0.5-0.5-0.7c-0.4-0.3-0.8-0.5-1.3-0.5h-5.8  c-0.5,0-1,0.2-1.3,0.5c-0.2,0.2-0.4,0.4-0.5,0.7c-0.2,0.6-0.8,0.8-1.4,0.6c-0.6-0.2-0.8-0.8-0.6-1.4c0.2-0.6,0.6-1.1,1-1.5  c0.7-0.7,1.7-1.1,2.8-1.1h5.8c1,0,2,0.4,2.8,1.1c0.4,0.4,0.8,0.9,1,1.5c0.2,0.5,0,1.1-0.6,1.4C405.1,79.8,405,79.9,404.9,79.8  L404.9,79.8z"></path>	<path class="st4" d="M399.3,74.9c-2.3,0-4.2-1.9-4.2-4.2s1.9-4.2,4.2-4.2s4.2,1.9,4.2,4.2l0,0C403.5,73,401.6,74.9,399.3,74.9z   M399.3,68.5c-1.2,0-2.1,1-2.1,2.1s1,2.1,2.1,2.1c1.2,0,2.1-1,2.1-2.1C401.4,69.5,400.4,68.5,399.3,68.5z"></path></g><polygon class="st1" points="337.3,1138.6 343.8,1122 337.3,1126.2 330.8,1122 "></polygon><polygon class="st3" points="447.6,1000.4 451.1,1017.9 454.3,1010.9 462,1011 "></polygon><polygon class="st1" points="338.3,581.3 344.8,564.6 338.3,568.8 331.8,564.6 "></polygon><polygon class="st4" points="470.7,586.8 477.1,570.1 470.7,574.3 464.2,570.1 "></polygon><polygon class="st1" points="237.4,183.8 254.8,179.7 247.7,176.8 247.5,169 "></polygon><polygon class="st3" points="126.2,385.8 119.8,402.5 126.2,398.3 132.8,402.5 "></polygon><polygon class="st4" points="197.9,378.1 200.9,395.8 204.3,388.8 212,389.1 "></polygon><path class="st1" d="M336.8,959.1c0-0.3,0.2-0.5,0.5-0.5s0.5,0.2,0.5,0.5l0.1,202c0,0.3-0.2,0.5-0.5,0.5c-0.3,0-0.5-0.2-0.5-0.5 L336.8,959.1z"></path><g>	<defs>		<rect id="SVGID_1_" x="98.2" y="218.1" width="64" height="64.1"></rect>	</defs>	<clipPath id="SVGID_2_">		<use xlink:href="#SVGID_1_" style="overflow:visible;"></use>	</clipPath>	<g class="st5">		<polygon class="st4" points="162.3,282.1 162.3,266.4 152.8,266.4 152.8,272.6 107.8,272.6 107.8,266.4 98.2,266.4 98.2,282.1      "></polygon>		<polygon class="st4" points="107.8,233.9 107.8,227.6 152.8,227.6 152.8,233.9 162.3,233.9 162.3,218.1 155.1,218.1 152.8,218.1    107.8,218.1 102.3,218.1 98.2,218.1 98.2,233.9   "></polygon>	</g></g><circle class="st6" cx="399.5" cy="72.7" r="60.4"></circle><g>	<g>		<path class="st4" d="M500.4,1064.1c-0.2-0.5-0.4-1-0.7-1.5c-0.3-0.4-0.6-0.8-1-1.1c-0.4-0.3-0.8-0.5-1.3-0.7s-1-0.2-1.6-0.2   c-1,0-1.9,0.3-2.7,0.8c-0.8,0.5-1.4,1.2-1.9,2.2c-0.5,1-0.7,2.2-0.7,3.6s0.2,2.6,0.7,3.6c0.5,1,1.1,1.7,1.9,2.2   c0.8,0.5,1.7,0.8,2.8,0.8c0.9,0,1.8-0.2,2.5-0.6c0.7-0.4,1.3-1,1.7-1.7c0.4-0.7,0.6-1.6,0.6-2.6l0.6,0.1h-5v-1.8h6.3v1.8   c0,1.4-0.3,2.5-0.9,3.5c-0.6,1-1.4,1.8-2.4,2.3c-1,0.6-2.2,0.8-3.5,0.8c-1.5,0-2.7-0.3-3.9-1s-2-1.7-2.6-2.9   c-0.6-1.3-0.9-2.8-0.9-4.5c0-1.3,0.2-2.5,0.5-3.5c0.4-1,0.9-1.9,1.5-2.7c0.6-0.7,1.4-1.3,2.3-1.7c0.9-0.4,1.9-0.6,2.9-0.6   c0.9,0,1.7,0.1,2.4,0.4c0.8,0.3,1.4,0.6,2,1.1c0.6,0.5,1.1,1,1.5,1.7c0.4,0.7,0.7,1.4,0.8,2.2H500.4z"></path>		<path class="st4" d="M511,1075.7c-1.2,0-2.2-0.3-3.1-0.8c-0.9-0.5-1.5-1.3-2-2.2c-0.5-1-0.7-2.1-0.7-3.3c0-1.3,0.2-2.4,0.7-3.4   c0.5-1,1.1-1.7,2-2.3c0.8-0.5,1.8-0.8,2.9-0.8c0.6,0,1.3,0.1,1.9,0.3c0.6,0.2,1.2,0.6,1.7,1s0.9,1.1,1.2,1.9   c0.3,0.8,0.5,1.8,0.5,2.9v0.8h-9.5v-1.6h7.6c0-0.7-0.1-1.3-0.4-1.9c-0.3-0.5-0.7-1-1.2-1.3s-1.1-0.5-1.8-0.5c-0.8,0-1.4,0.2-2,0.6   c-0.6,0.4-1,0.9-1.3,1.5c-0.3,0.6-0.4,1.2-0.4,1.9v1.1c0,0.9,0.2,1.7,0.5,2.4c0.3,0.6,0.8,1.1,1.4,1.5c0.6,0.3,1.3,0.5,2,0.5   c0.5,0,1-0.1,1.4-0.2c0.4-0.1,0.8-0.4,1.1-0.6c0.3-0.3,0.5-0.6,0.7-1.1l1.8,0.5c-0.2,0.6-0.5,1.2-1,1.6c-0.5,0.5-1,0.8-1.7,1.1   C512.6,1075.5,511.8,1075.7,511,1075.7z"></path>		<path class="st4" d="M524.4,1063v1.6H518v-1.6H524.4z M519.8,1060.1h1.9v11.8c0,0.5,0.1,0.9,0.2,1.2c0.2,0.3,0.4,0.4,0.6,0.5   s0.5,0.1,0.8,0.1c0.2,0,0.4,0,0.5,0c0.1,0,0.2,0,0.3-0.1l0.4,1.7c-0.1,0-0.3,0.1-0.5,0.1c-0.2,0.1-0.5,0.1-0.9,0.1   c-0.5,0-1.1-0.1-1.6-0.3s-0.9-0.6-1.3-1.1c-0.3-0.5-0.5-1.1-0.5-1.8V1060.1z"></path>		<path class="st4" d="M536,1065.8l-1.7,0.5c-0.1-0.3-0.3-0.6-0.5-0.8c-0.2-0.3-0.5-0.5-0.8-0.7c-0.4-0.2-0.8-0.3-1.4-0.3   c-0.8,0-1.4,0.2-1.9,0.5s-0.8,0.8-0.8,1.3c0,0.5,0.2,0.8,0.5,1.1c0.3,0.3,0.9,0.5,1.6,0.7l1.8,0.5c1.1,0.3,1.9,0.7,2.5,1.2   s0.8,1.3,0.8,2.1c0,0.7-0.2,1.3-0.6,1.9c-0.4,0.6-1,1-1.7,1.3c-0.7,0.3-1.6,0.5-2.5,0.5c-1.3,0-2.3-0.3-3.1-0.8   c-0.8-0.5-1.4-1.3-1.6-2.4l1.8-0.5c0.2,0.7,0.5,1.2,1,1.5c0.5,0.3,1.1,0.5,1.9,0.5c0.9,0,1.6-0.2,2.1-0.6c0.5-0.4,0.8-0.8,0.8-1.4   c0-0.4-0.2-0.8-0.5-1.1c-0.3-0.3-0.8-0.5-1.4-0.7l-2.1-0.5c-1.1-0.3-2-0.7-2.5-1.3c-0.5-0.6-0.8-1.3-0.8-2.1   c0-0.7,0.2-1.3,0.6-1.9c0.4-0.5,0.9-1,1.6-1.3s1.5-0.5,2.3-0.5c1.2,0,2.2,0.3,2.9,0.8C535.2,1064.2,535.7,1064.9,536,1065.8z"></path>		<path class="st4" d="M559.7,1067.2c0,1.7-0.3,3.2-0.9,4.5c-0.6,1.3-1.5,2.2-2.6,2.9s-2.3,1-3.8,1c-1.4,0-2.7-0.3-3.8-1   s-2-1.7-2.6-2.9s-0.9-2.8-0.9-4.5s0.3-3.2,0.9-4.5s1.5-2.2,2.6-2.9c1.1-0.7,2.3-1,3.8-1c1.4,0,2.7,0.3,3.8,1   c1.1,0.7,2,1.7,2.6,2.9C559.4,1063.9,559.7,1065.4,559.7,1067.2z M557.8,1067.2c0-1.4-0.2-2.6-0.7-3.6c-0.5-1-1.1-1.7-1.9-2.2   c-0.8-0.5-1.7-0.8-2.7-0.8c-1,0-1.9,0.3-2.7,0.8c-0.8,0.5-1.5,1.2-1.9,2.2c-0.5,1-0.7,2.2-0.7,3.6s0.2,2.6,0.7,3.6   c0.5,1,1.1,1.7,1.9,2.2c0.8,0.5,1.7,0.8,2.7,0.8c1,0,1.9-0.3,2.7-0.8c0.8-0.5,1.5-1.2,1.9-2.2   C557.5,1069.8,557.8,1068.6,557.8,1067.2z M551.8,1070.3h2.2l1.8,2.4l0.5,0.6l2.7,3.6h-2.2l-1.8-2.4l-0.5-0.6L551.8,1070.3z"></path>		<path class="st4" d="M570.6,1070.3v-7.3h1.9v12.4h-1.9v-2.1h-0.1c-0.3,0.6-0.7,1.2-1.4,1.6s-1.4,0.7-2.3,0.7   c-0.8,0-1.5-0.2-2.1-0.5c-0.6-0.3-1.1-0.9-1.4-1.5c-0.3-0.7-0.5-1.6-0.5-2.6v-7.9h1.9v7.7c0,0.9,0.3,1.6,0.8,2.2   c0.5,0.5,1.2,0.8,1.9,0.8c0.5,0,1-0.1,1.4-0.4c0.5-0.2,0.9-0.6,1.2-1.1S570.6,1071.1,570.6,1070.3z"></path>		<path class="st4" d="M581,1075.7c-1.1,0-2.1-0.3-2.9-0.8s-1.5-1.3-2-2.2s-0.7-2.1-0.7-3.4c0-1.3,0.2-2.4,0.7-3.4   c0.5-1,1.1-1.7,2-2.2s1.8-0.8,2.9-0.8c1.1,0,2.1,0.3,2.9,0.8s1.5,1.3,2,2.2c0.5,1,0.7,2.1,0.7,3.4c0,1.3-0.2,2.4-0.7,3.4   s-1.1,1.7-2,2.2S582.2,1075.7,581,1075.7z M581,1074c0.8,0,1.5-0.2,2.1-0.7c0.5-0.4,1-1,1.2-1.7s0.4-1.5,0.4-2.3s-0.1-1.6-0.4-2.3   s-0.7-1.3-1.2-1.7c-0.5-0.4-1.2-0.7-2.1-0.7s-1.5,0.2-2.1,0.7c-0.5,0.4-1,1-1.2,1.7s-0.4,1.5-0.4,2.3s0.1,1.6,0.4,2.3   s0.7,1.3,1.2,1.7C579.5,1073.7,580.2,1074,581,1074z"></path>		<path class="st4" d="M594.9,1063v1.6h-6.4v-1.6H594.9z M590.4,1060.1h1.9v11.8c0,0.5,0.1,0.9,0.2,1.2c0.2,0.3,0.4,0.4,0.6,0.5   s0.5,0.1,0.8,0.1c0.2,0,0.4,0,0.5,0c0.1,0,0.2,0,0.3-0.1l0.4,1.7c-0.1,0-0.3,0.1-0.5,0.1c-0.2,0.1-0.5,0.1-0.9,0.1   c-0.5,0-1.1-0.1-1.6-0.3s-0.9-0.6-1.3-1.1c-0.3-0.5-0.5-1.1-0.5-1.8V1060.1z"></path>		<path class="st4" d="M603,1075.7c-1.2,0-2.2-0.3-3.1-0.8c-0.9-0.5-1.5-1.3-2-2.2c-0.5-1-0.7-2.1-0.7-3.3c0-1.3,0.2-2.4,0.7-3.4   c0.5-1,1.1-1.7,2-2.3c0.8-0.5,1.8-0.8,2.9-0.8c0.6,0,1.3,0.1,1.9,0.3c0.6,0.2,1.2,0.6,1.7,1s0.9,1.1,1.2,1.9   c0.3,0.8,0.5,1.8,0.5,2.9v0.8h-9.5v-1.6h7.6c0-0.7-0.1-1.3-0.4-1.9c-0.3-0.5-0.7-1-1.2-1.3s-1.1-0.5-1.8-0.5c-0.8,0-1.4,0.2-2,0.6   c-0.6,0.4-1,0.9-1.3,1.5c-0.3,0.6-0.4,1.2-0.4,1.9v1.1c0,0.9,0.2,1.7,0.5,2.4c0.3,0.6,0.8,1.1,1.4,1.5c0.6,0.3,1.3,0.5,2,0.5   c0.5,0,1-0.1,1.4-0.2c0.4-0.1,0.8-0.4,1.1-0.6c0.3-0.3,0.5-0.6,0.7-1.1l1.8,0.5c-0.2,0.6-0.5,1.2-1,1.6c-0.5,0.5-1,0.8-1.7,1.1   C604.6,1075.5,603.8,1075.7,603,1075.7z"></path>		<path class="st4" d="M619.8,1065.8l-1.7,0.5c-0.1-0.3-0.3-0.6-0.5-0.8c-0.2-0.3-0.5-0.5-0.8-0.7c-0.4-0.2-0.8-0.3-1.4-0.3   c-0.8,0-1.4,0.2-1.9,0.5s-0.8,0.8-0.8,1.3c0,0.5,0.2,0.8,0.5,1.1c0.3,0.3,0.9,0.5,1.6,0.7l1.8,0.5c1.1,0.3,1.9,0.7,2.5,1.2   s0.8,1.3,0.8,2.1c0,0.7-0.2,1.3-0.6,1.9c-0.4,0.6-1,1-1.7,1.3c-0.7,0.3-1.6,0.5-2.5,0.5c-1.3,0-2.3-0.3-3.1-0.8   c-0.8-0.5-1.4-1.3-1.6-2.4l1.8-0.5c0.2,0.7,0.5,1.2,1,1.5c0.5,0.3,1.1,0.5,1.9,0.5c0.9,0,1.6-0.2,2.1-0.6c0.5-0.4,0.8-0.8,0.8-1.4   c0-0.4-0.2-0.8-0.5-1.1c-0.3-0.3-0.8-0.5-1.4-0.7l-2.1-0.5c-1.1-0.3-2-0.7-2.5-1.3c-0.5-0.6-0.8-1.3-0.8-2.1   c0-0.7,0.2-1.3,0.6-1.9c0.4-0.5,0.9-1,1.6-1.3s1.5-0.5,2.3-0.5c1.2,0,2.2,0.3,2.9,0.8C619,1064.2,619.5,1064.9,619.8,1065.8z"></path>		<path class="st4" d="M625.7,1073.2l-0.1,0.9c-0.1,0.6-0.2,1.3-0.4,2c-0.2,0.7-0.4,1.4-0.6,2s-0.4,1.1-0.5,1.5h-1.5   c0.1-0.3,0.2-0.8,0.3-1.4c0.1-0.6,0.2-1.2,0.3-1.9c0.1-0.7,0.2-1.4,0.3-2.1l0.1-0.9H625.7z"></path>		<path class="st4" d="M502.4,1091.3h-2c-0.1-0.6-0.3-1.1-0.6-1.5s-0.6-0.8-1.1-1.1c-0.4-0.3-0.9-0.5-1.4-0.7   c-0.5-0.2-1-0.2-1.6-0.2c-1,0-1.9,0.3-2.7,0.8c-0.8,0.5-1.5,1.2-1.9,2.2c-0.5,1-0.7,2.2-0.7,3.6s0.2,2.6,0.7,3.6   c0.5,1,1.1,1.7,1.9,2.2c0.8,0.5,1.7,0.8,2.7,0.8c0.5,0,1.1-0.1,1.6-0.2c0.5-0.2,1-0.4,1.4-0.7c0.4-0.3,0.8-0.7,1.1-1.1   s0.5-0.9,0.6-1.5h2c-0.2,0.8-0.4,1.6-0.8,2.3c-0.4,0.7-0.9,1.2-1.5,1.7c-0.6,0.5-1.3,0.8-2,1.1c-0.7,0.2-1.5,0.4-2.4,0.4   c-1.4,0-2.7-0.3-3.8-1s-2-1.7-2.6-2.9s-0.9-2.8-0.9-4.5s0.3-3.2,0.9-4.5s1.5-2.2,2.6-2.9c1.1-0.7,2.3-1,3.8-1   c0.8,0,1.6,0.1,2.4,0.4s1.4,0.6,2,1.1c0.6,0.5,1.1,1,1.5,1.7C502,1089.7,502.3,1090.5,502.4,1091.3z"></path>		<path class="st4" d="M510.4,1102.9c-1.1,0-2.1-0.3-2.9-0.8s-1.5-1.3-2-2.2s-0.7-2.1-0.7-3.4c0-1.3,0.2-2.4,0.7-3.4   c0.5-1,1.1-1.7,2-2.2s1.8-0.8,2.9-0.8c1.1,0,2.1,0.3,2.9,0.8s1.5,1.3,2,2.2c0.5,1,0.7,2.1,0.7,3.4c0,1.3-0.2,2.4-0.7,3.4   s-1.1,1.7-2,2.2S511.6,1102.9,510.4,1102.9z M510.4,1101.2c0.8,0,1.5-0.2,2.1-0.7c0.5-0.4,1-1,1.2-1.7s0.4-1.5,0.4-2.3   s-0.1-1.6-0.4-2.3s-0.7-1.3-1.2-1.7c-0.5-0.4-1.2-0.7-2.1-0.7s-1.5,0.2-2.1,0.7c-0.5,0.4-1,1-1.2,1.7s-0.4,1.5-0.4,2.3   s0.1,1.6,0.4,2.3s0.7,1.3,1.2,1.7C508.9,1101,509.6,1101.2,510.4,1101.2z"></path>		<path class="st4" d="M520.9,1095.2v7.5H519v-12.4h1.8v1.9h0.2c0.3-0.6,0.7-1.1,1.3-1.5c0.6-0.4,1.4-0.6,2.3-0.6   c0.8,0,1.6,0.2,2.2,0.5c0.6,0.3,1.1,0.9,1.5,1.5c0.3,0.7,0.5,1.6,0.5,2.6v7.9h-1.9v-7.7c0-1-0.3-1.7-0.8-2.3   c-0.5-0.5-1.2-0.8-2.1-0.8c-0.6,0-1.1,0.1-1.6,0.4c-0.5,0.3-0.9,0.6-1.1,1.2C521,1093.9,520.9,1094.5,520.9,1095.2z"></path>		<path class="st4" d="M537.8,1090.3v1.6h-6.7v-1.6H537.8z M533.1,1102.7v-14.1c0-0.7,0.2-1.3,0.5-1.8c0.3-0.5,0.8-0.8,1.3-1.1   c0.5-0.2,1.1-0.4,1.7-0.4c0.5,0,0.8,0,1.1,0.1c0.3,0.1,0.5,0.1,0.7,0.2l-0.5,1.6c-0.1,0-0.2-0.1-0.4-0.1c-0.2,0-0.4-0.1-0.7-0.1   c-0.6,0-1.1,0.2-1.4,0.5c-0.3,0.3-0.4,0.8-0.4,1.4v13.6H533.1z"></path>		<path class="st4" d="M541.4,1088.2c-0.4,0-0.7-0.1-1-0.4c-0.3-0.3-0.4-0.6-0.4-0.9c0-0.4,0.1-0.7,0.4-0.9c0.3-0.3,0.6-0.4,1-0.4   s0.7,0.1,1,0.4c0.3,0.3,0.4,0.6,0.4,0.9c0,0.4-0.1,0.7-0.4,0.9C542.1,1088.1,541.8,1088.2,541.4,1088.2z M540.4,1102.7v-12.4h1.9   v12.4H540.4z"></path>		<path class="st4" d="M545.8,1102.7v-12.4h1.8v1.9h0.1c0.2-0.6,0.6-1.1,1.2-1.5c0.6-0.4,1.3-0.6,2-0.6c0.1,0,0.3,0,0.5,0   c0.2,0,0.4,0,0.5,0v1.9c-0.1,0-0.2,0-0.4-0.1s-0.5-0.1-0.7-0.1c-0.6,0-1.1,0.1-1.6,0.4s-0.8,0.6-1.1,1c-0.3,0.4-0.4,0.9-0.4,1.5   v7.8H545.8z"></path>		<path class="st4" d="M554.3,1102.7v-12.4h1.8v1.9h0.2c0.3-0.7,0.7-1.2,1.2-1.5s1.3-0.6,2.1-0.6c0.8,0,1.5,0.2,2,0.6   c0.5,0.4,1,0.9,1.3,1.5h0.1c0.3-0.6,0.8-1.1,1.4-1.5c0.6-0.4,1.4-0.6,2.3-0.6c1.1,0,2,0.3,2.7,1c0.7,0.7,1.1,1.8,1.1,3.2v8.3h-1.9   v-8.3c0-0.9-0.2-1.6-0.8-2s-1.1-0.6-1.8-0.6c-0.9,0-1.5,0.3-2,0.8s-0.7,1.2-0.7,2v8.1h-1.9v-8.5c0-0.7-0.2-1.3-0.7-1.7   s-1-0.6-1.8-0.6c-0.5,0-1,0.1-1.4,0.4c-0.4,0.3-0.8,0.6-1,1.1c-0.3,0.5-0.4,1-0.4,1.6v7.7H554.3z"></path>		<path class="st4" d="M582.8,1093.1l-1.7,0.5c-0.1-0.3-0.3-0.6-0.5-0.8c-0.2-0.3-0.5-0.5-0.8-0.7c-0.4-0.2-0.8-0.3-1.4-0.3   c-0.8,0-1.4,0.2-1.9,0.5s-0.8,0.8-0.8,1.3c0,0.5,0.2,0.8,0.5,1.1c0.3,0.3,0.9,0.5,1.6,0.7l1.8,0.5c1.1,0.3,1.9,0.7,2.5,1.2   s0.8,1.3,0.8,2.1c0,0.7-0.2,1.3-0.6,1.9c-0.4,0.6-1,1-1.7,1.3c-0.7,0.3-1.6,0.5-2.5,0.5c-1.3,0-2.3-0.3-3.1-0.8   c-0.8-0.5-1.4-1.3-1.6-2.4l1.8-0.5c0.2,0.7,0.5,1.2,1,1.5c0.5,0.3,1.1,0.5,1.9,0.5c0.9,0,1.6-0.2,2.1-0.6c0.5-0.4,0.8-0.8,0.8-1.4   c0-0.4-0.2-0.8-0.5-1.1c-0.3-0.3-0.8-0.5-1.4-0.7l-2.1-0.5c-1.1-0.3-2-0.7-2.5-1.3c-0.5-0.6-0.8-1.3-0.8-2.1   c0-0.7,0.2-1.3,0.6-1.9c0.4-0.5,0.9-1,1.6-1.3s1.5-0.5,2.3-0.5c1.2,0,2.2,0.3,2.9,0.8C582,1091.5,582.5,1092.2,582.8,1093.1z"></path>		<path class="st4" d="M597.3,1102.9c-1.1,0-2.1-0.3-2.9-0.8s-1.5-1.3-2-2.2s-0.7-2.1-0.7-3.4c0-1.3,0.2-2.4,0.7-3.4   c0.5-1,1.1-1.7,2-2.2s1.8-0.8,2.9-0.8c1.1,0,2.1,0.3,2.9,0.8s1.5,1.3,2,2.2c0.5,1,0.7,2.1,0.7,3.4c0,1.3-0.2,2.4-0.7,3.4   s-1.1,1.7-2,2.2S598.4,1102.9,597.3,1102.9z M597.3,1101.2c0.8,0,1.5-0.2,2.1-0.7c0.5-0.4,1-1,1.2-1.7s0.4-1.5,0.4-2.3   s-0.1-1.6-0.4-2.3s-0.7-1.3-1.2-1.7c-0.5-0.4-1.2-0.7-2.1-0.7s-1.5,0.2-2.1,0.7c-0.5,0.4-1,1-1.2,1.7s-0.4,1.5-0.4,2.3   s0.1,1.6,0.4,2.3s0.7,1.3,1.2,1.7C595.8,1101,596.5,1101.2,597.3,1101.2z"></path>		<path class="st4" d="M605.8,1102.7v-12.4h1.8v1.9h0.1c0.2-0.6,0.6-1.1,1.2-1.5c0.6-0.4,1.3-0.6,2-0.6c0.1,0,0.3,0,0.5,0   c0.2,0,0.4,0,0.5,0v1.9c-0.1,0-0.2,0-0.4-0.1s-0.5-0.1-0.7-0.1c-0.6,0-1.1,0.1-1.6,0.4s-0.8,0.6-1.1,1c-0.3,0.4-0.4,0.9-0.4,1.5   v7.8H605.8z"></path>		<path class="st4" d="M619,1102.9c-1,0-1.9-0.3-2.7-0.8c-0.8-0.5-1.4-1.3-1.9-2.2c-0.4-1-0.7-2.1-0.7-3.4c0-1.3,0.2-2.4,0.7-3.4   c0.4-1,1.1-1.7,1.9-2.2c0.8-0.5,1.7-0.8,2.8-0.8c0.8,0,1.4,0.1,1.9,0.4c0.5,0.3,0.8,0.6,1.1,0.9s0.4,0.6,0.6,0.8h0.2v-6.1h1.9   v16.5h-1.8v-1.9h-0.2c-0.1,0.2-0.3,0.5-0.6,0.9c-0.3,0.3-0.6,0.6-1.1,0.9C620.4,1102.8,619.8,1102.9,619,1102.9z M619.2,1101.2   c0.8,0,1.4-0.2,1.9-0.6c0.5-0.4,0.9-1,1.2-1.7c0.3-0.7,0.4-1.5,0.4-2.5c0-0.9-0.1-1.7-0.4-2.4c-0.3-0.7-0.7-1.2-1.2-1.6   s-1.2-0.6-2-0.6c-0.8,0-1.5,0.2-2,0.6s-0.9,1-1.2,1.7c-0.3,0.7-0.4,1.5-0.4,2.4c0,0.9,0.1,1.7,0.4,2.4s0.7,1.3,1.2,1.7   S618.4,1101.2,619.2,1101.2z"></path>		<path class="st4" d="M633.6,1102.9c-1.2,0-2.2-0.3-3.1-0.8c-0.9-0.5-1.5-1.3-2-2.2c-0.5-1-0.7-2.1-0.7-3.3c0-1.3,0.2-2.4,0.7-3.4   c0.5-1,1.1-1.7,2-2.3c0.8-0.5,1.8-0.8,2.9-0.8c0.6,0,1.3,0.1,1.9,0.3c0.6,0.2,1.2,0.6,1.7,1s0.9,1.1,1.2,1.9   c0.3,0.8,0.5,1.8,0.5,2.9v0.8h-9.5v-1.6h7.6c0-0.7-0.1-1.3-0.4-1.9c-0.3-0.5-0.7-1-1.2-1.3s-1.1-0.5-1.8-0.5c-0.8,0-1.4,0.2-2,0.6   c-0.6,0.4-1,0.9-1.3,1.5c-0.3,0.6-0.4,1.2-0.4,1.9v1.1c0,0.9,0.2,1.7,0.5,2.4c0.3,0.6,0.8,1.1,1.4,1.5c0.6,0.3,1.3,0.5,2,0.5   c0.5,0,1-0.1,1.4-0.2c0.4-0.1,0.8-0.4,1.1-0.6c0.3-0.3,0.5-0.6,0.7-1.1l1.8,0.5c-0.2,0.6-0.5,1.2-1,1.6c-0.5,0.5-1,0.8-1.7,1.1   C635.2,1102.8,634.4,1102.9,633.6,1102.9z"></path>		<path class="st4" d="M641.6,1102.7v-12.4h1.8v1.9h0.1c0.2-0.6,0.6-1.1,1.2-1.5c0.6-0.4,1.3-0.6,2-0.6c0.1,0,0.3,0,0.5,0   c0.2,0,0.4,0,0.5,0v1.9c-0.1,0-0.2,0-0.4-0.1s-0.5-0.1-0.7-0.1c-0.6,0-1.1,0.1-1.6,0.4s-0.8,0.6-1.1,1c-0.3,0.4-0.4,0.9-0.4,1.5   v7.8H641.6z"></path>		<path class="st4" d="M658.8,1093.1l-1.7,0.5c-0.1-0.3-0.3-0.6-0.5-0.8c-0.2-0.3-0.5-0.5-0.8-0.7c-0.4-0.2-0.8-0.3-1.4-0.3   c-0.8,0-1.4,0.2-1.9,0.5s-0.8,0.8-0.8,1.3c0,0.5,0.2,0.8,0.5,1.1c0.3,0.3,0.9,0.5,1.6,0.7l1.8,0.5c1.1,0.3,1.9,0.7,2.5,1.2   s0.8,1.3,0.8,2.1c0,0.7-0.2,1.3-0.6,1.9c-0.4,0.6-1,1-1.7,1.3c-0.7,0.3-1.6,0.5-2.5,0.5c-1.3,0-2.3-0.3-3.1-0.8   c-0.8-0.5-1.4-1.3-1.6-2.4l1.8-0.5c0.2,0.7,0.5,1.2,1,1.5c0.5,0.3,1.1,0.5,1.9,0.5c0.9,0,1.6-0.2,2.1-0.6c0.5-0.4,0.8-0.8,0.8-1.4   c0-0.4-0.2-0.8-0.5-1.1c-0.3-0.3-0.8-0.5-1.4-0.7l-2.1-0.5c-1.1-0.3-2-0.7-2.5-1.3c-0.5-0.6-0.8-1.3-0.8-2.1   c0-0.7,0.2-1.3,0.6-1.9c0.4-0.5,0.9-1,1.6-1.3s1.5-0.5,2.3-0.5c1.2,0,2.2,0.3,2.9,0.8C658.1,1091.5,658.6,1092.2,658.8,1093.1z"></path>	</g></g><g>	<g>		<path class="st4" d="M163.1,1089v-16.5h5.6c1.3,0,2.4,0.2,3.2,0.7s1.4,1.1,1.8,1.9c0.4,0.8,0.6,1.7,0.6,2.6c0,1-0.2,1.9-0.6,2.7   c-0.4,0.8-1,1.4-1.8,1.9s-1.9,0.7-3.2,0.7h-4v-1.8h3.9c0.9,0,1.6-0.2,2.1-0.5c0.5-0.3,0.9-0.7,1.2-1.2c0.2-0.5,0.4-1.1,0.4-1.8   c0-0.7-0.1-1.3-0.4-1.8s-0.6-0.9-1.2-1.2c-0.5-0.3-1.3-0.4-2.2-0.4h-3.5v14.7H163.1z"></path>		<path class="st4" d="M180.9,1089.3c-0.8,0-1.5-0.1-2.1-0.4c-0.6-0.3-1.1-0.7-1.5-1.3c-0.4-0.6-0.6-1.3-0.6-2.1   c0-0.7,0.1-1.3,0.4-1.7c0.3-0.4,0.7-0.8,1.1-1c0.5-0.3,1-0.4,1.6-0.6c0.6-0.1,1.1-0.2,1.7-0.3c0.8-0.1,1.4-0.2,1.8-0.2   c0.5-0.1,0.8-0.1,1-0.3c0.2-0.1,0.3-0.3,0.3-0.6v-0.1c0-0.8-0.2-1.4-0.6-1.9c-0.4-0.4-1.1-0.7-2-0.7c-0.9,0-1.6,0.2-2.1,0.6   c-0.5,0.4-0.9,0.8-1.1,1.3l-1.8-0.6c0.3-0.8,0.8-1.3,1.3-1.8c0.5-0.4,1.1-0.7,1.8-0.9c0.6-0.2,1.3-0.3,1.9-0.3   c0.4,0,0.9,0,1.4,0.1c0.5,0.1,1,0.3,1.5,0.6c0.5,0.3,0.9,0.7,1.2,1.3c0.3,0.6,0.5,1.4,0.5,2.4v8.2h-1.9v-1.7h-0.1   c-0.1,0.3-0.3,0.6-0.6,0.9c-0.3,0.3-0.7,0.6-1.2,0.8C182.2,1089.2,181.6,1089.3,180.9,1089.3z M181.2,1087.6   c0.8,0,1.4-0.1,1.9-0.4s0.9-0.7,1.2-1.1s0.4-1,0.4-1.5v-1.7c-0.1,0.1-0.3,0.2-0.5,0.3c-0.3,0.1-0.6,0.1-0.9,0.2s-0.7,0.1-1,0.1   c-0.3,0-0.6,0.1-0.8,0.1c-0.5,0.1-1,0.2-1.4,0.3c-0.4,0.1-0.8,0.4-1,0.6s-0.4,0.7-0.4,1.1c0,0.7,0.2,1.2,0.7,1.5   C179.8,1087.5,180.4,1087.6,181.2,1087.6z"></path>		<path class="st4" d="M198.8,1079.4l-1.7,0.5c-0.1-0.3-0.3-0.6-0.5-0.8s-0.5-0.5-0.8-0.7c-0.4-0.2-0.8-0.3-1.4-0.3   c-0.8,0-1.4,0.2-1.9,0.5s-0.8,0.8-0.8,1.3c0,0.5,0.2,0.8,0.5,1.1c0.3,0.3,0.9,0.5,1.6,0.7l1.8,0.5c1.1,0.3,1.9,0.7,2.5,1.2   c0.5,0.6,0.8,1.3,0.8,2.1c0,0.7-0.2,1.3-0.6,1.9c-0.4,0.6-1,1-1.7,1.3c-0.7,0.3-1.6,0.5-2.5,0.5c-1.3,0-2.3-0.3-3.1-0.8   c-0.8-0.5-1.4-1.3-1.6-2.4l1.8-0.5c0.2,0.7,0.5,1.2,1,1.5c0.5,0.3,1.1,0.5,1.9,0.5c0.9,0,1.6-0.2,2.1-0.6s0.8-0.8,0.8-1.4   c0-0.4-0.2-0.8-0.5-1.1c-0.3-0.3-0.8-0.5-1.4-0.7l-2.1-0.5c-1.1-0.3-2-0.7-2.5-1.3c-0.5-0.6-0.8-1.3-0.8-2.1   c0-0.7,0.2-1.3,0.6-1.9c0.4-0.5,0.9-1,1.6-1.3s1.5-0.5,2.3-0.5c1.2,0,2.2,0.3,2.9,0.8C198,1077.8,198.5,1078.5,198.8,1079.4z"></path>		<path class="st4" d="M210.7,1079.4l-1.7,0.5c-0.1-0.3-0.3-0.6-0.5-0.8s-0.5-0.5-0.8-0.7c-0.4-0.2-0.8-0.3-1.4-0.3   c-0.8,0-1.4,0.2-1.9,0.5s-0.8,0.8-0.8,1.3c0,0.5,0.2,0.8,0.5,1.1c0.3,0.3,0.9,0.5,1.6,0.7l1.8,0.5c1.1,0.3,1.9,0.7,2.5,1.2   c0.5,0.6,0.8,1.3,0.8,2.1c0,0.7-0.2,1.3-0.6,1.9c-0.4,0.6-1,1-1.7,1.3c-0.7,0.3-1.6,0.5-2.5,0.5c-1.3,0-2.3-0.3-3.1-0.8   c-0.8-0.5-1.4-1.3-1.6-2.4l1.8-0.5c0.2,0.7,0.5,1.2,1,1.5c0.5,0.3,1.1,0.5,1.9,0.5c0.9,0,1.6-0.2,2.1-0.6s0.8-0.8,0.8-1.4   c0-0.4-0.2-0.8-0.5-1.1c-0.3-0.3-0.8-0.5-1.4-0.7l-2.1-0.5c-1.1-0.3-2-0.7-2.5-1.3c-0.5-0.6-0.8-1.3-0.8-2.1   c0-0.7,0.2-1.3,0.6-1.9c0.4-0.5,0.9-1,1.6-1.3s1.5-0.5,2.3-0.5c1.2,0,2.2,0.3,2.9,0.8C209.9,1077.8,210.4,1078.5,210.7,1079.4z"></path>		<path class="st4" d="M219,1089.3c-1.2,0-2.2-0.3-3.1-0.8c-0.9-0.5-1.5-1.3-2-2.2c-0.5-1-0.7-2.1-0.7-3.3c0-1.3,0.2-2.4,0.7-3.4   c0.5-1,1.1-1.7,2-2.3c0.8-0.5,1.8-0.8,2.9-0.8c0.6,0,1.3,0.1,1.9,0.3c0.6,0.2,1.2,0.6,1.7,1s0.9,1.1,1.2,1.9   c0.3,0.8,0.5,1.8,0.5,2.9v0.8h-9.5v-1.6h7.6c0-0.7-0.1-1.3-0.4-1.9c-0.3-0.5-0.7-1-1.2-1.3c-0.5-0.3-1.1-0.5-1.8-0.5   c-0.8,0-1.4,0.2-2,0.6c-0.6,0.4-1,0.9-1.3,1.5c-0.3,0.6-0.4,1.2-0.4,1.9v1.1c0,0.9,0.2,1.7,0.5,2.4c0.3,0.6,0.8,1.1,1.4,1.5   c0.6,0.3,1.3,0.5,2,0.5c0.5,0,1-0.1,1.4-0.2c0.4-0.1,0.8-0.4,1.1-0.6c0.3-0.3,0.5-0.6,0.7-1.1l1.8,0.5c-0.2,0.6-0.5,1.2-1,1.6   c-0.5,0.5-1,0.8-1.7,1.1C220.6,1089.2,219.8,1089.3,219,1089.3z"></path>		<path class="st4" d="M235.8,1079.4l-1.7,0.5c-0.1-0.3-0.3-0.6-0.5-0.8c-0.2-0.3-0.5-0.5-0.8-0.7c-0.4-0.2-0.8-0.3-1.4-0.3   c-0.8,0-1.4,0.2-1.9,0.5c-0.5,0.3-0.8,0.8-0.8,1.3c0,0.5,0.2,0.8,0.5,1.1s0.9,0.5,1.6,0.7l1.8,0.5c1.1,0.3,1.9,0.7,2.5,1.2   s0.8,1.3,0.8,2.1c0,0.7-0.2,1.3-0.6,1.9c-0.4,0.6-1,1-1.7,1.3c-0.7,0.3-1.6,0.5-2.5,0.5c-1.3,0-2.3-0.3-3.1-0.8   c-0.8-0.5-1.4-1.3-1.6-2.4l1.8-0.5c0.2,0.7,0.5,1.2,1,1.5c0.5,0.3,1.1,0.5,1.9,0.5c0.9,0,1.6-0.2,2.1-0.6s0.8-0.8,0.8-1.4   c0-0.4-0.2-0.8-0.5-1.1c-0.3-0.3-0.8-0.5-1.4-0.7l-2.1-0.5c-1.1-0.3-2-0.7-2.5-1.3s-0.8-1.3-0.8-2.1c0-0.7,0.2-1.3,0.6-1.9   c0.4-0.5,0.9-1,1.6-1.3s1.5-0.5,2.3-0.5c1.2,0,2.2,0.3,2.9,0.8C235,1077.8,235.5,1078.5,235.8,1079.4z"></path>		<path class="st4" d="M250.3,1089.3c-1.1,0-2.1-0.3-2.9-0.8s-1.5-1.3-2-2.2s-0.7-2.1-0.7-3.4c0-1.3,0.2-2.4,0.7-3.4   c0.5-1,1.1-1.7,2-2.2s1.8-0.8,2.9-0.8c1.1,0,2.1,0.3,2.9,0.8s1.5,1.3,2,2.2c0.5,1,0.7,2.1,0.7,3.4c0,1.3-0.2,2.4-0.7,3.4   s-1.1,1.7-2,2.2S251.4,1089.3,250.3,1089.3z M250.3,1087.6c0.8,0,1.5-0.2,2.1-0.7c0.5-0.4,1-1,1.2-1.7s0.4-1.5,0.4-2.3   s-0.1-1.6-0.4-2.3s-0.7-1.3-1.2-1.7c-0.5-0.4-1.2-0.7-2.1-0.7s-1.5,0.2-2.1,0.7c-0.5,0.4-1,1-1.2,1.7s-0.4,1.5-0.4,2.3   s0.1,1.6,0.4,2.3s0.7,1.3,1.2,1.7C248.8,1087.4,249.5,1087.6,250.3,1087.6z"></path>		<path class="st4" d="M258.8,1089v-12.4h1.8v1.9h0.1c0.2-0.6,0.6-1.1,1.2-1.5c0.6-0.4,1.3-0.6,2-0.6c0.1,0,0.3,0,0.5,0   c0.2,0,0.4,0,0.5,0v1.9c-0.1,0-0.2,0-0.4-0.1s-0.5-0.1-0.7-0.1c-0.6,0-1.1,0.1-1.6,0.4s-0.8,0.6-1.1,1c-0.3,0.4-0.4,0.9-0.4,1.5   v7.8H258.8z"></path>		<path class="st4" d="M271.9,1089.3c-1,0-1.9-0.3-2.7-0.8c-0.8-0.5-1.4-1.3-1.9-2.2c-0.4-1-0.7-2.1-0.7-3.4c0-1.3,0.2-2.4,0.7-3.4   c0.4-1,1.1-1.7,1.9-2.2c0.8-0.5,1.7-0.8,2.8-0.8c0.8,0,1.4,0.1,1.9,0.4c0.5,0.3,0.8,0.6,1.1,0.9s0.4,0.6,0.6,0.8h0.2v-6.1h1.9   v16.5h-1.8v-1.9h-0.2c-0.1,0.2-0.3,0.5-0.6,0.9c-0.3,0.3-0.6,0.6-1.1,0.9C273.4,1089.2,272.7,1089.3,271.9,1089.3z M272.2,1087.6   c0.8,0,1.4-0.2,1.9-0.6c0.5-0.4,0.9-1,1.2-1.7c0.3-0.7,0.4-1.5,0.4-2.5c0-0.9-0.1-1.7-0.4-2.4c-0.3-0.7-0.7-1.2-1.2-1.6   s-1.2-0.6-2-0.6c-0.8,0-1.5,0.2-2,0.6s-0.9,1-1.2,1.7c-0.3,0.7-0.4,1.5-0.4,2.4c0,0.9,0.1,1.7,0.4,2.4s0.7,1.3,1.2,1.7   S271.4,1087.6,272.2,1087.6z"></path>		<path class="st4" d="M286.6,1089.3c-1.2,0-2.2-0.3-3.1-0.8c-0.9-0.5-1.5-1.3-2-2.2c-0.5-1-0.7-2.1-0.7-3.3c0-1.3,0.2-2.4,0.7-3.4   c0.5-1,1.1-1.7,2-2.3c0.8-0.5,1.8-0.8,2.9-0.8c0.6,0,1.3,0.1,1.9,0.3c0.6,0.2,1.2,0.6,1.7,1s0.9,1.1,1.2,1.9   c0.3,0.8,0.5,1.8,0.5,2.9v0.8h-9.5v-1.6h7.6c0-0.7-0.1-1.3-0.4-1.9c-0.3-0.5-0.7-1-1.2-1.3s-1.1-0.5-1.8-0.5c-0.8,0-1.4,0.2-2,0.6   c-0.6,0.4-1,0.9-1.3,1.5c-0.3,0.6-0.4,1.2-0.4,1.9v1.1c0,0.9,0.2,1.7,0.5,2.4c0.3,0.6,0.8,1.1,1.4,1.5c0.6,0.3,1.3,0.5,2,0.5   c0.5,0,1-0.1,1.4-0.2c0.4-0.1,0.8-0.4,1.1-0.6c0.3-0.3,0.5-0.6,0.7-1.1l1.8,0.5c-0.2,0.6-0.5,1.2-1,1.6c-0.5,0.5-1,0.8-1.7,1.1   C288.2,1089.2,287.4,1089.3,286.6,1089.3z"></path>		<path class="st4" d="M294.6,1089v-12.4h1.8v1.9h0.1c0.2-0.6,0.6-1.1,1.2-1.5c0.6-0.4,1.3-0.6,2-0.6c0.1,0,0.3,0,0.5,0   c0.2,0,0.4,0,0.5,0v1.9c-0.1,0-0.2,0-0.4-0.1s-0.5-0.1-0.7-0.1c-0.6,0-1.1,0.1-1.6,0.4s-0.8,0.6-1.1,1c-0.3,0.4-0.4,0.9-0.4,1.5   v7.8H294.6z"></path>		<path class="st4" d="M311.8,1079.4l-1.7,0.5c-0.1-0.3-0.3-0.6-0.5-0.8c-0.2-0.3-0.5-0.5-0.8-0.7c-0.4-0.2-0.8-0.3-1.4-0.3   c-0.8,0-1.4,0.2-1.9,0.5s-0.8,0.8-0.8,1.3c0,0.5,0.2,0.8,0.5,1.1c0.3,0.3,0.9,0.5,1.6,0.7l1.8,0.5c1.1,0.3,1.9,0.7,2.5,1.2   s0.8,1.3,0.8,2.1c0,0.7-0.2,1.3-0.6,1.9c-0.4,0.6-1,1-1.7,1.3c-0.7,0.3-1.6,0.5-2.5,0.5c-1.3,0-2.3-0.3-3.1-0.8   c-0.8-0.5-1.4-1.3-1.6-2.4l1.8-0.5c0.2,0.7,0.5,1.2,1,1.5c0.5,0.3,1.1,0.5,1.9,0.5c0.9,0,1.6-0.2,2.1-0.6c0.5-0.4,0.8-0.8,0.8-1.4   c0-0.4-0.2-0.8-0.5-1.1c-0.3-0.3-0.8-0.5-1.4-0.7l-2.1-0.5c-1.1-0.3-2-0.7-2.5-1.3c-0.5-0.6-0.8-1.3-0.8-2.1   c0-0.7,0.2-1.3,0.6-1.9c0.4-0.5,0.9-1,1.6-1.3s1.5-0.5,2.3-0.5c1.2,0,2.2,0.3,2.9,0.8C311,1077.8,311.5,1078.5,311.8,1079.4z"></path>	</g></g><g>	<g>		<path class="st4" d="M531.3,258.1v-2c0.6-0.1,1.1-0.3,1.5-0.6s0.8-0.6,1.1-1.1c0.3-0.4,0.5-0.9,0.7-1.4c0.2-0.5,0.2-1,0.2-1.6   c0-1-0.3-1.9-0.8-2.7c-0.5-0.8-1.2-1.5-2.2-1.9c-1-0.5-2.2-0.7-3.6-0.7s-2.6,0.2-3.6,0.7c-1,0.5-1.7,1.1-2.2,1.9   c-0.5,0.8-0.8,1.7-0.8,2.7c0,0.5,0.1,1.1,0.2,1.6c0.2,0.5,0.4,1,0.7,1.4c0.3,0.4,0.7,0.8,1.1,1.1s0.9,0.5,1.5,0.6v2   c-0.8-0.2-1.6-0.4-2.3-0.8c-0.7-0.4-1.2-0.9-1.7-1.5c-0.5-0.6-0.8-1.3-1.1-2c-0.2-0.7-0.4-1.5-0.4-2.4c0-1.4,0.3-2.7,1-3.8   s1.7-2,2.9-2.6s2.8-0.9,4.5-0.9s3.2,0.3,4.5,0.9s2.2,1.5,2.9,2.6c0.7,1.1,1,2.3,1,3.8c0,0.8-0.1,1.6-0.4,2.4s-0.6,1.4-1.1,2   c-0.5,0.6-1,1.1-1.7,1.5C533,257.7,532.2,258,531.3,258.1z"></path>		<path class="st4" d="M520,261.1h12.4v1.8h-1.9v0.1c0.6,0.2,1.1,0.6,1.5,1.2c0.4,0.6,0.6,1.3,0.6,2c0,0.1,0,0.3,0,0.5   c0,0.2,0,0.4,0,0.5h-1.9c0-0.1,0-0.2,0.1-0.4s0.1-0.5,0.1-0.7c0-0.6-0.1-1.1-0.4-1.6s-0.6-0.8-1-1.1c-0.4-0.3-0.9-0.4-1.5-0.4H520   V261.1z"></path>		<path class="st4" d="M519.7,274.7c0-1.2,0.3-2.2,0.8-3.1c0.5-0.9,1.3-1.5,2.2-2c1-0.5,2.1-0.7,3.3-0.7c1.3,0,2.4,0.2,3.4,0.7   c1,0.5,1.7,1.1,2.3,2c0.5,0.8,0.8,1.8,0.8,2.9c0,0.6-0.1,1.3-0.3,1.9c-0.2,0.6-0.6,1.2-1,1.7s-1.1,0.9-1.9,1.2   c-0.8,0.3-1.8,0.5-2.9,0.5h-0.8v-9.5h1.6v7.6c0.7,0,1.3-0.1,1.9-0.4c0.5-0.3,1-0.7,1.3-1.2s0.5-1.1,0.5-1.8c0-0.8-0.2-1.4-0.6-2   c-0.4-0.6-0.9-1-1.5-1.3c-0.6-0.3-1.2-0.4-1.9-0.4h-1.1c-0.9,0-1.7,0.2-2.4,0.5c-0.6,0.3-1.1,0.8-1.5,1.4c-0.3,0.6-0.5,1.3-0.5,2   c0,0.5,0.1,1,0.2,1.4c0.1,0.4,0.4,0.8,0.6,1.1c0.3,0.3,0.6,0.5,1.1,0.7l-0.5,1.8c-0.6-0.2-1.2-0.5-1.6-1c-0.5-0.5-0.8-1-1.1-1.7   C519.9,276.3,519.7,275.6,519.7,274.7z"></path>		<path class="st4" d="M519.7,286.4c0-0.8,0.1-1.5,0.4-2.1c0.3-0.6,0.7-1.1,1.3-1.5c0.6-0.4,1.3-0.6,2.1-0.6c0.7,0,1.3,0.1,1.7,0.4   c0.4,0.3,0.8,0.7,1,1.1s0.4,1,0.6,1.6c0.1,0.6,0.2,1.1,0.3,1.7c0.1,0.8,0.2,1.4,0.2,1.8c0.1,0.5,0.1,0.8,0.3,1   c0.1,0.2,0.3,0.3,0.6,0.3h0.1c0.8,0,1.4-0.2,1.9-0.6c0.4-0.4,0.7-1.1,0.7-2c0-0.9-0.2-1.6-0.6-2.1c-0.4-0.5-0.8-0.9-1.3-1.1   l0.6-1.8c0.8,0.3,1.3,0.8,1.8,1.3c0.4,0.5,0.7,1.1,0.9,1.8c0.2,0.6,0.3,1.3,0.3,1.9c0,0.4,0,0.9-0.1,1.4c-0.1,0.5-0.3,1-0.6,1.5   c-0.3,0.5-0.7,0.9-1.3,1.2c-0.6,0.3-1.4,0.5-2.4,0.5H520v-1.9h1.7v-0.1c-0.3-0.1-0.6-0.3-0.9-0.6c-0.3-0.3-0.6-0.7-0.8-1.2   S519.7,287.1,519.7,286.4z M521.4,286.7c0,0.8,0.1,1.4,0.4,1.9c0.3,0.5,0.7,0.9,1.1,1.2c0.5,0.3,1,0.4,1.5,0.4h1.7   c-0.1-0.1-0.2-0.3-0.3-0.5c-0.1-0.3-0.1-0.6-0.2-0.9s-0.1-0.7-0.1-1c0-0.3-0.1-0.6-0.1-0.8c-0.1-0.5-0.2-1-0.3-1.4s-0.4-0.8-0.6-1   s-0.7-0.4-1.1-0.4c-0.7,0-1.2,0.2-1.5,0.7S521.4,286,521.4,286.7z"></path>		<path class="st4" d="M535.3,296.4v1.9h-11.8c-0.5,0-0.9,0.1-1.2,0.2c-0.3,0.2-0.4,0.4-0.5,0.6s-0.1,0.5-0.1,0.8c0,0.2,0,0.4,0,0.5   c0,0.1,0,0.2,0.1,0.3l-1.7,0.4c0-0.1-0.1-0.3-0.1-0.5c-0.1-0.2-0.1-0.5-0.1-0.9c0-0.5,0.1-1.1,0.3-1.6s0.6-0.9,1.1-1.3   c0.5-0.3,1.1-0.5,1.8-0.5H535.3z M532.4,301h-1.6v-6.4h1.6V301z"></path>		<path class="st4" d="M519.7,309c0-1.2,0.3-2.2,0.8-3.1c0.5-0.9,1.3-1.5,2.2-2c1-0.5,2.1-0.7,3.3-0.7c1.3,0,2.4,0.2,3.4,0.7   c1,0.5,1.7,1.1,2.3,2c0.5,0.8,0.8,1.8,0.8,2.9c0,0.6-0.1,1.3-0.3,1.9c-0.2,0.6-0.6,1.2-1,1.7s-1.1,0.9-1.9,1.2   c-0.8,0.3-1.8,0.5-2.9,0.5h-0.8v-9.5h1.6v7.6c0.7,0,1.3-0.1,1.9-0.4c0.5-0.3,1-0.7,1.3-1.2s0.5-1.1,0.5-1.8c0-0.8-0.2-1.4-0.6-2   c-0.4-0.6-0.9-1-1.5-1.3c-0.6-0.3-1.2-0.4-1.9-0.4h-1.1c-0.9,0-1.7,0.2-2.4,0.5c-0.6,0.3-1.1,0.8-1.5,1.4c-0.3,0.6-0.5,1.3-0.5,2   c0,0.5,0.1,1,0.2,1.4c0.1,0.4,0.4,0.8,0.6,1.1c0.3,0.3,0.6,0.5,1.1,0.7l-0.5,1.8c-0.6-0.2-1.2-0.5-1.6-1c-0.5-0.5-0.8-1-1.1-1.7   C519.9,310.6,519.7,309.9,519.7,309z"></path>		<path class="st4" d="M529.6,325.9l-0.5-1.7c0.3-0.1,0.6-0.3,0.8-0.5c0.3-0.2,0.5-0.5,0.7-0.8c0.2-0.4,0.3-0.8,0.3-1.4   c0-0.8-0.2-1.4-0.5-1.9s-0.8-0.8-1.3-0.8c-0.5,0-0.8,0.2-1.1,0.5c-0.3,0.3-0.5,0.9-0.7,1.6l-0.5,1.8c-0.3,1.1-0.7,1.9-1.2,2.5   s-1.3,0.8-2.1,0.8c-0.7,0-1.3-0.2-1.9-0.6c-0.6-0.4-1-1-1.3-1.7c-0.3-0.7-0.5-1.6-0.5-2.5c0-1.3,0.3-2.3,0.8-3.1   c0.5-0.8,1.3-1.4,2.4-1.6l0.5,1.8c-0.7,0.2-1.2,0.5-1.5,1c-0.3,0.5-0.5,1.1-0.5,1.9c0,0.9,0.2,1.6,0.6,2.1   c0.4,0.5,0.8,0.8,1.4,0.8c0.4,0,0.8-0.2,1.1-0.5c0.3-0.3,0.5-0.8,0.7-1.4l0.5-2.1c0.3-1.1,0.7-2,1.3-2.5c0.6-0.5,1.3-0.8,2.1-0.8   c0.7,0,1.3,0.2,1.9,0.6c0.5,0.4,1,0.9,1.3,1.6s0.5,1.5,0.5,2.3c0,1.2-0.3,2.2-0.8,2.9C531.2,325.1,530.5,325.6,529.6,325.9z"></path>		<path class="st4" d="M519.7,339c0-0.8,0.1-1.5,0.4-2.1c0.3-0.6,0.7-1.1,1.3-1.5c0.6-0.4,1.3-0.6,2.1-0.6c0.7,0,1.3,0.1,1.7,0.4   c0.4,0.3,0.8,0.7,1,1.1s0.4,1,0.6,1.6c0.1,0.6,0.2,1.1,0.3,1.7c0.1,0.8,0.2,1.4,0.2,1.8c0.1,0.5,0.1,0.8,0.3,1   c0.1,0.2,0.3,0.3,0.6,0.3h0.1c0.8,0,1.4-0.2,1.9-0.6c0.4-0.4,0.7-1.1,0.7-2c0-0.9-0.2-1.6-0.6-2.1c-0.4-0.5-0.8-0.9-1.3-1.1   l0.6-1.8c0.8,0.3,1.3,0.8,1.8,1.3c0.4,0.5,0.7,1.1,0.9,1.8c0.2,0.6,0.3,1.3,0.3,1.9c0,0.4,0,0.9-0.1,1.4c-0.1,0.5-0.3,1-0.6,1.5   c-0.3,0.5-0.7,0.9-1.3,1.2c-0.6,0.3-1.4,0.5-2.4,0.5H520v-1.9h1.7v-0.1c-0.3-0.1-0.6-0.3-0.9-0.6c-0.3-0.3-0.6-0.7-0.8-1.2   S519.7,339.7,519.7,339z M521.4,339.3c0,0.8,0.1,1.4,0.4,1.9c0.3,0.5,0.7,0.9,1.1,1.2c0.5,0.3,1,0.4,1.5,0.4h1.7   c-0.1-0.1-0.2-0.3-0.3-0.5c-0.1-0.3-0.1-0.6-0.2-0.9s-0.1-0.7-0.1-1c0-0.3-0.1-0.6-0.1-0.8c-0.1-0.5-0.2-1-0.3-1.4s-0.4-0.8-0.6-1   s-0.7-0.4-1.1-0.4c-0.7,0-1.2,0.2-1.5,0.7S521.4,338.5,521.4,339.3z"></path>		<path class="st4" d="M519.7,353.2c0-1.2,0.3-2.2,0.8-3c0.5-0.8,1.3-1.5,2.3-1.9c1-0.5,2.1-0.7,3.3-0.7c1.3,0,2.4,0.2,3.3,0.7   c1,0.5,1.7,1.1,2.3,2c0.5,0.8,0.8,1.8,0.8,2.9c0,0.9-0.2,1.7-0.5,2.4c-0.3,0.7-0.8,1.3-1.4,1.7c-0.6,0.4-1.3,0.7-2,0.8v-1.9   c0.6-0.1,1.1-0.5,1.5-1c0.4-0.5,0.7-1.2,0.7-2c0-0.7-0.2-1.4-0.6-1.9c-0.4-0.6-0.9-1-1.6-1.3c-0.7-0.3-1.5-0.5-2.4-0.5   c-1,0-1.8,0.2-2.5,0.5c-0.7,0.3-1.3,0.7-1.7,1.3c-0.4,0.6-0.6,1.2-0.6,2c0,0.5,0.1,0.9,0.3,1.3s0.4,0.7,0.7,1   c0.3,0.3,0.7,0.5,1.2,0.6v1.9c-0.7-0.1-1.4-0.4-2-0.8c-0.6-0.4-1-1-1.4-1.7C519.9,354.9,519.7,354.1,519.7,353.2z"></path>		<path class="st4" d="M519.7,365.9c0-1.2,0.3-2.2,0.8-3c0.5-0.8,1.3-1.5,2.3-1.9c1-0.5,2.1-0.7,3.3-0.7c1.3,0,2.4,0.2,3.3,0.7   c1,0.5,1.7,1.1,2.3,2c0.5,0.8,0.8,1.8,0.8,2.9c0,0.9-0.2,1.7-0.5,2.4c-0.3,0.7-0.8,1.3-1.4,1.7c-0.6,0.4-1.3,0.7-2,0.8v-1.9   c0.6-0.1,1.1-0.5,1.5-1c0.4-0.5,0.7-1.2,0.7-2c0-0.7-0.2-1.4-0.6-1.9c-0.4-0.6-0.9-1-1.6-1.3c-0.7-0.3-1.5-0.5-2.4-0.5   c-1,0-1.8,0.2-2.5,0.5c-0.7,0.3-1.3,0.7-1.7,1.3c-0.4,0.6-0.6,1.2-0.6,2c0,0.5,0.1,0.9,0.3,1.3s0.4,0.7,0.7,1   c0.3,0.3,0.7,0.5,1.2,0.6v1.9c-0.7-0.1-1.4-0.4-2-0.8c-0.6-0.4-1-1-1.4-1.7C519.9,367.6,519.7,366.8,519.7,365.9z"></path>		<path class="st4" d="M519.7,378.5c0-1.1,0.3-2.1,0.8-2.9s1.3-1.5,2.2-2s2.1-0.7,3.4-0.7c1.3,0,2.4,0.2,3.4,0.7   c1,0.5,1.7,1.1,2.2,2s0.8,1.8,0.8,2.9c0,1.1-0.3,2.1-0.8,2.9s-1.3,1.5-2.2,2c-1,0.5-2.1,0.7-3.4,0.7c-1.3,0-2.4-0.2-3.4-0.7   s-1.7-1.1-2.2-2S519.7,379.7,519.7,378.5z M521.4,378.5c0,0.8,0.2,1.5,0.7,2.1c0.4,0.5,1,1,1.7,1.2s1.5,0.4,2.3,0.4   s1.6-0.1,2.3-0.4s1.3-0.7,1.7-1.2c0.4-0.5,0.7-1.2,0.7-2.1s-0.2-1.5-0.7-2.1c-0.4-0.5-1-1-1.7-1.2s-1.5-0.4-2.3-0.4   s-1.6,0.1-2.3,0.4s-1.3,0.7-1.7,1.2C521.7,377,521.4,377.7,521.4,378.5z"></path>		<path class="st4" d="M525.1,394.9h7.3v1.9H520v-1.9h2.1v-0.1c-0.6-0.3-1.2-0.7-1.6-1.4s-0.7-1.4-0.7-2.3c0-0.8,0.2-1.5,0.5-2.1   c0.3-0.6,0.9-1.1,1.5-1.4c0.7-0.3,1.6-0.5,2.6-0.5h7.9v1.9h-7.7c-0.9,0-1.6,0.3-2.2,0.8c-0.5,0.5-0.8,1.2-0.8,1.9   c0,0.5,0.1,1,0.4,1.4c0.2,0.5,0.6,0.9,1.1,1.2S524.3,394.9,525.1,394.9z"></path>		<path class="st4" d="M527.4,402.1H520v-1.9h12.4v1.8h-1.9v0.2c0.6,0.3,1.1,0.7,1.5,1.3c0.4,0.6,0.6,1.4,0.6,2.3   c0,0.8-0.2,1.6-0.5,2.2c-0.3,0.6-0.9,1.1-1.5,1.5c-0.7,0.3-1.6,0.5-2.6,0.5H520v-1.9h7.7c1,0,1.7-0.3,2.3-0.8   c0.5-0.5,0.8-1.2,0.8-2.1c0-0.6-0.1-1.1-0.4-1.6c-0.3-0.5-0.6-0.9-1.2-1.1C528.8,402.3,528.2,402.1,527.4,402.1z"></path>		<path class="st4" d="M535.3,414.4v1.9h-11.8c-0.5,0-0.9,0.1-1.2,0.2c-0.3,0.2-0.4,0.4-0.5,0.6s-0.1,0.5-0.1,0.8c0,0.2,0,0.4,0,0.5   c0,0.1,0,0.2,0.1,0.3l-1.7,0.4c0-0.1-0.1-0.3-0.1-0.5c-0.1-0.2-0.1-0.5-0.1-0.9c0-0.5,0.1-1.1,0.3-1.6s0.6-0.9,1.1-1.3   c0.5-0.3,1.1-0.5,1.8-0.5H535.3z M532.4,418.9h-1.6v-6.4h1.6V418.9z"></path>		<path class="st4" d="M522.2,424.6l-0.9-0.1c-0.6-0.1-1.3-0.2-2-0.4c-0.7-0.2-1.4-0.4-2-0.6s-1.1-0.4-1.5-0.5v-1.5   c0.3,0.1,0.8,0.2,1.4,0.3c0.6,0.1,1.2,0.2,1.9,0.3c0.7,0.1,1.4,0.2,2.1,0.3l0.9,0.1V424.6z"></path>		<path class="st4" d="M492.7,249.9v-5.1h16.5v5.3c0,1.6-0.3,3-1,4.1c-0.7,1.1-1.6,2-2.8,2.6c-1.2,0.6-2.7,0.9-4.4,0.9   c-1.7,0-3.2-0.3-4.4-0.9c-1.2-0.6-2.2-1.5-2.9-2.7S492.7,251.6,492.7,249.9z M494.5,246.8v3c0,1.4,0.3,2.5,0.8,3.4   c0.5,0.9,1.3,1.6,2.3,2c1,0.4,2.1,0.7,3.5,0.7c1.3,0,2.5-0.2,3.4-0.7c1-0.4,1.7-1.1,2.2-2c0.5-0.9,0.8-1.9,0.8-3.2v-3.2H494.5z"></path>		<path class="st4" d="M492.5,266.1c0-1.2,0.3-2.2,0.8-3.1c0.5-0.9,1.3-1.5,2.2-2c1-0.5,2.1-0.7,3.3-0.7c1.3,0,2.4,0.2,3.4,0.7   c1,0.5,1.7,1.1,2.3,2c0.5,0.8,0.8,1.8,0.8,2.9c0,0.6-0.1,1.3-0.3,1.9c-0.2,0.6-0.6,1.2-1,1.7s-1.1,0.9-1.9,1.2   c-0.8,0.3-1.8,0.5-2.9,0.5h-0.8v-9.5h1.6v7.6c0.7,0,1.3-0.1,1.9-0.4c0.5-0.3,1-0.7,1.3-1.2s0.5-1.1,0.5-1.8c0-0.8-0.2-1.4-0.6-2   c-0.4-0.6-0.9-1-1.5-1.3c-0.6-0.3-1.2-0.4-1.9-0.4h-1.1c-0.9,0-1.7,0.2-2.4,0.5c-0.6,0.3-1.1,0.8-1.5,1.4c-0.3,0.6-0.5,1.3-0.5,2   c0,0.5,0.1,1,0.2,1.4c0.1,0.4,0.4,0.8,0.6,1.1c0.3,0.3,0.6,0.5,1.1,0.7l-0.5,1.8c-0.6-0.2-1.2-0.5-1.6-1c-0.5-0.5-0.8-1-1.1-1.7   C492.6,267.7,492.5,266.9,492.5,266.1z"></path>		<path class="st4" d="M488.1,274.1h17v1.8h-2v0.2c0.2,0.1,0.5,0.3,0.8,0.6s0.6,0.6,0.9,1.1c0.3,0.5,0.4,1.1,0.4,1.9   c0,1-0.3,2-0.8,2.8s-1.3,1.4-2.2,1.9c-1,0.4-2.1,0.7-3.4,0.7c-1.3,0-2.4-0.2-3.4-0.7c-1-0.4-1.7-1.1-2.2-1.9s-0.8-1.7-0.8-2.7   c0-0.8,0.1-1.4,0.4-1.9c0.3-0.5,0.6-0.8,0.9-1.1c0.3-0.3,0.6-0.5,0.9-0.6V276h-6.5V274.1z M498.9,276c-0.9,0-1.8,0.1-2.5,0.4   c-0.7,0.3-1.3,0.7-1.7,1.2c-0.4,0.5-0.6,1.2-0.6,1.9c0,0.8,0.2,1.5,0.6,2s1,0.9,1.7,1.2s1.5,0.4,2.4,0.4c0.9,0,1.7-0.1,2.4-0.4   c0.7-0.3,1.3-0.7,1.7-1.2c0.4-0.5,0.6-1.2,0.6-2c0-0.8-0.2-1.4-0.6-2c-0.4-0.5-0.9-0.9-1.6-1.2S499.9,276,498.9,276z"></path>		<path class="st4" d="M492.5,293c0-1.1,0.3-2.1,0.8-2.9s1.3-1.5,2.2-2s2.1-0.7,3.4-0.7c1.3,0,2.4,0.2,3.4,0.7c1,0.5,1.7,1.1,2.2,2   s0.8,1.8,0.8,2.9c0,1.1-0.3,2.1-0.8,2.9s-1.3,1.5-2.2,2c-1,0.5-2.1,0.7-3.4,0.7c-1.3,0-2.4-0.2-3.4-0.7s-1.7-1.1-2.2-2   S492.5,294.1,492.5,293z M494.2,293c0,0.8,0.2,1.5,0.7,2.1c0.4,0.5,1,1,1.7,1.2s1.5,0.4,2.3,0.4s1.6-0.1,2.3-0.4s1.3-0.7,1.7-1.2   c0.4-0.5,0.7-1.2,0.7-2.1s-0.2-1.5-0.7-2.1c-0.4-0.5-1-1-1.7-1.2s-1.5-0.4-2.3-0.4s-1.6,0.1-2.3,0.4s-1.3,0.7-1.7,1.2   C494.4,291.5,494.2,292.2,494.2,293z"></path>		<path class="st4" d="M502.4,310.3l-0.5-1.7c0.3-0.1,0.6-0.3,0.8-0.5c0.3-0.2,0.5-0.5,0.7-0.8c0.2-0.4,0.3-0.8,0.3-1.4   c0-0.8-0.2-1.4-0.5-1.9s-0.8-0.8-1.3-0.8c-0.5,0-0.8,0.2-1.1,0.5c-0.3,0.3-0.5,0.9-0.7,1.6l-0.5,1.8c-0.3,1.1-0.7,1.9-1.2,2.5   s-1.3,0.8-2.1,0.8c-0.7,0-1.3-0.2-1.9-0.6c-0.6-0.4-1-1-1.3-1.7c-0.3-0.7-0.5-1.6-0.5-2.5c0-1.3,0.3-2.3,0.8-3.1   c0.5-0.8,1.3-1.4,2.4-1.6l0.5,1.8c-0.7,0.2-1.2,0.5-1.5,1c-0.3,0.5-0.5,1.1-0.5,1.9c0,0.9,0.2,1.6,0.6,2.1   c0.4,0.5,0.8,0.8,1.4,0.8c0.4,0,0.8-0.2,1.1-0.5c0.3-0.3,0.5-0.8,0.7-1.4l0.5-2.1c0.3-1.1,0.7-2,1.3-2.5c0.6-0.5,1.3-0.8,2.1-0.8   c0.7,0,1.3,0.2,1.9,0.6c0.5,0.4,1,0.9,1.3,1.6s0.5,1.5,0.5,2.3c0,1.2-0.3,2.2-0.8,2.9C503.9,309.5,503.2,310,502.4,310.3z"></path>		<path class="st4" d="M492.7,313.4h12.4v1.9h-12.4V313.4z M507.2,314.4c0-0.4,0.1-0.7,0.4-1c0.3-0.3,0.6-0.4,0.9-0.4   c0.4,0,0.7,0.1,0.9,0.4c0.3,0.3,0.4,0.6,0.4,1s-0.1,0.7-0.4,1c-0.3,0.3-0.6,0.4-0.9,0.4c-0.4,0-0.7-0.1-0.9-0.4   C507.3,315.1,507.2,314.7,507.2,314.4z"></path>		<path class="st4" d="M508.1,319.6v1.9h-11.8c-0.5,0-0.9,0.1-1.2,0.2c-0.3,0.2-0.4,0.4-0.5,0.6s-0.1,0.5-0.1,0.8c0,0.2,0,0.4,0,0.5   c0,0.1,0,0.2,0.1,0.3l-1.7,0.4c0-0.1-0.1-0.3-0.1-0.5c-0.1-0.2-0.1-0.5-0.1-0.9c0-0.5,0.1-1.1,0.3-1.6s0.6-0.9,1.1-1.3   c0.5-0.3,1.1-0.5,1.8-0.5H508.1z M505.1,324.2h-1.6v-6.4h1.6V324.2z"></path>		<path class="st4" d="M500.7,334.1h-1.8v-7.2h1.8V334.1z"></path>		<path class="st4" d="M492.7,340.8l16.5-4.5v2l-13.5,3.5v0.2l13.5,3.5v2.3l-13.5,3.5v0.2l13.5,3.5v2l-16.5-4.5v-2.1l13.2-3.6v-0.1   l-13.2-3.6V340.8z"></path>		<path class="st4" d="M492.7,359h12.4v1.9h-12.4V359z M507.2,360c0-0.4,0.1-0.7,0.4-1c0.3-0.3,0.6-0.4,0.9-0.4   c0.4,0,0.7,0.1,0.9,0.4c0.3,0.3,0.4,0.6,0.4,1s-0.1,0.7-0.4,1c-0.3,0.3-0.6,0.4-0.9,0.4c-0.4,0-0.7-0.1-0.9-0.4   C507.3,360.7,507.2,360.4,507.2,360z"></path>		<path class="st4" d="M508.1,365.3v1.9h-11.8c-0.5,0-0.9,0.1-1.2,0.2c-0.3,0.2-0.4,0.4-0.5,0.6s-0.1,0.5-0.1,0.8c0,0.2,0,0.4,0,0.5   c0,0.1,0,0.2,0.1,0.3l-1.7,0.4c0-0.1-0.1-0.3-0.1-0.5c-0.1-0.2-0.1-0.5-0.1-0.9c0-0.5,0.1-1.1,0.3-1.6s0.6-0.9,1.1-1.3   c0.5-0.3,1.1-0.5,1.8-0.5H508.1z M505.1,369.8h-1.6v-6.4h1.6V369.8z"></path>		<path class="st4" d="M500.2,374.6h-7.5v-1.9h16.5v1.9h-6.1v0.2c0.6,0.3,1.1,0.7,1.5,1.3c0.4,0.6,0.6,1.4,0.6,2.3   c0,0.8-0.2,1.6-0.5,2.2c-0.3,0.6-0.8,1.1-1.5,1.5c-0.7,0.4-1.6,0.5-2.6,0.5h-7.9v-1.9h7.7c1,0,1.7-0.3,2.3-0.8   c0.5-0.5,0.8-1.2,0.8-2.1c0-0.6-0.1-1.2-0.4-1.7s-0.6-0.9-1.2-1.2C501.5,374.7,500.9,374.6,500.2,374.6z"></path>		<path class="st4" d="M492.5,390.8c0-1,0.3-1.9,0.8-2.7c0.5-0.8,1.3-1.4,2.2-1.9c1-0.4,2.1-0.7,3.4-0.7c1.3,0,2.4,0.2,3.4,0.7   c1,0.4,1.7,1.1,2.2,1.9c0.5,0.8,0.8,1.7,0.8,2.8c0,0.8-0.1,1.4-0.4,1.9c-0.3,0.5-0.6,0.8-0.9,1.1s-0.6,0.4-0.8,0.6v0.2h6.1v1.9   h-16.5v-1.8h1.9v-0.2c-0.2-0.1-0.5-0.3-0.9-0.6c-0.3-0.3-0.6-0.6-0.9-1.1C492.6,392.2,492.5,391.6,492.5,390.8z M494.2,391   c0,0.8,0.2,1.4,0.6,1.9c0.4,0.5,1,0.9,1.7,1.2c0.7,0.3,1.5,0.4,2.5,0.4c0.9,0,1.7-0.1,2.4-0.4c0.7-0.3,1.2-0.7,1.6-1.2   s0.6-1.2,0.6-2c0-0.8-0.2-1.5-0.6-2s-1-0.9-1.7-1.2c-0.7-0.3-1.5-0.4-2.4-0.4c-0.9,0-1.7,0.1-2.4,0.4s-1.3,0.7-1.7,1.2   S494.2,390.3,494.2,391z"></path>		<path class="st4" d="M492.7,400.2h12.4v1.8h-1.9v0.1c0.6,0.2,1.1,0.6,1.5,1.2c0.4,0.6,0.6,1.3,0.6,2c0,0.1,0,0.3,0,0.5   c0,0.2,0,0.4,0,0.5h-1.9c0-0.1,0-0.2,0.1-0.4s0.1-0.5,0.1-0.7c0-0.6-0.1-1.1-0.4-1.6s-0.6-0.8-1-1.1c-0.4-0.3-0.9-0.4-1.5-0.4   h-7.8V400.2z"></path>		<path class="st4" d="M492.4,412.3c0-0.8,0.1-1.5,0.4-2.1c0.3-0.6,0.7-1.1,1.3-1.5c0.6-0.4,1.3-0.6,2.1-0.6c0.7,0,1.3,0.1,1.7,0.4   c0.4,0.3,0.8,0.7,1,1.1s0.4,1,0.6,1.6c0.1,0.6,0.2,1.1,0.3,1.7c0.1,0.8,0.2,1.4,0.2,1.8c0.1,0.5,0.1,0.8,0.3,1   c0.1,0.2,0.3,0.3,0.6,0.3h0.1c0.8,0,1.4-0.2,1.9-0.6c0.4-0.4,0.7-1.1,0.7-2c0-0.9-0.2-1.6-0.6-2.1c-0.4-0.5-0.8-0.9-1.3-1.1   l0.6-1.8c0.8,0.3,1.3,0.8,1.8,1.3c0.4,0.5,0.7,1.1,0.9,1.8c0.2,0.6,0.3,1.3,0.3,1.9c0,0.4,0,0.9-0.1,1.4c-0.1,0.5-0.3,1-0.6,1.5   c-0.3,0.5-0.7,0.9-1.3,1.2c-0.6,0.3-1.4,0.5-2.4,0.5h-8.2v-1.9h1.7V416c-0.3-0.1-0.6-0.3-0.9-0.6c-0.3-0.3-0.6-0.7-0.8-1.2   S492.4,413,492.4,412.3z M494.2,412.6c0,0.8,0.1,1.4,0.4,1.9c0.3,0.5,0.7,0.9,1.1,1.2c0.5,0.3,1,0.4,1.5,0.4h1.7   c-0.1-0.1-0.2-0.3-0.3-0.5c-0.1-0.3-0.1-0.6-0.2-0.9s-0.1-0.7-0.1-1c0-0.3-0.1-0.6-0.1-0.8c-0.1-0.5-0.2-1-0.3-1.4s-0.4-0.8-0.6-1   s-0.7-0.4-1.1-0.4c-0.7,0-1.2,0.2-1.5,0.7S494.2,411.8,494.2,412.6z"></path>		<path class="st4" d="M492.7,424.3l12.4-3.8v2l-9.5,2.7v0.1l9.5,2.6v2l-9.5,2.6v0.1l9.5,2.7v2l-12.4-3.8v-1.9l9.5-2.7v-0.2   l-9.5-2.7V424.3z"></path>		<path class="st4" d="M492.7,446.3h12.4v1.8h-1.9v0.2c0.7,0.3,1.2,0.7,1.5,1.2s0.6,1.3,0.6,2.1c0,0.8-0.2,1.5-0.6,2   c-0.4,0.5-0.9,1-1.5,1.3v0.1c0.6,0.3,1.1,0.8,1.5,1.4c0.4,0.6,0.6,1.4,0.6,2.3c0,1.1-0.3,2-1,2.7c-0.7,0.7-1.8,1.1-3.2,1.1h-8.3   v-1.9h8.3c0.9,0,1.6-0.2,2-0.8s0.6-1.1,0.6-1.8c0-0.9-0.3-1.5-0.8-2s-1.2-0.7-2-0.7h-8.1v-1.9h8.5c0.7,0,1.3-0.2,1.7-0.7   s0.6-1,0.6-1.8c0-0.5-0.1-1-0.4-1.4c-0.3-0.4-0.6-0.8-1.1-1c-0.5-0.3-1-0.4-1.6-0.4h-7.7V446.3z"></path>		<path class="st4" d="M492.5,471.1c0-1.1,0.3-2.1,0.8-2.9s1.3-1.5,2.2-2s2.1-0.7,3.4-0.7c1.3,0,2.4,0.2,3.4,0.7   c1,0.5,1.7,1.1,2.2,2s0.8,1.8,0.8,2.9c0,1.1-0.3,2.1-0.8,2.9s-1.3,1.5-2.2,2c-1,0.5-2.1,0.7-3.4,0.7c-1.3,0-2.4-0.2-3.4-0.7   s-1.7-1.1-2.2-2S492.5,472.2,492.5,471.1z M494.2,471.1c0,0.8,0.2,1.5,0.7,2.1c0.4,0.5,1,1,1.7,1.2s1.5,0.4,2.3,0.4   s1.6-0.1,2.3-0.4s1.3-0.7,1.7-1.2c0.4-0.5,0.7-1.2,0.7-2.1s-0.2-1.5-0.7-2.1c-0.4-0.5-1-1-1.7-1.2s-1.5-0.4-2.3-0.4   s-1.6,0.1-2.3,0.4s-1.3,0.7-1.7,1.2C494.4,469.5,494.2,470.2,494.2,471.1z"></path>		<path class="st4" d="M500.2,481.5h-7.5v-1.9h12.4v1.8h-1.9v0.2c0.6,0.3,1.1,0.7,1.5,1.3c0.4,0.6,0.6,1.4,0.6,2.3   c0,0.8-0.2,1.6-0.5,2.2c-0.3,0.6-0.9,1.1-1.5,1.5c-0.7,0.3-1.6,0.5-2.6,0.5h-7.9v-1.9h7.7c1,0,1.7-0.3,2.3-0.8   c0.5-0.5,0.8-1.2,0.8-2.1c0-0.6-0.1-1.1-0.4-1.6c-0.3-0.5-0.6-0.9-1.2-1.1C501.5,481.6,500.9,481.5,500.2,481.5z"></path>		<path class="st4" d="M492.5,498.1c0-1.2,0.3-2.2,0.8-3.1c0.5-0.9,1.3-1.5,2.2-2c1-0.5,2.1-0.7,3.3-0.7c1.3,0,2.4,0.2,3.4,0.7   c1,0.5,1.7,1.1,2.3,2c0.5,0.8,0.8,1.8,0.8,2.9c0,0.6-0.1,1.3-0.3,1.9c-0.2,0.6-0.6,1.2-1,1.7s-1.1,0.9-1.9,1.2   c-0.8,0.3-1.8,0.5-2.9,0.5h-0.8v-9.5h1.6v7.6c0.7,0,1.3-0.1,1.9-0.4c0.5-0.3,1-0.7,1.3-1.2s0.5-1.1,0.5-1.8c0-0.8-0.2-1.4-0.6-2   c-0.4-0.6-0.9-1-1.5-1.3c-0.6-0.3-1.2-0.4-1.9-0.4h-1.1c-0.9,0-1.7,0.2-2.4,0.5c-0.6,0.3-1.1,0.8-1.5,1.4c-0.3,0.6-0.5,1.3-0.5,2   c0,0.5,0.1,1,0.2,1.4c0.1,0.4,0.4,0.8,0.6,1.1c0.3,0.3,0.6,0.5,1.1,0.7l-0.5,1.8c-0.6-0.2-1.2-0.5-1.6-1c-0.5-0.5-0.8-1-1.1-1.7   C492.6,499.7,492.5,498.9,492.5,498.1z"></path>		<path class="st4" d="M488.1,507.4c0-0.3,0-0.6,0.1-0.9c0.1-0.3,0.1-0.4,0.1-0.5l1.7,0.5c-0.1,0.5-0.2,0.9-0.1,1.2   c0,0.4,0.2,0.7,0.5,0.9s0.7,0.5,1.4,0.8l1,0.4l12.5-4.6v2.1l-9.9,3.4v0.1l9.9,3.4v2.1l-14.2-5.3c-0.6-0.2-1.2-0.5-1.6-0.9   s-0.7-0.8-0.9-1.2S488.1,507.9,488.1,507.4z"></path>	</g></g><g>	<g>		<path class="st4" d="M227.4,106L218,92.4l1.6-1.1l8.4,12.1l6.3-4.4l1,1.5L227.4,106z"></path>		<path class="st4" d="M241.9,96.1c-0.9,0.6-1.9,1-2.9,1c-1,0-2-0.2-2.9-0.7s-1.8-1.3-2.5-2.3c-0.7-1.1-1.2-2.1-1.4-3.2   c-0.2-1.1-0.1-2,0.3-3c0.4-0.9,1-1.7,2-2.3c0.9-0.6,1.9-1,2.9-1c1,0,2,0.2,2.9,0.7c0.9,0.5,1.8,1.3,2.5,2.4c0.7,1,1.2,2.1,1.3,3.2   c0.2,1.1,0.1,2-0.3,3S242.9,95.5,241.9,96.1z M241,94.7c0.7-0.5,1.1-1.1,1.3-1.7c0.2-0.7,0.2-1.4,0-2.1c-0.2-0.7-0.5-1.4-1-2.1   c-0.5-0.7-1-1.2-1.7-1.7c-0.6-0.4-1.3-0.7-2-0.7c-0.7,0-1.4,0.2-2.1,0.7s-1.1,1.1-1.3,1.7c-0.2,0.7-0.2,1.4,0,2.1   c0.2,0.7,0.5,1.4,1,2.1c0.5,0.7,1,1.2,1.6,1.7c0.6,0.4,1.3,0.7,2,0.7S240.3,95.2,241,94.7z"></path>		<path class="st4" d="M255.7,92.2c-0.8,0.5-1.5,0.9-2.1,1.1c-0.7,0.2-1.3,0.3-1.9,0.2c-0.6-0.1-1.1-0.2-1.6-0.4l0.6-1.7   c0.3,0.1,0.6,0.2,1,0.3c0.4,0.1,0.8,0.1,1.3,0c0.5-0.1,1.1-0.3,1.7-0.8c0.8-0.6,1.4-1.2,1.6-2c0.3-0.8,0.1-1.6-0.5-2.4l-1.4-2.1   l-0.1,0.1c0,0.3,0,0.6,0,1c0,0.4-0.2,0.9-0.4,1.3c-0.2,0.5-0.7,1-1.4,1.4c-0.8,0.6-1.7,0.9-2.6,1c-0.9,0.1-1.8-0.1-2.7-0.6   c-0.9-0.5-1.7-1.2-2.4-2.3c-0.7-1-1.2-2.1-1.3-3.1c-0.2-1-0.1-2,0.3-2.9c0.4-0.9,1-1.6,1.8-2.2c0.7-0.5,1.3-0.7,1.8-0.8   c0.5-0.1,1,0,1.4,0.1c0.4,0.1,0.7,0.2,1,0.3l0.2-0.1l-1.1-1.6l1.5-1.1l7.3,10.4c0.6,0.9,0.9,1.7,0.9,2.5c0,0.8-0.3,1.6-0.7,2.3   S256.5,91.7,255.7,92.2z M251.7,86.7c0.6-0.4,1.1-1,1.3-1.5c0.2-0.6,0.3-1.2,0.1-1.9c-0.2-0.7-0.5-1.4-1-2.2   c-0.5-0.7-1.1-1.3-1.7-1.7c-0.6-0.4-1.2-0.6-1.9-0.6c-0.7,0-1.3,0.2-1.9,0.6c-0.7,0.5-1.1,1-1.3,1.7c-0.2,0.6-0.2,1.3,0,2   c0.2,0.7,0.5,1.4,1,2.1c0.5,0.7,1,1.3,1.6,1.6c0.6,0.4,1.2,0.6,1.9,0.6C250.4,87.4,251.1,87.1,251.7,86.7z"></path>		<path class="st4" d="M257.9,67.1c-0.3,0.2-0.6,0.3-1,0.2c-0.4-0.1-0.6-0.2-0.8-0.5c-0.2-0.3-0.3-0.6-0.2-1   c0.1-0.4,0.3-0.6,0.6-0.9c0.3-0.2,0.6-0.3,1-0.2c0.4,0.1,0.6,0.2,0.8,0.5c0.2,0.3,0.3,0.6,0.2,1C258.4,66.6,258.2,66.9,257.9,67.1   z M265.4,79.5l-7.1-10.2l1.6-1.1l7.1,10.2L265.4,79.5z"></path>		<path class="st4" d="M267.1,69.2l4.3,6.1l-1.6,1.1l-7.1-10.2l1.5-1.1l1.1,1.6l0.1-0.1c-0.1-0.7,0-1.3,0.2-2   c0.3-0.7,0.8-1.2,1.5-1.8c0.7-0.5,1.4-0.8,2.1-0.8c0.7-0.1,1.4,0.1,2.1,0.4c0.7,0.4,1.3,1,1.9,1.8l4.5,6.5l-1.6,1.1l-4.4-6.3   c-0.6-0.8-1.2-1.3-1.9-1.4c-0.7-0.2-1.5,0-2.2,0.5c-0.5,0.3-0.9,0.8-1.1,1.3c-0.2,0.5-0.3,1-0.3,1.6   C266.4,68,266.7,68.6,267.1,69.2z"></path>		<path class="st4" d="M281.7,65.3l0.4,0.8c0.3,0.6,0.5,1.2,0.8,1.9c0.2,0.7,0.5,1.3,0.7,1.9c0.2,0.6,0.3,1.1,0.4,1.5l-1.2,0.8   c-0.1-0.3-0.3-0.7-0.6-1.3c-0.2-0.5-0.5-1.1-0.8-1.7c-0.3-0.6-0.6-1.3-1-1.9l-0.4-0.8L281.7,65.3z"></path>		<path class="st4" d="M245.7,126.5l-7.1-10.2l1.5-1.1l1.1,1.6l0.1-0.1c-0.2-0.7-0.1-1.4,0.1-2c0.3-0.6,0.7-1.2,1.4-1.6   c0.7-0.5,1.3-0.7,2-0.7c0.7,0,1.3,0.2,1.9,0.5l0.1-0.1c-0.1-0.7,0-1.4,0.3-2.1s0.8-1.3,1.5-1.8c0.9-0.6,1.8-0.9,2.8-0.7   c1,0.2,1.9,0.8,2.7,2l4.7,6.8l-1.6,1.1l-4.7-6.8c-0.5-0.7-1.1-1.1-1.7-1.2s-1.2,0.1-1.8,0.5c-0.7,0.5-1.1,1.1-1.2,1.8   c-0.1,0.7,0.1,1.4,0.5,2l4.6,6.6l-1.6,1.1l-4.9-7c-0.4-0.6-0.9-0.9-1.5-1c-0.6-0.1-1.2,0.1-1.8,0.5c-0.4,0.3-0.7,0.7-0.9,1.1   s-0.3,1-0.2,1.5c0.1,0.5,0.3,1,0.6,1.5l4.4,6.3L245.7,126.5z"></path>		<path class="st4" d="M265,113.3c-0.6,0.4-1.3,0.7-2,0.9c-0.7,0.1-1.4,0.1-2-0.2c-0.6-0.3-1.2-0.7-1.6-1.4   c-0.4-0.6-0.6-1.1-0.6-1.7c0-0.5,0.1-1,0.3-1.5c0.2-0.5,0.6-0.9,0.9-1.4c0.4-0.4,0.8-0.8,1.2-1.2c0.6-0.5,1-0.9,1.4-1.2   c0.4-0.3,0.6-0.6,0.7-0.8c0.1-0.2,0.1-0.5-0.1-0.7l0-0.1c-0.5-0.7-1-1-1.6-1.1c-0.6-0.1-1.3,0.1-2,0.6c-0.7,0.5-1.2,1.1-1.4,1.7   c-0.2,0.6-0.3,1.2-0.2,1.7l-1.9,0.5c-0.2-0.8-0.1-1.5,0.1-2.2c0.2-0.7,0.5-1.2,0.9-1.7s0.9-0.9,1.4-1.3c0.3-0.2,0.7-0.5,1.2-0.7   c0.5-0.2,1-0.3,1.6-0.4c0.6,0,1.1,0.1,1.7,0.4c0.6,0.3,1.2,0.8,1.7,1.7l4.7,6.7l-1.6,1.1l-1-1.4l-0.1,0.1c0,0.3,0,0.7,0,1.1   c-0.1,0.4-0.2,0.9-0.5,1.3S265.6,112.9,265,113.3z M264.3,111.7c0.6-0.4,1.1-0.9,1.3-1.5c0.3-0.5,0.4-1.1,0.3-1.6   c0-0.5-0.2-1-0.5-1.4l-1-1.4c0,0.1-0.1,0.3-0.3,0.5s-0.4,0.5-0.7,0.7c-0.3,0.2-0.5,0.5-0.8,0.7c-0.2,0.2-0.4,0.4-0.6,0.5   c-0.4,0.3-0.7,0.7-1,1c-0.3,0.4-0.4,0.7-0.5,1.1s0.1,0.8,0.3,1.2c0.4,0.5,0.9,0.8,1.5,0.8C263.1,112.4,263.7,112.2,264.3,111.7z"></path>		<path class="st4" d="M272.4,107.8l-9.5-13.5l1.6-1.1l9.5,13.5L272.4,107.8z M271.3,103.1l-1.4-1.9l0.3-0.2l1.3-7.6l1.9-1.3   l-1.4,8.1l-0.1,0.1L271.3,103.1z M278.8,103.3l-7.5-2.3l0.4-1.9l9.1,2.7L278.8,103.3z"></path>		<path class="st4" d="M286.9,98c-1,0.7-2,1.1-3,1.1c-1,0.1-2-0.2-2.9-0.7c-0.9-0.5-1.8-1.3-2.5-2.3c-0.7-1-1.2-2.1-1.4-3.2   c-0.2-1.1-0.1-2.1,0.3-3c0.4-0.9,1-1.7,1.9-2.3c0.5-0.4,1.1-0.6,1.8-0.8c0.6-0.2,1.3-0.2,2-0.1c0.7,0.1,1.4,0.4,2.1,0.9   c0.7,0.5,1.4,1.2,2,2.1l0.5,0.7l-7.8,5.5l-0.9-1.3l6.2-4.4c-0.4-0.6-0.9-1-1.4-1.3c-0.5-0.3-1.1-0.4-1.7-0.4   c-0.6,0-1.2,0.2-1.7,0.6c-0.6,0.4-1.1,1-1.3,1.6c-0.2,0.6-0.3,1.3-0.2,1.9c0.1,0.7,0.3,1.3,0.7,1.8l0.6,0.9   c0.5,0.8,1.1,1.3,1.8,1.7c0.6,0.3,1.3,0.5,2,0.4c0.7-0.1,1.3-0.3,1.9-0.7c0.4-0.3,0.7-0.6,1-1c0.3-0.3,0.4-0.7,0.5-1.1   c0.1-0.4,0.1-0.8-0.1-1.3l1.8-0.6c0.2,0.6,0.2,1.3,0.1,1.9c-0.1,0.6-0.4,1.3-0.8,1.9C288.2,97,287.6,97.5,286.9,98z"></path>		<path class="st4" d="M251.5,136.9l1.6-1.1l6.8,9.7c0.3,0.4,0.6,0.7,0.9,0.9c0.3,0.1,0.6,0.2,0.8,0.1c0.3-0.1,0.5-0.2,0.7-0.3   c0.2-0.1,0.3-0.2,0.4-0.3c0.1-0.1,0.2-0.2,0.2-0.2l1.3,1.2c-0.1,0.1-0.2,0.3-0.4,0.4c-0.2,0.2-0.4,0.4-0.7,0.6   c-0.4,0.3-0.9,0.5-1.5,0.6c-0.6,0.1-1.1,0.1-1.6-0.1c-0.5-0.2-1-0.6-1.4-1.2L251.5,136.9z M256.9,136.8l0.9,1.3l-5.3,3.7l-0.9-1.3   L256.9,136.8z"></path>		<path class="st4" d="M266.3,145.3l-7.1-10.2l1.5-1.1l1.1,1.5l0.1-0.1c-0.2-0.6-0.1-1.3,0.2-1.9c0.3-0.7,0.7-1.2,1.3-1.6   c0.1-0.1,0.3-0.2,0.4-0.3c0.2-0.1,0.3-0.2,0.4-0.3l1.1,1.6c-0.1,0-0.2,0.1-0.4,0.2s-0.4,0.2-0.6,0.4c-0.5,0.3-0.9,0.8-1.1,1.2   c-0.2,0.5-0.3,1-0.3,1.5c0,0.5,0.2,1,0.5,1.5l4.5,6.4L266.3,145.3z"></path>		<path class="st4" d="M276.4,138.6c-0.6,0.4-1.3,0.7-2,0.9s-1.4,0.1-2-0.2c-0.6-0.3-1.2-0.7-1.6-1.4c-0.4-0.6-0.6-1.1-0.6-1.7   s0.1-1,0.3-1.5c0.2-0.5,0.6-0.9,0.9-1.4c0.4-0.4,0.8-0.8,1.2-1.2c0.6-0.5,1-0.9,1.4-1.2c0.4-0.3,0.6-0.6,0.7-0.8   c0.1-0.2,0.1-0.5-0.1-0.7l0-0.1c-0.5-0.7-1-1-1.6-1.1c-0.6-0.1-1.3,0.1-2,0.6c-0.7,0.5-1.2,1.1-1.4,1.7c-0.2,0.6-0.2,1.2-0.2,1.7   l-1.8,0.5c-0.2-0.8-0.1-1.5,0.1-2.2c0.2-0.7,0.5-1.2,0.9-1.7c0.4-0.5,0.9-0.9,1.4-1.3c0.3-0.2,0.7-0.5,1.2-0.7   c0.5-0.2,1-0.4,1.6-0.4c0.6,0,1.1,0.1,1.7,0.4c0.6,0.3,1.2,0.8,1.7,1.7l4.7,6.7l-1.6,1.1l-1-1.4l-0.1,0.1c0,0.3,0,0.7,0,1.1   c-0.1,0.4-0.2,0.9-0.5,1.3C277.5,137.7,277,138.2,276.4,138.6z M275.7,137c0.6-0.4,1.1-0.9,1.3-1.5c0.3-0.5,0.4-1.1,0.3-1.6   c0-0.5-0.2-1-0.5-1.4l-1-1.4c0,0.1-0.1,0.3-0.3,0.5c-0.2,0.2-0.4,0.5-0.7,0.7c-0.3,0.2-0.5,0.5-0.8,0.7c-0.2,0.2-0.4,0.4-0.6,0.5   c-0.4,0.3-0.7,0.7-1,1c-0.3,0.4-0.4,0.7-0.5,1.1s0.1,0.8,0.3,1.2c0.4,0.5,0.9,0.8,1.5,0.8S275.1,137.5,275.7,137z"></path>		<path class="st4" d="M287.8,130.6c-0.8,0.6-1.7,0.9-2.7,0.9c-0.9,0-1.9-0.2-2.8-0.8c-0.9-0.5-1.8-1.3-2.5-2.4   c-0.7-1.1-1.2-2.1-1.4-3.2c-0.2-1-0.1-2,0.3-2.9c0.4-0.9,1-1.6,1.8-2.2c0.7-0.5,1.3-0.7,1.8-0.8s1,0,1.4,0.1   c0.4,0.1,0.7,0.2,1,0.3l0.1-0.1l-3.5-5l1.6-1.1l9.5,13.5l-1.5,1.1l-1.1-1.6l-0.2,0.1c0,0.3,0,0.6,0,1c0,0.4-0.1,0.9-0.4,1.4   C288.9,129.7,288.4,130.2,287.8,130.6z M287,129.1c0.6-0.4,1-1,1.2-1.6c0.2-0.6,0.2-1.3,0-2.1c-0.2-0.7-0.5-1.5-1.1-2.3   c-0.5-0.8-1.1-1.3-1.7-1.8c-0.6-0.4-1.3-0.6-1.9-0.7c-0.7,0-1.3,0.2-1.9,0.6c-0.7,0.5-1.1,1-1.3,1.7s-0.2,1.3,0,2.1   c0.2,0.7,0.5,1.4,1,2.2c0.5,0.7,1.1,1.3,1.7,1.7c0.6,0.4,1.3,0.7,2,0.7C285.7,129.8,286.3,129.5,287,129.1z"></path>		<path class="st4" d="M299.7,122.3c-1,0.7-2,1.1-3,1.1c-1,0.1-2-0.2-2.9-0.7c-0.9-0.5-1.8-1.3-2.5-2.3c-0.7-1-1.2-2.1-1.4-3.2   c-0.2-1.1-0.1-2.1,0.3-3c0.4-0.9,1-1.7,1.9-2.3c0.5-0.4,1.1-0.6,1.8-0.8c0.6-0.2,1.3-0.2,2-0.1c0.7,0.1,1.4,0.4,2.1,0.9   c0.7,0.5,1.4,1.2,2,2.1l0.5,0.7l-7.8,5.5l-0.9-1.3l6.2-4.4c-0.4-0.6-0.9-1-1.4-1.3c-0.5-0.3-1.1-0.4-1.7-0.4   c-0.6,0-1.2,0.2-1.7,0.6c-0.6,0.4-1.1,1-1.3,1.6c-0.2,0.6-0.3,1.3-0.2,1.9c0.1,0.7,0.3,1.3,0.7,1.8l0.6,0.9   c0.5,0.8,1.1,1.3,1.8,1.7c0.6,0.3,1.3,0.5,2,0.4c0.7-0.1,1.3-0.3,1.9-0.7c0.4-0.3,0.7-0.6,1-1c0.3-0.4,0.4-0.7,0.5-1.1   c0.1-0.4,0.1-0.8-0.1-1.3l1.8-0.6c0.2,0.6,0.2,1.3,0.1,1.9c-0.1,0.6-0.4,1.3-0.8,1.9C301,121.3,300.4,121.8,299.7,122.3z"></path>		<path class="st4" d="M307.9,104.6l-1.1,1.4c-0.3-0.2-0.5-0.3-0.9-0.4c-0.3-0.1-0.7-0.1-1.1-0.1c-0.4,0.1-0.8,0.2-1.3,0.6   c-0.6,0.4-1,0.9-1.3,1.5c-0.2,0.6-0.2,1.1,0.1,1.5c0.3,0.4,0.6,0.6,1.1,0.6c0.4,0,1-0.1,1.7-0.4l1.8-0.7c1.1-0.4,2-0.5,2.7-0.4   c0.8,0.1,1.4,0.6,1.9,1.3c0.4,0.6,0.6,1.2,0.6,1.9c0,0.7-0.2,1.4-0.6,2.1c-0.4,0.7-1,1.3-1.8,1.8c-1,0.7-2.1,1.1-3,1.1   c-1,0-1.9-0.3-2.7-1.1l1.2-1.4c0.5,0.4,1.1,0.7,1.7,0.7c0.6,0,1.2-0.2,1.8-0.7c0.7-0.5,1.2-1.1,1.4-1.7c0.2-0.6,0.2-1.1-0.1-1.6   c-0.2-0.4-0.6-0.6-1-0.6c-0.4-0.1-0.9,0-1.5,0.3l-2,0.8c-1.1,0.4-2,0.6-2.8,0.4s-1.4-0.6-1.9-1.3c-0.4-0.6-0.6-1.2-0.6-1.9   c0-0.7,0.2-1.3,0.6-2c0.4-0.6,0.9-1.2,1.7-1.7c1-0.7,2-1,2.8-1C306.3,103.7,307.1,104,307.9,104.6z"></path>	</g></g><g>	<g>		<path class="st4" d="M230,334.2l13.9-9l3,4.7c0.7,1.1,1.1,2.1,1.1,3.1c0.1,0.9-0.1,1.8-0.6,2.6c-0.4,0.8-1.1,1.4-1.9,1.9   c-0.8,0.5-1.7,0.8-2.6,0.9c-0.9,0.1-1.7-0.1-2.6-0.5s-1.6-1.2-2.3-2.3l-2.2-3.4l1.5-1l2.1,3.3c0.5,0.7,1,1.3,1.5,1.5   c0.5,0.3,1.1,0.4,1.7,0.3c0.6-0.1,1.1-0.3,1.7-0.7c0.6-0.4,1-0.8,1.3-1.3c0.3-0.5,0.4-1,0.4-1.7c0-0.6-0.3-1.3-0.8-2.1l-1.9-3   l-12.4,8L230,334.2z"></path>		<path class="st4" d="M239.4,349.3c-0.4-0.7-0.7-1.3-0.8-2c-0.1-0.7,0-1.4,0.3-2c0.3-0.6,0.7-1.2,1.4-1.6c0.6-0.4,1.2-0.6,1.7-0.6   c0.5,0,1,0.1,1.5,0.4c0.5,0.3,0.9,0.6,1.3,1c0.4,0.4,0.8,0.8,1.2,1.3c0.5,0.6,0.9,1.1,1.2,1.4c0.3,0.4,0.6,0.6,0.8,0.7   c0.2,0.1,0.5,0.1,0.7-0.1l0.1,0c0.7-0.4,1.1-0.9,1.2-1.6c0.1-0.6,0-1.3-0.5-2c-0.5-0.8-1-1.3-1.7-1.5c-0.6-0.2-1.2-0.3-1.7-0.2   l-0.4-1.9c0.8-0.1,1.5-0.1,2.2,0.1c0.6,0.2,1.2,0.6,1.7,1s0.9,0.9,1.2,1.5c0.2,0.3,0.4,0.7,0.6,1.2c0.2,0.5,0.3,1,0.3,1.6   c0,0.6-0.1,1.1-0.4,1.7c-0.3,0.6-0.9,1.1-1.7,1.7l-6.9,4.4l-1-1.6l1.4-0.9l-0.1-0.1c-0.3,0-0.7,0-1.1-0.1   c-0.4-0.1-0.9-0.3-1.3-0.6C240.2,350.4,239.8,349.9,239.4,349.3z M241,348.6c0.4,0.6,0.9,1.1,1.4,1.4c0.5,0.3,1.1,0.4,1.6,0.4   c0.5,0,1-0.2,1.5-0.5l1.5-0.9c-0.1,0-0.3-0.1-0.5-0.3s-0.4-0.4-0.7-0.7c-0.2-0.3-0.5-0.5-0.7-0.8c-0.2-0.3-0.4-0.5-0.5-0.6   c-0.3-0.4-0.7-0.7-1-1c-0.4-0.3-0.7-0.5-1.1-0.5c-0.4-0.1-0.8,0-1.2,0.3c-0.6,0.4-0.8,0.8-0.9,1.4   C240.4,347.4,240.6,348,241,348.6z"></path>		<path class="st4" d="M257.5,359l-1.3-1.2c0.2-0.2,0.3-0.5,0.4-0.8c0.1-0.3,0.2-0.7,0.1-1.1c0-0.4-0.2-0.8-0.5-1.3   c-0.4-0.6-0.9-1.1-1.5-1.3s-1.1-0.2-1.5,0.1c-0.4,0.3-0.6,0.6-0.7,1c0,0.4,0.1,1,0.3,1.7l0.6,1.8c0.4,1.1,0.5,2,0.3,2.7   c-0.2,0.8-0.6,1.4-1.3,1.8c-0.6,0.4-1.2,0.6-1.9,0.5c-0.7,0-1.4-0.3-2-0.7c-0.7-0.4-1.3-1.1-1.8-1.9c-0.7-1.1-1-2.1-1-3.1   c0-1,0.4-1.9,1.2-2.6l1.4,1.3c-0.5,0.5-0.7,1.1-0.7,1.6c0,0.6,0.2,1.2,0.6,1.9c0.5,0.7,1,1.2,1.6,1.5c0.6,0.2,1.1,0.2,1.6-0.1   c0.4-0.2,0.6-0.6,0.7-1c0.1-0.4,0-0.9-0.2-1.5l-0.7-2c-0.4-1.1-0.5-2-0.3-2.8c0.2-0.8,0.6-1.4,1.4-1.8c0.6-0.4,1.2-0.5,1.9-0.5   c0.7,0,1.3,0.3,1.9,0.7c0.6,0.4,1.2,1,1.7,1.7c0.7,1,1,2,0.9,2.9C258.4,357.5,258,358.3,257.5,359z"></path>		<path class="st4" d="M263.9,369l-1.3-1.2c0.2-0.2,0.3-0.5,0.4-0.8c0.1-0.3,0.2-0.7,0.1-1.1c0-0.4-0.2-0.8-0.5-1.3   c-0.4-0.6-0.9-1.1-1.5-1.3c-0.6-0.2-1.1-0.2-1.5,0.1c-0.4,0.3-0.6,0.6-0.7,1c0,0.4,0.1,1,0.3,1.7l0.6,1.8c0.4,1.1,0.5,2,0.3,2.7   c-0.2,0.8-0.6,1.4-1.3,1.8c-0.6,0.4-1.2,0.6-1.9,0.5c-0.7,0-1.4-0.3-2-0.7c-0.7-0.4-1.3-1.1-1.8-1.9c-0.7-1.1-1-2.1-1-3.1   c0-1,0.4-1.9,1.2-2.6l1.4,1.3c-0.5,0.5-0.7,1.1-0.7,1.6c0,0.6,0.2,1.2,0.6,1.9c0.5,0.7,1,1.2,1.6,1.5c0.6,0.2,1.1,0.2,1.6-0.1   c0.4-0.2,0.6-0.6,0.7-1c0.1-0.4,0-0.9-0.2-1.5l-0.7-2c-0.4-1.1-0.5-2-0.3-2.8c0.2-0.8,0.6-1.4,1.4-1.8c0.6-0.4,1.2-0.5,1.9-0.5   c0.7,0,1.3,0.3,1.9,0.7c0.6,0.4,1.2,1,1.7,1.7c0.7,1,1,2,0.9,2.9C264.8,367.5,264.5,368.3,263.9,369z"></path>		<path class="st4" d="M260.1,381.3c-0.6-1-1-2-1-3c0-1,0.2-2,0.8-2.9c0.5-0.9,1.4-1.7,2.4-2.4c1.1-0.7,2.1-1.1,3.2-1.2   c1.1-0.1,2.1,0,3,0.4c0.9,0.4,1.7,1.1,2.3,2c0.3,0.5,0.6,1.1,0.8,1.8c0.2,0.6,0.2,1.3,0.1,2s-0.4,1.4-0.9,2.1   c-0.5,0.7-1.2,1.3-2.2,2l-0.7,0.4l-5.2-8l1.4-0.9l4.1,6.4c0.6-0.4,1-0.8,1.3-1.4c0.3-0.5,0.5-1.1,0.5-1.7c0-0.6-0.2-1.2-0.6-1.8   c-0.4-0.6-0.9-1.1-1.5-1.3c-0.6-0.3-1.2-0.4-1.9-0.3c-0.7,0.1-1.3,0.3-1.9,0.7l-0.9,0.6c-0.8,0.5-1.4,1.1-1.7,1.7   c-0.4,0.6-0.5,1.3-0.5,1.9s0.3,1.3,0.7,2c0.3,0.4,0.6,0.8,0.9,1c0.3,0.3,0.7,0.4,1.1,0.5c0.4,0.1,0.8,0.1,1.3,0l0.6,1.8   c-0.6,0.2-1.3,0.2-1.9,0.1c-0.6-0.1-1.3-0.4-1.8-0.8C261.1,382.6,260.5,382,260.1,381.3z"></path>		<path class="st4" d="M277.5,390.1l-1.3-1.2c0.2-0.2,0.3-0.5,0.4-0.8c0.1-0.3,0.2-0.7,0.1-1.1c0-0.4-0.2-0.8-0.5-1.3   c-0.4-0.6-0.9-1.1-1.5-1.3c-0.6-0.2-1.1-0.2-1.5,0.1c-0.4,0.3-0.6,0.6-0.7,1c0,0.4,0.1,1,0.3,1.7l0.6,1.8c0.4,1.1,0.5,2,0.3,2.7   s-0.6,1.4-1.3,1.8c-0.6,0.4-1.2,0.6-1.9,0.5c-0.7,0-1.4-0.3-2-0.7c-0.7-0.4-1.3-1.1-1.8-1.9c-0.7-1.1-1-2.1-1-3.1   c0-1,0.4-1.9,1.2-2.6l1.4,1.3c-0.5,0.5-0.7,1.1-0.7,1.6c0,0.6,0.2,1.2,0.6,1.9c0.5,0.7,1,1.2,1.6,1.5c0.6,0.2,1.1,0.2,1.6-0.1   c0.4-0.2,0.6-0.6,0.7-1c0.1-0.4,0-0.9-0.2-1.5l-0.7-2c-0.4-1.1-0.5-2-0.3-2.8c0.2-0.8,0.6-1.4,1.4-1.8c0.6-0.4,1.2-0.5,1.9-0.5   s1.3,0.3,1.9,0.7s1.2,1,1.7,1.7c0.7,1,1,2,0.9,2.9C278.4,388.5,278.1,389.3,277.5,390.1z"></path>		<path class="st4" d="M277.1,407.6c-0.6-0.9-0.9-1.9-0.9-2.9c0-1,0.3-2,0.8-2.9c0.5-0.9,1.4-1.7,2.4-2.4c1.1-0.7,2.2-1.1,3.2-1.2   c1.1-0.1,2,0,3,0.4c0.9,0.4,1.7,1.1,2.3,2c0.6,0.9,0.9,1.9,0.9,2.9c0,1-0.3,2-0.8,2.9c-0.6,0.9-1.4,1.7-2.5,2.4   c-1.1,0.7-2.1,1.1-3.2,1.2c-1.1,0.1-2,0-2.9-0.4C278.4,409.2,277.7,408.6,277.1,407.6z M278.5,406.7c0.5,0.7,1,1.2,1.7,1.4   c0.7,0.2,1.4,0.3,2.1,0.1c0.7-0.2,1.5-0.5,2.2-0.9c0.7-0.4,1.3-1,1.7-1.6c0.5-0.6,0.7-1.3,0.8-2c0.1-0.7-0.1-1.4-0.6-2.1   c-0.5-0.7-1-1.2-1.7-1.4c-0.7-0.2-1.4-0.2-2.1-0.1c-0.7,0.2-1.5,0.5-2.2,0.9s-1.3,1-1.7,1.6c-0.5,0.6-0.7,1.3-0.8,2   C277.9,405.3,278.1,406,278.5,406.7z"></path>		<path class="st4" d="M281.9,414.6l10.4-6.7l1,1.5l-1.6,1l0.1,0.1c0.6-0.1,1.3-0.1,1.9,0.2c0.6,0.3,1.2,0.7,1.6,1.4   c0.1,0.1,0.2,0.3,0.3,0.4c0.1,0.2,0.2,0.3,0.2,0.4l-1.6,1c0-0.1-0.1-0.2-0.2-0.4c-0.1-0.2-0.2-0.4-0.3-0.6   c-0.3-0.5-0.7-0.9-1.2-1.1c-0.5-0.3-1-0.4-1.5-0.4c-0.5,0-1,0.2-1.5,0.5l-6.6,4.3L281.9,414.6z"></path>		<path class="st4" d="M288.8,425.8c-0.6-0.9-0.8-1.8-0.8-2.7c0-0.9,0.3-1.9,0.9-2.8c0.6-0.9,1.4-1.7,2.5-2.4   c1.1-0.7,2.2-1.1,3.2-1.3c1-0.1,2,0,2.9,0.4c0.9,0.4,1.6,1,2.2,1.9c0.4,0.7,0.7,1.3,0.7,1.8c0,0.5,0,1-0.2,1.4   c-0.1,0.4-0.3,0.7-0.4,0.9l0.1,0.1l5.1-3.3l1,1.6l-13.9,9l-1-1.5l1.6-1l-0.1-0.2c-0.3,0-0.6,0-1,0c-0.4,0-0.9-0.2-1.4-0.4   C289.7,426.9,289.2,426.5,288.8,425.8z M290.4,425.1c0.4,0.6,0.9,1.1,1.6,1.3c0.6,0.2,1.3,0.3,2.1,0.1c0.7-0.2,1.5-0.5,2.3-1   c0.8-0.5,1.4-1.1,1.8-1.7c0.4-0.6,0.7-1.2,0.7-1.9c0-0.7-0.1-1.3-0.6-2c-0.4-0.7-1-1.1-1.6-1.4c-0.6-0.2-1.3-0.3-2.1-0.1   c-0.7,0.2-1.5,0.5-2.2,0.9c-0.7,0.5-1.3,1-1.8,1.6s-0.7,1.3-0.8,1.9C289.8,423.8,290,424.4,290.4,425.1z"></path>		<path class="st4" d="M296.7,438.1c-0.6-1-1-2-1-3c0-1,0.2-2,0.8-2.9c0.5-0.9,1.4-1.7,2.4-2.4c1.1-0.7,2.1-1.1,3.2-1.2   c1.1-0.1,2.1,0,3,0.4c0.9,0.4,1.7,1.1,2.3,2c0.4,0.5,0.6,1.1,0.8,1.8c0.2,0.6,0.2,1.3,0.1,2c-0.1,0.7-0.4,1.4-0.9,2.1   c-0.5,0.7-1.2,1.3-2.2,2l-0.7,0.4l-5.2-8l1.4-0.9l4.1,6.4c0.6-0.4,1-0.8,1.3-1.4c0.3-0.5,0.5-1.1,0.5-1.7c0-0.6-0.2-1.2-0.6-1.8   c-0.4-0.6-0.9-1.1-1.5-1.3c-0.6-0.3-1.3-0.4-1.9-0.3c-0.7,0.1-1.3,0.3-1.9,0.7l-0.9,0.6c-0.8,0.5-1.4,1.1-1.7,1.7   c-0.4,0.6-0.5,1.3-0.5,1.9c0,0.7,0.3,1.3,0.7,2c0.3,0.4,0.6,0.8,0.9,1c0.3,0.3,0.7,0.4,1.1,0.5c0.4,0.1,0.8,0.1,1.3,0l0.6,1.8   c-0.6,0.2-1.3,0.2-1.9,0.1c-0.6-0.1-1.3-0.4-1.8-0.8C297.7,439.4,297.2,438.8,296.7,438.1z"></path>		<path class="st4" d="M301.3,444.7l10.4-6.7l1,1.5l-1.6,1l0.1,0.1c0.6-0.1,1.3-0.1,1.9,0.2c0.6,0.3,1.2,0.7,1.6,1.4   c0.1,0.1,0.2,0.3,0.3,0.4c0.1,0.2,0.2,0.3,0.2,0.4l-1.6,1c0-0.1-0.1-0.2-0.2-0.4c-0.1-0.2-0.2-0.4-0.3-0.6   c-0.3-0.5-0.7-0.9-1.2-1.1s-1-0.4-1.5-0.4c-0.5,0-1,0.2-1.5,0.5l-6.6,4.3L301.3,444.7z"></path>		<path class="st4" d="M318.7,454l-1.3-1.2c0.2-0.2,0.3-0.5,0.4-0.8c0.1-0.3,0.2-0.7,0.1-1.1c0-0.4-0.2-0.8-0.5-1.3   c-0.4-0.6-0.9-1.1-1.5-1.3c-0.6-0.2-1.1-0.2-1.5,0.1c-0.4,0.3-0.6,0.6-0.7,1c0,0.4,0.1,1,0.3,1.7l0.6,1.8c0.4,1.1,0.5,2,0.3,2.7   s-0.6,1.4-1.3,1.8c-0.6,0.4-1.2,0.6-1.9,0.5c-0.7,0-1.4-0.3-2-0.7c-0.7-0.4-1.3-1.1-1.8-1.9c-0.7-1.1-1-2.1-1-3.1   c0-1,0.4-1.9,1.2-2.6l1.4,1.3c-0.5,0.5-0.7,1.1-0.7,1.6c0,0.6,0.2,1.2,0.6,1.9c0.5,0.7,1,1.2,1.6,1.5c0.6,0.2,1.1,0.2,1.6-0.1   c0.4-0.2,0.6-0.6,0.7-1c0.1-0.4,0-0.9-0.2-1.5l-0.7-2c-0.4-1.1-0.5-2-0.3-2.8c0.2-0.8,0.6-1.4,1.4-1.8c0.6-0.4,1.2-0.5,1.9-0.5   c0.7,0,1.3,0.3,1.9,0.7c0.6,0.4,1.2,1,1.7,1.7c0.7,1,1,2,0.9,2.9C319.6,452.4,319.3,453.2,318.7,454z"></path>	</g></g><g>	<g>		<path class="st4" d="M129.4,487.7c0.4-0.4,0.7-0.9,0.9-1.4c0.2-0.5,0.3-1,0.4-1.5c0-0.5,0-1-0.1-1.5c-0.1-0.5-0.4-1-0.7-1.5   c-0.5-0.8-1.2-1.4-2.1-1.9c-0.9-0.4-1.8-0.6-2.9-0.4c-1.1,0.1-2.2,0.6-3.4,1.3c-1.2,0.8-2.1,1.6-2.7,2.5c-0.6,0.9-0.9,1.9-0.9,2.8   c0,1,0.3,1.9,0.8,2.7c0.5,0.8,1.1,1.4,1.8,1.8c0.7,0.4,1.5,0.6,2.4,0.5c0.8-0.1,1.7-0.3,2.6-0.9l0.2,0.6l-2.6-4.2l1.5-0.9l3.3,5.3   l-1.5,0.9c-1.2,0.7-2.3,1.1-3.5,1.2c-1.2,0-2.2-0.2-3.2-0.8c-1-0.6-1.9-1.4-2.6-2.5c-0.8-1.2-1.2-2.5-1.2-3.8   c0-1.3,0.4-2.6,1.1-3.7c0.7-1.2,1.9-2.3,3.3-3.2c1.1-0.7,2.2-1.2,3.3-1.4c1.1-0.3,2.1-0.3,3.1-0.2c1,0.2,1.9,0.5,2.7,1   c0.8,0.5,1.5,1.3,2,2.2c0.5,0.7,0.8,1.5,1,2.3c0.2,0.8,0.2,1.5,0.1,2.3c-0.1,0.8-0.3,1.5-0.6,2.2c-0.3,0.7-0.8,1.3-1.4,1.9   L129.4,487.7z"></path>		<path class="st4" d="M125.1,502.8c-0.6-1-1-2-1-3c0-1,0.3-2,0.8-2.9c0.6-0.9,1.4-1.7,2.5-2.4c1.1-0.7,2.1-1.1,3.2-1.2   c1.1-0.1,2.1,0,3,0.4c0.9,0.4,1.7,1.1,2.3,2c0.3,0.5,0.6,1.1,0.7,1.8c0.2,0.6,0.2,1.3,0,2c-0.1,0.7-0.5,1.4-1,2.1   c-0.5,0.7-1.2,1.3-2.2,1.9l-0.7,0.4l-5.1-8.1l1.4-0.9l4,6.4c0.6-0.4,1-0.8,1.4-1.3c0.3-0.5,0.5-1.1,0.5-1.7c0-0.6-0.2-1.2-0.6-1.8   c-0.4-0.6-0.9-1.1-1.5-1.4c-0.6-0.3-1.2-0.4-1.9-0.3c-0.7,0.1-1.3,0.3-1.9,0.6l-0.9,0.6c-0.8,0.5-1.4,1.1-1.8,1.7   c-0.4,0.6-0.6,1.3-0.5,1.9c0,0.7,0.2,1.3,0.6,2c0.3,0.4,0.6,0.8,0.9,1c0.3,0.3,0.7,0.5,1.1,0.5c0.4,0.1,0.8,0.1,1.3,0l0.5,1.8   c-0.6,0.2-1.3,0.2-1.9,0c-0.6-0.1-1.3-0.4-1.8-0.9S125.6,503.5,125.1,502.8z"></path>		<path class="st4" d="M143.1,502l1,1.6l-10,6.3c-0.5,0.3-0.8,0.6-0.9,0.8c-0.1,0.3-0.2,0.5-0.1,0.8c0.1,0.3,0.2,0.5,0.3,0.7   c0.1,0.2,0.2,0.3,0.3,0.4c0.1,0.1,0.2,0.2,0.2,0.2l-1.2,1.2c-0.1-0.1-0.2-0.2-0.4-0.4c-0.2-0.2-0.3-0.4-0.5-0.7   c-0.3-0.5-0.5-1-0.5-1.5c-0.1-0.6,0-1.1,0.2-1.6c0.2-0.5,0.6-1,1.2-1.4L143.1,502z M143,507.5l-1.4,0.9l-3.4-5.4l1.4-0.9   L143,507.5z"></path>		<path class="st4" d="M146.8,518.8l-1.3-1.2c0.2-0.2,0.3-0.5,0.5-0.8c0.1-0.3,0.2-0.7,0.1-1.1c0-0.4-0.2-0.8-0.5-1.3   c-0.4-0.6-0.9-1.1-1.4-1.3s-1.1-0.2-1.5,0.1c-0.4,0.3-0.6,0.6-0.7,1c0,0.4,0,1,0.3,1.7l0.6,1.8c0.4,1.1,0.5,2,0.3,2.8   c-0.2,0.8-0.6,1.4-1.4,1.8c-0.6,0.4-1.2,0.5-1.9,0.5c-0.7,0-1.4-0.3-2-0.7c-0.7-0.4-1.2-1.1-1.8-1.9c-0.7-1.1-1-2.1-1-3.1   c0-1,0.4-1.9,1.2-2.6l1.3,1.3c-0.5,0.5-0.7,1-0.7,1.6c0,0.6,0.2,1.2,0.6,1.9c0.5,0.8,1,1.2,1.6,1.5c0.6,0.2,1.1,0.2,1.6-0.1   c0.4-0.2,0.6-0.5,0.7-1c0.1-0.4,0-0.9-0.2-1.5l-0.7-2c-0.4-1.1-0.5-2-0.3-2.8c0.2-0.8,0.7-1.4,1.4-1.8c0.6-0.4,1.2-0.5,1.9-0.5   c0.7,0,1.3,0.3,1.9,0.7c0.6,0.4,1.2,1,1.6,1.7c0.7,1,0.9,2,0.9,2.9C147.7,517.3,147.4,518.1,146.8,518.8z"></path>		<path class="st4" d="M158.3,539.6c-1.5,0.9-2.9,1.5-4.3,1.6c-1.4,0.1-2.7-0.1-3.9-0.6c-1.2-0.6-2.1-1.4-2.9-2.6   c-0.7-1.2-1.1-2.4-1.1-3.7s0.4-2.5,1.1-3.8c0.7-1.2,1.8-2.3,3.3-3.2c1.5-0.9,2.9-1.5,4.3-1.6c1.4-0.1,2.7,0.1,3.9,0.6   c1.2,0.6,2.1,1.4,2.9,2.6c0.7,1.2,1.1,2.4,1.1,3.7c0,1.3-0.4,2.5-1.1,3.8C160.8,537.6,159.7,538.7,158.3,539.6z M157.2,537.9   c1.2-0.8,2.1-1.6,2.7-2.5c0.6-0.9,0.9-1.9,0.9-2.8c0-1-0.3-1.9-0.8-2.7c-0.5-0.8-1.2-1.5-2.1-1.9c-0.9-0.4-1.8-0.6-2.9-0.4   c-1.1,0.1-2.2,0.6-3.4,1.3c-1.2,0.8-2.1,1.6-2.7,2.5c-0.6,0.9-0.9,1.9-0.9,2.8c0,1,0.3,1.9,0.8,2.7s1.2,1.5,2.1,1.9   c0.9,0.4,1.8,0.6,2.9,0.4C154.9,539.1,156,538.7,157.2,537.9z M151.4,534.5l1.2,1.9l-1.1,2.8l-0.3,0.8l-1.6,4.3l-1.2-1.9l1.1-2.8   l0.3-0.7L151.4,534.5z"></path>		<path class="st4" d="M161.3,550.5l6.2-3.9l1,1.6l-10.5,6.6l-1-1.6l1.8-1.1l-0.1-0.1c-0.7,0.1-1.4,0-2.1-0.3   c-0.7-0.3-1.3-0.8-1.8-1.6c-0.4-0.7-0.6-1.3-0.7-2c0-0.7,0.2-1.4,0.6-2c0.4-0.7,1.1-1.3,1.9-1.8l6.7-4.2l1,1.6l-6.6,4.1   c-0.8,0.5-1.2,1.1-1.4,1.8c-0.2,0.7-0.1,1.4,0.4,2.1c0.3,0.4,0.6,0.7,1.1,1c0.5,0.3,1,0.4,1.6,0.5   C160.1,551.1,160.7,550.9,161.3,550.5z"></path>		<path class="st4" d="M162.4,562.2c-0.6-0.9-0.9-1.9-0.9-2.9c0-1,0.3-1.9,0.8-2.9c0.6-0.9,1.4-1.7,2.5-2.4c1.1-0.7,2.2-1.1,3.2-1.2   c1.1-0.1,2,0,2.9,0.5c0.9,0.4,1.6,1.1,2.2,2.1c0.6,0.9,0.9,1.9,0.9,2.9c0,1-0.3,1.9-0.9,2.9c-0.6,0.9-1.4,1.7-2.5,2.4   c-1.1,0.7-2.2,1.1-3.2,1.2s-2,0-2.9-0.5C163.7,563.8,163,563.1,162.4,562.2z M163.8,561.3c0.5,0.7,1,1.2,1.7,1.4   c0.7,0.2,1.4,0.3,2.1,0.1s1.5-0.5,2.2-0.9s1.3-1,1.7-1.6s0.7-1.3,0.8-2c0.1-0.7-0.1-1.4-0.6-2.1c-0.5-0.7-1-1.2-1.7-1.4   c-0.7-0.2-1.4-0.3-2.1-0.1c-0.7,0.2-1.5,0.5-2.2,0.9s-1.3,1-1.7,1.6c-0.5,0.6-0.7,1.2-0.8,1.9   C163.2,559.8,163.4,560.5,163.8,561.3z"></path>		<path class="st4" d="M180.6,561.8l1,1.6l-10,6.3c-0.5,0.3-0.8,0.6-0.9,0.8c-0.1,0.3-0.2,0.5-0.1,0.8c0.1,0.3,0.2,0.5,0.3,0.7   c0.1,0.2,0.2,0.3,0.3,0.4c0.1,0.1,0.2,0.2,0.2,0.2l-1.2,1.2c-0.1-0.1-0.2-0.2-0.4-0.4c-0.2-0.2-0.3-0.4-0.5-0.7   c-0.3-0.5-0.5-1-0.5-1.5c-0.1-0.6,0-1.1,0.2-1.6c0.2-0.5,0.6-1,1.2-1.4L180.6,561.8z M180.5,567.2l-1.4,0.9l-3.4-5.4l1.4-0.9   L180.5,567.2z"></path>		<path class="st4" d="M174.1,580.8c-0.6-1-1-2-1-3c0-1,0.3-2,0.8-2.9c0.6-0.9,1.4-1.7,2.5-2.4c1.1-0.7,2.1-1.1,3.2-1.2   c1.1-0.1,2.1,0,3,0.4c0.9,0.4,1.7,1.1,2.3,2c0.3,0.5,0.6,1.1,0.7,1.8c0.2,0.6,0.2,1.3,0,2c-0.1,0.7-0.5,1.4-1,2.1   c-0.5,0.7-1.2,1.3-2.2,1.9l-0.7,0.4l-5.1-8.1l1.4-0.9l4,6.4c0.6-0.4,1-0.8,1.4-1.3c0.3-0.5,0.5-1.1,0.5-1.7c0-0.6-0.2-1.2-0.6-1.8   c-0.4-0.6-0.9-1.1-1.5-1.4c-0.6-0.3-1.2-0.4-1.9-0.3c-0.7,0.1-1.3,0.3-1.9,0.6l-0.9,0.6c-0.8,0.5-1.4,1.1-1.8,1.7   c-0.4,0.6-0.6,1.3-0.5,1.9c0,0.7,0.2,1.3,0.6,2c0.3,0.4,0.6,0.8,0.9,1c0.3,0.3,0.7,0.5,1.1,0.5c0.4,0.1,0.8,0.1,1.3,0l0.5,1.8   c-0.6,0.2-1.3,0.2-1.9,0c-0.6-0.1-1.3-0.4-1.8-0.9S174.5,581.5,174.1,580.8z"></path>		<path class="st4" d="M191.4,589.8l-1.3-1.2c0.2-0.2,0.3-0.5,0.5-0.8c0.1-0.3,0.2-0.7,0.1-1.1c0-0.4-0.2-0.8-0.5-1.3   c-0.4-0.6-0.9-1.1-1.4-1.3c-0.6-0.2-1.1-0.2-1.5,0.1c-0.4,0.3-0.6,0.6-0.7,1c0,0.4,0,1,0.3,1.7l0.6,1.8c0.4,1.1,0.5,2,0.3,2.8   c-0.2,0.8-0.6,1.4-1.4,1.8c-0.6,0.4-1.2,0.5-1.9,0.5c-0.7,0-1.4-0.3-2-0.7c-0.7-0.4-1.2-1.1-1.8-1.9c-0.7-1.1-1-2.1-1-3.1   c0-1,0.4-1.9,1.2-2.6l1.3,1.3c-0.5,0.5-0.7,1-0.7,1.6c0,0.6,0.2,1.2,0.6,1.9c0.5,0.8,1,1.2,1.6,1.5c0.6,0.2,1.1,0.2,1.6-0.1   c0.4-0.2,0.6-0.5,0.7-1c0.1-0.4,0-0.9-0.2-1.5l-0.7-2c-0.4-1.1-0.5-2-0.3-2.8s0.7-1.4,1.4-1.8c0.6-0.4,1.2-0.5,1.9-0.5   c0.7,0,1.3,0.3,1.9,0.7s1.2,1,1.6,1.7c0.7,1,0.9,2,0.9,2.9C192.3,588.2,192,589,191.4,589.8z"></path>		<path class="st4" d="M188.3,598.7l-0.8,0.4c-0.6,0.2-1.2,0.5-1.9,0.7c-0.7,0.2-1.4,0.4-2,0.6s-1.1,0.3-1.5,0.4l-0.8-1.2   c0.3-0.1,0.8-0.3,1.3-0.5s1.1-0.4,1.8-0.7c0.7-0.3,1.3-0.6,2-0.9l0.8-0.4L188.3,598.7z"></path>		<path class="st4" d="M98.6,490.1l-1.1-1.7c0.4-0.4,0.7-0.8,1-1.3c0.2-0.5,0.3-1,0.4-1.5c0-0.5,0-1-0.2-1.5c-0.1-0.5-0.4-1-0.6-1.5   c-0.5-0.8-1.2-1.5-2.1-1.9c-0.9-0.4-1.8-0.6-2.9-0.4c-1.1,0.1-2.2,0.6-3.4,1.3c-1.2,0.8-2.1,1.6-2.7,2.5c-0.6,0.9-0.9,1.9-0.9,2.8   c0,1,0.3,1.9,0.8,2.7c0.3,0.5,0.6,0.9,1,1.2c0.4,0.3,0.8,0.6,1.3,0.8c0.5,0.2,1,0.3,1.5,0.3c0.5,0,1.1-0.1,1.6-0.3l1.1,1.7   c-0.8,0.3-1.6,0.5-2.4,0.5c-0.8,0-1.5-0.1-2.2-0.4c-0.7-0.3-1.4-0.6-2-1.1c-0.6-0.5-1.1-1.1-1.6-1.8c-0.7-1.2-1.1-2.4-1.1-3.7   c0-1.3,0.4-2.5,1.1-3.8c0.7-1.2,1.8-2.3,3.3-3.2c1.5-0.9,2.9-1.5,4.3-1.6c1.4-0.1,2.7,0.1,3.9,0.6c1.2,0.6,2.1,1.4,2.9,2.6   c0.4,0.7,0.8,1.4,0.9,2.2c0.2,0.8,0.2,1.5,0.2,2.2s-0.3,1.5-0.6,2.2C99.8,488.9,99.3,489.5,98.6,490.1z"></path>		<path class="st4" d="M93.1,503.1c-0.6-0.9-0.9-1.9-0.9-2.9s0.3-1.9,0.8-2.9c0.6-0.9,1.4-1.7,2.5-2.4c1.1-0.7,2.2-1.1,3.2-1.2   c1.1-0.1,2,0,2.9,0.5s1.6,1.1,2.2,2.1c0.6,0.9,0.9,1.9,0.9,2.9s-0.3,1.9-0.9,2.9c-0.6,0.9-1.4,1.7-2.5,2.4   c-1.1,0.7-2.2,1.1-3.2,1.2c-1.1,0.1-2,0-2.9-0.5S93.7,504,93.1,503.1z M94.5,502.1c0.5,0.7,1,1.2,1.7,1.4c0.7,0.2,1.4,0.3,2.1,0.1   c0.7-0.2,1.5-0.5,2.2-0.9c0.7-0.4,1.3-1,1.8-1.6s0.7-1.3,0.8-2c0.1-0.7-0.1-1.4-0.6-2.1c-0.5-0.7-1-1.2-1.7-1.4   c-0.7-0.2-1.4-0.3-2.1-0.1c-0.7,0.2-1.5,0.5-2.2,0.9c-0.7,0.4-1.3,1-1.7,1.6c-0.5,0.6-0.7,1.2-0.8,1.9   C93.9,500.7,94.1,501.4,94.5,502.1z"></path>		<path class="st4" d="M105.1,507.8l-6.3,4l-1-1.6l10.5-6.6l1,1.6l-1.6,1l0.1,0.1c0.7-0.1,1.4,0,2,0.3c0.6,0.3,1.2,0.8,1.7,1.6   c0.4,0.7,0.7,1.4,0.7,2.1c0,0.7-0.1,1.4-0.5,2.1c-0.4,0.7-1,1.3-1.9,1.8l-6.7,4.2l-1-1.6l6.6-4.1c0.8-0.5,1.3-1.1,1.5-1.9   c0.2-0.7,0.1-1.5-0.4-2.2c-0.3-0.5-0.7-0.9-1.2-1.2c-0.5-0.3-1-0.4-1.6-0.3C106.3,507.2,105.7,507.4,105.1,507.8z"></path>		<path class="st4" d="M105.3,522.1l11.9-7.5c0.6-0.4,1.2-0.6,1.8-0.5c0.6,0,1.1,0.2,1.6,0.5c0.5,0.3,0.9,0.7,1.2,1.2   c0.2,0.4,0.4,0.7,0.5,1c0.1,0.3,0.2,0.5,0.2,0.7l-1.7,0.4c0-0.1-0.1-0.2-0.1-0.4c0-0.2-0.1-0.4-0.3-0.6c-0.3-0.5-0.7-0.8-1.1-0.9   c-0.4-0.1-0.9,0.1-1.4,0.4l-11.6,7.3L105.3,522.1z M118.3,519.5l-1.4,0.9l-3.6-5.7l1.4-0.9L118.3,519.5z"></path>		<path class="st4" d="M109.2,528.3l10.5-6.6l1,1.6l-10.5,6.6L109.2,528.3z M122,521.5c-0.2-0.3-0.3-0.7-0.2-1   c0.1-0.4,0.3-0.6,0.6-0.8c0.3-0.2,0.6-0.2,1-0.1c0.4,0.1,0.6,0.3,0.8,0.6c0.2,0.3,0.3,0.7,0.2,1c-0.1,0.4-0.3,0.6-0.6,0.8   c-0.3,0.2-0.6,0.2-1,0.1C122.5,522,122.2,521.8,122,521.5z"></path>		<path class="st4" d="M112.1,532.9l10.5-6.6l1,1.6l-1.6,1l0.1,0.1c0.6-0.1,1.3-0.1,1.9,0.2c0.6,0.3,1.2,0.8,1.5,1.4   c0.1,0.1,0.2,0.3,0.3,0.4c0.1,0.2,0.2,0.3,0.2,0.4l-1.6,1c0-0.1-0.1-0.2-0.2-0.4c-0.1-0.2-0.2-0.4-0.3-0.6   c-0.3-0.5-0.7-0.9-1.2-1.2c-0.5-0.3-1-0.4-1.5-0.4c-0.5,0-1,0.2-1.5,0.5l-6.6,4.2L112.1,532.9z"></path>		<path class="st4" d="M116.6,540l10.5-6.6l1,1.6l-1.6,1l0.1,0.1c0.7-0.1,1.4-0.1,2,0.2c0.6,0.3,1.1,0.8,1.6,1.5   c0.4,0.7,0.6,1.4,0.6,2c0,0.7-0.2,1.3-0.6,1.9l0.1,0.1c0.7-0.1,1.4,0.1,2.1,0.4c0.7,0.3,1.2,0.9,1.7,1.6c0.6,0.9,0.8,1.9,0.6,2.9   c-0.2,1-0.9,1.8-2.2,2.6l-7,4.4l-1-1.6l7-4.4c0.8-0.5,1.2-1,1.3-1.7c0.1-0.6-0.1-1.2-0.4-1.8c-0.5-0.7-1-1.2-1.7-1.3   c-0.7-0.1-1.4,0-2.1,0.4l-6.8,4.3l-1-1.6l7.2-4.5c0.6-0.4,1-0.9,1.1-1.5s0-1.2-0.4-1.8c-0.3-0.4-0.6-0.7-1.1-1   c-0.5-0.2-0.9-0.3-1.5-0.3c-0.5,0-1.1,0.2-1.6,0.5l-6.6,4.1L116.6,540z"></path>		<path class="st4" d="M139.9,559.1l-1.3-1.2c0.2-0.2,0.3-0.5,0.5-0.8c0.1-0.3,0.2-0.7,0.1-1.1c0-0.4-0.2-0.8-0.5-1.3   c-0.4-0.6-0.9-1.1-1.4-1.3s-1.1-0.2-1.5,0.1c-0.4,0.3-0.6,0.6-0.7,1c0,0.4,0,1,0.3,1.7l0.6,1.8c0.4,1.1,0.5,2,0.3,2.8   c-0.2,0.8-0.6,1.4-1.4,1.8c-0.6,0.4-1.2,0.5-1.9,0.5c-0.7,0-1.4-0.3-2-0.7s-1.2-1.1-1.8-1.9c-0.7-1.1-1-2.1-1-3.1   c0-1,0.4-1.9,1.2-2.6l1.3,1.3c-0.5,0.5-0.7,1-0.7,1.6c0,0.6,0.2,1.2,0.6,1.9c0.5,0.8,1,1.2,1.6,1.5c0.6,0.2,1.1,0.2,1.6-0.1   c0.4-0.2,0.6-0.5,0.7-1s0-0.9-0.2-1.5l-0.7-2c-0.4-1.1-0.5-2-0.3-2.8c0.2-0.8,0.7-1.4,1.4-1.8c0.6-0.4,1.2-0.5,1.9-0.5   c0.7,0,1.3,0.3,1.9,0.7c0.6,0.4,1.2,1,1.6,1.7c0.7,1,0.9,2,0.9,2.9C140.8,557.6,140.5,558.4,139.9,559.1z"></path>		<path class="st4" d="M139.3,576.6c-0.6-0.9-0.9-1.9-0.9-2.9c0-1,0.3-1.9,0.8-2.9c0.6-0.9,1.4-1.7,2.5-2.4c1.1-0.7,2.2-1.1,3.2-1.2   c1.1-0.1,2,0,2.9,0.5c0.9,0.4,1.6,1.1,2.2,2.1c0.6,0.9,0.9,1.9,0.9,2.9s-0.3,1.9-0.9,2.9c-0.6,0.9-1.4,1.7-2.5,2.4   c-1.1,0.7-2.2,1.1-3.2,1.2c-1.1,0.1-2,0-2.9-0.5S139.9,577.6,139.3,576.6z M140.7,575.7c0.5,0.7,1,1.2,1.7,1.4   c0.7,0.2,1.4,0.3,2.1,0.1s1.5-0.5,2.2-0.9c0.7-0.4,1.3-1,1.7-1.6c0.5-0.6,0.7-1.3,0.8-2c0.1-0.7-0.1-1.4-0.6-2.1   c-0.5-0.7-1-1.2-1.7-1.4c-0.7-0.2-1.4-0.3-2.1-0.1c-0.7,0.2-1.5,0.5-2.2,0.9c-0.7,0.4-1.3,1-1.7,1.6s-0.7,1.2-0.8,1.9   C140.1,574.3,140.3,575,140.7,575.7z"></path>		<path class="st4" d="M144,583.7l10.5-6.6l1,1.6l-1.6,1l0.1,0.1c0.6-0.1,1.3-0.1,1.9,0.2c0.6,0.3,1.2,0.8,1.5,1.4   c0.1,0.1,0.2,0.3,0.3,0.4c0.1,0.2,0.2,0.3,0.2,0.4l-1.6,1c0-0.1-0.1-0.2-0.2-0.4c-0.1-0.2-0.2-0.4-0.3-0.6   c-0.3-0.5-0.7-0.9-1.2-1.2c-0.5-0.3-1-0.4-1.5-0.4c-0.5,0-1,0.2-1.5,0.4l-6.6,4.2L144,583.7z"></path>		<path class="st4" d="M150.8,595c-0.5-0.9-0.8-1.8-0.8-2.7c0-0.9,0.3-1.9,0.9-2.8c0.6-0.9,1.4-1.7,2.5-2.4c1.1-0.7,2.2-1.1,3.2-1.2   c1-0.1,2,0,2.9,0.4c0.9,0.4,1.6,1,2.1,1.9c0.4,0.7,0.7,1.3,0.7,1.8c0,0.5,0,1-0.2,1.4c-0.2,0.4-0.3,0.7-0.4,0.9l0.1,0.1l5.2-3.2   l1,1.6l-14,8.8l-1-1.6l1.6-1l-0.1-0.2c-0.3,0-0.6,0-1-0.1c-0.4,0-0.9-0.2-1.4-0.5C151.7,596.1,151.2,595.6,150.8,595z    M152.4,594.3c0.4,0.6,0.9,1.1,1.5,1.3c0.6,0.2,1.3,0.3,2.1,0.1c0.7-0.1,1.5-0.5,2.3-1c0.8-0.5,1.4-1,1.8-1.6   c0.4-0.6,0.7-1.2,0.7-1.9c0-0.7-0.1-1.3-0.5-2c-0.4-0.7-1-1.1-1.6-1.4s-1.3-0.3-2.1-0.1c-0.7,0.1-1.5,0.5-2.2,0.9   c-0.7,0.5-1.4,1-1.8,1.6c-0.5,0.6-0.7,1.3-0.8,1.9C151.8,592.9,152,593.6,152.4,594.3z"></path>		<path class="st4" d="M158.6,607.3c-0.6-1-1-2-1-3c0-1,0.3-2,0.8-2.9c0.6-0.9,1.4-1.7,2.5-2.4c1.1-0.7,2.1-1.1,3.2-1.2   c1.1-0.1,2.1,0,3,0.4c0.9,0.4,1.7,1.1,2.3,2c0.3,0.5,0.6,1.1,0.7,1.8c0.2,0.6,0.2,1.3,0,2c-0.1,0.7-0.5,1.4-1,2.1   c-0.5,0.7-1.2,1.3-2.2,1.9l-0.7,0.4l-5.1-8.1l1.4-0.9l4,6.4c0.6-0.4,1-0.8,1.4-1.3s0.5-1.1,0.5-1.7c0-0.6-0.2-1.2-0.6-1.8   c-0.4-0.6-0.9-1.1-1.5-1.4c-0.6-0.3-1.2-0.4-1.9-0.3c-0.7,0.1-1.3,0.3-1.9,0.6l-0.9,0.6c-0.8,0.5-1.4,1.1-1.8,1.7   c-0.4,0.6-0.6,1.3-0.5,1.9c0,0.7,0.2,1.3,0.6,2c0.3,0.4,0.6,0.8,0.9,1c0.3,0.3,0.7,0.4,1.1,0.5c0.4,0.1,0.8,0.1,1.3,0l0.5,1.8   c-0.6,0.2-1.3,0.2-1.9,0c-0.6-0.1-1.3-0.4-1.8-0.9C159.5,608.6,159,608,158.6,607.3z"></path>		<path class="st4" d="M163.1,614l10.5-6.6l1,1.6l-1.6,1l0.1,0.1c0.6-0.1,1.3-0.1,1.9,0.2c0.6,0.3,1.2,0.8,1.5,1.4   c0.1,0.1,0.2,0.3,0.3,0.4c0.1,0.2,0.2,0.3,0.2,0.4l-1.6,1c0-0.1-0.1-0.2-0.2-0.4c-0.1-0.2-0.2-0.4-0.3-0.6   c-0.3-0.5-0.7-0.9-1.2-1.2c-0.5-0.3-1-0.4-1.5-0.4c-0.5,0-1,0.2-1.5,0.5l-6.6,4.2L163.1,614z"></path>		<path class="st4" d="M180.4,623.5l-1.3-1.2c0.2-0.2,0.3-0.5,0.5-0.8c0.1-0.3,0.2-0.7,0.1-1.1c0-0.4-0.2-0.8-0.5-1.3   c-0.4-0.6-0.9-1.1-1.4-1.3c-0.6-0.2-1.1-0.2-1.5,0.1c-0.4,0.3-0.6,0.6-0.7,1c0,0.4,0,1,0.3,1.7l0.6,1.8c0.4,1.1,0.5,2,0.3,2.8   c-0.2,0.8-0.6,1.4-1.4,1.8c-0.6,0.4-1.2,0.5-1.9,0.5c-0.7,0-1.4-0.3-2-0.7c-0.7-0.4-1.2-1.1-1.8-1.9c-0.7-1.1-1-2.1-1-3.1   c0-1,0.4-1.9,1.2-2.6l1.3,1.3c-0.5,0.5-0.7,1-0.7,1.6c0,0.6,0.2,1.2,0.6,1.9c0.5,0.8,1,1.2,1.6,1.5c0.6,0.2,1.1,0.2,1.6-0.1   c0.4-0.2,0.6-0.5,0.7-1c0.1-0.4,0-0.9-0.2-1.5l-0.7-2c-0.4-1.1-0.5-2-0.3-2.8s0.7-1.4,1.4-1.8c0.6-0.4,1.2-0.5,1.9-0.5   c0.7,0,1.3,0.3,1.9,0.7s1.2,1,1.6,1.7c0.7,1,0.9,2,0.9,2.9C181.3,622,180.9,622.8,180.4,623.5z"></path>	</g></g><g>	<g>		<path class="st4" d="M193.4,408.7c0.6-0.5,1-1.2,1-2c0-0.8-0.2-1.7-0.8-2.5c-0.4-0.6-0.8-1.1-1.3-1.4c-0.5-0.3-1-0.5-1.5-0.6   c-0.5,0-1,0.1-1.4,0.4c-0.4,0.2-0.6,0.5-0.8,0.9c-0.2,0.3-0.2,0.7-0.2,1.1s0,0.8,0.1,1.2c0.1,0.4,0.2,0.7,0.3,1l0.5,1.7   c0.1,0.4,0.3,0.9,0.4,1.5s0.2,1.1,0.1,1.7c0,0.6-0.2,1.2-0.5,1.7c-0.3,0.6-0.8,1-1.4,1.4c-0.8,0.5-1.6,0.7-2.4,0.7   s-1.7-0.3-2.5-0.8c-0.8-0.5-1.6-1.3-2.3-2.4c-0.6-1-1-2-1.1-2.9c-0.1-0.9,0-1.8,0.3-2.6s0.8-1.4,1.6-2l1.1,1.8   c-0.5,0.4-0.8,0.8-1,1.4c-0.1,0.5-0.2,1.1,0,1.7c0.1,0.6,0.4,1.2,0.7,1.7c0.4,0.6,0.9,1.2,1.4,1.5c0.5,0.4,1.1,0.6,1.7,0.7   c0.6,0.1,1.1-0.1,1.6-0.4c0.5-0.3,0.8-0.7,0.9-1.1c0.1-0.4,0.2-0.9,0.1-1.5c-0.1-0.5-0.2-1.1-0.4-1.7l-0.6-2   c-0.4-1.3-0.5-2.4-0.3-3.4c0.2-1,0.7-1.8,1.7-2.4c0.8-0.5,1.6-0.7,2.5-0.7c0.9,0.1,1.7,0.3,2.4,0.9c0.8,0.5,1.4,1.2,2,2.1   c0.6,0.9,0.9,1.8,1,2.7s0,1.7-0.3,2.5c-0.3,0.8-0.8,1.4-1.5,1.8L193.4,408.7z"></path>		<path class="st4" d="M182.4,423.2c-0.2-0.3-0.3-0.5-0.4-0.8c-0.1-0.2-0.1-0.4-0.2-0.5l1.7-0.5c0.1,0.5,0.3,0.8,0.5,1.1   c0.2,0.3,0.5,0.5,0.9,0.6c0.4,0.1,0.9,0.1,1.6-0.1l1-0.2l8.1-10.5l1.1,1.7l-6.5,8.1l0.1,0.1l10.2-2.4l1.1,1.7l-14.8,3.1   c-0.7,0.1-1.3,0.2-1.8,0.1c-0.5-0.1-1-0.2-1.4-0.5S182.7,423.7,182.4,423.2z"></path>		<path class="st4" d="M199.7,428.1l-6.3,4l-1-1.6l10.5-6.6l1,1.6l-1.6,1l0.1,0.1c0.7-0.1,1.4,0,2,0.3c0.6,0.3,1.2,0.8,1.7,1.6   c0.4,0.7,0.7,1.4,0.7,2.1c0,0.7-0.1,1.4-0.5,2.1c-0.4,0.7-1,1.3-1.9,1.8l-6.7,4.2l-1-1.6l6.6-4.1c0.8-0.5,1.3-1.1,1.5-1.9   s0.1-1.5-0.4-2.2c-0.3-0.5-0.7-0.9-1.2-1.2c-0.5-0.3-1-0.4-1.6-0.3C200.9,427.5,200.3,427.7,199.7,428.1z"></path>		<path class="st4" d="M201.9,446.1c-0.6-1-0.9-2-0.9-3c0-1,0.3-2,0.9-2.8c0.6-0.9,1.4-1.7,2.4-2.3c1.1-0.7,2.1-1.1,3.2-1.2   c1.1-0.1,2.1,0,3,0.4c0.9,0.4,1.7,1.1,2.3,2c0.5,0.7,0.7,1.5,0.8,2.3c0.1,0.8,0,1.5-0.2,2.2c-0.3,0.7-0.7,1.3-1.3,1.8l-1-1.6   c0.4-0.4,0.7-1,0.8-1.6c0.1-0.7-0.1-1.3-0.5-2c-0.4-0.6-0.9-1.1-1.5-1.3c-0.6-0.3-1.3-0.3-2.1-0.2c-0.8,0.1-1.5,0.4-2.3,0.9   c-0.8,0.5-1.4,1.1-1.9,1.7c-0.4,0.6-0.7,1.3-0.7,2c0,0.7,0.1,1.3,0.5,2c0.3,0.4,0.6,0.8,0.9,1s0.8,0.4,1.2,0.5   c0.4,0.1,0.9,0,1.3-0.1l1,1.6c-0.7,0.3-1.4,0.4-2.1,0.4c-0.7,0-1.4-0.3-2.1-0.7C203,447.4,202.4,446.8,201.9,446.1z"></path>		<path class="st4" d="M219,454.7l-1.3-1.2c0.2-0.2,0.3-0.5,0.5-0.8c0.1-0.3,0.2-0.7,0.1-1.1c0-0.4-0.2-0.8-0.5-1.3   c-0.4-0.6-0.9-1.1-1.4-1.3c-0.6-0.2-1.1-0.2-1.5,0.1c-0.4,0.3-0.6,0.6-0.7,1c0,0.4,0,1,0.3,1.7l0.6,1.8c0.4,1.1,0.5,2,0.3,2.8   c-0.2,0.8-0.6,1.4-1.4,1.8c-0.6,0.4-1.2,0.5-1.9,0.5c-0.7,0-1.4-0.3-2-0.7c-0.7-0.4-1.2-1.1-1.8-1.9c-0.7-1.1-1-2.1-1-3.1   c0-1,0.4-1.9,1.2-2.6l1.3,1.3c-0.5,0.5-0.7,1-0.7,1.6c0,0.6,0.2,1.2,0.6,1.9c0.5,0.8,1,1.2,1.6,1.5c0.6,0.2,1.1,0.2,1.6-0.1   c0.4-0.2,0.6-0.5,0.7-1c0.1-0.4,0-0.9-0.2-1.5l-0.7-2c-0.4-1.1-0.5-2-0.3-2.8c0.2-0.8,0.7-1.4,1.4-1.8c0.6-0.4,1.2-0.5,1.9-0.5   c0.7,0,1.3,0.3,1.9,0.7c0.6,0.4,1.2,1,1.6,1.7c0.7,1,0.9,2,0.9,2.9C219.9,453.2,219.6,454,219,454.7z"></path>		<path class="st4" d="M217.6,471.1c-0.4-0.7-0.7-1.3-0.8-2c-0.1-0.7,0-1.4,0.3-2c0.3-0.6,0.8-1.1,1.4-1.6c0.6-0.4,1.2-0.6,1.7-0.6   c0.5,0,1,0.1,1.5,0.4c0.5,0.3,0.9,0.6,1.3,1c0.4,0.4,0.8,0.8,1.2,1.3c0.5,0.6,0.9,1.1,1.2,1.4c0.3,0.4,0.6,0.6,0.8,0.7   c0.2,0.1,0.5,0.1,0.7-0.1l0.1,0c0.7-0.4,1.1-0.9,1.2-1.5c0.1-0.6,0-1.3-0.5-2c-0.5-0.8-1-1.3-1.6-1.5c-0.6-0.2-1.2-0.3-1.7-0.2   l-0.4-1.9c0.8-0.1,1.5-0.1,2.2,0.2c0.6,0.2,1.2,0.6,1.7,1c0.5,0.5,0.9,0.9,1.2,1.5c0.2,0.3,0.4,0.8,0.6,1.2c0.2,0.5,0.3,1,0.3,1.6   c0,0.6-0.1,1.1-0.5,1.7c-0.3,0.6-0.9,1.1-1.7,1.7l-6.9,4.3l-1-1.6l1.4-0.9l-0.1-0.1c-0.3,0-0.7,0-1.1-0.1   c-0.4-0.1-0.9-0.3-1.3-0.6C218.4,472.2,218,471.7,217.6,471.1z M219.2,470.4c0.4,0.6,0.9,1.1,1.4,1.4c0.5,0.3,1.1,0.4,1.6,0.4   c0.5,0,1-0.2,1.5-0.4l1.5-0.9c-0.1,0-0.3-0.1-0.5-0.3c-0.2-0.2-0.4-0.4-0.7-0.7c-0.2-0.3-0.5-0.5-0.7-0.8   c-0.2-0.3-0.4-0.5-0.5-0.6c-0.3-0.4-0.7-0.7-1-1c-0.3-0.3-0.7-0.5-1.1-0.5c-0.4-0.1-0.8,0-1.2,0.3c-0.6,0.4-0.9,0.8-0.9,1.4   C218.6,469.2,218.8,469.8,219.2,470.4z"></path>		<path class="st4" d="M225.2,483.1c-0.6-1-0.9-2-0.9-3c0-1,0.3-2,0.9-2.8c0.6-0.9,1.4-1.7,2.4-2.3c1.1-0.7,2.1-1.1,3.2-1.2   c1.1-0.1,2.1,0,3,0.4c0.9,0.4,1.7,1.1,2.3,2c0.5,0.7,0.7,1.5,0.8,2.3c0.1,0.8,0,1.5-0.2,2.2c-0.3,0.7-0.7,1.3-1.3,1.8l-1-1.6   c0.4-0.4,0.7-1,0.8-1.6c0.1-0.7-0.1-1.3-0.5-2c-0.4-0.6-0.9-1.1-1.5-1.3c-0.6-0.3-1.3-0.3-2.1-0.2c-0.8,0.1-1.5,0.4-2.3,0.9   c-0.8,0.5-1.4,1.1-1.9,1.7c-0.4,0.6-0.7,1.3-0.7,2c0,0.7,0.1,1.3,0.5,2c0.3,0.4,0.6,0.8,0.9,1c0.4,0.2,0.8,0.4,1.2,0.5   c0.4,0.1,0.9,0,1.3-0.1l1,1.6c-0.7,0.3-1.4,0.4-2.1,0.4c-0.7,0-1.4-0.3-2.1-0.7C226.2,484.5,225.7,483.9,225.2,483.1z"></path>		<path class="st4" d="M231.9,493.9c-0.6-1-0.9-2-0.9-3c0-1,0.3-2,0.9-2.8c0.6-0.9,1.4-1.7,2.4-2.3c1.1-0.7,2.1-1.1,3.2-1.2   c1.1-0.1,2.1,0,3,0.4c0.9,0.4,1.7,1.1,2.3,2c0.5,0.7,0.7,1.5,0.8,2.3c0.1,0.8,0,1.5-0.2,2.2c-0.3,0.7-0.7,1.3-1.3,1.8l-1-1.6   c0.4-0.4,0.7-1,0.8-1.6c0.1-0.7-0.1-1.3-0.5-2c-0.4-0.6-0.9-1.1-1.5-1.3c-0.6-0.3-1.3-0.3-2.1-0.2c-0.8,0.1-1.5,0.4-2.3,0.9   c-0.8,0.5-1.4,1.1-1.9,1.7s-0.7,1.3-0.7,2c0,0.7,0.1,1.3,0.5,2c0.3,0.4,0.6,0.8,0.9,1c0.4,0.3,0.8,0.4,1.2,0.5   c0.4,0.1,0.9,0,1.3-0.1l1,1.6c-0.7,0.3-1.4,0.4-2.1,0.4s-1.4-0.3-2.1-0.7C233,495.2,232.4,494.6,231.9,493.9z"></path>		<path class="st4" d="M238.7,504.6c-0.6-0.9-0.9-1.9-0.9-2.9c0-1,0.3-1.9,0.8-2.9c0.6-0.9,1.4-1.7,2.5-2.4c1.1-0.7,2.2-1.1,3.2-1.2   c1.1-0.1,2,0,2.9,0.5c0.9,0.4,1.6,1.1,2.2,2.1c0.6,0.9,0.9,1.9,0.9,2.9s-0.3,1.9-0.9,2.9c-0.6,0.9-1.4,1.7-2.5,2.4   c-1.1,0.7-2.2,1.1-3.2,1.2c-1.1,0.1-2,0-2.9-0.5S239.3,505.5,238.7,504.6z M240.1,503.7c0.5,0.7,1,1.2,1.7,1.4   c0.7,0.2,1.4,0.3,2.1,0.1c0.7-0.2,1.5-0.5,2.2-0.9c0.7-0.4,1.3-1,1.7-1.6s0.7-1.3,0.8-2c0.1-0.7-0.1-1.4-0.6-2.1   c-0.5-0.7-1-1.2-1.7-1.4c-0.7-0.2-1.4-0.3-2.1-0.1s-1.5,0.5-2.2,0.9c-0.7,0.4-1.3,1-1.7,1.6c-0.5,0.6-0.7,1.2-0.8,1.9   C239.5,502.3,239.7,503,240.1,503.7z"></path>		<path class="st4" d="M251.9,515.6l6.2-3.9l1,1.6l-10.5,6.6l-1-1.6l1.8-1.1l-0.1-0.1c-0.7,0.1-1.4,0-2.1-0.3   c-0.7-0.3-1.3-0.8-1.8-1.6c-0.4-0.7-0.6-1.3-0.7-2c0-0.7,0.2-1.4,0.6-2c0.4-0.7,1.1-1.3,1.9-1.8l6.7-4.2l1,1.6l-6.6,4.1   c-0.8,0.5-1.2,1.1-1.4,1.8c-0.2,0.7-0.1,1.4,0.4,2.1c0.3,0.4,0.6,0.7,1.1,1c0.5,0.3,1,0.4,1.6,0.5S251.2,516,251.9,515.6z"></path>		<path class="st4" d="M257.8,520.5l-6.3,4l-1-1.6l10.5-6.6l1,1.6l-1.6,1l0.1,0.1c0.7-0.1,1.4,0,2,0.3c0.6,0.3,1.2,0.8,1.7,1.6   c0.4,0.7,0.7,1.4,0.7,2.1c0,0.7-0.1,1.4-0.5,2.1c-0.4,0.7-1,1.3-1.9,1.8l-6.7,4.2l-1-1.6l6.6-4.1c0.8-0.5,1.3-1.1,1.5-1.9   c0.2-0.7,0.1-1.5-0.4-2.2c-0.3-0.5-0.7-0.9-1.2-1.2s-1-0.4-1.6-0.3C259,519.9,258.4,520.1,257.8,520.5z"></path>		<path class="st4" d="M271,526.6l1,1.6l-10,6.3c-0.5,0.3-0.8,0.6-0.9,0.8c-0.1,0.3-0.2,0.5-0.1,0.8c0.1,0.3,0.2,0.5,0.3,0.7   c0.1,0.2,0.2,0.3,0.3,0.4c0.1,0.1,0.2,0.2,0.2,0.2l-1.2,1.2c-0.1-0.1-0.2-0.2-0.4-0.4c-0.2-0.2-0.3-0.4-0.5-0.7   c-0.3-0.5-0.5-1-0.5-1.5c-0.1-0.6,0-1.1,0.2-1.6c0.2-0.5,0.6-1,1.2-1.4L271,526.6z M270.9,532.1l-1.4,0.9l-3.4-5.4l1.4-0.9   L270.9,532.1z"></path>		<path class="st4" d="M274.7,543.4l-1.3-1.2c0.2-0.2,0.3-0.5,0.5-0.8c0.1-0.3,0.2-0.7,0.1-1.1c0-0.4-0.2-0.8-0.5-1.3   c-0.4-0.6-0.9-1.1-1.4-1.3c-0.6-0.2-1.1-0.2-1.5,0.1c-0.4,0.3-0.6,0.6-0.7,1s0,1,0.3,1.7l0.6,1.8c0.4,1.1,0.5,2,0.3,2.8   c-0.2,0.8-0.6,1.4-1.4,1.8c-0.6,0.4-1.2,0.5-1.9,0.5c-0.7,0-1.4-0.3-2-0.7c-0.7-0.4-1.2-1.1-1.8-1.9c-0.7-1.1-1-2.1-1-3.1   c0-1,0.4-1.9,1.2-2.6l1.3,1.3c-0.5,0.5-0.7,1-0.7,1.6c0,0.6,0.2,1.2,0.6,1.9c0.5,0.8,1,1.2,1.6,1.5c0.6,0.2,1.1,0.2,1.6-0.1   c0.4-0.2,0.6-0.5,0.7-1c0.1-0.4,0-0.9-0.2-1.5l-0.7-2c-0.4-1.1-0.5-2-0.3-2.8s0.7-1.4,1.4-1.8c0.6-0.4,1.2-0.5,1.9-0.5   c0.7,0,1.3,0.3,1.9,0.7c0.6,0.4,1.2,1,1.6,1.7c0.7,1,0.9,2,0.9,2.9C275.6,541.9,275.3,542.7,274.7,543.4z"></path>		<path class="st4" d="M271.6,552.3l-0.8,0.4c-0.6,0.2-1.2,0.5-1.9,0.7c-0.7,0.2-1.4,0.4-2,0.6s-1.1,0.3-1.5,0.4l-0.8-1.2   c0.3-0.1,0.8-0.3,1.3-0.5s1.1-0.4,1.8-0.7c0.7-0.3,1.3-0.6,2-0.9l0.8-0.4L271.6,552.3z"></path>		<path class="st4" d="M148.3,411.5l10.5-6.6l1,1.6l-10.5,6.6L148.3,411.5z M161.1,404.6c-0.2-0.3-0.3-0.7-0.2-1   c0.1-0.4,0.3-0.6,0.6-0.8c0.3-0.2,0.6-0.2,1-0.1c0.4,0.1,0.6,0.3,0.8,0.6c0.2,0.3,0.3,0.7,0.2,1c-0.1,0.4-0.3,0.6-0.6,0.8   c-0.3,0.2-0.6,0.2-1,0.1C161.6,405.2,161.3,405,161.1,404.6z"></path>		<path class="st4" d="M158.5,413.7l-6.3,4l-1-1.6l10.5-6.6l1,1.6l-1.6,1l0.1,0.1c0.7-0.1,1.4,0,2,0.3c0.6,0.3,1.2,0.8,1.7,1.6   c0.4,0.7,0.7,1.4,0.7,2.1c0,0.7-0.1,1.4-0.5,2.1c-0.4,0.7-1,1.3-1.9,1.8l-6.7,4.2l-1-1.6l6.6-4.1c0.8-0.5,1.3-1.1,1.5-1.9   c0.2-0.7,0.1-1.5-0.4-2.2c-0.3-0.5-0.7-0.9-1.2-1.2c-0.5-0.3-1-0.4-1.6-0.3S159.1,413.3,158.5,413.7z"></path>		<path class="st4" d="M171.1,429.7l-1.3-1.2c0.2-0.2,0.3-0.5,0.5-0.8c0.1-0.3,0.2-0.7,0.1-1.1c0-0.4-0.2-0.8-0.5-1.3   c-0.4-0.6-0.9-1.1-1.4-1.3s-1.1-0.2-1.5,0.1c-0.4,0.3-0.6,0.6-0.7,1s0,1,0.3,1.7l0.6,1.8c0.4,1.1,0.5,2,0.3,2.8   c-0.2,0.8-0.6,1.4-1.4,1.8c-0.6,0.4-1.2,0.5-1.9,0.5c-0.7,0-1.4-0.3-2-0.7c-0.7-0.4-1.2-1.1-1.8-1.9c-0.7-1.1-1-2.1-1-3.1   c0-1,0.4-1.9,1.2-2.6l1.3,1.3c-0.5,0.5-0.7,1-0.7,1.6c0,0.6,0.2,1.2,0.6,1.9c0.5,0.8,1,1.2,1.6,1.5c0.6,0.2,1.1,0.2,1.6-0.1   c0.4-0.2,0.6-0.5,0.7-1c0.1-0.4,0-0.9-0.2-1.5l-0.7-2c-0.4-1.1-0.5-2-0.3-2.8c0.2-0.8,0.7-1.4,1.4-1.8c0.6-0.4,1.2-0.5,1.9-0.5   c0.7,0,1.3,0.3,1.9,0.7c0.6,0.4,1.2,1,1.6,1.7c0.7,1,0.9,2,0.9,2.9C172,428.1,171.7,428.9,171.1,429.7z"></path>		<path class="st4" d="M178,429.9l1,1.6l-10,6.3c-0.5,0.3-0.8,0.6-0.9,0.8c-0.1,0.3-0.2,0.5-0.1,0.8c0.1,0.3,0.2,0.5,0.3,0.7   c0.1,0.2,0.2,0.3,0.3,0.4c0.1,0.1,0.2,0.2,0.2,0.2l-1.2,1.2c-0.1-0.1-0.2-0.2-0.4-0.4s-0.3-0.4-0.5-0.7c-0.3-0.5-0.5-1-0.5-1.5   c-0.1-0.6,0-1.1,0.2-1.6c0.2-0.5,0.6-1,1.2-1.4L178,429.9z M177.9,435.4l-1.4,0.9l-3.4-5.4l1.4-0.9L177.9,435.4z"></path>		<path class="st4" d="M169,444.4l10.5-6.6l1,1.6l-1.6,1l0.1,0.1c0.6-0.1,1.3-0.1,1.9,0.2c0.6,0.3,1.2,0.8,1.5,1.4   c0.1,0.1,0.2,0.3,0.3,0.4c0.1,0.2,0.2,0.3,0.2,0.4l-1.6,1c0-0.1-0.1-0.2-0.2-0.4c-0.1-0.2-0.2-0.4-0.3-0.6   c-0.3-0.5-0.7-0.9-1.2-1.2c-0.5-0.3-1-0.4-1.5-0.4c-0.5,0-1,0.2-1.5,0.5L170,446L169,444.4z"></path>		<path class="st4" d="M181.9,455.5l6.2-3.9l1,1.6l-10.5,6.6l-1-1.6l1.8-1.1l-0.1-0.1c-0.7,0.1-1.4,0-2.1-0.3   c-0.7-0.3-1.3-0.8-1.8-1.6c-0.4-0.7-0.6-1.3-0.7-2c0-0.7,0.2-1.4,0.6-2c0.4-0.7,1-1.3,1.9-1.8l6.7-4.2l1,1.6l-6.6,4.1   c-0.8,0.5-1.2,1.1-1.4,1.8c-0.2,0.7-0.1,1.4,0.4,2.1c0.3,0.4,0.6,0.7,1.1,1c0.5,0.3,1,0.4,1.6,0.5   C180.6,456.1,181.3,455.9,181.9,455.5z"></path>		<path class="st4" d="M180.5,462.7l10.5-6.6l1,1.6l-1.6,1l0.1,0.1c0.7-0.1,1.4-0.1,2,0.2c0.6,0.3,1.1,0.8,1.6,1.5   c0.4,0.7,0.6,1.4,0.6,2c0,0.7-0.2,1.3-0.6,1.9l0.1,0.1c0.7-0.1,1.4,0.1,2.1,0.4c0.7,0.3,1.2,0.9,1.7,1.6c0.6,0.9,0.8,1.9,0.6,2.9   c-0.2,1-0.9,1.8-2.2,2.6l-7,4.4l-1-1.6l7-4.4c0.8-0.5,1.2-1,1.3-1.7c0.1-0.6-0.1-1.2-0.4-1.8c-0.5-0.7-1-1.2-1.7-1.3   c-0.7-0.1-1.4,0-2.1,0.4l-6.8,4.3l-1-1.6l7.2-4.5c0.6-0.4,1-0.9,1.1-1.5c0.1-0.6,0-1.2-0.4-1.8c-0.3-0.4-0.6-0.7-1.1-1   c-0.5-0.2-0.9-0.3-1.5-0.3c-0.5,0-1.1,0.2-1.6,0.5l-6.6,4.1L180.5,462.7z"></path>		<path class="st4" d="M193.5,484c-0.6-1-1-2-1-3c0-1,0.3-2,0.8-2.9c0.6-0.9,1.4-1.7,2.5-2.4c1.1-0.7,2.1-1.1,3.2-1.2   c1.1-0.1,2.1,0,3,0.4c0.9,0.4,1.7,1.1,2.3,2c0.3,0.5,0.6,1.1,0.7,1.8c0.2,0.6,0.2,1.3,0,2c-0.1,0.7-0.5,1.4-1,2.1   c-0.5,0.7-1.2,1.3-2.2,1.9l-0.7,0.4l-5.1-8.1l1.4-0.9l4,6.4c0.6-0.4,1-0.8,1.4-1.3c0.3-0.5,0.5-1.1,0.5-1.7c0-0.6-0.2-1.2-0.6-1.8   c-0.4-0.6-0.9-1.1-1.5-1.4c-0.6-0.3-1.2-0.4-1.9-0.3c-0.7,0.1-1.3,0.3-1.9,0.6l-0.9,0.6c-0.8,0.5-1.4,1.1-1.8,1.7   c-0.4,0.6-0.6,1.3-0.5,1.9c0,0.7,0.2,1.3,0.6,2c0.3,0.4,0.6,0.8,0.9,1c0.3,0.3,0.7,0.5,1.1,0.5c0.4,0.1,0.8,0.1,1.3,0l0.5,1.8   c-0.6,0.2-1.3,0.2-1.9,0c-0.6-0.1-1.3-0.4-1.8-0.9C194.5,485.2,194,484.7,193.5,484z"></path>		<path class="st4" d="M205.3,488.3l-6.3,4l-1-1.6l10.5-6.6l1,1.6l-1.6,1l0.1,0.1c0.7-0.1,1.4,0,2,0.3c0.6,0.3,1.2,0.8,1.7,1.6   c0.4,0.7,0.7,1.4,0.7,2.1c0,0.7-0.1,1.4-0.5,2.1c-0.4,0.7-1,1.3-1.9,1.8l-6.7,4.2l-1-1.6l6.6-4.1c0.8-0.5,1.3-1.1,1.5-1.9   c0.2-0.7,0.1-1.5-0.4-2.2c-0.3-0.5-0.7-0.9-1.2-1.2c-0.5-0.3-1-0.4-1.6-0.3C206.5,487.7,206,487.9,205.3,488.3z"></path>		<path class="st4" d="M218.5,494.4l1,1.6l-10,6.3c-0.5,0.3-0.8,0.6-0.9,0.8c-0.1,0.3-0.2,0.5-0.1,0.8c0.1,0.3,0.2,0.5,0.3,0.7   c0.1,0.2,0.2,0.3,0.3,0.4c0.1,0.1,0.2,0.2,0.2,0.2l-1.2,1.2c-0.1-0.1-0.2-0.2-0.4-0.4c-0.2-0.2-0.3-0.4-0.5-0.7   c-0.3-0.5-0.5-1-0.5-1.5c-0.1-0.6,0-1.1,0.2-1.6c0.2-0.5,0.6-1,1.2-1.4L218.5,494.4z M218.4,499.9l-1.4,0.9l-3.4-5.4l1.4-0.9   L218.4,499.9z"></path>		<path class="st4" d="M222.3,511.2L221,510c0.2-0.2,0.3-0.5,0.5-0.8c0.1-0.3,0.2-0.7,0.1-1.1c0-0.4-0.2-0.8-0.5-1.3   c-0.4-0.6-0.9-1.1-1.4-1.3c-0.6-0.2-1.1-0.2-1.5,0.1c-0.4,0.3-0.6,0.6-0.7,1c0,0.4,0,1,0.3,1.7l0.6,1.8c0.4,1.1,0.5,2,0.3,2.8   c-0.2,0.8-0.6,1.4-1.4,1.8c-0.6,0.4-1.2,0.5-1.9,0.5c-0.7,0-1.4-0.3-2-0.7c-0.7-0.4-1.2-1.1-1.8-1.9c-0.7-1.1-1-2.1-1-3.1   c0-1,0.4-1.9,1.2-2.6l1.3,1.3c-0.5,0.5-0.7,1-0.7,1.6c0,0.6,0.2,1.2,0.6,1.9c0.5,0.8,1,1.2,1.6,1.5c0.6,0.2,1.1,0.2,1.6-0.1   c0.4-0.2,0.6-0.5,0.7-1c0.1-0.4,0-0.9-0.2-1.5l-0.7-2c-0.4-1.1-0.5-2-0.3-2.8c0.2-0.8,0.7-1.4,1.4-1.8c0.6-0.4,1.2-0.5,1.9-0.5   c0.7,0,1.3,0.3,1.9,0.7c0.6,0.4,1.2,1,1.6,1.7c0.7,1,0.9,2,0.9,2.9C223.2,509.7,222.9,510.5,222.3,511.2z"></path>		<path class="st4" d="M221.5,528.4c-0.6-0.9-0.9-1.8-1-2.7c-0.1-0.9,0.1-1.7,0.4-2.4c0.4-0.7,0.9-1.3,1.7-1.8   c0.6-0.4,1.2-0.6,1.8-0.6c0.6,0,1.2,0,1.9,0.2c0.7,0.2,1.4,0.5,2.1,0.8l2.8,1.1c0.5,0.2,1,0.4,1.4,0.4s0.9-0.1,1.4-0.4   c0.4-0.2,0.6-0.6,0.7-1.1c0.1-0.5,0-1-0.3-1.5c-0.2-0.4-0.5-0.6-0.9-0.8c-0.3-0.2-0.7-0.2-1.1-0.2c-0.4,0-0.7,0.1-1,0.3   c-0.3,0.2-0.6,0.5-0.8,0.9c-0.2,0.4-0.4,0.8-0.6,1.3c-0.2,0.5-0.3,1-0.5,1.5l-3.8,11.3l-1.2-1.9l3.1-9.3c0.3-0.9,0.5-1.6,0.8-2.4   c0.2-0.7,0.5-1.3,0.8-1.9c0.3-0.5,0.8-1,1.3-1.3c0.6-0.4,1.3-0.6,1.9-0.6c0.7,0,1.3,0.1,1.9,0.5c0.6,0.3,1.1,0.9,1.5,1.5   c0.4,0.7,0.7,1.4,0.7,2.1c0,0.7-0.1,1.3-0.3,1.8c-0.3,0.6-0.7,1-1.2,1.3c-0.7,0.4-1.4,0.6-2.1,0.6c-0.7,0-1.4-0.2-2.2-0.5   l-3.8-1.5c-0.9-0.3-1.6-0.5-2.2-0.4c-0.6,0.1-1,0.1-1.2,0.3c-0.4,0.3-0.8,0.6-1,1.1c-0.2,0.5-0.3,1-0.3,1.5s0.2,1.1,0.6,1.7   c0.3,0.5,0.8,1,1.3,1.3c0.5,0.4,1.2,0.6,1.8,0.7c0.7,0.1,1.4,0.1,2.2,0c0.8-0.1,1.5-0.4,2.3-0.9l1,1.6c-0.9,0.6-1.8,1-2.5,1.1   c-0.7,0.2-1.3,0.2-1.8,0.1c-0.5-0.1-0.9-0.1-1.2-0.2c-0.1,0-0.2,0-0.3,0c-0.1,0-0.2,0-0.3,0c-0.8-0.1-1.5-0.5-2.2-1   C222.5,529.7,221.9,529.1,221.5,528.4z"></path>		<path class="st4" d="M230.8,542.8l11.9-7.5c0.6-0.4,1.2-0.6,1.8-0.5c0.6,0,1.1,0.2,1.6,0.5c0.5,0.3,0.9,0.7,1.2,1.2   c0.2,0.4,0.4,0.7,0.5,1c0.1,0.3,0.2,0.5,0.2,0.7l-1.7,0.4c0-0.1-0.1-0.2-0.1-0.4c0-0.2-0.1-0.4-0.3-0.6c-0.3-0.5-0.7-0.8-1.1-0.9   c-0.4-0.1-0.9,0.1-1.4,0.4l-11.6,7.3L230.8,542.8z M243.7,540.1l-1.4,0.9l-3.6-5.7l1.4-0.9L243.7,540.1z"></path>		<path class="st4" d="M237.2,553.5c-0.6-1-1-2-1-3s0.3-2,0.8-2.9c0.6-0.9,1.4-1.7,2.5-2.4c1.1-0.7,2.1-1.1,3.2-1.2   c1.1-0.1,2.1,0,3,0.4c0.9,0.4,1.7,1.1,2.3,2c0.3,0.5,0.6,1.1,0.7,1.8c0.2,0.6,0.2,1.3,0,2s-0.5,1.4-1,2.1   c-0.5,0.7-1.2,1.3-2.2,1.9l-0.7,0.4l-5.1-8.1l1.4-0.9l4,6.4c0.6-0.4,1-0.8,1.4-1.3s0.5-1.1,0.5-1.7s-0.2-1.2-0.6-1.8   c-0.4-0.6-0.9-1.1-1.5-1.4s-1.2-0.4-1.9-0.3c-0.7,0.1-1.3,0.3-1.9,0.6l-0.9,0.6c-0.8,0.5-1.4,1.1-1.8,1.7   c-0.4,0.6-0.6,1.3-0.5,1.9c0,0.7,0.2,1.3,0.6,2c0.3,0.4,0.6,0.8,0.9,1c0.3,0.3,0.7,0.5,1.1,0.5c0.4,0.1,0.8,0.1,1.3,0l0.5,1.8   c-0.6,0.2-1.3,0.2-1.9,0c-0.6-0.1-1.3-0.4-1.8-0.9C238.2,554.8,237.7,554.2,237.2,553.5z"></path>		<path class="st4" d="M244.3,564.7c-0.6-1-1-2-1-3c0-1,0.3-2,0.8-2.9c0.6-0.9,1.4-1.7,2.5-2.4c1.1-0.7,2.1-1.1,3.2-1.2   c1.1-0.1,2.1,0,3,0.4c0.9,0.4,1.7,1.1,2.3,2c0.3,0.5,0.6,1.1,0.7,1.8s0.2,1.3,0,2c-0.1,0.7-0.5,1.4-1,2.1   c-0.5,0.7-1.2,1.3-2.2,1.9l-0.7,0.4l-5.1-8.1l1.4-0.9l4,6.4c0.6-0.4,1-0.8,1.4-1.3c0.3-0.5,0.5-1.1,0.5-1.7s-0.2-1.2-0.6-1.8   c-0.4-0.6-0.9-1.1-1.5-1.4c-0.6-0.3-1.2-0.4-1.9-0.3c-0.7,0.1-1.3,0.3-1.9,0.6l-0.9,0.6c-0.8,0.5-1.4,1.1-1.8,1.7   c-0.4,0.6-0.6,1.3-0.5,1.9c0,0.7,0.2,1.3,0.6,2c0.3,0.4,0.6,0.8,0.9,1c0.3,0.3,0.7,0.5,1.1,0.5s0.8,0.1,1.3,0l0.5,1.8   c-0.6,0.2-1.3,0.2-1.9,0c-0.6-0.1-1.3-0.4-1.8-0.9C245.2,566,244.7,565.4,244.3,564.7z"></path>		<path class="st4" d="M261.6,573.7l-1.3-1.2c0.2-0.2,0.3-0.5,0.5-0.8c0.1-0.3,0.2-0.7,0.1-1.1c0-0.4-0.2-0.8-0.5-1.3   c-0.4-0.6-0.9-1.1-1.4-1.3s-1.1-0.2-1.5,0.1c-0.4,0.3-0.6,0.6-0.7,1c0,0.4,0,1,0.3,1.7l0.6,1.8c0.4,1.1,0.5,2,0.3,2.8   c-0.2,0.8-0.6,1.4-1.4,1.8c-0.6,0.4-1.2,0.5-1.9,0.5c-0.7,0-1.4-0.3-2-0.7s-1.2-1.1-1.8-1.9c-0.7-1.1-1-2.1-1-3.1   c0-1,0.4-1.9,1.2-2.6l1.3,1.3c-0.5,0.5-0.7,1-0.7,1.6c0,0.6,0.2,1.2,0.6,1.9c0.5,0.8,1,1.2,1.6,1.5c0.6,0.2,1.1,0.2,1.6-0.1   c0.4-0.2,0.6-0.5,0.7-1s0-0.9-0.2-1.5l-0.7-2c-0.4-1.1-0.5-2-0.3-2.8c0.2-0.8,0.7-1.4,1.4-1.8c0.6-0.4,1.2-0.5,1.9-0.5   c0.7,0,1.3,0.3,1.9,0.7c0.6,0.4,1.2,1,1.6,1.7c0.7,1,0.9,2,0.9,2.9C262.5,572.2,262.1,573,261.6,573.7z"></path>	</g></g></svg>