<svg xmlns="http://www.w3.org/2000/svg" xmlns:xlink="http://www.w3.org/1999/xlink" id="Layer_1" x="0px" y="0px" viewBox="0 0 460 248" style="enable-background:new 0 0 460 248;" xml:space="preserve"><style type="text/css">	.st0{fill:none;stroke:#A7AFBB;stroke-dasharray:2,2;}	.st1{fill:#161821;}	.st2{fill:none;stroke:#323335;}	.st3{clip-path:url(#SVGID_2_);}	.st4{fill:#FFFFFF;}	.st5{fill:none;stroke:#FFFFFF;stroke-width:3.5;stroke-linecap:round;stroke-linejoin:round;}	.st6{fill:none;stroke:#FFFFFF;stroke-width:3;stroke-linecap:round;stroke-linejoin:round;}	.st7{fill:none;stroke:#FFFFFF;stroke-width:3;}	.st8{fill:none;stroke:#FFFFFF;stroke-width:3;stroke-linecap:round;stroke-dasharray:3,6;}	.st9{fill:#14161F;}	.st10{fill:none;stroke:#FFFFFF;stroke-width:3.346;stroke-linecap:round;stroke-linejoin:round;}			.st11{opacity:0.5;fill:none;stroke:#FFFFFF;stroke-width:1.2448;stroke-linecap:round;stroke-linejoin:round;enable-background:new    ;}	.st12{fill:#FFFFFF;stroke:#FFFFFF;stroke-width:4.2857;stroke-linejoin:round;}	.st13{clip-path:url(#SVGID_4_);}</style><path class="st0" d="M43,210.5V41l186,169.5 M229,210.5V41 M229,210.5L418,41"></path><path class="st0" d="M417.5,211.5V41"></path><path class="st0" d="M229,41L43.5,210"></path><path class="st0" d="M418,211.5L229,41"></path><path class="st0" d="M418,210H43"></path><path class="st0" d="M418,40H43"></path><path class="st0" d="M415.5,42l-371,166"></path><path class="st0" d="M42,42.5l374.5,168"></path><g>	<path class="st1" d="M18.5,164h47c9.9,0,18,8.1,18,18v47c0,9.9-8.1,18-18,18h-47c-9.9,0-18-8.1-18-18v-47  C0.5,172.1,8.6,164,18.5,164z"></path>	<path class="st2" d="M18.5,164.5h47c9.7,0,17.5,7.8,17.5,17.5v47c0,9.7-7.8,17.5-17.5,17.5h-47C8.8,246.5,1,238.7,1,229v-47  C1,172.3,8.8,164.5,18.5,164.5z"></path></g><g>	<defs>		<rect id="SVGID_1_" x="24.5" y="188" width="35" height="35"></rect>	</defs>	<clipPath id="SVGID_2_">		<use xlink:href="#SVGID_1_" style="overflow:visible;"></use>	</clipPath>	<g class="st3">		<path class="st4" d="M24.5,197.9l14.2,0l0.1,17.3l-7.2,0l0-10.4l-7.1,0L24.5,197.9z"></path>		<path class="st4" d="M44,204.5c2,0,3.6-1.5,3.6-3.5c0-1.9-1.6-3.5-3.6-3.5c-2,0-3.6,1.5-3.6,3.5C40.4,203,42,204.5,44,204.5z"></path>		<path class="st4" d="M51.3,197.9l8.2,0L52,215l-8.2,0L51.3,197.9L51.3,197.9z"></path>	</g></g><g>	<path class="st1" d="M205.5,164.5l47,0c9.9,0,18,8,18,18l0,47c0,9.9-8,18-18,18l-47,0c-9.9,0-18-8-18-18l0-47  C187.5,172.6,195.5,164.5,205.5,164.5z"></path>	<path class="st2" d="M205.5,165l47,0c9.7,0,17.5,7.8,17.5,17.5l0,47c0,9.7-7.8,17.5-17.5,17.5l-47,0c-9.7,0-17.5-7.8-17.5-17.5  l0-47C188,172.9,195.8,165,205.5,165z"></path></g><path class="st5" d="M211.7,223.7l35-0.4"></path><path class="st5" d="M211.3,188.7l35-0.4"></path><path class="st5" d="M242.1,200.9l-9.7,10l-9.9-6.4l-6.5,6.6"></path><g>	<path class="st1" d="M394.5,164h47c9.9,0,18,8.1,18,18v47c0,9.9-8.1,18-18,18h-47c-9.9,0-18-8.1-18-18v-47  C376.5,172.1,384.6,164,394.5,164z"></path>	<path class="st2" d="M394.5,164.5h47c9.7,0,17.5,7.8,17.5,17.5v47c0,9.7-7.8,17.5-17.5,17.5h-47c-9.7,0-17.5-7.8-17.5-17.5v-47  C377,172.3,384.8,164.5,394.5,164.5z"></path></g><path class="st6" d="M426.3,212.9c0-4-2.3-5.5-3.2-6.4c-2.3-2.3-4.7-4.1-4.7-9.1"></path><circle class="st7" cx="418.5" cy="193.3" r="3.8"></circle><path class="st8" d="M404.7,221.5l12.8-7.2c0.3-0.2,0.7-0.2,1,0l12.8,7.2"></path><path class="st6" d="M413.2,210.9l-3-2v4c0,4.4,4.6,8.1,8.1,8.1c1,0,1.8-0.1,2.4-0.2"></path><g>	<path class="st9" d="M18.5,0h47c9.9,0,18,8.1,18,18v47c0,9.9-8.1,18-18,18h-47c-9.9,0-18-8.1-18-18V18C0.5,8.1,8.6,0,18.5,0z"></path>	<path class="st2" d="M18.5,0.5h47C75.2,0.5,83,8.3,83,18v47c0,9.7-7.8,17.5-17.5,17.5h-47C8.8,82.5,1,74.7,1,65V18  C1,8.3,8.8,0.5,18.5,0.5z"></path></g><path class="st10" d="M55.1,24v17.5"></path><path class="st10" d="M48.6,43.7v2.2"></path><path class="st10" d="M42,48.1v4.4"></path><path class="st10" d="M35.4,45.9v6.6"></path><path class="st10" d="M28.9,39.3v6.6"></path><path class="st11" d="M55.1,24v21.9"></path><path class="st11" d="M48.6,39.3v15.3"></path><path class="st11" d="M42,37.1v15.3"></path><path class="st11" d="M35.4,43.7v10.9"></path><path class="st11" d="M28.9,34.9v15.3"></path><path class="st10" d="M24.5,59h35"></path><path class="st10" d="M24.5,24h35"></path><g>	<path class="st1" d="M393,0h47c9.9,0,18,8.1,18,18v47c0,9.9-8.1,18-18,18h-47c-9.9,0-18-8.1-18-18V18C375,8.1,383.1,0,393,0z"></path>	<path class="st2" d="M393,0.5h47c9.7,0,17.5,7.8,17.5,17.5v47c0,9.7-7.8,17.5-17.5,17.5h-47c-9.7,0-17.5-7.8-17.5-17.5V18  C375.5,8.3,383.3,0.5,393,0.5z"></path></g><path class="st12" d="M426.5,36.4h-10v9.8h10V36.4z"></path><path class="st5" d="M426.5,53.5h7.5V29.1h-7.5"></path><path class="st5" d="M406.5,53.5H399V29.1h7.5"></path><g>	<path class="st1" d="M206,0h47c9.9,0,18,8.1,18,18v47c0,9.9-8.1,18-18,18h-47c-9.9,0-18-8.1-18-18V18C188,8.1,196.1,0,206,0z"></path>	<path class="st2" d="M206,0.5h47c9.7,0,17.5,7.8,17.5,17.5v47c0,9.7-7.8,17.5-17.5,17.5h-47c-9.7,0-17.5-7.8-17.5-17.5V18  C188.5,8.3,196.3,0.5,206,0.5z"></path></g><g>	<defs>		<rect id="SVGID_3_" x="212" y="24" width="35" height="35"></rect>	</defs>	<clipPath id="SVGID_4_">		<use xlink:href="#SVGID_3_" style="overflow:visible;"></use>	</clipPath>	<g class="st13">		<path class="st6" d="M218.7,47.4h1.6"></path>		<path class="st6" d="M236.7,34.2h1.6"></path>		<path class="st6" d="M225.6,43.7c-1-1-1.4-2.6-1.1-4c0.4-1.4,1.5-2.5,2.9-2.9c1.4-0.4,2.9,0,4,1.1"></path>		<path class="st6" d="M225.2,52.3h-6.6c-2.7,0-4.9-2.2-4.9-4.9V34.2c0-2.7,2.2-4.9,4.9-4.9h19.7c2.7,0,4.9,2.2,4.9,4.9v4.9"></path>		<ellipse class="st6" cx="237.6" cy="49.8" rx="7.4" ry="7.4"></ellipse>		<path class="st6" d="M240,49.8h-4.9"></path>	</g></g></svg>