<svg xmlns="http://www.w3.org/2000/svg" width="20" height="20" viewBox="0 0 20 20" fill="none"><path fill-rule="evenodd" clip-rule="evenodd" d="M15.1016 10.1272L9.70255 14.4464C9.30445 14.7649 8.73065 14.7332 8.37015 14.3727L5.63481 11.6374C5.27436 11.2769 5.24258 10.703 5.56102 10.3049L9.88025 4.90597C11.8553 2.43716 14.8455 1 18.0071 1C18.5596 1 19.0075 1.4479 19.0075 2.00042C19.0075 5.16203 17.5704 8.15225 15.1016 10.1272Z" stroke="white" stroke-width="1.5" stroke-linecap="round" stroke-linejoin="round"></path><path d="M14.0055 11.0042V15.3879C14.0055 15.7669 13.7914 16.1134 13.4524 16.2828L11.0355 17.4913C10.7761 17.621 10.4732 17.6318 10.2053 17.5208C9.93732 17.4098 9.73072 17.188 9.63902 16.9129L9.00342 15.0059" stroke="white" stroke-width="1.5" stroke-linecap="round" stroke-linejoin="round"></path><path d="M5.00166 11.004L3.0947 10.3684C2.81957 10.2767 2.59778 10.0701 2.4868 9.80212C2.37582 9.53422 2.38657 9.23132 2.51626 8.97192L3.72476 6.55497C3.89421 6.21607 4.24059 6.00195 4.6195 6.00195H9.00334" stroke="white" stroke-width="1.5" stroke-linecap="round" stroke-linejoin="round"></path><path fill-rule="evenodd" clip-rule="evenodd" d="M3.75124 18.594L1 19.0073L1.41332 16.2561C1.5474 15.3636 2.24802 14.663 3.14053 14.5289C3.78548 14.432 4.43815 14.6469 4.89931 15.1081C5.36048 15.5692 5.57541 16.2219 5.4785 16.8669C5.3444 17.7594 4.64375 18.46 3.75124 18.594Z" stroke="white" stroke-width="1.5" stroke-linecap="round" stroke-linejoin="round"></path></svg>