<svg xmlns="http://www.w3.org/2000/svg" xmlns:xlink="http://www.w3.org/1999/xlink" id="Layer_1" data-name="Layer 1" viewBox="0 0 1583 1362"><defs><style>.cls-1{fill:none;}.cls-2{fill:#12141b;}.cls-3{fill:#4ad9a6;}.cls-4{fill:#34353c;}.cls-5{fill:#4d7bff;}.cls-6{fill:#fff;}.cls-7{fill:#d9d9d9;}.cls-8{clip-path:url(#clip-path);}</style><clipPath id="clip-path"><rect class="cls-1" x="199.5" y="910.5" width="75" height="75.1"></rect></clipPath></defs><circle class="cls-2" cx="1868" cy="680" r="700"></circle><circle class="cls-3" cx="60" cy="679" r="43"></circle><circle class="cls-4" cx="766" cy="679" r="168"></circle><circle class="cls-5" cx="237" cy="948" r="96"></circle><path class="cls-6" d="M237,1066A117,117,0,1,1,354,949,117.15,117.15,0,0,1,237,1066Zm0-233A116,116,0,1,0,353,949,116.08,116.08,0,0,0,237,833Z"></path><path class="cls-6" d="M113,647.5a.52.52,0,0,1-.4-.2.53.53,0,0,1,.2-.7L174.9,607H589.3a.5.5,0,0,1,0,1H175.2l-61.9,39.4A.37.37,0,0,1,113,647.5Z"></path><path class="cls-7" d="M60,739a60,60,0,1,1,60-60A60,60,0,0,1,60,739Zm0-119a59,59,0,1,0,59,59A59.11,59.11,0,0,0,60,620Z"></path><path class="cls-6" d="M766,870c-105.3,0-191-85.7-191-191s85.7-191,191-191,191,85.7,191,191S871.3,870,766,870Zm0-381c-104.8,0-190,85.2-190,190s85.2,190,190,190,190-85.2,190-190S870.8,489,766,489Z"></path><path class="cls-5" d="M421.6,952.5H353.5a.5.5,0,0,1,0-1h67.8L635.2,819.1a.51.51,0,0,1,.5.9Z"></path><path class="cls-3" d="M176.5,849.5a.52.52,0,0,1-.4-.2l-84-119.5a.5.5,0,0,1,.8-.6l84,119.5a.49.49,0,0,1-.1.7A.37.37,0,0,1,176.5,849.5Z"></path><path class="cls-3" d="M281,841.5a.52.52,0,0,1-.4-.2.53.53,0,0,1,.2-.7L439.9,739.5H585.5a.5.5,0,0,1,0,1H440.1L281.3,841.4A.37.37,0,0,1,281,841.5Z"></path><path class="cls-6" d="M341,895.5a.52.52,0,0,1-.4-.2.53.53,0,0,1,.2-.7L526.4,781.5H606a.5.5,0,0,1,0,1H526.6L341.3,895.4A.37.37,0,0,1,341,895.5Z"></path><path class="cls-5" d="M954,652.2a.52.52,0,0,1-.4-.2.53.53,0,0,1,.2-.7l63.6-40.3H1148a.5.5,0,0,1,0,1H1017.6l-63.4,40.1C954.2,652.2,954.1,652.2,954,652.2Z"></path><path class="cls-6" d="M1868,1403A722.73,722.73,0,0,1,1356.8,168.9,720.09,720.09,0,0,1,1586.6,14c89.1-37.9,183.8-57,281.4-57a722.73,722.73,0,0,1,511.2,1234.1A720.09,720.09,0,0,1,2149.4,1346C2060.3,1383.9,1965.6,1403,1868,1403Zm0-1445a721.73,721.73,0,0,0-510.5,1232.4A722,722,0,1,0,2149,14.7,718,718,0,0,0,1868-42Z"></path><path class="cls-6" d="M699.1,686.1V667.3h7.1a5.46,5.46,0,0,1,5.5,5.5,4.63,4.63,0,0,1-1.3,3.2,4.14,4.14,0,0,1,1.9,1.8,4.84,4.84,0,0,1,.7,2.6,5,5,0,0,1-1.6,3.9,5.58,5.58,0,0,1-4.1,1.6h-8.2Zm4.2-3.9H707a2.17,2.17,0,0,0,1.4-.5,1.76,1.76,0,0,0,.6-1.3,1.61,1.61,0,0,0-.6-1.3,1.82,1.82,0,0,0-1.4-.6h-3.7Zm0-7.3h2.4a2.17,2.17,0,0,0,1.4-.5,1.76,1.76,0,0,0,.6-1.3,1.61,1.61,0,0,0-.6-1.3,1.82,1.82,0,0,0-1.4-.6h-2.4Zm10.5,11.2V672.9h4v1.5a2.54,2.54,0,0,1,1.1-1.2,3.45,3.45,0,0,1,1.8-.5,4.15,4.15,0,0,1,1.6.3l-.6,3.7a2,2,0,0,0-1.1-.2,3.11,3.11,0,0,0-2.8,1.2v8.4Zm19.6-1.7a7,7,0,0,1-4.9,2,6.8,6.8,0,0,1-4.9-2,6.42,6.42,0,0,1-2-4.9,6.8,6.8,0,0,1,2-4.9,7,7,0,0,1,4.9-2,6.8,6.8,0,0,1,4.9,2,6.42,6.42,0,0,1,2,4.9A6.8,6.8,0,0,1,733.4,684.4Zm-7.1-2.6a2.9,2.9,0,0,0,4.2,0,3,3,0,0,0,.8-2.3,3.37,3.37,0,0,0-.8-2.3,2.58,2.58,0,0,0-2.1-.9,2.72,2.72,0,0,0-2.1.9,3.71,3.71,0,0,0,0,4.6Zm18.9,4.3-4.9-5.9v5.9h-4V666.8h4v10.8l3.9-4.7h4.7l-4.9,6,6,7.2Zm9.8.3a6.78,6.78,0,0,1-5-1.9,6.7,6.7,0,0,1-2-5,6.63,6.63,0,0,1,2-4.9,6.86,6.86,0,0,1,5-2,7,7,0,0,1,4.7,1.7,5.91,5.91,0,0,1,1.9,4.8,6.15,6.15,0,0,1-.1,1.4h-9.6a2.26,2.26,0,0,0,1.1,1.7,3.7,3.7,0,0,0,2.1.6,3.81,3.81,0,0,0,1.9-.4,3.61,3.61,0,0,0,1.3-1.1l3,2.2a6.07,6.07,0,0,1-2.6,2.1A9.46,9.46,0,0,1,755,686.4Zm-3.1-8.6h5.6a2.68,2.68,0,0,0-1-1.5,3.37,3.37,0,0,0-1.7-.5,3.45,3.45,0,0,0-1.8.5A2.17,2.17,0,0,0,751.9,677.8Zm10.5,8.3V672.9h4v1.5a2.54,2.54,0,0,1,1.1-1.2,3.45,3.45,0,0,1,1.8-.5,4.15,4.15,0,0,1,1.6.3l-.6,3.7a2,2,0,0,0-1.1-.2,3.11,3.11,0,0,0-2.8,1.2v8.4Zm6.3,2.9,10.2-21.7h3.6L772.3,689Zm25.7-19.8a6,6,0,0,1,1.9,4.6,6.19,6.19,0,0,1-1.9,4.6,6.57,6.57,0,0,1-4.7,1.8h-2.2v6h-4.2V667.4h6.4A5.71,5.71,0,0,1,794.4,669.2Zm-2.2,4.5a2.06,2.06,0,0,0-.7-1.7,2.49,2.49,0,0,0-1.9-.7h-2.1v4.9h2.1a2.64,2.64,0,0,0,1.9-.7A2.41,2.41,0,0,0,792.2,673.7Zm4.6,12.4V672.9h4v1.5a2.54,2.54,0,0,1,1.1-1.2,3.45,3.45,0,0,1,1.8-.5,4.15,4.15,0,0,1,1.6.3l-.6,3.7a2,2,0,0,0-1.1-.2,3.11,3.11,0,0,0-2.8,1.2v8.4Zm19.5-1.7a7,7,0,0,1-4.9,2,6.8,6.8,0,0,1-4.9-2,6.42,6.42,0,0,1-2-4.9,6.8,6.8,0,0,1,2-4.9,7,7,0,0,1,4.9-2,6.8,6.8,0,0,1,4.9,2,6.42,6.42,0,0,1,2,4.9A6.08,6.08,0,0,1,816.3,684.4Zm-7-2.6a2.9,2.9,0,0,0,4.2,0,3,3,0,0,0,.8-2.3,3.37,3.37,0,0,0-.8-2.3,2.9,2.9,0,0,0-4.2,0,3.71,3.71,0,0,0,0,4.6Zm10,9.4V672.8h4v.8a4.69,4.69,0,0,1,3.1-1.1,6.19,6.19,0,0,1,4.7,2,7.06,7.06,0,0,1,1.8,4.9,7.24,7.24,0,0,1-1.8,4.9,6.19,6.19,0,0,1-4.7,2,4.5,4.5,0,0,1-3.1-1.1v6Zm6.5-8.4a2.39,2.39,0,0,0,2.1-1,3.09,3.09,0,0,0,.8-2.3,3.57,3.57,0,0,0-.8-2.3,2.81,2.81,0,0,0-2.1-1,3,3,0,0,0-2.5,1.2v4A2.85,2.85,0,0,0,825.8,682.8Z"></path><path class="cls-6" d="M1280.3,689V670.2h3.8l5.8,9.6,5.9-9.6h3.8V689h-4.2V678.3l-4.1,6.7h-2.8l-4.1-6.8V689Zm26.8.3a6.19,6.19,0,0,1-4.7-2,7.57,7.57,0,0,1,0-9.8,5.86,5.86,0,0,1,4.7-2,4.5,4.5,0,0,1,3.1,1.1v-.8h4V689h-4v-.8A4.5,4.5,0,0,1,1307.1,689.3Zm.6-3.6a2.88,2.88,0,0,0,2.5-1.3v-4a3.17,3.17,0,0,0-2.5-1.2,2.7,2.7,0,0,0-2.2,1,3.2,3.2,0,0,0,2.2,5.5Zm8.3,3.3V675.8h4v1.5a2.54,2.54,0,0,1,1.1-1.2,3.45,3.45,0,0,1,1.8-.5,4.15,4.15,0,0,1,1.6.3l-.6,3.7a2,2,0,0,0-1.1-.2,3.11,3.11,0,0,0-2.8,1.2V689Zm17.7,0-4.9-5.9V689h-4V669.7h4v10.8l3.9-4.7h4.7l-4.9,6,6,7.2Zm9.8.3a6.78,6.78,0,0,1-5-1.9,6.7,6.7,0,0,1-2-5,6.63,6.63,0,0,1,2-4.9,6.86,6.86,0,0,1,5-2,7.14,7.14,0,0,1,4.7,1.7,5.91,5.91,0,0,1,1.9,4.8,6.15,6.15,0,0,1-.1,1.4h-9.6a2.26,2.26,0,0,0,1.1,1.7,4.5,4.5,0,0,0,4.1.2,3.61,3.61,0,0,0,1.3-1.1l3,2.2a6.07,6.07,0,0,1-2.6,2.1A9.57,9.57,0,0,1,1343.5,689.3Zm-3.1-8.6h5.6a2.68,2.68,0,0,0-1-1.5,3.37,3.37,0,0,0-1.7-.5,3.45,3.45,0,0,0-1.8.5A2.7,2.7,0,0,0,1340.4,680.7Zm17.6,8.5a5.58,5.58,0,0,1-3.9-1.3,4.54,4.54,0,0,1-1.5-3.7v-4.9h-3.2v-3.5h3.2v-4h4v4h4v3.5h-4v4.1a2.65,2.65,0,0,0,.5,1.7,2.07,2.07,0,0,0,1.5.5,3.42,3.42,0,0,0,1.8-.4l1.2,3.3a6.77,6.77,0,0,1-1.6.6C1359.3,689.1,1358.6,689.2,1358,689.2Z"></path><path class="cls-6" d="M60,692.8A13.8,13.8,0,1,1,73.8,679,13.83,13.83,0,0,1,60,692.8Zm0-25.5A11.7,11.7,0,1,0,71.7,679,11.71,11.71,0,0,0,60,667.3Z"></path><path class="cls-6" d="M65.7,685.7a1.2,1.2,0,0,1-1-.7,1.79,1.79,0,0,0-.5-.7,2.11,2.11,0,0,0-1.3-.5H57.1a1.9,1.9,0,0,0-1.3.5,1.79,1.79,0,0,0-.5.7,1.08,1.08,0,0,1-2-.8,4,4,0,0,1,1-1.5,4.11,4.11,0,0,1,2.8-1.1h5.8a4.3,4.3,0,0,1,2.8,1.1,4,4,0,0,1,1,1.5,1.16,1.16,0,0,1-.6,1.4A.76.76,0,0,1,65.7,685.7Z"></path><path class="cls-6" d="M60,680.8a4.33,4.33,0,0,1-4.3-4.3,4.3,4.3,0,0,1,8.6,0A4.33,4.33,0,0,1,60,680.8Zm0-6.4a2.11,2.11,0,0,0-2.1,2.1,2.1,2.1,0,0,0,4.2,0A2.11,2.11,0,0,0,60,674.4Z"></path><path class="cls-6" d="M237.6,585h-1.2a1.88,1.88,0,0,0-.4-.9,2.34,2.34,0,0,0-.7-.7,2.47,2.47,0,0,0-.9-.4,3.08,3.08,0,0,0-1-.1,3.37,3.37,0,0,0-1.7.5,3.33,3.33,0,0,0-1.2,1.4,6.25,6.25,0,0,0,0,4.4,3.33,3.33,0,0,0,1.2,1.4,3.63,3.63,0,0,0,2.7.4,3.55,3.55,0,0,0,.9-.4,2.34,2.34,0,0,0,.7-.7,3.55,3.55,0,0,0,.4-.9h1.2a5.78,5.78,0,0,1-.5,1.4,2.93,2.93,0,0,1-.9,1,7.46,7.46,0,0,1-1.2.7,3.4,3.4,0,0,1-1.4.2,4.38,4.38,0,0,1-2.3-.6,4,4,0,0,1-1.6-1.8,6.83,6.83,0,0,1,0-5.6,4,4,0,0,1,1.6-1.8,4.38,4.38,0,0,1,2.3-.6,5.9,5.9,0,0,1,1.4.2,2.4,2.4,0,0,1,1.2.7,2.84,2.84,0,0,1,.9,1A2.7,2.7,0,0,1,237.6,585Zm1.8,7v-7.6h1.1v1.2h.1a1.42,1.42,0,0,1,.8-.9,2.84,2.84,0,0,1,1.2-.4h.6v1.2h-.7a3,3,0,0,0-1,.2,4.35,4.35,0,0,0-.7.6,1.49,1.49,0,0,0-.2.9V592Zm8.2.2a3.83,3.83,0,0,1-1.9-.5,3.33,3.33,0,0,1-1.2-1.4,5.71,5.71,0,0,1,0-4.2,3.33,3.33,0,0,1,1.2-1.4,3.45,3.45,0,0,1,1.8-.5,5,5,0,0,1,1.2.2,3,3,0,0,1,1.1.6,3.6,3.6,0,0,1,.8,1.2,4.84,4.84,0,0,1,.3,1.8v.5H245v-1h4.7a2.66,2.66,0,0,0-.3-1.2,2.7,2.7,0,0,0-.7-.8,2,2,0,0,0-1.1-.3,2.13,2.13,0,0,0-1.2.3,2.36,2.36,0,0,0-.8.9,2.66,2.66,0,0,0-.3,1.2v.7a3.34,3.34,0,0,0,.3,1.5,2.36,2.36,0,0,0,.8.9,2.66,2.66,0,0,0,1.2.3,2,2,0,0,0,.8-.1,1.53,1.53,0,0,0,1.1-1.1l1.1.3a2.07,2.07,0,0,1-.6,1,3.59,3.59,0,0,1-1,.7A2.3,2.3,0,0,1,247.6,592.2Zm7.2,0a2.77,2.77,0,0,1-1.3-.3,2.36,2.36,0,0,1-.9-.8,2.77,2.77,0,0,1-.3-1.3,2,2,0,0,1,.3-1.1,1.34,1.34,0,0,1,.7-.6,1.69,1.69,0,0,1,1-.3c.4-.1.7-.1,1.1-.2a4.91,4.91,0,0,1,1.1-.1.85.85,0,0,0,.6-.2.52.52,0,0,0,.2-.4h0a1.25,1.25,0,0,0-.4-1.1,1.59,1.59,0,0,0-1.2-.4,1.7,1.7,0,0,0-1.3.4,2.7,2.7,0,0,0-.7.8l-1.1-.4a3.13,3.13,0,0,1,.8-1.1,2.22,2.22,0,0,1,1.1-.5,5,5,0,0,1,1.2-.2,2.49,2.49,0,0,1,.8.1,3.55,3.55,0,0,1,.9.4,2,2,0,0,1,.8.8,3.06,3.06,0,0,1,.3,1.5v5h-1.2v-1h-.1a1.76,1.76,0,0,1-.4.5,1.79,1.79,0,0,1-.7.5A5.63,5.63,0,0,0,254.8,592.2Zm.2-1.1a2.13,2.13,0,0,0,1.2-.3,1.58,1.58,0,0,0,.7-.7,1.49,1.49,0,0,0,.2-.9v-1.1c-.1.1-.2.1-.3.2s-.4.1-.6.1-.4.1-.6.1a.75.75,0,0,0-.5.1,2.92,2.92,0,0,0-.9.2.92.92,0,0,0-.6.4.84.84,0,0,0-.2.7,1.05,1.05,0,0,0,.5.9A1.61,1.61,0,0,0,255,591.1Zm8.7-6.7v1h-4v-1Zm-2.8-1.9h1.2v7.3c0,.3,0,.6.1.7s.2.3.4.3a.9.9,0,0,0,.5.1h.5l.2,1.1c-.1,0-.2.1-.3.1H263a3.55,3.55,0,0,1-1-.2,1.78,1.78,0,0,1-.8-.7,2,2,0,0,1-.3-1.1v-7.6Zm7.7,9.7a3.83,3.83,0,0,1-1.9-.5,3.33,3.33,0,0,1-1.2-1.4,5.71,5.71,0,0,1,0-4.2,3.33,3.33,0,0,1,1.2-1.4,3.45,3.45,0,0,1,1.8-.5,5,5,0,0,1,1.2.2,3,3,0,0,1,1.1.6,3.6,3.6,0,0,1,.8,1.2,4.84,4.84,0,0,1,.3,1.8v.5H266v-1h4.7a2.66,2.66,0,0,0-.3-1.2,2.7,2.7,0,0,0-.7-.8,2,2,0,0,0-1.1-.3,2.13,2.13,0,0,0-1.2.3,2.36,2.36,0,0,0-.8.9,2.66,2.66,0,0,0-.3,1.2v.7a3.34,3.34,0,0,0,.3,1.5,2.36,2.36,0,0,0,.8.9,2.66,2.66,0,0,0,1.2.3,2,2,0,0,0,.8-.1,1.53,1.53,0,0,0,1.1-1.1l1.1.3a2.07,2.07,0,0,1-.6,1,3.59,3.59,0,0,1-1,.7A2.12,2.12,0,0,1,268.6,592.2Zm10.4-6.1-1.1.3c-.1-.2-.2-.3-.3-.5a1,1,0,0,0-.5-.4,1.88,1.88,0,0,0-.8-.2,2.13,2.13,0,0,0-1.2.3,1,1,0,0,0-.5.8.91.91,0,0,0,.3.7,1.88,1.88,0,0,0,1,.4l1.1.3a2.68,2.68,0,0,1,1.5.8,1.9,1.9,0,0,1,.5,1.3,1.92,1.92,0,0,1-.4,1.2,2.72,2.72,0,0,1-1,.8,3.81,3.81,0,0,1-1.6.3,3.56,3.56,0,0,1-1.9-.5,2.38,2.38,0,0,1-1-1.5l1.1-.3a1.46,1.46,0,0,0,.6.9,2.13,2.13,0,0,0,1.2.3,2.5,2.5,0,0,0,1.3-.3,1,1,0,0,0,.5-.8.91.91,0,0,0-.3-.7,1.88,1.88,0,0,0-.9-.4l-1.3-.3a2.68,2.68,0,0,1-1.5-.8,2.11,2.11,0,0,1-.5-1.3,1.5,1.5,0,0,1,.4-1.1,2.72,2.72,0,0,1,1-.8,3.46,3.46,0,0,1,3.2.2A2,2,0,0,1,279,586.1Zm8.1,6.1a2.77,2.77,0,0,1-1.3-.3,2.36,2.36,0,0,1-.9-.8,2.77,2.77,0,0,1-.3-1.3,2,2,0,0,1,.3-1.1,1.34,1.34,0,0,1,.7-.6,1.69,1.69,0,0,1,1-.3c.4-.1.7-.1,1.1-.2a4.91,4.91,0,0,1,1.1-.1.85.85,0,0,0,.6-.2.52.52,0,0,0,.2-.4h0a1.25,1.25,0,0,0-.4-1.1,1.59,1.59,0,0,0-1.2-.4,1.7,1.7,0,0,0-1.3.4,5,5,0,0,0-.7.8l-1.1-.4a3.13,3.13,0,0,1,.8-1.1,2.22,2.22,0,0,1,1.1-.5,5,5,0,0,1,1.2-.2,2.49,2.49,0,0,1,.8.1,3.55,3.55,0,0,1,.9.4,2,2,0,0,1,.8.8,3.06,3.06,0,0,1,.3,1.5v5h-1.2v-1h-.1a1.76,1.76,0,0,1-.4.5,1.79,1.79,0,0,1-.7.5A5.63,5.63,0,0,0,287.1,592.2Zm.2-1.1a2.13,2.13,0,0,0,1.2-.3,1.58,1.58,0,0,0,.7-.7,1.49,1.49,0,0,0,.2-.9v-1.1c-.1.1-.2.1-.3.2s-.4.1-.6.1-.4.1-.6.1a.75.75,0,0,0-.5.1,2.92,2.92,0,0,0-.9.2.92.92,0,0,0-.6.4.84.84,0,0,0-.2.7,1.05,1.05,0,0,0,.5.9A1.61,1.61,0,0,0,287.3,591.1Zm8.5,1.1a4.14,4.14,0,0,1-1.9-.5,3.33,3.33,0,0,1-1.2-1.4,4.48,4.48,0,0,1-.4-2,4.64,4.64,0,0,1,.4-2.1,3.33,3.33,0,0,1,1.2-1.4,3.45,3.45,0,0,1,1.8-.5,4,4,0,0,1,1.5.3,4.44,4.44,0,0,1,1.1.8,3,3,0,0,1,.5,1.3h-1.2a1.8,1.8,0,0,0-.6-.9,2,2,0,0,0-2.4,0,2.72,2.72,0,0,0-.8,1,3.9,3.9,0,0,0,0,3,2.72,2.72,0,0,0,.8,1,2.14,2.14,0,0,0,1.2.4,1.88,1.88,0,0,0,.8-.2,1.47,1.47,0,0,0,.6-.5,1.61,1.61,0,0,0,.4-.7h1.2a2.2,2.2,0,0,1-.5,1.2,4.3,4.3,0,0,1-1,.9A3.34,3.34,0,0,1,295.8,592.2Zm7.8,0a4.14,4.14,0,0,1-1.9-.5,3.33,3.33,0,0,1-1.2-1.4,4.48,4.48,0,0,1-.4-2,4.64,4.64,0,0,1,.4-2.1,3.33,3.33,0,0,1,1.2-1.4,3.45,3.45,0,0,1,1.8-.5,4,4,0,0,1,1.5.3,4.44,4.44,0,0,1,1.1.8,3,3,0,0,1,.5,1.3h-1.2a1.8,1.8,0,0,0-.6-.9,2,2,0,0,0-2.4,0,2.72,2.72,0,0,0-.8,1,3.9,3.9,0,0,0,0,3,2.72,2.72,0,0,0,.8,1,2.14,2.14,0,0,0,1.2.4,1.88,1.88,0,0,0,.8-.2,1.47,1.47,0,0,0,.6-.5,1.61,1.61,0,0,0,.4-.7h1.2a2.2,2.2,0,0,1-.5,1.2,4.3,4.3,0,0,1-1,.9A3.34,3.34,0,0,1,303.6,592.2Zm7.9,0a3.45,3.45,0,0,1-1.8-.5,3.33,3.33,0,0,1-1.2-1.4,5.71,5.71,0,0,1,0-4.2,3.33,3.33,0,0,1,1.2-1.4,3.49,3.49,0,0,1,3.6,0,3.33,3.33,0,0,1,1.2,1.4,5.71,5.71,0,0,1,0,4.2,4.07,4.07,0,0,1-1.2,1.4A3.45,3.45,0,0,1,311.5,592.2Zm0-1.1a1.84,1.84,0,0,0,1.3-.4,3.13,3.13,0,0,0,.8-1.1,3.18,3.18,0,0,0,.2-1.4,5.9,5.9,0,0,0-.2-1.4,2.84,2.84,0,0,0-.8-1.1,2.31,2.31,0,0,0-2.6,0,3.13,3.13,0,0,0-.8,1.1,3.18,3.18,0,0,0-.2,1.4,5.9,5.9,0,0,0,.2,1.4,2.84,2.84,0,0,0,.8,1.1A1.7,1.7,0,0,0,311.5,591.1Zm10-2.2v-4.5h1.2V592h-1.2v-1.3h-.1a3.92,3.92,0,0,1-.8,1,2.3,2.3,0,0,1-1.4.4,2.77,2.77,0,0,1-1.3-.3,1.79,1.79,0,0,1-.9-1,3.81,3.81,0,0,1-.3-1.6v-4.9h1.2v4.8a1.73,1.73,0,0,0,.5,1.3,1.66,1.66,0,0,0,1.2.5,2.92,2.92,0,0,0,.9-.2,1.78,1.78,0,0,0,.8-.7A3.09,3.09,0,0,0,321.5,588.9Zm4.5-1.5V592h-1.2v-7.6h1.1v1.2h.1a2.36,2.36,0,0,1,.8-.9,2.89,2.89,0,0,1,1.4-.4,3.19,3.19,0,0,1,1.4.3,1.79,1.79,0,0,1,.9,1,3.81,3.81,0,0,1,.3,1.6v4.9h-1.2v-4.8a2,2,0,0,0-.5-1.4,1.73,1.73,0,0,0-1.3-.5,3,3,0,0,0-1,.2,2.34,2.34,0,0,0-.7.7C326.1,586.6,326,587,326,587.4Zm10.4-3v1h-4v-1Zm-2.8-1.9h1.2v7.3c0,.3,0,.6.1.7s.2.3.4.3a.9.9,0,0,0,.5.1h.5l.2,1.1c-.1,0-.2.1-.3.1h-.5a3.55,3.55,0,0,1-1-.2,1.78,1.78,0,0,1-.8-.7,2,2,0,0,1-.3-1.1v-7.6Zm6.3,8.1-.1.5a5.27,5.27,0,0,1-.3,1.2,5.64,5.64,0,0,1-.4,1.2,4.65,4.65,0,0,1-.3.9H338a3.09,3.09,0,0,1,.2-.8c.1-.3.1-.7.2-1.2s.1-.9.2-1.3l.1-.6h1.2Zm9.4,1.4h-3.1V581.8h3.3a4.87,4.87,0,0,1,2.5.6,4.36,4.36,0,0,1,1.6,1.7,6,6,0,0,1,.6,2.7,5.4,5.4,0,0,1-.6,2.7,4.21,4.21,0,0,1-1.7,1.8A4.41,4.41,0,0,1,349.3,592Zm-1.9-1.1h1.8a4.65,4.65,0,0,0,2.1-.5,2.36,2.36,0,0,0,1.2-1.4,5.71,5.71,0,0,0,0-4.2,3.33,3.33,0,0,0-1.2-1.4,3.94,3.94,0,0,0-2-.5h-2v8Zm11.9,1.3a3.83,3.83,0,0,1-1.9-.5,3.33,3.33,0,0,1-1.2-1.4,5.71,5.71,0,0,1,0-4.2,3.33,3.33,0,0,1,1.2-1.4,3.45,3.45,0,0,1,1.8-.5,5,5,0,0,1,1.2.2,3,3,0,0,1,1.1.6,3.6,3.6,0,0,1,.8,1.2,4.84,4.84,0,0,1,.3,1.8v.5h-5.9v-1h4.7a2.66,2.66,0,0,0-.3-1.2,2.7,2.7,0,0,0-.7-.8,2,2,0,0,0-1.1-.3,2.13,2.13,0,0,0-1.2.3,2.36,2.36,0,0,0-.8.9,2.66,2.66,0,0,0-.3,1.2v.7a3.34,3.34,0,0,0,.3,1.5,2.36,2.36,0,0,0,.8.9,2.66,2.66,0,0,0,1.2.3,2,2,0,0,0,.8-.1,1.53,1.53,0,0,0,1.1-1.1l1.1.3a2.07,2.07,0,0,1-.6,1,3.59,3.59,0,0,1-1,.7A2.5,2.5,0,0,1,359.3,592.2Zm4.9,2.7V584.4h1.1v1.2h.1c.1-.1.2-.3.4-.5a4.35,4.35,0,0,1,.7-.6,2.17,2.17,0,0,1,1.2-.2,3.37,3.37,0,0,1,1.7.5,2.59,2.59,0,0,1,1.1,1.4,5.71,5.71,0,0,1,0,4.2,5.26,5.26,0,0,1-1.1,1.4,3.1,3.1,0,0,1-1.7.5,3.73,3.73,0,0,1-1.2-.2,4.35,4.35,0,0,1-.7-.6c-.2-.2-.3-.4-.4-.5h-.1v4h-1.1Zm1.2-6.7a3.34,3.34,0,0,0,.3,1.5,2.55,2.55,0,0,0,.7,1,2.14,2.14,0,0,0,1.2.4,1.59,1.59,0,0,0,1.2-.4,2.1,2.1,0,0,0,.7-1.1,3.34,3.34,0,0,0,.3-1.5,7.72,7.72,0,0,0-.2-1.5,2.55,2.55,0,0,0-.7-1,2,2,0,0,0-2.4,0,1.83,1.83,0,0,0-.7,1A2.28,2.28,0,0,0,365.4,588.2Zm10.4,4a3.45,3.45,0,0,1-1.8-.5,3.33,3.33,0,0,1-1.2-1.4,5.71,5.71,0,0,1,0-4.2,3.33,3.33,0,0,1,1.2-1.4,3.49,3.49,0,0,1,3.6,0,3.33,3.33,0,0,1,1.2,1.4,5.71,5.71,0,0,1,0,4.2,4.07,4.07,0,0,1-1.2,1.4A3.45,3.45,0,0,1,375.8,592.2Zm0-1.1a1.84,1.84,0,0,0,1.3-.4,3.13,3.13,0,0,0,.8-1.1,3.18,3.18,0,0,0,.2-1.4,5.9,5.9,0,0,0-.2-1.4,2.84,2.84,0,0,0-.8-1.1,2.31,2.31,0,0,0-2.6,0,3.13,3.13,0,0,0-.8,1.1,3.18,3.18,0,0,0-.2,1.4,5.9,5.9,0,0,0,.2,1.4,2.84,2.84,0,0,0,.8,1.1A2,2,0,0,0,375.8,591.1Zm10.7-5-1.1.3c-.1-.2-.2-.3-.3-.5a1,1,0,0,0-.5-.4,1.88,1.88,0,0,0-.8-.2,2.13,2.13,0,0,0-1.2.3,1,1,0,0,0-.5.8.91.91,0,0,0,.3.7,1.88,1.88,0,0,0,1,.4l1.1.3a2.68,2.68,0,0,1,1.5.8,1.9,1.9,0,0,1,.5,1.3,1.92,1.92,0,0,1-.4,1.2,2.72,2.72,0,0,1-1,.8,3.81,3.81,0,0,1-1.6.3,3.56,3.56,0,0,1-1.9-.5,2.38,2.38,0,0,1-1-1.5l1.1-.3a1.46,1.46,0,0,0,.6.9,2.13,2.13,0,0,0,1.2.3,2.5,2.5,0,0,0,1.3-.3,1,1,0,0,0,.5-.8.91.91,0,0,0-.3-.7,1.88,1.88,0,0,0-.9-.4l-1.3-.3a2.68,2.68,0,0,1-1.5-.8,2.11,2.11,0,0,1-.5-1.3,1.5,1.5,0,0,1,.4-1.1,2.72,2.72,0,0,1,1-.8,3.46,3.46,0,0,1,3.2.2A2,2,0,0,1,386.5,586.1Zm1.9,5.9v-7.6h1.2V592Zm.6-8.9a1.42,1.42,0,0,1-.6-.2c-.2-.2-.2-.3-.2-.6a1.42,1.42,0,0,1,.2-.6.73.73,0,0,1,.6-.2,1.42,1.42,0,0,1,.6.2c.2.2.2.3.2.6a.71.71,0,0,1-.8.8Zm6,1.3v1h-4v-1Zm-2.8-1.9h1.2v7.3c0,.3,0,.6.1.7s.2.3.4.3a.9.9,0,0,0,.5.1h.5l.2,1.1c-.1,0-.2.1-.3.1h-.5a3.55,3.55,0,0,1-1-.2,1.78,1.78,0,0,1-.8-.7,2,2,0,0,1-.3-1.1v-7.6Zm8.7,4.6v1.1h-4.5v-1.1Zm3.4,4.9-2.8-10.2h1.3l2.1,8.3h.1l2.2-8.3h1.4l2.2,8.3h.1l2.1-8.3h1.3L411.5,592h-1.3l-2.2-8.1h-.1l-2.2,8.1Zm11.2,0v-7.6h1.2V592Zm.6-8.9a1.42,1.42,0,0,1-.6-.2c-.2-.2-.2-.3-.2-.6a1.42,1.42,0,0,1,.2-.6.73.73,0,0,1,.6-.2,1.42,1.42,0,0,1,.6.2c.2.2.2.3.2.6a1.42,1.42,0,0,1-.2.6A.85.85,0,0,1,416.1,583.1Zm6.1,1.3v1h-4v-1Zm-2.8-1.9h1.2v7.3c0,.3,0,.6.1.7s.2.3.4.3a.9.9,0,0,0,.5.1h.5l.2,1.1c-.1,0-.2.1-.3.1h-.5a3.55,3.55,0,0,1-1-.2,1.78,1.78,0,0,1-.8-.7,2,2,0,0,1-.3-1.1v-7.6Zm5.9,4.9V592h-1.2V581.8h1.2v3.7h.1a1.76,1.76,0,0,1,.8-.9,2.89,2.89,0,0,1,1.4-.4,3.19,3.19,0,0,1,1.4.3,2,2,0,0,1,.9.9,3.81,3.81,0,0,1,.3,1.6v4.9H429v-4.8a2,2,0,0,0-.5-1.4,1.73,1.73,0,0,0-1.3-.5,3,3,0,0,0-1,.2,2.34,2.34,0,0,0-.7.7A6.88,6.88,0,0,0,425.3,587.4Zm10,4.8a3.37,3.37,0,0,1-1.7-.5,2.59,2.59,0,0,1-1.1-1.4,5.71,5.71,0,0,1,0-4.2,5.26,5.26,0,0,1,1.1-1.4,3.37,3.37,0,0,1,1.7-.5,3.73,3.73,0,0,1,1.2.2,2,2,0,0,1,.7.6c.2.2.3.4.4.5h.1v-3.8h1.2V592h-1.1v-1.2h-.1c-.1.1-.2.3-.4.5a4.35,4.35,0,0,1-.7.6A2.77,2.77,0,0,1,435.3,592.2Zm.1-1.1a1.59,1.59,0,0,0,1.2-.4,1.83,1.83,0,0,0,.7-1,3.34,3.34,0,0,0,.3-1.5,6.05,6.05,0,0,0-.2-1.5,2.55,2.55,0,0,0-.7-1,2.14,2.14,0,0,0-1.2-.4,1.59,1.59,0,0,0-1.2.4,2.29,2.29,0,0,0-.7,1,3.42,3.42,0,0,0-.2,1.5,7.72,7.72,0,0,0,.2,1.5,4.13,4.13,0,0,0,.7,1.1A1.61,1.61,0,0,0,435.4,591.1Zm5.7.9v-7.6h1.1v1.2h.1a1.42,1.42,0,0,1,.8-.9,2.84,2.84,0,0,1,1.2-.4h.6v1.2h-.7a3,3,0,0,0-1,.2,4.35,4.35,0,0,0-.7.6,1.49,1.49,0,0,0-.2.9V592Zm7.4.2a2.77,2.77,0,0,1-1.3-.3,2.36,2.36,0,0,1-.9-.8,2.77,2.77,0,0,1-.3-1.3,2,2,0,0,1,.3-1.1,1.34,1.34,0,0,1,.7-.6,2.93,2.93,0,0,1,1-.3c.4-.1.7-.1,1.1-.2a4.91,4.91,0,0,1,1.1-.1.85.85,0,0,0,.6-.2.52.52,0,0,0,.2-.4h0a1.25,1.25,0,0,0-.4-1.1,1.59,1.59,0,0,0-1.2-.4,1.7,1.7,0,0,0-1.3.4,5,5,0,0,0-.7.8l-1.1-.4a3.13,3.13,0,0,1,.8-1.1,2.22,2.22,0,0,1,1.1-.5,5,5,0,0,1,1.2-.2,2.49,2.49,0,0,1,.8.1,3.55,3.55,0,0,1,.9.4,2,2,0,0,1,.8.8,3.06,3.06,0,0,1,.3,1.5v5H451v-1h-.1a1.76,1.76,0,0,1-.4.5,1.79,1.79,0,0,1-.7.5A5.63,5.63,0,0,0,448.5,592.2Zm.2-1.1a2.13,2.13,0,0,0,1.2-.3,1.58,1.58,0,0,0,.7-.7,1.49,1.49,0,0,0,.2-.9v-1.1c0,.1-.2.1-.3.2s-.4.1-.6.1-.4.1-.6.1a.75.75,0,0,0-.5.1,2.92,2.92,0,0,0-.9.2.92.92,0,0,0-.6.4.84.84,0,0,0-.2.7,1.05,1.05,0,0,0,.5.9A2,2,0,0,0,448.7,591.1Zm7.2.9-2.3-7.6h1.2l1.6,5.8h.1l1.6-5.8h1.3l1.6,5.8h.1l1.6-5.8h1.2l-2.3,7.6h-1.2l-1.7-5.9h-.1l-1.7,5.9Zm13.6,0v-7.6h1.1v1.2h.1a2.54,2.54,0,0,1,.8-1,3,3,0,0,1,2.6,0,2.09,2.09,0,0,1,.8,1h.1a2,2,0,0,1,.9-.9,3.26,3.26,0,0,1,1.4-.4,2.52,2.52,0,0,1,1.7.6,2.82,2.82,0,0,1,.7,2V592h-1.2v-5.1a1.36,1.36,0,0,0-.5-1.2,2.1,2.1,0,0,0-1.1-.4,1.5,1.5,0,0,0-1.2.5,1.59,1.59,0,0,0-.4,1.2v5h-1.2v-5.2a1.16,1.16,0,0,0-.4-1,1.37,1.37,0,0,0-1.1-.4,2.92,2.92,0,0,0-.9.2,1.34,1.34,0,0,0-.6.7,1.64,1.64,0,0,0-.2,1v4.8h-1.4Zm15.3.2a3.45,3.45,0,0,1-1.8-.5,3.33,3.33,0,0,1-1.2-1.4,5.71,5.71,0,0,1,0-4.2,3.33,3.33,0,0,1,1.2-1.4,3.49,3.49,0,0,1,3.6,0,3.33,3.33,0,0,1,1.2,1.4,5.71,5.71,0,0,1,0,4.2,4.07,4.07,0,0,1-1.2,1.4A3.45,3.45,0,0,1,484.8,592.2Zm0-1.1a1.84,1.84,0,0,0,1.3-.4,3.13,3.13,0,0,0,.8-1.1,3.18,3.18,0,0,0,.2-1.4,5.9,5.9,0,0,0-.2-1.4,2.84,2.84,0,0,0-.8-1.1,2.31,2.31,0,0,0-2.6,0,3.13,3.13,0,0,0-.8,1.1,3.18,3.18,0,0,0-.2,1.4,5.9,5.9,0,0,0,.2,1.4,2.84,2.84,0,0,0,.8,1.1A1.7,1.7,0,0,0,484.8,591.1Zm6.4-3.7V592H490v-7.6h1.1v1.2h.1a2.36,2.36,0,0,1,.8-.9,2.89,2.89,0,0,1,1.4-.4,3.19,3.19,0,0,1,1.4.3,1.79,1.79,0,0,1,.9,1,3.81,3.81,0,0,1,.3,1.6v4.9h-1.2v-4.8a2,2,0,0,0-.5-1.4,1.73,1.73,0,0,0-1.3-.5,3,3,0,0,0-1,.2,2.34,2.34,0,0,0-.7.7C491.3,586.6,491.2,587,491.2,587.4Zm10.2,4.8a3.83,3.83,0,0,1-1.9-.5,3.33,3.33,0,0,1-1.2-1.4,5.71,5.71,0,0,1,0-4.2,3.33,3.33,0,0,1,1.2-1.4,3.45,3.45,0,0,1,1.8-.5,5,5,0,0,1,1.2.2,3,3,0,0,1,1.1.6,3.6,3.6,0,0,1,.8,1.2,4.84,4.84,0,0,1,.3,1.8v.5h-5.9v-1h4.7a2.66,2.66,0,0,0-.3-1.2,2.7,2.7,0,0,0-.7-.8,2,2,0,0,0-1.1-.3,2.13,2.13,0,0,0-1.2.3,2.36,2.36,0,0,0-.8.9,2.66,2.66,0,0,0-.3,1.2v.7a3.34,3.34,0,0,0,.3,1.5,2.36,2.36,0,0,0,.8.9,2.66,2.66,0,0,0,1.2.3,2,2,0,0,0,.8-.1,1.53,1.53,0,0,0,1.1-1.1l1.1.3a2.07,2.07,0,0,1-.6,1,3.59,3.59,0,0,1-1,.7A2.3,2.3,0,0,1,501.4,592.2Zm5.5,2.7h-.5a.44.44,0,0,1-.3-.1l.3-1a2.2,2.2,0,0,0,.8.1.86.86,0,0,0,.6-.3,5.58,5.58,0,0,0,.5-.8l.2-.6-2.8-7.7H507l2.1,6.1h.1l2.1-6.1h1.3l-3.2,8.8a3.13,3.13,0,0,1-.5,1,1.56,1.56,0,0,1-.8.6A4.74,4.74,0,0,0,506.9,594.9Z"></path><path class="cls-6" d="M1008.5,727V716.8h3.4a4,4,0,0,1,2,.4,2.54,2.54,0,0,1,1.1,1.2,4.19,4.19,0,0,1,.4,1.6,2.93,2.93,0,0,1-.4,1.6,2.54,2.54,0,0,1-1.1,1.2,4,4,0,0,1-2,.4h-2.5v-1.1h2.4a2.5,2.5,0,0,0,1.3-.3,1.39,1.39,0,0,0,.7-.8,2,2,0,0,0,.2-1.1,3.59,3.59,0,0,0-.2-1.1,2.7,2.7,0,0,0-.7-.8,2.5,2.5,0,0,0-1.3-.3h-2.2v9.1h-1.1Zm11,.2a2.77,2.77,0,0,1-1.3-.3,2.36,2.36,0,0,1-.9-.8,2.84,2.84,0,0,1-.4-1.3,2,2,0,0,1,.3-1.1,1.34,1.34,0,0,1,.7-.6,1.69,1.69,0,0,1,1-.3c.3-.1.7-.1,1-.2a4.91,4.91,0,0,1,1.1-.1.85.85,0,0,0,.6-.2.52.52,0,0,0,.2-.4h0a1.25,1.25,0,0,0-.4-1.1,1.59,1.59,0,0,0-1.2-.4,1.7,1.7,0,0,0-1.3.4,2.7,2.7,0,0,0-.7.8l-1.1-.4a3.13,3.13,0,0,1,.8-1.1,2.22,2.22,0,0,1,1.1-.5,5,5,0,0,1,1.2-.2,2.49,2.49,0,0,1,.8.1,3.55,3.55,0,0,1,.9.4,2,2,0,0,1,.8.8,3.06,3.06,0,0,1,.3,1.5v5h-1.2v-1h-.1a1.76,1.76,0,0,1-.4.5,1.79,1.79,0,0,1-.7.5A4,4,0,0,0,1019.5,727.2Zm.1-1.1a2.38,2.38,0,0,0,1.2-.3,1.58,1.58,0,0,0,.7-.7,1.49,1.49,0,0,0,.2-.9v-1.1c-.1.1-.2.1-.3.2s-.4.1-.6.1-.4.1-.6.1a.75.75,0,0,0-.5.1,2.92,2.92,0,0,0-.9.2.92.92,0,0,0-.6.4.84.84,0,0,0-.2.7,1.05,1.05,0,0,0,.5.9A2,2,0,0,0,1019.6,726.1Zm10.9-5-1.1.3c-.1-.2-.2-.3-.3-.5a1,1,0,0,0-.5-.4,1.88,1.88,0,0,0-.8-.2,2.13,2.13,0,0,0-1.2.3,1,1,0,0,0-.5.8.91.91,0,0,0,.3.7,1.88,1.88,0,0,0,1,.4l1.1.3a2.68,2.68,0,0,1,1.5.8,1.9,1.9,0,0,1,.5,1.3,1.92,1.92,0,0,1-.4,1.2,2.42,2.42,0,0,1-1.1.8,3.81,3.81,0,0,1-1.6.3,3.56,3.56,0,0,1-1.9-.5,2.38,2.38,0,0,1-1-1.5l1.1-.3a1.46,1.46,0,0,0,.6.9,2.13,2.13,0,0,0,1.2.3,2.5,2.5,0,0,0,1.3-.3,1,1,0,0,0,.5-.8.91.91,0,0,0-.3-.7,1.88,1.88,0,0,0-.9-.4l-1.3-.3a2.68,2.68,0,0,1-1.5-.8,2.11,2.11,0,0,1-.5-1.3,1.5,1.5,0,0,1,.4-1.1,2.72,2.72,0,0,1,1-.8,3.46,3.46,0,0,1,3.2.2A1.93,1.93,0,0,1,1030.5,721.1Zm7.3,0-1,.3c-.1-.2-.2-.3-.3-.5a1,1,0,0,0-.5-.4,1.88,1.88,0,0,0-.8-.2,2.13,2.13,0,0,0-1.2.3,1,1,0,0,0-.5.8.91.91,0,0,0,.3.7,1.88,1.88,0,0,0,1,.4l1.1.3a2.68,2.68,0,0,1,1.5.8,1.9,1.9,0,0,1,.5,1.3,1.92,1.92,0,0,1-.4,1.2,2.72,2.72,0,0,1-1,.8,4.15,4.15,0,0,1-1.6.3,3.56,3.56,0,0,1-1.9-.5,2.38,2.38,0,0,1-1-1.5l1.1-.3a1.46,1.46,0,0,0,.6.9,2.13,2.13,0,0,0,1.2.3,2.27,2.27,0,0,0,1.3-.3,1,1,0,0,0,.5-.8.91.91,0,0,0-.3-.7,1.88,1.88,0,0,0-.9-.4l-1.3-.3a2.68,2.68,0,0,1-1.5-.8,2.11,2.11,0,0,1-.5-1.3,1.5,1.5,0,0,1,.4-1.1,2.72,2.72,0,0,1,1-.8,3.46,3.46,0,0,1,3.2.2A2.21,2.21,0,0,1,1037.8,721.1Zm5.1,6.1a3.83,3.83,0,0,1-1.9-.5,3.33,3.33,0,0,1-1.2-1.4,5.71,5.71,0,0,1,0-4.2,3.33,3.33,0,0,1,1.2-1.4,3.45,3.45,0,0,1,1.8-.5,5,5,0,0,1,1.2.2,3,3,0,0,1,1.1.6,3.6,3.6,0,0,1,.8,1.2,4.84,4.84,0,0,1,.3,1.8v.5h-5.9v-1h4.7a2.66,2.66,0,0,0-.3-1.2,1.85,1.85,0,0,0-.7-.8,2,2,0,0,0-1.1-.3,2.13,2.13,0,0,0-1.2.3,2.36,2.36,0,0,0-.8.9,2.66,2.66,0,0,0-.3,1.2v.7a3.34,3.34,0,0,0,.3,1.5,2.36,2.36,0,0,0,.8.9,2.66,2.66,0,0,0,1.2.3,2,2,0,0,0,.8-.1,1.53,1.53,0,0,0,1.1-1.1l1.1.3a2.07,2.07,0,0,1-.6,1,3.59,3.59,0,0,1-1,.7A2.3,2.3,0,0,1,1042.9,727.2Zm10.4-6.1-1.1.3c-.1-.2-.2-.3-.3-.5a1,1,0,0,0-.5-.4,1.88,1.88,0,0,0-.8-.2,2.13,2.13,0,0,0-1.2.3,1,1,0,0,0-.5.8.91.91,0,0,0,.3.7,1.88,1.88,0,0,0,1,.4l1.1.3a2.68,2.68,0,0,1,1.5.8,1.9,1.9,0,0,1,.5,1.3,1.92,1.92,0,0,1-.4,1.2,2.42,2.42,0,0,1-1.1.8,3.81,3.81,0,0,1-1.6.3,3.56,3.56,0,0,1-1.9-.5,2.38,2.38,0,0,1-1-1.5l1.1-.3a1.46,1.46,0,0,0,.6.9,2.13,2.13,0,0,0,1.2.3,2.5,2.5,0,0,0,1.3-.3,1,1,0,0,0,.5-.8.91.91,0,0,0-.3-.7,1.88,1.88,0,0,0-.9-.4l-1.3-.3a2.68,2.68,0,0,1-1.5-.8,2.11,2.11,0,0,1-.5-1.3,1.5,1.5,0,0,1,.4-1.1,2.72,2.72,0,0,1,1-.8,3.19,3.19,0,0,1,1.4-.3,3,3,0,0,1,1.8.5A1.93,1.93,0,0,1,1053.3,721.1Zm8.9,6.1a3.45,3.45,0,0,1-1.8-.5,3.33,3.33,0,0,1-1.2-1.4,5.71,5.71,0,0,1,0-4.2,3.33,3.33,0,0,1,1.2-1.4,3.49,3.49,0,0,1,3.6,0,3.33,3.33,0,0,1,1.2,1.4,5.71,5.71,0,0,1,0,4.2,4.07,4.07,0,0,1-1.2,1.4A2.73,2.73,0,0,1,1062.2,727.2Zm0-1.1a1.84,1.84,0,0,0,1.3-.4,3.13,3.13,0,0,0,.8-1.1,3.18,3.18,0,0,0,.2-1.4,5.9,5.9,0,0,0-.2-1.4,2.84,2.84,0,0,0-.8-1.1,1.84,1.84,0,0,0-1.3-.4,2,2,0,0,0-1.3.4,3.13,3.13,0,0,0-.8,1.1,3.18,3.18,0,0,0-.2,1.4,5.9,5.9,0,0,0,.2,1.4,2.84,2.84,0,0,0,.8,1.1A2,2,0,0,0,1062.2,726.1Zm5.3.9v-7.6h1.1v1.2h.1a1.42,1.42,0,0,1,.8-.9,2.84,2.84,0,0,1,1.2-.4h.6v1.2h-.8a3,3,0,0,0-1,.2,4.35,4.35,0,0,0-.7.6,1.49,1.49,0,0,0-.2.9V727Zm7.8.2a3.37,3.37,0,0,1-1.7-.5,3.33,3.33,0,0,1-1.2-1.4,5.71,5.71,0,0,1,0-4.2,4.07,4.07,0,0,1,1.2-1.4,3.37,3.37,0,0,1,1.7-.5,3.73,3.73,0,0,1,1.2.2,2,2,0,0,1,.7.6c.2.2.3.4.4.5h.1v-3.8h1.2V727h-1.1v-1.2h-.1c-.1.1-.2.3-.4.5a4.35,4.35,0,0,1-.7.6A2.77,2.77,0,0,1,1075.3,727.2Zm.2-1.1a1.59,1.59,0,0,0,1.2-.4,1.83,1.83,0,0,0,.7-1,3.34,3.34,0,0,0,.3-1.5,6.05,6.05,0,0,0-.2-1.5,2.55,2.55,0,0,0-.7-1,2.14,2.14,0,0,0-1.2-.4,1.59,1.59,0,0,0-1.2.4,2.29,2.29,0,0,0-.7,1,3.42,3.42,0,0,0-.2,1.5,7.72,7.72,0,0,0,.2,1.5,2.84,2.84,0,0,0,.8,1.1C1074.6,726,1075,726.1,1075.5,726.1Zm8.8,1.1a3.83,3.83,0,0,1-1.9-.5,3.33,3.33,0,0,1-1.2-1.4,5.71,5.71,0,0,1,0-4.2,3.33,3.33,0,0,1,1.2-1.4,3.45,3.45,0,0,1,1.8-.5,5,5,0,0,1,1.2.2,3,3,0,0,1,1.1.6,3.6,3.6,0,0,1,.8,1.2,4.84,4.84,0,0,1,.3,1.8v.5h-5.9v-1h4.7a2.66,2.66,0,0,0-.3-1.2,2.7,2.7,0,0,0-.7-.8,2,2,0,0,0-1.1-.3,2.13,2.13,0,0,0-1.2.3,2.36,2.36,0,0,0-.8.9,2.66,2.66,0,0,0-.3,1.2v.7a3.34,3.34,0,0,0,.3,1.5,2.07,2.07,0,0,0,2,1.2,2,2,0,0,0,.8-.1,2.51,2.51,0,0,0,.7-.4,1.61,1.61,0,0,0,.4-.7l1.1.3a2.07,2.07,0,0,1-.6,1,3,3,0,0,1-1.1.7A1.7,1.7,0,0,1,1084.3,727.2Zm5-.2v-7.6h1.1v1.2h.1a1.42,1.42,0,0,1,.8-.9,2.84,2.84,0,0,1,1.2-.4h.6v1.2h-.7a3,3,0,0,0-1,.2,4.35,4.35,0,0,0-.7.6,1.49,1.49,0,0,0-.2.9V727Zm10.6-5.9-1.1.3c-.1-.2-.2-.3-.3-.5a1,1,0,0,0-.5-.4,2,2,0,0,0-.9-.2,2.38,2.38,0,0,0-1.2.3,1,1,0,0,0-.5.8.91.91,0,0,0,.3.7,1.88,1.88,0,0,0,1,.4l1.1.3a2.68,2.68,0,0,1,1.5.8,1.9,1.9,0,0,1,.5,1.3,1.92,1.92,0,0,1-.4,1.2,2.72,2.72,0,0,1-1,.8,4.15,4.15,0,0,1-1.6.3,3.56,3.56,0,0,1-1.9-.5,2.38,2.38,0,0,1-1-1.5l1.1-.3a1.46,1.46,0,0,0,.6.9,2.13,2.13,0,0,0,1.2.3,2.5,2.5,0,0,0,1.3-.3,1,1,0,0,0,.5-.8.91.91,0,0,0-.3-.7,1.88,1.88,0,0,0-.9-.4l-1.3-.3a2.68,2.68,0,0,1-1.5-.8,2.11,2.11,0,0,1-.5-1.3,1.5,1.5,0,0,1,.4-1.1,2.72,2.72,0,0,1,1-.8,3.19,3.19,0,0,1,1.4-.3,3,3,0,0,1,1.8.5A1.93,1.93,0,0,1,1099.9,721.1Z"></path><path class="cls-6" d="M345.3,825.3l-5.5-8.6,2.9-1.8a4,4,0,0,1,1.9-.7,2.93,2.93,0,0,1,1.6.4,3.45,3.45,0,0,1,1.2,1.2,4.42,4.42,0,0,1,.6,1.6,2.32,2.32,0,0,1-.3,1.6,3.74,3.74,0,0,1-1.4,1.4l-2.1,1.3-.6-.9,2-1.3a3,3,0,0,0,1-.9,1.8,1.8,0,0,0,.2-1,1.78,1.78,0,0,0-.4-1,3,3,0,0,0-.8-.8,1.16,1.16,0,0,0-1-.2,2.66,2.66,0,0,0-1.3.5l-1.8,1.2,4.9,7.7Zm9.4-5.7a3,3,0,0,1-1.3.5,1.72,1.72,0,0,1-1.2-.2,2.84,2.84,0,0,1-1-.9,2.6,2.6,0,0,1-.4-1,2.92,2.92,0,0,1,.2-.9,5.55,5.55,0,0,1,.6-.8,5,5,0,0,1,.8-.7,9.68,9.68,0,0,0,.9-.7c.2-.2.4-.3.4-.5a.3.3,0,0,0,0-.4h0c-.3-.4-.6-.7-1-.7a1.38,1.38,0,0,0-1.2.3,1.71,1.71,0,0,0-.9,1,1.8,1.8,0,0,0-.1,1l-1.2.3a1.9,1.9,0,0,1,.1-1.3,2.42,2.42,0,0,1,.6-1,6.47,6.47,0,0,1,.9-.8,5.94,5.94,0,0,1,.8-.4,3,3,0,0,1,1-.2,2.28,2.28,0,0,1,1.1.3,2.71,2.71,0,0,1,1,1.1l2.7,4.2-1,.6-.6-.9h-.1a2,2,0,0,1-.1.7,3,3,0,0,1-.4.8C355.3,819.1,355,819.3,354.7,819.6Zm-.5-1a1.42,1.42,0,0,0,.8-.9,1.23,1.23,0,0,0,.2-1,1.61,1.61,0,0,0-.3-.9l-.6-.9c0,.1-.1.2-.2.3l-.4.4c-.2.1-.3.3-.5.4a1.38,1.38,0,0,0-.4.3l-.6.6a.91.91,0,0,0-.3.7,1,1,0,0,0,.2.7,1.05,1.05,0,0,0,.9.5A1.28,1.28,0,0,0,354.2,818.6Zm6.5-10.1-.7.8a2.19,2.19,0,0,0-.5-.3,1.48,1.48,0,0,0-.7-.1,1.6,1.6,0,0,0-.8.3,2.17,2.17,0,0,0-.8.9,1.38,1.38,0,0,0,0,.9c.2.2.4.4.6.4a2.56,2.56,0,0,0,1.1-.2l1.1-.4a3.57,3.57,0,0,1,1.7-.2,1.78,1.78,0,0,1,1.1.8,2.66,2.66,0,0,1,.3,1.2,2.84,2.84,0,0,1-.4,1.2,4.26,4.26,0,0,1-1.2,1.1,3.81,3.81,0,0,1-1.9.6,2.57,2.57,0,0,1-1.6-.7l.8-.8a1.91,1.91,0,0,0,1,.5,2.13,2.13,0,0,0,1.2-.4,1.64,1.64,0,0,0,.9-2,.68.68,0,0,0-.6-.4,1.41,1.41,0,0,0-.9.1l-1.2.4a3.57,3.57,0,0,1-1.7.2,1.78,1.78,0,0,1-1.1-.8,2.66,2.66,0,0,1-.3-1.2,2.84,2.84,0,0,1,.4-1.2,3.57,3.57,0,0,1,1.1-1,2.5,2.5,0,0,1,1.8-.5A4.58,4.58,0,0,1,360.7,808.5Zm6.2-3.9-.7.8a2.19,2.19,0,0,0-.5-.3,1.48,1.48,0,0,0-.7-.1,1.6,1.6,0,0,0-.8.3,2.17,2.17,0,0,0-.8.9,1.38,1.38,0,0,0,0,.9c.2.2.4.4.6.4a2.56,2.56,0,0,0,1.1-.2l1.1-.4a3.57,3.57,0,0,1,1.7-.2,1.78,1.78,0,0,1,1.1.8,2.66,2.66,0,0,1,.3,1.2,2.84,2.84,0,0,1-.4,1.2,4.26,4.26,0,0,1-1.2,1.1,3.81,3.81,0,0,1-1.9.6,2.57,2.57,0,0,1-1.6-.7l.8-.8a1.91,1.91,0,0,0,1,.5,2.13,2.13,0,0,0,1.2-.4,1.64,1.64,0,0,0,.9-2,.68.68,0,0,0-.6-.4,1.41,1.41,0,0,0-.9.1l-1.2.4a3.57,3.57,0,0,1-1.7.2,1.62,1.62,0,0,1-1.1-.9,2.66,2.66,0,0,1-.3-1.2,2.84,2.84,0,0,1,.4-1.2,3.57,3.57,0,0,1,1.1-1,2.5,2.5,0,0,1,1.8-.5C365.9,804,366.4,804.2,366.9,804.6Zm7.6,2.4a3.29,3.29,0,0,1-1.9.6,4.07,4.07,0,0,1-1.8-.5,4.29,4.29,0,0,1-1.5-1.5,4,4,0,0,1-.7-2,2.67,2.67,0,0,1,.3-1.8,3.48,3.48,0,0,1,1.3-1.4,3.7,3.7,0,0,1,1.1-.5,2.44,2.44,0,0,1,1.2,0,3.79,3.79,0,0,1,1.3.6,5.79,5.79,0,0,1,1.2,1.4l.3.4-5,3.2-.5-.9,4-2.5a2,2,0,0,0-.8-.8,1.93,1.93,0,0,0-1-.3,2.28,2.28,0,0,0-1.1.3,2.17,2.17,0,0,0-.8.9,2.54,2.54,0,0,0-.2,1.2,2.1,2.1,0,0,0,.4,1.1l.4.6a5.47,5.47,0,0,0,1,1.1,2.66,2.66,0,0,0,1.2.3,2.84,2.84,0,0,0,1.2-.4,1.7,1.7,0,0,0,.6-.6.91.91,0,0,0,.3-.7,1.1,1.1,0,0,0,0-.8l1.1-.3a2.44,2.44,0,0,1,0,1.2,3.7,3.7,0,0,1-.5,1.1A10,10,0,0,1,374.5,807Zm5.4-10.7-.7.8a2.19,2.19,0,0,0-.5-.3,1.48,1.48,0,0,0-.7-.1,1.6,1.6,0,0,0-.8.3,2.17,2.17,0,0,0-.8.9,1.38,1.38,0,0,0,0,.9c.2.2.4.4.6.4a2.8,2.8,0,0,0,1.1-.2l1.1-.4a3.57,3.57,0,0,1,1.7-.2,1.78,1.78,0,0,1,1.1.8,2.66,2.66,0,0,1,.3,1.2,2.84,2.84,0,0,1-.4,1.2,4.26,4.26,0,0,1-1.2,1.1,3.81,3.81,0,0,1-1.9.6,2.57,2.57,0,0,1-1.6-.7l.8-.8a1.91,1.91,0,0,0,1,.5,2.13,2.13,0,0,0,1.2-.4,1.64,1.64,0,0,0,.9-2,.68.68,0,0,0-.6-.4,1.41,1.41,0,0,0-.9.1l-1.2.4a3.57,3.57,0,0,1-1.7.2,1.78,1.78,0,0,1-1.1-.8,2.66,2.66,0,0,1-.3-1.2,2.84,2.84,0,0,1,.4-1.2,3.57,3.57,0,0,1,1.1-1,2.5,2.5,0,0,1,1.8-.5A4.58,4.58,0,0,1,379.9,796.3Zm10.8.3a3.23,3.23,0,0,1-1.8.6,4.07,4.07,0,0,1-1.8-.5,3.61,3.61,0,0,1-1.5-1.5,5.6,5.6,0,0,1-.8-2,2.67,2.67,0,0,1,.3-1.8,3.48,3.48,0,0,1,1.3-1.4,3.23,3.23,0,0,1,1.8-.6,4.07,4.07,0,0,1,1.8.5,4.31,4.31,0,0,1,1.5,1.5,4,4,0,0,1,.7,2,3.42,3.42,0,0,1-1.5,3.2Zm-.5-.9a2.84,2.84,0,0,0,.9-1,2.77,2.77,0,0,0,.1-1.3,3.1,3.1,0,0,0-.6-1.3,5.24,5.24,0,0,0-1-1.1,2.08,2.08,0,0,0-1.2-.5,3.08,3.08,0,0,0-1.3.3,2.84,2.84,0,0,0-.9,1,2.77,2.77,0,0,0-.1,1.3,3.1,3.1,0,0,0,.6,1.3,5.24,5.24,0,0,0,1,1.1,3.08,3.08,0,0,0,1.2.5A1.67,1.67,0,0,0,390.2,795.7Zm4.9-2.1-4.1-6.4,1-.6.6,1h.1a2.46,2.46,0,0,1,.1-1.2,2.84,2.84,0,0,1,.9-1c.1,0,.2-.1.3-.2a.37.37,0,0,1,.3-.1l.6,1a.77.77,0,0,0-.3.1c-.1.1-.3.1-.4.2a1.58,1.58,0,0,0-.7.7,1.49,1.49,0,0,0-.2.9,1.61,1.61,0,0,0,.3.9l2.6,4.1Zm6.7-4a3.14,3.14,0,0,1-3.4,0,7.81,7.81,0,0,1-1.5-1.6,5.6,5.6,0,0,1-.8-2,3.72,3.72,0,0,1,.2-1.8,2.5,2.5,0,0,1,1.2-1.3,1.86,1.86,0,0,1,1.1-.4,2.77,2.77,0,0,1,.9.1,1.42,1.42,0,0,0,.6.2l.1-.1-2-3.2,1-.6,5.5,8.6-1,.6-.6-1-.1.1v.6a1.33,1.33,0,0,1-.3.8A2.84,2.84,0,0,1,401.8,789.6Zm-.4-1a1.89,1.89,0,0,0,.8-1,2.77,2.77,0,0,0,.1-1.3,4.24,4.24,0,0,0-.6-1.4,2.71,2.71,0,0,0-1-1.1,3.08,3.08,0,0,0-1.2-.5,2.66,2.66,0,0,0-1.2.3,1.89,1.89,0,0,0-.8,1,2.77,2.77,0,0,0-.1,1.3,4.24,4.24,0,0,0,.6,1.4,3.57,3.57,0,0,0,1,1.1,3.08,3.08,0,0,0,1.2.5A1.45,1.45,0,0,0,401.4,788.6Zm8-3.9a3.29,3.29,0,0,1-1.9.6,4.07,4.07,0,0,1-1.8-.5,4.29,4.29,0,0,1-1.5-1.5,4,4,0,0,1-.7-2,2.67,2.67,0,0,1,.3-1.8,3.48,3.48,0,0,1,1.3-1.4,3.7,3.7,0,0,1,1.1-.5,2.44,2.44,0,0,1,1.2,0,3.79,3.79,0,0,1,1.3.6,5.79,5.79,0,0,1,1.2,1.4l.3.4-5,3.2-.5-.9,4-2.5a2,2,0,0,0-.8-.8,1.93,1.93,0,0,0-1-.3,2.28,2.28,0,0,0-1.1.3,1.71,1.71,0,0,0-.8.9,2.54,2.54,0,0,0-.2,1.2,2.1,2.1,0,0,0,.4,1.1l.4.6a5.47,5.47,0,0,0,1,1.1,2.66,2.66,0,0,0,1.2.3,2.84,2.84,0,0,0,1.2-.4,1.7,1.7,0,0,0,.6-.6.91.91,0,0,0,.3-.7,1.1,1.1,0,0,0,0-.8l1.1-.3a2.44,2.44,0,0,1,0,1.2,3.7,3.7,0,0,1-.5,1.1A5.24,5.24,0,0,1,409.4,784.7Zm4.1-2.8-4.1-6.4,1-.6.6,1h.1a2.46,2.46,0,0,1,.1-1.2,2.84,2.84,0,0,1,.9-1c.1,0,.2-.1.3-.2a.37.37,0,0,1,.3-.1l.6,1a.77.77,0,0,0-.3.1c-.1.1-.3.1-.4.2a1.58,1.58,0,0,0-.7.7,1.49,1.49,0,0,0-.2.9,1.61,1.61,0,0,0,.3.9l2.6,4.1Zm5.8-10.7-.7.8a2.19,2.19,0,0,0-.5-.3,1.48,1.48,0,0,0-.7-.1,1.6,1.6,0,0,0-.8.3,2.17,2.17,0,0,0-.8.9,1.38,1.38,0,0,0,0,.9c.2.2.4.4.6.4a2.56,2.56,0,0,0,1.1-.2l1.1-.4a3.57,3.57,0,0,1,1.7-.2,1.78,1.78,0,0,1,1.1.8,2.66,2.66,0,0,1,.3,1.2,2.84,2.84,0,0,1-.4,1.2,4.26,4.26,0,0,1-1.2,1.1,3.81,3.81,0,0,1-1.9.6,2.57,2.57,0,0,1-1.6-.7l.8-.8a1.91,1.91,0,0,0,1,.5,2.13,2.13,0,0,0,1.2-.4,1.64,1.64,0,0,0,.9-2,.68.68,0,0,0-.6-.4,1.41,1.41,0,0,0-.9.1l-1.2.4a3.57,3.57,0,0,1-1.7.2,1.78,1.78,0,0,1-1.1-.8,2.66,2.66,0,0,1-.3-1.2,2.84,2.84,0,0,1,.4-1.2,3.57,3.57,0,0,1,1.1-1,2.5,2.5,0,0,1,1.8-.5A7.38,7.38,0,0,0,419.3,771.2Z"></path><path class="cls-6" d="M154.2,754l8.3-6,.7,1-7.4,5.3,2.8,3.8-.9.6Zm6.2,8.9a4,4,0,0,1-.7-1.8,3.92,3.92,0,0,1,.4-1.8,5.21,5.21,0,0,1,1.4-1.6,4.13,4.13,0,0,1,1.9-.9,2.67,2.67,0,0,1,1.8.2,2.89,2.89,0,0,1,1.5,1.2,4,4,0,0,1,.7,1.8,3.92,3.92,0,0,1-.4,1.8,5.21,5.21,0,0,1-1.4,1.6,5.47,5.47,0,0,1-1.9.9,2.75,2.75,0,0,1-1.8-.2A2.89,2.89,0,0,1,160.4,762.9Zm.9-.6a2.1,2.1,0,0,0,1.1.8,2.85,2.85,0,0,0,1.3,0,3.1,3.1,0,0,0,1.3-.6,3.18,3.18,0,0,0,1-1,1.92,1.92,0,0,0,.4-1.2,2.2,2.2,0,0,0-.4-1.3,2.1,2.1,0,0,0-1.1-.8,2.85,2.85,0,0,0-1.3,0,3.1,3.1,0,0,0-1.3.6,3.18,3.18,0,0,0-1,1,1.92,1.92,0,0,0-.4,1.2A1.57,1.57,0,0,0,161.3,762.3Zm1.7,9.1a5.62,5.62,0,0,1-.7-1.3,2.46,2.46,0,0,1-.1-1.2,3,3,0,0,1,.2-1l1.1.4c-.1.2-.1.4-.2.6a1.1,1.1,0,0,0,0,.8,2.35,2.35,0,0,0,.5,1,3.05,3.05,0,0,0,1.3,1,1.68,1.68,0,0,0,1.5-.3l1.3-.9-.1-.1h-.6a2.35,2.35,0,0,1-.8-.2,2.17,2.17,0,0,1-.9-.8,2.45,2.45,0,0,1-.6-1.6,3.53,3.53,0,0,1,.4-1.7,4,4,0,0,1,1.4-1.5,5.47,5.47,0,0,1,1.9-.9,3.67,3.67,0,0,1,1.8.1,3.6,3.6,0,0,1,1.4,1.1,2.11,2.11,0,0,1,.5,1.1,2.77,2.77,0,0,1-.1.9c-.1.2-.1.4-.2.6l.1.1,1-.7.7.9-6.4,4.6a2.66,2.66,0,0,1-1.6.6,2.3,2.3,0,0,1-1.4-.4A4.34,4.34,0,0,1,163,771.4Zm3.4-2.5a2.54,2.54,0,0,0,1,.8,2.46,2.46,0,0,0,1.2.1,3.79,3.79,0,0,0,1.3-.6,3.46,3.46,0,0,0,1-1.1,2.84,2.84,0,0,0,.4-1.2,1.92,1.92,0,0,0-.4-1.2,1.89,1.89,0,0,0-1-.8,2.85,2.85,0,0,0-1.3,0,3.79,3.79,0,0,0-1.3.6,4.71,4.71,0,0,0-1,1,2.66,2.66,0,0,0-.3,1.2A1.47,1.47,0,0,0,166.4,768.9Zm4.5,8.3,6.2-4.5.7,1-6.2,4.5Zm7.6-4.7a1.42,1.42,0,0,1-.2-.6.55.55,0,0,1,.3-.5.66.66,0,0,1,.6-.1.85.85,0,0,1,.5.3,1.42,1.42,0,0,1,.2.6.55.55,0,0,1-.3.5.66.66,0,0,1-.6.1A.55.55,0,0,1,178.5,772.5Zm-1.2,5.7-3.7,2.7-.7-1,6.2-4.5.7.9-1,.7.1.1a2.46,2.46,0,0,1,1.2.1,3.13,3.13,0,0,1,1.1.9,2.11,2.11,0,0,1,.5,1.3,2,2,0,0,1-.2,1.3,4,4,0,0,1-1.1,1.2l-3.9,2.8-.7-1,3.9-2.8a2.37,2.37,0,0,0,.9-1.2,1.52,1.52,0,0,0-.3-1.3,2.7,2.7,0,0,0-.8-.7,1.64,1.64,0,0,0-1-.1A3.37,3.37,0,0,0,177.3,778.2Zm2.5,9-.5.2a11.73,11.73,0,0,1-1.1.5,5.64,5.64,0,0,1-1.2.4,4.65,4.65,0,0,0-.9.3l-.5-.7a5.9,5.9,0,0,0,.8-.4,9.74,9.74,0,0,0,1.1-.5l1.2-.6.5-.3Zm-50.1-36.4,6.2-4.5.7.9-1,.7.1.1a1.67,1.67,0,0,1,1.2.1,2.54,2.54,0,0,1,1,.8,3.08,3.08,0,0,1,.5,1.2,2.66,2.66,0,0,1-.3,1.2v.1a2,2,0,0,1,1.3.2,3.13,3.13,0,0,1,1.1.9,2.26,2.26,0,0,1,.5,1.7,2.72,2.72,0,0,1-1.2,1.7l-4.1,3-.7-1,4.1-3a1.27,1.27,0,0,0,.7-1.1,2,2,0,0,0-.3-1.1,1.51,1.51,0,0,0-1.1-.7,1.79,1.79,0,0,0-1.3.4l-4,2.9-.7-1,4.2-3.1a1.22,1.22,0,0,0,.6-1,1.43,1.43,0,0,0-.3-1.1,4.35,4.35,0,0,0-.7-.6,1.41,1.41,0,0,0-.9-.1,1.8,1.8,0,0,0-.9.4l-3.9,2.8Zm8.3,11.8a2.08,2.08,0,0,1-.5-1.2,2.46,2.46,0,0,1,.1-1.2,1.89,1.89,0,0,1,.8-1,1.62,1.62,0,0,1,1-.4,1.49,1.49,0,0,1,.9.2,1.56,1.56,0,0,1,.8.6c.3.2.5.5.8.7l.8.8c.2.2.4.4.5.4s.3,0,.4-.1h0a1.69,1.69,0,0,0,.7-1,1.47,1.47,0,0,0-.4-1.2,2.33,2.33,0,0,0-1.1-.9,3.75,3.75,0,0,0-1-.1l-.3-1.1a2.85,2.85,0,0,1,1.3,0,2.38,2.38,0,0,1,1.1.6,3.45,3.45,0,0,1,.8.9,4.35,4.35,0,0,1,.4.7c.1.3.2.6.3,1a2.34,2.34,0,0,1-.2,1.1,3.33,3.33,0,0,1-1,1.1l-4.1,2.9-.7-1,.8-.6h-.7a1.33,1.33,0,0,1-.8-.3C138.5,763.2,138.2,762.9,138,762.6Zm.9-.5a3.24,3.24,0,0,0,.9.8,1.8,1.8,0,0,0,1,.2,1.61,1.61,0,0,0,.9-.3l.9-.6c-.1,0-.2-.1-.3-.2s-.3-.2-.4-.4a1.76,1.76,0,0,1-.4-.5,1.38,1.38,0,0,0-.3-.4,4.35,4.35,0,0,0-.7-.6,1.08,1.08,0,0,0-.7-.3,1,1,0,0,0-.7.2,1.05,1.05,0,0,0-.5.9A1.8,1.8,0,0,0,138.9,762.1Zm5.4,4.2,1.2-.9.1.2,4.7.7.8,1.2-5-.8-.1-.1Zm-2.9.7,8.3-6,.7,1-8.3,6Zm2.8,4,1.3-4.6,1.1.2-1.6,5.6Zm3.2,4.7a3.39,3.39,0,0,1-.7-1.8,3.92,3.92,0,0,1,.4-1.8,4,4,0,0,1,1.4-1.5,5.47,5.47,0,0,1,1.9-.9,2.67,2.67,0,0,1,1.8.2,2.89,2.89,0,0,1,1.5,1.2,3.7,3.7,0,0,1,.5,1.1,2.46,2.46,0,0,1,.1,1.2,3.49,3.49,0,0,1-.5,1.3,5.31,5.31,0,0,1-1.3,1.3l-.4.3-3.4-4.8.8-.6,2.7,3.8a3.45,3.45,0,0,0,.8-.9,1.39,1.39,0,0,0,.2-1.1,2.46,2.46,0,0,0-.4-1.1,2.54,2.54,0,0,0-1-.8,2.46,2.46,0,0,0-1.2-.1,2.22,2.22,0,0,0-1.1.5l-.5.4a2.59,2.59,0,0,0-1,1.1,1.72,1.72,0,0,0-.2,1.2,2.08,2.08,0,0,0,.5,1.2c.2.2.4.5.6.6a1.08,1.08,0,0,0,.7.3h.8l.4,1.1a2.46,2.46,0,0,1-1.2.1,3.08,3.08,0,0,1-1.2-.5A9.43,9.43,0,0,1,147.4,775.7Zm13.5,5.3-.8.6-2.3-3.2.8-.6Zm-.2-3.3.7,1-5.9,4.3a1.33,1.33,0,0,0-.5.6.45.45,0,0,0,0,.5.52.52,0,0,0,.2.4c.1.1.1.2.2.2l.1.1-.7.8c-.1,0-.2-.1-.3-.2l-.4-.4a3.55,3.55,0,0,1-.4-.9,1.73,1.73,0,0,1,.1-1,2.76,2.76,0,0,1,.7-.9Zm-5,9.2,6.2-4.5.7.9-.9.7v.1a1.67,1.67,0,0,1,1.2.1,2.54,2.54,0,0,1,1,.8c.1.1.1.2.2.3s.1.2.2.2l-1,.7a.35.35,0,0,1-.1-.2c-.1-.1-.1-.3-.2-.4a2.7,2.7,0,0,0-.8-.7,2.92,2.92,0,0,0-.9-.2,1.61,1.61,0,0,0-.9.3l-3.9,2.8Zm4.2,6.1a2.08,2.08,0,0,1-.5-1.2,2.46,2.46,0,0,1,.1-1.2,1.89,1.89,0,0,1,.8-1,1.62,1.62,0,0,1,1-.4,1.49,1.49,0,0,1,.9.2,1.56,1.56,0,0,1,.8.6c.3.2.5.5.8.7l.8.8c.2.2.4.4.5.4s.3,0,.4-.1h0a1.69,1.69,0,0,0,.7-1,1.47,1.47,0,0,0-.4-1.2,2.33,2.33,0,0,0-1.1-.9,3.75,3.75,0,0,0-1-.1l-.3-1.1a2.85,2.85,0,0,1,1.3,0,2.38,2.38,0,0,1,1.1.6,3.45,3.45,0,0,1,.8.9,4.35,4.35,0,0,1,.4.7c.1.3.2.6.3,1a2.34,2.34,0,0,1-.2,1.1,3.33,3.33,0,0,1-1,1.1l-4.1,2.9-.7-1,.8-.6h-.7a1.33,1.33,0,0,1-.8-.3C160.5,793.7,160.2,793.4,159.9,793Zm1-.4a3.24,3.24,0,0,0,.9.8,1.8,1.8,0,0,0,1,.2,1.61,1.61,0,0,0,.9-.3l.9-.6c-.1,0-.2-.1-.3-.2s-.3-.2-.4-.4a1.76,1.76,0,0,1-.4-.5,1.38,1.38,0,0,0-.3-.4,4.35,4.35,0,0,0-.7-.6,1.08,1.08,0,0,0-.7-.3,1,1,0,0,0-.7.2,1.05,1.05,0,0,0-.5.9A1.38,1.38,0,0,0,160.9,792.6Zm4,7.4a2.66,2.66,0,0,1-.6-1.6,3.29,3.29,0,0,1,.4-1.7,4.5,4.5,0,0,1,1.5-1.6,4.64,4.64,0,0,1,1.9-.9,3.67,3.67,0,0,1,1.8.1,3.6,3.6,0,0,1,1.4,1.1,2.11,2.11,0,0,1,.5,1.1,2.77,2.77,0,0,1-.1.9c-.1.2-.1.4-.2.6l.1.1,3.1-2.2.7,1-8.3,6-.7-.9,1-.7-.1-.1h-.6a3.71,3.71,0,0,1-.9-.2C165.5,800.6,165.2,800.4,164.9,800Zm1-.5a2.54,2.54,0,0,0,1,.8,2.85,2.85,0,0,0,1.3,0,3.08,3.08,0,0,0,1.4-.7,3.84,3.84,0,0,0,1.1-1.1,2,2,0,0,0,0-2.4,1.89,1.89,0,0,0-1-.8,2.85,2.85,0,0,0-1.3,0,2.79,2.79,0,0,0-1.3.7,5.73,5.73,0,0,0-1.1,1.1,1.92,1.92,0,0,0-.4,1.2C165.4,798.7,165.6,799.1,165.9,799.5Zm4.3,7.8a3.39,3.39,0,0,1-.7-1.8,3.92,3.92,0,0,1,.4-1.8,4,4,0,0,1,1.4-1.5,5.47,5.47,0,0,1,1.9-.9,2.67,2.67,0,0,1,1.8.2,2.89,2.89,0,0,1,1.5,1.2,3.7,3.7,0,0,1,.5,1.1,2.46,2.46,0,0,1,.1,1.2,3.49,3.49,0,0,1-.5,1.3,5.31,5.31,0,0,1-1.3,1.3l-.4.3-3.4-4.8.8-.6,2.7,3.8a3.45,3.45,0,0,0,.8-.9,2,2,0,0,0,.2-1.1,2.46,2.46,0,0,0-.4-1.1,2.54,2.54,0,0,0-1-.8,2.46,2.46,0,0,0-1.2-.1,2.22,2.22,0,0,0-1.1.5l-.5.4a2.59,2.59,0,0,0-1,1.1,1.72,1.72,0,0,0-.2,1.2,2.08,2.08,0,0,0,.5,1.2c.2.2.4.5.6.6a1.08,1.08,0,0,0,.7.3h.8l.4,1.1a2.46,2.46,0,0,1-1.2.1,3.08,3.08,0,0,1-1.2-.5A4.74,4.74,0,0,1,170.2,807.3Zm11,4.8-.9-.7c.1-.2.2-.3.2-.5a.85.85,0,0,0,0-.7,2,2,0,0,0-.4-.8,3.24,3.24,0,0,0-.9-.8c-.4-.1-.7-.1-.9.1a1,1,0,0,0-.4.7,6.53,6.53,0,0,0,.2,1.1l.4,1.1a2.8,2.8,0,0,1,.3,1.7,1.64,1.64,0,0,1-.8,1.2,1.75,1.75,0,0,1-1.2.4,2.42,2.42,0,0,1-1.3-.4,4,4,0,0,1-1.2-1.1,3,3,0,0,1-.7-1.9,2.72,2.72,0,0,1,.6-1.7l.9.7a1.43,1.43,0,0,0-.4,1,2.46,2.46,0,0,0,.4,1.1,4.06,4.06,0,0,0,1,.9,1.15,1.15,0,0,0,1-.1,2.09,2.09,0,0,0,.4-.6,1.49,1.49,0,0,0-.2-.9l-.5-1.2a2.8,2.8,0,0,1-.3-1.7,2,2,0,0,1,.8-1.2,1.5,1.5,0,0,1,1.1-.4,1.92,1.92,0,0,1,1.2.4,3.46,3.46,0,0,1,1.1,1,2.53,2.53,0,0,1,.6,1.7A1.35,1.35,0,0,1,181.2,812.1Z"></path><path class="cls-6" d="M466.4,949a9.22,9.22,0,0,0-.8-.5,2.92,2.92,0,0,0-.9-.2,2.77,2.77,0,0,0-.9.1,3.55,3.55,0,0,0-.9.4,2.76,2.76,0,0,0-1.1,1.3,4.84,4.84,0,0,0-.3,1.8,6,6,0,0,0,.8,2.1,4.87,4.87,0,0,0,1.6,1.6,3.09,3.09,0,0,0,1.8.5,3.37,3.37,0,0,0,1.7-.5,2.89,2.89,0,0,0,1.1-1.1,3.65,3.65,0,0,0,.3-1.5,2.9,2.9,0,0,0-.6-1.6l.4-.1-2.6,1.6-.6-.9,3.3-2.1.6.9a4.37,4.37,0,0,1,.7,2.1,3.51,3.51,0,0,1-.5,2,5.62,5.62,0,0,1-1.5,1.6,4.11,4.11,0,0,1-2.3.7,3.89,3.89,0,0,1-2.3-.7,7.59,7.59,0,0,1-2-2,8.82,8.82,0,0,1-.9-2,4.15,4.15,0,0,1-.1-1.9,4.42,4.42,0,0,1,.6-1.6,5.35,5.35,0,0,1,1.3-1.3,4.24,4.24,0,0,1,1.4-.6,7.08,7.08,0,0,1,1.4-.1,2.84,2.84,0,0,1,1.3.4,4.7,4.7,0,0,1,1.2.9Zm9.3,2.6a3.29,3.29,0,0,1-1.9.6,4.07,4.07,0,0,1-1.8-.5,4.29,4.29,0,0,1-1.5-1.5,4,4,0,0,1-.7-2,2.67,2.67,0,0,1,.3-1.8,3.48,3.48,0,0,1,1.3-1.4,3.7,3.7,0,0,1,1.1-.5,2.44,2.44,0,0,1,1.2,0,3.79,3.79,0,0,1,1.3.6,5.79,5.79,0,0,1,1.2,1.4l.3.4-5,3.2-.5-.9,4-2.5a2,2,0,0,0-.8-.8,1.93,1.93,0,0,0-1-.3,2.28,2.28,0,0,0-1.1.3,2.17,2.17,0,0,0-.8.9,2.54,2.54,0,0,0-.2,1.2,2.1,2.1,0,0,0,.4,1.1l.4.6a5.47,5.47,0,0,0,1,1.1,2.66,2.66,0,0,0,1.2.3,2.84,2.84,0,0,0,1.2-.4,1.7,1.7,0,0,0,.6-.6.91.91,0,0,0,.3-.7,1.1,1.1,0,0,0,0-.8l1.1-.3a2.44,2.44,0,0,1,0,1.2,3.7,3.7,0,0,1-.5,1.1A5.24,5.24,0,0,1,475.7,951.6Zm2.8-11.1.5.8-3.3,2.1-.5-.8Zm-3.4,0,1-.6L480,946a3.81,3.81,0,0,0,.5.6.9.9,0,0,0,.5.1c.2,0,.3-.1.5-.2s.2-.1.3-.2l.1-.1.8.8c-.1.1-.1.2-.2.3a1.38,1.38,0,0,1-.4.3,1.61,1.61,0,0,1-.9.3,3.4,3.4,0,0,1-1-.1,2.17,2.17,0,0,1-.9-.8Zm10.2-2.3-.7.8a2.19,2.19,0,0,0-.5-.3,1.48,1.48,0,0,0-.7-.1,1.6,1.6,0,0,0-.8.3,1.71,1.71,0,0,0-.8.9,1.38,1.38,0,0,0,0,.9c.2.2.4.4.6.4a2.56,2.56,0,0,0,1.1-.2l1.1-.4a3.57,3.57,0,0,1,1.7-.2,1.78,1.78,0,0,1,1.1.8,2.66,2.66,0,0,1,.3,1.2,2.84,2.84,0,0,1-.4,1.2,4.26,4.26,0,0,1-1.2,1.1,3.81,3.81,0,0,1-1.9.6,2.36,2.36,0,0,1-1.6-.7l.8-.8a1.91,1.91,0,0,0,1,.5,2.13,2.13,0,0,0,1.2-.4,1.64,1.64,0,0,0,.9-2,.68.68,0,0,0-.6-.4,1.41,1.41,0,0,0-.9.1l-1.2.4a3.57,3.57,0,0,1-1.7.2,1.78,1.78,0,0,1-1.1-.8,2.66,2.66,0,0,1-.3-1.2,2.84,2.84,0,0,1,.4-1.2,3.57,3.57,0,0,1,1.1-1,2.5,2.5,0,0,1,1.8-.5A4.58,4.58,0,0,1,485.3,938.2Zm9.7-2.9,1.1-.7,1.8.6.5.2,2.6,1-1.1.7-1.7-.7-.4-.2Zm3.1-4.2a6,6,0,0,1,1,2.7,3.85,3.85,0,0,1-.4,2.4,4.55,4.55,0,0,1-1.6,1.8,4.13,4.13,0,0,1-4.6,0,7.59,7.59,0,0,1-2-2,6,6,0,0,1-1-2.7,3.85,3.85,0,0,1,.4-2.4,4.55,4.55,0,0,1,1.6-1.8,4.13,4.13,0,0,1,4.6,0A6.33,6.33,0,0,1,498.1,931.1Zm-1,.6a4.87,4.87,0,0,0-1.6-1.6,3,3,0,0,0-1.7-.5,3.69,3.69,0,0,0-1.7.5,3.74,3.74,0,0,0-1.2,1.3,3.43,3.43,0,0,0-.3,1.8,6,6,0,0,0,.8,2.1,4.87,4.87,0,0,0,1.6,1.6,3,3,0,0,0,1.7.5,3.69,3.69,0,0,0,1.7-.5,3.74,3.74,0,0,0,1.2-1.3,3.43,3.43,0,0,0,.3-1.8A8,8,0,0,0,497.1,931.7Zm7.7-2.6-2.4-3.8,1-.6,4.1,6.4-1,.6-.7-1.1h-.1a2,2,0,0,1-.2,1.3,2.59,2.59,0,0,1-1,1.1,1.92,1.92,0,0,1-1.2.4,3.45,3.45,0,0,1-1.3-.3,2.61,2.61,0,0,1-1.1-1.2l-2.6-4.1,1-.6,2.6,4a1.86,1.86,0,0,0,1.1.9,2,2,0,0,0,1.3-.2c.2-.2.5-.4.6-.7a1.69,1.69,0,0,0,.3-1A1.86,1.86,0,0,0,504.8,929.1Zm7.2-.6a3.23,3.23,0,0,1-1.8.6,4.07,4.07,0,0,1-1.8-.5,3.61,3.61,0,0,1-1.5-1.5,5.6,5.6,0,0,1-.8-2,2.67,2.67,0,0,1,.3-1.8,3.48,3.48,0,0,1,1.3-1.4,3.23,3.23,0,0,1,1.8-.6,4.07,4.07,0,0,1,1.8.5,4.31,4.31,0,0,1,1.5,1.5,4,4,0,0,1,.7,2,2.67,2.67,0,0,1-.3,1.8A3.13,3.13,0,0,1,512,928.5Zm-.6-.9a2.84,2.84,0,0,0,.9-1,2.77,2.77,0,0,0,.1-1.3,3.1,3.1,0,0,0-.6-1.3,5.24,5.24,0,0,0-1-1.1,2.08,2.08,0,0,0-1.2-.5,3.08,3.08,0,0,0-1.3.3,2.84,2.84,0,0,0-.9,1,2.77,2.77,0,0,0-.1,1.3,3.1,3.1,0,0,0,.6,1.3,5.24,5.24,0,0,0,1,1.1,3.08,3.08,0,0,0,1.2.5A2.08,2.08,0,0,0,511.4,927.6Zm3.6-10.3.5.8-3.3,2.1-.5-.8Zm-3.3-.1,1-.6,3.9,6.1a3.81,3.81,0,0,0,.5.6.9.9,0,0,0,.5.1c.2,0,.3-.1.5-.2s.2-.1.3-.2l.1-.1.8.8c-.1.1-.1.2-.2.3a1.38,1.38,0,0,1-.4.3,1.61,1.61,0,0,1-.9.3,3.4,3.4,0,0,1-1-.1,2.17,2.17,0,0,1-.9-.8Zm11.6,4a3.29,3.29,0,0,1-1.9.6,4.07,4.07,0,0,1-1.8-.5,4.29,4.29,0,0,1-1.5-1.5,4,4,0,0,1-.7-2,2.67,2.67,0,0,1,.3-1.8,3.48,3.48,0,0,1,1.3-1.4,3.7,3.7,0,0,1,1.1-.5,2.44,2.44,0,0,1,1.2,0,4.88,4.88,0,0,1,1.3.6,5.79,5.79,0,0,1,1.2,1.4l.3.4-5,3.2-.5-.9,4-2.5a2,2,0,0,0-.8-.8,1.93,1.93,0,0,0-1-.3,2.28,2.28,0,0,0-1.1.3,1.71,1.71,0,0,0-.8.9,2.54,2.54,0,0,0-.2,1.2,2.1,2.1,0,0,0,.4,1.1l.4.6a5.47,5.47,0,0,0,1,1.1,2.66,2.66,0,0,0,1.2.3,2.84,2.84,0,0,0,1.2-.4,1.7,1.7,0,0,0,.6-.6.91.91,0,0,0,.3-.7,1.1,1.1,0,0,0,0-.8l1.1-.3a2.44,2.44,0,0,1,0,1.2,3.7,3.7,0,0,1-.5,1.1A2.66,2.66,0,0,1,523.3,921.2Zm5.5-10.7-.7.8a2.19,2.19,0,0,0-.5-.3,1.48,1.48,0,0,0-.7-.1,1.6,1.6,0,0,0-.8.3,2.17,2.17,0,0,0-.8.9,1.38,1.38,0,0,0,0,.9c.2.2.4.4.6.4a2.8,2.8,0,0,0,1.1-.2l1.1-.4a3.57,3.57,0,0,1,1.7-.2,1.78,1.78,0,0,1,1.1.8,2.66,2.66,0,0,1,.3,1.2,2.84,2.84,0,0,1-.4,1.2,4.26,4.26,0,0,1-1.2,1.1,3.81,3.81,0,0,1-1.9.6,2.57,2.57,0,0,1-1.6-.7l.8-.8a1.91,1.91,0,0,0,1,.5,2.13,2.13,0,0,0,1.2-.4,1.64,1.64,0,0,0,.9-2,.68.68,0,0,0-.6-.4,1.41,1.41,0,0,0-.9.1l-1.2.4a3.69,3.69,0,0,1-1.7.2,1.78,1.78,0,0,1-1.1-.8,2.66,2.66,0,0,1-.3-1.2,2.84,2.84,0,0,1,.4-1.2,3.57,3.57,0,0,1,1.1-1,2.5,2.5,0,0,1,1.8-.5C527.9,910,528.4,910.2,528.8,910.5Zm5.5,1.9.2.5a3.37,3.37,0,0,1,.4,1.2c.1.4.3.8.4,1.2a5.07,5.07,0,0,1,.2.9l-.8.5a6.89,6.89,0,0,1-.3-.8,9.74,9.74,0,0,0-.5-1.1l-.6-1.2-.2-.5Zm9.2-12.5-1,.7a2.1,2.1,0,0,0-.8-.6,2.92,2.92,0,0,0-.9-.2,2.77,2.77,0,0,0-.9.1,3.55,3.55,0,0,0-.9.4,3.74,3.74,0,0,0-1.2,1.3,3.43,3.43,0,0,0-.3,1.8,6,6,0,0,0,.8,2.1,4.87,4.87,0,0,0,1.6,1.6,3,3,0,0,0,1.7.5,3.69,3.69,0,0,0,1.7-.5,4.35,4.35,0,0,0,.7-.6,2.18,2.18,0,0,0,.5-.8,2.92,2.92,0,0,0,.2-.9,3.55,3.55,0,0,0-.2-1l1-.7a4,4,0,0,1,.3,1.5,6.75,6.75,0,0,1-.2,1.4,7.46,7.46,0,0,1-.7,1.2,5.24,5.24,0,0,1-1.1,1,4.13,4.13,0,0,1-4.6,0,7.59,7.59,0,0,1-2-2,6,6,0,0,1-1-2.7,3.85,3.85,0,0,1,.4-2.4,5.48,5.48,0,0,1,1.6-1.8,3.79,3.79,0,0,1,1.3-.6,3.33,3.33,0,0,1,1.4-.1,2.84,2.84,0,0,1,1.3.4A2.54,2.54,0,0,1,543.5,899.9Zm8,3.4a3.23,3.23,0,0,1-1.8.6,4.07,4.07,0,0,1-1.8-.5,3.61,3.61,0,0,1-1.5-1.5,5.6,5.6,0,0,1-.8-2,2.67,2.67,0,0,1,.3-1.8,3.48,3.48,0,0,1,1.3-1.4,3.23,3.23,0,0,1,1.8-.6,4.07,4.07,0,0,1,1.8.5,4.31,4.31,0,0,1,1.5,1.5,4,4,0,0,1,.7,2,3.42,3.42,0,0,1-1.5,3.2Zm-.5-.9a2.84,2.84,0,0,0,.9-1,1.9,1.9,0,0,0,.1-1.3,3.1,3.1,0,0,0-.6-1.3,5.24,5.24,0,0,0-1-1.1,2.08,2.08,0,0,0-1.2-.5,2.2,2.2,0,0,0-1.3.4,2.84,2.84,0,0,0-.9,1,2.77,2.77,0,0,0-.1,1.3,3.1,3.1,0,0,0,.6,1.3,5.24,5.24,0,0,0,1,1.1,3.08,3.08,0,0,0,1.2.5A1.79,1.79,0,0,0,551,902.4Zm3.4-6.6,2.5,3.9-1,.6-4.1-6.4,1-.6.6,1,.1-.1a1.72,1.72,0,0,1,.2-1.2,2.59,2.59,0,0,1,1-1.1,3.49,3.49,0,0,1,1.3-.5,3.08,3.08,0,0,1,1.3.3,2.61,2.61,0,0,1,1.1,1.2L561,897l-1,.6-2.6-4a1.86,1.86,0,0,0-1.1-.9,1.9,1.9,0,0,0-1.4.3,1.58,1.58,0,0,0-.7.7,1.64,1.64,0,0,0-.2,1A2.1,2.1,0,0,0,554.4,895.8Zm7.2-8.1.5.8-3.5,2.2-.5-.8Zm1.6,8-4.7-7.3a2.28,2.28,0,0,1-.3-1.1,1.69,1.69,0,0,1,.3-1,2.7,2.7,0,0,1,.8-.7,1.1,1.1,0,0,1,.6-.3.76.76,0,0,1,.4-.1l.3,1c-.1,0-.1,0-.2.1s-.2.1-.4.2a1.34,1.34,0,0,0-.6.7,1.64,1.64,0,0,0,.2.9l4.5,7.1Zm3.8-2.5-4.1-6.4,1-.6,4.1,6.4Zm-4.2-7.8a.66.66,0,0,1-.6.1.85.85,0,0,1-.5-.3,1.27,1.27,0,0,1-.1-.6,1,1,0,0,1,.4-.5.66.66,0,0,1,.6-.1.85.85,0,0,1,.5.3,1.27,1.27,0,0,1,.1.6A1,1,0,0,1,562.8,885.4Zm7,6.1-4.1-6.4,1-.6.6,1h.1a2.46,2.46,0,0,1,.1-1.2,2.84,2.84,0,0,1,.9-1c.1,0,.2-.1.3-.2a.37.37,0,0,1,.3-.1l.6,1a.77.77,0,0,0-.3.1c-.1.1-.3.1-.4.2a1.58,1.58,0,0,0-.7.7,1.49,1.49,0,0,0-.2.9,1.61,1.61,0,0,0,.3.9l2.6,4.1Zm4.4-2.8-4.1-6.4,1-.6.6,1,.1-.1a2.46,2.46,0,0,1,.1-1.2,2.84,2.84,0,0,1,.9-1,2,2,0,0,1,2.4,0h.1a3,3,0,0,1,.2-1.3,2.59,2.59,0,0,1,1-1.1,2.41,2.41,0,0,1,1.8-.4,2.75,2.75,0,0,1,1.6,1.3l2.7,4.3-1,.6-2.7-4.3a1.52,1.52,0,0,0-1-.8,2,2,0,0,0-1.1.3,1.48,1.48,0,0,0-.8,1.1,1.59,1.59,0,0,0,.3,1.3l2.7,4.2-1,.6-2.8-4.4a1.27,1.27,0,0,0-.9-.7,1.39,1.39,0,0,0-1.1.2,1.34,1.34,0,0,0-.6.7,2.92,2.92,0,0,0-.2.9,2.24,2.24,0,0,0,.3,1l2.6,4Zm11.7-14.5-.7.8a2.19,2.19,0,0,0-.5-.3,1.48,1.48,0,0,0-.7-.1,1.6,1.6,0,0,0-.8.3,2.17,2.17,0,0,0-.8.9,1.38,1.38,0,0,0,0,.9c.2.2.4.4.6.4a2.56,2.56,0,0,0,1.1-.2l1.1-.4a3.57,3.57,0,0,1,1.7-.2,1.78,1.78,0,0,1,1.1.8,2.66,2.66,0,0,1,.3,1.2,2.84,2.84,0,0,1-.4,1.2,4.26,4.26,0,0,1-1.2,1.1,3.81,3.81,0,0,1-1.9.6,2.36,2.36,0,0,1-1.6-.7l.8-.8a1.91,1.91,0,0,0,1,.5,2.13,2.13,0,0,0,1.2-.4,1.64,1.64,0,0,0,.9-2,.68.68,0,0,0-.6-.4,1.41,1.41,0,0,0-.9.1l-1.2.4a3.57,3.57,0,0,1-1.7.2,1.78,1.78,0,0,1-1.1-.8,2.66,2.66,0,0,1-.3-1.2,2.84,2.84,0,0,1,.4-1.2,3.57,3.57,0,0,1,1.1-1,2.5,2.5,0,0,1,1.8-.5A14.8,14.8,0,0,0,585.9,874.2Zm10.8.4a3.23,3.23,0,0,1-1.8.6,4.07,4.07,0,0,1-1.8-.5,3.61,3.61,0,0,1-1.5-1.5,5.6,5.6,0,0,1-.8-2,2.67,2.67,0,0,1,.3-1.8,3.48,3.48,0,0,1,1.3-1.4,3.23,3.23,0,0,1,1.8-.6,4.07,4.07,0,0,1,1.8.5,4.31,4.31,0,0,1,1.5,1.5,4,4,0,0,1,.7,2,2.67,2.67,0,0,1-.3,1.8A3.13,3.13,0,0,1,596.7,874.6Zm-.6-.9a2.84,2.84,0,0,0,.9-1,2.77,2.77,0,0,0,.1-1.3,3.1,3.1,0,0,0-.6-1.3,5.24,5.24,0,0,0-1-1.1,2.08,2.08,0,0,0-1.2-.5,3.08,3.08,0,0,0-1.3.3,2.19,2.19,0,0,0-.9,1,2.77,2.77,0,0,0-.1,1.3,3.1,3.1,0,0,0,.6,1.3,5.24,5.24,0,0,0,1,1.1,3.08,3.08,0,0,0,1.2.5A1.52,1.52,0,0,0,596.1,873.7Zm5-2.1-4.1-6.4,1-.6.6,1h.1a2.46,2.46,0,0,1,.1-1.2,2.84,2.84,0,0,1,.9-1c.1,0,.2-.1.3-.2a.37.37,0,0,1,.3-.1l.6,1a.77.77,0,0,0-.3.1c-.1.1-.3.1-.4.2a1.58,1.58,0,0,0-.7.7,1.49,1.49,0,0,0-.2.9,1.61,1.61,0,0,0,.3.9l2.6,4.1Zm6.7-4.1a3.14,3.14,0,0,1-3.4,0,7.81,7.81,0,0,1-1.5-1.6,5.6,5.6,0,0,1-.8-2,3.72,3.72,0,0,1,.2-1.8,2.5,2.5,0,0,1,1.2-1.3,1.86,1.86,0,0,1,1.1-.4,2.77,2.77,0,0,1,.9.1,1.42,1.42,0,0,0,.6.2l.1-.1-2-3.2,1-.6,5.5,8.6-1,.6-.6-1-.1.1v.6a1.33,1.33,0,0,1-.3.8A1.79,1.79,0,0,1,607.8,867.5Zm-.5-1a1.89,1.89,0,0,0,.8-1,2.77,2.77,0,0,0,.1-1.3,4.24,4.24,0,0,0-.6-1.4,2.71,2.71,0,0,0-1-1.1,3.08,3.08,0,0,0-1.2-.5,2.66,2.66,0,0,0-1.2.3,1.89,1.89,0,0,0-.8,1,2.77,2.77,0,0,0-.1,1.3,4.24,4.24,0,0,0,.6,1.4,3.57,3.57,0,0,0,1,1.1,3.08,3.08,0,0,0,1.2.5A1.38,1.38,0,0,0,607.3,866.5Zm8.1-3.8a3.29,3.29,0,0,1-1.9.6,4.07,4.07,0,0,1-1.8-.5,4.29,4.29,0,0,1-1.5-1.5,5.6,5.6,0,0,1-.8-2,2.67,2.67,0,0,1,.3-1.8,3.48,3.48,0,0,1,1.3-1.4,3.7,3.7,0,0,1,1.1-.5,2.44,2.44,0,0,1,1.2,0,3.79,3.79,0,0,1,1.3.6,5.79,5.79,0,0,1,1.2,1.4l.3.4-5,3.2-.5-.9,4-2.5a2,2,0,0,0-.8-.8,1.93,1.93,0,0,0-1-.3,2.28,2.28,0,0,0-1.1.3,2.17,2.17,0,0,0-.8.9,2.54,2.54,0,0,0-.2,1.2,2.1,2.1,0,0,0,.4,1.1l.4.6a5.47,5.47,0,0,0,1,1.1,2.66,2.66,0,0,0,1.2.3,2.84,2.84,0,0,0,1.2-.4,1.7,1.7,0,0,0,.6-.6.91.91,0,0,0,.3-.7,1.1,1.1,0,0,0,0-.8l1.1-.3a2.44,2.44,0,0,1,0,1.2,3.7,3.7,0,0,1-.5,1.1A3.18,3.18,0,0,1,615.4,862.7Zm4.1-2.8-4.1-6.4,1-.6.6,1h.1a2.46,2.46,0,0,1,.1-1.2,2.84,2.84,0,0,1,.9-1c.1,0,.2-.1.3-.2a.37.37,0,0,1,.3-.1l.6,1a.44.44,0,0,1-.3.1c-.1.1-.3.1-.4.2a1.58,1.58,0,0,0-.7.7,1.49,1.49,0,0,0-.2.9,1.61,1.61,0,0,0,.3.9l2.6,4.1Zm5.7-10.7-.7.8c-.2-.1-.3-.2-.5-.3a1.48,1.48,0,0,0-.7-.1,1.6,1.6,0,0,0-.8.3,2.17,2.17,0,0,0-.8.9,1.38,1.38,0,0,0,0,.9c.2.2.4.4.6.4a2.56,2.56,0,0,0,1.1-.2l1.1-.4a3.57,3.57,0,0,1,1.7-.2,1.78,1.78,0,0,1,1.1.8,2.66,2.66,0,0,1,.3,1.2,2.84,2.84,0,0,1-.4,1.2,3.23,3.23,0,0,1-1.2,1.1,3.81,3.81,0,0,1-1.9.6,2.36,2.36,0,0,1-1.6-.7l.8-.8a1.91,1.91,0,0,0,1,.5,2.13,2.13,0,0,0,1.2-.4,1.64,1.64,0,0,0,.9-2,.68.68,0,0,0-.6-.4,1.41,1.41,0,0,0-.9.1l-1.2.4a3.57,3.57,0,0,1-1.7.2,1.78,1.78,0,0,1-1.1-.8,2.66,2.66,0,0,1-.3-1.2,2.84,2.84,0,0,1,.4-1.2,3.57,3.57,0,0,1,1.1-1,2.5,2.5,0,0,1,1.8-.5A4.58,4.58,0,0,1,625.2,849.2Z"></path><path class="cls-6" d="M1045.6,573c-.1-.3-.3-.6-.4-.9a4.35,4.35,0,0,0-.6-.7,2,2,0,0,0-.8-.4,3,3,0,0,0-1-.2,2.77,2.77,0,0,0-1.6.5,3.33,3.33,0,0,0-1.2,1.4,4.81,4.81,0,0,0-.4,2.2,6.65,6.65,0,0,0,.4,2.2,3.33,3.33,0,0,0,1.2,1.4,3.37,3.37,0,0,0,1.7.5,2.41,2.41,0,0,0,1.5-.4,2.66,2.66,0,0,0,1-1.1,4.19,4.19,0,0,0,.4-1.6l.4.1h-3.1v-1.1h3.9V576a5.09,5.09,0,0,1-.5,2.2,2.94,2.94,0,0,1-1.5,1.4,5.1,5.1,0,0,1-4.6-.1,4,4,0,0,1-1.6-1.8,6.09,6.09,0,0,1-.6-2.8,7.8,7.8,0,0,1,.3-2.2,5.56,5.56,0,0,1,.9-1.7,3.32,3.32,0,0,1,1.4-1,4.78,4.78,0,0,1,1.8-.4,7.72,7.72,0,0,1,1.5.2,3.46,3.46,0,0,1,1.2.7,2.84,2.84,0,0,1,.9,1,6.94,6.94,0,0,1,.5,1.3h-1.1Zm6.5,7.2a3.83,3.83,0,0,1-1.9-.5,3.33,3.33,0,0,1-1.2-1.4,4.64,4.64,0,0,1-.4-2.1,6.54,6.54,0,0,1,.4-2.1,3.33,3.33,0,0,1,1.2-1.4,3.45,3.45,0,0,1,1.8-.5,5,5,0,0,1,1.2.2,3,3,0,0,1,1.1.6,3.6,3.6,0,0,1,.8,1.2,4.84,4.84,0,0,1,.3,1.8v.5h-5.9v-1h4.7a2.66,2.66,0,0,0-.3-1.2,2.7,2.7,0,0,0-.7-.8,2,2,0,0,0-1.1-.3,2.13,2.13,0,0,0-1.2.3,2.36,2.36,0,0,0-.8.9,2.66,2.66,0,0,0-.3,1.2v.7a3.34,3.34,0,0,0,.3,1.5,2.36,2.36,0,0,0,.8.9,2.66,2.66,0,0,0,1.2.3,2,2,0,0,0,.8-.1,2.51,2.51,0,0,0,.7-.4,1.61,1.61,0,0,0,.4-.7l1.1.3a2.07,2.07,0,0,1-.6,1,3.59,3.59,0,0,1-1,.7A2.3,2.3,0,0,1,1052.1,580.2Zm8.2-7.8v1h-4v-1Zm-2.8-1.9h1.2v7.3a5.64,5.64,0,0,0,.1.7c.1.2.2.3.4.3a.9.9,0,0,0,.5.1h.5l.2,1.1c-.1,0-.2.1-.3.1h-.6a3.55,3.55,0,0,1-1-.2,1.78,1.78,0,0,1-.8-.7,2,2,0,0,1-.3-1.1v-7.6Zm9.9,3.6-1.1.3c-.1-.2-.2-.3-.3-.5a1,1,0,0,0-.5-.4,1.88,1.88,0,0,0-.8-.2,2.38,2.38,0,0,0-1.2.3,1,1,0,0,0-.5.8.91.91,0,0,0,.3.7,1.88,1.88,0,0,0,1,.4l1.1.3a2.68,2.68,0,0,1,1.5.8,1.9,1.9,0,0,1,.5,1.3,1.92,1.92,0,0,1-.4,1.2,2.72,2.72,0,0,1-1,.8,3.81,3.81,0,0,1-1.6.3,3.56,3.56,0,0,1-1.9-.5,2.38,2.38,0,0,1-1-1.5l1.1-.3a1.46,1.46,0,0,0,.6.9,2.13,2.13,0,0,0,1.2.3,2.27,2.27,0,0,0,1.3-.3,1,1,0,0,0,.5-.8.91.91,0,0,0-.3-.7,1.88,1.88,0,0,0-.9-.4l-1.3-.3a2.68,2.68,0,0,1-1.5-.8,2.11,2.11,0,0,1-.5-1.3,1.5,1.5,0,0,1,.4-1.1,2.72,2.72,0,0,1,1-.8,3.46,3.46,0,0,1,3.2.2A2,2,0,0,1,1067.4,574.1Zm9.7,2.7h1.4l1.1,1.5.3.4,1.7,2.2h-1.4l-1.1-1.5-.3-.4Zm4.9-1.9a6.09,6.09,0,0,1-.6,2.8,4,4,0,0,1-1.6,1.8,4.65,4.65,0,0,1-2.3.6,4.38,4.38,0,0,1-2.3-.6,4,4,0,0,1-1.6-1.8,6.83,6.83,0,0,1,0-5.6,4,4,0,0,1,1.6-1.8,4.71,4.71,0,0,1,4.6,0,4,4,0,0,1,1.6,1.8A6.09,6.09,0,0,1,1082,574.9Zm-1.2,0a4.77,4.77,0,0,0-.5-2.2,3.33,3.33,0,0,0-1.2-1.4,3.14,3.14,0,0,0-3.4,0,3.33,3.33,0,0,0-1.2,1.4,6.25,6.25,0,0,0,0,4.4,3.33,3.33,0,0,0,1.2,1.4,3.14,3.14,0,0,0,3.4,0,3.33,3.33,0,0,0,1.2-1.4A4.77,4.77,0,0,0,1080.8,574.9Zm7.9,2v-4.5h1.2V580h-1.2v-1.3h-.1a3.92,3.92,0,0,1-.8,1,2.12,2.12,0,0,1-1.4.4,2.77,2.77,0,0,1-1.3-.3,1.79,1.79,0,0,1-.9-1,3.81,3.81,0,0,1-.3-1.6v-4.9h1.2v4.8a1.43,1.43,0,0,0,.5,1.3,1.66,1.66,0,0,0,1.2.5,2.92,2.92,0,0,0,.9-.2,1.78,1.78,0,0,0,.8-.7A3.09,3.09,0,0,0,1088.7,576.9Zm6.4,3.3a3.45,3.45,0,0,1-1.8-.5,3.33,3.33,0,0,1-1.2-1.4,4.64,4.64,0,0,1-.4-2.1,6.54,6.54,0,0,1,.4-2.1,3.33,3.33,0,0,1,1.2-1.4,3.49,3.49,0,0,1,3.6,0,3.33,3.33,0,0,1,1.2,1.4,5.71,5.71,0,0,1,0,4.2,4.07,4.07,0,0,1-1.2,1.4A3.45,3.45,0,0,1,1095.1,580.2Zm0-1.1a1.84,1.84,0,0,0,1.3-.4,3.13,3.13,0,0,0,.8-1.1,3.18,3.18,0,0,0,.2-1.4,5.9,5.9,0,0,0-.2-1.4,2.84,2.84,0,0,0-.8-1.1,1.84,1.84,0,0,0-1.3-.4,2,2,0,0,0-1.3.4,3.13,3.13,0,0,0-.8,1.1,3.18,3.18,0,0,0-.2,1.4,5.9,5.9,0,0,0,.2,1.4,2.84,2.84,0,0,0,.8,1.1A2,2,0,0,0,1095.1,579.1Zm8.6-6.7v1h-4v-1Zm-2.8-1.9h1.2v7.3c0,.3,0,.6.1.7s.2.3.4.3a.9.9,0,0,0,.5.1h.5l.2,1.1c-.1,0-.2.1-.3.1h-.5a3.55,3.55,0,0,1-1-.2,1.78,1.78,0,0,1-.8-.7,2,2,0,0,1-.3-1.1v-7.6Zm7.7,9.7a3.83,3.83,0,0,1-1.9-.5,3.33,3.33,0,0,1-1.2-1.4,5.71,5.71,0,0,1,0-4.2,3.33,3.33,0,0,1,1.2-1.4,3.45,3.45,0,0,1,1.8-.5,5,5,0,0,1,1.2.2,3,3,0,0,1,1.1.6,3.6,3.6,0,0,1,.8,1.2,4.84,4.84,0,0,1,.3,1.8v.5H1106v-1h4.7a2.66,2.66,0,0,0-.3-1.2,2.7,2.7,0,0,0-.7-.8,2,2,0,0,0-1.1-.3,2.13,2.13,0,0,0-1.2.3,2.36,2.36,0,0,0-.8.9,2.66,2.66,0,0,0-.3,1.2v.7a3.34,3.34,0,0,0,.3,1.5,2.36,2.36,0,0,0,.8.9,2.66,2.66,0,0,0,1.2.3,2,2,0,0,0,.8-.1,1.53,1.53,0,0,0,1.1-1.1l1.1.3a2.07,2.07,0,0,1-.6,1,3.59,3.59,0,0,1-1,.7A2.3,2.3,0,0,1,1108.6,580.2Zm10.3-6.1-1.1.3c-.1-.2-.2-.3-.3-.5a1,1,0,0,0-.5-.4,1.88,1.88,0,0,0-.8-.2,2.13,2.13,0,0,0-1.2.3,1,1,0,0,0-.5.8.91.91,0,0,0,.3.7,1.88,1.88,0,0,0,1,.4l1.1.3a2.68,2.68,0,0,1,1.5.8,1.9,1.9,0,0,1,.5,1.3,1.92,1.92,0,0,1-.4,1.2,2.72,2.72,0,0,1-1,.8,4.15,4.15,0,0,1-1.6.3,3.56,3.56,0,0,1-1.9-.5,2.38,2.38,0,0,1-1-1.5l1.1-.3a1.46,1.46,0,0,0,.6.9,2.13,2.13,0,0,0,1.2.3,2.5,2.5,0,0,0,1.3-.3,1,1,0,0,0,.5-.8.91.91,0,0,0-.3-.7,2,2,0,0,0-.8-.4l-1.3-.3a2.68,2.68,0,0,1-1.5-.8,2.11,2.11,0,0,1-.5-1.3,1.5,1.5,0,0,1,.4-1.1,2.72,2.72,0,0,1,1-.8,3.46,3.46,0,0,1,3.2.2A2.21,2.21,0,0,1,1118.9,574.1Zm3.7,4.5-.1.5a5.27,5.27,0,0,1-.3,1.2l-.3,1.2a4.65,4.65,0,0,1-.3.9h-.9a3.09,3.09,0,0,1,.2-.8c.1-.3.1-.7.2-1.2s.1-.9.2-1.3l.1-.6h1.2ZM1038.7,591h-1.2a1.88,1.88,0,0,0-.4-.9,2.34,2.34,0,0,0-.7-.7,2,2,0,0,0-.8-.4,3.08,3.08,0,0,0-1-.1,3.37,3.37,0,0,0-1.7.5,3.33,3.33,0,0,0-1.2,1.4,6.25,6.25,0,0,0,0,4.4,3.33,3.33,0,0,0,1.2,1.4,3.63,3.63,0,0,0,2.7.4,2,2,0,0,0,.8-.4,2.34,2.34,0,0,0,.7-.7,3.55,3.55,0,0,0,.4-.9h1.2a5.78,5.78,0,0,1-.5,1.4,2.19,2.19,0,0,1-.9,1,7.46,7.46,0,0,1-1.2.7,3.4,3.4,0,0,1-1.4.2,4.38,4.38,0,0,1-2.3-.6,4,4,0,0,1-1.6-1.8,6.83,6.83,0,0,1,0-5.6,4,4,0,0,1,1.6-1.8,4.38,4.38,0,0,1,2.3-.6,5.9,5.9,0,0,1,1.4.2,2.4,2.4,0,0,1,1.2.7,2.84,2.84,0,0,1,.9,1A2.7,2.7,0,0,1,1038.7,591Zm5,7.2a3.45,3.45,0,0,1-1.8-.5,3.33,3.33,0,0,1-1.2-1.4,5.71,5.71,0,0,1,0-4.2,3.33,3.33,0,0,1,1.2-1.4,3.49,3.49,0,0,1,3.6,0,3.33,3.33,0,0,1,1.2,1.4,5.71,5.71,0,0,1,0,4.2,4.07,4.07,0,0,1-1.2,1.4A2.9,2.9,0,0,1,1043.7,598.2Zm0-1.1a1.84,1.84,0,0,0,1.3-.4,3.13,3.13,0,0,0,.8-1.1,3.18,3.18,0,0,0,.2-1.4,5.9,5.9,0,0,0-.2-1.4,2.84,2.84,0,0,0-.8-1.1,2.31,2.31,0,0,0-2.6,0,3.13,3.13,0,0,0-.8,1.1,3.18,3.18,0,0,0-.2,1.4,5.9,5.9,0,0,0,.2,1.4,2.84,2.84,0,0,0,.8,1.1A1.7,1.7,0,0,0,1043.7,597.1Zm6.4-3.7V598h-1.2v-7.6h1.1v1.2h.1a2.36,2.36,0,0,1,.8-.9,2.89,2.89,0,0,1,1.4-.4,3.19,3.19,0,0,1,1.4.3,1.79,1.79,0,0,1,.9,1,3.81,3.81,0,0,1,.3,1.6v4.9h-1.2v-4.8a2,2,0,0,0-.5-1.4,1.73,1.73,0,0,0-1.3-.5,3,3,0,0,0-1,.2,2.34,2.34,0,0,0-.7.7C1050.2,592.6,1050.1,593,1050.1,593.4Zm10.4-3v1h-4.1v-1Zm-2.9,7.6v-8.7a2,2,0,0,1,.3-1.1,2.7,2.7,0,0,1,.8-.7,3.55,3.55,0,0,1,1-.2,1.48,1.48,0,0,1,.7.1c.2,0,.3.1.4.1l-.3,1c-.1,0-.1,0-.2-.1h-.4c-.4,0-.7.1-.8.3a1.22,1.22,0,0,0-.3.9V598Zm4.5,0v-7.6h1.2V598Zm.6-8.9a1.42,1.42,0,0,1-.6-.2c-.2-.2-.2-.3-.2-.6a1.42,1.42,0,0,1,.2-.6.73.73,0,0,1,.6-.2,1.42,1.42,0,0,1,.6.2c.2.2.2.3.2.6a1.42,1.42,0,0,1-.2.6A.85.85,0,0,1,1062.7,589.1Zm2.8,8.9v-7.6h1.1v1.2h.1a1.42,1.42,0,0,1,.8-.9,2.84,2.84,0,0,1,1.2-.4h.6v1.2h-.7a3,3,0,0,0-1,.2,4.35,4.35,0,0,0-.7.6,1.49,1.49,0,0,0-.2.9V598Zm5.2,0v-7.6h1.1v1.2h.1a2.54,2.54,0,0,1,.8-1,3,3,0,0,1,2.6,0,2.09,2.09,0,0,1,.8,1h.1a2,2,0,0,1,.9-.9,3.26,3.26,0,0,1,1.4-.4,2.52,2.52,0,0,1,1.7.6,2.81,2.81,0,0,1,.6,2V598h-1.2v-5.1a1.36,1.36,0,0,0-.5-1.2,2.1,2.1,0,0,0-1.1-.4,1.5,1.5,0,0,0-1.2.5,1.59,1.59,0,0,0-.4,1.2v5h-1.2v-5.2a1.16,1.16,0,0,0-.4-1,1.37,1.37,0,0,0-1.1-.4,1.88,1.88,0,0,0-.8.2,1.34,1.34,0,0,0-.6.7,1.64,1.64,0,0,0-.2,1v4.8h-1.4Zm17.5-5.9-1.1.3c-.1-.2-.2-.3-.3-.5a1,1,0,0,0-.5-.4,1.88,1.88,0,0,0-.8-.2,2.13,2.13,0,0,0-1.2.3,1,1,0,0,0-.5.8.91.91,0,0,0,.3.7,1.88,1.88,0,0,0,1,.4l1.1.3a2.68,2.68,0,0,1,1.5.8,1.9,1.9,0,0,1,.5,1.3,1.92,1.92,0,0,1-.4,1.2,2.42,2.42,0,0,1-1.1.8,3.81,3.81,0,0,1-1.6.3,3.56,3.56,0,0,1-1.9-.5,2.38,2.38,0,0,1-1-1.5l1.1-.3a1.46,1.46,0,0,0,.6.9,2.13,2.13,0,0,0,1.2.3,2.27,2.27,0,0,0,1.3-.3,1,1,0,0,0,.5-.8.91.91,0,0,0-.3-.7,2,2,0,0,0-.8-.4l-1.3-.3a2.68,2.68,0,0,1-1.5-.8,2.11,2.11,0,0,1-.5-1.3,1.5,1.5,0,0,1,.4-1.1,2.72,2.72,0,0,1,1-.8,3.46,3.46,0,0,1,3.2.2A1.6,1.6,0,0,1,1088.2,592.1Zm9,6.1a3.45,3.45,0,0,1-1.8-.5,3.33,3.33,0,0,1-1.2-1.4,5.71,5.71,0,0,1,0-4.2,3.33,3.33,0,0,1,1.2-1.4,3.49,3.49,0,0,1,3.6,0,3.33,3.33,0,0,1,1.2,1.4,4.64,4.64,0,0,1,.4,2.1,6.54,6.54,0,0,1-.4,2.1,4.07,4.07,0,0,1-1.2,1.4A2.73,2.73,0,0,1,1097.2,598.2Zm0-1.1a1.84,1.84,0,0,0,1.3-.4,3.13,3.13,0,0,0,.8-1.1,3.18,3.18,0,0,0,.2-1.4,5.9,5.9,0,0,0-.2-1.4,2.84,2.84,0,0,0-.8-1.1,1.84,1.84,0,0,0-1.3-.4,2,2,0,0,0-1.3.4,3.13,3.13,0,0,0-.8,1.1,3.18,3.18,0,0,0-.2,1.4,5.9,5.9,0,0,0,.2,1.4,2.84,2.84,0,0,0,.8,1.1A1.84,1.84,0,0,0,1097.2,597.1Zm5.2.9v-7.6h1.1v1.2h.1a1.42,1.42,0,0,1,.8-.9,2.84,2.84,0,0,1,1.2-.4h.6v1.2h-.7a3,3,0,0,0-1,.2,4.35,4.35,0,0,0-.7.6,1.49,1.49,0,0,0-.2.9V598Zm7.9.2a3.37,3.37,0,0,1-1.7-.5,3.33,3.33,0,0,1-1.2-1.4,5.71,5.71,0,0,1,0-4.2,4.07,4.07,0,0,1,1.2-1.4,3.37,3.37,0,0,1,1.7-.5,3.73,3.73,0,0,1,1.2.2,2,2,0,0,1,.7.6,2.18,2.18,0,0,0,.4.5h.1v-3.8h1.2V598h-1.1v-1.2h-.1c-.1.1-.2.3-.4.5a4.35,4.35,0,0,1-.7.6A2.77,2.77,0,0,1,1110.3,598.2Zm.2-1.1a1.59,1.59,0,0,0,1.2-.4,1.83,1.83,0,0,0,.7-1,3.34,3.34,0,0,0,.3-1.5,6.05,6.05,0,0,0-.2-1.5,2.55,2.55,0,0,0-.7-1,2.14,2.14,0,0,0-1.2-.4,1.59,1.59,0,0,0-1.2.4,2.29,2.29,0,0,0-.7,1,3.42,3.42,0,0,0-.2,1.5,7.72,7.72,0,0,0,.2,1.5,2.84,2.84,0,0,0,.8,1.1C1109.6,597,1110,597.1,1110.5,597.1Zm8.8,1.1a3.83,3.83,0,0,1-1.9-.5,3.33,3.33,0,0,1-1.2-1.4,4.64,4.64,0,0,1-.4-2.1,6.54,6.54,0,0,1,.4-2.1,3.33,3.33,0,0,1,1.2-1.4,3.45,3.45,0,0,1,1.8-.5,5,5,0,0,1,1.2.2,3,3,0,0,1,1.1.6,3.6,3.6,0,0,1,.8,1.2,4.84,4.84,0,0,1,.3,1.8v.5h-5.9v-1h4.7a2.66,2.66,0,0,0-.3-1.2,2.7,2.7,0,0,0-.7-.8,2,2,0,0,0-1.1-.3,2.13,2.13,0,0,0-1.2.3,2.36,2.36,0,0,0-.8.9,2.66,2.66,0,0,0-.3,1.2v.7a3.34,3.34,0,0,0,.3,1.5,2.36,2.36,0,0,0,.8.9,2.66,2.66,0,0,0,1.2.3,2,2,0,0,0,.8-.1,2.51,2.51,0,0,0,.7-.4,1.61,1.61,0,0,0,.4-.7l1.1.3a2.07,2.07,0,0,1-.6,1,3,3,0,0,1-1.1.7A1.84,1.84,0,0,1,1119.3,598.2Zm5-.2v-7.6h1.1v1.2h.1a1.42,1.42,0,0,1,.8-.9,2.84,2.84,0,0,1,1.2-.4h.6v1.2h-.8a3,3,0,0,0-1,.2,4.35,4.35,0,0,0-.7.6,1.49,1.49,0,0,0-.2.9V598Zm10.6-5.9-1.1.3c-.1-.2-.2-.3-.3-.5a1,1,0,0,0-.5-.4,1.88,1.88,0,0,0-.8-.2,2.13,2.13,0,0,0-1.2.3,1,1,0,0,0-.5.8.91.91,0,0,0,.3.7,2.32,2.32,0,0,0,1,.4l1.1.3a2.68,2.68,0,0,1,1.5.8,1.9,1.9,0,0,1,.5,1.3,1.92,1.92,0,0,1-.4,1.2,2.72,2.72,0,0,1-1,.8,3.81,3.81,0,0,1-1.6.3,3.56,3.56,0,0,1-1.9-.5,2.38,2.38,0,0,1-1-1.5l1.1-.3a1.46,1.46,0,0,0,.6.9,2.13,2.13,0,0,0,1.2.3,2.5,2.5,0,0,0,1.3-.3,1,1,0,0,0,.5-.8.91.91,0,0,0-.3-.7,1.88,1.88,0,0,0-.9-.4l-1.3-.3a2.68,2.68,0,0,1-1.5-.8,2.11,2.11,0,0,1-.5-1.3,1.5,1.5,0,0,1,.4-1.1,2.72,2.72,0,0,1,1-.8,3.46,3.46,0,0,1,3.2.2A2,2,0,0,1,1134.9,592.1Z"></path><path class="cls-6" d="M419.2,872a1.43,1.43,0,0,0-1.2-.6,3,3,0,0,0-1.5.5,2.36,2.36,0,0,0-.9.8,1.61,1.61,0,0,0-.3.9,2.92,2.92,0,0,0,.2.9,1.21,1.21,0,0,0,.5.5,1.48,1.48,0,0,0,.7.1,1.7,1.7,0,0,0,.7-.1c.2-.1.4-.1.6-.2l1-.3a2.92,2.92,0,0,1,.9-.2,3.75,3.75,0,0,1,1.1-.1,2.28,2.28,0,0,1,1.1.3,3.82,3.82,0,0,1,.9.9,2.82,2.82,0,0,1,.4,1.5,3.68,3.68,0,0,1-.5,1.6,4.09,4.09,0,0,1-1.5,1.4,4.49,4.49,0,0,1-1.8.7,2.85,2.85,0,0,1-1.6-.2,2.34,2.34,0,0,1-1.2-1l1.1-.7a1.56,1.56,0,0,0,.8.6,1.7,1.7,0,0,0,1,0,2.7,2.7,0,0,0,1.1-.5,2.58,2.58,0,0,0,.9-.9,2.11,2.11,0,0,0,.4-1,1.64,1.64,0,0,0-.2-1c-.2-.3-.4-.5-.7-.5a1.39,1.39,0,0,0-.9,0c-.3.1-.7.1-1,.2l-1.3.4a5.32,5.32,0,0,1-2.1.2,2.52,2.52,0,0,1-1.5-1,2.82,2.82,0,0,1-.4-1.5,3,3,0,0,1,.5-1.5,3,3,0,0,1,1.3-1.2,2.93,2.93,0,0,1,1.7-.6,2.4,2.4,0,0,1,1.5.2,2,2,0,0,1,1.1.9Zm8.9,6.7c-.2.1-.3.2-.5.2a.49.49,0,0,1-.3.1l-.3-1a4.88,4.88,0,0,0,.7-.3.6.6,0,0,0,.3-.6,1.86,1.86,0,0,0-.1-1l-.1-.6-6.5-5,1.1-.7,5,4h.1l-1.5-6.3,1.1-.7,2,9.1a4.48,4.48,0,0,1,.1,1.1,1.61,1.61,0,0,1-.3.9A2,2,0,0,1,428.1,878.7ZM431,868l2.5,3.9-1,.6-4.1-6.4,1-.6.6,1,.1-.1a1.72,1.72,0,0,1,.2-1.2,2.59,2.59,0,0,1,1-1.1,3.49,3.49,0,0,1,1.3-.5,3.08,3.08,0,0,1,1.3.3,2.61,2.61,0,0,1,1.1,1.2l2.6,4.1-1,.6-2.6-4a1.86,1.86,0,0,0-1.1-.9,1.9,1.9,0,0,0-1.4.3,2.31,2.31,0,0,0-.7.7,1.64,1.64,0,0,0-.2,1A3.58,3.58,0,0,0,431,868Zm11.1-1.4a3.23,3.23,0,0,1-1.8.6,3.62,3.62,0,0,1-3.2-2,4,4,0,0,1-.7-2,2.67,2.67,0,0,1,.3-1.8A3.48,3.48,0,0,1,438,860a2.65,2.65,0,0,1,1.4-.5,2.77,2.77,0,0,1,1.3.1,2.84,2.84,0,0,1,1.1.8l-1,.6a3.13,3.13,0,0,0-1-.5,1.67,1.67,0,0,0-1.3.3,1.71,1.71,0,0,0-.8.9,1.9,1.9,0,0,0-.1,1.3,4.7,4.7,0,0,0,1.7,2.6,1.92,1.92,0,0,0,1.2.4,2.66,2.66,0,0,0,1.2-.3,1.7,1.7,0,0,0,.6-.6c.2-.2.2-.5.3-.7a2.2,2.2,0,0,0-.1-.8l1-.6a1.91,1.91,0,0,1,.2,1.3,3.26,3.26,0,0,1-.4,1.3A4,4,0,0,1,442.1,866.6Zm5.3-10.6-.7.8c-.2-.1-.3-.2-.5-.3a1.48,1.48,0,0,0-.7-.1,1.6,1.6,0,0,0-.8.3,2.17,2.17,0,0,0-.8.9,1.38,1.38,0,0,0,0,.9c.2.2.4.4.6.4a2.56,2.56,0,0,0,1.1-.2l1.1-.4a3.57,3.57,0,0,1,1.7-.2,1.78,1.78,0,0,1,1.1.8,2.66,2.66,0,0,1,.3,1.2,2.84,2.84,0,0,1-.4,1.2,4.26,4.26,0,0,1-1.2,1.1,3.81,3.81,0,0,1-1.9.6,2.57,2.57,0,0,1-1.6-.7l.8-.8a1.91,1.91,0,0,0,1,.5,2.13,2.13,0,0,0,1.2-.4,1.64,1.64,0,0,0,.9-2,.68.68,0,0,0-.6-.4,1.41,1.41,0,0,0-.9.1l-1.2.4a3.69,3.69,0,0,1-1.7.2,1.62,1.62,0,0,1-1.1-.9,2.66,2.66,0,0,1-.3-1.2,2.84,2.84,0,0,1,.4-1.2,3.57,3.57,0,0,1,1.1-1,2.5,2.5,0,0,1,1.8-.5A10.14,10.14,0,0,0,447.4,856Zm10.1.8a3,3,0,0,1-1.3.5,1.72,1.72,0,0,1-1.2-.2,2.84,2.84,0,0,1-1-.9,2.6,2.6,0,0,1-.4-1,2.92,2.92,0,0,1,.2-.9,5.55,5.55,0,0,1,.6-.8,5,5,0,0,1,.8-.7,9.68,9.68,0,0,0,.9-.7c.2-.2.4-.3.4-.5a.3.3,0,0,0,0-.4h0c-.3-.4-.6-.7-1-.7a1.38,1.38,0,0,0-1.2.3,1.71,1.71,0,0,0-.9,1,1.8,1.8,0,0,0-.1,1l-1.2.3a1.9,1.9,0,0,1,.1-1.3,2.42,2.42,0,0,1,.6-1,6.47,6.47,0,0,1,.9-.8,5.94,5.94,0,0,1,.8-.4,3,3,0,0,1,1-.2,2.28,2.28,0,0,1,1.1.3,2.71,2.71,0,0,1,1,1.1l2.7,4.2-1,.6-.6-.9h-.1a2,2,0,0,1-.1.7,3,3,0,0,1-.4.8C458.2,856.3,457.9,856.6,457.5,856.8Zm-.4-.9a1.42,1.42,0,0,0,.8-.9,1.23,1.23,0,0,0,.2-1,1.61,1.61,0,0,0-.3-.9l-.6-.9c0,.1-.1.2-.2.3l-.4.4c-.2.1-.3.3-.5.4a1.38,1.38,0,0,0-.4.3l-.6.6a.91.91,0,0,0-.3.7,1,1,0,0,0,.2.7,1.05,1.05,0,0,0,.9.5A1.72,1.72,0,0,0,457.1,855.9Zm7.8-3.8a3.23,3.23,0,0,1-1.8.6,3.62,3.62,0,0,1-3.2-2,4,4,0,0,1-.7-2,2.67,2.67,0,0,1,.3-1.8,3.48,3.48,0,0,1,1.3-1.4,2.65,2.65,0,0,1,1.4-.5,2.77,2.77,0,0,1,1.3.1,2.84,2.84,0,0,1,1.1.8l-1,.6a3.13,3.13,0,0,0-1-.5,1.67,1.67,0,0,0-1.3.3,1.71,1.71,0,0,0-.8.9,1.9,1.9,0,0,0-.1,1.3,4.7,4.7,0,0,0,1.7,2.6,1.92,1.92,0,0,0,1.2.4,2.66,2.66,0,0,0,1.2-.3,1.7,1.7,0,0,0,.6-.6c.2-.2.2-.5.3-.7a2.2,2.2,0,0,0-.1-.8l1-.6a1.91,1.91,0,0,1,.2,1.3,3.26,3.26,0,0,1-.4,1.3A5.8,5.8,0,0,1,464.9,852.1Zm6.6-4.2a3.23,3.23,0,0,1-1.8.6,3.62,3.62,0,0,1-3.2-2,4,4,0,0,1-.7-2,2.67,2.67,0,0,1,.3-1.8,3.48,3.48,0,0,1,1.3-1.4,2.65,2.65,0,0,1,1.4-.5,2.77,2.77,0,0,1,1.3.1,2.84,2.84,0,0,1,1.1.8l-1,.6a3.13,3.13,0,0,0-1-.5,1.67,1.67,0,0,0-1.3.3,1.71,1.71,0,0,0-.8.9,1.9,1.9,0,0,0-.1,1.3,4.7,4.7,0,0,0,1.7,2.6,1.92,1.92,0,0,0,1.2.4,2.66,2.66,0,0,0,1.2-.3,1.7,1.7,0,0,0,.6-.6c.2-.2.2-.5.3-.7a2.2,2.2,0,0,0-.1-.8l1-.6a1.91,1.91,0,0,1,.2,1.3,3.26,3.26,0,0,1-.4,1.3A5.8,5.8,0,0,1,471.5,847.9Zm6.6-4.2a3.23,3.23,0,0,1-1.8.6,4.07,4.07,0,0,1-1.8-.5,3.61,3.61,0,0,1-1.5-1.5,5.6,5.6,0,0,1-.8-2,2.67,2.67,0,0,1,.3-1.8,3.48,3.48,0,0,1,1.3-1.4,3.23,3.23,0,0,1,1.8-.6,4.07,4.07,0,0,1,1.8.5,4.31,4.31,0,0,1,1.5,1.5,4,4,0,0,1,.7,2,2.67,2.67,0,0,1-.3,1.8A2.36,2.36,0,0,1,478.1,843.7Zm-.6-.8a2.84,2.84,0,0,0,.9-1,1.9,1.9,0,0,0,.1-1.3,3.1,3.1,0,0,0-.6-1.3,5.24,5.24,0,0,0-1-1.1,2.08,2.08,0,0,0-1.2-.5,3.08,3.08,0,0,0-1.3.3,2.84,2.84,0,0,0-.9,1,2.77,2.77,0,0,0-.1,1.3,3.1,3.1,0,0,0,.6,1.3,5.24,5.24,0,0,0,1,1.1,2.15,2.15,0,0,0,2.5.2Zm7.3-7.3-2.4-3.8,1-.6,4.1,6.4-1,.6-.7-1.1h-.1a2,2,0,0,1-.2,1.3,2.59,2.59,0,0,1-1,1.1,1.92,1.92,0,0,1-1.2.4,3.45,3.45,0,0,1-1.3-.3,2.61,2.61,0,0,1-1.1-1.2l-2.6-4.1,1-.6,2.6,4a1.86,1.86,0,0,0,1.1.9,2,2,0,0,0,1.3-.2c.2-.2.5-.4.6-.7a1.69,1.69,0,0,0,.3-1A1.86,1.86,0,0,0,484.8,835.6Zm3-3.7,2.5,3.9-1,.6-4.1-6.4,1-.6.6,1,.1-.1a1.72,1.72,0,0,1,.2-1.2,2.59,2.59,0,0,1,1-1.1,3.49,3.49,0,0,1,1.3-.5,3.08,3.08,0,0,1,1.3.3,2.61,2.61,0,0,1,1.1,1.2l2.6,4.1-1,.6-2.6-4a1.86,1.86,0,0,0-1.1-.9,1.9,1.9,0,0,0-1.4.3,1.58,1.58,0,0,0-.7.7,1.64,1.64,0,0,0-.2,1A2.46,2.46,0,0,0,487.8,831.9Zm7.1-8.1.5.8-3.3,2.1-.5-.8Zm-3.3,0,1-.6,3.9,6.1a3.81,3.81,0,0,0,.5.6.9.9,0,0,0,.5.1c.2,0,.3-.1.5-.2s.2-.1.3-.2l.1-.1.8.8c-.1.1-.1.2-.2.3a1.38,1.38,0,0,1-.4.3,1.61,1.61,0,0,1-.9.3,3.4,3.4,0,0,1-1-.1,2.17,2.17,0,0,1-.9-.8Zm10.2-2.3-.7.8c-.2-.1-.3-.2-.5-.3a1.48,1.48,0,0,0-.7-.1,1.6,1.6,0,0,0-.8.3c-.4.3-.7.5-.8.9a1.38,1.38,0,0,0,0,.9c.2.2.4.4.6.4a2.56,2.56,0,0,0,1.1-.2l1.1-.4a3.57,3.57,0,0,1,1.7-.2,1.78,1.78,0,0,1,1.1.8,2.66,2.66,0,0,1,.3,1.2,2.84,2.84,0,0,1-.4,1.2,4.26,4.26,0,0,1-1.2,1.1,3.81,3.81,0,0,1-1.9.6,2.57,2.57,0,0,1-1.6-.7l.8-.8a1.91,1.91,0,0,0,1,.5,2.13,2.13,0,0,0,1.2-.4,1.64,1.64,0,0,0,.9-2,.68.68,0,0,0-.6-.4,1.41,1.41,0,0,0-.9.1l-1.2.4a3.57,3.57,0,0,1-1.7.2,1.62,1.62,0,0,1-1.1-.9,2.66,2.66,0,0,1-.3-1.2,2.84,2.84,0,0,1,.4-1.2,3.57,3.57,0,0,1,1.1-1,2.5,2.5,0,0,1,1.8-.5C500.8,820.9,501.3,821.1,501.8,821.5Zm5.5,1.8.2.5a3.37,3.37,0,0,1,.4,1.2c.1.4.3.8.4,1.2a5.07,5.07,0,0,1,.2.9l-.8.5a6.89,6.89,0,0,1-.3-.8,9.74,9.74,0,0,0-.5-1.1l-.6-1.2-.2-.5ZM406.5,903.4l-.7.8a2.19,2.19,0,0,0-.5-.3,1.48,1.48,0,0,0-.7-.1,1.6,1.6,0,0,0-.8.3,2.17,2.17,0,0,0-.8.9,1.38,1.38,0,0,0,0,.9c.2.2.4.4.6.4a2.56,2.56,0,0,0,1.1-.2l1.1-.4a3.57,3.57,0,0,1,1.7-.2,1.78,1.78,0,0,1,1.1.8,2.66,2.66,0,0,1,.3,1.2,2.84,2.84,0,0,1-.4,1.2,3.23,3.23,0,0,1-1.2,1.1,3.81,3.81,0,0,1-1.9.6,2.57,2.57,0,0,1-1.6-.7l.8-.8a1.91,1.91,0,0,0,1,.5,2.13,2.13,0,0,0,1.2-.4,1.64,1.64,0,0,0,.9-2,.68.68,0,0,0-.6-.4,1.41,1.41,0,0,0-.9.1l-1.2.4a3.57,3.57,0,0,1-1.7.2,1.78,1.78,0,0,1-1.1-.8,2.66,2.66,0,0,1-.3-1.2,2.84,2.84,0,0,1,.4-1.2,3.57,3.57,0,0,1,1.1-1,2.5,2.5,0,0,1,1.8-.5C405.5,902.8,406,903.1,406.5,903.4Zm7.6,2.4a3.29,3.29,0,0,1-1.9.6,4.07,4.07,0,0,1-1.8-.5,4.29,4.29,0,0,1-1.5-1.5,4,4,0,0,1-.7-2,2.67,2.67,0,0,1,.3-1.8,3.48,3.48,0,0,1,1.3-1.4,3.7,3.7,0,0,1,1.1-.5,2.44,2.44,0,0,1,1.2,0,3.79,3.79,0,0,1,1.3.6,5.79,5.79,0,0,1,1.2,1.4l.3.4-5,3.2-.5-.9,4-2.5a2,2,0,0,0-.8-.8,1.93,1.93,0,0,0-1-.3,2.28,2.28,0,0,0-1.1.3,2.17,2.17,0,0,0-.8.9,2.54,2.54,0,0,0-.2,1.2,2.1,2.1,0,0,0,.4,1.1l.4.6a5.47,5.47,0,0,0,1,1.1,2.66,2.66,0,0,0,1.2.3,2.84,2.84,0,0,0,1.2-.4,1.7,1.7,0,0,0,.6-.6.91.91,0,0,0,.3-.7,1.1,1.1,0,0,0,0-.8l1.1-.3a2.44,2.44,0,0,1,0,1.2,3.7,3.7,0,0,1-.5,1.1A10,10,0,0,1,414.1,905.8Zm2.6-7.3,2.5,3.9-1,.6-4.1-6.4,1-.6.6,1,.1-.1a1.72,1.72,0,0,1,.2-1.2,2.59,2.59,0,0,1,1-1.1,3.49,3.49,0,0,1,1.3-.5,3.08,3.08,0,0,1,1.3.3,2.61,2.61,0,0,1,1.1,1.2l2.6,4.1-1,.6-2.6-4a1.86,1.86,0,0,0-1.1-.9,1.9,1.9,0,0,0-1.4.3,2.31,2.31,0,0,0-.7.7,1.64,1.64,0,0,0-.2,1A1.67,1.67,0,0,0,416.7,898.5Zm10.9-1.3a3.14,3.14,0,0,1-3.4,0,5.8,5.8,0,0,1-1.5-1.6,5.6,5.6,0,0,1-.8-2,3.72,3.72,0,0,1,.2-1.8,2.5,2.5,0,0,1,1.2-1.3,1.86,1.86,0,0,1,1.1-.4,2.77,2.77,0,0,1,.9.1,1.42,1.42,0,0,0,.6.2l.1-.1-2-3.2,1-.6,5.5,8.6-1,.6-.6-1-.1.1v.6a1.33,1.33,0,0,1-.3.8A2.19,2.19,0,0,1,427.6,897.2Zm-.5-1a1.89,1.89,0,0,0,.8-1,2.77,2.77,0,0,0,.1-1.3,4.24,4.24,0,0,0-.6-1.4,2.71,2.71,0,0,0-1-1.1,3.08,3.08,0,0,0-1.2-.5,2.66,2.66,0,0,0-1.2.3,1.89,1.89,0,0,0-.8,1,2.77,2.77,0,0,0-.1,1.3,4.24,4.24,0,0,0,.6,1.4,3.57,3.57,0,0,0,1,1.1,3.08,3.08,0,0,0,1.2.5A1.38,1.38,0,0,0,427.1,896.2Zm6.7-10.1-.7.8a2.19,2.19,0,0,0-.5-.3,1.48,1.48,0,0,0-.7-.1,1.6,1.6,0,0,0-.8.3,2.17,2.17,0,0,0-.8.9,1.38,1.38,0,0,0,0,.9c.2.2.4.4.6.4a2.56,2.56,0,0,0,1.1-.2l1.1-.4a3.57,3.57,0,0,1,1.7-.2,1.78,1.78,0,0,1,1.1.8,2.66,2.66,0,0,1,.3,1.2,2.84,2.84,0,0,1-.4,1.2,3.23,3.23,0,0,1-1.2,1.1,3.81,3.81,0,0,1-1.9.6,2.57,2.57,0,0,1-1.6-.7l.8-.8a1.91,1.91,0,0,0,1,.5,2.13,2.13,0,0,0,1.2-.4,1.64,1.64,0,0,0,.9-2,.68.68,0,0,0-.6-.4,1.41,1.41,0,0,0-.9.1l-1.2.4a3.57,3.57,0,0,1-1.7.2,1.78,1.78,0,0,1-1.1-.8,2.66,2.66,0,0,1-.3-1.2,2.84,2.84,0,0,1,.4-1.2,3.57,3.57,0,0,1,1.1-1,2.5,2.5,0,0,1,1.8-.5A11.65,11.65,0,0,1,433.8,886.1Zm8.1,1.8-4.1-6.4,1-.6,4.1,6.4Zm-4.3-7.8a.66.66,0,0,1-.6.1.85.85,0,0,1-.5-.3,1.27,1.27,0,0,1-.1-.6,1,1,0,0,1,.4-.5.66.66,0,0,1,.6-.1.85.85,0,0,1,.5.3,1.27,1.27,0,0,1,.1.6A1,1,0,0,1,437.6,880.1Zm5.6,1.5,2.5,3.9-1,.6-4.1-6.4,1-.6.6,1,.1-.1a1.72,1.72,0,0,1,.2-1.2,2.59,2.59,0,0,1,1-1.1,3.49,3.49,0,0,1,1.3-.5,3.08,3.08,0,0,1,1.3.3,2.61,2.61,0,0,1,1.1,1.2l2.6,4.1-1,.6-2.6-4a1.86,1.86,0,0,0-1.1-.9,1.9,1.9,0,0,0-1.4.3,1.58,1.58,0,0,0-.7.7,1.64,1.64,0,0,0-.2,1A2.1,2.1,0,0,0,443.2,881.6Zm9.8-7.8-.7.8a2.19,2.19,0,0,0-.5-.3,1.48,1.48,0,0,0-.7-.1,1.6,1.6,0,0,0-.8.3,2.17,2.17,0,0,0-.8.9,1.38,1.38,0,0,0,0,.9c.2.2.4.4.6.4a2.56,2.56,0,0,0,1.1-.2l1.1-.4a3.57,3.57,0,0,1,1.7-.2,1.78,1.78,0,0,1,1.1.8,2.66,2.66,0,0,1,.3,1.2,2.84,2.84,0,0,1-.4,1.2,3.23,3.23,0,0,1-1.2,1.1,3.81,3.81,0,0,1-1.9.6,2.57,2.57,0,0,1-1.6-.7l.8-.8a1.91,1.91,0,0,0,1,.5,2.13,2.13,0,0,0,1.2-.4,1.64,1.64,0,0,0,.9-2,.68.68,0,0,0-.6-.4,1.41,1.41,0,0,0-.9.1l-1.2.4a3.57,3.57,0,0,1-1.7.2,1.78,1.78,0,0,1-1.1-.8,2.66,2.66,0,0,1-.3-1.2,2.84,2.84,0,0,1,.4-1.2,3.57,3.57,0,0,1,1.1-1,2.5,2.5,0,0,1,1.8-.5A7.38,7.38,0,0,0,453,873.8Zm3.5-4.2.5.8-3.3,2.1-.5-.8Zm-3.4-.1,1-.6L458,875a3.81,3.81,0,0,0,.5.6.9.9,0,0,0,.5.1c.2,0,.3-.1.5-.2s.2-.1.3-.2l.1-.1.8.8c-.1.1-.1.2-.2.3a1.38,1.38,0,0,1-.4.3,1.61,1.61,0,0,1-.9.3,3.4,3.4,0,0,1-1-.1,2.17,2.17,0,0,1-.9-.8Zm9,5.6-4.1-6.4,1-.6.6,1h.1a2.46,2.46,0,0,1,.1-1.2,2.84,2.84,0,0,1,.9-1c.1,0,.2-.1.3-.2a.37.37,0,0,1,.3-.1l.6,1a.77.77,0,0,0-.3.1c-.1.1-.3.1-.4.2a1.58,1.58,0,0,0-.7.7,1.49,1.49,0,0,0-.2.9,1.61,1.61,0,0,0,.3.9l2.6,4.1Zm6.7-8-2.4-3.8,1-.6,4.1,6.4-1,.6-.7-1.1h-.1a2,2,0,0,1-.2,1.3,2.59,2.59,0,0,1-1,1.1,1.92,1.92,0,0,1-1.2.4,3.45,3.45,0,0,1-1.3-.3,2.61,2.61,0,0,1-1.1-1.2l-2.6-4.1,1-.6,2.6,4a1.86,1.86,0,0,0,1.1.9,2,2,0,0,0,1.3-.2c.2-.2.5-.4.6-.7a1.69,1.69,0,0,0,.3-1A1.86,1.86,0,0,0,468.8,867.1Zm4.5.8-4.1-6.4,1-.6.6,1,.1-.1a2.46,2.46,0,0,1,.1-1.2,2.84,2.84,0,0,1,.9-1,2,2,0,0,1,2.4,0h.1a3,3,0,0,1,.2-1.3,2.59,2.59,0,0,1,1-1.1,2.41,2.41,0,0,1,1.8-.4,2.75,2.75,0,0,1,1.6,1.3l2.7,4.3-1,.6-2.7-4.3a1.52,1.52,0,0,0-1-.8,2,2,0,0,0-1.1.3,1.48,1.48,0,0,0-.8,1.1,1.59,1.59,0,0,0,.3,1.3l2.7,4.2-1,.6-2.8-4.4a1.27,1.27,0,0,0-.9-.7,1.39,1.39,0,0,0-1.1.2,1.34,1.34,0,0,0-.6.7,2.92,2.92,0,0,0-.2.9,2.24,2.24,0,0,0,.3,1l2.6,4Zm13.1-8.1a3.29,3.29,0,0,1-1.9.6,4.07,4.07,0,0,1-1.8-.5,4.29,4.29,0,0,1-1.5-1.5,4,4,0,0,1-.7-2,2.67,2.67,0,0,1,.3-1.8,3.48,3.48,0,0,1,1.3-1.4,3.7,3.7,0,0,1,1.1-.5,2.44,2.44,0,0,1,1.2,0,3.79,3.79,0,0,1,1.3.6,5.79,5.79,0,0,1,1.2,1.4l.3.4-5,3.2-.5-.9,4-2.5a2,2,0,0,0-.8-.8,1.93,1.93,0,0,0-1-.3,2.28,2.28,0,0,0-1.1.3,2.17,2.17,0,0,0-.8.9,2.54,2.54,0,0,0-.2,1.2,2.1,2.1,0,0,0,.4,1.1l.4.6a5.47,5.47,0,0,0,1,1.1,2.66,2.66,0,0,0,1.2.3,2.84,2.84,0,0,0,1.2-.4,1.7,1.7,0,0,0,.6-.6.91.91,0,0,0,.3-.7,1.1,1.1,0,0,0,0-.8l1.1-.3a2.44,2.44,0,0,1,0,1.2,3.7,3.7,0,0,1-.5,1.1A5.24,5.24,0,0,1,486.4,859.8Zm2.6-7.3,2.5,3.9-1,.6-4.1-6.4,1-.6.6,1,.1-.1a1.72,1.72,0,0,1,.2-1.2,2.59,2.59,0,0,1,1-1.1,3.49,3.49,0,0,1,1.3-.5,3.08,3.08,0,0,1,1.3.3,2.61,2.61,0,0,1,1.1,1.2l2.6,4.1-1,.6-2.6-4a1.86,1.86,0,0,0-1.1-.9,1.9,1.9,0,0,0-1.4.3,1.58,1.58,0,0,0-.7.7,1.64,1.64,0,0,0-.2,1A1.67,1.67,0,0,0,489,852.5Zm7.1-8.1.5.8-3.3,2.1-.5-.8Zm-3.4,0,1-.6,3.9,6.1a3.81,3.81,0,0,0,.5.6.9.9,0,0,0,.5.1c.2,0,.3-.1.5-.2s.2-.1.3-.2l.1-.1.8.8c-.1.1-.1.2-.2.3a1.38,1.38,0,0,1-.4.3,1.61,1.61,0,0,1-.9.3,3.4,3.4,0,0,1-1-.1,2.17,2.17,0,0,1-.9-.8Zm10.2-2.3-.7.8a2.19,2.19,0,0,0-.5-.3,1.48,1.48,0,0,0-.7-.1,1.6,1.6,0,0,0-.8.3c-.4.3-.7.5-.8.9a1.38,1.38,0,0,0,0,.9c.2.2.4.4.6.4a2.56,2.56,0,0,0,1.1-.2l1.1-.4a3.57,3.57,0,0,1,1.7-.2,1.78,1.78,0,0,1,1.1.8,2.66,2.66,0,0,1,.3,1.2,2.84,2.84,0,0,1-.4,1.2,4.26,4.26,0,0,1-1.2,1.1,3.81,3.81,0,0,1-1.9.6,2.57,2.57,0,0,1-1.6-.7l.8-.8a1.91,1.91,0,0,0,1,.5,2.13,2.13,0,0,0,1.2-.4,1.64,1.64,0,0,0,.9-2,.68.68,0,0,0-.6-.4,1.41,1.41,0,0,0-.9.1l-1.2.4a3.57,3.57,0,0,1-1.7.2,1.62,1.62,0,0,1-1.1-.9,2.66,2.66,0,0,1-.3-1.2,2.84,2.84,0,0,1,.4-1.2,3.57,3.57,0,0,1,1.1-1,2.5,2.5,0,0,1,1.8-.5A10.14,10.14,0,0,1,502.9,842.1Zm10.6.4a2.93,2.93,0,0,1-1.7.6,2.06,2.06,0,0,1-1.5-.3,2.66,2.66,0,0,1-1.1-1,2.46,2.46,0,0,1-.4-1.1,4.87,4.87,0,0,1,.1-1.2,6.94,6.94,0,0,1,.5-1.3l.7-1.7.3-.9a1.49,1.49,0,0,0-.2-.9,1.28,1.28,0,0,0-.7-.5,1,1,0,0,0-.9.2,1.21,1.21,0,0,0-.5.5,1.48,1.48,0,0,0-.1.7,1.42,1.42,0,0,0,.2.6,1,1,0,0,0,.6.5,5.94,5.94,0,0,0,.8.4c.3.1.6.2,1,.3l7,2.3-1.2.8-5.8-1.9c-.5-.2-1-.3-1.5-.5a3.7,3.7,0,0,1-1.1-.5,3,3,0,0,1-.8-.8,2.84,2.84,0,0,1-.4-1.2,2,2,0,0,1,.3-1.1,2,2,0,0,1,.9-.9,3.49,3.49,0,0,1,1.3-.5,2,2,0,0,1,1.1.2,2.7,2.7,0,0,1,.8.7,2,2,0,0,1,.4,1.3,3.53,3.53,0,0,1-.3,1.4l-.9,2.4a3.92,3.92,0,0,0-.3,1.3,1,1,0,0,0,.2.7,1.34,1.34,0,0,0,.7.6,2.92,2.92,0,0,0,.9.2,1.43,1.43,0,0,0,1-.4,3,3,0,0,0,.8-.8,3.7,3.7,0,0,0,.5-1.1,2.85,2.85,0,0,0,0-1.3,4.24,4.24,0,0,0-.6-1.4l1-.6a4.82,4.82,0,0,1,.7,1.5,4.48,4.48,0,0,1,.1,1.1c0,.3-.1.5-.1.7v.4a4.24,4.24,0,0,1-.6,1.4A4.15,4.15,0,0,1,513.5,842.5Zm7.2-13.8.5.8-3.5,2.2-.5-.8Zm1.7,8-4.7-7.3a2.28,2.28,0,0,1-.3-1.1,1.69,1.69,0,0,1,.3-1,2.7,2.7,0,0,1,.8-.7,1.1,1.1,0,0,1,.6-.3.76.76,0,0,1,.4-.1l.3,1c-.1,0-.1,0-.2.1s-.2.1-.4.2a1.34,1.34,0,0,0-.6.7,1.64,1.64,0,0,0,.2.9l4.5,7.1Zm6.3-3.8a3.29,3.29,0,0,1-1.9.6,4.07,4.07,0,0,1-1.8-.5,4.29,4.29,0,0,1-1.5-1.5,4,4,0,0,1-.7-2,2.67,2.67,0,0,1,.3-1.8,3.48,3.48,0,0,1,1.3-1.4,3.7,3.7,0,0,1,1.1-.5,2.44,2.44,0,0,1,1.2,0,4.88,4.88,0,0,1,1.3.6,5.79,5.79,0,0,1,1.2,1.4l.3.4-5,3.2-.5-.9,4-2.5a2,2,0,0,0-.8-.8,1.93,1.93,0,0,0-1-.3,2.28,2.28,0,0,0-1.1.3,2.17,2.17,0,0,0-.8.9,2.54,2.54,0,0,0-.2,1.2,2.1,2.1,0,0,0,.4,1.1l.4.6a5.47,5.47,0,0,0,1,1.1,2.66,2.66,0,0,0,1.2.3,2.84,2.84,0,0,0,1.2-.4,1.7,1.7,0,0,0,.6-.6.91.91,0,0,0,.3-.7,1.1,1.1,0,0,0,0-.8l1.1-.3a2.44,2.44,0,0,1,0,1.2,3.7,3.7,0,0,1-.5,1.1A5.24,5.24,0,0,1,528.7,832.9Zm6.9-4.4a3.29,3.29,0,0,1-1.9.6,4.07,4.07,0,0,1-1.8-.5,4.29,4.29,0,0,1-1.5-1.5,5.6,5.6,0,0,1-.8-2,2.67,2.67,0,0,1,.3-1.8,3.48,3.48,0,0,1,1.3-1.4,3.7,3.7,0,0,1,1.1-.5,2.44,2.44,0,0,1,1.2,0,3.79,3.79,0,0,1,1.3.6,5.79,5.79,0,0,1,1.2,1.4l.3.4-5,3.2-.5-.9,4-2.5a2,2,0,0,0-.8-.8,1.93,1.93,0,0,0-1-.3,2.28,2.28,0,0,0-1.1.3,2.17,2.17,0,0,0-.8.9,2.54,2.54,0,0,0-.2,1.2,2.1,2.1,0,0,0,.4,1.1l.4.6a5.47,5.47,0,0,0,1,1.1,2.66,2.66,0,0,0,1.2.3,2.84,2.84,0,0,0,1.2-.4,1.7,1.7,0,0,0,.6-.6.91.91,0,0,0,.3-.7,1.1,1.1,0,0,0,0-.8l1.1-.3a2.44,2.44,0,0,1,0,1.2,3.7,3.7,0,0,1-.5,1.1A3.18,3.18,0,0,1,535.6,828.5Zm5.4-10.7-.7.8a2.19,2.19,0,0,0-.5-.3,1.48,1.48,0,0,0-.7-.1,1.6,1.6,0,0,0-.8.3,2.17,2.17,0,0,0-.8.9,1.38,1.38,0,0,0,0,.9c.2.2.4.4.6.4a2.56,2.56,0,0,0,1.1-.2l1.1-.4a3.57,3.57,0,0,1,1.7-.2,1.78,1.78,0,0,1,1.1.8,2.66,2.66,0,0,1,.3,1.2,2.84,2.84,0,0,1-.4,1.2,4.26,4.26,0,0,1-1.2,1.1,3.81,3.81,0,0,1-1.9.6,2.57,2.57,0,0,1-1.6-.7l.8-.8a1.91,1.91,0,0,0,1,.5,2.13,2.13,0,0,0,1.2-.4,1.64,1.64,0,0,0,.9-2,.68.68,0,0,0-.6-.4,1.41,1.41,0,0,0-.9.1l-1.2.4a3.57,3.57,0,0,1-1.7.2,1.62,1.62,0,0,1-1.1-.9,2.66,2.66,0,0,1-.3-1.2,2.84,2.84,0,0,1,.4-1.2,3.57,3.57,0,0,1,1.1-1,2.5,2.5,0,0,1,1.8-.5C540.1,817.2,540.6,817.5,541,817.8Z"></path><polygon class="cls-3" points="1115.8 740.9 1099.1 734.5 1103.3 740.9 1099.1 747.4 1115.8 740.9"></polygon><polygon class="cls-5" points="987.3 630.7 1004.8 627.1 997.8 624 997.8 616.2 987.3 630.7"></polygon><polygon class="cls-3" points="568.2 740 551.5 733.5 555.7 740 551.5 746.5 568.2 740"></polygon><polygon class="cls-6" points="573.6 607.6 556.9 601.1 561.2 607.6 556.9 614.1 573.6 607.6"></polygon><polygon class="cls-3" points="170.7 840.8 166.6 823.4 163.6 830.6 155.9 830.8 170.7 840.8"></polygon><polygon class="cls-5" points="372.7 952 389.4 958.5 385.2 952 389.4 945.5 372.7 952"></polygon><polygon class="cls-6" points="365 880.3 382.6 877.4 375.7 874 376 866.2 365 880.3"></polygon><path class="cls-3" d="M946,741.5a.5.5,0,0,1,0-1l202-.1a.5.5,0,0,1,0,1Z"></path><g class="cls-8"><polygon class="cls-6" points="199.5 910.5 199.5 929 210.6 929 210.6 921.6 263.4 921.6 263.4 929 274.5 929 274.5 910.5 199.5 910.5"></polygon></g><g class="cls-8"><polygon class="cls-6" points="263.4 967 263.4 974.4 210.6 974.4 210.6 967 199.5 967 199.5 985.5 207.9 985.5 210.6 985.5 263.4 985.5 269.8 985.5 274.5 985.5 274.5 967 263.4 967"></polygon></g></svg>