<svg xmlns="http://www.w3.org/2000/svg" xmlns:xlink="http://www.w3.org/1999/xlink" id="Layer_1" x="0px" y="0px" viewBox="0 0 456 253" style="enable-background:new 0 0 456 253;" xml:space="preserve"><style type="text/css">	.st0{fill:#141620;stroke:#323335;stroke-miterlimit:10;}	.st1{fill:#359A73;}	.st2{fill:#FFFFFF;}	.st3{fill:#255746;}</style><path class="st0" d="M437.2,0.3H18.8C8.4,0.3,0,8.7,0,19.1v215.1c0,10.4,8.4,18.7,18.7,18.7h418.4c10.4,0,18.7-8.4,18.7-18.7V19.1 C455.9,8.7,447.5,0.3,437.2,0.3z"></path><path class="st1" d="M23.5,44L23.5,44c1.9,0,3.5,1.6,3.5,3.5v27c0,1.9-1.6,3.5-3.5,3.5l0,0c-1.9,0-3.5-1.6-3.5-3.5v-27 C20,45.6,21.6,44,23.5,44z"></path><path class="st1" d="M34.5,44L34.5,44c1.9,0,3.5,1.6,3.5,3.5v27c0,1.9-1.6,3.5-3.5,3.5l0,0c-1.9,0-3.5-1.6-3.5-3.5v-27 C31,45.6,32.6,44,34.5,44z"></path><path class="st1" d="M45.5,44L45.5,44c1.9,0,3.5,1.6,3.5,3.5v27c0,1.9-1.6,3.5-3.5,3.5l0,0c-1.9,0-3.5-1.6-3.5-3.5v-27 C42,45.6,43.6,44,45.5,44z"></path><path class="st1" d="M56.5,44L56.5,44c1.9,0,3.5,1.6,3.5,3.5v27c0,1.9-1.6,3.5-3.5,3.5l0,0c-1.9,0-3.5-1.6-3.5-3.5v-27 C53,45.6,54.6,44,56.5,44z"></path><path class="st1" d="M67.5,44L67.5,44c1.9,0,3.5,1.6,3.5,3.5v27c0,1.9-1.6,3.5-3.5,3.5l0,0c-1.9,0-3.5-1.6-3.5-3.5v-27 C64,45.6,65.6,44,67.5,44z"></path><path class="st1" d="M78.5,44L78.5,44c1.9,0,3.5,1.6,3.5,3.5v27c0,1.9-1.6,3.5-3.5,3.5l0,0c-1.9,0-3.5-1.6-3.5-3.5v-27 C75,45.6,76.6,44,78.5,44z"></path><path class="st1" d="M89.5,44L89.5,44c1.9,0,3.5,1.6,3.5,3.5v27c0,1.9-1.6,3.5-3.5,3.5l0,0c-1.9,0-3.5-1.6-3.5-3.5v-27 C86,45.6,87.6,44,89.5,44z"></path><path class="st1" d="M100.5,44L100.5,44c1.9,0,3.5,1.6,3.5,3.5v27c0,1.9-1.6,3.5-3.5,3.5l0,0c-1.9,0-3.5-1.6-3.5-3.5v-27 C97,45.6,98.6,44,100.5,44z"></path><path class="st1" d="M111.5,44L111.5,44c1.9,0,3.5,1.6,3.5,3.5v27c0,1.9-1.6,3.5-3.5,3.5l0,0c-1.9,0-3.5-1.6-3.5-3.5v-27 C108,45.6,109.6,44,111.5,44z"></path><path class="st1" d="M122.5,44L122.5,44c1.9,0,3.5,1.6,3.5,3.5v27c0,1.9-1.6,3.5-3.5,3.5l0,0c-1.9,0-3.5-1.6-3.5-3.5v-27 C119,45.6,120.6,44,122.5,44z"></path><path class="st1" d="M133.5,44L133.5,44c1.9,0,3.5,1.6,3.5,3.5v27c0,1.9-1.6,3.5-3.5,3.5l0,0c-1.9,0-3.5-1.6-3.5-3.5v-27 C130,45.6,131.6,44,133.5,44z"></path><path class="st1" d="M144.5,44L144.5,44c1.9,0,3.5,1.6,3.5,3.5v27c0,1.9-1.6,3.5-3.5,3.5l0,0c-1.9,0-3.5-1.6-3.5-3.5v-27 C141,45.6,142.6,44,144.5,44z"></path><path class="st1" d="M155.5,44L155.5,44c1.9,0,3.5,1.6,3.5,3.5v27c0,1.9-1.6,3.5-3.5,3.5l0,0c-1.9,0-3.5-1.6-3.5-3.5v-27 C152,45.6,153.6,44,155.5,44z"></path><path class="st1" d="M166.5,44L166.5,44c1.9,0,3.5,1.6,3.5,3.5v27c0,1.9-1.6,3.5-3.5,3.5l0,0c-1.9,0-3.5-1.6-3.5-3.5v-27 C163,45.6,164.6,44,166.5,44z"></path><path class="st1" d="M177.5,44L177.5,44c1.9,0,3.5,1.6,3.5,3.5v27c0,1.9-1.6,3.5-3.5,3.5l0,0c-1.9,0-3.5-1.6-3.5-3.5v-27 C174,45.6,175.6,44,177.5,44z"></path><path class="st1" d="M188.5,44L188.5,44c1.9,0,3.5,1.6,3.5,3.5v27c0,1.9-1.6,3.5-3.5,3.5l0,0c-1.9,0-3.5-1.6-3.5-3.5v-27 C185,45.6,186.6,44,188.5,44z"></path><path class="st1" d="M199.5,44L199.5,44c1.9,0,3.5,1.6,3.5,3.5v27c0,1.9-1.6,3.5-3.5,3.5l0,0c-1.9,0-3.5-1.6-3.5-3.5v-27 C196,45.6,197.6,44,199.5,44z"></path><path class="st1" d="M210.5,44L210.5,44c1.9,0,3.5,1.6,3.5,3.5v27c0,1.9-1.6,3.5-3.5,3.5l0,0c-1.9,0-3.5-1.6-3.5-3.5v-27 C207,45.6,208.6,44,210.5,44z"></path><path class="st1" d="M221.5,44L221.5,44c1.9,0,3.5,1.6,3.5,3.5v27c0,1.9-1.6,3.5-3.5,3.5l0,0c-1.9,0-3.5-1.6-3.5-3.5v-27 C218,45.6,219.6,44,221.5,44z"></path><path class="st1" d="M232.5,44L232.5,44c1.9,0,3.5,1.6,3.5,3.5v27c0,1.9-1.6,3.5-3.5,3.5l0,0c-1.9,0-3.5-1.6-3.5-3.5v-27 C229,45.6,230.6,44,232.5,44z"></path><path class="st1" d="M243.5,44L243.5,44c1.9,0,3.5,1.6,3.5,3.5v27c0,1.9-1.6,3.5-3.5,3.5l0,0c-1.9,0-3.5-1.6-3.5-3.5v-27 C240,45.6,241.6,44,243.5,44z"></path><path class="st1" d="M254.5,44L254.5,44c1.9,0,3.5,1.6,3.5,3.5v27c0,1.9-1.6,3.5-3.5,3.5l0,0c-1.9,0-3.5-1.6-3.5-3.5v-27 C251,45.6,252.6,44,254.5,44z"></path><path class="st1" d="M265.5,44L265.5,44c1.9,0,3.5,1.6,3.5,3.5v27c0,1.9-1.6,3.5-3.5,3.5l0,0c-1.9,0-3.5-1.6-3.5-3.5v-27 C262,45.6,263.6,44,265.5,44z"></path><path class="st1" d="M276.5,44L276.5,44c1.9,0,3.5,1.6,3.5,3.5v27c0,1.9-1.6,3.5-3.5,3.5l0,0c-1.9,0-3.5-1.6-3.5-3.5v-27 C273,45.6,274.6,44,276.5,44z"></path><path class="st1" d="M287.5,44L287.5,44c1.9,0,3.5,1.6,3.5,3.5v27c0,1.9-1.6,3.5-3.5,3.5l0,0c-1.9,0-3.5-1.6-3.5-3.5v-27 C284,45.6,285.6,44,287.5,44z"></path><path class="st1" d="M298.5,44L298.5,44c1.9,0,3.5,1.6,3.5,3.5v27c0,1.9-1.6,3.5-3.5,3.5l0,0c-1.9,0-3.5-1.6-3.5-3.5v-27 C295,45.6,296.6,44,298.5,44z"></path><path class="st1" d="M309.5,44L309.5,44c1.9,0,3.5,1.6,3.5,3.5v27c0,1.9-1.6,3.5-3.5,3.5l0,0c-1.9,0-3.5-1.6-3.5-3.5v-27 C306,45.6,307.6,44,309.5,44z"></path><path class="st1" d="M320.5,44L320.5,44c1.9,0,3.5,1.6,3.5,3.5v27c0,1.9-1.6,3.5-3.5,3.5l0,0c-1.9,0-3.5-1.6-3.5-3.5v-27 C317,45.6,318.6,44,320.5,44z"></path><path class="st1" d="M331.5,44L331.5,44c1.9,0,3.5,1.6,3.5,3.5v27c0,1.9-1.6,3.5-3.5,3.5l0,0c-1.9,0-3.5-1.6-3.5-3.5v-27 C328,45.6,329.6,44,331.5,44z"></path><path class="st1" d="M342.5,44L342.5,44c1.9,0,3.5,1.6,3.5,3.5v27c0,1.9-1.6,3.5-3.5,3.5l0,0c-1.9,0-3.5-1.6-3.5-3.5v-27 C339,45.6,340.6,44,342.5,44z"></path><path class="st1" d="M353.5,44L353.5,44c1.9,0,3.5,1.6,3.5,3.5v27c0,1.9-1.6,3.5-3.5,3.5l0,0c-1.9,0-3.5-1.6-3.5-3.5v-27 C350,45.6,351.6,44,353.5,44z"></path><path class="st1" d="M364.5,44L364.5,44c1.9,0,3.5,1.6,3.5,3.5v27c0,1.9-1.6,3.5-3.5,3.5l0,0c-1.9,0-3.5-1.6-3.5-3.5v-27 C361,45.6,362.6,44,364.5,44z"></path><path class="st1" d="M375.5,44L375.5,44c1.9,0,3.5,1.6,3.5,3.5v27c0,1.9-1.6,3.5-3.5,3.5l0,0c-1.9,0-3.5-1.6-3.5-3.5v-27 C372,45.6,373.6,44,375.5,44z"></path><path class="st1" d="M386.5,44L386.5,44c1.9,0,3.5,1.6,3.5,3.5v27c0,1.9-1.6,3.5-3.5,3.5l0,0c-1.9,0-3.5-1.6-3.5-3.5v-27 C383,45.6,384.6,44,386.5,44z"></path><path class="st1" d="M397.5,44L397.5,44c1.9,0,3.5,1.6,3.5,3.5v27c0,1.9-1.6,3.5-3.5,3.5l0,0c-1.9,0-3.5-1.6-3.5-3.5v-27 C394,45.6,395.6,44,397.5,44z"></path><path class="st1" d="M408.5,44L408.5,44c1.9,0,3.5,1.6,3.5,3.5v27c0,1.9-1.6,3.5-3.5,3.5l0,0c-1.9,0-3.5-1.6-3.5-3.5v-27 C405,45.6,406.6,44,408.5,44z"></path><path class="st1" d="M419.5,44L419.5,44c1.9,0,3.5,1.6,3.5,3.5v27c0,1.9-1.6,3.5-3.5,3.5l0,0c-1.9,0-3.5-1.6-3.5-3.5v-27 C416,45.6,417.6,44,419.5,44z"></path><path class="st1" d="M430.5,44L430.5,44c1.9,0,3.5,1.6,3.5,3.5v27c0,1.9-1.6,3.5-3.5,3.5l0,0c-1.9,0-3.5-1.6-3.5-3.5v-27 C427,45.6,428.6,44,430.5,44z"></path><path class="st2" d="M21.1,33v-8.7h3.1c0.6,0,1.1,0.1,1.5,0.3c0.4,0.2,0.7,0.5,0.9,0.8c0.2,0.3,0.3,0.7,0.3,1.2 c0,0.4-0.1,0.7-0.2,0.9c-0.1,0.2-0.3,0.4-0.5,0.6c-0.2,0.1-0.4,0.2-0.7,0.3v0.1c0.3,0,0.5,0.1,0.8,0.3c0.3,0.2,0.5,0.4,0.7,0.7 c0.2,0.3,0.3,0.7,0.3,1.2c0,0.4-0.1,0.8-0.3,1.2c-0.2,0.3-0.5,0.6-0.9,0.8c-0.4,0.2-1,0.3-1.7,0.3H21.1z M22.1,32.1h2.1 c0.7,0,1.2-0.1,1.5-0.4c0.3-0.3,0.4-0.6,0.4-1c0-0.3-0.1-0.6-0.2-0.8c-0.2-0.3-0.4-0.5-0.6-0.6c-0.3-0.2-0.6-0.2-1-0.2h-2.1V32.1z  M22.1,28.1h2c0.3,0,0.6-0.1,0.9-0.2c0.3-0.1,0.5-0.3,0.6-0.5c0.2-0.2,0.2-0.5,0.2-0.8c0-0.4-0.1-0.7-0.4-1 c-0.3-0.3-0.7-0.4-1.3-0.4h-2V28.1z M30.7,33.2c-0.4,0-0.8-0.1-1.1-0.2c-0.3-0.2-0.6-0.4-0.8-0.7c-0.2-0.3-0.3-0.7-0.3-1.1 c0-0.4,0.1-0.7,0.2-0.9c0.1-0.2,0.3-0.4,0.6-0.6c0.2-0.1,0.5-0.2,0.8-0.3c0.3-0.1,0.6-0.1,0.9-0.2c0.4-0.1,0.7-0.1,1-0.1 c0.2,0,0.4-0.1,0.5-0.1c0.1-0.1,0.2-0.2,0.2-0.3v0c0-0.4-0.1-0.7-0.3-1c-0.2-0.2-0.6-0.3-1-0.3c-0.5,0-0.9,0.1-1.1,0.3 c-0.3,0.2-0.5,0.4-0.6,0.7l-1-0.3c0.2-0.4,0.4-0.7,0.7-0.9c0.3-0.2,0.6-0.4,0.9-0.5c0.3-0.1,0.7-0.1,1-0.1c0.2,0,0.5,0,0.7,0.1 c0.3,0,0.5,0.1,0.8,0.3c0.3,0.2,0.5,0.4,0.6,0.7c0.2,0.3,0.3,0.7,0.3,1.2V33h-1v-0.9h-0.1c-0.1,0.1-0.2,0.3-0.3,0.5 c-0.2,0.2-0.4,0.3-0.6,0.4C31.4,33.1,31,33.2,30.7,33.2z M30.8,32.2c0.4,0,0.7-0.1,1-0.2c0.3-0.2,0.5-0.4,0.6-0.6 c0.1-0.2,0.2-0.5,0.2-0.8v-0.9c0,0.1-0.1,0.1-0.3,0.1c-0.1,0-0.3,0.1-0.5,0.1c-0.2,0-0.4,0.1-0.5,0.1c-0.2,0-0.3,0-0.4,0.1 c-0.3,0-0.5,0.1-0.7,0.2c-0.2,0.1-0.4,0.2-0.5,0.3c-0.1,0.1-0.2,0.3-0.2,0.6c0,0.3,0.1,0.6,0.4,0.8C30.1,32.2,30.4,32.2,30.8,32.2z  M38.1,33.1c-0.6,0-1.1-0.1-1.6-0.4c-0.4-0.3-0.8-0.7-1-1.2c-0.2-0.5-0.4-1.1-0.4-1.7c0-0.7,0.1-1.3,0.4-1.8c0.2-0.5,0.6-0.9,1-1.2 c0.4-0.3,1-0.4,1.6-0.4c0.5,0,0.9,0.1,1.2,0.3s0.7,0.4,0.9,0.7c0.2,0.3,0.4,0.7,0.4,1.1h-1c-0.1-0.3-0.2-0.6-0.5-0.8 c-0.3-0.2-0.6-0.3-1.1-0.3c-0.4,0-0.7,0.1-1,0.3c-0.3,0.2-0.5,0.5-0.7,0.9c-0.2,0.4-0.2,0.8-0.2,1.3c0,0.5,0.1,0.9,0.2,1.3 c0.2,0.4,0.4,0.7,0.7,0.9c0.3,0.2,0.6,0.3,1,0.3c0.3,0,0.5,0,0.7-0.1s0.4-0.2,0.5-0.4c0.1-0.2,0.3-0.4,0.3-0.6h1 c-0.1,0.4-0.2,0.7-0.4,1c-0.2,0.3-0.5,0.6-0.9,0.7C39.1,33,38.6,33.1,38.1,33.1z M43.1,30.6l0-1.2h0.2l2.9-2.9h1.2l-3.1,3.1h-0.1 L43.1,30.6z M42.2,33v-8.7h1V33H42.2z M46.3,33l-2.6-3.2l0.7-0.7l3.1,3.9H46.3z M51.2,33.1c-0.6,0-1.2-0.1-1.6-0.4 c-0.5-0.3-0.8-0.7-1.1-1.2c-0.2-0.5-0.4-1.1-0.4-1.8c0-0.7,0.1-1.3,0.4-1.8c0.2-0.5,0.6-0.9,1-1.2c0.4-0.3,1-0.4,1.6-0.4 c0.3,0,0.7,0.1,1,0.2c0.3,0.1,0.6,0.3,0.9,0.6c0.3,0.3,0.5,0.6,0.7,1c0.2,0.4,0.2,0.9,0.2,1.5v0.4h-5v-0.9h4c0-0.4-0.1-0.7-0.2-1 c-0.1-0.3-0.4-0.5-0.6-0.7c-0.3-0.2-0.6-0.3-0.9-0.3c-0.4,0-0.7,0.1-1,0.3c-0.3,0.2-0.5,0.5-0.7,0.8c-0.2,0.3-0.2,0.7-0.2,1v0.6 c0,0.5,0.1,0.9,0.3,1.3c0.2,0.3,0.4,0.6,0.7,0.8c0.3,0.2,0.7,0.3,1.1,0.3c0.3,0,0.5,0,0.7-0.1c0.2-0.1,0.4-0.2,0.6-0.3 c0.2-0.2,0.3-0.3,0.4-0.6l1,0.3c-0.1,0.3-0.3,0.6-0.5,0.9c-0.2,0.2-0.5,0.4-0.9,0.6C52,33.1,51.6,33.1,51.2,33.1z M56.4,29.1V33h-1 v-6.5h1v1h0.1c0.2-0.3,0.4-0.6,0.7-0.8c0.3-0.2,0.7-0.3,1.2-0.3c0.4,0,0.8,0.1,1.2,0.3c0.3,0.2,0.6,0.5,0.8,0.8 c0.2,0.4,0.3,0.8,0.3,1.4V33h-1v-4.1c0-0.5-0.1-0.9-0.4-1.2c-0.3-0.3-0.6-0.4-1.1-0.4c-0.3,0-0.6,0.1-0.9,0.2 c-0.2,0.1-0.4,0.3-0.6,0.6C56.5,28.4,56.4,28.7,56.4,29.1z M64.9,33.1c-0.5,0-1-0.1-1.4-0.4c-0.4-0.3-0.7-0.7-1-1.2 c-0.2-0.5-0.4-1.1-0.4-1.8c0-0.7,0.1-1.3,0.4-1.8c0.2-0.5,0.6-0.9,1-1.2c0.4-0.3,0.9-0.4,1.5-0.4c0.4,0,0.8,0.1,1,0.2 c0.2,0.1,0.4,0.3,0.6,0.5c0.1,0.2,0.2,0.3,0.3,0.4h0.1v-3.2h1V33h-1v-1h-0.1c-0.1,0.1-0.2,0.3-0.3,0.5c-0.1,0.2-0.3,0.3-0.6,0.5 C65.7,33.1,65.3,33.1,64.9,33.1z M65.1,32.2c0.4,0,0.7-0.1,1-0.3c0.3-0.2,0.5-0.5,0.6-0.9c0.1-0.4,0.2-0.8,0.2-1.3 c0-0.5-0.1-0.9-0.2-1.3c-0.1-0.4-0.4-0.7-0.6-0.9c-0.3-0.2-0.6-0.3-1-0.3c-0.4,0-0.8,0.1-1.1,0.3c-0.3,0.2-0.5,0.5-0.6,0.9 c-0.1,0.4-0.2,0.8-0.2,1.2c0,0.5,0.1,0.9,0.2,1.3c0.1,0.4,0.4,0.7,0.6,0.9C64.3,32.1,64.6,32.2,65.1,32.2z M77.9,27.9L77,28.2 c-0.1-0.2-0.1-0.3-0.3-0.4c-0.1-0.1-0.3-0.3-0.4-0.4c-0.2-0.1-0.4-0.1-0.7-0.1c-0.4,0-0.7,0.1-1,0.3c-0.3,0.2-0.4,0.4-0.4,0.7 c0,0.2,0.1,0.4,0.3,0.6c0.2,0.1,0.5,0.3,0.9,0.4l1,0.2c0.6,0.1,1,0.4,1.3,0.7c0.3,0.3,0.4,0.7,0.4,1.1c0,0.4-0.1,0.7-0.3,1 c-0.2,0.3-0.5,0.5-0.9,0.7c-0.4,0.2-0.8,0.3-1.3,0.3c-0.7,0-1.2-0.1-1.7-0.4c-0.4-0.3-0.7-0.7-0.8-1.3l1-0.2 c0.1,0.4,0.3,0.6,0.5,0.8c0.3,0.2,0.6,0.3,1,0.3c0.5,0,0.8-0.1,1.1-0.3c0.3-0.2,0.4-0.4,0.4-0.7c0-0.2-0.1-0.4-0.2-0.6 c-0.2-0.2-0.4-0.3-0.7-0.3l-1.1-0.3c-0.6-0.1-1-0.4-1.3-0.7c-0.3-0.3-0.4-0.7-0.4-1.1c0-0.4,0.1-0.7,0.3-1c0.2-0.3,0.5-0.5,0.9-0.7 c0.4-0.2,0.8-0.2,1.2-0.2c0.6,0,1.2,0.1,1.5,0.4C77.5,27.1,77.8,27.5,77.9,27.9z M82.3,33.1c-0.6,0-1.2-0.1-1.6-0.4 c-0.5-0.3-0.8-0.7-1.1-1.2c-0.2-0.5-0.4-1.1-0.4-1.8c0-0.7,0.1-1.3,0.4-1.8c0.2-0.5,0.6-0.9,1-1.2c0.4-0.3,1-0.4,1.6-0.4 c0.3,0,0.7,0.1,1,0.2c0.3,0.1,0.6,0.3,0.9,0.6c0.3,0.3,0.5,0.6,0.7,1c0.2,0.4,0.2,0.9,0.2,1.5v0.4h-5v-0.9h4c0-0.4-0.1-0.7-0.2-1 c-0.1-0.3-0.4-0.5-0.6-0.7c-0.3-0.2-0.6-0.3-0.9-0.3c-0.4,0-0.7,0.1-1,0.3c-0.3,0.2-0.5,0.5-0.7,0.8c-0.2,0.3-0.2,0.7-0.2,1v0.6 c0,0.5,0.1,0.9,0.3,1.3c0.2,0.3,0.4,0.6,0.7,0.8c0.3,0.2,0.7,0.3,1.1,0.3c0.3,0,0.5,0,0.7-0.1c0.2-0.1,0.4-0.2,0.6-0.3 c0.2-0.2,0.3-0.3,0.4-0.6l1,0.3c-0.1,0.3-0.3,0.6-0.5,0.9c-0.2,0.2-0.5,0.4-0.9,0.6C83.1,33.1,82.7,33.1,82.3,33.1z M86.5,33v-6.5h1 v1h0.1c0.1-0.3,0.3-0.6,0.6-0.8s0.7-0.3,1.1-0.3c0.1,0,0.2,0,0.3,0c0.1,0,0.2,0,0.3,0v1c0,0-0.1,0-0.2,0c-0.1,0-0.2,0-0.4,0 c-0.3,0-0.6,0.1-0.9,0.2c-0.2,0.1-0.4,0.3-0.6,0.5c-0.1,0.2-0.2,0.5-0.2,0.8V33H86.5z M96.6,26.5L94.1,33h-1l-2.4-6.5h1.1l1.8,5.2 h0.1l1.8-5.2H96.6z M97.9,33v-6.5h1V33H97.9z M98.4,25.4c-0.2,0-0.4-0.1-0.5-0.2c-0.1-0.1-0.2-0.3-0.2-0.5s0.1-0.3,0.2-0.5 c0.1-0.1,0.3-0.2,0.5-0.2c0.2,0,0.4,0.1,0.5,0.2c0.1,0.1,0.2,0.3,0.2,0.5S99,25,98.9,25.2C98.8,25.3,98.6,25.4,98.4,25.4z  M103.4,33.1c-0.6,0-1.1-0.1-1.6-0.4c-0.4-0.3-0.8-0.7-1-1.2c-0.2-0.5-0.4-1.1-0.4-1.7c0-0.7,0.1-1.3,0.4-1.8c0.2-0.5,0.6-0.9,1-1.2 c0.4-0.3,1-0.4,1.6-0.4c0.5,0,0.9,0.1,1.2,0.3c0.4,0.2,0.7,0.4,0.9,0.7c0.2,0.3,0.4,0.7,0.4,1.1h-1c-0.1-0.3-0.2-0.6-0.5-0.8 c-0.3-0.2-0.6-0.3-1.1-0.3c-0.4,0-0.7,0.1-1,0.3c-0.3,0.2-0.5,0.5-0.7,0.9c-0.2,0.4-0.2,0.8-0.2,1.3c0,0.5,0.1,0.9,0.2,1.3 c0.2,0.4,0.4,0.7,0.7,0.9c0.3,0.2,0.6,0.3,1,0.3c0.3,0,0.5,0,0.7-0.1s0.4-0.2,0.5-0.4c0.1-0.2,0.3-0.4,0.3-0.6h1 c-0.1,0.4-0.2,0.7-0.4,1c-0.2,0.3-0.5,0.6-0.9,0.7C104.3,33,103.9,33.1,103.4,33.1z M110.2,33.1c-0.6,0-1.2-0.1-1.6-0.4 c-0.5-0.3-0.8-0.7-1.1-1.2c-0.2-0.5-0.4-1.1-0.4-1.8c0-0.7,0.1-1.3,0.4-1.8c0.2-0.5,0.6-0.9,1-1.2c0.4-0.3,1-0.4,1.6-0.4 c0.3,0,0.7,0.1,1,0.2c0.3,0.1,0.6,0.3,0.9,0.6c0.3,0.3,0.5,0.6,0.7,1c0.2,0.4,0.2,0.9,0.2,1.5v0.4h-5v-0.9h4c0-0.4-0.1-0.7-0.2-1 c-0.1-0.3-0.4-0.5-0.6-0.7c-0.3-0.2-0.6-0.3-0.9-0.3c-0.4,0-0.7,0.1-1,0.3c-0.3,0.2-0.5,0.5-0.7,0.8c-0.2,0.3-0.2,0.7-0.2,1v0.6 c0,0.5,0.1,0.9,0.3,1.3c0.2,0.3,0.4,0.6,0.7,0.8c0.3,0.2,0.7,0.3,1.1,0.3c0.3,0,0.5,0,0.7-0.1c0.2-0.1,0.4-0.2,0.6-0.3 c0.2-0.2,0.3-0.3,0.4-0.6l1,0.3c-0.1,0.3-0.3,0.6-0.5,0.9c-0.2,0.2-0.5,0.4-0.9,0.6C111,33.1,110.6,33.1,110.2,33.1z M119,27.9 l-0.9,0.3c-0.1-0.2-0.1-0.3-0.3-0.4c-0.1-0.1-0.3-0.3-0.4-0.4c-0.2-0.1-0.4-0.1-0.7-0.1c-0.4,0-0.7,0.1-1,0.3 c-0.3,0.2-0.4,0.4-0.4,0.7c0,0.2,0.1,0.4,0.3,0.6c0.2,0.1,0.5,0.3,0.9,0.4l1,0.2c0.6,0.1,1,0.4,1.3,0.7c0.3,0.3,0.4,0.7,0.4,1.1 c0,0.4-0.1,0.7-0.3,1c-0.2,0.3-0.5,0.5-0.9,0.7c-0.4,0.2-0.8,0.3-1.3,0.3c-0.7,0-1.2-0.1-1.7-0.4c-0.4-0.3-0.7-0.7-0.8-1.3l1-0.2 c0.1,0.4,0.3,0.6,0.5,0.8c0.3,0.2,0.6,0.3,1,0.3c0.5,0,0.8-0.1,1.1-0.3c0.3-0.2,0.4-0.4,0.4-0.7c0-0.2-0.1-0.4-0.2-0.6 c-0.2-0.2-0.4-0.3-0.7-0.3l-1.1-0.3c-0.6-0.1-1-0.4-1.3-0.7c-0.3-0.3-0.4-0.7-0.4-1.1c0-0.4,0.1-0.7,0.3-1c0.2-0.3,0.5-0.5,0.9-0.7 c0.4-0.2,0.8-0.2,1.2-0.2c0.6,0,1.2,0.1,1.5,0.4C118.6,27.1,118.9,27.5,119,27.9z M125.5,21.5v14.4h-0.9V21.5H125.5z"></path><path class="st1" d="M134.1,24.2c0.4,0,0.7,0.1,1.1,0.2c0.4,0.1,0.7,0.4,1,0.7c0.3,0.3,0.5,0.7,0.7,1.3c0.2,0.5,0.3,1.2,0.3,2 c0,0.8-0.1,1.5-0.2,2.1c-0.1,0.6-0.4,1.1-0.6,1.5c-0.3,0.4-0.6,0.7-1,0.9c-0.4,0.2-0.8,0.3-1.3,0.3c-0.5,0-0.9-0.1-1.3-0.3 c-0.4-0.2-0.7-0.5-0.9-0.8c-0.2-0.3-0.4-0.8-0.5-1.2h1c0.1,0.4,0.3,0.7,0.6,1c0.3,0.3,0.7,0.4,1.1,0.4c0.7,0,1.2-0.3,1.6-0.9 c0.4-0.6,0.6-1.4,0.6-2.5h-0.1c-0.2,0.2-0.3,0.4-0.6,0.6s-0.5,0.3-0.7,0.4c-0.3,0.1-0.6,0.1-0.9,0.1c-0.5,0-1-0.1-1.4-0.4 c-0.4-0.2-0.7-0.6-1-1c-0.2-0.4-0.4-0.9-0.4-1.5c0-0.5,0.1-1,0.4-1.5c0.2-0.4,0.6-0.8,1-1.1C133,24.3,133.5,24.1,134.1,24.2z  M134.1,25.1c-0.4,0-0.7,0.1-1,0.3c-0.3,0.2-0.5,0.4-0.7,0.7c-0.2,0.3-0.2,0.6-0.2,1c0,0.4,0.1,0.7,0.2,1c0.2,0.3,0.4,0.5,0.7,0.7 c0.3,0.2,0.6,0.3,1,0.3c0.3,0,0.5-0.1,0.8-0.2c0.2-0.1,0.4-0.3,0.6-0.4c0.2-0.2,0.3-0.4,0.4-0.6c0.1-0.2,0.1-0.5,0.1-0.7 c0-0.3-0.1-0.7-0.2-1c-0.2-0.3-0.4-0.5-0.7-0.7C134.8,25.2,134.5,25.1,134.1,25.1z M141.6,24.2c0.4,0,0.7,0.1,1.1,0.2 c0.4,0.1,0.7,0.4,1,0.7c0.3,0.3,0.5,0.7,0.7,1.3c0.2,0.5,0.3,1.2,0.3,2c0,0.8-0.1,1.5-0.2,2.1c-0.1,0.6-0.4,1.1-0.6,1.5 c-0.3,0.4-0.6,0.7-1,0.9c-0.4,0.2-0.8,0.3-1.3,0.3c-0.5,0-0.9-0.1-1.3-0.3c-0.4-0.2-0.7-0.5-0.9-0.8c-0.2-0.3-0.4-0.8-0.5-1.2h1 c0.1,0.4,0.3,0.7,0.6,1c0.3,0.3,0.7,0.4,1.1,0.4c0.7,0,1.2-0.3,1.6-0.9c0.4-0.6,0.6-1.4,0.6-2.5h-0.1c-0.2,0.2-0.3,0.4-0.6,0.6 c-0.2,0.2-0.5,0.3-0.7,0.4c-0.3,0.1-0.6,0.1-0.9,0.1c-0.5,0-1-0.1-1.4-0.4c-0.4-0.2-0.7-0.6-1-1c-0.2-0.4-0.4-0.9-0.4-1.5 c0-0.5,0.1-1,0.4-1.5c0.2-0.4,0.6-0.8,1-1.1C140.5,24.3,141,24.1,141.6,24.2z M141.6,25.1c-0.4,0-0.7,0.1-1,0.3 c-0.3,0.2-0.5,0.4-0.7,0.7c-0.2,0.3-0.2,0.6-0.2,1c0,0.4,0.1,0.7,0.2,1c0.2,0.3,0.4,0.5,0.7,0.7c0.3,0.2,0.6,0.3,1,0.3 c0.3,0,0.5-0.1,0.8-0.2c0.2-0.1,0.4-0.3,0.6-0.4c0.2-0.2,0.3-0.4,0.4-0.6c0.1-0.2,0.1-0.5,0.1-0.7c0-0.3-0.1-0.7-0.2-1 c-0.2-0.3-0.4-0.5-0.7-0.7C142.3,25.2,142,25.1,141.6,25.1z M146.8,33.1c-0.2,0-0.4-0.1-0.5-0.2c-0.2-0.2-0.2-0.3-0.2-0.5 c0-0.2,0.1-0.4,0.2-0.5c0.1-0.2,0.3-0.2,0.5-0.2s0.4,0.1,0.5,0.2c0.2,0.2,0.2,0.3,0.2,0.5c0,0.1,0,0.3-0.1,0.4 c-0.1,0.1-0.2,0.2-0.3,0.3C147,33,146.9,33.1,146.8,33.1z M152,24.2c0.4,0,0.7,0.1,1.1,0.2c0.4,0.1,0.7,0.4,1,0.7 c0.3,0.3,0.5,0.7,0.7,1.3c0.2,0.5,0.3,1.2,0.3,2c0,0.8-0.1,1.5-0.2,2.1c-0.1,0.6-0.4,1.1-0.6,1.5c-0.3,0.4-0.6,0.7-1,0.9 c-0.4,0.2-0.8,0.3-1.3,0.3c-0.5,0-0.9-0.1-1.3-0.3c-0.4-0.2-0.7-0.5-0.9-0.8c-0.2-0.3-0.4-0.8-0.5-1.2h1c0.1,0.4,0.3,0.7,0.6,1 c0.3,0.3,0.7,0.4,1.1,0.4c0.7,0,1.2-0.3,1.6-0.9c0.4-0.6,0.6-1.4,0.6-2.5H154c-0.2,0.2-0.3,0.4-0.6,0.6c-0.2,0.2-0.5,0.3-0.7,0.4 c-0.3,0.1-0.6,0.1-0.9,0.1c-0.5,0-1-0.1-1.4-0.4c-0.4-0.2-0.7-0.6-1-1c-0.2-0.4-0.4-0.9-0.4-1.5c0-0.5,0.1-1,0.4-1.5 c0.2-0.4,0.6-0.8,1-1.1C150.9,24.3,151.4,24.1,152,24.2z M152,25.1c-0.4,0-0.7,0.1-1,0.3c-0.3,0.2-0.5,0.4-0.7,0.7 c-0.2,0.3-0.2,0.6-0.2,1c0,0.4,0.1,0.7,0.2,1c0.2,0.3,0.4,0.5,0.7,0.7c0.3,0.2,0.6,0.3,1,0.3c0.3,0,0.5-0.1,0.8-0.2 c0.2-0.1,0.4-0.3,0.6-0.4c0.2-0.2,0.3-0.4,0.4-0.6c0.1-0.2,0.1-0.5,0.1-0.7c0-0.3-0.1-0.7-0.2-1c-0.2-0.3-0.4-0.5-0.7-0.7 C152.7,25.2,152.4,25.1,152,25.1z M159.5,24.2c0.4,0,0.7,0.1,1.1,0.2c0.4,0.1,0.7,0.4,1,0.7c0.3,0.3,0.5,0.7,0.7,1.3 c0.2,0.5,0.3,1.2,0.3,2c0,0.8-0.1,1.5-0.2,2.1c-0.1,0.6-0.4,1.1-0.6,1.5c-0.3,0.4-0.6,0.7-1,0.9c-0.4,0.2-0.8,0.3-1.3,0.3 c-0.5,0-0.9-0.1-1.3-0.3c-0.4-0.2-0.7-0.5-0.9-0.8c-0.2-0.3-0.4-0.8-0.5-1.2h1c0.1,0.4,0.3,0.7,0.6,1c0.3,0.3,0.7,0.4,1.1,0.4 c0.7,0,1.2-0.3,1.6-0.9c0.4-0.6,0.6-1.4,0.6-2.5h-0.1c-0.2,0.2-0.3,0.4-0.6,0.6c-0.2,0.2-0.5,0.3-0.7,0.4c-0.3,0.1-0.6,0.1-0.9,0.1 c-0.5,0-1-0.1-1.4-0.4c-0.4-0.2-0.7-0.6-1-1c-0.2-0.4-0.4-0.9-0.4-1.5c0-0.5,0.1-1,0.4-1.5c0.2-0.4,0.6-0.8,1-1.1 C158.4,24.3,158.9,24.1,159.5,24.2z M159.5,25.1c-0.4,0-0.7,0.1-1,0.3c-0.3,0.2-0.5,0.4-0.7,0.7c-0.2,0.3-0.2,0.6-0.2,1 c0,0.4,0.1,0.7,0.2,1c0.2,0.3,0.4,0.5,0.7,0.7c0.3,0.2,0.6,0.3,1,0.3c0.3,0,0.5-0.1,0.8-0.2c0.2-0.1,0.4-0.3,0.6-0.4 c0.2-0.2,0.3-0.4,0.4-0.6c0.1-0.2,0.1-0.5,0.1-0.7c0-0.3-0.1-0.7-0.2-1c-0.2-0.3-0.4-0.5-0.7-0.7C160.2,25.2,159.9,25.1,159.5,25.1z  M164.2,33l3.9-7.7v-0.1h-4.5v-0.9h5.6v1l-3.9,7.7H164.2z M175.3,31.4v-0.5c0-0.3,0.1-0.6,0.2-0.9c0.1-0.3,0.3-0.5,0.6-0.6 c0.3-0.2,0.6-0.2,0.9-0.2c0.4,0,0.7,0.1,0.9,0.2c0.2,0.2,0.4,0.4,0.6,0.6c0.1,0.3,0.2,0.6,0.2,0.9v0.5c0,0.3-0.1,0.6-0.2,0.9 c-0.1,0.3-0.3,0.5-0.6,0.6c-0.2,0.2-0.6,0.2-0.9,0.2c-0.4,0-0.7-0.1-0.9-0.2c-0.3-0.2-0.4-0.4-0.6-0.6 C175.3,32,175.3,31.7,175.3,31.4z M176.2,30.9v0.5c0,0.3,0.1,0.5,0.2,0.7c0.1,0.2,0.3,0.3,0.6,0.3c0.3,0,0.5-0.1,0.6-0.3 c0.1-0.2,0.2-0.4,0.2-0.7v-0.5c0-0.3-0.1-0.5-0.2-0.7c-0.1-0.2-0.3-0.3-0.6-0.3c-0.3,0-0.5,0.1-0.6,0.3 C176.2,30.4,176.2,30.6,176.2,30.9z M170.9,26.4v-0.5c0-0.3,0.1-0.6,0.2-0.9c0.1-0.3,0.3-0.5,0.6-0.6c0.3-0.2,0.6-0.2,0.9-0.2 c0.4,0,0.7,0.1,0.9,0.2c0.2,0.2,0.4,0.4,0.6,0.6c0.1,0.3,0.2,0.6,0.2,0.9v0.5c0,0.3-0.1,0.6-0.2,0.9c-0.1,0.3-0.3,0.5-0.6,0.6 c-0.2,0.2-0.6,0.2-0.9,0.2c-0.4,0-0.7-0.1-0.9-0.2c-0.3-0.2-0.4-0.4-0.6-0.6C171,27,170.9,26.7,170.9,26.4z M171.8,25.9v0.5 c0,0.3,0.1,0.5,0.2,0.7c0.1,0.2,0.3,0.3,0.6,0.3c0.3,0,0.5-0.1,0.6-0.3c0.1-0.2,0.2-0.4,0.2-0.7v-0.5c0-0.3-0.1-0.5-0.2-0.7 c-0.1-0.2-0.3-0.3-0.6-0.3c-0.3,0-0.5,0.1-0.6,0.3C171.9,25.4,171.8,25.6,171.8,25.9z M171.3,33l6-8.7h1l-6,8.7H171.3z"></path><path class="st1" d="M23.5,120L23.5,120c1.9,0,3.5,1.6,3.5,3.5v27c0,1.9-1.6,3.5-3.5,3.5l0,0c-1.9,0-3.5-1.6-3.5-3.5v-27 C20,121.6,21.6,120,23.5,120z"></path><path class="st1" d="M34.5,120L34.5,120c1.9,0,3.5,1.6,3.5,3.5v27c0,1.9-1.6,3.5-3.5,3.5l0,0c-1.9,0-3.5-1.6-3.5-3.5v-27 C31,121.6,32.6,120,34.5,120z"></path><path class="st1" d="M45.5,120L45.5,120c1.9,0,3.5,1.6,3.5,3.5v27c0,1.9-1.6,3.5-3.5,3.5l0,0c-1.9,0-3.5-1.6-3.5-3.5v-27 C42,121.6,43.6,120,45.5,120z"></path><path class="st1" d="M56.5,120L56.5,120c1.9,0,3.5,1.6,3.5,3.5v27c0,1.9-1.6,3.5-3.5,3.5l0,0c-1.9,0-3.5-1.6-3.5-3.5v-27 C53,121.6,54.6,120,56.5,120z"></path><path class="st1" d="M67.5,120L67.5,120c1.9,0,3.5,1.6,3.5,3.5v27c0,1.9-1.6,3.5-3.5,3.5l0,0c-1.9,0-3.5-1.6-3.5-3.5v-27 C64,121.6,65.6,120,67.5,120z"></path><path class="st1" d="M78.5,120L78.5,120c1.9,0,3.5,1.6,3.5,3.5v27c0,1.9-1.6,3.5-3.5,3.5l0,0c-1.9,0-3.5-1.6-3.5-3.5v-27 C75,121.6,76.6,120,78.5,120z"></path><path class="st1" d="M89.5,120L89.5,120c1.9,0,3.5,1.6,3.5,3.5v27c0,1.9-1.6,3.5-3.5,3.5l0,0c-1.9,0-3.5-1.6-3.5-3.5v-27 C86,121.6,87.6,120,89.5,120z"></path><path class="st1" d="M100.5,120L100.5,120c1.9,0,3.5,1.6,3.5,3.5v27c0,1.9-1.6,3.5-3.5,3.5l0,0c-1.9,0-3.5-1.6-3.5-3.5v-27 C97,121.6,98.6,120,100.5,120z"></path><path class="st1" d="M111.5,120L111.5,120c1.9,0,3.5,1.6,3.5,3.5v27c0,1.9-1.6,3.5-3.5,3.5l0,0c-1.9,0-3.5-1.6-3.5-3.5v-27 C108,121.6,109.6,120,111.5,120z"></path><path class="st1" d="M122.5,120L122.5,120c1.9,0,3.5,1.6,3.5,3.5v27c0,1.9-1.6,3.5-3.5,3.5l0,0c-1.9,0-3.5-1.6-3.5-3.5v-27 C119,121.6,120.6,120,122.5,120z"></path><path class="st1" d="M133.5,120L133.5,120c1.9,0,3.5,1.6,3.5,3.5v27c0,1.9-1.6,3.5-3.5,3.5l0,0c-1.9,0-3.5-1.6-3.5-3.5v-27 C130,121.6,131.6,120,133.5,120z"></path><path class="st1" d="M144.5,120L144.5,120c1.9,0,3.5,1.6,3.5,3.5v27c0,1.9-1.6,3.5-3.5,3.5l0,0c-1.9,0-3.5-1.6-3.5-3.5v-27 C141,121.6,142.6,120,144.5,120z"></path><path class="st1" d="M155.5,120L155.5,120c1.9,0,3.5,1.6,3.5,3.5v27c0,1.9-1.6,3.5-3.5,3.5l0,0c-1.9,0-3.5-1.6-3.5-3.5v-27 C152,121.6,153.6,120,155.5,120z"></path><path class="st1" d="M166.5,120L166.5,120c1.9,0,3.5,1.6,3.5,3.5v27c0,1.9-1.6,3.5-3.5,3.5l0,0c-1.9,0-3.5-1.6-3.5-3.5v-27 C163,121.6,164.6,120,166.5,120z"></path><path class="st1" d="M177.5,120L177.5,120c1.9,0,3.5,1.6,3.5,3.5v27c0,1.9-1.6,3.5-3.5,3.5l0,0c-1.9,0-3.5-1.6-3.5-3.5v-27 C174,121.6,175.6,120,177.5,120z"></path><path class="st1" d="M188.5,120L188.5,120c1.9,0,3.5,1.6,3.5,3.5v27c0,1.9-1.6,3.5-3.5,3.5l0,0c-1.9,0-3.5-1.6-3.5-3.5v-27 C185,121.6,186.6,120,188.5,120z"></path><path class="st1" d="M199.5,120L199.5,120c1.9,0,3.5,1.6,3.5,3.5v27c0,1.9-1.6,3.5-3.5,3.5l0,0c-1.9,0-3.5-1.6-3.5-3.5v-27 C196,121.6,197.6,120,199.5,120z"></path><path class="st1" d="M210.5,120L210.5,120c1.9,0,3.5,1.6,3.5,3.5v27c0,1.9-1.6,3.5-3.5,3.5l0,0c-1.9,0-3.5-1.6-3.5-3.5v-27 C207,121.6,208.6,120,210.5,120z"></path><path class="st1" d="M221.5,120L221.5,120c1.9,0,3.5,1.6,3.5,3.5v27c0,1.9-1.6,3.5-3.5,3.5l0,0c-1.9,0-3.5-1.6-3.5-3.5v-27 C218,121.6,219.6,120,221.5,120z"></path><path class="st3" d="M232.5,120L232.5,120c1.9,0,3.5,1.6,3.5,3.5v27c0,1.9-1.6,3.5-3.5,3.5l0,0c-1.9,0-3.5-1.6-3.5-3.5v-27 C229,121.6,230.6,120,232.5,120z"></path><path class="st1" d="M243.5,120L243.5,120c1.9,0,3.5,1.6,3.5,3.5v27c0,1.9-1.6,3.5-3.5,3.5l0,0c-1.9,0-3.5-1.6-3.5-3.5v-27 C240,121.6,241.6,120,243.5,120z"></path><path class="st1" d="M254.5,120L254.5,120c1.9,0,3.5,1.6,3.5,3.5v27c0,1.9-1.6,3.5-3.5,3.5l0,0c-1.9,0-3.5-1.6-3.5-3.5v-27 C251,121.6,252.6,120,254.5,120z"></path><path class="st1" d="M265.5,120L265.5,120c1.9,0,3.5,1.6,3.5,3.5v27c0,1.9-1.6,3.5-3.5,3.5l0,0c-1.9,0-3.5-1.6-3.5-3.5v-27 C262,121.6,263.6,120,265.5,120z"></path><path class="st1" d="M276.5,120L276.5,120c1.9,0,3.5,1.6,3.5,3.5v27c0,1.9-1.6,3.5-3.5,3.5l0,0c-1.9,0-3.5-1.6-3.5-3.5v-27 C273,121.6,274.6,120,276.5,120z"></path><path class="st1" d="M287.5,120L287.5,120c1.9,0,3.5,1.6,3.5,3.5v27c0,1.9-1.6,3.5-3.5,3.5l0,0c-1.9,0-3.5-1.6-3.5-3.5v-27 C284,121.6,285.6,120,287.5,120z"></path><path class="st1" d="M298.5,120L298.5,120c1.9,0,3.5,1.6,3.5,3.5v27c0,1.9-1.6,3.5-3.5,3.5l0,0c-1.9,0-3.5-1.6-3.5-3.5v-27 C295,121.6,296.6,120,298.5,120z"></path><path class="st1" d="M309.5,120L309.5,120c1.9,0,3.5,1.6,3.5,3.5v27c0,1.9-1.6,3.5-3.5,3.5l0,0c-1.9,0-3.5-1.6-3.5-3.5v-27 C306,121.6,307.6,120,309.5,120z"></path><path class="st1" d="M320.5,120L320.5,120c1.9,0,3.5,1.6,3.5,3.5v27c0,1.9-1.6,3.5-3.5,3.5l0,0c-1.9,0-3.5-1.6-3.5-3.5v-27 C317,121.6,318.6,120,320.5,120z"></path><path class="st1" d="M331.5,120L331.5,120c1.9,0,3.5,1.6,3.5,3.5v27c0,1.9-1.6,3.5-3.5,3.5l0,0c-1.9,0-3.5-1.6-3.5-3.5v-27 C328,121.6,329.6,120,331.5,120z"></path><path class="st1" d="M342.5,120L342.5,120c1.9,0,3.5,1.6,3.5,3.5v27c0,1.9-1.6,3.5-3.5,3.5l0,0c-1.9,0-3.5-1.6-3.5-3.5v-27 C339,121.6,340.6,120,342.5,120z"></path><path class="st1" d="M353.5,120L353.5,120c1.9,0,3.5,1.6,3.5,3.5v27c0,1.9-1.6,3.5-3.5,3.5l0,0c-1.9,0-3.5-1.6-3.5-3.5v-27 C350,121.6,351.6,120,353.5,120z"></path><path class="st1" d="M364.5,120L364.5,120c1.9,0,3.5,1.6,3.5,3.5v27c0,1.9-1.6,3.5-3.5,3.5l0,0c-1.9,0-3.5-1.6-3.5-3.5v-27 C361,121.6,362.6,120,364.5,120z"></path><path class="st1" d="M375.5,120L375.5,120c1.9,0,3.5,1.6,3.5,3.5v27c0,1.9-1.6,3.5-3.5,3.5l0,0c-1.9,0-3.5-1.6-3.5-3.5v-27 C372,121.6,373.6,120,375.5,120z"></path><path class="st1" d="M386.5,120L386.5,120c1.9,0,3.5,1.6,3.5,3.5v27c0,1.9-1.6,3.5-3.5,3.5l0,0c-1.9,0-3.5-1.6-3.5-3.5v-27 C383,121.6,384.6,120,386.5,120z"></path><path class="st1" d="M397.5,120L397.5,120c1.9,0,3.5,1.6,3.5,3.5v27c0,1.9-1.6,3.5-3.5,3.5l0,0c-1.9,0-3.5-1.6-3.5-3.5v-27 C394,121.6,395.6,120,397.5,120z"></path><path class="st1" d="M408.5,120L408.5,120c1.9,0,3.5,1.6,3.5,3.5v27c0,1.9-1.6,3.5-3.5,3.5l0,0c-1.9,0-3.5-1.6-3.5-3.5v-27 C405,121.6,406.6,120,408.5,120z"></path><path class="st1" d="M419.5,120L419.5,120c1.9,0,3.5,1.6,3.5,3.5v27c0,1.9-1.6,3.5-3.5,3.5l0,0c-1.9,0-3.5-1.6-3.5-3.5v-27 C416,121.6,417.6,120,419.5,120z"></path><path class="st1" d="M430.5,120L430.5,120c1.9,0,3.5,1.6,3.5,3.5v27c0,1.9-1.6,3.5-3.5,3.5l0,0c-1.9,0-3.5-1.6-3.5-3.5v-27 C427,121.6,428.6,120,430.5,120z"></path><path class="st2" d="M21.1,100.3h1.3l3,7.2h0.1l3-7.2h1.3v8.7h-1v-6.6h-0.1l-2.7,6.6h-1l-2.7-6.6H22v6.6h-1V100.3z M33.5,109.2 c-0.4,0-0.8-0.1-1.1-0.2c-0.3-0.2-0.6-0.4-0.8-0.7c-0.2-0.3-0.3-0.7-0.3-1.1c0-0.4,0.1-0.7,0.2-0.9c0.1-0.2,0.3-0.4,0.6-0.6 c0.2-0.1,0.5-0.2,0.8-0.3c0.3-0.1,0.6-0.1,0.9-0.2c0.4-0.1,0.7-0.1,1-0.1c0.2,0,0.4-0.1,0.5-0.1c0.1-0.1,0.2-0.2,0.2-0.3v0 c0-0.4-0.1-0.7-0.3-1c-0.2-0.2-0.6-0.3-1-0.3c-0.5,0-0.9,0.1-1.1,0.3c-0.3,0.2-0.5,0.4-0.6,0.7l-1-0.3c0.2-0.4,0.4-0.7,0.7-0.9 c0.3-0.2,0.6-0.4,0.9-0.5c0.3-0.1,0.7-0.1,1-0.1c0.2,0,0.5,0,0.7,0.1c0.3,0,0.5,0.1,0.8,0.3c0.3,0.2,0.5,0.4,0.6,0.7 c0.2,0.3,0.3,0.7,0.3,1.2v4.3h-1v-0.9h-0.1c-0.1,0.1-0.2,0.3-0.3,0.5c-0.2,0.2-0.4,0.3-0.6,0.4C34.2,109.1,33.9,109.2,33.5,109.2z  M33.7,108.2c0.4,0,0.7-0.1,1-0.2c0.3-0.2,0.5-0.4,0.6-0.6c0.1-0.2,0.2-0.5,0.2-0.8v-0.9c0,0.1-0.1,0.1-0.3,0.1 c-0.1,0-0.3,0.1-0.5,0.1c-0.2,0-0.4,0.1-0.5,0.1c-0.2,0-0.3,0-0.4,0.1c-0.3,0-0.5,0.1-0.7,0.2c-0.2,0.1-0.4,0.2-0.5,0.3 c-0.1,0.1-0.2,0.3-0.2,0.6c0,0.3,0.1,0.6,0.4,0.8C32.9,108.2,33.3,108.2,33.7,108.2z M38.4,109v-6.5h1v1h0.1 c0.1-0.3,0.3-0.6,0.6-0.8c0.3-0.2,0.7-0.3,1.1-0.3c0.1,0,0.2,0,0.3,0c0.1,0,0.2,0,0.3,0v1c0,0-0.1,0-0.2,0c-0.1,0-0.2,0-0.4,0 c-0.3,0-0.6,0.1-0.9,0.2c-0.2,0.1-0.4,0.3-0.6,0.5c-0.1,0.2-0.2,0.5-0.2,0.8v4.1H38.4z M43.8,106.6l0-1.2h0.2l2.9-2.9h1.2l-3.1,3.1 h-0.1L43.8,106.6z M42.8,109v-8.7h1v8.7H42.8z M47,109l-2.6-3.2l0.7-0.7l3.1,3.9H47z M51.8,109.1c-0.6,0-1.2-0.1-1.6-0.4 c-0.5-0.3-0.8-0.7-1.1-1.2c-0.2-0.5-0.4-1.1-0.4-1.8c0-0.7,0.1-1.3,0.4-1.8c0.2-0.5,0.6-0.9,1-1.2c0.4-0.3,1-0.4,1.6-0.4 c0.3,0,0.7,0.1,1,0.2c0.3,0.1,0.6,0.3,0.9,0.6c0.3,0.3,0.5,0.6,0.7,1c0.2,0.4,0.2,0.9,0.2,1.5v0.4h-5v-0.9h4c0-0.4-0.1-0.7-0.2-1 c-0.1-0.3-0.4-0.5-0.6-0.7c-0.3-0.2-0.6-0.3-0.9-0.3c-0.4,0-0.7,0.1-1,0.3c-0.3,0.2-0.5,0.5-0.7,0.8c-0.2,0.3-0.2,0.7-0.2,1v0.6 c0,0.5,0.1,0.9,0.3,1.3c0.2,0.3,0.4,0.6,0.7,0.8c0.3,0.2,0.7,0.3,1.1,0.3c0.3,0,0.5,0,0.7-0.1c0.2-0.1,0.4-0.2,0.6-0.3 c0.2-0.2,0.3-0.3,0.4-0.6l1,0.3c-0.1,0.3-0.3,0.6-0.5,0.9c-0.2,0.2-0.5,0.4-0.9,0.6C52.7,109.1,52.3,109.1,51.8,109.1z M58.9,102.5 v0.9h-3.4v-0.9H58.9z M56.5,100.9h1v6.2c0,0.3,0,0.5,0.1,0.6c0.1,0.1,0.2,0.2,0.3,0.3c0.1,0,0.3,0.1,0.4,0.1c0.1,0,0.2,0,0.3,0 c0.1,0,0.1,0,0.2,0L59,109c-0.1,0-0.2,0.1-0.3,0.1c-0.1,0-0.3,0-0.5,0c-0.3,0-0.6-0.1-0.8-0.2c-0.3-0.1-0.5-0.3-0.7-0.6 c-0.2-0.2-0.3-0.6-0.3-0.9V100.9z M63.8,111.5v-9h1v1h0.1c0.1-0.1,0.2-0.3,0.3-0.4c0.1-0.2,0.3-0.3,0.6-0.5c0.2-0.1,0.6-0.2,1-0.2 c0.6,0,1,0.1,1.5,0.4c0.4,0.3,0.7,0.7,1,1.2c0.2,0.5,0.4,1.1,0.4,1.8c0,0.7-0.1,1.3-0.4,1.8c-0.2,0.5-0.6,0.9-1,1.2 c-0.4,0.3-0.9,0.4-1.4,0.4c-0.4,0-0.8-0.1-1-0.2c-0.3-0.1-0.4-0.3-0.6-0.5c-0.1-0.2-0.2-0.3-0.3-0.5h-0.1v3.5H63.8z M64.8,105.7 c0,0.5,0.1,0.9,0.2,1.3c0.1,0.4,0.4,0.7,0.6,0.9c0.3,0.2,0.6,0.3,1,0.3c0.4,0,0.8-0.1,1.1-0.3c0.3-0.2,0.5-0.5,0.6-0.9 c0.1-0.4,0.2-0.8,0.2-1.3c0-0.5-0.1-0.9-0.2-1.2c-0.1-0.4-0.4-0.7-0.6-0.9c-0.3-0.2-0.6-0.3-1.1-0.3c-0.4,0-0.8,0.1-1,0.3 c-0.3,0.2-0.5,0.5-0.6,0.9C64.9,104.8,64.8,105.2,64.8,105.7z M71.1,109v-6.5h1v1h0.1c0.1-0.3,0.3-0.6,0.6-0.8 c0.3-0.2,0.7-0.3,1.1-0.3c0.1,0,0.2,0,0.3,0c0.1,0,0.2,0,0.3,0v1c0,0-0.1,0-0.2,0c-0.1,0-0.2,0-0.4,0c-0.3,0-0.6,0.1-0.9,0.2 c-0.2,0.1-0.4,0.3-0.6,0.5c-0.1,0.2-0.2,0.5-0.2,0.8v4.1H71.1z M75.6,109v-6.5h1v6.5H75.6z M76.1,101.4c-0.2,0-0.4-0.1-0.5-0.2 c-0.1-0.1-0.2-0.3-0.2-0.5c0-0.2,0.1-0.3,0.2-0.5c0.1-0.1,0.3-0.2,0.5-0.2c0.2,0,0.4,0.1,0.5,0.2c0.1,0.1,0.2,0.3,0.2,0.5 c0,0.2-0.1,0.3-0.2,0.5C76.5,101.3,76.3,101.4,76.1,101.4z M81.1,109.1c-0.6,0-1.1-0.1-1.6-0.4c-0.4-0.3-0.8-0.7-1-1.2 c-0.2-0.5-0.4-1.1-0.4-1.7c0-0.7,0.1-1.3,0.4-1.8c0.2-0.5,0.6-0.9,1-1.2c0.4-0.3,1-0.4,1.6-0.4c0.5,0,0.9,0.1,1.2,0.3 s0.7,0.4,0.9,0.7c0.2,0.3,0.4,0.7,0.4,1.1h-1c-0.1-0.3-0.2-0.6-0.5-0.8c-0.3-0.2-0.6-0.3-1.1-0.3c-0.4,0-0.7,0.1-1,0.3 c-0.3,0.2-0.5,0.5-0.7,0.9c-0.2,0.4-0.2,0.8-0.2,1.3c0,0.5,0.1,0.9,0.2,1.3c0.2,0.4,0.4,0.7,0.7,0.9c0.3,0.2,0.6,0.3,1,0.3 c0.3,0,0.5,0,0.7-0.1c0.2-0.1,0.4-0.2,0.5-0.4c0.1-0.2,0.3-0.4,0.3-0.6h1c-0.1,0.4-0.2,0.7-0.4,1c-0.2,0.3-0.5,0.6-0.9,0.7 C82,109,81.6,109.1,81.1,109.1z M87.9,109.1c-0.6,0-1.2-0.1-1.6-0.4c-0.5-0.3-0.8-0.7-1.1-1.2c-0.2-0.5-0.4-1.1-0.4-1.8 c0-0.7,0.1-1.3,0.4-1.8c0.2-0.5,0.6-0.9,1-1.2c0.4-0.3,1-0.4,1.6-0.4c0.3,0,0.7,0.1,1,0.2c0.3,0.1,0.6,0.3,0.9,0.6 c0.3,0.3,0.5,0.6,0.7,1c0.2,0.4,0.2,0.9,0.2,1.5v0.4h-5v-0.9h4c0-0.4-0.1-0.7-0.2-1c-0.1-0.3-0.4-0.5-0.6-0.7 c-0.3-0.2-0.6-0.3-0.9-0.3c-0.4,0-0.7,0.1-1,0.3c-0.3,0.2-0.5,0.5-0.7,0.8c-0.2,0.3-0.2,0.7-0.2,1v0.6c0,0.5,0.1,0.9,0.3,1.3 c0.2,0.3,0.4,0.6,0.7,0.8c0.3,0.2,0.7,0.3,1.1,0.3c0.3,0,0.5,0,0.7-0.1c0.2-0.1,0.4-0.2,0.6-0.3c0.2-0.2,0.3-0.3,0.4-0.6l1,0.3 c-0.1,0.3-0.3,0.6-0.5,0.9c-0.2,0.2-0.5,0.4-0.9,0.6C88.7,109.1,88.3,109.1,87.9,109.1z M96.7,103.9l-0.9,0.3 c-0.1-0.2-0.1-0.3-0.3-0.4c-0.1-0.1-0.3-0.3-0.4-0.4c-0.2-0.1-0.4-0.1-0.7-0.1c-0.4,0-0.7,0.1-1,0.3c-0.3,0.2-0.4,0.4-0.4,0.7 c0,0.2,0.1,0.4,0.3,0.6c0.2,0.1,0.5,0.3,0.9,0.4l1,0.2c0.6,0.1,1,0.4,1.3,0.7c0.3,0.3,0.4,0.7,0.4,1.1c0,0.4-0.1,0.7-0.3,1 c-0.2,0.3-0.5,0.5-0.9,0.7c-0.4,0.2-0.8,0.3-1.3,0.3c-0.7,0-1.2-0.1-1.7-0.4c-0.4-0.3-0.7-0.7-0.8-1.3l1-0.2 c0.1,0.4,0.3,0.6,0.5,0.8c0.3,0.2,0.6,0.3,1,0.3c0.5,0,0.8-0.1,1.1-0.3c0.3-0.2,0.4-0.4,0.4-0.7c0-0.2-0.1-0.4-0.2-0.6 c-0.2-0.2-0.4-0.3-0.7-0.3l-1.1-0.3c-0.6-0.1-1-0.4-1.3-0.7c-0.3-0.3-0.4-0.7-0.4-1.1c0-0.4,0.1-0.7,0.3-1c0.2-0.3,0.5-0.5,0.9-0.7 c0.4-0.2,0.8-0.2,1.2-0.2c0.6,0,1.2,0.1,1.5,0.4C96.3,103.1,96.6,103.5,96.7,103.9z M102.3,110.1V99.2h2.5v0.8h-1.6v9.2h1.6v0.8 H102.3z M113.2,100.3v8.7h-1l-4.8-6.9h-0.1v6.9h-1.1v-8.7h1l4.8,6.9h0.1v-6.9H113.2z M117.8,109.1c-0.6,0-1.1-0.1-1.6-0.4 c-0.4-0.3-0.8-0.7-1-1.2c-0.2-0.5-0.4-1.1-0.4-1.8c0-0.7,0.1-1.3,0.4-1.8c0.2-0.5,0.6-0.9,1-1.2c0.4-0.3,1-0.4,1.6-0.4 c0.6,0,1.1,0.1,1.6,0.4c0.4,0.3,0.8,0.7,1,1.2c0.2,0.5,0.4,1.1,0.4,1.8c0,0.7-0.1,1.3-0.4,1.8c-0.2,0.5-0.6,0.9-1,1.2 C118.9,109,118.4,109.1,117.8,109.1z M117.8,108.2c0.4,0,0.8-0.1,1.1-0.3c0.3-0.2,0.5-0.5,0.6-0.9s0.2-0.8,0.2-1.2 c0-0.4-0.1-0.8-0.2-1.2c-0.1-0.4-0.4-0.7-0.6-0.9s-0.7-0.3-1.1-0.3c-0.4,0-0.8,0.1-1.1,0.3c-0.3,0.2-0.5,0.5-0.6,0.9 c-0.1,0.4-0.2,0.8-0.2,1.2c0,0.4,0.1,0.8,0.2,1.2s0.4,0.7,0.6,0.9C117,108.1,117.3,108.2,117.8,108.2z M124.8,109.1 c-0.5,0-1-0.1-1.4-0.4c-0.4-0.3-0.7-0.7-1-1.2c-0.2-0.5-0.4-1.1-0.4-1.8c0-0.7,0.1-1.3,0.4-1.8c0.2-0.5,0.6-0.9,1-1.2 c0.4-0.3,0.9-0.4,1.5-0.4c0.4,0,0.8,0.1,1,0.2c0.2,0.1,0.4,0.3,0.6,0.5c0.1,0.2,0.2,0.3,0.3,0.4h0.1v-3.2h1v8.7h-1v-1h-0.1 c-0.1,0.1-0.2,0.3-0.3,0.5c-0.1,0.2-0.3,0.3-0.6,0.5C125.5,109.1,125.2,109.1,124.8,109.1z M124.9,108.2c0.4,0,0.7-0.1,1-0.3 c0.3-0.2,0.5-0.5,0.6-0.9c0.1-0.4,0.2-0.8,0.2-1.3c0-0.5-0.1-0.9-0.2-1.3c-0.1-0.4-0.4-0.7-0.6-0.9c-0.3-0.2-0.6-0.3-1-0.3 c-0.4,0-0.8,0.1-1.1,0.3c-0.3,0.2-0.5,0.5-0.6,0.9c-0.1,0.4-0.2,0.8-0.2,1.2c0,0.5,0.1,0.9,0.2,1.3c0.1,0.4,0.4,0.7,0.6,0.9 C124.1,108.1,124.5,108.2,124.9,108.2z M132.5,109.1c-0.6,0-1.2-0.1-1.6-0.4c-0.5-0.3-0.8-0.7-1.1-1.2c-0.2-0.5-0.4-1.1-0.4-1.8 c0-0.7,0.1-1.3,0.4-1.8c0.2-0.5,0.6-0.9,1-1.2c0.4-0.3,1-0.4,1.6-0.4c0.3,0,0.7,0.1,1,0.2c0.3,0.1,0.6,0.3,0.9,0.6 c0.3,0.3,0.5,0.6,0.7,1c0.2,0.4,0.2,0.9,0.2,1.5v0.4h-5v-0.9h4c0-0.4-0.1-0.7-0.2-1c-0.1-0.3-0.4-0.5-0.6-0.7 c-0.3-0.2-0.6-0.3-0.9-0.3c-0.4,0-0.7,0.1-1,0.3c-0.3,0.2-0.5,0.5-0.7,0.8c-0.2,0.3-0.2,0.7-0.2,1v0.6c0,0.5,0.1,0.9,0.3,1.3 c0.2,0.3,0.4,0.6,0.7,0.8c0.3,0.2,0.7,0.3,1.1,0.3c0.3,0,0.5,0,0.7-0.1c0.2-0.1,0.4-0.2,0.6-0.3c0.2-0.2,0.3-0.3,0.4-0.6l1,0.3 c-0.1,0.3-0.3,0.6-0.5,0.9c-0.2,0.2-0.5,0.4-0.9,0.6C133.3,109.1,132.9,109.1,132.5,109.1z M143.2,100.3v8.7h-1.1v-7.6h-0.1 l-2.1,1.4v-1.1l2.2-1.4H143.2z M147.7,99.2v10.9h-2.5v-0.8h1.6V100h-1.6v-0.8H147.7z M154.9,97.5v14.4H154V97.5H154.9z"></path><path class="st1" d="M163.5,100.2c0.4,0,0.7,0.1,1.1,0.2c0.4,0.1,0.7,0.4,1,0.7c0.3,0.3,0.5,0.7,0.7,1.3s0.3,1.2,0.3,2 c0,0.8-0.1,1.5-0.2,2.1c-0.1,0.6-0.4,1.1-0.6,1.5c-0.3,0.4-0.6,0.7-1,0.9c-0.4,0.2-0.8,0.3-1.3,0.3c-0.5,0-0.9-0.1-1.3-0.3 c-0.4-0.2-0.7-0.5-0.9-0.8c-0.2-0.3-0.4-0.8-0.5-1.2h1c0.1,0.4,0.3,0.7,0.6,1c0.3,0.3,0.7,0.4,1.1,0.4c0.7,0,1.2-0.3,1.6-0.9 c0.4-0.6,0.6-1.4,0.6-2.5h-0.1c-0.2,0.2-0.3,0.4-0.6,0.6c-0.2,0.2-0.5,0.3-0.7,0.4c-0.3,0.1-0.6,0.1-0.9,0.1c-0.5,0-1-0.1-1.4-0.4 c-0.4-0.2-0.7-0.6-1-1c-0.2-0.4-0.4-0.9-0.4-1.5c0-0.5,0.1-1,0.4-1.5c0.2-0.4,0.6-0.8,1-1.1C162.4,100.3,162.9,100.1,163.5,100.2z  M163.5,101.1c-0.4,0-0.7,0.1-1,0.3c-0.3,0.2-0.5,0.4-0.7,0.7c-0.2,0.3-0.2,0.6-0.2,1c0,0.4,0.1,0.7,0.2,1c0.2,0.3,0.4,0.5,0.7,0.7 c0.3,0.2,0.6,0.3,1,0.3c0.3,0,0.5-0.1,0.8-0.2c0.2-0.1,0.4-0.3,0.6-0.4c0.2-0.2,0.3-0.4,0.4-0.6c0.1-0.2,0.1-0.5,0.1-0.7 c0-0.3-0.1-0.7-0.2-1c-0.2-0.3-0.4-0.5-0.7-0.7C164.2,101.2,163.8,101.1,163.5,101.1z M171,100.2c0.4,0,0.7,0.1,1.1,0.2 c0.4,0.1,0.7,0.4,1,0.7c0.3,0.3,0.5,0.7,0.7,1.3s0.3,1.2,0.3,2c0,0.8-0.1,1.5-0.2,2.1c-0.1,0.6-0.4,1.1-0.6,1.5 c-0.3,0.4-0.6,0.7-1,0.9c-0.4,0.2-0.8,0.3-1.3,0.3c-0.5,0-0.9-0.1-1.3-0.3c-0.4-0.2-0.7-0.5-0.9-0.8c-0.2-0.3-0.4-0.8-0.5-1.2h1 c0.1,0.4,0.3,0.7,0.6,1c0.3,0.3,0.7,0.4,1.1,0.4c0.7,0,1.2-0.3,1.6-0.9c0.4-0.6,0.6-1.4,0.6-2.5h-0.1c-0.2,0.2-0.3,0.4-0.6,0.6 c-0.2,0.2-0.5,0.3-0.7,0.4c-0.3,0.1-0.6,0.1-0.9,0.1c-0.5,0-1-0.1-1.4-0.4c-0.4-0.2-0.7-0.6-1-1c-0.2-0.4-0.4-0.9-0.4-1.5 c0-0.5,0.1-1,0.4-1.5c0.2-0.4,0.6-0.8,1-1.1C169.9,100.3,170.4,100.1,171,100.2z M171,101.1c-0.4,0-0.7,0.1-1,0.3 c-0.3,0.2-0.5,0.4-0.7,0.7c-0.2,0.3-0.2,0.6-0.2,1c0,0.4,0.1,0.7,0.2,1c0.2,0.3,0.4,0.5,0.7,0.7c0.3,0.2,0.6,0.3,1,0.3 c0.3,0,0.5-0.1,0.8-0.2c0.2-0.1,0.4-0.3,0.6-0.4c0.2-0.2,0.3-0.4,0.4-0.6c0.1-0.2,0.1-0.5,0.1-0.7c0-0.3-0.1-0.7-0.2-1 c-0.2-0.3-0.4-0.5-0.7-0.7C171.7,101.2,171.3,101.1,171,101.1z M176.1,109.1c-0.2,0-0.4-0.1-0.5-0.2c-0.2-0.2-0.2-0.3-0.2-0.5 s0.1-0.4,0.2-0.5s0.3-0.2,0.5-0.2c0.2,0,0.4,0.1,0.5,0.2c0.2,0.2,0.2,0.3,0.2,0.5c0,0.1,0,0.3-0.1,0.4c-0.1,0.1-0.2,0.2-0.3,0.3 C176.4,109,176.3,109.1,176.1,109.1z M181.4,100.2c0.4,0,0.7,0.1,1.1,0.2c0.4,0.1,0.7,0.4,1,0.7c0.3,0.3,0.5,0.7,0.7,1.3 s0.3,1.2,0.3,2c0,0.8-0.1,1.5-0.2,2.1c-0.1,0.6-0.4,1.1-0.6,1.5c-0.3,0.4-0.6,0.7-1,0.9c-0.4,0.2-0.8,0.3-1.3,0.3 c-0.5,0-0.9-0.1-1.3-0.3c-0.4-0.2-0.7-0.5-0.9-0.8c-0.2-0.3-0.4-0.8-0.5-1.2h1c0.1,0.4,0.3,0.7,0.6,1c0.3,0.3,0.7,0.4,1.1,0.4 c0.7,0,1.2-0.3,1.6-0.9c0.4-0.6,0.6-1.4,0.6-2.5h-0.1c-0.2,0.2-0.3,0.4-0.6,0.6c-0.2,0.2-0.5,0.3-0.7,0.4c-0.3,0.1-0.6,0.1-0.9,0.1 c-0.5,0-1-0.1-1.4-0.4c-0.4-0.2-0.7-0.6-1-1c-0.2-0.4-0.4-0.9-0.4-1.5c0-0.5,0.1-1,0.4-1.5c0.2-0.4,0.6-0.8,1-1.1 C180.3,100.3,180.8,100.1,181.4,100.2z M181.4,101.1c-0.4,0-0.7,0.1-1,0.3c-0.3,0.2-0.5,0.4-0.7,0.7c-0.2,0.3-0.2,0.6-0.2,1 c0,0.4,0.1,0.7,0.2,1c0.2,0.3,0.4,0.5,0.7,0.7c0.3,0.2,0.6,0.3,1,0.3c0.3,0,0.5-0.1,0.8-0.2c0.2-0.1,0.4-0.3,0.6-0.4 c0.2-0.2,0.3-0.4,0.4-0.6c0.1-0.2,0.1-0.5,0.1-0.7c0-0.3-0.1-0.7-0.2-1c-0.2-0.3-0.4-0.5-0.7-0.7 C182.1,101.2,181.7,101.1,181.4,101.1z M188.9,100.2c0.4,0,0.7,0.1,1.1,0.2c0.4,0.1,0.7,0.4,1,0.7c0.3,0.3,0.5,0.7,0.7,1.3 s0.3,1.2,0.3,2c0,0.8-0.1,1.5-0.2,2.1c-0.1,0.6-0.4,1.1-0.6,1.5c-0.3,0.4-0.6,0.7-1,0.9c-0.4,0.2-0.8,0.3-1.3,0.3 c-0.5,0-0.9-0.1-1.3-0.3c-0.4-0.2-0.7-0.5-0.9-0.8c-0.2-0.3-0.4-0.8-0.5-1.2h1c0.1,0.4,0.3,0.7,0.6,1c0.3,0.3,0.7,0.4,1.1,0.4 c0.7,0,1.2-0.3,1.6-0.9c0.4-0.6,0.6-1.4,0.6-2.5h-0.1c-0.2,0.2-0.3,0.4-0.6,0.6c-0.2,0.2-0.5,0.3-0.7,0.4c-0.3,0.1-0.6,0.1-0.9,0.1 c-0.5,0-1-0.1-1.4-0.4c-0.4-0.2-0.7-0.6-1-1c-0.2-0.4-0.4-0.9-0.4-1.5c0-0.5,0.1-1,0.4-1.5c0.2-0.4,0.6-0.8,1-1.1 C187.8,100.3,188.3,100.1,188.9,100.2z M188.9,101.1c-0.4,0-0.7,0.1-1,0.3c-0.3,0.2-0.5,0.4-0.7,0.7c-0.2,0.3-0.2,0.6-0.2,1 c0,0.4,0.1,0.7,0.2,1c0.2,0.3,0.4,0.5,0.7,0.7c0.3,0.2,0.6,0.3,1,0.3c0.3,0,0.5-0.1,0.8-0.2c0.2-0.1,0.4-0.3,0.6-0.4 c0.2-0.2,0.3-0.4,0.4-0.6c0.1-0.2,0.1-0.5,0.1-0.7c0-0.3-0.1-0.7-0.2-1c-0.2-0.3-0.4-0.5-0.7-0.7 C189.5,101.2,189.2,101.1,188.9,101.1z M193.6,109l3.9-7.7v-0.1H193v-0.9h5.6v1l-3.9,7.7H193.6z M204.6,107.4v-0.5 c0-0.3,0.1-0.6,0.2-0.9c0.1-0.3,0.3-0.5,0.6-0.6c0.3-0.2,0.6-0.2,0.9-0.2c0.4,0,0.7,0.1,0.9,0.2c0.2,0.2,0.4,0.4,0.6,0.6 c0.1,0.3,0.2,0.6,0.2,0.9v0.5c0,0.3-0.1,0.6-0.2,0.9c-0.1,0.3-0.3,0.5-0.6,0.6c-0.2,0.2-0.6,0.2-0.9,0.2c-0.4,0-0.7-0.1-0.9-0.2 c-0.3-0.2-0.4-0.4-0.6-0.6C204.7,108,204.6,107.7,204.6,107.4z M205.5,106.9v0.5c0,0.3,0.1,0.5,0.2,0.7c0.1,0.2,0.3,0.3,0.6,0.3 c0.3,0,0.5-0.1,0.6-0.3c0.1-0.2,0.2-0.4,0.2-0.7v-0.5c0-0.3-0.1-0.5-0.2-0.7c-0.1-0.2-0.3-0.3-0.6-0.3c-0.3,0-0.5,0.1-0.6,0.3 C205.6,106.4,205.5,106.6,205.5,106.9z M200.3,102.4v-0.5c0-0.3,0.1-0.6,0.2-0.9c0.1-0.3,0.3-0.5,0.6-0.6c0.3-0.2,0.6-0.2,0.9-0.2 c0.4,0,0.7,0.1,0.9,0.2c0.2,0.2,0.4,0.4,0.6,0.6c0.1,0.3,0.2,0.6,0.2,0.9v0.5c0,0.3-0.1,0.6-0.2,0.9c-0.1,0.3-0.3,0.5-0.6,0.6 c-0.2,0.2-0.6,0.2-0.9,0.2c-0.4,0-0.7-0.1-0.9-0.2c-0.3-0.2-0.4-0.4-0.6-0.6C200.4,103,200.3,102.7,200.3,102.4z M201.2,101.9v0.5 c0,0.3,0.1,0.5,0.2,0.7c0.1,0.2,0.3,0.3,0.6,0.3c0.3,0,0.5-0.1,0.6-0.3c0.1-0.2,0.2-0.4,0.2-0.7v-0.5c0-0.3-0.1-0.5-0.2-0.7 c-0.1-0.2-0.3-0.3-0.6-0.3c-0.3,0-0.5,0.1-0.6,0.3C201.2,101.4,201.2,101.6,201.2,101.9z M200.6,109l6-8.7h1l-6,8.7H200.6z"></path><path class="st1" d="M23.5,196L23.5,196c1.9,0,3.5,1.6,3.5,3.5v27c0,1.9-1.6,3.5-3.5,3.5l0,0c-1.9,0-3.5-1.6-3.5-3.5v-27 C20,197.6,21.6,196,23.5,196z"></path><path class="st1" d="M34.5,196L34.5,196c1.9,0,3.5,1.6,3.5,3.5v27c0,1.9-1.6,3.5-3.5,3.5l0,0c-1.9,0-3.5-1.6-3.5-3.5v-27 C31,197.6,32.6,196,34.5,196z"></path><path class="st1" d="M45.5,196L45.5,196c1.9,0,3.5,1.6,3.5,3.5v27c0,1.9-1.6,3.5-3.5,3.5l0,0c-1.9,0-3.5-1.6-3.5-3.5v-27 C42,197.6,43.6,196,45.5,196z"></path><path class="st1" d="M56.5,196L56.5,196c1.9,0,3.5,1.6,3.5,3.5v27c0,1.9-1.6,3.5-3.5,3.5l0,0c-1.9,0-3.5-1.6-3.5-3.5v-27 C53,197.6,54.6,196,56.5,196z"></path><path class="st1" d="M67.5,196L67.5,196c1.9,0,3.5,1.6,3.5,3.5v27c0,1.9-1.6,3.5-3.5,3.5l0,0c-1.9,0-3.5-1.6-3.5-3.5v-27 C64,197.6,65.6,196,67.5,196z"></path><path class="st3" d="M78.5,196L78.5,196c1.9,0,3.5,1.6,3.5,3.5v27c0,1.9-1.6,3.5-3.5,3.5l0,0c-1.9,0-3.5-1.6-3.5-3.5v-27 C75,197.6,76.6,196,78.5,196z"></path><path class="st1" d="M89.5,196L89.5,196c1.9,0,3.5,1.6,3.5,3.5v27c0,1.9-1.6,3.5-3.5,3.5l0,0c-1.9,0-3.5-1.6-3.5-3.5v-27 C86,197.6,87.6,196,89.5,196z"></path><path class="st1" d="M100.5,196L100.5,196c1.9,0,3.5,1.6,3.5,3.5v27c0,1.9-1.6,3.5-3.5,3.5l0,0c-1.9,0-3.5-1.6-3.5-3.5v-27 C97,197.6,98.6,196,100.5,196z"></path><path class="st1" d="M111.5,196L111.5,196c1.9,0,3.5,1.6,3.5,3.5v27c0,1.9-1.6,3.5-3.5,3.5l0,0c-1.9,0-3.5-1.6-3.5-3.5v-27 C108,197.6,109.6,196,111.5,196z"></path><path class="st1" d="M122.5,196L122.5,196c1.9,0,3.5,1.6,3.5,3.5v27c0,1.9-1.6,3.5-3.5,3.5l0,0c-1.9,0-3.5-1.6-3.5-3.5v-27 C119,197.6,120.6,196,122.5,196z"></path><path class="st1" d="M133.5,196L133.5,196c1.9,0,3.5,1.6,3.5,3.5v27c0,1.9-1.6,3.5-3.5,3.5l0,0c-1.9,0-3.5-1.6-3.5-3.5v-27 C130,197.6,131.6,196,133.5,196z"></path><path class="st1" d="M144.5,196L144.5,196c1.9,0,3.5,1.6,3.5,3.5v27c0,1.9-1.6,3.5-3.5,3.5l0,0c-1.9,0-3.5-1.6-3.5-3.5v-27 C141,197.6,142.6,196,144.5,196z"></path><path class="st1" d="M155.5,196L155.5,196c1.9,0,3.5,1.6,3.5,3.5v27c0,1.9-1.6,3.5-3.5,3.5l0,0c-1.9,0-3.5-1.6-3.5-3.5v-27 C152,197.6,153.6,196,155.5,196z"></path><path class="st3" d="M166.5,196L166.5,196c1.9,0,3.5,1.6,3.5,3.5v27c0,1.9-1.6,3.5-3.5,3.5l0,0c-1.9,0-3.5-1.6-3.5-3.5v-27 C163,197.6,164.6,196,166.5,196z"></path><path class="st1" d="M177.5,196L177.5,196c1.9,0,3.5,1.6,3.5,3.5v27c0,1.9-1.6,3.5-3.5,3.5l0,0c-1.9,0-3.5-1.6-3.5-3.5v-27 C174,197.6,175.6,196,177.5,196z"></path><path class="st1" d="M188.5,196L188.5,196c1.9,0,3.5,1.6,3.5,3.5v27c0,1.9-1.6,3.5-3.5,3.5l0,0c-1.9,0-3.5-1.6-3.5-3.5v-27 C185,197.6,186.6,196,188.5,196z"></path><path class="st1" d="M199.5,196L199.5,196c1.9,0,3.5,1.6,3.5,3.5v27c0,1.9-1.6,3.5-3.5,3.5l0,0c-1.9,0-3.5-1.6-3.5-3.5v-27 C196,197.6,197.6,196,199.5,196z"></path><path class="st1" d="M210.5,196L210.5,196c1.9,0,3.5,1.6,3.5,3.5v27c0,1.9-1.6,3.5-3.5,3.5l0,0c-1.9,0-3.5-1.6-3.5-3.5v-27 C207,197.6,208.6,196,210.5,196z"></path><path class="st1" d="M221.5,196L221.5,196c1.9,0,3.5,1.6,3.5,3.5v27c0,1.9-1.6,3.5-3.5,3.5l0,0c-1.9,0-3.5-1.6-3.5-3.5v-27 C218,197.6,219.6,196,221.5,196z"></path><path class="st1" d="M232.5,196L232.5,196c1.9,0,3.5,1.6,3.5,3.5v27c0,1.9-1.6,3.5-3.5,3.5l0,0c-1.9,0-3.5-1.6-3.5-3.5v-27 C229,197.6,230.6,196,232.5,196z"></path><path class="st1" d="M243.5,196L243.5,196c1.9,0,3.5,1.6,3.5,3.5v27c0,1.9-1.6,3.5-3.5,3.5l0,0c-1.9,0-3.5-1.6-3.5-3.5v-27 C240,197.6,241.6,196,243.5,196z"></path><path class="st1" d="M254.5,196L254.5,196c1.9,0,3.5,1.6,3.5,3.5v27c0,1.9-1.6,3.5-3.5,3.5l0,0c-1.9,0-3.5-1.6-3.5-3.5v-27 C251,197.6,252.6,196,254.5,196z"></path><path class="st1" d="M265.5,196L265.5,196c1.9,0,3.5,1.6,3.5,3.5v27c0,1.9-1.6,3.5-3.5,3.5l0,0c-1.9,0-3.5-1.6-3.5-3.5v-27 C262,197.6,263.6,196,265.5,196z"></path><path class="st1" d="M276.5,196L276.5,196c1.9,0,3.5,1.6,3.5,3.5v27c0,1.9-1.6,3.5-3.5,3.5l0,0c-1.9,0-3.5-1.6-3.5-3.5v-27 C273,197.6,274.6,196,276.5,196z"></path><path class="st1" d="M287.5,196L287.5,196c1.9,0,3.5,1.6,3.5,3.5v27c0,1.9-1.6,3.5-3.5,3.5l0,0c-1.9,0-3.5-1.6-3.5-3.5v-27 C284,197.6,285.6,196,287.5,196z"></path><path class="st1" d="M298.5,196L298.5,196c1.9,0,3.5,1.6,3.5,3.5v27c0,1.9-1.6,3.5-3.5,3.5l0,0c-1.9,0-3.5-1.6-3.5-3.5v-27 C295,197.6,296.6,196,298.5,196z"></path><path class="st3" d="M309.5,196L309.5,196c1.9,0,3.5,1.6,3.5,3.5v27c0,1.9-1.6,3.5-3.5,3.5l0,0c-1.9,0-3.5-1.6-3.5-3.5v-27 C306,197.6,307.6,196,309.5,196z"></path><path class="st1" d="M320.5,196L320.5,196c1.9,0,3.5,1.6,3.5,3.5v27c0,1.9-1.6,3.5-3.5,3.5l0,0c-1.9,0-3.5-1.6-3.5-3.5v-27 C317,197.6,318.6,196,320.5,196z"></path><path class="st1" d="M331.5,196L331.5,196c1.9,0,3.5,1.6,3.5,3.5v27c0,1.9-1.6,3.5-3.5,3.5l0,0c-1.9,0-3.5-1.6-3.5-3.5v-27 C328,197.6,329.6,196,331.5,196z"></path><path class="st1" d="M342.5,196L342.5,196c1.9,0,3.5,1.6,3.5,3.5v27c0,1.9-1.6,3.5-3.5,3.5l0,0c-1.9,0-3.5-1.6-3.5-3.5v-27 C339,197.6,340.6,196,342.5,196z"></path><path class="st1" d="M353.5,196L353.5,196c1.9,0,3.5,1.6,3.5,3.5v27c0,1.9-1.6,3.5-3.5,3.5l0,0c-1.9,0-3.5-1.6-3.5-3.5v-27 C350,197.6,351.6,196,353.5,196z"></path><path class="st1" d="M364.5,196L364.5,196c1.9,0,3.5,1.6,3.5,3.5v27c0,1.9-1.6,3.5-3.5,3.5l0,0c-1.9,0-3.5-1.6-3.5-3.5v-27 C361,197.6,362.6,196,364.5,196z"></path><path class="st1" d="M375.5,196L375.5,196c1.9,0,3.5,1.6,3.5,3.5v27c0,1.9-1.6,3.5-3.5,3.5l0,0c-1.9,0-3.5-1.6-3.5-3.5v-27 C372,197.6,373.6,196,375.5,196z"></path><path class="st1" d="M386.5,196L386.5,196c1.9,0,3.5,1.6,3.5,3.5v27c0,1.9-1.6,3.5-3.5,3.5l0,0c-1.9,0-3.5-1.6-3.5-3.5v-27 C383,197.6,384.6,196,386.5,196z"></path><path class="st3" d="M397.5,196L397.5,196c1.9,0,3.5,1.6,3.5,3.5v27c0,1.9-1.6,3.5-3.5,3.5l0,0c-1.9,0-3.5-1.6-3.5-3.5v-27 C394,197.6,395.6,196,397.5,196z"></path><path class="st1" d="M408.5,196L408.5,196c1.9,0,3.5,1.6,3.5,3.5v27c0,1.9-1.6,3.5-3.5,3.5l0,0c-1.9,0-3.5-1.6-3.5-3.5v-27 C405,197.6,406.6,196,408.5,196z"></path><path class="st1" d="M419.5,196L419.5,196c1.9,0,3.5,1.6,3.5,3.5v27c0,1.9-1.6,3.5-3.5,3.5l0,0c-1.9,0-3.5-1.6-3.5-3.5v-27 C416,197.6,417.6,196,419.5,196z"></path><path class="st1" d="M430.5,196L430.5,196c1.9,0,3.5,1.6,3.5,3.5v27c0,1.9-1.6,3.5-3.5,3.5l0,0c-1.9,0-3.5-1.6-3.5-3.5v-27 C427,197.6,428.6,196,430.5,196z"></path><path class="st2" d="M20.6,177.2v-0.9h6.5v0.9h-2.7v7.8h-1.1v-7.8H20.6z M27.9,185v-6.5h1v1H29c0.1-0.3,0.3-0.6,0.6-0.8 s0.7-0.3,1.1-0.3c0.1,0,0.2,0,0.3,0c0.1,0,0.2,0,0.3,0v1c0,0-0.1,0-0.2,0c-0.1,0-0.2,0-0.4,0c-0.3,0-0.6,0.1-0.9,0.2 c-0.2,0.1-0.4,0.3-0.6,0.5c-0.1,0.2-0.2,0.5-0.2,0.8v4.1H27.9z M34.3,185.2c-0.4,0-0.8-0.1-1.1-0.2c-0.3-0.2-0.6-0.4-0.8-0.7 c-0.2-0.3-0.3-0.7-0.3-1.1c0-0.4,0.1-0.7,0.2-0.9c0.1-0.2,0.3-0.4,0.6-0.6c0.2-0.1,0.5-0.2,0.8-0.3c0.3-0.1,0.6-0.1,0.9-0.2 c0.4-0.1,0.7-0.1,1-0.1c0.2,0,0.4-0.1,0.5-0.1c0.1-0.1,0.2-0.2,0.2-0.3v0c0-0.4-0.1-0.7-0.3-1c-0.2-0.2-0.6-0.3-1-0.3 c-0.5,0-0.9,0.1-1.1,0.3c-0.3,0.2-0.5,0.4-0.6,0.7l-1-0.3c0.2-0.4,0.4-0.7,0.7-0.9c0.3-0.2,0.6-0.4,0.9-0.5c0.3-0.1,0.7-0.1,1-0.1 c0.2,0,0.5,0,0.7,0.1c0.3,0,0.5,0.1,0.8,0.3c0.3,0.2,0.5,0.4,0.6,0.7c0.2,0.3,0.3,0.7,0.3,1.2v4.3h-1v-0.9h-0.1 c-0.1,0.1-0.2,0.3-0.3,0.5c-0.2,0.2-0.4,0.3-0.6,0.4C35,185.1,34.7,185.2,34.3,185.2z M34.5,184.2c0.4,0,0.7-0.1,1-0.2 c0.3-0.2,0.5-0.4,0.6-0.6c0.1-0.2,0.2-0.5,0.2-0.8v-0.9c0,0.1-0.1,0.1-0.3,0.1c-0.1,0-0.3,0.1-0.5,0.1c-0.2,0-0.4,0.1-0.5,0.1 c-0.2,0-0.3,0-0.4,0.1c-0.3,0-0.5,0.1-0.7,0.2c-0.2,0.1-0.4,0.2-0.5,0.3c-0.1,0.1-0.2,0.3-0.2,0.6c0,0.4,0.1,0.6,0.4,0.8 C33.8,184.2,34.1,184.2,34.5,184.2z M41.6,185.1c-0.5,0-1-0.1-1.4-0.4c-0.4-0.3-0.7-0.7-1-1.2c-0.2-0.5-0.4-1.1-0.4-1.8 c0-0.7,0.1-1.3,0.4-1.8c0.2-0.5,0.6-0.9,1-1.2c0.4-0.3,0.9-0.4,1.5-0.4c0.4,0,0.8,0.1,1,0.2c0.2,0.1,0.4,0.3,0.6,0.5 c0.1,0.2,0.2,0.3,0.3,0.4h0.1v-3.2h1v8.7h-1v-1h-0.1c-0.1,0.1-0.2,0.3-0.3,0.5c-0.1,0.2-0.3,0.3-0.6,0.5 C42.4,185.1,42.1,185.1,41.6,185.1z M41.8,184.2c0.4,0,0.7-0.1,1-0.3c0.3-0.2,0.5-0.5,0.6-0.9c0.1-0.4,0.2-0.8,0.2-1.3 c0-0.5-0.1-0.9-0.2-1.3c-0.1-0.4-0.4-0.7-0.6-0.9c-0.3-0.2-0.6-0.3-1-0.3c-0.4,0-0.8,0.1-1.1,0.3c-0.3,0.2-0.5,0.5-0.6,0.9 c-0.1,0.4-0.2,0.8-0.2,1.2c0,0.5,0.1,0.9,0.2,1.3c0.1,0.4,0.4,0.7,0.6,0.9C41,184.1,41.4,184.2,41.8,184.2z M46.6,185v-6.5h1v6.5 H46.6z M47.1,177.4c-0.2,0-0.4-0.1-0.5-0.2c-0.1-0.1-0.2-0.3-0.2-0.5c0-0.2,0.1-0.3,0.2-0.5c0.1-0.1,0.3-0.2,0.5-0.2 c0.2,0,0.4,0.1,0.5,0.2c0.1,0.1,0.2,0.3,0.2,0.5c0,0.2-0.1,0.3-0.2,0.5C47.5,177.3,47.3,177.4,47.1,177.4z M50.5,181.1v3.9h-1v-6.5 h1v1h0.1c0.2-0.3,0.4-0.6,0.7-0.8c0.3-0.2,0.7-0.3,1.2-0.3c0.4,0,0.8,0.1,1.2,0.3c0.3,0.2,0.6,0.5,0.8,0.8c0.2,0.4,0.3,0.8,0.3,1.4 v4.2h-1v-4.1c0-0.5-0.1-0.9-0.4-1.2c-0.3-0.3-0.6-0.4-1.1-0.4c-0.3,0-0.6,0.1-0.9,0.2c-0.2,0.1-0.4,0.3-0.6,0.6 C50.5,180.4,50.5,180.7,50.5,181.1z M59.1,187.6c-0.5,0-0.9-0.1-1.3-0.2c-0.3-0.1-0.6-0.3-0.9-0.5c-0.2-0.2-0.4-0.4-0.5-0.6l0.8-0.6 c0.1,0.1,0.2,0.3,0.3,0.4c0.1,0.2,0.3,0.3,0.6,0.4c0.2,0.1,0.6,0.2,1,0.2c0.5,0,1-0.1,1.3-0.4c0.3-0.3,0.5-0.7,0.5-1.2v-1.3h-0.1 c-0.1,0.1-0.2,0.3-0.3,0.4c-0.1,0.2-0.3,0.3-0.6,0.5c-0.2,0.1-0.6,0.2-1,0.2c-0.5,0-1-0.1-1.4-0.4c-0.4-0.2-0.7-0.6-1-1.1 c-0.2-0.5-0.4-1.1-0.4-1.7c0-0.7,0.1-1.3,0.4-1.8c0.2-0.5,0.6-0.9,1-1.2c0.4-0.3,0.9-0.4,1.5-0.4c0.4,0,0.8,0.1,1,0.2 c0.3,0.1,0.4,0.3,0.6,0.5c0.1,0.2,0.2,0.3,0.3,0.4H61v-1h1v6.7c0,0.6-0.1,1-0.4,1.4c-0.3,0.4-0.6,0.6-1,0.8 C60.1,187.5,59.7,187.6,59.1,187.6z M59.1,184c0.4,0,0.7-0.1,1-0.3c0.3-0.2,0.5-0.4,0.6-0.8c0.1-0.3,0.2-0.8,0.2-1.2 c0-0.5-0.1-0.9-0.2-1.2c-0.1-0.4-0.4-0.6-0.6-0.8c-0.3-0.2-0.6-0.3-1-0.3c-0.4,0-0.8,0.1-1.1,0.3c-0.3,0.2-0.5,0.5-0.6,0.9 c-0.1,0.4-0.2,0.8-0.2,1.2c0,0.5,0.1,0.9,0.2,1.2c0.1,0.3,0.4,0.6,0.6,0.8C58.3,183.9,58.7,184,59.1,184z M67.7,186.1v-10.9h2.5v0.8 h-1.6v9.2h1.6v0.8H67.7z M78.6,176.3v8.7h-1l-4.8-6.9h-0.1v6.9h-1.1v-8.7h1l4.8,6.9h0.1v-6.9H78.6z M83.2,185.1 c-0.6,0-1.1-0.1-1.6-0.4c-0.4-0.3-0.8-0.7-1-1.2c-0.2-0.5-0.4-1.1-0.4-1.8c0-0.7,0.1-1.3,0.4-1.8c0.2-0.5,0.6-0.9,1-1.2 c0.4-0.3,1-0.4,1.6-0.4c0.6,0,1.1,0.1,1.6,0.4c0.4,0.3,0.8,0.7,1,1.2c0.2,0.5,0.4,1.1,0.4,1.8c0,0.7-0.1,1.3-0.4,1.8 c-0.2,0.5-0.6,0.9-1,1.2C84.3,185,83.8,185.1,83.2,185.1z M83.2,184.2c0.4,0,0.8-0.1,1.1-0.3c0.3-0.2,0.5-0.5,0.6-0.9 c0.1-0.4,0.2-0.8,0.2-1.2c0-0.4-0.1-0.8-0.2-1.2c-0.1-0.4-0.4-0.7-0.6-0.9c-0.3-0.2-0.7-0.3-1.1-0.3c-0.4,0-0.8,0.1-1.1,0.3 c-0.3,0.2-0.5,0.5-0.6,0.9c-0.1,0.4-0.2,0.8-0.2,1.2c0,0.4,0.1,0.8,0.2,1.2s0.4,0.7,0.6,0.9S82.8,184.2,83.2,184.2z M90.2,185.1 c-0.5,0-1-0.1-1.4-0.4c-0.4-0.3-0.7-0.7-1-1.2c-0.2-0.5-0.4-1.1-0.4-1.8c0-0.7,0.1-1.3,0.4-1.8c0.2-0.5,0.6-0.9,1-1.2 c0.4-0.3,0.9-0.4,1.5-0.4c0.4,0,0.8,0.1,1,0.2c0.2,0.1,0.4,0.3,0.6,0.5c0.1,0.2,0.2,0.3,0.3,0.4h0.1v-3.2h1v8.7h-1v-1h-0.1 c-0.1,0.1-0.2,0.3-0.3,0.5c-0.1,0.2-0.3,0.3-0.6,0.5C90.9,185.1,90.6,185.1,90.2,185.1z M90.3,184.2c0.4,0,0.7-0.1,1-0.3 c0.3-0.2,0.5-0.5,0.6-0.9c0.1-0.4,0.2-0.8,0.2-1.3c0-0.5-0.1-0.9-0.2-1.3c-0.1-0.4-0.4-0.7-0.6-0.9c-0.3-0.2-0.6-0.3-1-0.3 c-0.4,0-0.8,0.1-1.1,0.3c-0.3,0.2-0.5,0.5-0.6,0.9c-0.1,0.4-0.2,0.8-0.2,1.2c0,0.5,0.1,0.9,0.2,1.3c0.1,0.4,0.4,0.7,0.6,0.9 C89.6,184.1,89.9,184.2,90.3,184.2z M97.9,185.1c-0.6,0-1.2-0.1-1.6-0.4c-0.5-0.3-0.8-0.7-1.1-1.2c-0.2-0.5-0.4-1.1-0.4-1.8 c0-0.7,0.1-1.3,0.4-1.8c0.2-0.5,0.6-0.9,1-1.2c0.4-0.3,1-0.4,1.6-0.4c0.3,0,0.7,0.1,1,0.2c0.3,0.1,0.6,0.3,0.9,0.6 c0.3,0.3,0.5,0.6,0.7,1c0.2,0.4,0.2,0.9,0.2,1.5v0.4h-5v-0.9h4c0-0.4-0.1-0.7-0.2-1c-0.1-0.3-0.4-0.5-0.6-0.7 c-0.3-0.2-0.6-0.3-0.9-0.3c-0.4,0-0.7,0.1-1,0.3c-0.3,0.2-0.5,0.5-0.7,0.8c-0.2,0.3-0.2,0.7-0.2,1v0.6c0,0.5,0.1,0.9,0.3,1.3 c0.2,0.3,0.4,0.6,0.7,0.8c0.3,0.2,0.7,0.3,1.1,0.3c0.3,0,0.5,0,0.7-0.1c0.2-0.1,0.4-0.2,0.6-0.3c0.2-0.2,0.3-0.3,0.4-0.6l1,0.3 c-0.1,0.3-0.3,0.6-0.5,0.9c-0.2,0.2-0.5,0.4-0.9,0.6C98.8,185.1,98.4,185.1,97.9,185.1z M108.6,176.3v8.7h-1.1v-7.6h-0.1l-2.1,1.4 v-1.1l2.2-1.4H108.6z M113.1,175.2v10.9h-2.5v-0.8h1.6V176h-1.6v-0.8H113.1z M120.3,173.5v14.4h-0.9v-14.4H120.3z"></path><path class="st1" d="M128.9,176.2c0.4,0,0.7,0.1,1.1,0.2c0.4,0.1,0.7,0.4,1,0.7c0.3,0.3,0.5,0.7,0.7,1.3s0.3,1.2,0.3,2 c0,0.8-0.1,1.5-0.2,2.1c-0.1,0.6-0.4,1.1-0.6,1.5c-0.3,0.4-0.6,0.7-1,0.9c-0.4,0.2-0.8,0.3-1.3,0.3c-0.5,0-0.9-0.1-1.3-0.3 c-0.4-0.2-0.7-0.5-0.9-0.8c-0.2-0.4-0.4-0.8-0.5-1.2h1c0.1,0.4,0.3,0.7,0.6,1c0.3,0.3,0.7,0.4,1.1,0.4c0.7,0,1.2-0.3,1.6-0.9 c0.4-0.6,0.6-1.4,0.6-2.5h-0.1c-0.2,0.2-0.3,0.4-0.6,0.6c-0.2,0.2-0.5,0.3-0.7,0.4c-0.3,0.1-0.6,0.1-0.9,0.1c-0.5,0-1-0.1-1.4-0.4 c-0.4-0.2-0.7-0.6-1-1c-0.2-0.4-0.4-0.9-0.4-1.5c0-0.5,0.1-1,0.4-1.5c0.2-0.4,0.6-0.8,1-1.1C127.8,176.3,128.3,176.1,128.9,176.2z  M128.9,177.1c-0.4,0-0.7,0.1-1,0.3c-0.3,0.2-0.5,0.4-0.7,0.7c-0.2,0.3-0.2,0.6-0.2,1c0,0.4,0.1,0.7,0.2,1c0.2,0.3,0.4,0.5,0.7,0.7 c0.3,0.2,0.6,0.3,1,0.3c0.3,0,0.5-0.1,0.8-0.2c0.2-0.1,0.4-0.3,0.6-0.4c0.2-0.2,0.3-0.4,0.4-0.6c0.1-0.2,0.1-0.5,0.1-0.7 c0-0.3-0.1-0.7-0.2-1c-0.2-0.3-0.4-0.5-0.7-0.7C129.6,177.2,129.3,177.1,128.9,177.1z M136.4,176.2c0.4,0,0.7,0.1,1.1,0.2 c0.4,0.1,0.7,0.4,1,0.7c0.3,0.3,0.5,0.7,0.7,1.3s0.3,1.2,0.3,2c0,0.8-0.1,1.5-0.2,2.1c-0.1,0.6-0.4,1.1-0.6,1.5 c-0.3,0.4-0.6,0.7-1,0.9c-0.4,0.2-0.8,0.3-1.3,0.3c-0.5,0-0.9-0.1-1.3-0.3c-0.4-0.2-0.7-0.5-0.9-0.8c-0.2-0.4-0.4-0.8-0.5-1.2h1 c0.1,0.4,0.3,0.7,0.6,1c0.3,0.3,0.7,0.4,1.1,0.4c0.7,0,1.2-0.3,1.6-0.9c0.4-0.6,0.6-1.4,0.6-2.5h-0.1c-0.2,0.2-0.3,0.4-0.6,0.6 c-0.2,0.2-0.5,0.3-0.7,0.4c-0.3,0.1-0.6,0.1-0.9,0.1c-0.5,0-1-0.1-1.4-0.4c-0.4-0.2-0.7-0.6-1-1c-0.2-0.4-0.4-0.9-0.4-1.5 c0-0.5,0.1-1,0.4-1.5c0.2-0.4,0.6-0.8,1-1.1C135.3,176.3,135.8,176.1,136.4,176.2z M136.4,177.1c-0.4,0-0.7,0.1-1,0.3 c-0.3,0.2-0.5,0.4-0.7,0.7c-0.2,0.3-0.2,0.6-0.2,1c0,0.4,0.1,0.7,0.2,1c0.2,0.3,0.4,0.5,0.7,0.7c0.3,0.2,0.6,0.3,1,0.3 c0.3,0,0.5-0.1,0.8-0.2c0.2-0.1,0.4-0.3,0.6-0.4c0.2-0.2,0.3-0.4,0.4-0.6c0.1-0.2,0.1-0.5,0.1-0.7c0-0.3-0.1-0.7-0.2-1 c-0.2-0.3-0.4-0.5-0.7-0.7C137.1,177.2,136.7,177.1,136.4,177.1z M141.5,185.1c-0.2,0-0.4-0.1-0.5-0.2c-0.2-0.1-0.2-0.3-0.2-0.5 c0-0.2,0.1-0.4,0.2-0.5s0.3-0.2,0.5-0.2c0.2,0,0.4,0.1,0.5,0.2c0.2,0.2,0.2,0.3,0.2,0.5c0,0.1,0,0.3-0.1,0.4 c-0.1,0.1-0.2,0.2-0.3,0.3C141.8,185,141.7,185.1,141.5,185.1z M144.1,185v-0.8l2.9-3.2c0.3-0.4,0.6-0.7,0.8-1 c0.2-0.3,0.4-0.5,0.5-0.8c0.1-0.2,0.2-0.5,0.2-0.8c0-0.3-0.1-0.6-0.2-0.8c-0.1-0.2-0.3-0.4-0.6-0.5c-0.3-0.1-0.5-0.2-0.9-0.2 c-0.3,0-0.6,0.1-0.9,0.2c-0.2,0.1-0.4,0.3-0.6,0.6c-0.1,0.2-0.2,0.5-0.2,0.9h-1c0-0.5,0.1-1,0.4-1.3c0.2-0.4,0.6-0.7,1-0.9 c0.4-0.2,0.9-0.3,1.4-0.3c0.5,0,1,0.1,1.4,0.3c0.4,0.2,0.7,0.5,0.9,0.9c0.2,0.4,0.3,0.8,0.3,1.2c0,0.3-0.1,0.6-0.2,0.9 c-0.1,0.3-0.3,0.6-0.6,1c-0.3,0.4-0.7,0.8-1.2,1.4l-2,2.1v0.1h4.1v0.9H144.1z M154.2,185.1c-0.6,0-1.2-0.2-1.6-0.5 c-0.5-0.4-0.8-0.9-1-1.5c-0.2-0.7-0.4-1.5-0.4-2.4c0-0.9,0.1-1.7,0.4-2.4c0.2-0.7,0.6-1.2,1-1.5c0.5-0.4,1-0.5,1.6-0.5 s1.2,0.2,1.6,0.5c0.5,0.4,0.8,0.9,1,1.5c0.2,0.7,0.4,1.5,0.4,2.4c0,0.9-0.1,1.8-0.4,2.4c-0.2,0.7-0.6,1.2-1,1.5 C155.4,184.9,154.8,185.1,154.2,185.1z M154.2,184.2c0.6,0,1.1-0.3,1.5-0.9c0.4-0.6,0.5-1.5,0.5-2.6c0-0.8-0.1-1.4-0.2-1.9 c-0.2-0.5-0.4-0.9-0.7-1.2c-0.3-0.3-0.7-0.4-1.1-0.4c-0.6,0-1.1,0.3-1.5,0.9c-0.4,0.6-0.5,1.5-0.5,2.6c0,0.8,0.1,1.4,0.2,1.9 c0.2,0.5,0.4,0.9,0.7,1.2C153.4,184,153.8,184.2,154.2,184.2z M161.8,185.1c-0.6,0-1.1-0.1-1.5-0.3c-0.4-0.2-0.8-0.5-1-0.8 c-0.3-0.3-0.4-0.7-0.4-1.2h1.1c0,0.3,0.1,0.5,0.3,0.7c0.2,0.2,0.4,0.4,0.7,0.5c0.3,0.1,0.6,0.2,0.9,0.2c0.4,0,0.7-0.1,1-0.2 c0.3-0.1,0.5-0.3,0.7-0.5c0.2-0.2,0.2-0.5,0.2-0.8c0-0.3-0.1-0.6-0.2-0.8c-0.2-0.2-0.4-0.4-0.7-0.6c-0.3-0.1-0.7-0.2-1.1-0.2H161 v-0.9h0.7c0.3,0,0.7-0.1,0.9-0.2c0.3-0.1,0.5-0.3,0.6-0.5c0.1-0.2,0.2-0.5,0.2-0.8c0-0.3-0.1-0.6-0.2-0.8c-0.1-0.2-0.3-0.4-0.6-0.5 c-0.2-0.1-0.5-0.2-0.8-0.2c-0.3,0-0.6,0.1-0.9,0.2c-0.3,0.1-0.5,0.3-0.6,0.5c-0.2,0.2-0.3,0.5-0.3,0.7h-1c0-0.5,0.2-0.9,0.4-1.2 c0.3-0.3,0.6-0.6,1-0.8c0.4-0.2,0.9-0.3,1.4-0.3c0.5,0,1,0.1,1.4,0.3c0.4,0.2,0.7,0.5,0.9,0.9c0.2,0.4,0.3,0.7,0.3,1.2 c0,0.5-0.1,0.9-0.4,1.3c-0.3,0.3-0.6,0.6-1,0.7v0.1c0.6,0.1,1,0.3,1.3,0.7c0.3,0.4,0.5,0.8,0.5,1.4c0,0.5-0.1,0.9-0.4,1.3 c-0.3,0.4-0.6,0.7-1,0.9C162.9,185,162.4,185.1,161.8,185.1z M170.9,183.4v-0.5c0-0.3,0.1-0.6,0.2-0.9c0.1-0.3,0.3-0.5,0.6-0.6 c0.3-0.2,0.6-0.2,0.9-0.2c0.4,0,0.7,0.1,0.9,0.2c0.2,0.2,0.4,0.4,0.6,0.6c0.1,0.3,0.2,0.6,0.2,0.9v0.5c0,0.3-0.1,0.6-0.2,0.9 c-0.1,0.3-0.3,0.5-0.6,0.6c-0.2,0.2-0.6,0.2-0.9,0.2c-0.4,0-0.7-0.1-0.9-0.2c-0.3-0.2-0.4-0.4-0.6-0.6 C171,184,170.9,183.7,170.9,183.4z M171.8,182.9v0.5c0,0.3,0.1,0.5,0.2,0.7c0.1,0.2,0.3,0.3,0.6,0.3c0.3,0,0.5-0.1,0.6-0.3 c0.1-0.2,0.2-0.4,0.2-0.7v-0.5c0-0.3-0.1-0.5-0.2-0.7c-0.1-0.2-0.3-0.3-0.6-0.3c-0.3,0-0.5,0.1-0.6,0.3 C171.9,182.4,171.8,182.6,171.8,182.9z M166.6,178.4v-0.5c0-0.3,0.1-0.6,0.2-0.9c0.1-0.3,0.3-0.5,0.6-0.6c0.3-0.2,0.6-0.2,0.9-0.2 c0.4,0,0.7,0.1,0.9,0.2c0.2,0.2,0.4,0.4,0.6,0.6c0.1,0.3,0.2,0.6,0.2,0.9v0.5c0,0.3-0.1,0.6-0.2,0.9c-0.1,0.3-0.3,0.5-0.6,0.6 c-0.2,0.2-0.6,0.2-0.9,0.2c-0.4,0-0.7-0.1-0.9-0.2c-0.3-0.2-0.4-0.4-0.6-0.6C166.7,179,166.6,178.7,166.6,178.4z M167.5,177.9v0.5 c0,0.3,0.1,0.5,0.2,0.7c0.1,0.2,0.3,0.3,0.6,0.3c0.3,0,0.5-0.1,0.6-0.3c0.1-0.2,0.2-0.4,0.2-0.7v-0.5c0-0.3-0.1-0.5-0.2-0.7 c-0.1-0.2-0.3-0.3-0.6-0.3c-0.3,0-0.5,0.1-0.6,0.3C167.5,177.4,167.5,177.6,167.5,177.9z M166.9,185l6-8.7h1l-6,8.7H166.9z"></path></svg>