<svg xmlns="http://www.w3.org/2000/svg" xmlns:xlink="http://www.w3.org/1999/xlink" id="Layer_1" data-name="Layer 1" viewBox="0 0 457 294"><defs><style>.cls-1{fill:none;}.cls-2{stroke:#323335;}.cls-3{fill:#4c7bff;}.cls-4{clip-path:url(#clip-path);}.cls-5{fill:#fff;}.cls-6{fill:#a7afbb;}.cls-7{clip-path:url(#clip-path-2);}.cls-8{fill:#89898b;}</style><clipPath id="clip-path"><rect class="cls-1" x="148" y="32" width="24.16" height="17"></rect></clipPath><clipPath id="clip-path-2"><rect class="cls-1" x="28" y="187" width="24.16" height="17"></rect></clipPath></defs><rect class="cls-2" x="120.54" y="0.52" width="335.91" height="137.8" rx="18.45"></rect><rect class="cls-2" x="0.47" y="155.29" width="326.3" height="138.22" rx="18.21"></rect><circle class="cls-3" cx="160.5" cy="40.5" r="20.5"></circle><g class="cls-4"><path class="cls-5" d="M169.14,34.15a9.94,9.94,0,0,0-5.7-2.12l-.31.31a13.35,13.35,0,0,1,5.12,2.59A17.91,17.91,0,0,0,162,33a17.18,17.18,0,0,0-4.12,0h-.33a14.67,14.67,0,0,0-4.67,1.24c-.76.33-1.2.55-1.23.57A11.71,11.71,0,0,1,157,32.23l-.22-.23A9.92,9.92,0,0,0,151,34.14,26.59,26.59,0,0,0,148,46s1.66,2.93,6.23,3c0,0,.66-.9,1.34-1.69A6.62,6.62,0,0,1,152,45a4.53,4.53,0,0,1,.55.34h.16a.08.08,0,0,1,0,0h0l.05,0,.05,0c.55.23,1.1.45,1.55.67a13.2,13.2,0,0,0,3,.9,16.77,16.77,0,0,0,5.35,0,15,15,0,0,0,3-.9,24.28,24.28,0,0,0,2.33-1.24,6.62,6.62,0,0,1-3.67,2.37c.55.78,1.32,1.68,1.32,1.68A8.62,8.62,0,0,0,172.16,46,26.56,26.56,0,0,0,169.14,34.15Zm-12.91,9.79a2.25,2.25,0,0,1,0-4.5h0a2.26,2.26,0,0,1,0,4.51Zm7.57,0a2.25,2.25,0,0,1,0-4.5h0a2.26,2.26,0,0,1,0,4.51Z"></path></g><path class="cls-5" d="M205.1,35.9A3.93,3.93,0,0,0,208,37.16,3.88,3.88,0,0,0,211,35.9a4.35,4.35,0,0,0,0-6A3.88,3.88,0,0,0,208,28.64a3.93,3.93,0,0,0-2.94,1.26,4.35,4.35,0,0,0,0,6Zm8.12,2.18A7,7,0,0,1,208,40.24a7.31,7.31,0,0,1-7.34-7.34,7.34,7.34,0,1,1,12.52,5.18Zm3,1.92V30h3v.72a3.61,3.61,0,0,1,2.6-.94,3.7,3.7,0,0,1,3,1.24,4.77,4.77,0,0,1,1.08,3.28V40h-3V34.82a2.94,2.94,0,0,0-.42-1.68,1.45,1.45,0,0,0-1.28-.62,2.34,2.34,0,0,0-1.94.92V40Zm10.89-4.16V33H233v2.88ZM239,40.22a5.21,5.21,0,0,1-3.77-1.48,5.31,5.31,0,0,1,0-7.48A5.21,5.21,0,0,1,239,29.78a5.32,5.32,0,0,1,2.84.8,5,5,0,0,1,1.94,2.12l-2.64,1.4A2.22,2.22,0,0,0,239,32.6a2.18,2.18,0,0,0-1.61.68,2.57,2.57,0,0,0,0,3.44,2.18,2.18,0,0,0,1.61.68,2.22,2.22,0,0,0,2.14-1.5l2.64,1.4a5,5,0,0,1-1.94,2.12A5.32,5.32,0,0,1,239,40.22Zm8.42-.22h-3V25.4h3v5.32a3.63,3.63,0,0,1,2.6-.94A3.7,3.7,0,0,1,253,31a4.77,4.77,0,0,1,1.08,3.28V40h-3V34.82a2.94,2.94,0,0,0-.42-1.68,1.45,1.45,0,0,0-1.28-.62,2.34,2.34,0,0,0-1.94.92Zm12.33.22a4.58,4.58,0,0,1-3.54-1.52,5.36,5.36,0,0,1-1.38-3.7,5.27,5.27,0,0,1,1.38-3.68,4.53,4.53,0,0,1,3.54-1.54,3.41,3.41,0,0,1,2.36.84V30h3V40h-3v-.64A3.33,3.33,0,0,1,259.76,40.22Zm.46-2.74a2.26,2.26,0,0,0,1.9-1V33.46a2.3,2.3,0,0,0-1.9-.94,2.1,2.1,0,0,0-1.64.72,2.81,2.81,0,0,0,0,3.52A2.1,2.1,0,0,0,260.22,37.48ZM266.63,40V30h3v1.12a1.87,1.87,0,0,1,.86-.88,2.63,2.63,0,0,1,1.36-.36,3.59,3.59,0,0,1,1.22.2l-.46,2.82a1.76,1.76,0,0,0-.84-.12,2.44,2.44,0,0,0-2.14.9V40Zm12.39.12a4.41,4.41,0,0,1-3-1,3.52,3.52,0,0,1-1.1-2.82V32.62h-2.4V30h2.4V27h3v3h3v2.62h-3v3.1a1.88,1.88,0,0,0,.36,1.28,1.52,1.52,0,0,0,1.14.38,2.9,2.9,0,0,0,1.36-.32l.9,2.46a4.7,4.7,0,0,1-1.18.42A7,7,0,0,1,279,40.12Zm8.75-.12V28.84h-3.62v-3h10.49v3H291V40Zm6.07,0V30h3v1.12a1.87,1.87,0,0,1,.86-.88,2.63,2.63,0,0,1,1.36-.36,3.59,3.59,0,0,1,1.22.2l-.46,2.82a1.76,1.76,0,0,0-.84-.12,2.44,2.44,0,0,0-2.14.9V40Zm10.88.22a4.58,4.58,0,0,1-3.54-1.52A5.36,5.36,0,0,1,299.8,35a5.27,5.27,0,0,1,1.38-3.68,4.53,4.53,0,0,1,3.54-1.54,3.43,3.43,0,0,1,2.36.84V30h3V40h-3v-.64A3.34,3.34,0,0,1,304.72,40.22Zm.46-2.74a2.27,2.27,0,0,0,1.9-1V33.46a2.32,2.32,0,0,0-1.9-.94,2.08,2.08,0,0,0-1.64.72,2.81,2.81,0,0,0,0,3.52A2.08,2.08,0,0,0,305.18,37.48Zm10.72,2.74a4.58,4.58,0,0,1-3.54-1.52A5.36,5.36,0,0,1,311,35a5.27,5.27,0,0,1,1.38-3.68,4.53,4.53,0,0,1,3.54-1.54,3.39,3.39,0,0,1,2.36.84V25.4h3V40h-3v-.64A3.33,3.33,0,0,1,315.9,40.22Zm.46-2.74a2.26,2.26,0,0,0,1.9-1V33.46a2.29,2.29,0,0,0-1.9-.94,2.11,2.11,0,0,0-1.64.72,2.81,2.81,0,0,0,0,3.52A2.11,2.11,0,0,0,316.36,37.48ZM324.27,29A1.86,1.86,0,0,1,323,28.5a1.84,1.84,0,0,1-.56-1.34,1.78,1.78,0,0,1,.56-1.32,1.84,1.84,0,0,1,1.32-.56,1.8,1.8,0,0,1,1.34.56,1.78,1.78,0,0,1,.56,1.32,1.88,1.88,0,0,1-1.9,1.88Zm-1.5,11V30h3V40Zm4.51,0V30h3v.72a3.63,3.63,0,0,1,2.6-.94,3.7,3.7,0,0,1,3,1.24A4.77,4.77,0,0,1,337,34.3V40h-3V34.82a2.94,2.94,0,0,0-.42-1.68,1.45,1.45,0,0,0-1.28-.62,2.35,2.35,0,0,0-1.94.92V40Zm15.51,4.08a6.94,6.94,0,0,1-4.38-1.28L340,40.54a4.44,4.44,0,0,0,2.76.9,2.77,2.77,0,0,0,1.64-.5,1.65,1.65,0,0,0,.7-1.44v-.58a3.38,3.38,0,0,1-2.4.86,4.79,4.79,0,0,1-3.56-1.44,5.17,5.17,0,0,1,0-7.12,4.79,4.79,0,0,1,3.56-1.44,3.48,3.48,0,0,1,2.4.84V30h3v9.46a5.22,5.22,0,0,1-.32,1.88,3.49,3.49,0,0,1-.84,1.32,4,4,0,0,1-1.22.82,5.36,5.36,0,0,1-1.44.46A8,8,0,0,1,342.79,44.08Zm.4-7a2.26,2.26,0,0,0,1.9-1V33.46a2.3,2.3,0,0,0-1.9-.94,2.33,2.33,0,0,0-1.7.64,2.11,2.11,0,0,0-.66,1.62,2.18,2.18,0,0,0,.66,1.64A2.4,2.4,0,0,0,343.19,37Z"></path><path class="cls-6" d="M201.36,73.64h2.26l3.94,9.61h.14l3.94-9.61h2.26V86h-1.77v-9H212L208.37,86h-1.48l-3.64-8.93h-.12v9h-1.77Zm17.31,12.57a3.78,3.78,0,0,1-1.6-.33,2.62,2.62,0,0,1-1.12-1,2.7,2.7,0,0,1-.41-1.54,2.51,2.51,0,0,1,.3-1.29,2.14,2.14,0,0,1,.81-.8,4.18,4.18,0,0,1,1.15-.45,10.86,10.86,0,0,1,1.29-.23l1.35-.16a1.88,1.88,0,0,0,.76-.21.52.52,0,0,0,.23-.47v0A1.63,1.63,0,0,0,221,78.5a1.83,1.83,0,0,0-1.32-.43,2.3,2.3,0,0,0-1.44.4,2.17,2.17,0,0,0-.71.89l-1.7-.39a3.18,3.18,0,0,1,.88-1.36,3.48,3.48,0,0,1,1.35-.76,5.25,5.25,0,0,1,1.6-.24,5.44,5.44,0,0,1,1.17.13,3.31,3.31,0,0,1,1.17.47,2.69,2.69,0,0,1,.91,1,3.48,3.48,0,0,1,.34,1.65V86h-1.76V84.73h-.07a2.37,2.37,0,0,1-.53.69A2.71,2.71,0,0,1,220,86,3.5,3.5,0,0,1,218.67,86.21Zm.39-1.45a2.55,2.55,0,0,0,1.28-.3,2.11,2.11,0,0,0,.82-.77,2,2,0,0,0,.28-1v-1.2a1,1,0,0,1-.37.18c-.19,0-.39.1-.63.14l-.68.1-.55.08a4,4,0,0,0-1,.22,1.54,1.54,0,0,0-.69.45,1.12,1.12,0,0,0-.26.77,1.17,1.17,0,0,0,.5,1A2.23,2.23,0,0,0,219.06,84.76Zm7.75-1.91v-2.2h.31l3.7-3.92H233l-4.22,4.46h-.28ZM225.15,86V73.64H227V86ZM231,86l-3.33-4.41,1.25-1.26L233.22,86Zm6.72.19a4.54,4.54,0,0,1-2.36-.59,3.88,3.88,0,0,1-1.52-1.66,6.13,6.13,0,0,1,0-5,4,4,0,0,1,1.49-1.69,4.13,4.13,0,0,1,2.26-.61,4.38,4.38,0,0,1,1.52.26,3.63,3.63,0,0,1,1.32.81,3.9,3.9,0,0,1,.93,1.44,6.18,6.18,0,0,1,.34,2.15v.64h-7.38V80.55h5.61a2.72,2.72,0,0,0-.29-1.26,2.23,2.23,0,0,0-2-1.19,2.35,2.35,0,0,0-1.33.37,2.62,2.62,0,0,0-.87,1,2.77,2.77,0,0,0-.3,1.28v1.06a3.45,3.45,0,0,0,.33,1.58,2.35,2.35,0,0,0,.92,1,2.82,2.82,0,0,0,1.38.34,2.77,2.77,0,0,0,.94-.15,2,2,0,0,0,.73-.45,1.84,1.84,0,0,0,.47-.73l1.71.31a3,3,0,0,1-.74,1.32,3.52,3.52,0,0,1-1.32.88A5.07,5.07,0,0,1,237.73,86.19Zm14.43-12.55H254V82.4a4.1,4.1,0,0,1-.48,2,3.11,3.11,0,0,1-1.3,1.29,4.31,4.31,0,0,1-2,.44,4.51,4.51,0,0,1-1.88-.38,3,3,0,0,1-1.31-1.11,3.12,3.12,0,0,1-.48-1.77h1.85a1.56,1.56,0,0,0,.9,1.47,2.12,2.12,0,0,0,1,.21,2,2,0,0,0,1-.25,1.7,1.7,0,0,0,.63-.74,3.06,3.06,0,0,0,.22-1.2Zm7.92,12.55a4.57,4.57,0,0,1-2.36-.59,4,4,0,0,1-1.52-1.66,6.23,6.23,0,0,1,0-5,4,4,0,0,1,3.76-2.3,4.38,4.38,0,0,1,1.52.26,3.63,3.63,0,0,1,1.32.81,3.76,3.76,0,0,1,.92,1.44,6,6,0,0,1,.34,2.15v.64h-7.37V80.55h5.6a2.6,2.6,0,0,0-.29-1.26,2.13,2.13,0,0,0-.81-.87A2.25,2.25,0,0,0,260,78.1a2.35,2.35,0,0,0-1.33.37,2.62,2.62,0,0,0-.87,1,2.77,2.77,0,0,0-.3,1.28v1.06a3.45,3.45,0,0,0,.33,1.58,2.29,2.29,0,0,0,.92,1,2.77,2.77,0,0,0,1.38.34,2.81,2.81,0,0,0,.94-.15,2,2,0,0,0,.73-.45,2,2,0,0,0,.47-.73l1.71.31a3.14,3.14,0,0,1-.74,1.32,3.52,3.52,0,0,1-1.32.88A5.08,5.08,0,0,1,260.08,86.19Zm9.81-9.46v1.45h-5.06V76.73Zm-3.7-2.22H268v8.77a1.53,1.53,0,0,0,.16.79.79.79,0,0,0,.4.35,1.63,1.63,0,0,0,.55.09,2.09,2.09,0,0,0,.38,0l.26,0,.32,1.49a2.74,2.74,0,0,1-.45.12,3.5,3.5,0,0,1-.72.07,3.28,3.28,0,0,1-1.33-.25,2.26,2.26,0,0,1-1-.82,2.38,2.38,0,0,1-.38-1.4Zm9.34-.87h2.27l3.93,9.61h.15l3.93-9.61h2.27V86H286.3v-9h-.11L282.54,86h-1.47l-3.65-8.93h-.11v9h-1.78Zm18.52,12.55a4.26,4.26,0,0,1-2.28-.6,4.05,4.05,0,0,1-1.5-1.67,6.15,6.15,0,0,1,0-5,4,4,0,0,1,1.5-1.68,4.7,4.7,0,0,1,4.56,0,4,4,0,0,1,1.51,1.68,6.26,6.26,0,0,1,0,5,4.07,4.07,0,0,1-1.51,1.67A4.26,4.26,0,0,1,294.05,86.19Zm0-1.52a2.21,2.21,0,0,0,1.4-.44,2.68,2.68,0,0,0,.82-1.19,4.78,4.78,0,0,0,.27-1.64,4.72,4.72,0,0,0-.27-1.63,2.66,2.66,0,0,0-.82-1.2,2.16,2.16,0,0,0-1.4-.45,2.21,2.21,0,0,0-1.42.45,2.66,2.66,0,0,0-.82,1.2,4.72,4.72,0,0,0-.27,1.63,4.78,4.78,0,0,0,.27,1.64,2.68,2.68,0,0,0,.82,1.19A2.27,2.27,0,0,0,294.06,84.67Zm9.3,1.51a3.57,3.57,0,0,1-2-.57A3.88,3.88,0,0,1,300,84a6.15,6.15,0,0,1-.5-2.58,6.07,6.07,0,0,1,.5-2.57,4,4,0,0,1,1.39-1.64,3.7,3.7,0,0,1,2-.56,2.79,2.79,0,0,1,1.39.29,2.53,2.53,0,0,1,.82.66,5.43,5.43,0,0,1,.46.67h.11V73.64H308V86h-1.76V84.56H306a5.65,5.65,0,0,1-.47.67,2.57,2.57,0,0,1-.83.67A3,3,0,0,1,303.36,86.18Zm.4-1.54a2.09,2.09,0,0,0,1.31-.41,2.45,2.45,0,0,0,.82-1.15,4.73,4.73,0,0,0,.29-1.72,4.64,4.64,0,0,0-.28-1.69,2.52,2.52,0,0,0-.81-1.13,2.41,2.41,0,0,0-2.69,0,2.56,2.56,0,0,0-.82,1.16,4.66,4.66,0,0,0-.27,1.64,4.93,4.93,0,0,0,.27,1.68,2.66,2.66,0,0,0,.83,1.17A2.08,2.08,0,0,0,303.76,84.64ZM314,86.19a4.54,4.54,0,0,1-2.36-.59,4,4,0,0,1-1.53-1.66,6.23,6.23,0,0,1,0-5,4,4,0,0,1,3.76-2.3,4.38,4.38,0,0,1,1.52.26,3.63,3.63,0,0,1,1.32.81,3.9,3.9,0,0,1,.93,1.44,6.18,6.18,0,0,1,.34,2.15v.64h-7.38V80.55h5.61a2.72,2.72,0,0,0-.29-1.26,2.23,2.23,0,0,0-2-1.19,2.35,2.35,0,0,0-1.33.37,2.62,2.62,0,0,0-.87,1,2.77,2.77,0,0,0-.3,1.28v1.06a3.45,3.45,0,0,0,.33,1.58,2.35,2.35,0,0,0,.92,1,2.82,2.82,0,0,0,1.38.34,2.77,2.77,0,0,0,.94-.15,2,2,0,0,0,.73-.45,1.84,1.84,0,0,0,.47-.73l1.71.31a3,3,0,0,1-.74,1.32,3.52,3.52,0,0,1-1.32.88A5.07,5.07,0,0,1,314,86.19ZM330.45,79l-1.63.29a2,2,0,0,0-.33-.6,1.54,1.54,0,0,0-.59-.46A2.14,2.14,0,0,0,327,78a2.22,2.22,0,0,0-1.28.34,1,1,0,0,0-.52.88.93.93,0,0,0,.35.75,2.93,2.93,0,0,0,1.11.46l1.47.34a4,4,0,0,1,1.91.91,2.13,2.13,0,0,1,.63,1.6,2.37,2.37,0,0,1-.49,1.48,3.14,3.14,0,0,1-1.33,1,5.05,5.05,0,0,1-2,.37,4.44,4.44,0,0,1-2.55-.67,2.77,2.77,0,0,1-1.2-1.9l1.74-.26a1.69,1.69,0,0,0,.67,1,2.31,2.31,0,0,0,1.32.34,2.41,2.41,0,0,0,1.42-.37,1.07,1.07,0,0,0,.53-.91,1,1,0,0,0-.32-.73,2.12,2.12,0,0,0-1-.44l-1.57-.35A3.84,3.84,0,0,1,324,81a2.28,2.28,0,0,1-.61-1.64,2.31,2.31,0,0,1,.46-1.43,3,3,0,0,1,1.26-1,4.54,4.54,0,0,1,1.86-.35,3.78,3.78,0,0,1,2.36.65A3,3,0,0,1,330.45,79Zm5.58,7.2a4.26,4.26,0,0,1-2.28-.6,4.07,4.07,0,0,1-1.51-1.67,6.15,6.15,0,0,1,0-5,4,4,0,0,1,1.51-1.68,4.68,4.68,0,0,1,4.55,0,4,4,0,0,1,1.51,1.68,6.15,6.15,0,0,1,0,5,4.07,4.07,0,0,1-1.51,1.67A4.23,4.23,0,0,1,336,86.19Zm0-1.52a2.19,2.19,0,0,0,1.4-.44,2.6,2.6,0,0,0,.82-1.19,4.78,4.78,0,0,0,.28-1.64,4.72,4.72,0,0,0-.28-1.63,2.58,2.58,0,0,0-.82-1.2,2.14,2.14,0,0,0-1.4-.45,2.17,2.17,0,0,0-1.41.45,2.68,2.68,0,0,0-.83,1.2,5,5,0,0,0-.26,1.63,5,5,0,0,0,.26,1.64,2.7,2.7,0,0,0,.83,1.19A2.22,2.22,0,0,0,336,84.67Zm11.84-11V86H346V73.64Zm10,12.55a4.34,4.34,0,0,1-2.32-.61,4,4,0,0,1-1.48-1.7,5.57,5.57,0,0,1-.52-2.47,5.51,5.51,0,0,1,.53-2.5,4,4,0,0,1,1.5-1.69,4.12,4.12,0,0,1,2.27-.61,4.33,4.33,0,0,1,1.88.39,3.35,3.35,0,0,1,1.34,1.09,3.23,3.23,0,0,1,.61,1.63H359.9a2.09,2.09,0,0,0-.66-1.12,1.93,1.93,0,0,0-1.38-.47,2.22,2.22,0,0,0-1.32.4,2.57,2.57,0,0,0-.88,1.12,4.25,4.25,0,0,0-.31,1.71,4.42,4.42,0,0,0,.31,1.75,2.5,2.5,0,0,0,.87,1.15,2.3,2.3,0,0,0,1.33.4,2.18,2.18,0,0,0,.93-.19,1.92,1.92,0,0,0,.71-.55,2,2,0,0,0,.4-.85h1.76a3.36,3.36,0,0,1-1.9,2.71A4.23,4.23,0,0,1,357.85,86.19Zm7.94,0a3.78,3.78,0,0,1-1.6-.33,2.62,2.62,0,0,1-1.12-1,2.71,2.71,0,0,1-.42-1.54,2.51,2.51,0,0,1,.31-1.29,2.14,2.14,0,0,1,.81-.8,4.18,4.18,0,0,1,1.15-.45,10.86,10.86,0,0,1,1.29-.23l1.35-.16a1.88,1.88,0,0,0,.76-.21.52.52,0,0,0,.23-.47v0a1.67,1.67,0,0,0-.44-1.23,1.83,1.83,0,0,0-1.32-.43,2.3,2.3,0,0,0-1.44.4,2.17,2.17,0,0,0-.71.89l-1.7-.39a3.18,3.18,0,0,1,.88-1.36,3.48,3.48,0,0,1,1.35-.76,5.25,5.25,0,0,1,1.6-.24,5.44,5.44,0,0,1,1.17.13,3.31,3.31,0,0,1,1.17.47,2.59,2.59,0,0,1,.9,1,3.36,3.36,0,0,1,.35,1.65V86H368.6V84.73h-.07a2.37,2.37,0,0,1-.53.69,2.66,2.66,0,0,1-.9.56A3.41,3.41,0,0,1,365.79,86.21Zm.39-1.45a2.55,2.55,0,0,0,1.28-.3,2.06,2.06,0,0,0,1.1-1.8v-1.2a1.11,1.11,0,0,1-.38.18,5.84,5.84,0,0,1-.62.14l-.68.1-.55.08a4.06,4.06,0,0,0-1,.22,1.56,1.56,0,0,0-.68.45,1.12,1.12,0,0,0-.26.77,1.17,1.17,0,0,0,.5,1A2.23,2.23,0,0,0,366.18,84.76Zm7.89-4.27V86h-1.8V76.73H374v1.51h.11a2.71,2.71,0,0,1,1-1.19,3.17,3.17,0,0,1,1.73-.44,3.39,3.39,0,0,1,1.66.39,2.74,2.74,0,0,1,1.1,1.18,4.13,4.13,0,0,1,.4,1.92V86H378.2V80.32a2.25,2.25,0,0,0-.52-1.58,1.87,1.87,0,0,0-1.45-.57,2.25,2.25,0,0,0-1.11.27,2,2,0,0,0-.77.8A2.65,2.65,0,0,0,374.07,80.49ZM385.93,86V76.73h1.73v1.51h.11a2.47,2.47,0,0,1,1-1.2,2.81,2.81,0,0,1,1.58-.43,2.68,2.68,0,0,1,1.56.43,2.55,2.55,0,0,1,.93,1.2h.1a2.63,2.63,0,0,1,1.05-1.19,3.32,3.32,0,0,1,1.73-.44,2.79,2.79,0,0,1,2.06.79,3.17,3.17,0,0,1,.8,2.38V86h-1.8V80a1.63,1.63,0,0,0-.52-1.36,1.82,1.82,0,0,0-1.22-.43,1.75,1.75,0,0,0-1.37.55,2,2,0,0,0-.49,1.38V86h-1.8V79.84a1.64,1.64,0,0,0-.47-1.22,1.7,1.7,0,0,0-1.23-.46,1.67,1.67,0,0,0-.94.28,1.92,1.92,0,0,0-.7.74,2.29,2.29,0,0,0-.26,1.1V86Zm17.22.21a3.71,3.71,0,0,1-1.59-.33,2.59,2.59,0,0,1-1.13-1,2.7,2.7,0,0,1-.41-1.54,2.51,2.51,0,0,1,.3-1.29,2.14,2.14,0,0,1,.81-.8,4.31,4.31,0,0,1,1.15-.45,10.86,10.86,0,0,1,1.29-.23l1.35-.16a1.88,1.88,0,0,0,.76-.21.51.51,0,0,0,.24-.47v0a1.63,1.63,0,0,0-.45-1.23,1.81,1.81,0,0,0-1.32-.43,2.29,2.29,0,0,0-1.43.4,2.12,2.12,0,0,0-.72.89L400.3,79a3.28,3.28,0,0,1,.88-1.36,3.48,3.48,0,0,1,1.35-.76,5.3,5.3,0,0,1,1.6-.24,5.44,5.44,0,0,1,1.17.13,3.44,3.44,0,0,1,1.18.47,2.76,2.76,0,0,1,.9,1,3.48,3.48,0,0,1,.35,1.65V86H406V84.73h-.07a2.51,2.51,0,0,1-.52.69,2.87,2.87,0,0,1-.9.56A3.5,3.5,0,0,1,403.15,86.21Zm.39-1.45a2.55,2.55,0,0,0,1.28-.3,2.11,2.11,0,0,0,.82-.77,2,2,0,0,0,.28-1v-1.2a1,1,0,0,1-.37.18,6.07,6.07,0,0,1-.63.14l-.68.1-.55.08a4,4,0,0,0-1,.22,1.54,1.54,0,0,0-.69.45,1.12,1.12,0,0,0-.25.77,1.16,1.16,0,0,0,.49,1A2.23,2.23,0,0,0,403.54,84.76Zm7.75-1.91v-2.2h.31l3.7-3.92h2.16l-4.22,4.46H413ZM409.63,86V73.64h1.8V86Zm5.86,0-3.32-4.41,1.24-1.26L417.7,86Zm6.72.19a4.54,4.54,0,0,1-2.36-.59,3.88,3.88,0,0,1-1.52-1.66,6.23,6.23,0,0,1,0-5,4,4,0,0,1,1.49-1.69,4.13,4.13,0,0,1,2.26-.61,4.38,4.38,0,0,1,1.52.26,3.63,3.63,0,0,1,1.32.81,3.78,3.78,0,0,1,.93,1.44,6.18,6.18,0,0,1,.34,2.15v.64h-7.37V80.55h5.6a2.72,2.72,0,0,0-.29-1.26,2.23,2.23,0,0,0-2-1.19,2.32,2.32,0,0,0-1.32.37,2.46,2.46,0,0,0-.87,1,2.78,2.78,0,0,0-.31,1.28v1.06a3.45,3.45,0,0,0,.33,1.58,2.35,2.35,0,0,0,.92,1,2.83,2.83,0,0,0,1.39.34,2.75,2.75,0,0,0,.93-.15,2,2,0,0,0,.73-.45,1.84,1.84,0,0,0,.47-.73l1.71.31a3,3,0,0,1-.74,1.32,3.52,3.52,0,0,1-1.32.88A5,5,0,0,1,422.21,86.19ZM205.54,101.73v1.45h-5.06v-1.45Zm-3.7-2.22h1.8v8.77a1.53,1.53,0,0,0,.16.79.79.79,0,0,0,.4.35,1.63,1.63,0,0,0,.55.09,2.09,2.09,0,0,0,.38,0l.25,0,.33,1.49a2.74,2.74,0,0,1-.45.12,3.5,3.5,0,0,1-.72.07,3.28,3.28,0,0,1-1.33-.25,2.26,2.26,0,0,1-1-.82,2.38,2.38,0,0,1-.38-1.4ZM207,111v-9.27h1.74v1.47h.1a2.29,2.29,0,0,1,.89-1.18,2.55,2.55,0,0,1,1.46-.43h.4l.37,0v1.73a2.39,2.39,0,0,0-.38-.07,3.6,3.6,0,0,0-.56,0,2.34,2.34,0,0,0-1.14.27,2.08,2.08,0,0,0-.79.74,2.05,2.05,0,0,0-.29,1.08V111Zm8.64.2a3.7,3.7,0,0,1-1.59-.32,2.59,2.59,0,0,1-1.13-1,2.71,2.71,0,0,1-.42-1.54,2.51,2.51,0,0,1,.31-1.29,2.25,2.25,0,0,1,.81-.81,4.5,4.5,0,0,1,1.15-.44,10.86,10.86,0,0,1,1.29-.23l1.35-.16a1.88,1.88,0,0,0,.76-.21.5.5,0,0,0,.23-.47v0a1.67,1.67,0,0,0-.44-1.23,1.83,1.83,0,0,0-1.32-.43,2.17,2.17,0,0,0-2.16,1.29l-1.69-.39a3.18,3.18,0,0,1,.88-1.36,3.48,3.48,0,0,1,1.35-.76,5.25,5.25,0,0,1,1.6-.24,5.44,5.44,0,0,1,1.17.13,3.44,3.44,0,0,1,1.18.47,2.65,2.65,0,0,1,.89,1,3.36,3.36,0,0,1,.36,1.65V111h-1.77v-1.27h-.07a2.5,2.5,0,0,1-.53.69,2.66,2.66,0,0,1-.9.56A3.42,3.42,0,0,1,215.68,111.2Zm.39-1.44a2.55,2.55,0,0,0,1.28-.3,2,2,0,0,0,1.1-1.8v-1.2a1.11,1.11,0,0,1-.38.18,5.84,5.84,0,0,1-.62.14l-.68.1-.55.07a4.5,4.5,0,0,0-1,.23,1.54,1.54,0,0,0-.69.45,1.12,1.12,0,0,0-.26.77,1.17,1.17,0,0,0,.5,1A2.23,2.23,0,0,0,216.07,109.76Zm9.56,1.42a3.57,3.57,0,0,1-2-.57,3.88,3.88,0,0,1-1.38-1.65,6.15,6.15,0,0,1-.5-2.58,5.92,5.92,0,0,1,.51-2.57,3.86,3.86,0,0,1,1.38-1.64,3.7,3.7,0,0,1,2-.56,2.79,2.79,0,0,1,1.39.29,2.41,2.41,0,0,1,.82.66,5.43,5.43,0,0,1,.46.67h.11V98.64h1.8V111h-1.76v-1.44h-.15a5.65,5.65,0,0,1-.47.67,2.57,2.57,0,0,1-.83.67A3,3,0,0,1,225.63,111.18Zm.4-1.54a2.09,2.09,0,0,0,1.31-.41,2.45,2.45,0,0,0,.82-1.15,4.73,4.73,0,0,0,.29-1.72,4.64,4.64,0,0,0-.28-1.69,2.52,2.52,0,0,0-.81-1.13,2.41,2.41,0,0,0-2.69,0,2.56,2.56,0,0,0-.82,1.16,4.66,4.66,0,0,0-.27,1.64,4.93,4.93,0,0,0,.27,1.68,2.66,2.66,0,0,0,.83,1.17A2.08,2.08,0,0,0,226,109.64Zm10.27,1.55a4.54,4.54,0,0,1-2.36-.59,4,4,0,0,1-1.53-1.66,6.23,6.23,0,0,1,0-5,4,4,0,0,1,3.76-2.3,4.38,4.38,0,0,1,1.52.26,3.63,3.63,0,0,1,1.32.81,3.9,3.9,0,0,1,.93,1.44,6.19,6.19,0,0,1,.33,2.15v.64H232.9v-1.36h5.61a2.72,2.72,0,0,0-.29-1.26,2.23,2.23,0,0,0-2-1.19,2.38,2.38,0,0,0-1.33.37,2.51,2.51,0,0,0-.86,1,2.66,2.66,0,0,0-.31,1.28v1.06a3.45,3.45,0,0,0,.33,1.58,2.35,2.35,0,0,0,.92,1,2.83,2.83,0,0,0,1.39.34,2.75,2.75,0,0,0,.93-.15,2,2,0,0,0,.73-.45,1.84,1.84,0,0,0,.47-.73l1.71.31a3,3,0,0,1-.74,1.32,3.52,3.52,0,0,1-1.32.88A5.07,5.07,0,0,1,236.3,111.19Zm12.43-7.2-1.64.29a2,2,0,0,0-.33-.6,1.54,1.54,0,0,0-.59-.46,2.14,2.14,0,0,0-.93-.18,2.24,2.24,0,0,0-1.28.34,1,1,0,0,0-.52.88.9.9,0,0,0,.35.74,2.77,2.77,0,0,0,1.11.47l1.47.34a3.88,3.88,0,0,1,1.91.91,2.13,2.13,0,0,1,.63,1.6,2.43,2.43,0,0,1-.48,1.48,3.26,3.26,0,0,1-1.34,1,5,5,0,0,1-2,.37,4.44,4.44,0,0,1-2.55-.67,2.81,2.81,0,0,1-1.2-1.9l1.74-.26a1.69,1.69,0,0,0,.67,1,2.31,2.31,0,0,0,1.32.34,2.39,2.39,0,0,0,1.42-.37,1.07,1.07,0,0,0,.53-.91.94.94,0,0,0-.32-.73,2.23,2.23,0,0,0-1-.45l-1.56-.34a3.76,3.76,0,0,1-1.92-.94,2.25,2.25,0,0,1-.62-1.64,2.31,2.31,0,0,1,.46-1.43,3,3,0,0,1,1.27-1,4.46,4.46,0,0,1,1.85-.35,3.83,3.83,0,0,1,2.37.65A3.09,3.09,0,0,1,248.73,104Zm9.57,7.2a4.26,4.26,0,0,1-2.28-.6,4.07,4.07,0,0,1-1.51-1.67,6.26,6.26,0,0,1,0-5A4,4,0,0,1,256,102.2a4.68,4.68,0,0,1,4.55,0,4,4,0,0,1,1.51,1.68,6.15,6.15,0,0,1,0,5,4.07,4.07,0,0,1-1.51,1.67A4.23,4.23,0,0,1,258.3,111.19Zm0-1.52a2.14,2.14,0,0,0,1.4-.45,2.52,2.52,0,0,0,.82-1.18,4.55,4.55,0,0,0,.28-1.64,4.5,4.5,0,0,0-.28-1.63,2.58,2.58,0,0,0-.82-1.2,2.14,2.14,0,0,0-1.4-.45,2.2,2.2,0,0,0-1.41.45,2.68,2.68,0,0,0-.83,1.2,5,5,0,0,0-.26,1.63,5,5,0,0,0,.26,1.64,2.61,2.61,0,0,0,.83,1.18A2.2,2.2,0,0,0,258.3,109.67Zm10.25-7.94v1.45h-5.24v-1.45ZM264.74,111V100.65a2.57,2.57,0,0,1,.38-1.44,2.34,2.34,0,0,1,1-.86,3.15,3.15,0,0,1,1.37-.29,4.19,4.19,0,0,1,.93.09,4.82,4.82,0,0,1,.57.15l-.42,1.47-.33-.09a1.68,1.68,0,0,0-.48-.05,1.21,1.21,0,0,0-.94.32,1.39,1.39,0,0,0-.28.94V111Zm9.58-9.27v1.45h-5.24v-1.45Zm-3.8,9.27V100.65a2.57,2.57,0,0,1,.38-1.44,2.28,2.28,0,0,1,1-.86,3.11,3.11,0,0,1,1.36-.29,4.19,4.19,0,0,1,.93.09,4.33,4.33,0,0,1,.57.15l-.42,1.47-.32-.09a1.8,1.8,0,0,0-.49-.05,1.23,1.23,0,0,0-.94.32,1.44,1.44,0,0,0-.28.94V111Zm7-12.36V111h-1.81V98.64ZM279.42,111v-9.27h1.8V111Zm.91-10.7a1.17,1.17,0,0,1-.81-.32,1,1,0,0,1,0-1.52,1.17,1.17,0,0,1,.81-.32,1.13,1.13,0,0,1,.8.32,1,1,0,0,1,0,1.52A1.13,1.13,0,0,1,280.33,100.3Zm4.63,5.19V111h-1.81v-9.27h1.73v1.51H285a2.69,2.69,0,0,1,1-1.19,3.11,3.11,0,0,1,1.73-.44,3.37,3.37,0,0,1,1.66.39,2.7,2.7,0,0,1,1.11,1.18,4.24,4.24,0,0,1,.39,1.92V111h-1.8v-5.68a2.25,2.25,0,0,0-.53-1.58,1.86,1.86,0,0,0-1.44-.57,2.29,2.29,0,0,0-1.12.27,2,2,0,0,0-.77.8A2.65,2.65,0,0,0,285,105.49Zm11.85,5.7a4.54,4.54,0,0,1-2.36-.59,3.94,3.94,0,0,1-1.52-1.66,6.23,6.23,0,0,1,0-5,4.09,4.09,0,0,1,1.49-1.69,4.13,4.13,0,0,1,2.26-.61,4.38,4.38,0,0,1,1.52.26,3.55,3.55,0,0,1,1.32.81,3.78,3.78,0,0,1,.93,1.44,6.18,6.18,0,0,1,.34,2.15v.64h-7.37v-1.36H299a2.72,2.72,0,0,0-.29-1.26,2.15,2.15,0,0,0-.82-.87,2.2,2.2,0,0,0-1.22-.32,2.32,2.32,0,0,0-1.32.37,2.46,2.46,0,0,0-.87,1,2.77,2.77,0,0,0-.3,1.28v1.06a3.45,3.45,0,0,0,.32,1.58,2.35,2.35,0,0,0,.92,1,2.83,2.83,0,0,0,1.39.34,2.75,2.75,0,0,0,.93-.15,2,2,0,0,0,.73-.45,1.74,1.74,0,0,0,.47-.73l1.71.31a3,3,0,0,1-.73,1.32,3.64,3.64,0,0,1-1.33.88A5,5,0,0,1,296.81,111.19Zm6.67-.08a1.21,1.21,0,0,1-1.21-1.2,1.16,1.16,0,0,1,.36-.85,1.13,1.13,0,0,1,.85-.35,1.21,1.21,0,0,1,1.21,1.2,1.19,1.19,0,0,1-.17.61,1.29,1.29,0,0,1-.44.43A1.12,1.12,0,0,1,303.48,111.11Z"></path><circle class="cls-3" cx="40.5" cy="195.5" r="20.5"></circle><g class="cls-7"><path class="cls-5" d="M49.14,189.15a9.94,9.94,0,0,0-5.7-2.12l-.31.31a13.35,13.35,0,0,1,5.12,2.59A17.91,17.91,0,0,0,42,188a16.68,16.68,0,0,0-4.12,0h-.33a14.77,14.77,0,0,0-4.68,1.24c-.75.33-1.19.55-1.22.56A11.88,11.88,0,0,1,37,187.23l-.22-.23A9.92,9.92,0,0,0,31,189.14,26.59,26.59,0,0,0,28,201s1.66,2.93,6.23,3c0,0,.66-.9,1.34-1.69A6.56,6.56,0,0,1,32,200a4.53,4.53,0,0,1,.55.34h.16s0,0,0,0h0l.05,0,0,0c.55.23,1.1.45,1.55.67a13,13,0,0,0,3,.9,16.77,16.77,0,0,0,5.35,0,15.68,15.68,0,0,0,3-.9,24.28,24.28,0,0,0,2.33-1.24,6.58,6.58,0,0,1-3.67,2.36c.55.79,1.32,1.69,1.32,1.69A8.65,8.65,0,0,0,52.16,201,26.56,26.56,0,0,0,49.14,189.15Zm-12.91,9.79a2.25,2.25,0,0,1,0-4.5h0a2.26,2.26,0,0,1,0,4.51Zm7.57,0a2.25,2.25,0,0,1,0-4.5h0a2.26,2.26,0,0,1,0,4.51Z"></path></g><path class="cls-5" d="M81.5,195V180.8h5.34a4.06,4.06,0,0,1,3,1.24,4,4,0,0,1,1.24,3,3.32,3.32,0,0,1-1,2.44,3.76,3.76,0,0,1,2,3.36,4,4,0,0,1-1.24,3,4.26,4.26,0,0,1-3.08,1.2Zm3.18-2.92h2.8a1.46,1.46,0,0,0,1.06-.4,1.39,1.39,0,0,0,.42-1,1.31,1.31,0,0,0-.44-1,1.43,1.43,0,0,0-1.06-.42H84.68Zm0-5.54h1.8a1.46,1.46,0,0,0,1.06-.4,1.33,1.33,0,0,0,.42-1,1.39,1.39,0,0,0-.42-1,1.43,1.43,0,0,0-1.06-.42h-1.8Zm16.61,7.18a5.35,5.35,0,0,1-7.43,0A5,5,0,0,1,92.32,190a4.94,4.94,0,0,1,1.54-3.7,5.3,5.3,0,0,1,7.43,0,4.94,4.94,0,0,1,1.54,3.7A5,5,0,0,1,101.29,193.72Zm-5.31-2a2.13,2.13,0,0,0,1.6.66,2.08,2.08,0,0,0,1.58-.66,2.69,2.69,0,0,0,0-3.48,2.08,2.08,0,0,0-1.58-.66,2.13,2.13,0,0,0-1.6.66,2.75,2.75,0,0,0,0,3.48Zm13,3.38a4.43,4.43,0,0,1-3-1,3.55,3.55,0,0,1-1.1-2.82v-3.72h-2.4V185h2.4v-3h3v3h3v2.62h-3v3.1a1.88,1.88,0,0,0,.36,1.28,1.52,1.52,0,0,0,1.14.38,2.87,2.87,0,0,0,1.36-.32l.9,2.46a4.55,4.55,0,0,1-1.18.42A6.91,6.91,0,0,1,109,195.12Zm6.47.1a4.92,4.92,0,0,1-4.16-1.8l2-1.82a2.46,2.46,0,0,0,2.16,1c.61,0,.92-.19.92-.56a.49.49,0,0,0-.24-.42,3.06,3.06,0,0,0-1-.36l-.66-.16a4,4,0,0,1-2.16-1.2,3,3,0,0,1-.68-2.08,2.8,2.8,0,0,1,1.1-2.22,4.27,4.27,0,0,1,2.74-.86,4.06,4.06,0,0,1,3.52,1.66l-2,1.62a2,2,0,0,0-1.58-.8c-.55,0-.82.17-.82.52s.28.56.84.72l.92.24a4.55,4.55,0,0,1,2.18,1.14,2.68,2.68,0,0,1,.76,2,3,3,0,0,1-1.14,2.38A4.14,4.14,0,0,1,115.43,195.22Z"></path><path class="cls-8" d="M228.38,192.5l4.39-9.94h1.08l4.41,9.94H236.9l-1.29-2.9H231l-1.26,2.9Zm4.91-8.18-1.79,4.11h3.6Zm6.18,10.9V185.5h1.21v.77a3,3,0,0,1,2.28-.91,3.29,3.29,0,0,1,2.53,1.06,3.59,3.59,0,0,1,1,2.58,3.63,3.63,0,0,1-1,2.59,3.32,3.32,0,0,1-2.53,1,3,3,0,0,1-2.28-.91v3.49Zm3.39-3.69a2.24,2.24,0,0,0,1.71-.72,2.6,2.6,0,0,0,.67-1.81,2.52,2.52,0,0,0-.67-1.79,2.19,2.19,0,0,0-1.71-.74,2.39,2.39,0,0,0-2.18,1.14v2.76A2.36,2.36,0,0,0,242.86,191.53Zm5.35,1v-7h1.2v1a1.78,1.78,0,0,1,.75-.77,2.08,2.08,0,0,1,1.14-.34,2.62,2.62,0,0,1,.62.07l-.15,1.2a2.15,2.15,0,0,0-.61-.08,1.81,1.81,0,0,0-1.06.36,1.84,1.84,0,0,0-.69,1v4.54Zm8.74,0v-8.75h-1.37v-1.19h2.57v9.94Zm6.39.14a4,4,0,0,1-2.23-.66,3,3,0,0,1-1.27-1.78l1.22-.42a2.25,2.25,0,0,0,.81,1.22,2.36,2.36,0,0,0,1.49.46,2.18,2.18,0,0,0,1.52-.56,1.8,1.8,0,0,0,.63-1.41,1.85,1.85,0,0,0-.6-1.47,2.29,2.29,0,0,0-1.6-.53h-1.17v-1l2.52-2.75H260.4v-1.18h5.87v1l-2.55,2.82a3,3,0,0,1,2.18.94,3.05,3.05,0,0,1,.83,2.18,3,3,0,0,1-1,2.27A3.42,3.42,0,0,1,263.34,192.64Zm5.1,2,.66-2.16h-.77v-1.74h1.74v1.75l-.87,2.15Zm6.48-2.16v-1l3.84-3.72a3.46,3.46,0,0,0,1.32-2.34,1.84,1.84,0,0,0-1.88-1.86,1.91,1.91,0,0,0-1.3.5,2,2,0,0,0-.67,1.22L275,185a3.08,3.08,0,0,1,1.08-1.91,3.28,3.28,0,0,1,2.14-.74,3,3,0,0,1,2.19.84,2.86,2.86,0,0,1,.87,2.14,3.34,3.34,0,0,1-.44,1.68,6.64,6.64,0,0,1-1.27,1.59l-2.83,2.7h4.66v1.16Zm11.52.14a3.33,3.33,0,0,1-2.53-1,3.81,3.81,0,0,1-1-2.7v-2.77a3.77,3.77,0,0,1,1-2.69,3.59,3.59,0,0,1,5.07,0,3.77,3.77,0,0,1,1,2.69v2.77a3.78,3.78,0,0,1-1,2.7A3.37,3.37,0,0,1,286.44,192.64Zm0-1.18a2.19,2.19,0,0,0,1.68-.68,2.65,2.65,0,0,0,.65-1.88v-2.77a2.65,2.65,0,0,0-.65-1.88,2.39,2.39,0,0,0-3.34,0,2.65,2.65,0,0,0-.65,1.88v2.77a2.65,2.65,0,0,0,.65,1.88A2.19,2.19,0,0,0,286.44,191.46Zm4.92,1v-1l3.84-3.72a3.48,3.48,0,0,0,1.31-2.34,1.84,1.84,0,0,0-1.87-1.86,1.93,1.93,0,0,0-1.31.5,2,2,0,0,0-.67,1.22l-1.2-.25a3.08,3.08,0,0,1,1.08-1.91,3.26,3.26,0,0,1,2.14-.74,3,3,0,0,1,2.18.84,2.86,2.86,0,0,1,.87,2.14,3.44,3.44,0,0,1-.43,1.68,6.71,6.71,0,0,1-1.28,1.59l-2.83,2.7h4.67v1.16Zm12.53,0v-2.7H298.6v-1l5.44-6.27h1v6.1h1.37v1.14h-1.37v2.7Zm-3.72-3.84h3.72v-4.28Z"></path><path class="cls-6" d="M91.63,232.66H89.74a2.8,2.8,0,0,0-.4-1.07,3,3,0,0,0-.73-.77,2.91,2.91,0,0,0-1-.49,3.68,3.68,0,0,0-1.11-.16,3.44,3.44,0,0,0-3.24,2.11,5.87,5.87,0,0,0-.49,2.54,6,6,0,0,0,.49,2.55,3.54,3.54,0,0,0,1.33,1.56,3.45,3.45,0,0,0,1.9.54,4,4,0,0,0,1.11-.16,3.09,3.09,0,0,0,1-.48,2.93,2.93,0,0,0,.73-.76,2.85,2.85,0,0,0,.41-1h1.89A5,5,0,0,1,91,238.7a4.51,4.51,0,0,1-1.1,1.32,5.12,5.12,0,0,1-1.54.85,5.66,5.66,0,0,1-1.88.3,5.48,5.48,0,0,1-2.86-.76,5.27,5.27,0,0,1-2-2.19,8.39,8.39,0,0,1,0-6.8,5.2,5.2,0,0,1,4.84-2.95,5.77,5.77,0,0,1,1.84.28,4.9,4.9,0,0,1,1.53.82A4.36,4.36,0,0,1,91,230.89,5.08,5.08,0,0,1,91.63,232.66Zm4.28,8.54a3.74,3.74,0,0,1-1.59-.32,2.65,2.65,0,0,1-1.13-1,2.78,2.78,0,0,1-.41-1.54,2.51,2.51,0,0,1,.3-1.29,2.2,2.2,0,0,1,.82-.81,4.43,4.43,0,0,1,1.14-.44,11.41,11.41,0,0,1,1.3-.23l1.35-.16a1.83,1.83,0,0,0,.75-.21.51.51,0,0,0,.24-.47v0a1.63,1.63,0,0,0-.45-1.23,1.78,1.78,0,0,0-1.31-.43,2.3,2.3,0,0,0-1.44.4,2.12,2.12,0,0,0-.72.89l-1.7-.39a3.28,3.28,0,0,1,.88-1.36,3.55,3.55,0,0,1,1.35-.76,5.3,5.3,0,0,1,1.6-.24,5.6,5.6,0,0,1,1.18.13,3.31,3.31,0,0,1,1.17.47,2.59,2.59,0,0,1,.9,1,3.48,3.48,0,0,1,.35,1.65V241H98.73v-1.27h-.08a2.45,2.45,0,0,1-.52.69,2.76,2.76,0,0,1-.9.56A3.51,3.51,0,0,1,95.91,241.2Zm.4-1.44a2.6,2.6,0,0,0,1.28-.3,2.15,2.15,0,0,0,.81-.77,2,2,0,0,0,.28-1v-1.2a1,1,0,0,1-.37.18c-.18.05-.39.1-.62.14l-.68.1-.56.07a4.5,4.5,0,0,0-1,.23,1.6,1.6,0,0,0-.69.45,1.12,1.12,0,0,0-.25.77,1.16,1.16,0,0,0,.49,1A2.24,2.24,0,0,0,96.31,239.76Zm7.89-4.27V241h-1.81v-9.27h1.74v1.51h.11a2.69,2.69,0,0,1,1-1.19,3.11,3.11,0,0,1,1.73-.44,3.43,3.43,0,0,1,1.67.39,2.74,2.74,0,0,1,1.1,1.18,4.24,4.24,0,0,1,.39,1.92V241h-1.8v-5.68a2.25,2.25,0,0,0-.53-1.58,1.86,1.86,0,0,0-1.44-.57,2.29,2.29,0,0,0-1.12.27,2,2,0,0,0-.76.8A2.54,2.54,0,0,0,104.2,235.49Zm13,9a4,4,0,0,1-.73-.07,2.33,2.33,0,0,1-.5-.13l.44-1.48a2.62,2.62,0,0,0,.88.11,1,1,0,0,0,.68-.29,2.18,2.18,0,0,0,.53-.88l.22-.62-3.39-9.39h1.93l2.35,7.19h.1l2.35-7.19H124l-3.83,10.51a4.06,4.06,0,0,1-.67,1.22,2.66,2.66,0,0,1-1,.76A3.2,3.2,0,0,1,117.19,244.48Zm11.58-3.29a4.2,4.2,0,0,1-2.27-.6,4.07,4.07,0,0,1-1.51-1.67,6.15,6.15,0,0,1,0-5,4,4,0,0,1,1.51-1.68,4.29,4.29,0,0,1,2.27-.59,4.35,4.35,0,0,1,2.28.59,4,4,0,0,1,1.51,1.68,6.26,6.26,0,0,1,0,5,4.07,4.07,0,0,1-1.51,1.67A4.26,4.26,0,0,1,128.77,241.19Zm0-1.52a2.16,2.16,0,0,0,1.4-.45A2.6,2.6,0,0,0,131,238a4.78,4.78,0,0,0,.27-1.64,4.72,4.72,0,0,0-.27-1.63,2.66,2.66,0,0,0-.82-1.2,2.16,2.16,0,0,0-1.4-.45,2.21,2.21,0,0,0-1.42.45,2.74,2.74,0,0,0-.82,1.2,4.72,4.72,0,0,0-.27,1.63,4.78,4.78,0,0,0,.27,1.64,2.67,2.67,0,0,0,.82,1.18A2.21,2.21,0,0,0,128.78,239.67Zm11.7-2.52v-5.42h1.81V241h-1.77v-1.61h-.1a2.84,2.84,0,0,1-1,1.24,3,3,0,0,1-1.75.49,3.16,3.16,0,0,1-1.58-.39,2.88,2.88,0,0,1-1.08-1.18,4.42,4.42,0,0,1-.38-1.93v-5.89h1.8v5.68a2.14,2.14,0,0,0,.53,1.51,1.79,1.79,0,0,0,1.36.56,2.2,2.2,0,0,0,1-.26,2,2,0,0,0,.84-.76A2.22,2.22,0,0,0,140.48,237.15Zm11.64,4a4.3,4.3,0,0,1-2.31-.61,4,4,0,0,1-1.49-1.7,5.71,5.71,0,0,1-.52-2.47,5.64,5.64,0,0,1,.53-2.5,4,4,0,0,1,3.78-2.3A4.36,4.36,0,0,1,154,232a3.32,3.32,0,0,1,1.33,1.09,3.14,3.14,0,0,1,.61,1.63h-1.75a2.11,2.11,0,0,0-.67-1.12,1.92,1.92,0,0,0-1.37-.47,2.23,2.23,0,0,0-1.33.4,2.55,2.55,0,0,0-.87,1.12,4.24,4.24,0,0,0-.32,1.71,4.6,4.6,0,0,0,.31,1.75,2.62,2.62,0,0,0,.87,1.14,2.24,2.24,0,0,0,1.34.41,2.18,2.18,0,0,0,.93-.19,1.89,1.89,0,0,0,.7-.55,2.11,2.11,0,0,0,.41-.85h1.75a3.32,3.32,0,0,1-1.89,2.71A4.28,4.28,0,0,1,152.12,241.19Zm5.24-.19v-9.27h1.75v1.47h.1a2.19,2.19,0,0,1,.89-1.18,2.55,2.55,0,0,1,1.46-.43h.4l.37,0v1.73a2.86,2.86,0,0,0-.39-.07,3.43,3.43,0,0,0-.56,0,2.4,2.4,0,0,0-1.14.27,2,2,0,0,0-1.07,1.82V241Zm9.69.19a4.57,4.57,0,0,1-2.36-.59,4,4,0,0,1-1.52-1.66,6.23,6.23,0,0,1,0-5,4,4,0,0,1,3.76-2.3,4.38,4.38,0,0,1,1.52.26,3.63,3.63,0,0,1,1.32.81,3.76,3.76,0,0,1,.92,1.44,6,6,0,0,1,.34,2.15v.64h-7.37v-1.36h5.6a2.6,2.6,0,0,0-.29-1.26,2.13,2.13,0,0,0-.81-.87,2.25,2.25,0,0,0-1.22-.32,2.35,2.35,0,0,0-1.33.37,2.62,2.62,0,0,0-.87,1,2.77,2.77,0,0,0-.3,1.28v1.06a3.59,3.59,0,0,0,.32,1.58,2.37,2.37,0,0,0,.93,1,2.77,2.77,0,0,0,1.38.34,2.81,2.81,0,0,0,.94-.15,2,2,0,0,0,.73-.45,2,2,0,0,0,.47-.73l1.71.31a3.14,3.14,0,0,1-.74,1.32,3.52,3.52,0,0,1-1.32.88A5.08,5.08,0,0,1,167.05,241.19Zm8.18,0a3.74,3.74,0,0,1-1.59-.32,2.65,2.65,0,0,1-1.13-1,2.78,2.78,0,0,1-.41-1.54,2.51,2.51,0,0,1,.3-1.29,2.2,2.2,0,0,1,.82-.81,4.43,4.43,0,0,1,1.14-.44,11.64,11.64,0,0,1,1.29-.23l1.36-.16a1.88,1.88,0,0,0,.75-.21.51.51,0,0,0,.24-.47v0a1.63,1.63,0,0,0-.45-1.23,1.79,1.79,0,0,0-1.32-.43,2.29,2.29,0,0,0-1.43.4,2.12,2.12,0,0,0-.72.89l-1.7-.39a3.28,3.28,0,0,1,.88-1.36,3.48,3.48,0,0,1,1.35-.76,5.3,5.3,0,0,1,1.6-.24,5.6,5.6,0,0,1,1.18.13,3.31,3.31,0,0,1,1.17.47,2.59,2.59,0,0,1,.9,1,3.48,3.48,0,0,1,.35,1.65V241H178v-1.27H178a2.45,2.45,0,0,1-.52.69,2.87,2.87,0,0,1-.9.56A3.51,3.51,0,0,1,175.23,241.2Zm.39-1.44a2.55,2.55,0,0,0,1.28-.3,2.11,2.11,0,0,0,.82-.77,2,2,0,0,0,.28-1v-1.2a1,1,0,0,1-.37.18c-.18.05-.39.1-.62.14l-.69.1-.55.07a4.5,4.5,0,0,0-1,.23,1.54,1.54,0,0,0-.69.45,1.12,1.12,0,0,0-.25.77,1.16,1.16,0,0,0,.49,1A2.23,2.23,0,0,0,175.62,239.76Zm10.42-8v1.45H181v-1.45Zm-3.71-2.22h1.81v8.77a1.53,1.53,0,0,0,.16.79.79.79,0,0,0,.4.35,1.63,1.63,0,0,0,.55.09,2.09,2.09,0,0,0,.38,0l.25,0,.33,1.49a3.06,3.06,0,0,1-.45.12,3.5,3.5,0,0,1-.72.07,3.25,3.25,0,0,1-1.33-.25,2.35,2.35,0,0,1-1-.82,2.46,2.46,0,0,1-.38-1.4Zm9.1,11.68a4.57,4.57,0,0,1-2.36-.59,4,4,0,0,1-1.52-1.66,6.23,6.23,0,0,1,0-5,4,4,0,0,1,3.76-2.3,4.38,4.38,0,0,1,1.52.26,3.63,3.63,0,0,1,1.32.81,3.76,3.76,0,0,1,.92,1.44,6,6,0,0,1,.34,2.15v.64H188v-1.36h5.6a2.6,2.6,0,0,0-.29-1.26,2.13,2.13,0,0,0-.81-.87,2.22,2.22,0,0,0-1.22-.32,2.35,2.35,0,0,0-1.33.37,2.62,2.62,0,0,0-.87,1,2.77,2.77,0,0,0-.3,1.28v1.06a3.45,3.45,0,0,0,.33,1.58,2.35,2.35,0,0,0,.92,1,3,3,0,0,0,2.32.19,2,2,0,0,0,.73-.45,2,2,0,0,0,.47-.73l1.71.31a3,3,0,0,1-.74,1.32,3.52,3.52,0,0,1-1.32.88A5.08,5.08,0,0,1,191.43,241.19Zm12.18,0a3.74,3.74,0,0,1-1.59-.32,2.65,2.65,0,0,1-1.13-1,2.78,2.78,0,0,1-.41-1.54,2.51,2.51,0,0,1,.3-1.29,2.27,2.27,0,0,1,.82-.81,4.43,4.43,0,0,1,1.14-.44,11.41,11.41,0,0,1,1.3-.23l1.35-.16a1.83,1.83,0,0,0,.75-.21.51.51,0,0,0,.24-.47v0a1.63,1.63,0,0,0-.45-1.23,1.78,1.78,0,0,0-1.31-.43,2.3,2.3,0,0,0-1.44.4,2.12,2.12,0,0,0-.72.89l-1.7-.39a3.2,3.2,0,0,1,.89-1.36,3.44,3.44,0,0,1,1.34-.76,5.3,5.3,0,0,1,1.6-.24,5.6,5.6,0,0,1,1.18.13,3.31,3.31,0,0,1,1.17.47,2.59,2.59,0,0,1,.9,1,3.48,3.48,0,0,1,.35,1.65V241h-1.76v-1.27h-.08a2.45,2.45,0,0,1-.52.69,2.76,2.76,0,0,1-.9.56A3.51,3.51,0,0,1,203.61,241.2Zm.4-1.44a2.58,2.58,0,0,0,1.28-.3,2.15,2.15,0,0,0,.81-.77,2,2,0,0,0,.28-1v-1.2a1,1,0,0,1-.37.18c-.18.05-.39.1-.62.14l-.68.1-.56.07a4.5,4.5,0,0,0-1,.23,1.6,1.6,0,0,0-.69.45,1.12,1.12,0,0,0-.25.77,1.16,1.16,0,0,0,.49,1A2.24,2.24,0,0,0,204,239.76Zm14,1.43a4.34,4.34,0,0,1-2.32-.61,4,4,0,0,1-1.48-1.7,5.57,5.57,0,0,1-.52-2.47,5.51,5.51,0,0,1,.53-2.5,4,4,0,0,1,1.49-1.69,4.18,4.18,0,0,1,2.28-.61,4.36,4.36,0,0,1,1.88.39,3.42,3.42,0,0,1,1.34,1.09,3.32,3.32,0,0,1,.61,1.63h-1.76a2.15,2.15,0,0,0-.66-1.12,1.94,1.94,0,0,0-1.38-.47,2.22,2.22,0,0,0-1.32.4,2.5,2.5,0,0,0-.88,1.12,4.25,4.25,0,0,0-.31,1.71,4.42,4.42,0,0,0,.31,1.75,2.48,2.48,0,0,0,.87,1.14,2.21,2.21,0,0,0,1.33.41,2.18,2.18,0,0,0,.93-.19,1.92,1.92,0,0,0,.71-.55,2.09,2.09,0,0,0,.4-.85h1.76a3.41,3.41,0,0,1-.59,1.6,3.32,3.32,0,0,1-1.31,1.11A4.23,4.23,0,0,1,218,241.19Zm11.11-4v-5.42h1.81V241h-1.77v-1.61h-.1a2.8,2.8,0,0,1-1,1.24,2.91,2.91,0,0,1-1.74.49,3.14,3.14,0,0,1-1.58-.39,2.82,2.82,0,0,1-1.08-1.18,4.42,4.42,0,0,1-.38-1.93v-5.89H225v5.68a2.14,2.14,0,0,0,.53,1.51,1.79,1.79,0,0,0,1.36.56,2.2,2.2,0,0,0,1-.26,2,2,0,0,0,.84-.76A2.22,2.22,0,0,0,229.11,237.15ZM239.8,234l-1.64.29a2.18,2.18,0,0,0-.32-.6,1.66,1.66,0,0,0-.6-.46,2.14,2.14,0,0,0-.93-.18,2.24,2.24,0,0,0-1.28.34,1,1,0,0,0-.52.88.9.9,0,0,0,.35.74,2.77,2.77,0,0,0,1.11.47l1.47.34a3.88,3.88,0,0,1,1.91.91,2.13,2.13,0,0,1,.63,1.6,2.37,2.37,0,0,1-.49,1.48,3.16,3.16,0,0,1-1.33,1,5.05,5.05,0,0,1-2,.37,4.38,4.38,0,0,1-2.54-.67,2.78,2.78,0,0,1-1.21-1.9l1.74-.26a1.69,1.69,0,0,0,.67,1,2.32,2.32,0,0,0,1.33.34,2.38,2.38,0,0,0,1.41-.37,1.07,1.07,0,0,0,.53-.91.94.94,0,0,0-.32-.73,2.18,2.18,0,0,0-1-.45l-1.57-.34a3.84,3.84,0,0,1-1.92-.94,2.28,2.28,0,0,1-.61-1.64,2.31,2.31,0,0,1,.46-1.43,3,3,0,0,1,1.27-1,4.49,4.49,0,0,1,1.85-.35,3.83,3.83,0,0,1,2.37.65A3.09,3.09,0,0,1,239.8,234Zm6-2.26v1.45h-5.06v-1.45Zm-3.71-2.22h1.81v8.77a1.53,1.53,0,0,0,.16.79.79.79,0,0,0,.4.35,1.63,1.63,0,0,0,.55.09,2.09,2.09,0,0,0,.38,0l.25,0,.33,1.49a3.06,3.06,0,0,1-.45.12,3.5,3.5,0,0,1-.72.07,3.25,3.25,0,0,1-1.33-.25,2.35,2.35,0,0,1-1-.82,2.46,2.46,0,0,1-.38-1.4Zm9,11.68a4.25,4.25,0,0,1-2.27-.6,4.07,4.07,0,0,1-1.51-1.67,6.15,6.15,0,0,1,0-5,4,4,0,0,1,1.51-1.68,4.68,4.68,0,0,1,4.55,0,4,4,0,0,1,1.51,1.68,6.15,6.15,0,0,1,0,5,4.07,4.07,0,0,1-1.51,1.67A4.26,4.26,0,0,1,251.09,241.19Zm0-1.52a2.16,2.16,0,0,0,1.4-.45,2.6,2.6,0,0,0,.82-1.18,4.78,4.78,0,0,0,.27-1.64,4.72,4.72,0,0,0-.27-1.63,2.66,2.66,0,0,0-.82-1.2,2.42,2.42,0,0,0-2.81,0,2.68,2.68,0,0,0-.83,1.2,4.72,4.72,0,0,0-.26,1.63,4.78,4.78,0,0,0,.26,1.64,2.61,2.61,0,0,0,.83,1.18A2.17,2.17,0,0,0,251.1,239.67Zm5.83,1.33v-9.27h1.73v1.51h.12a2.37,2.37,0,0,1,1-1.2,2.78,2.78,0,0,1,1.57-.43,2.68,2.68,0,0,1,1.56.43,2.63,2.63,0,0,1,.94,1.2h.09a2.59,2.59,0,0,1,1.06-1.19,3.19,3.19,0,0,1,1.72-.44,2.77,2.77,0,0,1,2.06.79,3.17,3.17,0,0,1,.81,2.38V241h-1.81V235a1.66,1.66,0,0,0-.51-1.36,1.83,1.83,0,0,0-1.23-.43,1.73,1.73,0,0,0-1.37.55,2,2,0,0,0-.49,1.38V241h-1.8v-6.16a1.6,1.6,0,0,0-.47-1.22,1.81,1.81,0,0,0-2.17-.18,1.83,1.83,0,0,0-.69.74,2.18,2.18,0,0,0-.26,1.1V241ZM81.21,266v-9.27H83V266Zm.91-10.7a1.13,1.13,0,0,1-.8-.32,1,1,0,0,1,0-1.52,1.17,1.17,0,0,1,1.61,0,1,1,0,0,1,0,1.52A1.13,1.13,0,0,1,82.12,255.3Zm4.63,5.19V266H85v-9.27h1.73v1.51h.11a2.71,2.71,0,0,1,1-1.19,3.09,3.09,0,0,1,1.73-.44,3.42,3.42,0,0,1,1.66.39,2.74,2.74,0,0,1,1.1,1.18,4.1,4.1,0,0,1,.4,1.92V266H90.88v-5.68a2.25,2.25,0,0,0-.52-1.58,1.88,1.88,0,0,0-1.45-.57,2.23,2.23,0,0,0-1.11.27,1.92,1.92,0,0,0-.77.8A2.54,2.54,0,0,0,86.75,260.49Zm12.19-3.76v1.45H93.87v-1.45Zm-3.71-2.22H97v8.77a1.64,1.64,0,0,0,.16.79.81.81,0,0,0,.41.35,1.57,1.57,0,0,0,.54.1,1.92,1.92,0,0,0,.38,0l.26,0,.32,1.49a2.87,2.87,0,0,1-.44.12,3.68,3.68,0,0,1-.73.07,3.23,3.23,0,0,1-1.32-.25,2.24,2.24,0,0,1-1-.82,2.46,2.46,0,0,1-.38-1.4Zm9.1,11.68a4.57,4.57,0,0,1-2.36-.59,3.94,3.94,0,0,1-1.52-1.66,6.23,6.23,0,0,1,0-5,4,4,0,0,1,3.75-2.3,4.38,4.38,0,0,1,1.52.26,3.75,3.75,0,0,1,1.33.81,3.88,3.88,0,0,1,.92,1.44,6.18,6.18,0,0,1,.34,2.15v.64h-7.37v-1.36h5.6a2.72,2.72,0,0,0-.29-1.26,2.15,2.15,0,0,0-.82-.87,2.2,2.2,0,0,0-1.22-.32,2.32,2.32,0,0,0-1.32.37,2.46,2.46,0,0,0-.87,1,2.78,2.78,0,0,0-.31,1.28v1.06a3.45,3.45,0,0,0,.33,1.58,2.35,2.35,0,0,0,.92,1,2.83,2.83,0,0,0,1.39.34,2.75,2.75,0,0,0,.93-.15,1.88,1.88,0,0,0,.73-.45,1.74,1.74,0,0,0,.47-.73l1.71.31a3,3,0,0,1-.73,1.32,3.48,3.48,0,0,1-1.33.88A5,5,0,0,1,104.33,266.19Zm5.48-.19v-9.27h1.75v1.47h.09a2.29,2.29,0,0,1,.89-1.18,2.56,2.56,0,0,1,1.47-.43h.39l.37,0v1.73a2.39,2.39,0,0,0-.38-.07,3.52,3.52,0,0,0-.56,0,2.34,2.34,0,0,0-1.14.27,2.08,2.08,0,0,0-.79.74,2.05,2.05,0,0,0-.29,1.08V266Zm11-9.27v1.45h-5.23v-1.45ZM117,266V255.65a2.57,2.57,0,0,1,.38-1.44,2.34,2.34,0,0,1,1-.86,3.12,3.12,0,0,1,1.37-.29,4.19,4.19,0,0,1,.93.09,5.43,5.43,0,0,1,.57.15l-.42,1.46-.33-.08a1.68,1.68,0,0,0-.48-.05,1.2,1.2,0,0,0-1,.32,1.44,1.44,0,0,0-.27.94V266Zm7.58.2a3.77,3.77,0,0,1-1.59-.32,2.65,2.65,0,0,1-1.13-1,2.78,2.78,0,0,1-.41-1.54,2.51,2.51,0,0,1,.3-1.29,2.27,2.27,0,0,1,.82-.81,4.37,4.37,0,0,1,1.15-.44,10.86,10.86,0,0,1,1.29-.23l1.35-.16a1.83,1.83,0,0,0,.75-.21.51.51,0,0,0,.24-.47v0a1.63,1.63,0,0,0-.45-1.23,1.78,1.78,0,0,0-1.31-.43,2.3,2.3,0,0,0-1.44.4,2.12,2.12,0,0,0-.72.89l-1.7-.39a3.29,3.29,0,0,1,.89-1.36,3.44,3.44,0,0,1,1.34-.76,5.3,5.3,0,0,1,1.6-.24,5.53,5.53,0,0,1,1.18.13,3.31,3.31,0,0,1,1.17.47,2.59,2.59,0,0,1,.9,1,3.48,3.48,0,0,1,.35,1.65V266h-1.76v-1.27h-.07a2.71,2.71,0,0,1-.53.69,2.66,2.66,0,0,1-.9.56A3.51,3.51,0,0,1,124.57,266.2Zm.4-1.44a2.6,2.6,0,0,0,1.28-.3,2.08,2.08,0,0,0,.81-.77,2,2,0,0,0,.29-1v-1.2a1.11,1.11,0,0,1-.38.18c-.18.05-.39.1-.62.14l-.68.1-.56.07a4.5,4.5,0,0,0-1,.23,1.66,1.66,0,0,0-.69.45,1.12,1.12,0,0,0-.25.77,1.17,1.17,0,0,0,.5,1A2.23,2.23,0,0,0,125,264.76Zm10,1.43a4.34,4.34,0,0,1-2.32-.61,4,4,0,0,1-1.48-1.7,5.57,5.57,0,0,1-.52-2.47,5.64,5.64,0,0,1,.53-2.5,4,4,0,0,1,1.5-1.69,4.12,4.12,0,0,1,2.27-.61,4.4,4.4,0,0,1,1.89.39,3.39,3.39,0,0,1,1.33,1.09,3.23,3.23,0,0,1,.61,1.63H137a2,2,0,0,0-.66-1.12,1.93,1.93,0,0,0-1.38-.47,2.22,2.22,0,0,0-1.32.4,2.57,2.57,0,0,0-.88,1.12,5,5,0,0,0,0,3.46,2.48,2.48,0,0,0,.87,1.14,2.23,2.23,0,0,0,1.33.41,2.18,2.18,0,0,0,.93-.19,1.92,1.92,0,0,0,.71-.55,2,2,0,0,0,.4-.85h1.76a3.36,3.36,0,0,1-1.9,2.71A4.23,4.23,0,0,1,135,266.19Zm9.24,0a4.54,4.54,0,0,1-2.36-.59,4,4,0,0,1-1.53-1.66,6.23,6.23,0,0,1,0-5,4,4,0,0,1,3.76-2.3,4.38,4.38,0,0,1,1.52.26,3.63,3.63,0,0,1,1.32.81,3.9,3.9,0,0,1,.93,1.44,6.18,6.18,0,0,1,.34,2.15v.64H140.8v-1.36h5.61a2.72,2.72,0,0,0-.29-1.26,2.23,2.23,0,0,0-2-1.19,2.35,2.35,0,0,0-1.33.37,2.62,2.62,0,0,0-.87,1,2.77,2.77,0,0,0-.3,1.28v1.06a3.45,3.45,0,0,0,.33,1.58,2.35,2.35,0,0,0,.92,1,2.82,2.82,0,0,0,1.38.34,2.77,2.77,0,0,0,.94-.15,2,2,0,0,0,.73-.45,1.84,1.84,0,0,0,.47-.73l1.71.31a3,3,0,0,1-.74,1.32,3.52,3.52,0,0,1-1.32.88A5.07,5.07,0,0,1,144.2,266.19Zm13.89-9.46v1.45h-5.24v-1.45Zm-3.8,9.27V255.65a2.49,2.49,0,0,1,.38-1.44,2.28,2.28,0,0,1,1-.86,3.07,3.07,0,0,1,1.36-.29,4.19,4.19,0,0,1,.93.09,4.33,4.33,0,0,1,.57.15l-.42,1.46-.33-.08a1.68,1.68,0,0,0-.48-.05,1.18,1.18,0,0,0-.94.32,1.39,1.39,0,0,0-.28.94V266Zm8.7.19a4.2,4.2,0,0,1-2.27-.6,4.07,4.07,0,0,1-1.51-1.67,6.15,6.15,0,0,1,0-5,4,4,0,0,1,1.51-1.68,4.29,4.29,0,0,1,2.27-.59,4.35,4.35,0,0,1,2.28.59,4,4,0,0,1,1.51,1.68,6.15,6.15,0,0,1,0,5,4.07,4.07,0,0,1-1.51,1.67A4.26,4.26,0,0,1,163,266.19Zm0-1.52a2.16,2.16,0,0,0,1.4-.45,2.6,2.6,0,0,0,.82-1.18,5.09,5.09,0,0,0,0-3.27,2.66,2.66,0,0,0-.82-1.2,2.42,2.42,0,0,0-2.81,0,2.6,2.6,0,0,0-.83,1.2,5.09,5.09,0,0,0,0,3.27,2.54,2.54,0,0,0,.83,1.18A2.17,2.17,0,0,0,163,264.67Zm5.83,1.33v-9.27h1.74v1.47h.1a2.29,2.29,0,0,1,.89-1.18,2.55,2.55,0,0,1,1.46-.43h.4l.37,0v1.73a2.39,2.39,0,0,0-.38-.07,3.52,3.52,0,0,0-.56,0,2.34,2.34,0,0,0-1.14.27,2.08,2.08,0,0,0-.79.74,2.05,2.05,0,0,0-.29,1.08V266Zm13.93.19a4.34,4.34,0,0,1-2.32-.61,4,4,0,0,1-1.48-1.7,5.57,5.57,0,0,1-.52-2.47,5.51,5.51,0,0,1,.53-2.5,4,4,0,0,1,1.49-1.69,4.18,4.18,0,0,1,2.28-.61,4.33,4.33,0,0,1,1.88.39,3.31,3.31,0,0,1,1.95,2.72h-1.76a2.15,2.15,0,0,0-.66-1.12,1.94,1.94,0,0,0-1.38-.47,2.22,2.22,0,0,0-1.32.4,2.5,2.5,0,0,0-.88,1.12,4.25,4.25,0,0,0-.31,1.71,4.42,4.42,0,0,0,.31,1.75,2.48,2.48,0,0,0,.87,1.14,2.23,2.23,0,0,0,1.33.41,2.18,2.18,0,0,0,.93-.19,1.92,1.92,0,0,0,.71-.55,2,2,0,0,0,.4-.85h1.76a3.41,3.41,0,0,1-.59,1.6,3.32,3.32,0,0,1-1.31,1.11A4.23,4.23,0,0,1,182.76,266.19ZM188,266v-9.27h1.74v1.47h.1a2.29,2.29,0,0,1,.89-1.18,2.55,2.55,0,0,1,1.46-.43h.4l.37,0v1.73a2.35,2.35,0,0,0-.39-.07,3.39,3.39,0,0,0-.55,0,2.34,2.34,0,0,0-1.14.27,2.08,2.08,0,0,0-.79.74,2.05,2.05,0,0,0-.29,1.08V266Zm9.69.19a4.54,4.54,0,0,1-2.36-.59,3.88,3.88,0,0,1-1.52-1.66,6.13,6.13,0,0,1,0-5,4,4,0,0,1,1.49-1.69,4.13,4.13,0,0,1,2.26-.61,4.38,4.38,0,0,1,1.52.26,3.63,3.63,0,0,1,1.32.81,3.9,3.9,0,0,1,.93,1.44,6.18,6.18,0,0,1,.34,2.15v.64h-7.38v-1.36h5.61a2.72,2.72,0,0,0-.29-1.26,2.23,2.23,0,0,0-2-1.19,2.38,2.38,0,0,0-1.33.37,2.51,2.51,0,0,0-.86,1,2.66,2.66,0,0,0-.31,1.28v1.06a3.45,3.45,0,0,0,.33,1.58,2.35,2.35,0,0,0,.92,1,2.83,2.83,0,0,0,1.39.34,2.75,2.75,0,0,0,.93-.15,2,2,0,0,0,.73-.45,1.84,1.84,0,0,0,.47-.73l1.71.31a3.12,3.12,0,0,1-.73,1.32,3.64,3.64,0,0,1-1.33.88A5.07,5.07,0,0,1,197.69,266.19Zm8.18,0a3.78,3.78,0,0,1-1.6-.32,2.71,2.71,0,0,1-1.13-1,2.78,2.78,0,0,1-.41-1.54,2.42,2.42,0,0,1,.31-1.29,2.25,2.25,0,0,1,.81-.81,4.37,4.37,0,0,1,1.15-.44,10.86,10.86,0,0,1,1.29-.23l1.35-.16a1.88,1.88,0,0,0,.76-.21.52.52,0,0,0,.23-.47v0a1.63,1.63,0,0,0-.45-1.23,1.78,1.78,0,0,0-1.31-.43,2.17,2.17,0,0,0-2.16,1.29L203,259a3.18,3.18,0,0,1,.88-1.36,3.51,3.51,0,0,1,1.34-.76,5.36,5.36,0,0,1,1.61-.24,5.51,5.51,0,0,1,1.17.13,3.31,3.31,0,0,1,1.17.47,2.59,2.59,0,0,1,.9,1,3.36,3.36,0,0,1,.35,1.65V266h-1.76v-1.27h-.07a2.5,2.5,0,0,1-.53.69,2.66,2.66,0,0,1-.9.56A3.42,3.42,0,0,1,205.87,266.2Zm.39-1.44a2.58,2.58,0,0,0,1.28-.3,2.06,2.06,0,0,0,1.1-1.8v-1.2a1.11,1.11,0,0,1-.38.18,5.84,5.84,0,0,1-.62.14l-.68.1-.56.07a4.5,4.5,0,0,0-1,.23,1.56,1.56,0,0,0-.68.45,1.12,1.12,0,0,0-.26.77,1.17,1.17,0,0,0,.5,1A2.23,2.23,0,0,0,206.26,264.76Zm10.42-8v1.45h-5.07v-1.45ZM213,254.51h1.8v8.77a1.64,1.64,0,0,0,.16.79.81.81,0,0,0,.41.35,1.62,1.62,0,0,0,.54.1,1.92,1.92,0,0,0,.38,0l.26,0,.33,1.49a3.46,3.46,0,0,1-.45.12,3.61,3.61,0,0,1-.73.07,3.23,3.23,0,0,1-1.32-.25,2.24,2.24,0,0,1-1-.82,2.46,2.46,0,0,1-.38-1.4Zm5.2,11.49v-9.27H220V266Zm.91-10.7a1.17,1.17,0,0,1-.81-.32,1,1,0,0,1,0-1.52,1.17,1.17,0,0,1,.81-.32,1.13,1.13,0,0,1,.81.32,1,1,0,0,1,0,1.52A1.13,1.13,0,0,1,219.08,255.3Zm4.63,5.19V266h-1.8v-9.27h1.73v1.51h.11a2.71,2.71,0,0,1,1-1.19,3.07,3.07,0,0,1,1.73-.44,3.42,3.42,0,0,1,1.66.39,2.74,2.74,0,0,1,1.1,1.18,4.23,4.23,0,0,1,.4,1.92V266h-1.81v-5.68a2.3,2.3,0,0,0-.52-1.58,1.9,1.9,0,0,0-1.45-.57,2.23,2.23,0,0,0-1.11.27,1.92,1.92,0,0,0-.77.8A2.54,2.54,0,0,0,223.71,260.49Zm11.74,9.18a5.67,5.67,0,0,1-1.9-.29,3.54,3.54,0,0,1-1.29-.77,3.24,3.24,0,0,1-.75-1l1.55-.64a4,4,0,0,0,.44.56,2.15,2.15,0,0,0,.75.51,3,3,0,0,0,1.22.22,2.73,2.73,0,0,0,1.7-.51,1.82,1.82,0,0,0,.67-1.58v-1.82h-.12a3.28,3.28,0,0,1-.47.66,2.63,2.63,0,0,1-.83.63,3.2,3.2,0,0,1-1.38.26,3.87,3.87,0,0,1-2-.51,3.63,3.63,0,0,1-1.39-1.53,5.53,5.53,0,0,1-.51-2.49,6,6,0,0,1,.5-2.54,3.89,3.89,0,0,1,1.39-1.62,3.67,3.67,0,0,1,2-.56,2.81,2.81,0,0,1,1.39.29,2.45,2.45,0,0,1,.83.66,5.65,5.65,0,0,1,.47.67h.13v-1.5h1.77v9.47a3.28,3.28,0,0,1-.56,2,3.23,3.23,0,0,1-1.5,1.13A5.73,5.73,0,0,1,235.45,269.67Zm0-5.31a2.29,2.29,0,0,0,1.31-.36,2.18,2.18,0,0,0,.82-1.05,4.31,4.31,0,0,0,.29-1.65,4.67,4.67,0,0,0-.28-1.65,2.53,2.53,0,0,0-.82-1.11,2.11,2.11,0,0,0-1.32-.4,2.14,2.14,0,0,0-1.36.42,2.47,2.47,0,0,0-.82,1.14,4.3,4.3,0,0,0-.27,1.6,4.36,4.36,0,0,0,.27,1.6,2.44,2.44,0,0,0,.82,1.08A2.37,2.37,0,0,0,235.44,264.36ZM245.7,266V253.64h1.81v4.59h.11a4.35,4.35,0,0,1,.45-.67,2.51,2.51,0,0,1,.82-.66,2.79,2.79,0,0,1,1.39-.29,3.65,3.65,0,0,1,2,.56,3.8,3.8,0,0,1,1.38,1.64,5.92,5.92,0,0,1,.51,2.57,6,6,0,0,1-.5,2.58,3.88,3.88,0,0,1-1.38,1.65,3.56,3.56,0,0,1-2,.57,3,3,0,0,1-1.39-.28,2.57,2.57,0,0,1-.83-.67,4.51,4.51,0,0,1-.46-.67h-.16V266Zm1.77-4.64a4.73,4.73,0,0,0,.29,1.72,2.52,2.52,0,0,0,.82,1.15,2.32,2.32,0,0,0,2.66,0,2.66,2.66,0,0,0,.83-1.17,4.93,4.93,0,0,0,.28-1.68,4.44,4.44,0,0,0-.28-1.64,2.48,2.48,0,0,0-.82-1.16,2.16,2.16,0,0,0-1.36-.42,2.18,2.18,0,0,0-1.33.4,2.52,2.52,0,0,0-.81,1.13A4.64,4.64,0,0,0,247.47,261.36Zm12.14,4.83a4.24,4.24,0,0,1-2.28-.6,4.07,4.07,0,0,1-1.51-1.67,6.15,6.15,0,0,1,0-5,4,4,0,0,1,1.51-1.68,4.68,4.68,0,0,1,4.55,0,4,4,0,0,1,1.51,1.68,6.15,6.15,0,0,1,0,5,4.07,4.07,0,0,1-1.51,1.67A4.25,4.25,0,0,1,259.61,266.19Zm0-1.52a2.16,2.16,0,0,0,1.4-.45,2.6,2.6,0,0,0,.82-1.18,5.09,5.09,0,0,0,0-3.27,2.66,2.66,0,0,0-.82-1.2,2.42,2.42,0,0,0-2.81,0,2.68,2.68,0,0,0-.83,1.2,5.27,5.27,0,0,0,0,3.27,2.61,2.61,0,0,0,.83,1.18A2.17,2.17,0,0,0,259.61,264.67Zm10.16-7.94v1.45H264.7v-1.45Zm-3.71-2.22h1.81v8.77a1.53,1.53,0,0,0,.16.79.79.79,0,0,0,.4.35,1.63,1.63,0,0,0,.55.1,2.11,2.11,0,0,0,.38,0l.25,0,.33,1.49a3.06,3.06,0,0,1-.45.12,3.5,3.5,0,0,1-.72.07,3.25,3.25,0,0,1-1.33-.25,2.35,2.35,0,0,1-1-.82,2.46,2.46,0,0,1-.38-1.4Zm12,4.48-1.64.29a2,2,0,0,0-.33-.6,1.54,1.54,0,0,0-.59-.46,2.14,2.14,0,0,0-.93-.18,2.24,2.24,0,0,0-1.28.34,1,1,0,0,0-.52.88.9.9,0,0,0,.35.74,2.77,2.77,0,0,0,1.11.47l1.47.34a3.88,3.88,0,0,1,1.91.91,2.13,2.13,0,0,1,.63,1.6,2.37,2.37,0,0,1-.49,1.48,3.16,3.16,0,0,1-1.33,1,5.05,5.05,0,0,1-2,.37,4.38,4.38,0,0,1-2.54-.67,2.78,2.78,0,0,1-1.21-1.9l1.74-.26a1.69,1.69,0,0,0,.67,1,2.31,2.31,0,0,0,1.32.34,2.39,2.39,0,0,0,1.42-.37,1.07,1.07,0,0,0,.53-.91.94.94,0,0,0-.32-.73,2.18,2.18,0,0,0-1-.45l-1.57-.34a3.76,3.76,0,0,1-1.91-.94,2.25,2.25,0,0,1-.62-1.64,2.31,2.31,0,0,1,.46-1.43,3,3,0,0,1,1.26-1,4.54,4.54,0,0,1,1.86-.35,3.78,3.78,0,0,1,2.36.65A3.05,3.05,0,0,1,278.07,259Zm2.85,7.12a1.19,1.19,0,0,1-1.21-1.2,1.21,1.21,0,0,1,1.21-1.2,1.13,1.13,0,0,1,.85.35,1.16,1.16,0,0,1,.36.85,1.19,1.19,0,0,1-.17.61,1.21,1.21,0,0,1-.44.43A1.12,1.12,0,0,1,280.92,266.11Z"></path></svg>