<svg xmlns="http://www.w3.org/2000/svg" xmlns:xlink="http://www.w3.org/1999/xlink" id="Layer_1" data-name="Layer 1" viewBox="0 0 455 333"><defs><style>.cls-1,.cls-20{fill:#fff;}.cls-10,.cls-11,.cls-19,.cls-2,.cls-21,.cls-25,.cls-5,.cls-7,.cls-8,.cls-9{fill:none;}.cls-3{clip-path:url(#clip-path);}.cls-4{fill:#161823;}.cls-15,.cls-5{stroke:#323335;}.cls-5{stroke-width:0.71px;}.cls-14,.cls-6{fill:#89898b;}.cls-7,.cls-8{stroke:#439683;}.cls-10,.cls-8{stroke-width:5px;}.cls-10,.cls-9{stroke:#df3434;}.cls-11{stroke:#359a73;stroke-dasharray:2 2;}.cls-12{mask:url(#mask);}.cls-13{fill:#359a73;}.cls-14,.cls-20{fill-rule:evenodd;}.cls-15{fill:#181a21;}.cls-16{mask:url(#mask-2);}.cls-17{fill-opacity:0.75;}.cls-18{mask:url(#mask-3);}.cls-19{stroke:#89898b;}.cls-21{stroke:#1b1b1f;}.cls-22{fill:#1b1b1f;}.cls-23{fill:#ff6f6f;}.cls-24{fill:#434346;}.cls-25{stroke:#434346;}.cls-26{fill:#54c88c;}</style><clipPath id="clip-path"><rect class="cls-2" width="455" height="333"></rect></clipPath><mask id="mask" x="378" y="143" width="64" height="22" maskUnits="userSpaceOnUse"><g id="mask0_2325_13019" data-name="mask0 2325 13019"><path class="cls-1" d="M378,143h60a4,4,0,0,1,4,4v14a4,4,0,0,1-4,4H378Z"></path></g></mask><mask id="mask-2" x="40" y="183" width="375" height="124" maskUnits="userSpaceOnUse"><g id="mask1_2325_13019" data-name="mask1 2325 13019"><path class="cls-1" d="M403,183H52a12,12,0,0,0-12,12V295a12,12,0,0,0,12,12H403a12,12,0,0,0,12-12V195A12,12,0,0,0,403,183Z"></path></g></mask><mask id="mask-3" x="40" y="183" width="375" height="40" maskUnits="userSpaceOnUse"><g id="mask2_2325_13019" data-name="mask2 2325 13019"><path class="cls-1" d="M415,183H40v40H415Z"></path></g></mask></defs><g class="cls-3"><rect class="cls-4" width="455" height="333" rx="8.7"></rect><rect class="cls-5" x="0.35" y="0.35" width="454.29" height="332.29" rx="8.35"></rect><path class="cls-6" d="M389.52,63.55V73h-1.14V64.75h-.06L386,66.28V65.12l2.37-1.57Zm5.68,9.58a3.25,3.25,0,0,1-1.47-.32,2.77,2.77,0,0,1-1-.89,2.45,2.45,0,0,1-.43-1.28h1.11a1.5,1.5,0,0,0,.18.59,1.68,1.68,0,0,0,.41.47,2,2,0,0,0,1.25.41,2,2,0,0,0,1.75-1,2.36,2.36,0,0,0,.26-1.08,2.1,2.1,0,0,0-.28-1.1,2,2,0,0,0-.73-.78,2.15,2.15,0,0,0-1.08-.28,2.7,2.7,0,0,0-.89.13,2.34,2.34,0,0,0-.75.35l-1.07-.13.57-4.65h4.91v1H394l-.33,2.79a2.82,2.82,0,0,1,.73-.38,2.62,2.62,0,0,1,.92-.16,2.92,2.92,0,0,1,2.61,1.55,3.31,3.31,0,0,1,.4,1.63,3.18,3.18,0,0,1-.41,1.62,3.11,3.11,0,0,1-1.11,1.11A3.2,3.2,0,0,1,395.2,73.13Zm8.14,0a4.1,4.1,0,0,1-1.62-.31,2.81,2.81,0,0,1-1.14-.88,2.42,2.42,0,0,1-.45-1.3h1.16a1.35,1.35,0,0,0,.32.79,1.91,1.91,0,0,0,.72.5,2.87,2.87,0,0,0,2.08,0,1.85,1.85,0,0,0,.74-.59,1.47,1.47,0,0,0,.26-.88,1.57,1.57,0,0,0-.26-.92,1.81,1.81,0,0,0-.75-.62,3,3,0,0,0-1.22-.23h-.76v-1h.76a2.29,2.29,0,0,0,1-.2,1.61,1.61,0,0,0,.67-.57,1.69,1.69,0,0,0,0-1.7,1.41,1.41,0,0,0-.6-.56,1.92,1.92,0,0,0-.91-.2,2.39,2.39,0,0,0-.92.18,1.65,1.65,0,0,0-.7.52,1.38,1.38,0,0,0-.3.8h-1.11a2.27,2.27,0,0,1,.45-1.3,2.78,2.78,0,0,1,1.1-.88,3.51,3.51,0,0,1,1.5-.31,2.92,2.92,0,0,1,1.51.35,2.49,2.49,0,0,1,1,.93,2.4,2.4,0,0,1,.34,1.25,2.15,2.15,0,0,1-1.55,2.14v.07a2.22,2.22,0,0,1,1.4.76,2.29,2.29,0,0,1,.5,1.51,2.37,2.37,0,0,1-.42,1.39,3,3,0,0,1-1.14,1A3.76,3.76,0,0,1,403.34,73.13Zm5.61-.06a.86.86,0,0,1-.46-.14.84.84,0,0,1-.3-.37.79.79,0,0,1-.05-.48.79.79,0,0,1,.64-.64.87.87,0,0,1,.48,0,.78.78,0,0,1,.37.3.89.89,0,0,1,.15.45.73.73,0,0,1-.12.41.81.81,0,0,1-.3.31.66.66,0,0,1-.36.11Zm5.52.06a2.79,2.79,0,0,1-1.78-.57,3.44,3.44,0,0,1-1.12-1.66,7.84,7.84,0,0,1-.39-2.63,7.69,7.69,0,0,1,.39-2.61A3.53,3.53,0,0,1,412.7,64a3,3,0,0,1,3.54,0,3.59,3.59,0,0,1,1.12,1.67,7.7,7.7,0,0,1,.4,2.61,7.84,7.84,0,0,1-.39,2.63,3.64,3.64,0,0,1-1.12,1.66A2.84,2.84,0,0,1,414.47,73.13Zm0-1a1.8,1.8,0,0,0,.95-.27,1.86,1.86,0,0,0,.66-.73,5.86,5.86,0,0,0,.57-2.85,7.35,7.35,0,0,0-.26-2.09,3,3,0,0,0-.75-1.31,1.65,1.65,0,0,0-1.17-.46,1.74,1.74,0,0,0-.94.27,1.79,1.79,0,0,0-.66.73,5.84,5.84,0,0,0-.58,2.85,7.35,7.35,0,0,0,.26,2.09,2.91,2.91,0,0,0,.74,1.31,1.71,1.71,0,0,0,1.18.44Zm8.12,1a2.76,2.76,0,0,1-1.77-.57,3.44,3.44,0,0,1-1.12-1.66,7.84,7.84,0,0,1-.39-2.63,7.69,7.69,0,0,1,.39-2.61A3.59,3.59,0,0,1,420.82,64a3,3,0,0,1,3.54,0,3.61,3.61,0,0,1,1.13,1.67,7.69,7.69,0,0,1,.39,2.61,7.84,7.84,0,0,1-.39,2.63,3.44,3.44,0,0,1-1.12,1.66A2.84,2.84,0,0,1,422.59,73.13Zm0-1a1.8,1.8,0,0,0,1-.27,1.86,1.86,0,0,0,.66-.73,5.86,5.86,0,0,0,.57-2.85,7.35,7.35,0,0,0-.26-2.09,2.87,2.87,0,0,0-.75-1.31,1.62,1.62,0,0,0-.54-.35,1.5,1.5,0,0,0-.63-.11,1.83,1.83,0,0,0-.94.27,1.79,1.79,0,0,0-.66.73,5.87,5.87,0,0,0-.58,2.85,7.35,7.35,0,0,0,.26,2.09,2.92,2.92,0,0,0,.75,1.31,1.69,1.69,0,0,0,1.17.44Zm8.13,1a2.79,2.79,0,0,1-1.78-.57,3.44,3.44,0,0,1-1.12-1.66,7.84,7.84,0,0,1-.39-2.63,7.69,7.69,0,0,1,.39-2.61A3.51,3.51,0,0,1,429,64a3,3,0,0,1,3.54,0,3.59,3.59,0,0,1,1.12,1.67,7.46,7.46,0,0,1,.4,2.61,7.84,7.84,0,0,1-.39,2.63,3.64,3.64,0,0,1-1.12,1.66A2.86,2.86,0,0,1,430.72,73.13Zm0-1a1.8,1.8,0,0,0,.95-.27,1.86,1.86,0,0,0,.66-.73,5.86,5.86,0,0,0,.57-2.85,7.35,7.35,0,0,0-.26-2.09,3,3,0,0,0-.75-1.31,1.65,1.65,0,0,0-1.17-.46,1.74,1.74,0,0,0-.94.27,1.79,1.79,0,0,0-.66.73,5.84,5.84,0,0,0-.58,2.85,7.35,7.35,0,0,0,.26,2.09,2.91,2.91,0,0,0,.74,1.31,1.71,1.71,0,0,0,1.18.44Z"></path><path class="cls-6" d="M389.58,115.55V125h-1.15v-8.25l-2.31,1.53v-1.16l2.36-1.57Zm5.67,9.58a3.18,3.18,0,0,1-1.46-.32,2.85,2.85,0,0,1-1-.89,2.35,2.35,0,0,1-.42-1.28h1.1a1.37,1.37,0,0,0,.19.59,1.5,1.5,0,0,0,.4.47,1.91,1.91,0,0,0,1.24.41,2,2,0,0,0,1-.27,1.9,1.9,0,0,0,.71-.75,2.14,2.14,0,0,0,.27-1.08,2.22,2.22,0,0,0-.28-1.1,2.05,2.05,0,0,0-.74-.78,2.14,2.14,0,0,0-1.07-.28,3,3,0,0,0-.89.13,2.39,2.39,0,0,0-.76.35l-1.07-.13.58-4.65H398v1h-4l-.34,2.79h.06a2.32,2.32,0,0,1,.73-.38,2.81,2.81,0,0,1,.91-.16,2.94,2.94,0,0,1,1.55.42,2.91,2.91,0,0,1,1.07,1.13,3.54,3.54,0,0,1,0,3.25,3.11,3.11,0,0,1-1.11,1.11A3.25,3.25,0,0,1,395.25,125.13Zm5-.13v-.83l3.12-3.42.9-1a4.1,4.1,0,0,0,.53-.84,2.12,2.12,0,0,0,.17-.83,1.56,1.56,0,0,0-.24-.86,1.47,1.47,0,0,0-.64-.57,2.13,2.13,0,0,0-.93-.2,1.84,1.84,0,0,0-1,.23,1.68,1.68,0,0,0-.62.62,2,2,0,0,0-.22,1h-1.09a2.69,2.69,0,0,1,.39-1.46,2.53,2.53,0,0,1,1-1,3.09,3.09,0,0,1,1.49-.35,2.9,2.9,0,0,1,1.47.35,2.65,2.65,0,0,1,1,.94A2.53,2.53,0,0,1,406,118a3.11,3.11,0,0,1-.19,1,4.69,4.69,0,0,1-.65,1.1c-.31.41-.73.9-1.27,1.48l-2.12,2.27V124h4.39v1Zm8.68.07a.87.87,0,0,1-.32-.06.8.8,0,0,1-.27-.18.82.82,0,0,1-.24-.59.8.8,0,0,1,.24-.58.76.76,0,0,1,.42-.23.87.87,0,0,1,.48,0,1,1,0,0,1,.38.31.83.83,0,0,1,.14.46.88.88,0,0,1-.11.42.86.86,0,0,1-.3.3.83.83,0,0,1-.46.11Zm5.52.06a2.79,2.79,0,0,1-1.78-.57,3.64,3.64,0,0,1-1.12-1.66,7.84,7.84,0,0,1-.39-2.63,7.69,7.69,0,0,1,.39-2.61,3.61,3.61,0,0,1,1.13-1.67,3,3,0,0,1,3.54,0,3.61,3.61,0,0,1,1.13,1.67,7.69,7.69,0,0,1,.39,2.61,7.84,7.84,0,0,1-.39,2.63,3.52,3.52,0,0,1-1.12,1.66,2.78,2.78,0,0,1-1.82.57Zm0-1a1.8,1.8,0,0,0,.95-.27,1.86,1.86,0,0,0,.66-.73,5.86,5.86,0,0,0,.57-2.85,7.73,7.73,0,0,0-.26-2.09,2.87,2.87,0,0,0-.75-1.31,1.73,1.73,0,0,0-.54-.35,1.5,1.5,0,0,0-.63-.11,1.74,1.74,0,0,0-.94.27,1.72,1.72,0,0,0-.66.73,5.84,5.84,0,0,0-.58,2.85,7.4,7.4,0,0,0,.26,2.09,2.91,2.91,0,0,0,.74,1.31,1.71,1.71,0,0,0,1.14.44Zm8.13,1a2.79,2.79,0,0,1-1.78-.57,3.44,3.44,0,0,1-1.12-1.66,7.84,7.84,0,0,1-.39-2.63,7.69,7.69,0,0,1,.39-2.61A3.67,3.67,0,0,1,420.8,116a2.79,2.79,0,0,1,1.78-.57,2.73,2.73,0,0,1,1.76.57,3.51,3.51,0,0,1,1.13,1.67,7.69,7.69,0,0,1,.39,2.61,8.1,8.1,0,0,1-.38,2.63,3.53,3.53,0,0,1-1.13,1.66,2.76,2.76,0,0,1-1.81.57Zm0-1a1.74,1.74,0,0,0,.94-.27,1.72,1.72,0,0,0,.66-.73,5.73,5.73,0,0,0,.58-2.85,7.36,7.36,0,0,0-.27-2.09,2.91,2.91,0,0,0-.74-1.31,1.65,1.65,0,0,0-1.17-.46,1.78,1.78,0,0,0-.95.27,1.86,1.86,0,0,0-.66.73,5.86,5.86,0,0,0-.57,2.85,7,7,0,0,0,.26,2.09,2.91,2.91,0,0,0,.74,1.31,1.71,1.71,0,0,0,1.14.44Zm8.12,1a2.79,2.79,0,0,1-1.78-.57,3.64,3.64,0,0,1-1.12-1.66,7.59,7.59,0,0,1-.38-2.63,7.44,7.44,0,0,1,.38-2.61,3.61,3.61,0,0,1,1.13-1.67,3,3,0,0,1,3.54,0,3.61,3.61,0,0,1,1.13,1.67,7.69,7.69,0,0,1,.39,2.61,7.84,7.84,0,0,1-.39,2.63,3.52,3.52,0,0,1-1.12,1.66,2.78,2.78,0,0,1-1.82.57Zm0-1a1.8,1.8,0,0,0,.95-.27,1.86,1.86,0,0,0,.66-.73,5.86,5.86,0,0,0,.57-2.85,7.73,7.73,0,0,0-.26-2.09,2.87,2.87,0,0,0-.75-1.31,1.73,1.73,0,0,0-.54-.35,1.5,1.5,0,0,0-.63-.11,1.74,1.74,0,0,0-.94.27,1.72,1.72,0,0,0-.66.73,5.84,5.84,0,0,0-.58,2.85,7.4,7.4,0,0,0,.26,2.09,2.91,2.91,0,0,0,.74,1.31,1.71,1.71,0,0,0,1.14.44Z"></path><path class="cls-6" d="M390.77,168.55V178h-1.14v-8.25h-.06l-2.31,1.53v-1.16l2.37-1.57Zm5.68,9.58a3.25,3.25,0,0,1-1.47-.32,2.77,2.77,0,0,1-1-.89,2.45,2.45,0,0,1-.43-1.28h1.11a1.5,1.5,0,0,0,.18.59,1.64,1.64,0,0,0,.4.47,2,2,0,0,0,1.25.41,2,2,0,0,0,1.75-1,2.37,2.37,0,0,0,0-2.18,2.05,2.05,0,0,0-.74-.78,2.15,2.15,0,0,0-1.08-.28,3,3,0,0,0-.89.13,2.34,2.34,0,0,0-.75.35l-1.07-.13.57-4.65h4.91v1h-3.95l-.33,2.79a2.82,2.82,0,0,1,.73-.38,2.92,2.92,0,0,1,2,0,3,3,0,0,1,1.51,1.35,3.46,3.46,0,0,1,0,3.25,3,3,0,0,1-1.11,1.11A3.16,3.16,0,0,1,396.45,178.13Zm8.27-9.58V178h-1.14v-8.25h-.06l-2.3,1.53v-1.16l2.36-1.57Zm3,9.52a.86.86,0,0,1-.46-.14.84.84,0,0,1-.3-.37.79.79,0,0,1,0-.48.79.79,0,0,1,.64-.64.87.87,0,0,1,.48.05.78.78,0,0,1,.37.3.89.89,0,0,1,.15.45.79.79,0,0,1-.12.42.86.86,0,0,1-.3.3A.84.84,0,0,1,407.72,178.07Zm5.52.06a2.79,2.79,0,0,1-1.78-.57,3.52,3.52,0,0,1-1.12-1.66,7.84,7.84,0,0,1-.39-2.63,7.69,7.69,0,0,1,.39-2.61,3.61,3.61,0,0,1,1.13-1.67,3,3,0,0,1,3.54,0,3.67,3.67,0,0,1,1.12,1.67,7.7,7.7,0,0,1,.4,2.61,7.84,7.84,0,0,1-.39,2.63,3.64,3.64,0,0,1-1.12,1.66,2.84,2.84,0,0,1-1.8.57Zm0-1a1.78,1.78,0,0,0,.95-.27,1.86,1.86,0,0,0,.66-.73,5.86,5.86,0,0,0,.57-2.85,7.36,7.36,0,0,0-.27-2.09,2.91,2.91,0,0,0-.74-1.31,1.65,1.65,0,0,0-1.17-.46,1.74,1.74,0,0,0-.94.27,1.79,1.79,0,0,0-.66.73,5.84,5.84,0,0,0-.58,2.85,7,7,0,0,0,.26,2.09,2.91,2.91,0,0,0,.74,1.31,1.76,1.76,0,0,0,1.16.44Zm8.12,1a2.76,2.76,0,0,1-1.77-.57,3.53,3.53,0,0,1-1.13-1.66,8.1,8.1,0,0,1-.38-2.63,7.94,7.94,0,0,1,.38-2.61,3.69,3.69,0,0,1,1.13-1.67,3,3,0,0,1,3.54,0,3.61,3.61,0,0,1,1.13,1.67,7.69,7.69,0,0,1,.39,2.61,7.84,7.84,0,0,1-.39,2.63,3.52,3.52,0,0,1-1.12,1.66,2.84,2.84,0,0,1-1.8.57Zm0-1a1.78,1.78,0,0,0,.95-.27,1.86,1.86,0,0,0,.66-.73,5.86,5.86,0,0,0,.57-2.85,7.73,7.73,0,0,0-.26-2.09,2.87,2.87,0,0,0-.75-1.31,1.62,1.62,0,0,0-.54-.35,1.5,1.5,0,0,0-.63-.11,1.74,1.74,0,0,0-.94.27,1.86,1.86,0,0,0-.66.73,5.87,5.87,0,0,0-.58,2.85,7.4,7.4,0,0,0,.26,2.09,2.87,2.87,0,0,0,.75,1.31,1.76,1.76,0,0,0,1.15.44Zm8.13,1a2.79,2.79,0,0,1-1.78-.57,3.52,3.52,0,0,1-1.12-1.66,7.84,7.84,0,0,1-.39-2.63,7.69,7.69,0,0,1,.39-2.61A3.62,3.62,0,0,1,427.7,169a3,3,0,0,1,3.54,0,3.67,3.67,0,0,1,1.12,1.67,7.7,7.7,0,0,1,.4,2.61,7.84,7.84,0,0,1-.39,2.63,3.64,3.64,0,0,1-1.12,1.66,2.84,2.84,0,0,1-1.78.56Zm0-1a1.78,1.78,0,0,0,.95-.27,1.86,1.86,0,0,0,.66-.73,5.86,5.86,0,0,0,.57-2.85,7.36,7.36,0,0,0-.27-2.09,2.91,2.91,0,0,0-.74-1.31,1.65,1.65,0,0,0-1.17-.46,1.74,1.74,0,0,0-.94.27,1.79,1.79,0,0,0-.66.73,5.84,5.84,0,0,0-.58,2.85,7.4,7.4,0,0,0,.26,2.09,2.91,2.91,0,0,0,.74,1.31,1.76,1.76,0,0,0,1.16.44Z"></path><path class="cls-6" d="M389.62,221.55V231h-1.15v-8.25h-.05l-2.31,1.53v-1.16l2.36-1.57Zm5.67,9.58a3.24,3.24,0,0,1-1.46-.32,2.74,2.74,0,0,1-1.05-.89,2.45,2.45,0,0,1-.43-1.28h1.11a1.5,1.5,0,0,0,.18.59,1.64,1.64,0,0,0,.4.47,2.09,2.09,0,0,0,1.12.4,2,2,0,0,0,1.16-.26,1.85,1.85,0,0,0,.72-.75,2.13,2.13,0,0,0,.26-1.08,2.24,2.24,0,0,0-.27-1.1,2.05,2.05,0,0,0-.74-.78,2.11,2.11,0,0,0-1.07-.28,3,3,0,0,0-.89.13,2.39,2.39,0,0,0-.76.35l-1.07-.13.57-4.65H398v1h-4l-.33,2.79h.06a2.32,2.32,0,0,1,.73-.38,2.81,2.81,0,0,1,.91-.16,2.86,2.86,0,0,1,1.53.41,2.91,2.91,0,0,1,1.09,1.14,3.54,3.54,0,0,1,0,3.25,3.11,3.11,0,0,1-1.11,1.11A3.25,3.25,0,0,1,395.29,231.13Zm8,0a2.79,2.79,0,0,1-1.78-.57,3.44,3.44,0,0,1-1.12-1.66,7.84,7.84,0,0,1-.39-2.63,7.69,7.69,0,0,1,.39-2.61,3.61,3.61,0,0,1,1.13-1.67,3,3,0,0,1,3.54,0,3.52,3.52,0,0,1,1.12,1.67,7.7,7.7,0,0,1,.4,2.61,7.84,7.84,0,0,1-.39,2.63,3.64,3.64,0,0,1-1.12,1.66,2.8,2.8,0,0,1-1.74.57Zm0-1a1.74,1.74,0,0,0,.94-.27,1.79,1.79,0,0,0,.66-.73,5.73,5.73,0,0,0,.58-2.85,7.36,7.36,0,0,0-.27-2.09,2.91,2.91,0,0,0-.74-1.31,1.65,1.65,0,0,0-1.17-.46,1.74,1.74,0,0,0-.94.27,1.79,1.79,0,0,0-.66.73,5.84,5.84,0,0,0-.58,2.85,7.4,7.4,0,0,0,.26,2.09,2.91,2.91,0,0,0,.74,1.31,1.7,1.7,0,0,0,1.22.44Zm5.52,1a.85.85,0,0,1-.83-.83A.87.87,0,0,1,408,230a1,1,0,0,1,.45-.45.88.88,0,0,1,.64,0,.83.83,0,0,1,.27.19.76.76,0,0,1,.18.26.87.87,0,0,1,.06.32.78.78,0,0,1-.11.42.86.86,0,0,1-.3.3.71.71,0,0,1-.38,0Zm5.52.06a2.76,2.76,0,0,1-1.77-.57,3.53,3.53,0,0,1-1.13-1.66,8.1,8.1,0,0,1-.38-2.63,7.94,7.94,0,0,1,.38-2.61A3.71,3.71,0,0,1,412.6,222a3,3,0,0,1,3.54,0,3.61,3.61,0,0,1,1.13,1.67,7.69,7.69,0,0,1,.39,2.61,7.84,7.84,0,0,1-.39,2.63,3.44,3.44,0,0,1-1.12,1.66,2.84,2.84,0,0,1-1.78.56Zm0-1a1.78,1.78,0,0,0,.95-.27,1.86,1.86,0,0,0,.66-.73,5.86,5.86,0,0,0,.57-2.85,7,7,0,0,0-.26-2.09,2.87,2.87,0,0,0-.75-1.31,1.62,1.62,0,0,0-.54-.35,1.5,1.5,0,0,0-.63-.11,1.74,1.74,0,0,0-.94.27,1.79,1.79,0,0,0-.66.73,5.86,5.86,0,0,0-.57,2.85,7.39,7.39,0,0,0,.25,2.09,2.87,2.87,0,0,0,.75,1.31,1.66,1.66,0,0,0,1.21.38Zm8.13,1a2.79,2.79,0,0,1-1.78-.57,3.44,3.44,0,0,1-1.12-1.66,7.84,7.84,0,0,1-.39-2.63,7.69,7.69,0,0,1,.39-2.61,3.61,3.61,0,0,1,1.13-1.67,3,3,0,0,1,3.54,0,3.52,3.52,0,0,1,1.12,1.67,7.45,7.45,0,0,1,.39,2.61,7.83,7.83,0,0,1-.38,2.63,3.52,3.52,0,0,1-1.12,1.66,2.84,2.84,0,0,1-1.74.51Zm0-1a1.74,1.74,0,0,0,.94-.27,1.72,1.72,0,0,0,.66-.73,5.73,5.73,0,0,0,.58-2.85,7.36,7.36,0,0,0-.27-2.09,2.91,2.91,0,0,0-.74-1.31,1.65,1.65,0,0,0-1.17-.46,1.74,1.74,0,0,0-.94.27,1.79,1.79,0,0,0-.66.73,5.84,5.84,0,0,0-.58,2.85,7.4,7.4,0,0,0,.26,2.09,2.91,2.91,0,0,0,.74,1.31,1.73,1.73,0,0,0,1.22.38Zm8.12,1a2.76,2.76,0,0,1-1.77-.57,3.53,3.53,0,0,1-1.13-1.66,8.1,8.1,0,0,1-.38-2.63,7.94,7.94,0,0,1,.38-2.61,3.69,3.69,0,0,1,1.13-1.67,3,3,0,0,1,3.54,0,3.61,3.61,0,0,1,1.13,1.67,7.69,7.69,0,0,1,.39,2.61,7.84,7.84,0,0,1-.39,2.63,3.52,3.52,0,0,1-1.12,1.66,2.78,2.78,0,0,1-1.74.51Zm0-1a1.78,1.78,0,0,0,.95-.27,1.86,1.86,0,0,0,.66-.73,5.86,5.86,0,0,0,.57-2.85,7,7,0,0,0-.26-2.09,2.87,2.87,0,0,0-.75-1.31,1.62,1.62,0,0,0-.54-.35,1.5,1.5,0,0,0-.63-.11,1.74,1.74,0,0,0-.94.27,1.79,1.79,0,0,0-.66.73,5.86,5.86,0,0,0-.57,2.85,7.39,7.39,0,0,0,.25,2.09,2.92,2.92,0,0,0,.75,1.31,1.66,1.66,0,0,0,1.21.38Z"></path><path class="cls-6" d="M389.41,275.55V285h-1.15v-8.25L386,278.28v-1.16l2.36-1.57Zm2.5,7.51v-.94l4.15-6.57h.68V277h-.46l-3.14,5v.08h5.6v1Zm4.44,1.94v-9.45h1.09V285Zm7.13-9.58a3.27,3.27,0,0,1,1.16.22,2.67,2.67,0,0,1,1.06.72,3.41,3.41,0,0,1,.77,1.36,6.93,6.93,0,0,1,.29,2.17,9.29,9.29,0,0,1-.24,2.23,5.1,5.1,0,0,1-.68,1.65,3.23,3.23,0,0,1-1.08,1,2.86,2.86,0,0,1-1.43.35,3.16,3.16,0,0,1-1.42-.31,2.85,2.85,0,0,1-1-.89,3.1,3.1,0,0,1-.51-1.31h1.13a2.12,2.12,0,0,0,.6,1.07,1.72,1.72,0,0,0,1.21.42,2,2,0,0,0,1-.25,2,2,0,0,0,.74-.7,4.9,4.9,0,0,0,.63-2.7h-.07a3,3,0,0,1-.61.67,2.64,2.64,0,0,1-.79.43,3.06,3.06,0,0,1-1.24.13,2.93,2.93,0,0,1-1.18-.38,3,3,0,0,1-1.08-1.11,3.2,3.2,0,0,1-.4-1.63,3.24,3.24,0,0,1,.39-1.58,2.92,2.92,0,0,1,1.1-1.16A3.1,3.1,0,0,1,403.48,275.42Zm0,1a2.05,2.05,0,0,0-1.05.29,2,2,0,0,0-.73.78,2.28,2.28,0,0,0,0,2.15,2,2,0,0,0,2.57.88,2.24,2.24,0,0,0,.66-.48,2.08,2.08,0,0,0,.44-.69,2,2,0,0,0,.17-.8,2.2,2.2,0,0,0-.27-1,2.13,2.13,0,0,0-.73-.79,1.9,1.9,0,0,0-1.06-.33Zm5.58,8.64a.87.87,0,0,1-.32-.06.8.8,0,0,1-.27-.18.83.83,0,0,1,0-1.17.76.76,0,0,1,.42-.23.79.79,0,0,1,.48.05.81.81,0,0,1,.52.76.88.88,0,0,1-.11.42.86.86,0,0,1-.3.3.79.79,0,0,1-.42.12Zm5.52.06a2.76,2.76,0,0,1-1.77-.57,3.53,3.53,0,0,1-1.13-1.66,7.59,7.59,0,0,1-.38-2.63,7.44,7.44,0,0,1,.38-2.61,3.69,3.69,0,0,1,1.13-1.67,3,3,0,0,1,3.54,0,3.61,3.61,0,0,1,1.13,1.67,7.69,7.69,0,0,1,.39,2.61,7.84,7.84,0,0,1-.39,2.63,3.52,3.52,0,0,1-1.12,1.66,2.8,2.8,0,0,1-1.78.58Zm0-1a1.78,1.78,0,0,0,.95-.27,1.86,1.86,0,0,0,.66-.73,5.86,5.86,0,0,0,.57-2.85,7.73,7.73,0,0,0-.26-2.09,2.87,2.87,0,0,0-.75-1.31,1.62,1.62,0,0,0-.54-.35,1.5,1.5,0,0,0-.63-.11,1.83,1.83,0,0,0-.94.27,1.79,1.79,0,0,0-.66.73,5.87,5.87,0,0,0-.58,2.85,7.35,7.35,0,0,0,.26,2.09,2.92,2.92,0,0,0,.75,1.31,1.7,1.7,0,0,0,1.17.45Zm8.13,1a2.79,2.79,0,0,1-1.78-.57,3.44,3.44,0,0,1-1.12-1.66,7.84,7.84,0,0,1-.39-2.63,7.69,7.69,0,0,1,.39-2.61,3.67,3.67,0,0,1,1.12-1.67,3,3,0,0,1,3.55,0,3.67,3.67,0,0,1,1.12,1.67,7.69,7.69,0,0,1,.39,2.61,7.83,7.83,0,0,1-.38,2.63,3.53,3.53,0,0,1-1.13,1.66,2.77,2.77,0,0,1-1.77.58Zm0-1a1.8,1.8,0,0,0,1-.27,1.86,1.86,0,0,0,.66-.73,5.86,5.86,0,0,0,.57-2.85,7.36,7.36,0,0,0-.27-2.09,2.91,2.91,0,0,0-.74-1.31,1.65,1.65,0,0,0-1.17-.46,1.74,1.74,0,0,0-.94.27,1.79,1.79,0,0,0-.66.73,5.84,5.84,0,0,0-.58,2.85,7,7,0,0,0,.26,2.09,2.91,2.91,0,0,0,.74,1.31,1.75,1.75,0,0,0,1.18.45Zm8.12,1a2.76,2.76,0,0,1-1.77-.57,3.53,3.53,0,0,1-1.13-1.66,7.59,7.59,0,0,1-.38-2.63,7.44,7.44,0,0,1,.38-2.61,3.69,3.69,0,0,1,1.13-1.67,3,3,0,0,1,3.54,0,3.61,3.61,0,0,1,1.13,1.67,7.69,7.69,0,0,1,.39,2.61,7.84,7.84,0,0,1-.39,2.63,3.52,3.52,0,0,1-1.12,1.66,2.8,2.8,0,0,1-1.78.58Zm0-1a1.78,1.78,0,0,0,.95-.27,1.86,1.86,0,0,0,.66-.73,5.86,5.86,0,0,0,.57-2.85,7.73,7.73,0,0,0-.26-2.09,2.87,2.87,0,0,0-.75-1.31,1.62,1.62,0,0,0-.54-.35,1.5,1.5,0,0,0-.63-.11,1.83,1.83,0,0,0-.94.27,1.79,1.79,0,0,0-.66.73,5.87,5.87,0,0,0-.58,2.85,7.35,7.35,0,0,0,.26,2.09,2.92,2.92,0,0,0,.75,1.31,1.7,1.7,0,0,0,1.17.45Z"></path><path class="cls-7" d="M327,111v64"></path><path class="cls-8" d="M327,152.42V175"></path><path class="cls-7" d="M317,172.51v50.2"></path><path class="cls-8" d="M317,172.51v50.2"></path><path class="cls-7" d="M306.92,187.57V229"></path><path class="cls-8" d="M306.92,216.44v3.76"></path><path class="cls-9" d="M296.88,160v59"></path><path class="cls-10" d="M296.88,212.67V166.23"></path><path class="cls-7" d="M286.83,161.21V234"></path><path class="cls-8" d="M286.83,163.72V224"></path><path class="cls-9" d="M276.79,197.61v27.61"></path><path class="cls-10" d="M276.79,224v-7.53"></path><path class="cls-9" d="M266.75,167.48V219"></path><path class="cls-10" d="M266.75,217.69V167.48"></path><path class="cls-9" d="M256.71,122.3v62.76"></path><path class="cls-10" d="M256.71,157.44V126.06"></path><path class="cls-7" d="M246.67,121v40.17"></path><path class="cls-8" d="M246.67,123.55v37.66"></path><path class="cls-7" d="M236.62,153.68v38.91"></path><path class="cls-8" d="M236.62,153.68v13.8"></path><path class="cls-9" d="M226.58,158.7v32.63"></path><path class="cls-10" d="M226.58,178.78V158.7"></path><path class="cls-7" d="M216.54,139.87V195.1"></path><path class="cls-8" d="M216.54,161.21v25.1"></path><path class="cls-9" d="M206.5,167.48v25.11"></path><path class="cls-10" d="M206.5,187.57v-8.79"></path><path class="cls-7" d="M196.46,156.19v45.19"></path><path class="cls-8" d="M196.46,183.8v11.3"></path><path class="cls-7" d="M186.42,188.82v77.83"></path><path class="cls-8" d="M186.42,188.82v77.83"></path><path class="cls-7" d="M176.38,247.82V290.5"></path><path class="cls-8" d="M176.38,262.88V290.5"></path><path class="cls-9" d="M166.33,230.25V288"></path><path class="cls-10" d="M166.33,288V230.25"></path><path class="cls-7" d="M156.29,227.73v69"></path><path class="cls-8" d="M156.29,227.73v33.9"></path><path class="cls-7" d="M146.25,252.84v65.27"></path><path class="cls-8" d="M146.25,259.12v46.44"></path><path class="cls-7" d="M136.21,299.28V406"></path><path class="cls-8" d="M136.21,299.28V403.46"></path><path class="cls-11" d="M-979,153.5H378"></path><g class="cls-12"><path class="cls-13" d="M442,143H378v22h64Z"></path><path class="cls-1" d="M389.44,152.06v-.81a4.35,4.35,0,0,0,1.59-.37,1.86,1.86,0,0,0,.68-1.23h.83V158h-1.13v-5.94Zm7,3.8a1.43,1.43,0,0,0,.25.74,1.39,1.39,0,0,0,.59.51,2,2,0,0,0,.87.18,1.57,1.57,0,0,0,.77-.13,1.68,1.68,0,0,0,.62-.47,2.2,2.2,0,0,0,.45-1.33,1.86,1.86,0,0,0-.12-.74,1.66,1.66,0,0,0-.42-.62,1.84,1.84,0,0,0-1.28-.48,1.91,1.91,0,0,0-.94.21,2.08,2.08,0,0,0-.66.59h-.92l.64-4.52h4.36v1h-3.57l-.36,2.33a2.12,2.12,0,0,1,.56-.33,2.74,2.74,0,0,1,1.09-.2,2.66,2.66,0,0,1,1.08.17,2.87,2.87,0,0,1,.92.58,2.5,2.5,0,0,1,.61.86,2.4,2.4,0,0,1,.2,1,3.2,3.2,0,0,1-.74,2.09,2.92,2.92,0,0,1-1.07.73,2.81,2.81,0,0,1-1.28.18,3,3,0,0,1-1.81-.57,2.24,2.24,0,0,1-.64-.79,2.16,2.16,0,0,1-.24-1Zm6.35-3.8v-.81a4.35,4.35,0,0,0,1.59-.37,1.86,1.86,0,0,0,.68-1.23h.83V158h-1.13v-5.94Zm6.55,4.66h1.23V158h-1.23ZM412,158a4.94,4.94,0,0,1,.45-1.89,3.69,3.69,0,0,1,1.52-1.46l1.13-.65a5.22,5.22,0,0,0,1.06-.75,1.57,1.57,0,0,0,.36-.51,1.53,1.53,0,0,0,.12-.6,1.7,1.7,0,0,0-.1-.63,1.55,1.55,0,0,0-.34-.53,1.53,1.53,0,0,0-1.17-.43,1.51,1.51,0,0,0-.88.18,1.59,1.59,0,0,0-.62.64,3,3,0,0,0-.25,1.22h-1.07a3.84,3.84,0,0,1,.4-1.79,2.53,2.53,0,0,1,2.42-1.22,2.67,2.67,0,0,1,1.05.1,2.49,2.49,0,0,1,.9.53,2.45,2.45,0,0,1,.62.85,2.6,2.6,0,0,1,.21,1,2.53,2.53,0,0,1-.18.94,2.44,2.44,0,0,1-.53.79,7.33,7.33,0,0,1-1.47,1l-.81.45a5.42,5.42,0,0,0-.9.6,2.2,2.2,0,0,0-.74,1.13h4.58v1Zm7.79-2.14a1.43,1.43,0,0,0,.25.74,1.39,1.39,0,0,0,.59.51,2,2,0,0,0,.87.18,1.69,1.69,0,0,0,.77-.13,1.79,1.79,0,0,0,.62-.47,2.2,2.2,0,0,0,.45-1.33,1.86,1.86,0,0,0-.12-.74,1.66,1.66,0,0,0-.42-.62,1.86,1.86,0,0,0-1.29-.48,1.89,1.89,0,0,0-.93.21,2.08,2.08,0,0,0-.66.59H419l.64-4.52H424v1h-3.57l-.36,2.33a2.12,2.12,0,0,1,.56-.33,2.9,2.9,0,0,1,1.57-.13,3,3,0,0,1,1.43.68,2.5,2.5,0,0,1,.61.86,2.42,2.42,0,0,1,.19,1,3.25,3.25,0,0,1-.73,2.09,2.92,2.92,0,0,1-1.07.73,2.79,2.79,0,0,1-1.28.18,3,3,0,0,1-1.82-.57,2.24,2.24,0,0,1-.64-.79,2.28,2.28,0,0,1-.23-1Zm6.68,0a1.43,1.43,0,0,0,.25.74,1.39,1.39,0,0,0,.59.51,2,2,0,0,0,.87.18,1.53,1.53,0,0,0,.76-.13,1.6,1.6,0,0,0,.62-.47,2.15,2.15,0,0,0,.46-1.33,1.86,1.86,0,0,0-.12-.74,1.66,1.66,0,0,0-.42-.62,1.85,1.85,0,0,0-1.29-.48,1.89,1.89,0,0,0-.93.21,2.08,2.08,0,0,0-.66.59h-.92l.64-4.52h4.36v1h-3.57l-.36,2.33a2.12,2.12,0,0,1,.56-.33,2.93,2.93,0,0,1,1.58-.13,3,3,0,0,1,1.42.68,2.5,2.5,0,0,1,.61.86,2.42,2.42,0,0,1,.19,1,3.25,3.25,0,0,1-.73,2.09,2.92,2.92,0,0,1-1.07.73,2.81,2.81,0,0,1-1.28.18,3,3,0,0,1-1.82-.57,2.24,2.24,0,0,1-.64-.79,2.28,2.28,0,0,1-.23-1Z"></path></g><path class="cls-6" d="M347.12,19.88v3.5H348V19h-4.38v.88Z"></path><path class="cls-6" d="M343.5,24.12l4.37-4.37-.62-.62-4.37,4.37Zm-8.62-4.24v3.5H334V19h4.38v.88Z"></path><path class="cls-6" d="M338.5,24.12l-4.37-4.37.62-.62,4.37,4.37Zm8.62,8v-3.5H348V33h-4.38v-.88Z"></path><path class="cls-6" d="M343.5,27.88l4.37,4.37-.62.62-4.37-4.37Z"></path><path class="cls-6" d="M334.88,32.13v-3.5H334V33h4.38v-.87Z"></path><path class="cls-6" d="M338.5,27.88l-4.37,4.37.62.62,4.37-4.37Z"></path><path class="cls-14" d="M378.73,19.88a.46.46,0,0,1,.23-.06h4a.46.46,0,0,1,.23.06.35.35,0,0,1,.15.17l.74,1.42h3.7a1.34,1.34,0,0,1,.91.36,1.26,1.26,0,0,1,.28.4,1.32,1.32,0,0,1,.09.48v8.23a1.16,1.16,0,0,1-.37.87,1.29,1.29,0,0,1-.91.37H374.14a1.29,1.29,0,0,1-.91-.37,1.16,1.16,0,0,1-.37-.87V22.71a1.32,1.32,0,0,1,.09-.48,1.26,1.26,0,0,1,.28-.4,1.34,1.34,0,0,1,.91-.36h3.7l.74-1.42A.41.41,0,0,1,378.73,19.88Zm-.45-.7a1.33,1.33,0,0,0-.47.5l-.5,1h-3.17a2.18,2.18,0,0,0-1.51.6,2,2,0,0,0-.47.67,2,2,0,0,0-.16.79V31a1.94,1.94,0,0,0,.63,1.46,2.23,2.23,0,0,0,1.51.6h13.72a2.16,2.16,0,0,0,1.19-.33,2.11,2.11,0,0,0,.81-.94A2,2,0,0,0,390,31V22.71a2,2,0,0,0-.16-.79,2.08,2.08,0,0,0-.47-.67,2.22,2.22,0,0,0-.69-.45,2.29,2.29,0,0,0-.82-.15h-3.17l-.5-1A1.28,1.28,0,0,0,383,19h-4A1.31,1.31,0,0,0,378.28,19.18Zm3.87,10.31a3.26,3.26,0,0,1-1.15.22,3,3,0,0,1-2.12-.85,2.74,2.74,0,0,1-.65-.93,2.77,2.77,0,0,1,0-2.21,2.74,2.74,0,0,1,.65-.93,3,3,0,0,1,2.12-.85,3.26,3.26,0,0,1,1.15.22,3.08,3.08,0,0,1,1,.63,2.74,2.74,0,0,1,.65.93,2.8,2.8,0,0,1-.65,3.14A3.08,3.08,0,0,1,382.15,29.49Zm1.58,0a4,4,0,0,1-5.46,0,3.59,3.59,0,0,1,0-5.24,4,4,0,0,1,5.46,0,3.59,3.59,0,0,1,0,5.24Z"></path><path class="cls-6" d="M421,28.4a2.39,2.39,0,0,1-.92-.18,2.4,2.4,0,0,1,0-4.44,2.29,2.29,0,0,1,1-.18,2.59,2.59,0,0,1,1,.28,2.5,2.5,0,0,1,.79.69,2.45,2.45,0,0,1,.43,1,2.48,2.48,0,0,1,0,1,2.6,2.6,0,0,1-.47.94,2.63,2.63,0,0,1-.83.65A2.41,2.41,0,0,1,421,28.4Zm0-.8a1.65,1.65,0,0,0,1-.36,1.6,1.6,0,0,0-1.48-2.77,1.59,1.59,0,0,0-.87.64,1.61,1.61,0,0,0-.26,1,1.63,1.63,0,0,0,.46,1A1.61,1.61,0,0,0,421,27.6Z"></path><path class="cls-14" d="M413.8,27.6a.81.81,0,0,1-.57-.24.78.78,0,0,1-.17-.26.81.81,0,0,1-.06-.31V25.21a.81.81,0,0,1,.06-.31.78.78,0,0,1,.17-.26.68.68,0,0,1,.26-.18.81.81,0,0,1,.31-.06h1a6.6,6.6,0,0,1,.68-1.65l-.73-.74a.8.8,0,0,1,0-1.1l1.14-1.14a.78.78,0,0,1,.26-.17.81.81,0,0,1,.31-.06.77.77,0,0,1,.3.06.68.68,0,0,1,.26.18l.71.7a6.6,6.6,0,0,1,1.65-.68v-1a.82.82,0,0,1,.8-.8h1.6a.81.81,0,0,1,.31.06,1.06,1.06,0,0,1,.26.17.9.9,0,0,1,.17.26.81.81,0,0,1,.06.31v1a6.6,6.6,0,0,1,1.65.68l.71-.7a.68.68,0,0,1,.26-.18.8.8,0,0,1,.3-.06.81.81,0,0,1,.31.06.78.78,0,0,1,.26.17l1.14,1.14a.8.8,0,0,1,0,1.1l-.73.74a6.6,6.6,0,0,1,.68,1.65h1a.81.81,0,0,1,.31.06.76.76,0,0,1,.26.18.78.78,0,0,1,.17.26.81.81,0,0,1,.06.31v1.58a.81.81,0,0,1-.06.31.78.78,0,0,1-.17.26.76.76,0,0,1-.26.18.81.81,0,0,1-.31.06h-1a6.6,6.6,0,0,1-.68,1.65l.7.71a.68.68,0,0,1,.18.26.77.77,0,0,1,.06.3.81.81,0,0,1-.06.31.78.78,0,0,1-.17.26l-1.14,1.14a.78.78,0,0,1-.26.17.81.81,0,0,1-.31.06.77.77,0,0,1-.3-.06.68.68,0,0,1-.26-.18l-.71-.7a6.6,6.6,0,0,1-1.65.68v1a.81.81,0,0,1-.06.31.76.76,0,0,1-.18.26.78.78,0,0,1-.26.17.81.81,0,0,1-.31.06h-1.58a.81.81,0,0,1-.31-.06.78.78,0,0,1-.26-.17.8.8,0,0,1-.18-.27.77.77,0,0,1-.06-.3v-1a6.6,6.6,0,0,1-1.65-.68l-.71.7a.68.68,0,0,1-.26.18.8.8,0,0,1-.3.06.81.81,0,0,1-.31-.06.78.78,0,0,1-.26-.17l-1.14-1.14a.78.78,0,0,1-.17-.26.81.81,0,0,1-.06-.31.77.77,0,0,1,.06-.3.68.68,0,0,1,.18-.26l.7-.71a6.6,6.6,0,0,1-.68-1.65Zm2.71-5-.18.27a5.17,5.17,0,0,0-.82,2l-.06.32H413.8v1.59h1.65l.06.32a5.64,5.64,0,0,0,.82,2l.18.27-1.16,1.17,1.12,1.14,1.18-1.17.27.19a5.62,5.62,0,0,0,2,.81l.32.06V33.2h1.59V31.55l.32-.06a5.62,5.62,0,0,0,2-.81l.27-.19,1.17,1.16,1.14-1.12-1.17-1.18.18-.27a5.33,5.33,0,0,0,.82-2l.06-.32h1.65V25.21h-1.65l-.06-.32a5.33,5.33,0,0,0-.82-2l-.18-.27,1.1-1.11.07-.07-1.13-1.13-1.18,1.17-.27-.19a5.62,5.62,0,0,0-2-.81l-.32-.06V18.8h-1.59v1.65l-.32.06a5.62,5.62,0,0,0-2,.81l-.27.19-1.17-1.16-1.14,1.12Z"></path><path class="cls-15" d="M402.72,183.85H52.56a11.21,11.21,0,0,0-11.21,11.21v99.85a11.21,11.21,0,0,0,11.21,11.21H402.72a11.21,11.21,0,0,0,11.21-11.21V195.06A11.21,11.21,0,0,0,402.72,183.85Z"></path><g class="cls-16"><path class="cls-17" d="M403,183H52a12,12,0,0,0-12,12V295a12,12,0,0,0,12,12H403a12,12,0,0,0,12-12V195A12,12,0,0,0,403,183Z"></path><g class="cls-18"><path class="cls-6" d="M55,205a1,1,0,0,1,.17-.56.94.94,0,0,1,.45-.36,1,1,0,0,1,.58-.06,1,1,0,0,1,.78.78,1,1,0,0,1-.06.58,1,1,0,0,1-.36.45,1,1,0,0,1-1.27-.12A1.05,1.05,0,0,1,55,205Z"></path><path class="cls-6" d="M55,201a1,1,0,0,1,.17-.56.94.94,0,0,1,.45-.36,1,1,0,0,1,.58-.06,1,1,0,0,1,.78.78,1,1,0,0,1-.06.58,1,1,0,0,1-.36.45,1,1,0,0,1-1.27-.12A1.05,1.05,0,0,1,55,201Z"></path><path class="cls-6" d="M59,205a1,1,0,0,1,.17-.56.94.94,0,0,1,.45-.36,1,1,0,0,1,.58-.06,1,1,0,0,1,.78.78,1,1,0,0,1-.06.58,1,1,0,0,1-.36.45,1,1,0,0,1-1.27-.12A1.05,1.05,0,0,1,59,205Z"></path><path class="cls-6" d="M59,201a1,1,0,0,1,.17-.56.94.94,0,0,1,.45-.36,1,1,0,0,1,.58-.06,1,1,0,0,1,.78.78,1,1,0,0,1-.06.58,1,1,0,0,1-.36.45,1,1,0,0,1-1.27-.12A1.05,1.05,0,0,1,59,201Z"></path><path class="cls-6" d="M63,205a1,1,0,0,1,.17-.56.94.94,0,0,1,.45-.36,1,1,0,0,1,.58-.06,1,1,0,0,1,.78.78,1,1,0,0,1-.06.58,1,1,0,0,1-.36.45,1,1,0,0,1-1.27-.12A1.05,1.05,0,0,1,63,205Z"></path><path class="cls-6" d="M63,201a1,1,0,0,1,.17-.56.94.94,0,0,1,.45-.36,1,1,0,0,1,.58-.06,1,1,0,0,1,.78.78,1,1,0,0,1-.06.58,1,1,0,0,1-.36.45,1,1,0,0,1-1.27-.12A1.05,1.05,0,0,1,63,201Z"></path><path class="cls-19" d="M209,191.5H149a5.5,5.5,0,0,0-5.5,5.5v12a5.5,5.5,0,0,0,5.5,5.5h60a5.5,5.5,0,0,0,5.5-5.5V197A5.5,5.5,0,0,0,209,191.5Z"></path><path class="cls-1" d="M153.35,200.18h1.52l1.6,3.91h.07l1.6-3.91h1.52V206h-1.2v-3.79h-.05l-1.5,3.76h-.81l-1.51-3.77h-.05V206h-1.19Zm8.32,5.82h-1.32l2-5.82H164l2,5.82h-1.31l-1.46-4.49h0Zm-.08-2.29h3.11v1h-3.11Zm5.06,2.29v-5.82H169a2.41,2.41,0,0,1,1.12.24,1.59,1.59,0,0,1,.72.66,2.12,2.12,0,0,1,0,2,1.62,1.62,0,0,1-.73.64,2.79,2.79,0,0,1-1.14.22h-1.54v-1h1.34a1.42,1.42,0,0,0,.58-.1.63.63,0,0,0,.35-.29,1,1,0,0,0,.12-.48,1,1,0,0,0-.12-.49.69.69,0,0,0-.35-.3,1.5,1.5,0,0,0-.59-.1h-.83V206Zm3.15-2.65,1.44,2.65h-1.36l-1.41-2.65Zm2.1,2.65v-5.82h1.23v2.57h.08l2.09-2.57h1.48l-2.16,2.61L176.8,206h-1.47l-1.59-2.39-.61.74V206Zm5.52,0v-5.82h3.92v1h-2.69v1.38h2.49v1h-2.49V205h2.7v1Zm4.68-4.8v-1h4.78v1h-1.79V206h-1.21v-4.8Z"></path><path class="cls-20" d="M202,201a2.49,2.49,0,0,0-2.5-2.5h-3a.5.5,0,0,0,0,1h3A1.5,1.5,0,0,1,201,201v2.79l-.65-.64a.48.48,0,0,0-.7,0,.51.51,0,0,0,0,.7l1.5,1.5a.42.42,0,0,0,.16.11.47.47,0,0,0,.38,0,.36.36,0,0,0,.16-.11l1.5-1.5a.5.5,0,1,0-.7-.7l-.65.64Zm-8.15-.35a.36.36,0,0,0-.16-.11.47.47,0,0,0-.38,0,.42.42,0,0,0-.16.11l-1.5,1.5a.5.5,0,0,0,.7.7l.65-.64V205a2.49,2.49,0,0,0,2.5,2.5h3a.5.5,0,0,0,0-1h-3A1.5,1.5,0,0,1,194,205v-2.79l.65.64a.51.51,0,0,0,.7,0,.48.48,0,0,0,0-.7Z"></path><path class="cls-21" d="M265,191.5H225a5.5,5.5,0,0,0-5.5,5.5v12a5.5,5.5,0,0,0,5.5,5.5h40a5.5,5.5,0,0,0,5.5-5.5V197A5.5,5.5,0,0,0,265,191.5Z"></path><path class="cls-22" d="M317,191H281a6,6,0,0,0-6,6v12a6,6,0,0,0,6,6h36a6,6,0,0,0,6-6V197A6,6,0,0,0,317,191Z"></path><path class="cls-1" d="M297.77,201.86a.75.75,0,0,0-.09-.3.68.68,0,0,0-.2-.24,1.09,1.09,0,0,0-.7-.19,1.13,1.13,0,0,0-.51.09.62.62,0,0,0-.32.23.55.55,0,0,0-.11.33.44.44,0,0,0,.07.27.8.8,0,0,0,.2.21l.29.14.36.1.53.13a3.29,3.29,0,0,1,.69.23,2,2,0,0,1,.56.35,1.55,1.55,0,0,1,.36.48,1.61,1.61,0,0,1,.13.65,1.58,1.58,0,0,1-.27.92,1.74,1.74,0,0,1-.78.61,3.15,3.15,0,0,1-1.21.21,3.22,3.22,0,0,1-1.23-.21,2,2,0,0,1-.81-.64,2,2,0,0,1-.3-1.06h1.19a.79.79,0,0,0,.17.49.92.92,0,0,0,.4.3,1.84,1.84,0,0,0,.57.09,1.65,1.65,0,0,0,.54-.09.84.84,0,0,0,.36-.25.58.58,0,0,0,.13-.37.5.5,0,0,0-.12-.33.86.86,0,0,0-.33-.23,3.74,3.74,0,0,0-.54-.17l-.63-.16a2.82,2.82,0,0,1-1.17-.56,1.36,1.36,0,0,1-.32-.46,1.4,1.4,0,0,1-.1-.54,1.52,1.52,0,0,1,.28-.92,2,2,0,0,1,.79-.62,2.79,2.79,0,0,1,1.14-.22,2.74,2.74,0,0,1,1.13.22,1.81,1.81,0,0,1,.75.62,1.58,1.58,0,0,1,.28.92Zm2.09,4.14v-5.82h1.23V205h2.49v1Z"></path><path class="cls-22" d="M369,191H333a6,6,0,0,0-6,6v12a6,6,0,0,0,6,6h36a6,6,0,0,0,6-6V197A6,6,0,0,0,369,191Z"></path><path class="cls-1" d="M346,201.2v-1h4.78v1H349V206h-1.2v-4.8Zm5.57,4.8v-5.82h2.29a2.34,2.34,0,0,1,1.13.26,1.63,1.63,0,0,1,.71.69,2.23,2.23,0,0,1,0,2.05,1.86,1.86,0,0,1-.73.69,2.52,2.52,0,0,1-1.14.24h-1.46v-1h1.26a1.2,1.2,0,0,0,.59-.12.82.82,0,0,0,.34-.35,1,1,0,0,0,.12-.51,1.08,1.08,0,0,0-.12-.5.7.7,0,0,0-.34-.34,1.2,1.2,0,0,0-.59-.12h-.83V206Z"></path><path class="cls-1" d="M96.79,207v-8H102v1.22H98.24v2.17h3.48v1.21H98.24v2.19H102V207Zm11.72-8H110v5.23a2.68,2.68,0,0,1-1.54,2.53,4.22,4.22,0,0,1-3.41,0,2.61,2.61,0,0,1-1.15-1,2.72,2.72,0,0,1-.39-1.5V199H105v5.11a1.73,1.73,0,0,0,.22.89,1.58,1.58,0,0,0,.62.61,2.1,2.1,0,0,0,1,.22,2.14,2.14,0,0,0,1-.22,1.52,1.52,0,0,0,.62-.61,1.73,1.73,0,0,0,.22-.89Zm3,8v-8h3a3.28,3.28,0,0,1,1.54.32,2.13,2.13,0,0,1,1,.9,2.89,2.89,0,0,1,0,2.68,2.22,2.22,0,0,1-1,.87,3.6,3.6,0,0,1-1.55.3h-2.14v-1.2h1.94a2.25,2.25,0,0,0,.89-.15,1.07,1.07,0,0,0,.5-.44,1.39,1.39,0,0,0,.17-.72,1.43,1.43,0,0,0-.17-.73,1.13,1.13,0,0,0-.51-.46,2.05,2.05,0,0,0-.88-.16H113V207Zm4.13-3.62,2,3.62H116l-1.94-3.62Zm8.07-4.38h1.44v5.23a2.65,2.65,0,0,1-1.53,2.51,4.24,4.24,0,0,1-3.42,0,2.68,2.68,0,0,1-1.54-2.51V199h1.45v5.11a1.73,1.73,0,0,0,.22.89,1.61,1.61,0,0,0,.63.61,2.38,2.38,0,0,0,2,0,1.61,1.61,0,0,0,.63-.61,1.83,1.83,0,0,0,.22-.89Zm7.37,2.2a1,1,0,0,0-.14-.45,1.07,1.07,0,0,0-.32-.35,1.77,1.77,0,0,0-1.05-.28,2.06,2.06,0,0,0-.78.13,1.21,1.21,0,0,0-.49.38.88.88,0,0,0-.19.49.9.9,0,0,0,.12.51,1,1,0,0,0,.32.32,3.55,3.55,0,0,0,.44.21l.49.14.75.19a6.78,6.78,0,0,1,.87.28,3.28,3.28,0,0,1,.76.46,1.9,1.9,0,0,1,.72,1.56,2.19,2.19,0,0,1-.36,1.24,2.3,2.3,0,0,1-1,.83,4.66,4.66,0,0,1-3.25,0,2.33,2.33,0,0,1-1.07-.84,2.42,2.42,0,0,1-.42-1.35h1.43a1.24,1.24,0,0,0,.25.69,1.46,1.46,0,0,0,.59.42,2.27,2.27,0,0,0,.82.13,2.16,2.16,0,0,0,.83-.14,1.35,1.35,0,0,0,.57-.4,1,1,0,0,0,.2-.6.73.73,0,0,0-.18-.51,1.26,1.26,0,0,0-.51-.35,6.59,6.59,0,0,0-.75-.25l-.91-.23a3.81,3.81,0,0,1-1.56-.77,1.84,1.84,0,0,1-.44-.63,1.75,1.75,0,0,1-.13-.75,2.11,2.11,0,0,1,.38-1.24,2.57,2.57,0,0,1,1-.82,3.58,3.58,0,0,1,1.51-.3,3.49,3.49,0,0,1,1.49.3,2.33,2.33,0,0,1,1,.81,2.06,2.06,0,0,1,.38,1.2Zm5.5,5.8H133.9v-8h2.77a4.18,4.18,0,0,1,2.05.48,3.35,3.35,0,0,1,1.32,1.37,4.67,4.67,0,0,1,.46,2.14,4.59,4.59,0,0,1-.47,2.15,3.17,3.17,0,0,1-1.33,1.38,4.23,4.23,0,0,1-2.09.48Zm-1.26-1.25h1.19a2.84,2.84,0,0,0,1.4-.31,2,2,0,0,0,.84-.92A3.65,3.65,0,0,0,139,203a3.6,3.6,0,0,0-.28-1.52,1.93,1.93,0,0,0-.83-.91,2.8,2.8,0,0,0-1.36-.31h-1.24Z"></path><path class="cls-22" d="M401,191H389a6,6,0,0,0-6,6v12a6,6,0,0,0,6,6h12a6,6,0,0,0,6-6V197A6,6,0,0,0,401,191Z"></path><path class="cls-20" d="M390.65,205.35a.36.36,0,0,0,.16.11.47.47,0,0,0,.38,0,.42.42,0,0,0,.16-.11l3.65-3.64,3.65,3.64a.5.5,0,0,0,.7-.7l-4-4a.42.42,0,0,0-.16-.11.47.47,0,0,0-.38,0,.36.36,0,0,0-.16.11l-4,4a.36.36,0,0,0-.11.16.41.41,0,0,0,0,.19.43.43,0,0,0,0,.19A.42.42,0,0,0,390.65,205.35Z"></path></g><path class="cls-22" d="M415,222H40v2H415Z"></path><path class="cls-23" d="M56,239v8H54.52v-6.59h-.05l-1.87,1.2v-1.33l2-1.28Zm2.48,8.09a.86.86,0,0,1-.61-.25.77.77,0,0,1-.19-.28.92.92,0,0,1-.06-.33,1,1,0,0,1,.06-.33.83.83,0,0,1,.19-.27.82.82,0,0,1,.61-.25,1,1,0,0,1,.33.06,1,1,0,0,1,.27.19.85.85,0,0,1,.24.48.81.81,0,0,1-.42.83.75.75,0,0,1-.46.15Zm5,.06a2.69,2.69,0,0,1-1.65-.49,2.92,2.92,0,0,1-1.06-1.41A5.93,5.93,0,0,1,60.4,243a6,6,0,0,1,.37-2.23,3.07,3.07,0,0,1,1.06-1.4,3,3,0,0,1,3.3,0,3.07,3.07,0,0,1,1.06,1.4,7,7,0,0,1,0,4.47A3,3,0,0,1,65,246.66a2.73,2.73,0,0,1-1.61.49Zm0-1.22a1.32,1.32,0,0,0,.7-.2,1.34,1.34,0,0,0,.49-.54A4.32,4.32,0,0,0,65,243a5.1,5.1,0,0,0-.2-1.6,2,2,0,0,0-.56-1,1.19,1.19,0,0,0-.86-.33,1.32,1.32,0,0,0-.7.2,1.39,1.39,0,0,0-.48.54,4.39,4.39,0,0,0-.44,2.17,5.83,5.83,0,0,0,.2,1.61,2.17,2.17,0,0,0,.56,1,1.27,1.27,0,0,0,.87.34Zm7.31,1.18a3.31,3.31,0,0,1-1.12-.2,2.77,2.77,0,0,1-1-.64,3.09,3.09,0,0,1-.7-1.2,5.49,5.49,0,0,1-.25-1.84,6.65,6.65,0,0,1,.22-1.83,4,4,0,0,1,.62-1.36,2.73,2.73,0,0,1,2.3-1.15,2.86,2.86,0,0,1,1.34.3,2.62,2.62,0,0,1,.94.81,2.54,2.54,0,0,1,.45,1.16H72.08a1.3,1.3,0,0,0-.45-.74,1.29,1.29,0,0,0-.85-.27,1.47,1.47,0,0,0-.74.18,1.4,1.4,0,0,0-.54.54,3.85,3.85,0,0,0-.45,2h.06a2.14,2.14,0,0,1,.49-.59,2.58,2.58,0,0,1,.69-.38,2.51,2.51,0,0,1,.82-.13,2.42,2.42,0,0,1,1.26.33,2.56,2.56,0,0,1,1.21,2.27,2.62,2.62,0,0,1-.36,1.42,2.53,2.53,0,0,1-1,1,3,3,0,0,1-1.52.32Zm0-1.17a1.49,1.49,0,0,0,.77-.21,1.58,1.58,0,0,0,.53-.56,1.56,1.56,0,0,0,.19-.79,1.6,1.6,0,0,0-.19-.77,1.44,1.44,0,0,0-1.28-.76,1.52,1.52,0,0,0-.59.12,1.45,1.45,0,0,0-.47.34,1.34,1.34,0,0,0-.32.49,1.53,1.53,0,0,0-.12.6,1.68,1.68,0,0,0,.19.76,1.53,1.53,0,0,0,.53.57,1.55,1.55,0,0,0,.66.21Zm7-7.05a3.31,3.31,0,0,1,1.12.2,2.64,2.64,0,0,1,1,.64,3.13,3.13,0,0,1,.7,1.19,5.67,5.67,0,0,1,.26,1.83,6.79,6.79,0,0,1-.22,1.85A4.37,4.37,0,0,1,80,246a2.74,2.74,0,0,1-1,.85,2.94,2.94,0,0,1-1.3.29,2.86,2.86,0,0,1-1.34-.3,2.55,2.55,0,0,1-1-.81,2.65,2.65,0,0,1-.44-1.18H76.3a1.24,1.24,0,0,0,.46.74,1.22,1.22,0,0,0,.84.26,1.36,1.36,0,0,0,.74-.19,1.4,1.4,0,0,0,.54-.54,3.77,3.77,0,0,0,.45-2,2.34,2.34,0,0,1-.5.59,2.58,2.58,0,0,1-.69.38,2.71,2.71,0,0,1-1.06.12,2.77,2.77,0,0,1-1-.32,2.56,2.56,0,0,1-.89-.93,2.83,2.83,0,0,1-.33-1.34,2.76,2.76,0,0,1,.36-1.4,2.53,2.53,0,0,1,1-1,2.92,2.92,0,0,1,1.48-.3Zm0,1.17a1.49,1.49,0,0,0-.77.21,1.55,1.55,0,0,0-.53.55,1.7,1.7,0,0,0,0,1.56,1.52,1.52,0,0,0,.52.55,1.54,1.54,0,0,0,.76.2,1.43,1.43,0,0,0,.58-.12,1.39,1.39,0,0,0,.49-.34,2,2,0,0,0,.32-.49,1.71,1.71,0,0,0,.11-.59,1.54,1.54,0,0,0-.2-.76,1.47,1.47,0,0,0-.52-.56,1.38,1.38,0,0,0-.86-.21ZM82.12,247l3.4-6.73v-.06h-4V239H87v1.24L83.62,247Zm8.92.11a3.31,3.31,0,0,1-1.12-.2,2.64,2.64,0,0,1-1-.64,3.07,3.07,0,0,1-.69-1.2,5.47,5.47,0,0,1-.26-1.84,6.65,6.65,0,0,1,.22-1.83,4.22,4.22,0,0,1,.63-1.36,2.67,2.67,0,0,1,1-.86,3.08,3.08,0,0,1,2.63,0,2.42,2.42,0,0,1,1.44,2H92.42a1.3,1.3,0,0,0-.45-.74,1.29,1.29,0,0,0-.85-.27,1.36,1.36,0,0,0-.74.18,1.4,1.4,0,0,0-.54.54,3.75,3.75,0,0,0-.45,2,2,2,0,0,1,.5-.59,2.33,2.33,0,0,1,.69-.38,2.4,2.4,0,0,1,1.71,0A2.46,2.46,0,0,1,93.58,243a2.72,2.72,0,0,1,.33,1.34,2.8,2.8,0,0,1-.36,1.42,2.53,2.53,0,0,1-1,1,3.07,3.07,0,0,1-1.55.32Zm0-1.17a1.45,1.45,0,0,0,.76-.21,1.51,1.51,0,0,0,.54-.58,1.74,1.74,0,0,0,0-1.54,1.38,1.38,0,0,0-.52-.55,1.45,1.45,0,0,0-.76-.21,1.52,1.52,0,0,0-.59.12,1.61,1.61,0,0,0-.48.34,1.6,1.6,0,0,0-.32.49,2,2,0,0,0-.12.6,1.54,1.54,0,0,0,.2.76,1.45,1.45,0,0,0,.53.57,1.4,1.4,0,0,0,.72.21Z"></path><path class="cls-23" d="M126,255H58a6,6,0,0,0-6,6v28a6,6,0,0,0,6,6h68a6,6,0,0,0,6-6V261A6,6,0,0,0,126,255Z"></path><path d="M82.54,273.15a1.28,1.28,0,0,0-.55-.95,2.08,2.08,0,0,0-1.23-.33,2.21,2.21,0,0,0-.92.16,1.35,1.35,0,0,0-.59.44,1.08,1.08,0,0,0-.21.63.91.91,0,0,0,.14.51,1.09,1.09,0,0,0,.37.37,3.11,3.11,0,0,0,.52.25c.19.07.39.12.58.17l.89.22a7.36,7.36,0,0,1,1,.34,3.81,3.81,0,0,1,.89.53,2.39,2.39,0,0,1,.62.79,2.21,2.21,0,0,1,.24,1.07,2.52,2.52,0,0,1-.43,1.46,2.68,2.68,0,0,1-1.23,1,4.72,4.72,0,0,1-1.93.35,4.84,4.84,0,0,1-1.92-.34,2.75,2.75,0,0,1-1.26-1,2.82,2.82,0,0,1-.49-1.59h1.68a1.46,1.46,0,0,0,.31.82,1.65,1.65,0,0,0,.7.49,2.93,2.93,0,0,0,1.94,0,1.58,1.58,0,0,0,.67-.47,1.13,1.13,0,0,0,.24-.71.91.91,0,0,0-.21-.61,1.51,1.51,0,0,0-.6-.4,7.16,7.16,0,0,0-.89-.3l-1.07-.28a4.29,4.29,0,0,1-1.85-.91,2.26,2.26,0,0,1-.52-.74,2.21,2.21,0,0,1-.15-.88,2.48,2.48,0,0,1,.45-1.47,2.89,2.89,0,0,1,1.24-1,4.19,4.19,0,0,1,1.78-.35,4,4,0,0,1,1.76.35,2.91,2.91,0,0,1,1.2,1,2.47,2.47,0,0,1,.45,1.42Zm3.3,6.85v-9.45H92V272H87.55v2.57h4.12V276H87.55v2.58H92V280Zm7.9,0v-9.45h1.71v8h4.17V280Zm7.36,0v-9.45h1.71v8H107V280Z"></path><path class="cls-6" d="M187.37,248V238H188v10Zm1.85-6.8a1,1,0,0,0-.14-.45,1.07,1.07,0,0,0-.32-.35,1.78,1.78,0,0,0-1-.28,2.06,2.06,0,0,0-.78.13,1.17,1.17,0,0,0-.5.38.9.9,0,0,0-.17.53.92.92,0,0,0,.11.43,1,1,0,0,0,.32.32,3.55,3.55,0,0,0,.44.21l.49.14.75.19a6.31,6.31,0,0,1,.87.28,3.22,3.22,0,0,1,.75.46,1.89,1.89,0,0,1,.53.66,2,2,0,0,1,.2.9,2.19,2.19,0,0,1-.36,1.24,2.38,2.38,0,0,1-1,.83,4.69,4.69,0,0,1-3.26,0A2.38,2.38,0,0,1,185,246a2.58,2.58,0,0,1-.41-1.35H186a1.24,1.24,0,0,0,.25.69,1.31,1.31,0,0,0,.59.42,2.51,2.51,0,0,0,.82.13,2.13,2.13,0,0,0,.83-.14,1.32,1.32,0,0,0,.56-.4.93.93,0,0,0,.21-.6.73.73,0,0,0-.18-.51,1.26,1.26,0,0,0-.51-.35,6.59,6.59,0,0,0-.75-.25l-.91-.23a3.69,3.69,0,0,1-1.56-.77,1.84,1.84,0,0,1-.44-.63,1.91,1.91,0,0,1-.13-.75,2.11,2.11,0,0,1,.38-1.24,2.49,2.49,0,0,1,1.05-.82,3.58,3.58,0,0,1,1.51-.3,3.49,3.49,0,0,1,1.49.3,2.33,2.33,0,0,1,1,.81,2.06,2.06,0,0,1,.38,1.2Zm2.71,5.8v-1l2.78-2.72c.27-.27.49-.51.67-.71a2.63,2.63,0,0,0,.39-.61,1.48,1.48,0,0,0,.14-.62,1.14,1.14,0,0,0-.18-.65,1,1,0,0,0-.47-.42,1.57,1.57,0,0,0-.68-.15,1.38,1.38,0,0,0-.69.16,1.13,1.13,0,0,0-.46.46,1.45,1.45,0,0,0-.16.71h-1.38a2.39,2.39,0,0,1,.32-1.3,2.3,2.3,0,0,1,1-.9,3,3,0,0,1,1.41-.31,3.11,3.11,0,0,1,1.41.3,2.37,2.37,0,0,1,1,.83,2.17,2.17,0,0,1,.34,1.19,2.23,2.23,0,0,1-.18.88,3.91,3.91,0,0,1-.6,1,16.09,16.09,0,0,1-1.21,1.27l-1.38,1.4v.06h3.49V247Zm9.79.15a2.69,2.69,0,0,1-1.65-.49,3.15,3.15,0,0,1-1.06-1.41,5.93,5.93,0,0,1-.37-2.24,6,6,0,0,1,.37-2.23,3.07,3.07,0,0,1,1.06-1.4,2.69,2.69,0,0,1,1.65-.49,2.74,2.74,0,0,1,1.66.49,3,3,0,0,1,1.05,1.4,7,7,0,0,1,0,4.47,3.06,3.06,0,0,1-1.05,1.41A2.74,2.74,0,0,1,201.72,247.15Zm0-1.22a1.32,1.32,0,0,0,.7-.2,1.34,1.34,0,0,0,.49-.54,4.33,4.33,0,0,0,.43-2.18,5.75,5.75,0,0,0-.19-1.6,2.18,2.18,0,0,0-.57-1,1.19,1.19,0,0,0-.86-.33,1.27,1.27,0,0,0-.69.2,1.34,1.34,0,0,0-.49.54,4.39,4.39,0,0,0-.44,2.17,5.83,5.83,0,0,0,.2,1.61,2.17,2.17,0,0,0,.56,1A1.19,1.19,0,0,0,201.72,245.93Zm7.31,1.18a3.31,3.31,0,0,1-1.12-.2,2.77,2.77,0,0,1-1-.64,3.09,3.09,0,0,1-.7-1.2,5.76,5.76,0,0,1-.25-1.84,6.65,6.65,0,0,1,.22-1.83,4,4,0,0,1,.62-1.36,2.77,2.77,0,0,1,1-.86,2.81,2.81,0,0,1,1.3-.29,2.86,2.86,0,0,1,1.34.3,2.55,2.55,0,0,1,1,.81,2.83,2.83,0,0,1,.44,1.16h-1.43a1.29,1.29,0,0,0-.44-.74,1.34,1.34,0,0,0-.86-.27,1.47,1.47,0,0,0-.74.18,1.4,1.4,0,0,0-.54.54,3.85,3.85,0,0,0-.45,2h.06a2.14,2.14,0,0,1,.49-.59,2.58,2.58,0,0,1,.69-.38,2.51,2.51,0,0,1,.82-.13,2.42,2.42,0,0,1,1.26.33,2.57,2.57,0,0,1,.91,1,2.47,2.47,0,0,1,.3,1.3,2.68,2.68,0,0,1-1.35,2.42,3.05,3.05,0,0,1-1.6.32Zm0-1.17a1.45,1.45,0,0,0,1.3-.77,1.56,1.56,0,0,0,.19-.79,1.6,1.6,0,0,0-.19-.77,1.44,1.44,0,0,0-1.28-.76,1.52,1.52,0,0,0-.59.12,1.45,1.45,0,0,0-.47.34,1.57,1.57,0,0,0-.44,1.09,1.54,1.54,0,0,0,.2.76,1.33,1.33,0,0,0,.53.57A1.39,1.39,0,0,0,209,245.94Zm4.76,1.15a1,1,0,0,1-.33-.06.92.92,0,0,1-.28-.19.77.77,0,0,1-.19-.28.92.92,0,0,1-.06-.33,1,1,0,0,1,.06-.33.83.83,0,0,1,.19-.27.86.86,0,0,1,1.21,0,.83.83,0,0,1,.19.27.78.78,0,0,1,.07.33.94.94,0,0,1-.13.43.77.77,0,0,1-.31.31.82.82,0,0,1-.43.12Zm4.57-8.09v8H216.9v-6.59h-.05l-1.87,1.2v-1.33l2-1.28Zm2,8v-1l2.78-2.72.66-.71a2.47,2.47,0,0,0,.4-.61,1.47,1.47,0,0,0,.13-.62,1.15,1.15,0,0,0-.17-.65,1,1,0,0,0-.47-.42,1.48,1.48,0,0,0-.69-.15,1.38,1.38,0,0,0-.69.16,1.13,1.13,0,0,0-.46.46,1.45,1.45,0,0,0-.16.71h-1.38a2.48,2.48,0,0,1,.35-1.33,2.35,2.35,0,0,1,1-.87,3,3,0,0,1,1.4-.31,3.15,3.15,0,0,1,1.42.3,2.28,2.28,0,0,1,.94.83,2.09,2.09,0,0,1,.34,1.19,2.42,2.42,0,0,1-.17.88,3.94,3.94,0,0,1-.61,1,13.07,13.07,0,0,1-1.2,1.27l-1.38,1.4v.06h3.48V247Z"></path><path class="cls-24" d="M234.49,238.63l-2.58,9.57h-1.23l2.57-9.57Z"></path><path class="cls-6" d="M243.14,247.11a3.31,3.31,0,0,1-1.12-.2,2.53,2.53,0,0,1-1-.64,3.09,3.09,0,0,1-.7-1.2,5.46,5.46,0,0,1-.25-1.84,7,7,0,0,1,.21-1.83,4.22,4.22,0,0,1,.63-1.36,2.87,2.87,0,0,1,1-.86,2.94,2.94,0,0,1,1.3-.29,2.86,2.86,0,0,1,1.34.3,2.56,2.56,0,0,1,1.39,2h-1.43a1.3,1.3,0,0,0-.45-.74,1.29,1.29,0,0,0-.85-.27,1.41,1.41,0,0,0-1.28.72,3.85,3.85,0,0,0-.45,2h.06a1.86,1.86,0,0,1,.49-.59,2.58,2.58,0,0,1,.69-.38,2.51,2.51,0,0,1,.82-.13,2.42,2.42,0,0,1,1.26.33,2.57,2.57,0,0,1,.91,1,2.47,2.47,0,0,1,.3,1.3,2.62,2.62,0,0,1-.36,1.42,2.53,2.53,0,0,1-1,1A2.94,2.94,0,0,1,243.14,247.11Zm0-1.17a1.45,1.45,0,0,0,1.3-.77,1.54,1.54,0,0,0,.19-.79,1.6,1.6,0,0,0-.19-.77,1.5,1.5,0,0,0-.53-.56,1.53,1.53,0,0,0-.75-.2,1.43,1.43,0,0,0-.58.12,1.24,1.24,0,0,0-.48.34,1.34,1.34,0,0,0-.32.49,1.53,1.53,0,0,0-.12.6,1.68,1.68,0,0,0,.19.76,1.53,1.53,0,0,0,.53.57,1.44,1.44,0,0,0,.75.21Zm4.76,1.15a1,1,0,0,1-.33-.06.92.92,0,0,1-.28-.19.77.77,0,0,1-.19-.28.75.75,0,0,1-.06-.33.65.65,0,0,1,.06-.33.74.74,0,0,1,.19-.27.77.77,0,0,1,.28-.19.92.92,0,0,1,.33-.06.87.87,0,0,1,.32.06.83.83,0,0,1,.27.19,1.05,1.05,0,0,1,.2.27.75.75,0,0,1,.07.33.94.94,0,0,1-.13.43.77.77,0,0,1-.31.31.82.82,0,0,1-.43.12Zm2.3-.09v-1l2.78-2.72c.26-.27.49-.51.66-.71a2.47,2.47,0,0,0,.4-.61,1.47,1.47,0,0,0,.13-.62,1.13,1.13,0,0,0-.17-.65,1,1,0,0,0-.47-.42,1.57,1.57,0,0,0-.68-.15,1.44,1.44,0,0,0-.7.16,1.27,1.27,0,0,0-.46.46,1.57,1.57,0,0,0-.16.71h-1.38a2.48,2.48,0,0,1,.35-1.33,2.35,2.35,0,0,1,1-.87,2.93,2.93,0,0,1,1.4-.31,3.15,3.15,0,0,1,1.42.3,2.22,2.22,0,0,1,.94.83,2.09,2.09,0,0,1,.34,1.19,2.22,2.22,0,0,1-.17.88,3.91,3.91,0,0,1-.6,1,16.09,16.09,0,0,1-1.21,1.27l-1.38,1.4v.06h3.49V247Zm10.09-8v8h-1.45v-6.59h0l-1.87,1.2v-1.33l2-1.28Zm6.3,6.5v-.42a2,2,0,0,1,.2-.86,1.53,1.53,0,0,1,.58-.63,2,2,0,0,1,.93-.23,2,2,0,0,1,.92.23,1.55,1.55,0,0,1,.56.63,2,2,0,0,1,.2.86v.42a2,2,0,0,1-.2.86,1.48,1.48,0,0,1-.57.62,1.9,1.9,0,0,1-1.85,0,1.48,1.48,0,0,1-.57-.62,1.85,1.85,0,0,1-.21-.86Zm1-.42v.42a1.13,1.13,0,0,0,.15.57.55.55,0,0,0,.23.2.61.61,0,0,0,.3,0,.63.63,0,0,0,.3,0,.6.6,0,0,0,.22-.2,1.26,1.26,0,0,0,.14-.57v-.42a1.26,1.26,0,0,0-.14-.57.56.56,0,0,0-.22-.21.52.52,0,0,0-.3-.05.61.61,0,0,0-.3.05.56.56,0,0,0-.22.21,1,1,0,0,0-.15.57Zm-5.08-4.16v-.42a1.73,1.73,0,0,1,.2-.86,1.45,1.45,0,0,1,.58-.62,1.62,1.62,0,0,1,.91-.24,1.68,1.68,0,0,1,.93.24,1.48,1.48,0,0,1,.57.62,2,2,0,0,1,.19.86v.42a2,2,0,0,1-.19.86,1.48,1.48,0,0,1-.57.62,1.92,1.92,0,0,1-1.86,0,1.48,1.48,0,0,1-.57-.62,1.82,1.82,0,0,1-.18-.86Zm1-.42v.42a1,1,0,0,0,.14.57.47.47,0,0,0,.22.2.52.52,0,0,0,.3.06.61.61,0,0,0,.3-.05.56.56,0,0,0,.22-.21,1,1,0,0,0,.14-.57v-.42a1.25,1.25,0,0,0-.13-.57.58.58,0,0,0-.23-.21.61.61,0,0,0-.3-.05.52.52,0,0,0-.3.06.47.47,0,0,0-.22.2,1.23,1.23,0,0,0-.1.57ZM263,247l5.5-8h1l-5.5,8Z"></path><path class="cls-25" d="M309,255.5H146a5.5,5.5,0,0,0-5.5,5.5v28a5.5,5.5,0,0,0,5.5,5.5H309a5.5,5.5,0,0,0,5.5-5.5V261A5.5,5.5,0,0,0,309,255.5Z"></path><path class="cls-14" d="M158.4,275a.51.51,0,0,1,.5-.5h10.2a.5.5,0,0,1,0,1H158.9a.51.51,0,0,1-.5-.5Z"></path><path class="cls-1" d="M219.94,274v-.89l3.36-3.68c.4-.43.72-.81,1-1.13a4.66,4.66,0,0,0,.56-.9,2.14,2.14,0,0,0,.19-.9,1.62,1.62,0,0,0-.26-.93,1.67,1.67,0,0,0-.69-.6,2.15,2.15,0,0,0-1-.22,1.93,1.93,0,0,0-1,.25,1.66,1.66,0,0,0-.67.67,2,2,0,0,0-.24,1H220a3,3,0,0,1,.41-1.57,2.79,2.79,0,0,1,1.13-1.05,3.54,3.54,0,0,1,3.19,0,2.88,2.88,0,0,1,1.08,1,2.64,2.64,0,0,1,.39,1.42,3.15,3.15,0,0,1-.2,1.1,4.57,4.57,0,0,1-.69,1.19,17.12,17.12,0,0,1-1.37,1.59l-2.29,2.45v.08h4.73V274Zm11.8.14a3,3,0,0,1-1.92-.61,3.85,3.85,0,0,1-1.2-1.79,9.71,9.71,0,0,1,0-5.65,3.79,3.79,0,0,1,1.21-1.79,3,3,0,0,1,1.91-.62,3,3,0,0,1,1.9.62,3.79,3.79,0,0,1,1.21,1.79,8.19,8.19,0,0,1,.43,2.82,8.49,8.49,0,0,1-.42,2.83,3.79,3.79,0,0,1-1.21,1.79A3,3,0,0,1,231.74,274.14Zm0-1.09a1.91,1.91,0,0,0,1.73-1.08,6.21,6.21,0,0,0,.62-3.06,7.77,7.77,0,0,0-.29-2.25,3.09,3.09,0,0,0-.8-1.42,1.78,1.78,0,0,0-1.26-.49,1.84,1.84,0,0,0-1,.3,1.93,1.93,0,0,0-.71.79,6.25,6.25,0,0,0-.62,3.07,7.76,7.76,0,0,0,.28,2.25,3.08,3.08,0,0,0,.8,1.4,1.79,1.79,0,0,0,.58.37A1.65,1.65,0,0,0,231.74,273.05Z"></path><path class="cls-6" d="M216.76,287v-8h1.45v6.79h3.53V287Zm8.79.12a2.91,2.91,0,0,1-1.53-.39,2.73,2.73,0,0,1-1-1.08,3.68,3.68,0,0,1-.35-1.63,3.61,3.61,0,0,1,.35-1.62,2.7,2.7,0,0,1,1-1.09,3.15,3.15,0,0,1,3,0,2.63,2.63,0,0,1,1,1.09,3.61,3.61,0,0,1,.35,1.62,3.68,3.68,0,0,1-.35,1.63,2.67,2.67,0,0,1-1,1.08A2.91,2.91,0,0,1,225.55,287.12Zm0-1.14a1.18,1.18,0,0,0,.79-.26,1.39,1.39,0,0,0,.48-.71,3.21,3.21,0,0,0,0-2,1.46,1.46,0,0,0-.48-.71,1.19,1.19,0,0,0-.79-.27,1.21,1.21,0,0,0-.82.27,1.66,1.66,0,0,0-.48.71,3.37,3.37,0,0,0-.15,1,3.07,3.07,0,0,0,.15,1,1.58,1.58,0,0,0,.48.71,1.25,1.25,0,0,0,.83.28Zm7.06-5v1.09h-3.45V281Zm-2.6-1.44h1.42v5.64a.89.89,0,0,0,.08.43.49.49,0,0,0,.24.21,1.13,1.13,0,0,0,.32.05h.41l.24,1.1-.33.09a2.79,2.79,0,0,1-1.46-.11,1.47,1.47,0,0,1-.68-.55,1.71,1.71,0,0,1-.24-.94Zm8.44,3-1.29.14a1.09,1.09,0,0,0-.19-.37,1,1,0,0,0-.36-.28,1.66,1.66,0,0,0-.66-.1,1.63,1.63,0,0,0-.64.19.58.58,0,0,0-.21.2.6.6,0,0,0-.08.29.67.67,0,0,0,0,.24.7.7,0,0,0,.15.19,1.59,1.59,0,0,0,.66.27l1,.22a2.48,2.48,0,0,1,1.26.58,1.44,1.44,0,0,1,.31.46,1.25,1.25,0,0,1,.12.54,1.71,1.71,0,0,1-.33,1,2.19,2.19,0,0,1-.91.68A3.34,3.34,0,0,1,236,287a3.07,3.07,0,0,1-1.77-.46,1.92,1.92,0,0,1-.54-.56,1.82,1.82,0,0,1-.26-.74l1.38-.13a1,1,0,0,0,.14.35,1.07,1.07,0,0,0,.26.26,1.36,1.36,0,0,0,.79.21,1.45,1.45,0,0,0,.81-.21.6.6,0,0,0,.31-.51.59.59,0,0,0-.05-.23.58.58,0,0,0-.15-.19,1.28,1.28,0,0,0-.61-.26l-1-.22a2.45,2.45,0,0,1-1.28-.6,1.58,1.58,0,0,1-.32-.5,1.49,1.49,0,0,1-.09-.59,1.56,1.56,0,0,1,.3-1,2,2,0,0,1,.85-.63,3.25,3.25,0,0,1,1.27-.23,2.71,2.71,0,0,1,1.66.45,1.86,1.86,0,0,1,.53.59,2,2,0,0,1,.24.76Z"></path><path class="cls-14" d="M291,269.4a.51.51,0,0,1,.5.5v4.6h4.61a.5.5,0,0,1,0,1H291.5v4.61a.5.5,0,0,1-1,0V275.5h-4.6a.5.5,0,0,1,0-1h4.6v-4.6a.51.51,0,0,1,.5-.5Z"></path><path class="cls-26" d="M364.44,239v8H363v-6.59H363l-1.87,1.2v-1.33l2-1.28Zm2.47,8.09a.86.86,0,0,1-.61-.25,1.07,1.07,0,0,1-.19-.28.94.94,0,0,1,0-.66,1,1,0,0,1,.19-.27,1.07,1.07,0,0,1,.28-.19.92.92,0,0,1,.33-.06,1,1,0,0,1,.33.06,1,1,0,0,1,.27.19.88.88,0,0,1,.24.48.86.86,0,0,1-.1.52.77.77,0,0,1-.31.31A.83.83,0,0,1,366.91,247.09Zm4.95.06a2.69,2.69,0,0,1-1.65-.49,3.15,3.15,0,0,1-1.06-1.41,6.13,6.13,0,0,1-.37-2.24,6,6,0,0,1,.37-2.23,3.07,3.07,0,0,1,1.06-1.4,2.69,2.69,0,0,1,1.65-.49,2.81,2.81,0,0,1,1.66.49,3,3,0,0,1,1.05,1.4,6.72,6.72,0,0,1,0,4.47,3,3,0,0,1-1.05,1.41A2.74,2.74,0,0,1,371.86,247.15Zm0-1.22a1.32,1.32,0,0,0,.7-.2,1.34,1.34,0,0,0,.49-.54,4.33,4.33,0,0,0,.43-2.18,5.75,5.75,0,0,0-.19-1.6,2.18,2.18,0,0,0-.57-1,1.19,1.19,0,0,0-.86-.33,1.27,1.27,0,0,0-.69.2,1.34,1.34,0,0,0-.49.54,4.27,4.27,0,0,0-.43,2.17,5.46,5.46,0,0,0,.19,1.61,2.17,2.17,0,0,0,.56,1A1.19,1.19,0,0,0,371.86,245.93Zm7.31,1.18a3.31,3.31,0,0,1-1.12-.2,2.64,2.64,0,0,1-1-.64,3.09,3.09,0,0,1-.7-1.2,5.76,5.76,0,0,1-.25-1.84,6.65,6.65,0,0,1,.22-1.83A3.8,3.8,0,0,1,377,240a2.77,2.77,0,0,1,1-.86,3.13,3.13,0,0,1,1.31-.29,2.79,2.79,0,0,1,1.33.3,2.62,2.62,0,0,1,1,.82,2.52,2.52,0,0,1,.43,1.18h-1.42a1.36,1.36,0,0,0-.45-.74,1.29,1.29,0,0,0-.85-.27,1.36,1.36,0,0,0-.74.18,1.43,1.43,0,0,0-.55.54,4,4,0,0,0-.45,2h.06a2,2,0,0,1,.5-.59,2.38,2.38,0,0,1,.68-.38,2.51,2.51,0,0,1,.82-.13,2.42,2.42,0,0,1,1.26.33,2.56,2.56,0,0,1,.89.93,2.61,2.61,0,0,1,.33,1.34,2.8,2.8,0,0,1-.36,1.42,2.53,2.53,0,0,1-1,1A3,3,0,0,1,379.17,247.11Zm0-1.17a1.45,1.45,0,0,0,.76-.21,1.58,1.58,0,0,0,.53-.56,1.56,1.56,0,0,0,.19-.79,1.6,1.6,0,0,0-.19-.77,1.44,1.44,0,0,0-1.28-.76,1.43,1.43,0,0,0-.58.12,1.45,1.45,0,0,0-.48.34,1.57,1.57,0,0,0-.44,1.09,1.54,1.54,0,0,0,.2.76,1.41,1.41,0,0,0,.53.58A1.54,1.54,0,0,0,379.17,245.94Zm7-7.05a3.31,3.31,0,0,1,1.12.2,2.77,2.77,0,0,1,1,.64,3.1,3.1,0,0,1,.69,1.19,5.67,5.67,0,0,1,.26,1.83,6.79,6.79,0,0,1-.22,1.85,4.37,4.37,0,0,1-.63,1.37,2.74,2.74,0,0,1-1,.85,3.15,3.15,0,0,1-2.64,0,2.45,2.45,0,0,1-.94-.81,2.65,2.65,0,0,1-.44-1.18h1.42a1.27,1.27,0,0,0,1.3,1,1.45,1.45,0,0,0,.74-.18,1.43,1.43,0,0,0,.54-.55,3.75,3.75,0,0,0,.45-2h-.05a2.34,2.34,0,0,1-.5.59,2.58,2.58,0,0,1-.69.38,2.45,2.45,0,0,1-.81.13,2.41,2.41,0,0,1-1.26-.29,2.34,2.34,0,0,1-.91-.91,2.61,2.61,0,0,1-.33-1.34,2.76,2.76,0,0,1,.36-1.4,2.53,2.53,0,0,1,1-1,3,3,0,0,1,1.52-.37Zm0,1.17a1.45,1.45,0,0,0-.76.21,1.43,1.43,0,0,0-.54.55,1.76,1.76,0,0,0-.19.78,1.64,1.64,0,0,0,.19.78,1.71,1.71,0,0,0,.52.55,1.54,1.54,0,0,0,.76.2,1.43,1.43,0,0,0,.58-.12,1.39,1.39,0,0,0,.49-.34,1.6,1.6,0,0,0,.32-.49,1.51,1.51,0,0,0,.11-.59,1.53,1.53,0,0,0-.19-.76,1.58,1.58,0,0,0-.53-.56,1.4,1.4,0,0,0-.77-.21ZM390.6,247l3.4-6.73v-.06h-4V239h5.45v1.24l-3.4,6.76Zm8.92.11a3.31,3.31,0,0,1-1.12-.2,2.64,2.64,0,0,1-1-.64,3.07,3.07,0,0,1-.69-1.2,5.77,5.77,0,0,1-.26-1.84,7.05,7.05,0,0,1,.22-1.83,4.22,4.22,0,0,1,.63-1.36,2.67,2.67,0,0,1,1-.86,3.05,3.05,0,0,1,2.64,0,2.56,2.56,0,0,1,1.39,2H400.9a1.3,1.3,0,0,0-.45-.74,1.29,1.29,0,0,0-.85-.27,1.47,1.47,0,0,0-.74.18,1.55,1.55,0,0,0-.54.54,3.75,3.75,0,0,0-.45,2h.05a2,2,0,0,1,.5-.59,2.33,2.33,0,0,1,.69-.38,2.45,2.45,0,0,1,.81-.13,2.48,2.48,0,0,1,1.27.33,2.56,2.56,0,0,1,.89.93,2.71,2.71,0,0,1,.32,1.34,2.8,2.8,0,0,1-.36,1.42,2.53,2.53,0,0,1-1,1,3.11,3.11,0,0,1-1.53.33Zm0-1.17a1.45,1.45,0,0,0,.76-.21,1.36,1.36,0,0,0,.53-.56,1.45,1.45,0,0,0,.19-.79,1.48,1.48,0,0,0-.18-.77,1.38,1.38,0,0,0-.52-.55,1.45,1.45,0,0,0-.76-.21,1.52,1.52,0,0,0-.59.12,1.61,1.61,0,0,0-.48.34,1.6,1.6,0,0,0-.32.49,1.73,1.73,0,0,0-.11.6,1.57,1.57,0,0,0,.72,1.33,1.38,1.38,0,0,0,.74.21Z"></path><path class="cls-26" d="M397,255H329a6,6,0,0,0-6,6v28a6,6,0,0,0,6,6h68a6,6,0,0,0,6-6V261A6,6,0,0,0,397,255Z"></path><path d="M350.32,280v-9.45h3.62a4,4,0,0,1,1.7.32,2.28,2.28,0,0,1,1,.87A2.34,2.34,0,0,1,357,273a2,2,0,0,1-.22,1,1.9,1.9,0,0,1-.6.66,2.46,2.46,0,0,1-.83.36v.09a2,2,0,0,1,1,.31,2.24,2.24,0,0,1,.77.79,2.69,2.69,0,0,1-.06,2.54,2.41,2.41,0,0,1-1.08.92,4.12,4.12,0,0,1-1.8.34Zm1.71-1.43h1.84a2,2,0,0,0,1.34-.36,1.17,1.17,0,0,0,.32-.41,1.13,1.13,0,0,0,.1-.51,1.41,1.41,0,0,0-.8-1.29,1.92,1.92,0,0,0-.91-.2H352Zm0-4h1.69a2,2,0,0,0,.8-.16,1.35,1.35,0,0,0,.56-.47,1.22,1.22,0,0,0,.21-.72,1.23,1.23,0,0,0-.09-.5,1.12,1.12,0,0,0-.3-.41,1.62,1.62,0,0,0-1.14-.35H352Zm12.79-4h1.71v6.17a3.24,3.24,0,0,1-.48,1.79,3.17,3.17,0,0,1-1.34,1.2,4.32,4.32,0,0,1-2,.43,4.45,4.45,0,0,1-2-.43,3.21,3.21,0,0,1-1.33-1.2,3.32,3.32,0,0,1-.48-1.79v-6.17h1.71v6a2.24,2.24,0,0,0,.26,1.05,1.92,1.92,0,0,0,.74.73,2.34,2.34,0,0,0,1.13.26,2.28,2.28,0,0,0,1.12-.26,1.86,1.86,0,0,0,.74-.73,2.24,2.24,0,0,0,.26-1.05Zm2.93,0h1.93l2.32,4.18h.09l2.31-4.18h1.93l-3.43,5.92V280h-1.71v-3.53Z"></path></g><path class="cls-25" d="M403,183.5H52A11.5,11.5,0,0,0,40.5,195V295A11.5,11.5,0,0,0,52,306.5H403A11.5,11.5,0,0,0,414.5,295V195A11.5,11.5,0,0,0,403,183.5Z"></path></g></svg>