<svg xmlns="http://www.w3.org/2000/svg" width="1101" height="1085" viewBox="0 0 1101 1085" fill="none"><path d="M1052 1085V1" stroke="#1D1D21"></path><path d="M764 1085V1" stroke="#1D1D21"></path><path d="M474 1085V1" stroke="#1D1D21"></path><path d="M190 1085V1" stroke="#1D1D21"></path><path d="M908 1085V1" stroke="#1D1D21"></path><path d="M620 1085V1" stroke="#1D1D21"></path><path d="M330 1085V1" stroke="#1D1D21"></path><path d="M46 1085V1" stroke="#1D1D21"></path><path d="M4 1035H1099" stroke="#1D1D21"></path><path d="M4 971H1099" stroke="#1D1D21"></path><path d="M4 907H1099" stroke="#1D1D21"></path><path d="M4 843H1099" stroke="#1D1D21"></path><path d="M4 640H1099" stroke="#1D1D21"></path><path d="M4 584H1099" stroke="#1D1D21"></path><path d="M4 528H1099" stroke="#1D1D21"></path><path d="M4 322H1099" stroke="#1D1D21"></path><path d="M4 210H1099" stroke="#1D1D21"></path><path d="M4 154H1099" stroke="#1D1D21"></path><path d="M4 266H1099" stroke="#1D1D21"></path><path d="M4 98H1099" stroke="#1D1D21"></path><path d="M4 378H1099" stroke="#1D1D21"></path><path d="M4 779H1099" stroke="#1D1D21"></path><rect x="4" y="472" width="1096" height="226" fill="#623FB5" fill-opacity="0.12"></rect><path d="M1099.5 617L1097 620.5L1086 591L1072.5 584.5L1061.5 622L1049.5 642H1036.5L1023.5 640.5L1011.5 611.5L999.5 627.5L987 622L976 665.5L962 684.5L937.5 655.5L924.5 645L912.5 642L901 653.5L888 642L875 607L863 620.5L838 624L827 604L815.5 599L801.5 601L789.5 587L777.5 553L765.5 548.5L753 568L741 584.5L726.5 642L703.5 679.5L690.5 684.5L678 670.5L666 684.5L654 703.5L640.5 687L605 725L592.5 689L580.5 693.5L568.5 673L555.5 710L531 611.5L517 609L505.5 642L493.5 638L481 679.5L469 676L456 651.5L444 624L432.5 633.5L419 553L407 558.5L395 591L383.5 539.5L371.5 591L358.5 593L346.5 491.5L333.5 488.5L321.5 505.5L310 516.5L295 505.5L283.5 510L271 470L259.5 491.5L247.5 488.5L235 480L222 486L211.5 516.5L198.5 537.5L174.5 548.5L161.5 533L150.5 558.5L136.5 609L123.5 577L113 593L100 571.5L88 505.5L75 530.5L49.5 537.5L37.5 535L25.5 558.5L13.5 548.5L4 553" stroke="#785CBC" stroke-width="2"></path><path d="M4 472H1100" stroke="#797B85" stroke-opacity="0.1"></path><path d="M4 472H1100" stroke="#797B85" stroke-dasharray="5 5"></path><path d="M4 584H1100" stroke="#797B85" stroke-opacity="0.1"></path><path d="M4 584H1100" stroke="#797B85" stroke-dasharray="5 5"></path><path d="M4 697H1100" stroke="#797B85" stroke-opacity="0.1"></path><path d="M4 697H1100" stroke="#797B85" stroke-dasharray="5 5"></path><rect x="10" y="452" width="250" height="40" rx="1" fill="black" fill-opacity="0.25"></rect><path d="M27.8911 480V464.383H33.1681C34.3882 464.383 35.3897 464.591 36.1725 465.008C36.9554 465.42 37.535 465.987 37.9112 466.709C38.2874 467.43 38.4755 468.251 38.4755 469.172C38.4755 470.092 38.2874 470.908 37.9112 471.619C37.535 472.331 36.958 472.89 36.1802 473.297C35.4024 473.699 34.4085 473.9 33.1986 473.9H28.9282V472.191H33.1376C33.9713 472.191 34.6423 472.069 35.1507 471.825C35.6642 471.581 36.0353 471.236 36.2641 470.788C36.4979 470.336 36.6148 469.797 36.6148 469.172C36.6148 468.546 36.4979 468 36.2641 467.532C36.0302 467.064 35.6565 466.703 35.1431 466.449C34.6296 466.19 33.951 466.06 33.1071 466.06H29.7823V480H27.8911ZM35.2422 472.984L39.0855 480H36.8894L33.1071 472.984H35.2422ZM50.1674 468.287C50.0759 467.514 49.7048 466.914 49.0541 466.487C48.4034 466.06 47.6052 465.847 46.6597 465.847C45.9683 465.847 45.3633 465.959 44.8448 466.182C44.3313 466.406 43.9297 466.714 43.6399 467.105C43.3552 467.497 43.2129 467.941 43.2129 468.44C43.2129 468.856 43.312 469.215 43.5103 469.515C43.7136 469.81 43.9729 470.056 44.2881 470.254C44.6033 470.448 44.9337 470.608 45.2794 470.735C45.6251 470.857 45.9428 470.956 46.2326 471.032L47.8187 471.459C48.2254 471.566 48.6779 471.714 49.1761 471.902C49.6794 472.09 50.1598 472.346 50.6173 472.672C51.08 472.992 51.4612 473.404 51.7612 473.907C52.0611 474.41 52.2111 475.028 52.2111 475.76C52.2111 476.604 51.9899 477.367 51.5477 478.048C51.1105 478.729 50.4699 479.27 49.626 479.672C48.7872 480.074 47.7679 480.275 46.5681 480.275C45.4497 480.275 44.4813 480.094 43.6628 479.733C42.8494 479.372 42.2088 478.869 41.7411 478.223C41.2785 477.578 41.0167 476.828 40.9557 475.974H42.9079C42.9587 476.563 43.157 477.051 43.5027 477.438C43.8534 477.819 44.2957 478.104 44.8295 478.292C45.3684 478.475 45.9479 478.566 46.5681 478.566C47.29 478.566 47.9382 478.449 48.5127 478.216C49.0871 477.977 49.5421 477.646 49.8777 477.224C50.2132 476.797 50.3809 476.299 50.3809 475.73C50.3809 475.211 50.2361 474.789 49.9463 474.464C49.6565 474.138 49.2752 473.874 48.8024 473.671C48.3297 473.467 47.8187 473.289 47.2697 473.137L45.348 472.588C44.128 472.237 43.162 471.736 42.4503 471.086C41.7386 470.435 41.3827 469.583 41.3827 468.531C41.3827 467.657 41.6191 466.894 42.0919 466.243C42.5698 465.588 43.2103 465.079 44.0136 464.718C44.8219 464.352 45.7242 464.169 46.7207 464.169C47.7272 464.169 48.622 464.35 49.4049 464.711C50.1878 465.067 50.808 465.555 51.2655 466.175C51.7281 466.795 51.9722 467.499 51.9976 468.287H50.1674ZM57.2116 464.383V480H55.3204V464.383H57.2116Z" fill="#D2D4DB"></path><path d="M79.1071 464.383V480H77.2159V466.365H77.1244L73.3116 468.897V466.975L77.2159 464.383H79.1071ZM83.2325 476.797V475.242L90.0955 464.383H91.2241V466.792H90.4616L85.2762 474.998V475.12H94.5184V476.797H83.2325ZM90.5836 480V476.324V475.6V464.383H92.3832V480H90.5836ZM112.231 468.287C112.139 467.514 111.768 466.914 111.117 466.487C110.467 466.06 109.669 465.847 108.723 465.847C108.032 465.847 107.427 465.959 106.908 466.182C106.395 466.406 105.993 466.714 105.703 467.105C105.419 467.497 105.276 467.941 105.276 468.44C105.276 468.856 105.375 469.215 105.574 469.515C105.777 469.81 106.036 470.056 106.351 470.254C106.667 470.448 106.997 470.608 107.343 470.735C107.688 470.857 108.006 470.956 108.296 471.032L109.882 471.459C110.289 471.566 110.741 471.714 111.239 471.902C111.743 472.09 112.223 472.346 112.681 472.672C113.143 472.992 113.525 473.404 113.825 473.907C114.124 474.41 114.274 475.028 114.274 475.76C114.274 476.604 114.053 477.367 113.611 478.048C113.174 478.729 112.533 479.27 111.689 479.672C110.851 480.074 109.831 480.275 108.631 480.275C107.513 480.275 106.545 480.094 105.726 479.733C104.913 479.372 104.272 478.869 103.804 478.223C103.342 477.578 103.08 476.828 103.019 475.974H104.971C105.022 476.563 105.22 477.051 105.566 477.438C105.917 477.819 106.359 478.104 106.893 478.292C107.432 478.475 108.011 478.566 108.631 478.566C109.353 478.566 110.002 478.449 110.576 478.216C111.15 477.977 111.605 477.646 111.941 477.224C112.277 476.797 112.444 476.299 112.444 475.73C112.444 475.211 112.299 474.789 112.01 474.464C111.72 474.138 111.339 473.874 110.866 473.671C110.393 473.467 109.882 473.289 109.333 473.137L107.411 472.588C106.191 472.237 105.225 471.736 104.514 471.086C103.802 470.435 103.446 469.583 103.446 468.531C103.446 467.657 103.682 466.894 104.155 466.243C104.633 465.588 105.274 465.079 106.077 464.718C106.885 464.352 107.788 464.169 108.784 464.169C109.791 464.169 110.685 464.35 111.468 464.711C112.251 465.067 112.871 465.555 113.329 466.175C113.791 466.795 114.035 467.499 114.061 468.287H112.231ZM117.384 464.383H119.641L124.948 477.346H125.131L130.439 464.383H132.696V480H130.927V468.135H130.774L125.894 480H124.186L119.305 468.135H119.153V480H117.384V464.383ZM137.128 480H135.146L140.88 464.383H142.832L148.567 480H146.584L141.917 466.853H141.795L137.128 480ZM137.86 473.9H145.852V475.577H137.86V473.9ZM162.255 464.383V480H160.364V466.365H160.272L156.459 468.897V466.975L160.364 464.383H162.255ZM166.38 476.797V475.242L173.243 464.383H174.372V466.792H173.609L168.424 474.998V475.12H177.666V476.797H166.38ZM173.731 480V476.324V475.6V464.383H175.531V480H173.731Z" fill="#80828A"></path><path d="M197.497 480.214C196.602 480.214 195.797 480.036 195.08 479.68C194.363 479.324 193.788 478.836 193.356 478.216C192.924 477.595 192.688 476.889 192.647 476.096H194.477C194.548 476.802 194.869 477.387 195.438 477.85C196.013 478.307 196.699 478.536 197.497 478.536C198.138 478.536 198.707 478.386 199.205 478.086C199.708 477.786 200.102 477.374 200.387 476.851C200.677 476.322 200.822 475.725 200.822 475.059C200.822 474.377 200.672 473.77 200.372 473.236C200.077 472.697 199.67 472.273 199.152 471.963C198.633 471.653 198.041 471.495 197.375 471.49C196.897 471.485 196.407 471.558 195.903 471.711C195.4 471.858 194.986 472.049 194.66 472.283L192.891 472.069L193.837 464.383H201.95V466.06H195.423L194.874 470.666H194.965C195.286 470.412 195.687 470.201 196.17 470.033C196.653 469.866 197.156 469.782 197.68 469.782C198.636 469.782 199.487 470.01 200.235 470.468C200.987 470.92 201.577 471.541 202.004 472.329C202.436 473.117 202.652 474.016 202.652 475.028C202.652 476.025 202.428 476.914 201.981 477.697C201.539 478.475 200.929 479.09 200.151 479.542C199.373 479.99 198.488 480.214 197.497 480.214ZM210.562 480.214C209.667 480.214 208.861 480.036 208.144 479.68C207.427 479.324 206.853 478.836 206.421 478.216C205.989 477.595 205.752 476.889 205.712 476.096H207.542C207.613 476.802 207.933 477.387 208.503 477.85C209.077 478.307 209.763 478.536 210.562 478.536C211.202 478.536 211.771 478.386 212.27 478.086C212.773 477.786 213.167 477.374 213.452 476.851C213.741 476.322 213.886 475.725 213.886 475.059C213.886 474.377 213.736 473.77 213.436 473.236C213.142 472.697 212.735 472.273 212.216 471.963C211.698 471.653 211.106 471.495 210.44 471.49C209.962 471.485 209.471 471.558 208.968 471.711C208.465 471.858 208.05 472.049 207.725 472.283L205.956 472.069L206.901 464.383H215.015V466.06H208.487L207.938 470.666H208.03C208.35 470.412 208.752 470.201 209.235 470.033C209.718 469.866 210.221 469.782 210.745 469.782C211.7 469.782 212.552 470.01 213.299 470.468C214.052 470.92 214.641 471.541 215.068 472.329C215.5 473.117 215.716 474.016 215.716 475.028C215.716 476.025 215.493 476.914 215.045 477.697C214.603 478.475 213.993 479.09 213.215 479.542C212.437 479.99 211.553 480.214 210.562 480.214ZM219.501 480.122C219.124 480.122 218.802 479.987 218.532 479.718C218.263 479.448 218.128 479.126 218.128 478.749C218.128 478.373 218.263 478.05 218.532 477.781C218.802 477.512 219.124 477.377 219.501 477.377C219.877 477.377 220.2 477.512 220.469 477.781C220.739 478.05 220.873 478.373 220.873 478.749C220.873 478.999 220.81 479.227 220.683 479.436C220.561 479.644 220.395 479.812 220.187 479.939C219.984 480.061 219.755 480.122 219.501 480.122ZM227.696 464.383V480H225.805V466.365H225.714L221.901 468.897V466.975L225.805 464.383H227.696ZM232.188 480V478.627L237.343 472.984C237.948 472.324 238.446 471.749 238.837 471.261C239.229 470.768 239.519 470.305 239.707 469.873C239.9 469.436 239.996 468.978 239.996 468.501C239.996 467.952 239.864 467.476 239.6 467.075C239.341 466.673 238.985 466.363 238.532 466.144C238.08 465.926 237.571 465.816 237.007 465.816C236.407 465.816 235.884 465.941 235.436 466.19C234.994 466.434 234.651 466.777 234.407 467.219C234.168 467.662 234.048 468.18 234.048 468.775H232.249C232.249 467.86 232.46 467.057 232.882 466.365C233.304 465.674 233.878 465.135 234.605 464.749C235.337 464.362 236.158 464.169 237.068 464.169C237.983 464.169 238.794 464.362 239.501 464.749C240.207 465.135 240.761 465.656 241.163 466.312C241.565 466.968 241.766 467.697 241.766 468.501C241.766 469.075 241.661 469.637 241.453 470.186C241.25 470.73 240.894 471.337 240.385 472.008C239.882 472.674 239.183 473.488 238.288 474.449L234.78 478.2V478.322H242.04V480H232.188Z" fill="#785CBC"></path><path d="M2 800L60.5 888L72.5 778.5L209.5 979L221.5 778.5L258 832L270.5 778.5L444 1034.5L455 979L491.5 1034.5L504 1016.5L516.5 1034.5L530.5 998.5L555.5 1034.5H568L579 998.5L603.5 1034.5H628L640.5 943.5L702 1034.5H739.5L752.5 778H764.5L935 1034.5L947 1017L960.5 1034.5H998L1010.5 980.5L1047 1034.5H1058.5L1070.5 1017L1083.5 1034.5L1096 815L1100 821" stroke="#E18F3D" stroke-width="2"></path><path d="M3 1002.5L24.5 1035H51.5L61 1017L73.5 1035H88L99.5 999L124 1035L135.5 778.5L310.5 1035H334.5L346 1017L359 1035L370 778.5L419.5 852L430.5 778.5H468L531.5 870.5L542.5 778.5H567.5L579 796L591 778.5H604L777 1035L789.5 962.5L838 1035L850.5 999.5L874.5 1035H898.5L911 778L923 796L936 778H962L1023.5 869.5L1035.5 778L1098.5 874.5" stroke="#4696EC" stroke-width="2"></path><rect width="284" height="36" transform="translate(10 760)" fill="black" fill-opacity="0.25"></rect><path d="M22.5317 786H20.549L26.2835 770.383H28.2356L33.9701 786H31.9874L27.3206 772.853H27.1986L22.5317 786ZM23.2638 779.9H31.2554V781.577H23.2638V779.9ZM36.1586 786V774.287H37.8973V776.056H38.0193C38.2328 775.477 38.6192 775.006 39.1784 774.645C39.7376 774.285 40.368 774.104 41.0695 774.104C41.2017 774.104 41.3669 774.107 41.5652 774.112C41.7635 774.117 41.9134 774.124 42.0151 774.135V775.965C41.9541 775.949 41.8143 775.927 41.5957 775.896C41.3822 775.86 41.156 775.843 40.917 775.843C40.3476 775.843 39.8393 775.962 39.3919 776.201C38.9496 776.435 38.5988 776.76 38.3396 777.177C38.0854 777.589 37.9583 778.059 37.9583 778.588V786H36.1586ZM48.5502 786.244C47.4928 786.244 46.565 785.992 45.7669 785.489C44.9738 784.986 44.3536 784.282 43.9063 783.377C43.464 782.472 43.2428 781.414 43.2428 780.205C43.2428 778.984 43.464 777.919 43.9063 777.009C44.3536 776.099 44.9738 775.393 45.7669 774.89C46.565 774.386 47.4928 774.135 48.5502 774.135C49.6077 774.135 50.5329 774.386 51.326 774.89C52.1241 775.393 52.7443 776.099 53.1866 777.009C53.634 777.919 53.8577 778.984 53.8577 780.205C53.8577 781.414 53.634 782.472 53.1866 783.377C52.7443 784.282 52.1241 784.986 51.326 785.489C50.5329 785.992 49.6077 786.244 48.5502 786.244ZM48.5502 784.627C49.3535 784.627 50.0144 784.422 50.5329 784.01C51.0514 783.598 51.4353 783.057 51.6844 782.385C51.9335 781.714 52.058 780.987 52.058 780.205C52.058 779.422 51.9335 778.692 51.6844 778.016C51.4353 777.34 51.0514 776.793 50.5329 776.376C50.0144 775.96 49.3535 775.751 48.5502 775.751C47.747 775.751 47.0861 775.96 46.5676 776.376C46.049 776.793 45.6652 777.34 45.4161 778.016C45.167 778.692 45.0425 779.422 45.0425 780.205C45.0425 780.987 45.167 781.714 45.4161 782.385C45.6652 783.057 46.049 783.598 46.5676 784.01C47.0861 784.422 47.747 784.627 48.5502 784.627ZM61.3632 786.244C60.3057 786.244 59.378 785.992 58.5798 785.489C57.7867 784.986 57.1665 784.282 56.7192 783.377C56.2769 782.472 56.0557 781.414 56.0557 780.205C56.0557 778.984 56.2769 777.919 56.7192 777.009C57.1665 776.099 57.7867 775.393 58.5798 774.89C59.378 774.386 60.3057 774.135 61.3632 774.135C62.4206 774.135 63.3458 774.386 64.1389 774.89C64.937 775.393 65.5572 776.099 65.9995 777.009C66.4469 777.919 66.6706 778.984 66.6706 780.205C66.6706 781.414 66.4469 782.472 65.9995 783.377C65.5572 784.282 64.937 784.986 64.1389 785.489C63.3458 785.992 62.4206 786.244 61.3632 786.244ZM61.3632 784.627C62.1664 784.627 62.8273 784.422 63.3458 784.01C63.8643 783.598 64.2482 783.057 64.4973 782.385C64.7464 781.714 64.8709 780.987 64.8709 780.205C64.8709 779.422 64.7464 778.692 64.4973 778.016C64.2482 777.34 63.8643 776.793 63.3458 776.376C62.8273 775.96 62.1664 775.751 61.3632 775.751C60.5599 775.751 59.899 775.96 59.3805 776.376C58.862 776.793 58.4781 777.34 58.229 778.016C57.9799 778.692 57.8554 779.422 57.8554 780.205C57.8554 780.987 57.9799 781.714 58.229 782.385C58.4781 783.057 58.862 783.598 59.3805 784.01C59.899 784.422 60.5599 784.627 61.3632 784.627ZM71.2173 778.954V786H69.4177V774.287H71.1563V776.117H71.3088C71.5834 775.522 72.0002 775.045 72.5594 774.684C73.1186 774.318 73.8405 774.135 74.7251 774.135C75.5182 774.135 76.2121 774.297 76.8069 774.623C77.4017 774.943 77.8643 775.431 78.1948 776.087C78.5252 776.737 78.6904 777.561 78.6904 778.557V786H76.8908V778.679C76.8908 777.759 76.6518 777.042 76.174 776.529C75.6961 776.01 75.0403 775.751 74.2066 775.751C73.6321 775.751 73.1186 775.876 72.6662 776.125C72.2188 776.374 71.8655 776.737 71.6062 777.215C71.347 777.693 71.2173 778.273 71.2173 778.954Z" fill="#D2D4DB"></path><path d="M100.107 770.383V786H98.2159V772.365H98.1244L94.3116 774.897V772.975L98.2159 770.383H100.107ZM104.233 782.797V781.242L111.096 770.383H112.224V772.792H111.462L106.276 780.998V781.12H115.518V782.797H104.233ZM111.584 786V782.324V781.6V770.383H113.383V786H111.584Z" fill="#80828A"></path><path d="M129.387 770.169C130.028 770.174 130.669 770.296 131.309 770.535C131.95 770.774 132.534 771.171 133.063 771.725C133.592 772.274 134.016 773.024 134.336 773.974C134.657 774.925 134.817 776.117 134.817 777.551C134.817 778.939 134.685 780.172 134.42 781.249C134.161 782.322 133.785 783.227 133.292 783.964C132.804 784.701 132.209 785.26 131.507 785.642C130.811 786.023 130.023 786.214 129.143 786.214C128.269 786.214 127.489 786.041 126.802 785.695C126.121 785.344 125.562 784.859 125.125 784.238C124.693 783.613 124.416 782.889 124.294 782.065H126.154C126.322 782.782 126.655 783.374 127.153 783.842C127.656 784.305 128.32 784.536 129.143 784.536C130.348 784.536 131.299 784.01 131.995 782.957C132.697 781.905 133.048 780.418 133.048 778.496H132.926C132.641 778.923 132.303 779.292 131.912 779.602C131.52 779.912 131.085 780.151 130.608 780.319C130.13 780.487 129.621 780.571 129.082 780.571C128.188 780.571 127.367 780.349 126.619 779.907C125.877 779.46 125.282 778.847 124.835 778.069C124.393 777.286 124.172 776.392 124.172 775.385C124.172 774.429 124.385 773.555 124.812 772.762C125.244 771.964 125.849 771.328 126.627 770.856C127.41 770.383 128.33 770.154 129.387 770.169ZM129.387 771.847C128.747 771.847 128.17 772.007 127.656 772.327C127.148 772.642 126.744 773.07 126.444 773.608C126.149 774.142 126.002 774.734 126.002 775.385C126.002 776.036 126.144 776.628 126.429 777.162C126.718 777.691 127.112 778.113 127.611 778.428C128.114 778.738 128.686 778.893 129.326 778.893C129.809 778.893 130.259 778.799 130.676 778.611C131.093 778.418 131.457 778.156 131.767 777.825C132.082 777.49 132.328 777.111 132.506 776.689C132.684 776.262 132.773 775.817 132.773 775.355C132.773 774.745 132.626 774.173 132.331 773.639C132.041 773.105 131.64 772.673 131.126 772.343C130.618 772.012 130.038 771.847 129.387 771.847ZM137.816 786V784.627L142.971 778.984C143.576 778.324 144.074 777.749 144.465 777.261C144.857 776.768 145.146 776.305 145.334 775.873C145.528 775.436 145.624 774.978 145.624 774.501C145.624 773.952 145.492 773.476 145.228 773.075C144.968 772.673 144.613 772.363 144.16 772.144C143.708 771.926 143.199 771.816 142.635 771.816C142.035 771.816 141.512 771.941 141.064 772.19C140.622 772.434 140.279 772.777 140.035 773.219C139.796 773.662 139.676 774.18 139.676 774.775H137.877C137.877 773.86 138.088 773.057 138.51 772.365C138.932 771.674 139.506 771.135 140.233 770.749C140.965 770.362 141.786 770.169 142.696 770.169C143.611 770.169 144.422 770.362 145.129 770.749C145.835 771.135 146.389 771.656 146.791 772.312C147.193 772.968 147.393 773.697 147.393 774.501C147.393 775.075 147.289 775.637 147.081 776.186C146.877 776.73 146.522 777.337 146.013 778.008C145.51 778.674 144.811 779.488 143.916 780.449L140.408 784.2V784.322H147.668V786H137.816ZM152.159 786.122C151.783 786.122 151.46 785.987 151.191 785.718C150.922 785.448 150.787 785.126 150.787 784.749C150.787 784.373 150.922 784.05 151.191 783.781C151.46 783.512 151.783 783.377 152.159 783.377C152.536 783.377 152.858 783.512 153.128 783.781C153.397 784.05 153.532 784.373 153.532 784.749C153.532 784.999 153.468 785.227 153.341 785.436C153.219 785.644 153.054 785.812 152.846 785.939C152.642 786.061 152.414 786.122 152.159 786.122ZM161.251 786.214C160.204 786.214 159.279 786.028 158.475 785.657C157.677 785.281 157.054 784.765 156.607 784.109C156.16 783.448 155.939 782.696 155.944 781.852C155.939 781.191 156.068 780.581 156.333 780.022C156.597 779.457 156.958 778.987 157.415 778.611C157.878 778.23 158.394 777.988 158.963 777.886V777.795C158.216 777.602 157.621 777.182 157.179 776.537C156.737 775.886 156.518 775.146 156.523 774.318C156.518 773.525 156.719 772.815 157.126 772.19C157.532 771.565 158.091 771.072 158.803 770.711C159.52 770.35 160.336 770.169 161.251 770.169C162.156 770.169 162.964 770.35 163.676 770.711C164.388 771.072 164.947 771.565 165.354 772.19C165.765 772.815 165.974 773.525 165.979 774.318C165.974 775.146 165.748 775.886 165.3 776.537C164.858 777.182 164.271 777.602 163.539 777.795V777.886C164.103 777.988 164.611 778.23 165.064 778.611C165.516 778.987 165.877 779.457 166.147 780.022C166.416 780.581 166.553 781.191 166.558 781.852C166.553 782.696 166.325 783.448 165.872 784.109C165.425 784.765 164.802 785.281 164.004 785.657C163.211 786.028 162.293 786.214 161.251 786.214ZM161.251 784.536C161.958 784.536 162.568 784.422 163.081 784.193C163.595 783.964 163.991 783.641 164.271 783.224C164.55 782.807 164.693 782.319 164.698 781.76C164.693 781.17 164.54 780.649 164.24 780.197C163.94 779.744 163.531 779.389 163.013 779.129C162.499 778.87 161.912 778.74 161.251 778.74C160.585 778.74 159.99 778.87 159.467 779.129C158.948 779.389 158.539 779.744 158.239 780.197C157.944 780.649 157.799 781.17 157.804 781.76C157.799 782.319 157.934 782.807 158.208 783.224C158.488 783.641 158.887 783.964 159.406 784.193C159.924 784.422 160.539 784.536 161.251 784.536ZM161.251 777.124C161.81 777.124 162.306 777.012 162.738 776.788C163.175 776.565 163.518 776.252 163.767 775.85C164.017 775.449 164.144 774.978 164.149 774.44C164.144 773.911 164.019 773.451 163.775 773.059C163.531 772.663 163.193 772.358 162.761 772.144C162.329 771.926 161.825 771.816 161.251 771.816C160.666 771.816 160.155 771.926 159.718 772.144C159.281 772.358 158.943 772.663 158.704 773.059C158.465 773.451 158.348 773.911 158.353 774.44C158.348 774.978 158.468 775.449 158.712 775.85C158.961 776.252 159.304 776.565 159.741 776.788C160.178 777.012 160.682 777.124 161.251 777.124ZM174.666 786.214C174.026 786.203 173.385 786.081 172.745 785.847C172.104 785.614 171.52 785.22 170.991 784.666C170.462 784.106 170.038 783.351 169.717 782.401C169.397 781.445 169.237 780.245 169.237 778.801C169.237 777.419 169.367 776.193 169.626 775.126C169.885 774.053 170.261 773.151 170.754 772.419C171.248 771.682 171.842 771.122 172.539 770.741C173.24 770.36 174.031 770.169 174.91 770.169C175.785 770.169 176.563 770.345 177.244 770.695C177.93 771.041 178.489 771.524 178.921 772.144C179.354 772.765 179.633 773.479 179.76 774.287H177.9C177.727 773.586 177.391 773.003 176.893 772.541C176.395 772.078 175.734 771.847 174.91 771.847C173.7 771.847 172.747 772.373 172.051 773.425C171.359 774.478 171.011 775.955 171.006 777.856H171.128C171.413 777.424 171.751 777.055 172.142 776.75C172.539 776.44 172.976 776.201 173.454 776.033C173.932 775.866 174.438 775.782 174.971 775.782C175.866 775.782 176.685 776.005 177.427 776.453C178.169 776.895 178.764 777.508 179.211 778.291C179.659 779.068 179.882 779.961 179.882 780.967C179.882 781.933 179.666 782.818 179.234 783.621C178.802 784.419 178.194 785.054 177.412 785.527C176.634 785.995 175.719 786.224 174.666 786.214ZM174.666 784.536C175.307 784.536 175.881 784.376 176.39 784.055C176.903 783.735 177.307 783.306 177.602 782.767C177.902 782.228 178.052 781.628 178.052 780.967C178.052 780.321 177.907 779.734 177.617 779.206C177.333 778.672 176.939 778.247 176.435 777.932C175.937 777.617 175.368 777.459 174.727 777.459C174.244 777.459 173.794 777.556 173.378 777.749C172.961 777.937 172.595 778.196 172.28 778.527C171.969 778.857 171.725 779.236 171.547 779.663C171.37 780.085 171.281 780.53 171.281 780.998C171.281 781.618 171.425 782.197 171.715 782.736C172.01 783.275 172.412 783.71 172.92 784.04C173.434 784.371 174.016 784.536 174.666 784.536ZM190.842 783.072V782.248C190.842 781.679 190.959 781.158 191.193 780.685C191.432 780.207 191.778 779.826 192.23 779.541C192.688 779.251 193.242 779.106 193.892 779.106C194.553 779.106 195.107 779.251 195.555 779.541C196.002 779.826 196.34 780.207 196.569 780.685C196.798 781.158 196.912 781.679 196.912 782.248V783.072C196.912 783.641 196.795 784.165 196.561 784.643C196.333 785.115 195.992 785.497 195.54 785.786C195.092 786.071 194.543 786.214 193.892 786.214C193.231 786.214 192.675 786.071 192.222 785.786C191.77 785.497 191.427 785.115 191.193 784.643C190.959 784.165 190.842 783.641 190.842 783.072ZM192.398 782.248V783.072C192.398 783.545 192.51 783.969 192.733 784.345C192.957 784.716 193.343 784.902 193.892 784.902C194.426 784.902 194.802 784.716 195.021 784.345C195.245 783.969 195.356 783.545 195.356 783.072V782.248C195.356 781.775 195.25 781.353 195.036 780.982C194.823 780.606 194.441 780.418 193.892 780.418C193.359 780.418 192.975 780.606 192.741 780.982C192.512 781.353 192.398 781.775 192.398 782.248ZM183.064 774.135V773.311C183.064 772.742 183.181 772.221 183.415 771.748C183.654 771.27 183.999 770.889 184.452 770.604C184.909 770.314 185.464 770.169 186.114 770.169C186.775 770.169 187.329 770.314 187.777 770.604C188.224 770.889 188.562 771.27 188.791 771.748C189.02 772.221 189.134 772.742 189.134 773.311V774.135C189.134 774.704 189.017 775.228 188.783 775.705C188.554 776.178 188.214 776.56 187.761 776.849C187.314 777.134 186.765 777.276 186.114 777.276C185.453 777.276 184.897 777.134 184.444 776.849C183.992 776.56 183.649 776.178 183.415 775.705C183.181 775.228 183.064 774.704 183.064 774.135ZM184.62 773.311V774.135C184.62 774.607 184.731 775.032 184.955 775.408C185.179 775.779 185.565 775.965 186.114 775.965C186.648 775.965 187.024 775.779 187.243 775.408C187.467 775.032 187.578 774.607 187.578 774.135V773.311C187.578 772.838 187.472 772.416 187.258 772.045C187.045 771.669 186.663 771.481 186.114 771.481C185.58 771.481 185.197 771.669 184.963 772.045C184.734 772.416 184.62 772.838 184.62 773.311ZM183.644 786L194.38 770.383H196.119L185.382 786H183.644Z" fill="#E18F3D"></path><path d="M212.617 786V784.627L217.772 778.984C218.376 778.324 218.875 777.749 219.266 777.261C219.658 776.768 219.947 776.305 220.135 775.873C220.329 775.436 220.425 774.978 220.425 774.501C220.425 773.952 220.293 773.476 220.029 773.075C219.769 772.673 219.414 772.363 218.961 772.144C218.509 771.926 218 771.816 217.436 771.816C216.836 771.816 216.313 771.941 215.865 772.19C215.423 772.434 215.08 772.777 214.836 773.219C214.597 773.662 214.477 774.18 214.477 774.775H212.678C212.678 773.86 212.889 773.057 213.311 772.365C213.733 771.674 214.307 771.135 215.034 770.749C215.766 770.362 216.587 770.169 217.497 770.169C218.412 770.169 219.223 770.362 219.93 770.749C220.636 771.135 221.19 771.656 221.592 772.312C221.994 772.968 222.194 773.697 222.194 774.501C222.194 775.075 222.09 775.637 221.882 776.186C221.678 776.73 221.323 777.337 220.814 778.008C220.311 778.674 219.612 779.488 218.717 780.449L215.209 784.2V784.322H222.469V786H212.617ZM231.109 770.383V786H229.218V772.365H229.126L225.313 774.897V772.975L229.218 770.383H231.109ZM236.02 786.122C235.643 786.122 235.321 785.987 235.051 785.718C234.782 785.448 234.647 785.126 234.647 784.749C234.647 784.373 234.782 784.05 235.051 783.781C235.321 783.512 235.643 783.377 236.02 783.377C236.396 783.377 236.719 783.512 236.988 783.781C237.257 784.05 237.392 784.373 237.392 784.749C237.392 784.999 237.329 785.227 237.202 785.436C237.08 785.644 236.914 785.812 236.706 785.939C236.503 786.061 236.274 786.122 236.02 786.122ZM240.225 782.797V781.242L247.088 770.383H248.217V772.792H247.454L242.269 780.998V781.12H251.511V782.797H240.225ZM247.576 786V782.324V781.6V770.383H249.376V786H247.576ZM259.646 786.214C258.639 786.214 257.742 786.041 256.954 785.695C256.171 785.349 255.548 784.869 255.085 784.254C254.628 783.634 254.379 782.914 254.338 782.096H256.26C256.301 782.599 256.473 783.034 256.778 783.4C257.083 783.761 257.482 784.04 257.976 784.238C258.469 784.437 259.015 784.536 259.615 784.536C260.286 784.536 260.881 784.419 261.399 784.185C261.918 783.951 262.325 783.626 262.62 783.209C262.914 782.792 263.062 782.309 263.062 781.76C263.062 781.186 262.92 780.68 262.635 780.243C262.35 779.8 261.933 779.455 261.384 779.206C260.835 778.956 260.164 778.832 259.371 778.832H258.12V777.154H259.371C259.991 777.154 260.535 777.042 261.003 776.819C261.476 776.595 261.844 776.28 262.109 775.873C262.378 775.467 262.513 774.989 262.513 774.44C262.513 773.911 262.396 773.451 262.162 773.059C261.928 772.668 261.598 772.363 261.171 772.144C260.749 771.926 260.251 771.816 259.676 771.816C259.137 771.816 258.629 771.916 258.151 772.114C257.678 772.307 257.292 772.589 256.992 772.96C256.692 773.326 256.529 773.769 256.504 774.287H254.674C254.704 773.469 254.951 772.752 255.413 772.137C255.876 771.516 256.481 771.033 257.228 770.688C257.981 770.342 258.807 770.169 259.707 770.169C260.673 770.169 261.501 770.365 262.193 770.756C262.884 771.143 263.415 771.654 263.786 772.289C264.157 772.925 264.343 773.611 264.343 774.348C264.343 775.228 264.112 775.977 263.649 776.598C263.192 777.218 262.569 777.647 261.781 777.886V778.008C262.767 778.171 263.537 778.59 264.091 779.267C264.645 779.938 264.923 780.769 264.923 781.76C264.923 782.609 264.691 783.372 264.229 784.048C263.771 784.719 263.146 785.248 262.353 785.634C261.56 786.02 260.657 786.214 259.646 786.214ZM276.003 783.072V782.248C276.003 781.679 276.119 781.158 276.353 780.685C276.592 780.207 276.938 779.826 277.39 779.541C277.848 779.251 278.402 779.106 279.053 779.106C279.714 779.106 280.268 779.251 280.715 779.541C281.162 779.826 281.501 780.207 281.729 780.685C281.958 781.158 282.072 781.679 282.072 782.248V783.072C282.072 783.641 281.956 784.165 281.722 784.643C281.493 785.115 281.152 785.497 280.7 785.786C280.253 786.071 279.703 786.214 279.053 786.214C278.392 786.214 277.835 786.071 277.383 785.786C276.93 785.497 276.587 785.115 276.353 784.643C276.119 784.165 276.003 783.641 276.003 783.072ZM277.558 782.248V783.072C277.558 783.545 277.67 783.969 277.894 784.345C278.117 784.716 278.504 784.902 279.053 784.902C279.587 784.902 279.963 784.716 280.181 784.345C280.405 783.969 280.517 783.545 280.517 783.072V782.248C280.517 781.775 280.41 781.353 280.197 780.982C279.983 780.606 279.602 780.418 279.053 780.418C278.519 780.418 278.135 780.606 277.901 780.982C277.673 781.353 277.558 781.775 277.558 782.248ZM268.224 774.135V773.311C268.224 772.742 268.341 772.221 268.575 771.748C268.814 771.27 269.16 770.889 269.612 770.604C270.07 770.314 270.624 770.169 271.275 770.169C271.936 770.169 272.49 770.314 272.937 770.604C273.384 770.889 273.722 771.27 273.951 771.748C274.18 772.221 274.294 772.742 274.294 773.311V774.135C274.294 774.704 274.177 775.228 273.944 775.705C273.715 776.178 273.374 776.56 272.922 776.849C272.474 777.134 271.925 777.276 271.275 777.276C270.614 777.276 270.057 777.134 269.605 776.849C269.152 776.56 268.809 776.178 268.575 775.705C268.341 775.228 268.224 774.704 268.224 774.135ZM269.78 773.311V774.135C269.78 774.607 269.892 775.032 270.116 775.408C270.339 775.779 270.726 775.965 271.275 775.965C271.808 775.965 272.185 775.779 272.403 775.408C272.627 775.032 272.739 774.607 272.739 774.135V773.311C272.739 772.838 272.632 772.416 272.418 772.045C272.205 771.669 271.824 771.481 271.275 771.481C270.741 771.481 270.357 771.669 270.123 772.045C269.894 772.416 269.78 772.838 269.78 773.311ZM268.804 786L279.541 770.383H281.279L270.543 786H268.804Z" fill="#4696EC"></path><rect width="580" height="36" transform="translate(10 32)" fill="black" fill-opacity="0.25"></rect><path d="M21.8911 58V42.3828H31.3164V44.0604H23.7823V49.3373H30.8283V51.015H23.7823V56.3224H31.4384V58H21.8911ZM44.9738 42.3828H46.865V52.7231C46.865 53.7907 46.6133 54.7439 46.11 55.5827C45.6118 56.4164 44.9077 57.0748 43.9978 57.5577C43.0878 58.0356 42.0202 58.2745 40.795 58.2745C39.5698 58.2745 38.5022 58.0356 37.5923 57.5577C36.6823 57.0748 35.9756 56.4164 35.4723 55.5827C34.9741 54.7439 34.725 53.7907 34.725 52.7231V42.3828H36.6162V52.5706C36.6162 53.3331 36.7839 54.0118 37.1195 54.6066C37.455 55.1963 37.9329 55.6615 38.5531 56.0021C39.1784 56.3376 39.9257 56.5054 40.795 56.5054C41.6643 56.5054 42.4116 56.3376 43.0369 56.0021C43.6622 55.6615 44.1401 55.1963 44.4705 54.6066C44.8061 54.0118 44.9738 53.3331 44.9738 52.5706V42.3828ZM50.6416 58V42.3828H55.9185C57.1386 42.3828 58.1401 42.5912 58.923 43.0081C59.7059 43.4199 60.2854 43.9867 60.6616 44.7086C61.0378 45.4305 61.2259 46.2515 61.2259 47.1717C61.2259 48.0918 61.0378 48.9077 60.6616 49.6195C60.2854 50.3312 59.7084 50.8904 58.9306 51.2971C58.1528 51.6987 57.1589 51.8995 55.949 51.8995H51.6786V50.1914H55.888C56.7217 50.1914 57.3928 50.0694 57.9011 49.8254C58.4146 49.5813 58.7857 49.2356 59.0145 48.7883C59.2483 48.3358 59.3652 47.7969 59.3652 47.1717C59.3652 46.5464 59.2483 45.9998 59.0145 45.5321C58.7806 45.0644 58.407 44.7035 57.8935 44.4493C57.38 44.19 56.7014 44.0604 55.8575 44.0604H52.5327V58H50.6416ZM57.9926 50.9844L61.8359 58H59.6398L55.8575 50.9844H57.9926ZM74.626 42.3828H76.5171V52.7231C76.5171 53.7907 76.2655 54.7439 75.7622 55.5827C75.264 56.4164 74.5599 57.0748 73.6499 57.5577C72.7399 58.0356 71.6723 58.2745 70.4471 58.2745C69.222 58.2745 68.1544 58.0356 67.2444 57.5577C66.3344 57.0748 65.6278 56.4164 65.1245 55.5827C64.6263 54.7439 64.3772 53.7907 64.3772 52.7231V42.3828H66.2683V52.5706C66.2683 53.3331 66.4361 54.0118 66.7716 54.6066C67.1071 55.1963 67.585 55.6615 68.2052 56.0021C68.8305 56.3376 69.5778 56.5054 70.4471 56.5054C71.3165 56.5054 72.0638 56.3376 72.6891 56.0021C73.3144 55.6615 73.7922 55.1963 74.1227 54.6066C74.4582 54.0118 74.626 53.3331 74.626 52.5706V42.3828ZM88.8344 46.2871C88.7429 45.5144 88.3717 44.9145 87.721 44.4874C87.0703 44.0604 86.2722 43.8469 85.3266 43.8469C84.6352 43.8469 84.0302 43.9587 83.5117 44.1824C82.9982 44.4061 82.5966 44.7137 82.3069 45.1051C82.0222 45.4966 81.8798 45.9414 81.8798 46.4396C81.8798 46.8565 81.979 47.2149 82.1772 47.5148C82.3806 47.8097 82.6398 48.0562 82.955 48.2545C83.2702 48.4477 83.6007 48.6078 83.9464 48.7349C84.2921 48.8569 84.6098 48.956 84.8996 49.0323L86.4857 49.4593C86.8924 49.5661 87.3448 49.7135 87.843 49.9016C88.3463 50.0897 88.8267 50.3464 89.2843 50.6718C89.7469 50.9921 90.1282 51.4039 90.4281 51.9071C90.7281 52.4104 90.878 53.0281 90.878 53.7602C90.878 54.6041 90.6569 55.3666 90.2146 56.0478C89.7774 56.7291 89.1369 57.2705 88.293 57.6721C87.4541 58.0737 86.4348 58.2745 85.2351 58.2745C84.1167 58.2745 83.1482 58.094 82.3297 57.7331C81.5163 57.3722 80.8758 56.8689 80.4081 56.2232C79.9455 55.5776 79.6837 54.8278 79.6226 53.9737H81.5748C81.6256 54.5634 81.8239 55.0514 82.1696 55.4378C82.5204 55.8191 82.9627 56.1038 83.4964 56.2919C84.0353 56.4749 84.6149 56.5664 85.2351 56.5664C85.957 56.5664 86.6052 56.4495 87.1796 56.2156C87.7541 55.9767 88.2091 55.6462 88.5446 55.2243C88.8801 54.7972 89.0479 54.299 89.0479 53.7297C89.0479 53.2111 88.903 52.7892 88.6132 52.4638C88.3235 52.1385 87.9422 51.8741 87.4694 51.6708C86.9966 51.4674 86.4857 51.2895 85.9366 51.137L84.015 50.5879C82.7949 50.2371 81.829 49.7364 81.1173 49.0857C80.4055 48.435 80.0497 47.5834 80.0497 46.5311C80.0497 45.6567 80.2861 44.8941 80.7589 44.2434C81.2367 43.5876 81.8773 43.0792 82.6805 42.7183C83.4888 42.3523 84.3912 42.1693 85.3876 42.1693C86.3942 42.1693 87.2889 42.3497 88.0718 42.7107C88.8547 43.0665 89.4749 43.5546 89.9325 44.1748C90.3951 44.795 90.6391 45.4991 90.6645 46.2871H88.8344ZM98.8067 58H93.9874V42.3828H99.0203C100.535 42.3828 101.832 42.6954 102.909 43.3207C103.987 43.9409 104.813 44.8331 105.388 45.9973C105.962 47.1564 106.249 48.5443 106.249 50.1609C106.249 51.7877 105.96 53.1882 105.38 54.3626C104.8 55.5318 103.957 56.4317 102.848 57.0621C101.74 57.6874 100.393 58 98.8067 58ZM95.8785 56.3224H98.6847C99.976 56.3224 101.046 56.0733 101.895 55.5751C102.744 55.0769 103.377 54.3677 103.794 53.4475C104.211 52.5274 104.419 51.4318 104.419 50.1609C104.419 48.9001 104.213 47.8147 103.802 46.9048C103.39 45.9897 102.775 45.2881 101.956 44.8001C101.138 44.307 100.118 44.0604 98.8982 44.0604H95.8785V56.3224Z" fill="#D2D4DB"></path><path d="M126.894 58.2135C125.887 58.2135 124.99 58.0407 124.202 57.695C123.419 57.3493 122.796 56.8689 122.333 56.2537C121.876 55.6335 121.627 54.9142 121.586 54.0957H123.508C123.548 54.599 123.721 55.0336 124.026 55.3997C124.331 55.7606 124.73 56.0402 125.224 56.2385C125.717 56.4368 126.263 56.5359 126.863 56.5359C127.534 56.5359 128.129 56.419 128.647 56.1851C129.166 55.9513 129.573 55.6259 129.868 55.209C130.162 54.7922 130.31 54.3092 130.31 53.7602C130.31 53.1857 130.167 52.6799 129.883 52.2427C129.598 51.8004 129.181 51.4547 128.632 51.2056C128.083 50.9565 127.412 50.8319 126.619 50.8319H125.368V49.1543H126.619C127.239 49.1543 127.783 49.0425 128.251 48.8188C128.724 48.5951 129.092 48.2799 129.357 47.8732C129.626 47.4665 129.761 46.9886 129.761 46.4396C129.761 45.9109 129.644 45.4508 129.41 45.0594C129.176 44.6679 128.846 44.3629 128.419 44.1443C127.997 43.9257 127.499 43.8164 126.924 43.8164C126.385 43.8164 125.877 43.9155 125.399 44.1138C124.926 44.307 124.54 44.5891 124.24 44.9602C123.94 45.3263 123.777 45.7685 123.752 46.2871H121.922C121.952 45.4686 122.199 44.7518 122.661 44.1367C123.124 43.5164 123.729 43.0335 124.476 42.6878C125.229 42.3421 126.055 42.1693 126.955 42.1693C127.92 42.1693 128.749 42.365 129.44 42.7564C130.132 43.1428 130.663 43.6537 131.034 44.2892C131.405 44.9246 131.591 45.6109 131.591 46.3481C131.591 47.2276 131.36 47.9774 130.897 48.5976C130.439 49.2179 129.817 49.6474 129.029 49.8864V50.0084C130.015 50.1711 130.785 50.5905 131.339 51.2666C131.893 51.9376 132.17 52.7688 132.17 53.7602C132.17 54.6092 131.939 55.3717 131.477 56.0478C131.019 56.7189 130.394 57.2476 129.601 57.634C128.808 58.0203 127.905 58.2135 126.894 58.2135ZM140.383 58.2135C139.234 58.2135 138.256 57.9009 137.447 57.2756C136.639 56.6452 136.021 55.7327 135.594 54.538C135.167 53.3382 134.954 51.8894 134.954 50.1914C134.954 48.5036 135.167 47.0624 135.594 45.8677C136.026 44.6679 136.647 43.7528 137.455 43.1225C138.268 42.487 139.244 42.1693 140.383 42.1693C141.522 42.1693 142.496 42.487 143.304 43.1225C144.117 43.7528 144.737 44.6679 145.164 45.8677C145.597 47.0624 145.813 48.5036 145.813 50.1914C145.813 51.8894 145.599 53.3382 145.172 54.538C144.745 55.7327 144.127 56.6452 143.319 57.2756C142.511 57.9009 141.532 58.2135 140.383 58.2135ZM140.383 56.5359C141.522 56.5359 142.407 55.9868 143.037 54.8888C143.667 53.7907 143.983 52.2249 143.983 50.1914C143.983 48.8391 143.838 47.6876 143.548 46.737C143.263 45.7863 142.851 45.0619 142.312 44.5637C141.779 44.0655 141.136 43.8164 140.383 43.8164C139.255 43.8164 138.373 44.3731 137.737 45.4864C137.102 46.5946 136.784 48.163 136.784 50.1914C136.784 51.5437 136.926 52.6926 137.211 53.6382C137.496 54.5837 137.905 55.3031 138.439 55.7962C138.978 56.2893 139.626 56.5359 140.383 56.5359ZM161.491 49.3526V51.0302H154.658V49.3526H161.491ZM170.941 58V42.3828H180.305V44.0604H172.832V49.3373H179.604V51.015H172.832V58H170.941ZM187.199 58.244C186.141 58.244 185.213 57.9924 184.415 57.4891C183.622 56.9858 183.002 56.2817 182.555 55.3768C182.112 54.4719 181.891 53.4145 181.891 52.2045C181.891 50.9844 182.112 49.9194 182.555 49.0094C183.002 48.0994 183.622 47.3928 184.415 46.8895C185.213 46.3862 186.141 46.1346 187.199 46.1346C188.256 46.1346 189.181 46.3862 189.974 46.8895C190.773 47.3928 191.393 48.0994 191.835 49.0094C192.282 49.9194 192.506 50.9844 192.506 52.2045C192.506 53.4145 192.282 54.4719 191.835 55.3768C191.393 56.2817 190.773 56.9858 189.974 57.4891C189.181 57.9924 188.256 58.244 187.199 58.244ZM187.199 56.6274C188.002 56.6274 188.663 56.4215 189.181 56.0097C189.7 55.5979 190.084 55.0565 190.333 54.3855C190.582 53.7144 190.706 52.9874 190.706 52.2045C190.706 51.4217 190.582 50.6921 190.333 50.016C190.084 49.3399 189.7 48.7934 189.181 48.3765C188.663 47.9596 188.002 47.7512 187.199 47.7512C186.395 47.7512 185.735 47.9596 185.216 48.3765C184.697 48.7934 184.314 49.3399 184.065 50.016C183.815 50.6921 183.691 51.4217 183.691 52.2045C183.691 52.9874 183.815 53.7144 184.065 54.3855C184.314 55.0565 184.697 55.5979 185.216 56.0097C185.735 56.4215 186.395 56.6274 187.199 56.6274ZM195.253 58V46.2871H196.992V48.0562H197.114C197.327 47.4767 197.714 47.0064 198.273 46.6455C198.832 46.2845 199.463 46.1041 200.164 46.1041C200.296 46.1041 200.461 46.1066 200.66 46.1117C200.858 46.1168 201.008 46.1244 201.11 46.1346V47.9647C201.049 47.9495 200.909 47.9266 200.69 47.8961C200.477 47.8605 200.251 47.8427 200.012 47.8427C199.442 47.8427 198.934 47.9622 198.486 48.2011C198.044 48.435 197.693 48.7603 197.434 49.1772C197.18 49.589 197.053 50.0592 197.053 50.5879V58H195.253ZM207.797 58.244C206.669 58.244 205.695 57.9949 204.877 57.4967C204.063 56.9934 203.435 56.2919 202.993 55.392C202.556 54.4871 202.337 53.4348 202.337 52.235C202.337 51.0353 202.556 49.9779 202.993 49.0628C203.435 48.1426 204.051 47.4258 204.839 46.9124C205.632 46.3938 206.557 46.1346 207.614 46.1346C208.224 46.1346 208.827 46.2362 209.422 46.4396C210.016 46.6429 210.558 46.9734 211.046 47.4309C211.534 47.8834 211.923 48.4833 212.213 49.2306C212.502 49.9779 212.647 50.898 212.647 51.991V52.7536H203.618V51.198H210.817C210.817 50.5371 210.685 49.9474 210.421 49.4288C210.161 48.9103 209.79 48.501 209.307 48.2011C208.829 47.9012 208.265 47.7512 207.614 47.7512C206.898 47.7512 206.277 47.9291 205.754 48.285C205.235 48.6358 204.836 49.0933 204.556 49.6576C204.277 50.2219 204.137 50.8269 204.137 51.4725V52.5096C204.137 53.3941 204.29 54.144 204.595 54.7591C204.905 55.3692 205.334 55.8343 205.883 56.1546C206.432 56.4698 207.07 56.6274 207.797 56.6274C208.27 56.6274 208.697 56.5613 209.078 56.4291C209.465 56.2919 209.798 56.0885 210.077 55.8191C210.357 55.5446 210.573 55.2039 210.726 54.7972L212.464 55.2853C212.281 55.875 211.974 56.3935 211.541 56.8409C211.109 57.2832 210.576 57.6289 209.94 57.878C209.305 58.122 208.59 58.244 207.797 58.244ZM216.412 46.2871L219.219 51.076L222.025 46.2871H224.099L220.317 52.1435L224.099 58H222.025L219.219 53.4551L216.412 58H214.338L218.059 52.1435L214.338 46.2871H216.412ZM232.95 42.3828H235.208L240.515 55.3463H240.698L246.005 42.3828H248.263V58H246.493V46.1346H246.341L241.461 58H239.752L234.872 46.1346H234.719V58H232.95V42.3828ZM255.257 58.2745C254.515 58.2745 253.841 58.1347 253.236 57.8551C252.631 57.5704 252.151 57.1612 251.795 56.6274C251.439 56.0885 251.261 55.4378 251.261 54.6752C251.261 54.0042 251.394 53.4602 251.658 53.0434C251.922 52.6214 252.276 52.291 252.718 52.052C253.16 51.8131 253.648 51.6352 254.182 51.5182C254.721 51.3962 255.262 51.2996 255.806 51.2285C256.518 51.137 257.095 51.0683 257.537 51.0226C257.985 50.9717 258.31 50.8879 258.513 50.7709C258.722 50.654 258.826 50.4507 258.826 50.1609V50.0999C258.826 49.3475 258.62 48.7629 258.208 48.346C257.802 47.9291 257.184 47.7207 256.355 47.7207C255.496 47.7207 254.822 47.9088 254.334 48.285C253.846 48.6612 253.503 49.0628 253.305 49.4898L251.597 48.8798C251.902 48.1681 252.309 47.6139 252.817 47.2174C253.33 46.8158 253.89 46.5362 254.495 46.3786C255.105 46.2159 255.705 46.1346 256.294 46.1346C256.67 46.1346 257.103 46.1803 257.591 46.2718C258.084 46.3583 258.559 46.5387 259.017 46.8132C259.479 47.0878 259.863 47.5021 260.168 48.0562C260.473 48.6103 260.626 49.3526 260.626 50.2829V58H258.826V56.4139H258.734C258.612 56.6681 258.409 56.94 258.124 57.2298C257.84 57.5196 257.461 57.7661 256.988 57.9695C256.515 58.1728 255.938 58.2745 255.257 58.2745ZM255.532 56.6579C256.243 56.6579 256.843 56.5181 257.331 56.2385C257.824 55.9589 258.196 55.5979 258.445 55.1557C258.699 54.7134 258.826 54.2482 258.826 53.7602V52.113C258.75 52.2045 258.582 52.2884 258.323 52.3647C258.068 52.4359 257.774 52.4994 257.438 52.5553C257.108 52.6062 256.785 52.6519 256.47 52.6926C256.16 52.7282 255.908 52.7587 255.715 52.7841C255.247 52.8451 254.81 52.9442 254.403 53.0815C254.001 53.2137 253.676 53.4145 253.427 53.6839C253.183 53.9483 253.061 54.3092 253.061 54.7667C253.061 55.392 253.292 55.8648 253.755 56.1851C254.223 56.5003 254.815 56.6579 255.532 56.6579ZM263.91 46.2871H265.71V58.8541C265.71 59.576 265.585 60.2013 265.336 60.73C265.092 61.2587 264.721 61.6679 264.223 61.9577C263.73 62.2475 263.107 62.3923 262.355 62.3923C262.294 62.3923 262.233 62.3923 262.172 62.3923C262.111 62.3923 262.05 62.3923 261.989 62.3923V60.7147C262.05 60.7147 262.106 60.7147 262.156 60.7147C262.207 60.7147 262.263 60.7147 262.324 60.7147C262.873 60.7147 263.275 60.552 263.529 60.2267C263.783 59.9064 263.91 59.4489 263.91 58.8541V46.2871ZM264.795 44.3349C264.444 44.3349 264.142 44.2155 263.887 43.9765C263.638 43.7376 263.514 43.4504 263.514 43.1148C263.514 42.7793 263.638 42.4921 263.887 42.2531C264.142 42.0142 264.444 41.8947 264.795 41.8947C265.146 41.8947 265.446 42.0142 265.695 42.2531C265.949 42.4921 266.076 42.7793 266.076 43.1148C266.076 43.4504 265.949 43.7376 265.695 43.9765C265.446 44.2155 265.146 44.3349 264.795 44.3349ZM273.764 58.244C272.707 58.244 271.779 57.9924 270.981 57.4891C270.188 56.9858 269.568 56.2817 269.12 55.3768C268.678 54.4719 268.457 53.4145 268.457 52.2045C268.457 50.9844 268.678 49.9194 269.12 49.0094C269.568 48.0994 270.188 47.3928 270.981 46.8895C271.779 46.3862 272.707 46.1346 273.764 46.1346C274.822 46.1346 275.747 46.3862 276.54 46.8895C277.338 47.3928 277.959 48.0994 278.401 49.0094C278.848 49.9194 279.072 50.9844 279.072 52.2045C279.072 53.4145 278.848 54.4719 278.401 55.3768C277.959 56.2817 277.338 56.9858 276.54 57.4891C275.747 57.9924 274.822 58.244 273.764 58.244ZM273.764 56.6274C274.568 56.6274 275.229 56.4215 275.747 56.0097C276.266 55.5979 276.649 55.0565 276.899 54.3855C277.148 53.7144 277.272 52.9874 277.272 52.2045C277.272 51.4217 277.148 50.6921 276.899 50.016C276.649 49.3399 276.266 48.7934 275.747 48.3765C275.229 47.9596 274.568 47.7512 273.764 47.7512C272.961 47.7512 272.3 47.9596 271.782 48.3765C271.263 48.7934 270.879 49.3399 270.63 50.016C270.381 50.6921 270.257 51.4217 270.257 52.2045C270.257 52.9874 270.381 53.7144 270.63 54.3855C270.879 55.0565 271.263 55.5979 271.782 56.0097C272.3 56.4215 272.961 56.6274 273.764 56.6274ZM281.819 58V46.2871H283.558V48.0562H283.68C283.893 47.4767 284.28 47.0064 284.839 46.6455C285.398 46.2845 286.028 46.1041 286.73 46.1041C286.862 46.1041 287.027 46.1066 287.226 46.1117C287.424 46.1168 287.574 46.1244 287.675 46.1346V47.9647C287.614 47.9495 287.475 47.9266 287.256 47.8961C287.043 47.8605 286.816 47.8427 286.577 47.8427C286.008 47.8427 285.5 47.9622 285.052 48.2011C284.61 48.435 284.259 48.7603 284 49.1772C283.746 49.589 283.619 50.0592 283.619 50.5879V58H281.819ZM298.105 48.9103L296.489 49.3678C296.387 49.0984 296.237 48.8366 296.039 48.5824C295.846 48.3231 295.581 48.1096 295.246 47.9418C294.91 47.7741 294.481 47.6902 293.957 47.6902C293.24 47.6902 292.643 47.8554 292.165 48.1859C291.692 48.5112 291.456 48.9255 291.456 49.4288C291.456 49.8762 291.619 50.2295 291.944 50.4888C292.269 50.7481 292.778 50.9641 293.469 51.137L295.208 51.564C296.255 51.8182 297.035 52.2071 297.549 52.7307C298.062 53.2493 298.319 53.9178 298.319 54.7362C298.319 55.4073 298.126 56.0072 297.739 56.5359C297.358 57.0646 296.824 57.4815 296.138 57.7865C295.452 58.0915 294.654 58.244 293.744 58.244C292.549 58.244 291.56 57.9847 290.777 57.4662C289.994 56.9477 289.499 56.1902 289.29 55.1938L290.998 54.7667C291.161 55.3971 291.469 55.8699 291.921 56.1851C292.379 56.5003 292.976 56.6579 293.713 56.6579C294.552 56.6579 295.218 56.48 295.711 56.1241C296.209 55.7632 296.458 55.331 296.458 54.8278C296.458 54.4211 296.316 54.0804 296.031 53.8059C295.747 53.5263 295.309 53.3179 294.72 53.1806L292.767 52.7231C291.695 52.4689 290.907 52.0749 290.404 51.5411C289.905 51.0022 289.656 50.3286 289.656 49.5203C289.656 48.8594 289.842 48.2748 290.213 47.7664C290.589 47.2581 291.1 46.859 291.746 46.5692C292.396 46.2795 293.133 46.1346 293.957 46.1346C295.116 46.1346 296.026 46.3888 296.687 46.8971C297.353 47.4055 297.826 48.0766 298.105 48.9103Z" fill="#80828A"></path><path d="M319.107 42.3828V58H317.216V44.3654H317.124L313.312 46.8971V44.9755L317.216 42.3828H319.107ZM324.018 58.122C323.642 58.122 323.319 57.9873 323.049 57.7179C322.78 57.4484 322.645 57.1256 322.645 56.7494C322.645 56.3732 322.78 56.0504 323.049 55.781C323.319 55.5115 323.642 55.3768 324.018 55.3768C324.394 55.3768 324.717 55.5115 324.986 55.781C325.256 56.0504 325.391 56.3732 325.391 56.7494C325.391 56.9985 325.327 57.2273 325.2 57.4357C325.078 57.6441 324.913 57.8119 324.704 57.939C324.501 58.061 324.272 58.122 324.018 58.122ZM333.138 58.2135C331.989 58.2135 331.011 57.9009 330.202 57.2756C329.394 56.6452 328.776 55.7327 328.349 54.538C327.922 53.3382 327.709 51.8894 327.709 50.1914C327.709 48.5036 327.922 47.0624 328.349 45.8677C328.781 44.6679 329.402 43.7528 330.21 43.1225C331.023 42.487 331.999 42.1693 333.138 42.1693C334.277 42.1693 335.25 42.487 336.059 43.1225C336.872 43.7528 337.492 44.6679 337.919 45.8677C338.352 47.0624 338.568 48.5036 338.568 50.1914C338.568 51.8894 338.354 53.3382 337.927 54.538C337.5 55.7327 336.882 56.6452 336.074 57.2756C335.266 57.9009 334.287 58.2135 333.138 58.2135ZM333.138 56.5359C334.277 56.5359 335.161 55.9868 335.792 54.8888C336.422 53.7907 336.737 52.2249 336.737 50.1914C336.737 48.8391 336.593 47.6876 336.303 46.737C336.018 45.7863 335.606 45.0619 335.067 44.5637C334.534 44.0655 333.891 43.8164 333.138 43.8164C332.01 43.8164 331.128 44.3731 330.492 45.4864C329.857 46.5946 329.539 48.163 329.539 50.1914C329.539 51.5437 329.681 52.6926 329.966 53.6382C330.251 54.5837 330.66 55.3031 331.194 55.7962C331.733 56.2893 332.381 56.5359 333.138 56.5359ZM341.534 58L348.519 44.1824V44.0604H340.466V42.3828H350.471V44.1519L343.517 58H341.534ZM358.001 58.2135C356.954 58.2135 356.029 58.028 355.226 57.6568C354.428 57.2807 353.805 56.7647 353.357 56.1089C352.91 55.448 352.689 54.6956 352.694 53.8517C352.689 53.1908 352.819 52.5807 353.083 52.0215C353.347 51.4572 353.708 50.987 354.166 50.6108C354.628 50.2295 355.144 49.988 355.714 49.8864V49.7949C354.966 49.6017 354.372 49.1823 353.929 48.5366C353.487 47.8859 353.268 47.1462 353.274 46.3176C353.268 45.5245 353.469 44.8153 353.876 44.19C354.283 43.5647 354.842 43.0716 355.554 42.7107C356.27 42.3497 357.086 42.1693 358.001 42.1693C358.906 42.1693 359.715 42.3497 360.426 42.7107C361.138 43.0716 361.697 43.5647 362.104 44.19C362.516 44.8153 362.724 45.5245 362.729 46.3176C362.724 47.1462 362.498 47.8859 362.051 48.5366C361.608 49.1823 361.021 49.6017 360.289 49.7949V49.8864C360.853 49.988 361.362 50.2295 361.814 50.6108C362.267 50.987 362.628 51.4572 362.897 52.0215C363.166 52.5807 363.304 53.1908 363.309 53.8517C363.304 54.6956 363.075 55.448 362.623 56.1089C362.175 56.7647 361.552 57.2807 360.754 57.6568C359.961 58.028 359.044 58.2135 358.001 58.2135ZM358.001 56.5359C358.708 56.5359 359.318 56.4215 359.832 56.1927C360.345 55.964 360.742 55.6411 361.021 55.2243C361.301 54.8074 361.443 54.3194 361.448 53.7602C361.443 53.1705 361.291 52.6494 360.991 52.1969C360.691 51.7445 360.281 51.3886 359.763 51.1293C359.249 50.8701 358.662 50.7404 358.001 50.7404C357.335 50.7404 356.741 50.8701 356.217 51.1293C355.698 51.3886 355.289 51.7445 354.989 52.1969C354.694 52.6494 354.55 53.1705 354.555 53.7602C354.55 54.3194 354.684 54.8074 354.959 55.2243C355.238 55.6411 355.637 55.964 356.156 56.1927C356.675 56.4215 357.29 56.5359 358.001 56.5359ZM358.001 49.1238C358.561 49.1238 359.056 49.012 359.488 48.7883C359.926 48.5646 360.269 48.2519 360.518 47.8503C360.767 47.4487 360.894 46.9785 360.899 46.4396C360.894 45.9109 360.77 45.4508 360.525 45.0594C360.281 44.6628 359.943 44.3578 359.511 44.1443C359.079 43.9257 358.576 43.8164 358.001 43.8164C357.417 43.8164 356.906 43.9257 356.469 44.1443C356.031 44.3578 355.693 44.6628 355.454 45.0594C355.216 45.4508 355.099 45.9109 355.104 46.4396C355.099 46.9785 355.218 47.4487 355.462 47.8503C355.711 48.2519 356.054 48.5646 356.492 48.7883C356.929 49.012 357.432 49.1238 358.001 49.1238ZM366.231 58V56.6274L371.386 50.9844C371.991 50.3236 372.489 49.7491 372.881 49.2611C373.272 48.7679 373.562 48.3053 373.75 47.8732C373.943 47.436 374.04 46.9785 374.04 46.5006C374.04 45.9516 373.908 45.4762 373.643 45.0746C373.384 44.673 373.028 44.3629 372.576 44.1443C372.123 43.9257 371.615 43.8164 371.051 43.8164C370.451 43.8164 369.927 43.9409 369.48 44.19C369.038 44.4341 368.694 44.7772 368.45 45.2195C368.211 45.6618 368.092 46.1803 368.092 46.7751H366.292C366.292 45.86 366.503 45.0568 366.925 44.3654C367.347 43.674 367.922 43.1352 368.649 42.7488C369.381 42.3624 370.202 42.1693 371.112 42.1693C372.027 42.1693 372.838 42.3624 373.544 42.7488C374.251 43.1352 374.805 43.6562 375.207 44.3121C375.608 44.9679 375.809 45.6974 375.809 46.5006C375.809 47.0751 375.705 47.6368 375.496 48.1859C375.293 48.7298 374.937 49.3373 374.429 50.0084C373.926 50.6743 373.227 51.4877 372.332 52.4486L368.824 56.2004V56.3224H376.084V58H366.231ZM384.235 58.2135C383.188 58.2135 382.263 58.028 381.46 57.6568C380.662 57.2807 380.039 56.7647 379.591 56.1089C379.144 55.448 378.923 54.6956 378.928 53.8517C378.923 53.1908 379.053 52.5807 379.317 52.0215C379.581 51.4572 379.942 50.987 380.4 50.6108C380.862 50.2295 381.378 49.988 381.948 49.8864V49.7949C381.2 49.6017 380.606 49.1823 380.163 48.5366C379.721 47.8859 379.502 47.1462 379.508 46.3176C379.502 45.5245 379.703 44.8153 380.11 44.19C380.517 43.5647 381.076 43.0716 381.788 42.7107C382.504 42.3497 383.32 42.1693 384.235 42.1693C385.14 42.1693 385.949 42.3497 386.66 42.7107C387.372 43.0716 387.931 43.5647 388.338 44.19C388.75 44.8153 388.958 45.5245 388.963 46.3176C388.958 47.1462 388.732 47.8859 388.285 48.5366C387.842 49.1823 387.255 49.6017 386.523 49.7949V49.8864C387.087 49.988 387.596 50.2295 388.048 50.6108C388.501 50.987 388.862 51.4572 389.131 52.0215C389.4 52.5807 389.538 53.1908 389.543 53.8517C389.538 54.6956 389.309 55.448 388.856 56.1089C388.409 56.7647 387.786 57.2807 386.988 57.6568C386.195 58.028 385.278 58.2135 384.235 58.2135ZM384.235 56.5359C384.942 56.5359 385.552 56.4215 386.066 56.1927C386.579 55.964 386.976 55.6411 387.255 55.2243C387.535 54.8074 387.677 54.3194 387.682 53.7602C387.677 53.1705 387.525 52.6494 387.225 52.1969C386.925 51.7445 386.515 51.3886 385.997 51.1293C385.483 50.8701 384.896 50.7404 384.235 50.7404C383.569 50.7404 382.975 50.8701 382.451 51.1293C381.932 51.3886 381.523 51.7445 381.223 52.1969C380.928 52.6494 380.784 53.1705 380.789 53.7602C380.784 54.3194 380.918 54.8074 381.193 55.2243C381.472 55.6411 381.871 55.964 382.39 56.1927C382.909 56.4215 383.524 56.5359 384.235 56.5359ZM384.235 49.1238C384.795 49.1238 385.29 49.012 385.722 48.7883C386.16 48.5646 386.503 48.2519 386.752 47.8503C387.001 47.4487 387.128 46.9785 387.133 46.4396C387.128 45.9109 387.003 45.4508 386.759 45.0594C386.515 44.6628 386.177 44.3578 385.745 44.1443C385.313 43.9257 384.81 43.8164 384.235 43.8164C383.651 43.8164 383.14 43.9257 382.703 44.1443C382.265 44.3578 381.927 44.6628 381.688 45.0594C381.449 45.4508 381.333 45.9109 381.338 46.4396C381.333 46.9785 381.452 47.4487 381.696 47.8503C381.945 48.2519 382.288 48.5646 382.726 48.7883C383.163 49.012 383.666 49.1238 384.235 49.1238ZM405.246 49.3526V51.0302H398.413V49.3526H405.246ZM413.476 58.2135C412.327 58.2135 411.348 57.9009 410.54 57.2756C409.732 56.6452 409.114 55.7327 408.687 54.538C408.26 53.3382 408.046 51.8894 408.046 50.1914C408.046 48.5036 408.26 47.0624 408.687 45.8677C409.119 44.6679 409.739 43.7528 410.548 43.1225C411.361 42.487 412.337 42.1693 413.476 42.1693C414.614 42.1693 415.588 42.487 416.396 43.1225C417.21 43.7528 417.83 44.6679 418.257 45.8677C418.689 47.0624 418.905 48.5036 418.905 50.1914C418.905 51.8894 418.692 53.3382 418.265 54.538C417.838 55.7327 417.22 56.6452 416.412 57.2756C415.603 57.9009 414.625 58.2135 413.476 58.2135ZM413.476 56.5359C414.614 56.5359 415.499 55.9868 416.129 54.8888C416.76 53.7907 417.075 52.2249 417.075 50.1914C417.075 48.8391 416.93 47.6876 416.64 46.737C416.356 45.7863 415.944 45.0619 415.405 44.5637C414.871 44.0655 414.228 43.8164 413.476 43.8164C412.347 43.8164 411.465 44.3731 410.83 45.4864C410.194 46.5946 409.876 48.163 409.876 50.1914C409.876 51.5437 410.019 52.6926 410.303 53.6382C410.588 54.5837 410.997 55.3031 411.531 55.7962C412.07 56.2893 412.718 56.5359 413.476 56.5359ZM422.6 58.122C422.224 58.122 421.901 57.9873 421.631 57.7179C421.362 57.4484 421.227 57.1256 421.227 56.7494C421.227 56.3732 421.362 56.0504 421.631 55.781C421.901 55.5115 422.224 55.3768 422.6 55.3768C422.976 55.3768 423.299 55.5115 423.568 55.781C423.838 56.0504 423.972 56.3732 423.972 56.7494C423.972 56.9985 423.909 57.2273 423.782 57.4357C423.66 57.6441 423.495 57.8119 423.286 57.939C423.083 58.061 422.854 58.122 422.6 58.122ZM431.72 58.2135C430.571 58.2135 429.592 57.9009 428.784 57.2756C427.976 56.6452 427.358 55.7327 426.931 54.538C426.504 53.3382 426.291 51.8894 426.291 50.1914C426.291 48.5036 426.504 47.0624 426.931 45.8677C427.363 44.6679 427.983 43.7528 428.792 43.1225C429.605 42.487 430.581 42.1693 431.72 42.1693C432.859 42.1693 433.832 42.487 434.641 43.1225C435.454 43.7528 436.074 44.6679 436.501 45.8677C436.933 47.0624 437.149 48.5036 437.149 50.1914C437.149 51.8894 436.936 53.3382 436.509 54.538C436.082 55.7327 435.464 56.6452 434.656 57.2756C433.848 57.9009 432.869 58.2135 431.72 58.2135ZM431.72 56.5359C432.859 56.5359 433.743 55.9868 434.374 54.8888C435.004 53.7907 435.319 52.2249 435.319 50.1914C435.319 48.8391 435.174 47.6876 434.885 46.737C434.6 45.7863 434.188 45.0619 433.649 44.5637C433.115 44.0655 432.472 43.8164 431.72 43.8164C430.591 43.8164 429.709 44.3731 429.074 45.4864C428.438 46.5946 428.121 48.163 428.121 50.1914C428.121 51.5437 428.263 52.6926 428.548 53.6382C428.832 54.5837 429.242 55.3031 429.775 55.7962C430.314 56.2893 430.963 56.5359 431.72 56.5359ZM445.141 58.2135C443.992 58.2135 443.013 57.9009 442.205 57.2756C441.397 56.6452 440.779 55.7327 440.352 54.538C439.925 53.3382 439.712 51.8894 439.712 50.1914C439.712 48.5036 439.925 47.0624 440.352 45.8677C440.784 44.6679 441.404 43.7528 442.213 43.1225C443.026 42.487 444.002 42.1693 445.141 42.1693C446.28 42.1693 447.253 42.487 448.062 43.1225C448.875 43.7528 449.495 44.6679 449.922 45.8677C450.354 47.0624 450.57 48.5036 450.57 50.1914C450.57 51.8894 450.357 53.3382 449.93 54.538C449.503 55.7327 448.885 56.6452 448.077 57.2756C447.269 57.9009 446.29 58.2135 445.141 58.2135ZM445.141 56.5359C446.28 56.5359 447.164 55.9868 447.795 54.8888C448.425 53.7907 448.74 52.2249 448.74 50.1914C448.74 48.8391 448.595 47.6876 448.306 46.737C448.021 45.7863 447.609 45.0619 447.07 44.5637C446.537 44.0655 445.893 43.8164 445.141 43.8164C444.012 43.8164 443.13 44.3731 442.495 45.4864C441.859 46.5946 441.542 48.163 441.542 50.1914C441.542 51.5437 441.684 52.6926 441.969 53.6382C442.253 54.5837 442.663 55.3031 443.197 55.7962C443.735 56.2893 444.384 56.5359 445.141 56.5359ZM458.562 58.2135C457.413 58.2135 456.435 57.9009 455.626 57.2756C454.818 56.6452 454.2 55.7327 453.773 54.538C453.346 53.3382 453.133 51.8894 453.133 50.1914C453.133 48.5036 453.346 47.0624 453.773 45.8677C454.205 44.6679 454.826 43.7528 455.634 43.1225C456.447 42.487 457.423 42.1693 458.562 42.1693C459.701 42.1693 460.674 42.487 461.483 43.1225C462.296 43.7528 462.916 44.6679 463.343 45.8677C463.775 47.0624 463.992 48.5036 463.992 50.1914C463.992 51.8894 463.778 53.3382 463.351 54.538C462.924 55.7327 462.306 56.6452 461.498 57.2756C460.69 57.9009 459.711 58.2135 458.562 58.2135ZM458.562 56.5359C459.701 56.5359 460.585 55.9868 461.216 54.8888C461.846 53.7907 462.161 52.2249 462.161 50.1914C462.161 48.8391 462.016 47.6876 461.727 46.737C461.442 45.7863 461.03 45.0619 460.491 44.5637C459.958 44.0655 459.314 43.8164 458.562 43.8164C457.434 43.8164 456.551 44.3731 455.916 45.4864C455.281 46.5946 454.963 48.163 454.963 50.1914C454.963 51.5437 455.105 52.6926 455.39 53.6382C455.675 54.5837 456.084 55.3031 456.618 55.7962C457.156 56.2893 457.805 56.5359 458.562 56.5359ZM472.38 42.3828V58H470.489V44.3654H470.397L466.584 46.8971V44.9755L470.489 42.3828H472.38ZM476.505 54.7972V53.2416L483.368 42.3828H484.497V44.7925H483.734L478.549 52.9976V53.1196H487.791V54.7972H476.505ZM483.856 58V54.3245V53.6V42.3828H485.656V58H483.856ZM497.359 50.1914C497.359 48.2697 497.608 46.5031 498.107 44.8916C498.61 43.275 499.327 41.788 500.257 40.4306H501.843C501.477 40.9339 501.134 41.5541 500.814 42.2913C500.498 43.0233 500.221 43.8291 499.982 44.7086C499.743 45.583 499.555 46.4879 499.418 47.4233C499.286 48.3587 499.22 49.2814 499.22 50.1914C499.22 51.4013 499.337 52.629 499.571 53.8746C499.805 55.1201 500.12 56.2766 500.516 57.3442C500.913 58.4118 501.355 59.2811 501.843 59.9522H500.257C499.327 58.5948 498.61 57.1103 498.107 55.4988C497.608 53.8822 497.359 52.113 497.359 50.1914ZM511.209 49.3526V51.0302H504.377V49.3526H511.209ZM519.439 58.2135C518.29 58.2135 517.312 57.9009 516.503 57.2756C515.695 56.6452 515.077 55.7327 514.65 54.538C514.223 53.3382 514.01 51.8894 514.01 50.1914C514.01 48.5036 514.223 47.0624 514.65 45.8677C515.082 44.6679 515.703 43.7528 516.511 43.1225C517.324 42.487 518.3 42.1693 519.439 42.1693C520.578 42.1693 521.551 42.487 522.36 43.1225C523.173 43.7528 523.793 44.6679 524.22 45.8677C524.653 47.0624 524.869 48.5036 524.869 50.1914C524.869 51.8894 524.655 53.3382 524.228 54.538C523.801 55.7327 523.183 56.6452 522.375 57.2756C521.567 57.9009 520.588 58.2135 519.439 58.2135ZM519.439 56.5359C520.578 56.5359 521.462 55.9868 522.093 54.8888C522.723 53.7907 523.038 52.2249 523.038 50.1914C523.038 48.8391 522.894 47.6876 522.604 46.737C522.319 45.7863 521.907 45.0619 521.368 44.5637C520.835 44.0655 520.192 43.8164 519.439 43.8164C518.311 43.8164 517.429 44.3731 516.793 45.4864C516.158 46.5946 515.84 48.163 515.84 50.1914C515.84 51.5437 515.982 52.6926 516.267 53.6382C516.552 54.5837 516.961 55.3031 517.495 55.7962C518.033 56.2893 518.682 56.5359 519.439 56.5359ZM528.563 58.122C528.187 58.122 527.864 57.9873 527.595 57.7179C527.325 57.4484 527.191 57.1256 527.191 56.7494C527.191 56.3732 527.325 56.0504 527.595 55.781C527.864 55.5115 528.187 55.3768 528.563 55.3768C528.939 55.3768 529.262 55.5115 529.532 55.781C529.801 56.0504 529.936 56.3732 529.936 56.7494C529.936 56.9985 529.872 57.2273 529.745 57.4357C529.623 57.6441 529.458 57.8119 529.249 57.939C529.046 58.061 528.817 58.122 528.563 58.122ZM537.683 58.2135C536.534 58.2135 535.556 57.9009 534.748 57.2756C533.939 56.6452 533.322 55.7327 532.895 54.538C532.467 53.3382 532.254 51.8894 532.254 50.1914C532.254 48.5036 532.467 47.0624 532.895 45.8677C533.327 44.6679 533.947 43.7528 534.755 43.1225C535.569 42.487 536.545 42.1693 537.683 42.1693C538.822 42.1693 539.796 42.487 540.604 43.1225C541.417 43.7528 542.038 44.6679 542.465 45.8677C542.897 47.0624 543.113 48.5036 543.113 50.1914C543.113 51.8894 542.899 53.3382 542.472 54.538C542.045 55.7327 541.428 56.6452 540.619 57.2756C539.811 57.9009 538.832 58.2135 537.683 58.2135ZM537.683 56.5359C538.822 56.5359 539.707 55.9868 540.337 54.8888C540.967 53.7907 541.283 52.2249 541.283 50.1914C541.283 48.8391 541.138 47.6876 540.848 46.737C540.563 45.7863 540.152 45.0619 539.613 44.5637C539.079 44.0655 538.436 43.8164 537.683 43.8164C536.555 43.8164 535.673 44.3731 535.037 45.4864C534.402 46.5946 534.084 48.163 534.084 50.1914C534.084 51.5437 534.226 52.6926 534.511 53.6382C534.796 54.5837 535.205 55.3031 535.739 55.7962C536.278 56.2893 536.926 56.5359 537.683 56.5359ZM551.501 42.3828V58H549.61V44.3654H549.518L545.706 46.8971V44.9755L549.61 42.3828H551.501ZM563.954 55.0718V54.2482C563.954 53.6788 564.071 53.1577 564.304 52.685C564.543 52.2071 564.889 51.8258 565.341 51.5411C565.799 51.2513 566.353 51.1065 567.004 51.1065C567.665 51.1065 568.219 51.2513 568.666 51.5411C569.114 51.8258 569.452 52.2071 569.68 52.685C569.909 53.1577 570.024 53.6788 570.024 54.2482V55.0718C570.024 55.6411 569.907 56.1648 569.673 56.6426C569.444 57.1154 569.103 57.4967 568.651 57.7865C568.204 58.0712 567.655 58.2135 567.004 58.2135C566.343 58.2135 565.786 58.0712 565.334 57.7865C564.881 57.4967 564.538 57.1154 564.304 56.6426C564.071 56.1648 563.954 55.6411 563.954 55.0718ZM565.509 54.2482V55.0718C565.509 55.5446 565.621 55.969 565.845 56.3452C566.068 56.7164 566.455 56.9019 567.004 56.9019C567.538 56.9019 567.914 56.7164 568.132 56.3452C568.356 55.969 568.468 55.5446 568.468 55.0718V54.2482C568.468 53.7754 568.361 53.3535 568.148 52.9824C567.934 52.6062 567.553 52.4181 567.004 52.4181C566.47 52.4181 566.086 52.6062 565.852 52.9824C565.624 53.3535 565.509 53.7754 565.509 54.2482ZM556.175 46.1346V45.311C556.175 44.7416 556.292 44.2205 556.526 43.7478C556.765 43.2699 557.111 42.8886 557.563 42.6039C558.021 42.3141 558.575 42.1693 559.226 42.1693C559.887 42.1693 560.441 42.3141 560.888 42.6039C561.335 42.8886 561.674 43.2699 561.902 43.7478C562.131 44.2205 562.245 44.7416 562.245 45.311V46.1346C562.245 46.7039 562.129 47.2276 561.895 47.7054C561.666 48.1782 561.325 48.5595 560.873 48.8493C560.425 49.134 559.876 49.2763 559.226 49.2763C558.565 49.2763 558.008 49.134 557.556 48.8493C557.103 48.5595 556.76 48.1782 556.526 47.7054C556.292 47.2276 556.175 46.7039 556.175 46.1346ZM557.731 45.311V46.1346C557.731 46.6074 557.843 47.0318 558.067 47.408C558.29 47.7792 558.677 47.9647 559.226 47.9647C559.759 47.9647 560.136 47.7792 560.354 47.408C560.578 47.0318 560.69 46.6074 560.69 46.1346V45.311C560.69 44.8382 560.583 44.4163 560.37 44.0452C560.156 43.669 559.775 43.4809 559.226 43.4809C558.692 43.4809 558.308 43.669 558.074 44.0452C557.845 44.4163 557.731 44.8382 557.731 45.311ZM556.755 58L567.492 42.3828H569.23L558.494 58H556.755ZM577.314 50.1914C577.314 52.113 577.062 53.8822 576.559 55.4988C576.06 57.1103 575.346 58.5948 574.416 59.9522H572.83C573.196 59.4489 573.536 58.8286 573.852 58.0915C574.172 57.3594 574.451 56.5562 574.69 55.6818C574.929 54.8023 575.115 53.8949 575.247 52.9595C575.384 52.019 575.453 51.0963 575.453 50.1914C575.453 48.9815 575.336 47.7537 575.102 46.5082C574.868 45.2627 574.553 44.1062 574.157 43.0386C573.76 41.971 573.318 41.1017 572.83 40.4306H574.416C575.346 41.788 576.06 43.275 576.559 44.8916C577.062 46.5031 577.314 48.2697 577.314 50.1914Z" fill="#4696EC"></path><path d="M1098 260L1056.5 312L1010 338.5L972 398.5L934 297L915 202L897.5 167L858 67L839.5 110.5L820.5 134.5L801 102L782.5 107.5L763.5 178.5L745 193.5L728 216.5L706.5 243L687.5 220L668 252H649.5L630.5 223L611.5 214.5L592.5 191L573.5 201.5L554.5 170.5L536 188L516 195L497.5 164.5L459 223L440.5 325L424 337.5L403 351L383 322L365 339H346L327 281.5L307.5 300.5L289 292.5L270 312L250 292.5L232 284L194.5 289L174.5 275L155.5 280.5L118 275L99 269L79 257L62.5 234L43 269L27.5 257H0" stroke="#4D7BFF" stroke-width="3"></path><path d="M1 1L1097 1.0001" stroke="#434346"></path></svg>