<svg xmlns="http://www.w3.org/2000/svg" xmlns:xlink="http://www.w3.org/1999/xlink" id="Layer_1" x="0px" y="0px" viewBox="0 0 457 333" style="enable-background:new 0 0 457 333;" xml:space="preserve"><style type="text/css">	.st0{fill:#161823;}	.st1{fill:#323335;}	.st2{fill:#3461FF;}	.st3{fill:#FFFFFF;}	.st4{fill:#434346;}	.st5{clip-path:url(#SVGID_2_);}	.st6{fill:#BC002D;}	.st7{fill:#4AD9A6;}	.st8{clip-path:url(#SVGID_4_);}	.st9{fill:#00207F;}	.st10{fill-rule:evenodd;clip-rule:evenodd;fill:#FFFFFF;}	.st11{fill:#FFFFFF;filter:url(#Adobe_OpacityMaskFilter);}	.st12{mask:url(#mask0_2131_22957_1_);}	.st13{fill:none;stroke:#FFFFFF;stroke-width:1.275;stroke-linecap:square;}	.st14{fill:none;stroke:#D10D24;stroke-width:0.425;stroke-linecap:square;}	.st15{fill-rule:evenodd;clip-rule:evenodd;fill:#D10D24;stroke:#FFFFFF;stroke-width:0.425;}	.st16{fill:none;stroke:#FFFFFF;stroke-width:2.125;stroke-linecap:round;stroke-linejoin:round;}	.st17{fill:#89898B;}</style><g>	<path class="st0" d="M15.2,333.6c-8,0-14.4-6.5-14.4-14.4v-304c0-8,6.5-14.4,14.4-14.4h426.6c8,0,14.4,6.5,14.4,14.4v304  c0,8-6.5,14.4-14.4,14.4H15.2z"></path>	<path class="st1" d="M441.8,1.2c7.7,0,13.9,6.3,13.9,13.9v304c0,7.7-6.3,13.9-13.9,13.9H15.2c-7.7,0-13.9-6.3-13.9-13.9v-304  c0-7.7,6.3-13.9,13.9-13.9H441.8 M441.8,0.2H15.2C6.9,0.2,0.2,6.9,0.2,15.2v304c0,8.3,6.7,14.9,14.9,14.9h426.6  c8.3,0,14.9-6.7,14.9-14.9v-304C456.7,6.9,450,0.2,441.8,0.2L441.8,0.2z"></path></g><path class="st2" d="M239.6,256h169.8c3.6,0,6.6,3,6.6,6.6v27.8c0,3.6-3,6.6-6.6,6.6H239.6c-3.6,0-6.6-3-6.6-6.6v-27.8 C233,259,236,256,239.6,256z"></path><path class="st3" d="M309.2,274.8h-1.9c0-0.2-0.1-0.5-0.2-0.6c-0.1-0.2-0.2-0.4-0.4-0.5c-0.2-0.1-0.4-0.2-0.6-0.3 c-0.2-0.1-0.4-0.1-0.7-0.1c-0.5,0-0.8,0.1-1.2,0.3c-0.3,0.2-0.6,0.5-0.8,1c-0.2,0.4-0.3,0.9-0.3,1.5c0,0.6,0.1,1.1,0.3,1.6 c0.2,0.4,0.4,0.7,0.8,1c0.3,0.2,0.7,0.3,1.2,0.3c0.2,0,0.5,0,0.7-0.1c0.2-0.1,0.4-0.2,0.6-0.3c0.2-0.1,0.3-0.3,0.4-0.5 c0.1-0.2,0.2-0.4,0.2-0.6l1.9,0c0,0.4-0.2,0.8-0.4,1.2c-0.2,0.4-0.4,0.7-0.8,1c-0.3,0.3-0.7,0.5-1.2,0.7c-0.4,0.2-0.9,0.3-1.5,0.3 c-0.8,0-1.5-0.2-2.1-0.5c-0.6-0.4-1.1-0.9-1.4-1.5c-0.4-0.7-0.5-1.5-0.5-2.4c0-1,0.2-1.8,0.5-2.4c0.4-0.7,0.8-1.2,1.5-1.5 c0.6-0.4,1.3-0.5,2.1-0.5c0.5,0,1,0.1,1.4,0.2c0.4,0.1,0.8,0.4,1.2,0.6c0.3,0.3,0.6,0.6,0.8,1C309,273.9,309.1,274.3,309.2,274.8z  M313.4,280.6c-0.7,0-1.2-0.1-1.7-0.4c-0.5-0.3-0.9-0.7-1.1-1.2c-0.3-0.5-0.4-1.1-0.4-1.8c0-0.7,0.1-1.3,0.4-1.8 c0.3-0.5,0.6-0.9,1.1-1.2c0.5-0.3,1.1-0.4,1.7-0.4c0.7,0,1.2,0.1,1.7,0.4c0.5,0.3,0.9,0.7,1.1,1.2c0.3,0.5,0.4,1.1,0.4,1.8 c0,0.7-0.1,1.3-0.4,1.8c-0.3,0.5-0.6,0.9-1.1,1.2C314.6,280.5,314.1,280.6,313.4,280.6z M313.4,279.2c0.3,0,0.6-0.1,0.8-0.3 c0.2-0.2,0.4-0.4,0.5-0.7c0.1-0.3,0.2-0.6,0.2-1c0-0.4-0.1-0.7-0.2-1c-0.1-0.3-0.3-0.5-0.5-0.7c-0.2-0.2-0.5-0.3-0.8-0.3 c-0.3,0-0.6,0.1-0.8,0.3c-0.2,0.2-0.4,0.4-0.5,0.7c-0.1,0.3-0.2,0.6-0.2,1c0,0.4,0.1,0.7,0.2,1c0.1,0.3,0.3,0.5,0.5,0.7 C312.9,279.1,313.1,279.2,313.4,279.2z M319.6,276.7v3.8h-1.8V274h1.7v1.2h0.1c0.1-0.4,0.4-0.7,0.7-0.9c0.3-0.2,0.8-0.3,1.2-0.3 c0.5,0,0.9,0.1,1.2,0.3c0.3,0.2,0.6,0.5,0.8,0.9c0.2,0.4,0.3,0.8,0.3,1.3v4.2H322v-3.8c0-0.4-0.1-0.7-0.3-0.9 c-0.2-0.2-0.5-0.3-0.9-0.3c-0.2,0-0.5,0.1-0.6,0.2c-0.2,0.1-0.3,0.3-0.4,0.5C319.7,276.2,319.6,276.4,319.6,276.7z M328.8,274v1.4 h-4V274H328.8z M325.7,280.5v-7c0-0.5,0.1-0.9,0.3-1.2c0.2-0.3,0.4-0.5,0.8-0.7s0.7-0.2,1.1-0.2c0.3,0,0.5,0,0.8,0.1 c0.2,0,0.4,0.1,0.5,0.1l-0.3,1.4c-0.1,0-0.2,0-0.3-0.1c-0.1,0-0.2,0-0.3,0c-0.3,0-0.5,0.1-0.6,0.2c-0.1,0.1-0.2,0.3-0.2,0.5v7H325.7 z M329.9,280.5V274h1.8v6.5H329.9z M330.8,273.1c-0.3,0-0.5-0.1-0.7-0.3c-0.2-0.2-0.3-0.4-0.3-0.7c0-0.2,0.1-0.5,0.3-0.6 c0.2-0.2,0.4-0.3,0.7-0.3c0.3,0,0.5,0.1,0.7,0.3c0.2,0.2,0.3,0.4,0.3,0.6c0,0.3-0.1,0.5-0.3,0.7C331.3,273,331.1,273.1,330.8,273.1z  M333.2,280.5V274h1.8v1.1h0.1c0.1-0.4,0.3-0.7,0.6-0.9c0.3-0.2,0.6-0.3,1-0.3c0.1,0,0.2,0,0.3,0c0.1,0,0.2,0,0.3,0v1.6 c-0.1,0-0.2,0-0.4-0.1c-0.2,0-0.3,0-0.4,0c-0.3,0-0.5,0.1-0.7,0.2c-0.2,0.1-0.4,0.3-0.5,0.5c-0.1,0.2-0.2,0.4-0.2,0.7v3.7H333.2z  M338.1,280.5V274h1.7v1.2h0.1c0.1-0.4,0.4-0.7,0.7-0.9c0.3-0.2,0.7-0.3,1.1-0.3c0.4,0,0.8,0.1,1.1,0.3c0.3,0.2,0.5,0.5,0.6,0.9h0.1 c0.1-0.4,0.4-0.7,0.7-0.9c0.4-0.2,0.8-0.3,1.2-0.3c0.6,0,1.1,0.2,1.5,0.6c0.4,0.4,0.6,0.9,0.6,1.6v4.4h-1.8v-4 c0-0.4-0.1-0.6-0.3-0.8c-0.2-0.2-0.4-0.3-0.7-0.3c-0.3,0-0.6,0.1-0.8,0.3c-0.2,0.2-0.3,0.5-0.3,0.8v4H342v-4.1 c0-0.3-0.1-0.6-0.3-0.8c-0.2-0.2-0.4-0.3-0.7-0.3c-0.2,0-0.4,0.1-0.5,0.2c-0.2,0.1-0.3,0.2-0.4,0.4c-0.1,0.2-0.1,0.4-0.1,0.6v3.9 H338.1z"></path><path class="st4" d="M47.6,256h169.8c3.6,0,6.6,3,6.6,6.6v27.8c0,3.6-3,6.6-6.6,6.6H47.6c-3.6,0-6.6-3-6.6-6.6v-27.8 C41,259,44,256,47.6,256z"></path><path class="st3" d="M120.5,274.8h-1.9c0-0.2-0.1-0.5-0.2-0.6c-0.1-0.2-0.2-0.4-0.4-0.5c-0.2-0.1-0.4-0.2-0.6-0.3 c-0.2-0.1-0.4-0.1-0.7-0.1c-0.5,0-0.8,0.1-1.2,0.3c-0.3,0.2-0.6,0.5-0.8,1c-0.2,0.4-0.3,0.9-0.3,1.5c0,0.6,0.1,1.1,0.3,1.6 c0.2,0.4,0.4,0.7,0.8,1s0.7,0.3,1.2,0.3c0.2,0,0.5,0,0.7-0.1c0.2-0.1,0.4-0.2,0.6-0.3c0.2-0.1,0.3-0.3,0.4-0.5 c0.1-0.2,0.2-0.4,0.2-0.6l1.9,0c0,0.4-0.2,0.8-0.4,1.2c-0.2,0.4-0.4,0.7-0.8,1c-0.3,0.3-0.7,0.5-1.2,0.7c-0.4,0.2-0.9,0.3-1.5,0.3 c-0.8,0-1.5-0.2-2.1-0.5c-0.6-0.4-1.1-0.9-1.4-1.5c-0.4-0.7-0.5-1.5-0.5-2.4c0-1,0.2-1.8,0.5-2.4c0.4-0.7,0.8-1.2,1.5-1.5 c0.6-0.4,1.3-0.5,2.1-0.5c0.5,0,1,0.1,1.4,0.2c0.4,0.1,0.8,0.4,1.2,0.6c0.3,0.3,0.6,0.6,0.8,1C120.3,273.9,120.4,274.3,120.5,274.8z  M123.6,280.6c-0.4,0-0.8-0.1-1.1-0.2c-0.3-0.1-0.6-0.4-0.8-0.7c-0.2-0.3-0.3-0.6-0.3-1.1c0-0.4,0.1-0.7,0.2-0.9 c0.1-0.2,0.3-0.4,0.5-0.6c0.2-0.1,0.5-0.3,0.8-0.3c0.3-0.1,0.6-0.1,0.9-0.2c0.4,0,0.7-0.1,0.9-0.1c0.2,0,0.4-0.1,0.5-0.2 c0.1-0.1,0.2-0.2,0.2-0.3v0c0-0.3-0.1-0.5-0.3-0.6c-0.2-0.1-0.4-0.2-0.7-0.2c-0.3,0-0.6,0.1-0.8,0.2c-0.2,0.1-0.3,0.3-0.4,0.5 l-1.7-0.1c0.1-0.4,0.3-0.7,0.5-1c0.2-0.3,0.6-0.5,1-0.7c0.4-0.2,0.9-0.2,1.4-0.2c0.4,0,0.7,0,1,0.1c0.3,0.1,0.6,0.2,0.9,0.4 c0.3,0.2,0.5,0.4,0.6,0.7c0.2,0.3,0.2,0.6,0.2,1v4.4h-1.7v-0.9h-0.1c-0.1,0.2-0.2,0.4-0.4,0.5c-0.2,0.2-0.4,0.3-0.6,0.4 C124.3,280.6,124,280.6,123.6,280.6z M124.2,279.4c0.3,0,0.5-0.1,0.7-0.2c0.2-0.1,0.4-0.3,0.5-0.4c0.1-0.2,0.2-0.4,0.2-0.6v-0.7 c-0.1,0-0.1,0.1-0.2,0.1c-0.1,0-0.2,0.1-0.3,0.1c-0.1,0-0.2,0-0.4,0.1c-0.1,0-0.2,0-0.3,0c-0.2,0-0.4,0.1-0.6,0.1 c-0.2,0.1-0.3,0.2-0.4,0.3c-0.1,0.1-0.1,0.3-0.1,0.4c0,0.2,0.1,0.4,0.3,0.6C123.7,279.3,123.9,279.4,124.2,279.4z M130.6,276.7v3.8 h-1.8V274h1.7v1.2h0.1c0.1-0.4,0.4-0.7,0.7-0.9c0.3-0.2,0.8-0.3,1.2-0.3c0.5,0,0.8,0.1,1.2,0.3c0.3,0.2,0.6,0.5,0.8,0.9 c0.2,0.4,0.3,0.8,0.3,1.3v4.2H133v-3.8c0-0.4-0.1-0.7-0.3-0.9c-0.2-0.2-0.5-0.3-0.9-0.3c-0.2,0-0.5,0.1-0.6,0.2 c-0.2,0.1-0.3,0.3-0.4,0.5C130.6,276.2,130.6,276.4,130.6,276.7z M139.2,280.6c-0.7,0-1.2-0.1-1.7-0.4c-0.5-0.3-0.8-0.7-1.1-1.2 c-0.3-0.5-0.4-1.1-0.4-1.8c0-0.7,0.1-1.3,0.4-1.8c0.3-0.5,0.6-0.9,1.1-1.2c0.5-0.3,1.1-0.4,1.7-0.4c0.6,0,1.1,0.1,1.5,0.3 c0.4,0.2,0.8,0.5,1,0.9s0.4,0.8,0.4,1.3h-1.7c0-0.3-0.2-0.6-0.4-0.8c-0.2-0.2-0.5-0.3-0.8-0.3c-0.3,0-0.5,0.1-0.7,0.2 c-0.2,0.2-0.4,0.4-0.5,0.7c-0.1,0.3-0.2,0.6-0.2,1.1c0,0.4,0.1,0.8,0.2,1.1c0.1,0.3,0.3,0.5,0.5,0.7c0.2,0.2,0.5,0.2,0.7,0.2 c0.2,0,0.4,0,0.6-0.1c0.2-0.1,0.3-0.2,0.4-0.4c0.1-0.2,0.2-0.4,0.2-0.6h1.7c0,0.5-0.2,0.9-0.4,1.3c-0.2,0.4-0.6,0.7-1,0.9 C140.3,280.5,139.7,280.6,139.2,280.6z M146.2,280.6c-0.7,0-1.3-0.1-1.7-0.4c-0.5-0.3-0.9-0.7-1.1-1.2c-0.3-0.5-0.4-1.1-0.4-1.8 c0-0.7,0.1-1.3,0.4-1.8c0.3-0.5,0.6-0.9,1.1-1.2c0.5-0.3,1-0.4,1.7-0.4c0.4,0,0.8,0.1,1.2,0.2c0.4,0.1,0.7,0.3,1,0.6 c0.3,0.3,0.5,0.6,0.7,1c0.2,0.4,0.2,0.9,0.2,1.5v0.5h-5.5v-1.1h3.8c0-0.3-0.1-0.5-0.2-0.7c-0.1-0.2-0.3-0.4-0.5-0.5 c-0.2-0.1-0.4-0.2-0.7-0.2c-0.3,0-0.5,0.1-0.7,0.2c-0.2,0.1-0.4,0.3-0.5,0.5c-0.1,0.2-0.2,0.4-0.2,0.7v1.1c0,0.3,0.1,0.6,0.2,0.8 c0.1,0.2,0.3,0.4,0.5,0.5c0.2,0.1,0.5,0.2,0.8,0.2c0.2,0,0.4,0,0.6-0.1c0.2-0.1,0.3-0.1,0.4-0.3c0.1-0.1,0.2-0.3,0.3-0.4l1.7,0.1 c-0.1,0.4-0.3,0.8-0.5,1.1c-0.3,0.3-0.6,0.5-1,0.7C147.2,280.5,146.8,280.6,146.2,280.6z M152.2,271.8v8.7h-1.8v-8.7H152.2z"></path><g>	<defs>		<path id="SVGID_1_" d="M353,108h9c2.2,0,4,1.8,4,4v9c0,2.2-1.8,4-4,4h-9c-2.2,0-4-1.8-4-4v-9C349,109.8,350.8,108,353,108z"></path>	</defs>	<clipPath id="SVGID_2_">		<use xlink:href="#SVGID_1_" style="overflow:visible;"></use>	</clipPath>	<g class="st5">		<path class="st3" d="M366,108h-17v17h17V108z"></path>		<path class="st6" d="M357.5,119.9c0.9,0,1.8-0.4,2.4-1c0.6-0.6,1-1.5,1-2.4s-0.4-1.8-1-2.4c-0.6-0.6-1.5-1-2.4-1   c-0.9,0-1.8,0.4-2.4,1c-0.6,0.6-1,1.5-1,2.4s0.4,1.8,1,2.4C355.7,119.5,356.6,119.9,357.5,119.9z"></path>	</g></g><path class="st7" d="M83.3,124v-14.2H89c1,0,1.9,0.2,2.6,0.5c0.7,0.3,1.2,0.7,1.6,1.3c0.4,0.5,0.5,1.2,0.5,1.9c0,0.6-0.1,1-0.3,1.5 c-0.2,0.4-0.5,0.8-0.9,1c-0.4,0.3-0.8,0.5-1.3,0.6v0.1c0.5,0,1,0.2,1.5,0.5c0.5,0.3,0.9,0.7,1.2,1.2c0.3,0.5,0.4,1.1,0.4,1.8 c0,0.8-0.2,1.4-0.6,2c-0.4,0.6-0.9,1.1-1.6,1.4c-0.7,0.3-1.6,0.5-2.7,0.5H83.3z M86.3,121.5h2.5c0.8,0,1.4-0.2,1.8-0.5 c0.4-0.3,0.6-0.8,0.6-1.3c0-0.4-0.1-0.7-0.3-1c-0.2-0.3-0.5-0.5-0.8-0.7c-0.3-0.2-0.8-0.3-1.2-0.3h-2.5V121.5z M86.3,115.7h2.2 c0.4,0,0.8-0.1,1.1-0.2c0.3-0.1,0.6-0.4,0.8-0.6c0.2-0.3,0.3-0.6,0.3-1c0-0.5-0.2-0.9-0.5-1.2c-0.4-0.3-0.9-0.5-1.5-0.5h-2.3V115.7z  M103,119.5v-6.1h3V124h-2.8v-1.9H103c-0.2,0.6-0.6,1.1-1.2,1.5c-0.6,0.4-1.2,0.6-2,0.6c-0.7,0-1.3-0.2-1.9-0.5 c-0.5-0.3-1-0.8-1.3-1.4c-0.3-0.6-0.5-1.3-0.5-2.1v-6.8h3v6.3c0,0.6,0.2,1.1,0.5,1.5c0.3,0.4,0.8,0.5,1.3,0.5c0.4,0,0.7-0.1,1-0.2 c0.3-0.2,0.6-0.4,0.8-0.7C102.9,120.3,103,119.9,103,119.5z M110.1,128c-0.4,0-0.7,0-1.1-0.1c-0.3-0.1-0.6-0.1-0.8-0.2l0.7-2.2 c0.3,0.1,0.7,0.2,0.9,0.2c0.3,0,0.5-0.1,0.7-0.2c0.2-0.1,0.4-0.4,0.5-0.7l0.2-0.5l-3.8-11h3.1l2.2,7.8h0.1l2.2-7.8h3.1l-4.1,11.8 c-0.2,0.6-0.5,1.1-0.8,1.5c-0.3,0.4-0.8,0.8-1.3,1C111.5,127.9,110.9,128,110.1,128z"></path><path class="st3" d="M129.2,124.2c-1,0-1.9-0.3-2.7-0.9c-0.7-0.6-1.3-1.4-1.7-2.5c-0.4-1.1-0.6-2.4-0.6-4c0-1.5,0.2-2.8,0.6-3.9 c0.4-1.1,1-1.9,1.7-2.5c0.7-0.6,1.6-0.9,2.7-0.9s1.9,0.3,2.7,0.9c0.7,0.6,1.3,1.4,1.7,2.5c0.4,1.1,0.6,2.4,0.6,3.9 c0,1.5-0.2,2.9-0.6,4c-0.4,1.1-1,1.9-1.7,2.5C131.2,123.9,130.3,124.2,129.2,124.2z M129.2,122.7c1,0,1.8-0.5,2.4-1.5 s0.9-2.4,0.9-4.3c0-1.2-0.1-2.3-0.4-3.1c-0.3-0.9-0.6-1.5-1.1-2c-0.5-0.5-1.1-0.7-1.8-0.7c-1,0-1.8,0.5-2.4,1.5 c-0.6,1-0.9,2.4-0.9,4.3c0,1.2,0.1,2.3,0.4,3.1c0.3,0.9,0.6,1.5,1.1,2C127.9,122.4,128.5,122.7,129.2,122.7z M137.5,124.1 c-0.3,0-0.6-0.1-0.9-0.4c-0.2-0.2-0.4-0.5-0.4-0.9c0-0.3,0.1-0.6,0.4-0.9c0.2-0.2,0.5-0.4,0.9-0.4c0.3,0,0.6,0.1,0.9,0.4 c0.2,0.2,0.4,0.5,0.4,0.9c0,0.2-0.1,0.4-0.2,0.6c-0.1,0.2-0.3,0.3-0.5,0.5C138,124.1,137.8,124.1,137.5,124.1z M145.8,124.2 c-1,0-1.9-0.3-2.7-0.9c-0.7-0.6-1.3-1.4-1.7-2.5c-0.4-1.1-0.6-2.4-0.6-4c0-1.5,0.2-2.8,0.6-3.9c0.4-1.1,1-1.9,1.7-2.5 c0.7-0.6,1.6-0.9,2.7-0.9s1.9,0.3,2.7,0.9c0.7,0.6,1.3,1.4,1.7,2.5c0.4,1.1,0.6,2.4,0.6,3.9c0,1.5-0.2,2.9-0.6,4 c-0.4,1.1-1,1.9-1.7,2.5C147.8,123.9,146.9,124.2,145.8,124.2z M145.8,122.7c1,0,1.8-0.5,2.4-1.5s0.9-2.4,0.9-4.3 c0-1.2-0.1-2.3-0.4-3.1c-0.3-0.9-0.6-1.5-1.1-2c-0.5-0.5-1.1-0.7-1.8-0.7c-1,0-1.8,0.5-2.4,1.5c-0.6,1-0.9,2.4-0.9,4.3 c0,1.2,0.1,2.3,0.4,3.1c0.3,0.9,0.6,1.5,1.1,2C144.6,122.4,145.1,122.7,145.8,122.7z M158.4,109.8V124h-1.7v-12.4h-0.1l-3.5,2.3 v-1.7l3.6-2.4H158.4z M169.7,109.8V124H168v-14.2H169.7z M177,124.2c-1,0-1.8-0.2-2.5-0.7c-0.7-0.5-1.3-1.1-1.7-1.9 c-0.4-0.8-0.6-1.8-0.6-2.9c0-1.1,0.2-2.1,0.6-2.9c0.4-0.8,1-1.5,1.7-1.9c0.7-0.5,1.6-0.7,2.5-0.7s1.8,0.2,2.5,0.7 c0.7,0.5,1.3,1.1,1.7,1.9c0.4,0.8,0.6,1.8,0.6,2.9c0,1.1-0.2,2.1-0.6,2.9c-0.4,0.8-1,1.5-1.7,1.9C178.8,124,178,124.2,177,124.2z  M177,122.7c0.7,0,1.3-0.2,1.8-0.6c0.5-0.4,0.8-0.9,1-1.5s0.3-1.3,0.3-2s-0.1-1.4-0.3-2c-0.2-0.6-0.6-1.1-1-1.5 c-0.5-0.4-1.1-0.6-1.8-0.6c-0.7,0-1.3,0.2-1.8,0.6c-0.5,0.4-0.8,0.9-1,1.5c-0.2,0.6-0.3,1.3-0.3,2s0.1,1.4,0.3,2 c0.2,0.6,0.6,1.1,1,1.5S176.3,122.7,177,122.7z M189,113.3v1.4h-5.5v-1.4H189z M185.1,110.8h1.6v10.2c0,0.5,0.1,0.8,0.2,1 c0.1,0.2,0.3,0.4,0.5,0.5c0.2,0.1,0.4,0.1,0.7,0.1c0.2,0,0.3,0,0.4,0c0.1,0,0.2,0,0.3-0.1l0.3,1.5c-0.1,0-0.3,0.1-0.5,0.1 c-0.2,0-0.5,0.1-0.8,0.1c-0.5,0-0.9-0.1-1.4-0.3c-0.4-0.2-0.8-0.5-1.1-0.9c-0.3-0.4-0.4-0.9-0.4-1.5V110.8z M198.8,115.7l-1.5,0.4 c-0.1-0.2-0.2-0.5-0.4-0.7c-0.2-0.2-0.4-0.4-0.7-0.6c-0.3-0.2-0.7-0.2-1.2-0.2c-0.7,0-1.2,0.2-1.6,0.5c-0.4,0.3-0.6,0.7-0.6,1.1 c0,0.4,0.1,0.7,0.4,1c0.3,0.2,0.8,0.4,1.4,0.6l1.6,0.4c1,0.2,1.7,0.6,2.1,1.1c0.5,0.5,0.7,1.1,0.7,1.8c0,0.6-0.2,1.2-0.5,1.6 c-0.3,0.5-0.8,0.9-1.5,1.1c-0.6,0.3-1.4,0.4-2.2,0.4c-1.1,0-2-0.2-2.7-0.7s-1.2-1.2-1.4-2.1l1.6-0.4c0.1,0.6,0.4,1,0.8,1.3 c0.4,0.3,1,0.4,1.6,0.4c0.8,0,1.4-0.2,1.8-0.5c0.5-0.3,0.7-0.7,0.7-1.2c0-0.4-0.1-0.7-0.4-0.9c-0.3-0.3-0.7-0.4-1.2-0.6l-1.8-0.4 c-1-0.2-1.7-0.6-2.2-1.1c-0.5-0.5-0.7-1.1-0.7-1.8c0-0.6,0.2-1.1,0.5-1.6c0.3-0.5,0.8-0.8,1.4-1.1c0.6-0.3,1.3-0.4,2-0.4 c1.1,0,1.9,0.2,2.5,0.7C198.1,114.4,198.6,115,198.8,115.7z M211.3,124.2c-1,0-1.8-0.2-2.5-0.7c-0.7-0.5-1.3-1.1-1.7-1.9 c-0.4-0.8-0.6-1.8-0.6-2.9c0-1.1,0.2-2.1,0.6-2.9c0.4-0.8,1-1.5,1.7-1.9c0.7-0.5,1.6-0.7,2.5-0.7c1,0,1.8,0.2,2.5,0.7 c0.7,0.5,1.3,1.1,1.7,1.9c0.4,0.8,0.6,1.8,0.6,2.9c0,1.1-0.2,2.1-0.6,2.9c-0.4,0.8-1,1.5-1.7,1.9C213.1,124,212.3,124.2,211.3,124.2 z M211.3,122.7c0.7,0,1.3-0.2,1.8-0.6c0.5-0.4,0.8-0.9,1-1.5s0.3-1.3,0.3-2s-0.1-1.4-0.3-2c-0.2-0.6-0.6-1.1-1-1.5 c-0.5-0.4-1.1-0.6-1.8-0.6c-0.7,0-1.3,0.2-1.8,0.6c-0.5,0.4-0.8,0.9-1,1.5c-0.2,0.6-0.3,1.3-0.3,2s0.1,1.4,0.3,2 c0.2,0.6,0.6,1.1,1,1.5S210.6,122.7,211.3,122.7z M223.4,113.3v1.4h-5.7v-1.4H223.4z M219.4,124v-12.1c0-0.6,0.1-1.1,0.4-1.5 c0.3-0.4,0.7-0.7,1.1-0.9c0.5-0.2,0.9-0.3,1.5-0.3c0.4,0,0.7,0,1,0.1c0.3,0.1,0.4,0.1,0.6,0.2l-0.5,1.4c-0.1,0-0.2-0.1-0.3-0.1 c-0.1,0-0.3-0.1-0.6-0.1c-0.5,0-0.9,0.1-1.2,0.4c-0.2,0.3-0.4,0.7-0.4,1.2V124H219.4z M270.5,124h-1.8l5.2-14.2h1.8l5.2,14.2h-1.8 l-4.2-12h-0.1L270.5,124z M271.1,118.4h7.3v1.5h-7.3V118.4z M292.4,109.8h1.7v9.4c0,1-0.2,1.8-0.7,2.6c-0.5,0.8-1.1,1.4-1.9,1.8 c-0.8,0.4-1.8,0.7-2.9,0.7c-1.1,0-2.1-0.2-2.9-0.7c-0.8-0.4-1.5-1-1.9-1.8c-0.5-0.8-0.7-1.6-0.7-2.6v-9.4h1.7v9.3 c0,0.7,0.2,1.3,0.5,1.9c0.3,0.5,0.7,1,1.3,1.3c0.6,0.3,1.2,0.5,2,0.5c0.8,0,1.5-0.2,2-0.5c0.6-0.3,1-0.7,1.3-1.3 c0.3-0.5,0.5-1.2,0.5-1.9V109.8z M302,124h-4.4v-14.2h4.6c1.4,0,2.6,0.3,3.5,0.9c1,0.6,1.7,1.4,2.3,2.4c0.5,1.1,0.8,2.3,0.8,3.8 c0,1.5-0.3,2.8-0.8,3.8c-0.5,1.1-1.3,1.9-2.3,2.5C304.7,123.7,303.4,124,302,124z M299.3,122.5h2.6c1.2,0,2.1-0.2,2.9-0.7 s1.3-1.1,1.7-1.9c0.4-0.8,0.6-1.8,0.6-3c0-1.1-0.2-2.1-0.6-3c-0.4-0.8-0.9-1.5-1.7-1.9c-0.7-0.4-1.7-0.7-2.8-0.7h-2.7V122.5z  M317.1,109.8h1.7v10.2c0,0.9-0.2,1.7-0.5,2.3c-0.3,0.6-0.8,1.1-1.4,1.4c-0.6,0.3-1.3,0.5-2.1,0.5c-0.8,0-1.5-0.1-2.1-0.4 c-0.6-0.3-1.1-0.7-1.4-1.2c-0.3-0.5-0.5-1.2-0.5-1.9h1.7c0,0.4,0.1,0.8,0.3,1.1c0.2,0.3,0.5,0.5,0.8,0.7c0.4,0.2,0.8,0.2,1.2,0.2 c0.5,0,0.9-0.1,1.3-0.3c0.3-0.2,0.6-0.5,0.8-0.9c0.2-0.4,0.3-0.9,0.3-1.5V109.8z M322.3,124v-14.2h4.8c1.1,0,2,0.2,2.7,0.6 c0.7,0.4,1.2,0.9,1.6,1.6c0.3,0.7,0.5,1.4,0.5,2.3s-0.2,1.6-0.5,2.3c-0.3,0.7-0.9,1.2-1.6,1.6c-0.7,0.4-1.6,0.6-2.7,0.6h-3.4v-1.5 h3.4c0.8,0,1.4-0.1,1.8-0.4c0.5-0.3,0.8-0.6,1-1.1c0.2-0.5,0.3-1,0.3-1.5c0-0.6-0.1-1.1-0.3-1.5c-0.2-0.4-0.5-0.8-1-1.1 c-0.5-0.3-1.1-0.4-1.9-0.4h-3V124H322.3z M333.5,109.8h2l3.9,6.6h0.2l3.9-6.6h2l-5.1,8.4v5.9h-1.7v-5.9L333.5,109.8z M148.6,155.2 c-0.7,0-1.3-0.1-1.8-0.4c-0.6-0.3-1-0.6-1.3-1.1c-0.3-0.5-0.5-1.1-0.5-1.8c0-0.6,0.1-1.1,0.4-1.5c0.2-0.4,0.6-0.7,1-0.9 c0.4-0.2,0.8-0.4,1.3-0.5c0.5-0.1,1-0.2,1.5-0.3c0.6-0.1,1.2-0.1,1.6-0.2c0.4,0,0.7-0.1,0.9-0.2c0.2-0.1,0.3-0.3,0.3-0.6v-0.1 c0-0.7-0.2-1.2-0.6-1.6c-0.4-0.4-0.9-0.6-1.7-0.6c-0.8,0-1.4,0.2-1.8,0.5c-0.4,0.3-0.8,0.7-0.9,1.1l-1.6-0.6 c0.3-0.6,0.6-1.2,1.1-1.5c0.5-0.4,1-0.6,1.5-0.8c0.6-0.1,1.1-0.2,1.6-0.2c0.3,0,0.7,0,1.2,0.1c0.4,0.1,0.9,0.2,1.3,0.5 c0.4,0.2,0.8,0.6,1,1.1c0.3,0.5,0.4,1.2,0.4,2v7h-1.6v-1.4h-0.1c-0.1,0.2-0.3,0.5-0.6,0.7c-0.3,0.3-0.6,0.5-1,0.7 C149.7,155.2,149.2,155.2,148.6,155.2z M148.8,153.8c0.6,0,1.2-0.1,1.6-0.4c0.4-0.3,0.8-0.6,1-1c0.2-0.4,0.3-0.8,0.3-1.3v-1.5 c-0.1,0.1-0.2,0.2-0.5,0.2c-0.2,0.1-0.5,0.1-0.8,0.2c-0.3,0-0.6,0.1-0.9,0.1c-0.3,0-0.5,0.1-0.7,0.1c-0.4,0.1-0.8,0.1-1.2,0.3 c-0.4,0.1-0.7,0.3-0.9,0.5c-0.2,0.2-0.3,0.6-0.3,1c0,0.6,0.2,1,0.6,1.3C147.6,153.6,148.2,153.8,148.8,153.8z M161.1,144.3v1.4h-5.5 v-1.4H161.1z M157.2,141.8h1.6v10.2c0,0.5,0.1,0.8,0.2,1c0.1,0.2,0.3,0.4,0.5,0.5c0.2,0.1,0.4,0.1,0.7,0.1c0.2,0,0.3,0,0.4,0 c0.1,0,0.2,0,0.3-0.1l0.3,1.5c-0.1,0-0.3,0.1-0.5,0.1c-0.2,0-0.5,0.1-0.8,0.1c-0.5,0-0.9-0.1-1.4-0.3c-0.4-0.2-0.8-0.5-1.1-0.9 c-0.3-0.4-0.4-0.9-0.4-1.5V141.8z M169.3,140.8h2.1l4.8,11.8h0.2l4.8-11.8h2.1V155h-1.6v-10.8h-0.1L177,155h-1.6l-4.4-10.8h-0.1V155 h-1.6V140.8z M189.6,155.2c-0.7,0-1.3-0.1-1.8-0.4c-0.6-0.3-1-0.6-1.3-1.1c-0.3-0.5-0.5-1.1-0.5-1.8c0-0.6,0.1-1.1,0.4-1.5 c0.2-0.4,0.6-0.7,1-0.9c0.4-0.2,0.8-0.4,1.3-0.5c0.5-0.1,1-0.2,1.5-0.3c0.6-0.1,1.2-0.1,1.6-0.2c0.4,0,0.7-0.1,0.9-0.2 c0.2-0.1,0.3-0.3,0.3-0.6v-0.1c0-0.7-0.2-1.2-0.6-1.6c-0.4-0.4-0.9-0.6-1.7-0.6c-0.8,0-1.4,0.2-1.8,0.5c-0.4,0.3-0.8,0.7-0.9,1.1 l-1.6-0.6c0.3-0.6,0.6-1.2,1.1-1.5c0.5-0.4,1-0.6,1.5-0.8c0.6-0.1,1.1-0.2,1.6-0.2c0.3,0,0.7,0,1.2,0.1c0.4,0.1,0.9,0.2,1.3,0.5 c0.4,0.2,0.8,0.6,1,1.1c0.3,0.5,0.4,1.2,0.4,2v7h-1.6v-1.4h-0.1c-0.1,0.2-0.3,0.5-0.6,0.7c-0.3,0.3-0.6,0.5-1,0.7 C190.7,155.2,190.2,155.2,189.6,155.2z M189.8,153.8c0.6,0,1.2-0.1,1.6-0.4c0.4-0.3,0.8-0.6,1-1c0.2-0.4,0.3-0.8,0.3-1.3v-1.5 c-0.1,0.1-0.2,0.2-0.5,0.2c-0.2,0.1-0.5,0.1-0.8,0.2c-0.3,0-0.6,0.1-0.9,0.1c-0.3,0-0.5,0.1-0.7,0.1c-0.4,0.1-0.8,0.1-1.2,0.3 c-0.4,0.1-0.7,0.3-0.9,0.5c-0.2,0.2-0.3,0.6-0.3,1c0,0.6,0.2,1,0.6,1.3C188.7,153.6,189.2,153.8,189.8,153.8z M197.5,155v-10.7h1.6 v1.6h0.1c0.2-0.5,0.5-1,1.1-1.3c0.5-0.3,1.1-0.5,1.7-0.5c0.1,0,0.3,0,0.5,0c0.2,0,0.3,0,0.4,0v1.7c-0.1,0-0.2,0-0.4-0.1 c-0.2,0-0.4,0-0.6,0c-0.5,0-1,0.1-1.4,0.3c-0.4,0.2-0.7,0.5-1,0.9c-0.2,0.4-0.3,0.8-0.3,1.3v6.7H197.5z M206.3,151.1l0-2h0.3 l4.7-4.7h2l-5,5h-0.1L206.3,151.1z M204.8,155v-14.2h1.6V155H204.8z M211.5,155l-4.2-5.3l1.2-1.1l5.1,6.4H211.5z M219.4,155.2 c-1,0-1.9-0.2-2.7-0.7c-0.7-0.5-1.3-1.1-1.7-1.9c-0.4-0.8-0.6-1.8-0.6-2.9c0-1.1,0.2-2.1,0.6-2.9c0.4-0.8,1-1.5,1.7-2 c0.7-0.5,1.6-0.7,2.5-0.7c0.6,0,1.1,0.1,1.6,0.3c0.5,0.2,1,0.5,1.5,0.9c0.4,0.4,0.8,1,1.1,1.6c0.3,0.7,0.4,1.5,0.4,2.5v0.7h-8.2 v-1.4h6.6c0-0.6-0.1-1.1-0.4-1.6c-0.2-0.5-0.6-0.8-1-1.1c-0.4-0.3-0.9-0.4-1.5-0.4c-0.7,0-1.2,0.2-1.7,0.5c-0.5,0.3-0.8,0.7-1.1,1.2 c-0.3,0.5-0.4,1.1-0.4,1.7v0.9c0,0.8,0.1,1.5,0.4,2c0.3,0.6,0.7,1,1.2,1.3c0.5,0.3,1.1,0.4,1.7,0.4c0.4,0,0.8-0.1,1.2-0.2 c0.4-0.1,0.7-0.3,0.9-0.6c0.3-0.2,0.5-0.6,0.6-0.9l1.6,0.4c-0.2,0.5-0.4,1-0.8,1.4c-0.4,0.4-0.9,0.7-1.5,0.9 C220.8,155.1,220.1,155.2,219.4,155.2z M231,144.3v1.4h-5.5v-1.4H231z M227,141.8h1.6v10.2c0,0.5,0.1,0.8,0.2,1 c0.1,0.2,0.3,0.4,0.5,0.5c0.2,0.1,0.4,0.1,0.7,0.1c0.2,0,0.3,0,0.4,0c0.1,0,0.2,0,0.3-0.1l0.3,1.5c-0.1,0-0.3,0.1-0.5,0.1 c-0.2,0-0.5,0.1-0.8,0.1c-0.5,0-0.9-0.1-1.4-0.3c-0.4-0.2-0.8-0.5-1.1-0.9c-0.3-0.4-0.4-0.9-0.4-1.5V141.8z M239.2,155v-14.2h4.8 c1.1,0,2,0.2,2.7,0.6c0.7,0.4,1.2,0.9,1.6,1.6c0.3,0.7,0.5,1.4,0.5,2.3c0,0.8-0.2,1.6-0.5,2.3c-0.3,0.7-0.9,1.2-1.6,1.6 c-0.7,0.4-1.6,0.6-2.7,0.6h-3.4v-1.5h3.4c0.8,0,1.4-0.1,1.8-0.4c0.5-0.3,0.8-0.6,1-1.1c0.2-0.5,0.3-1,0.3-1.5c0-0.6-0.1-1.1-0.3-1.5 c-0.2-0.4-0.5-0.8-1-1.1c-0.5-0.3-1.1-0.4-1.9-0.4h-3V155H239.2z M251.3,155v-10.7h1.6v1.6h0.1c0.2-0.5,0.5-1,1.1-1.3 c0.5-0.3,1.1-0.5,1.7-0.5c0.1,0,0.3,0,0.5,0c0.2,0,0.3,0,0.4,0v1.7c-0.1,0-0.2,0-0.4-0.1c-0.2,0-0.4,0-0.6,0c-0.5,0-1,0.1-1.4,0.3 c-0.4,0.2-0.7,0.5-1,0.9c-0.2,0.4-0.3,0.8-0.3,1.3v6.7H251.3z M258.6,155v-10.7h1.6V155H258.6z M259.4,142.6c-0.3,0-0.6-0.1-0.8-0.3 c-0.2-0.2-0.3-0.5-0.3-0.8c0-0.3,0.1-0.6,0.3-0.8c0.2-0.2,0.5-0.3,0.8-0.3c0.3,0,0.6,0.1,0.8,0.3c0.2,0.2,0.3,0.5,0.3,0.8 c0,0.3-0.1,0.6-0.3,0.8C260,142.4,259.8,142.6,259.4,142.6z M267.6,155.2c-1,0-1.9-0.2-2.6-0.7c-0.7-0.5-1.3-1.1-1.7-2 c-0.4-0.8-0.6-1.8-0.6-2.8c0-1.1,0.2-2,0.6-2.9c0.4-0.8,1-1.5,1.7-2c0.7-0.5,1.6-0.7,2.5-0.7c0.8,0,1.4,0.1,2,0.4 c0.6,0.3,1.1,0.7,1.5,1.2c0.4,0.5,0.6,1.1,0.7,1.8h-1.6c-0.1-0.5-0.4-0.9-0.8-1.3c-0.4-0.4-1-0.6-1.7-0.6c-0.6,0-1.2,0.2-1.7,0.5 c-0.5,0.3-0.9,0.8-1.1,1.4c-0.3,0.6-0.4,1.3-0.4,2.1c0,0.8,0.1,1.5,0.4,2.2c0.3,0.6,0.6,1.1,1.1,1.4c0.5,0.3,1,0.5,1.7,0.5 c0.4,0,0.8-0.1,1.2-0.2c0.3-0.1,0.6-0.4,0.9-0.6c0.2-0.3,0.4-0.6,0.5-1h1.6c-0.1,0.6-0.3,1.2-0.7,1.7c-0.4,0.5-0.8,0.9-1.4,1.2 C269.1,155.1,268.4,155.2,267.6,155.2z M278.6,155.2c-1,0-1.9-0.2-2.7-0.7c-0.7-0.5-1.3-1.1-1.7-1.9c-0.4-0.8-0.6-1.8-0.6-2.9 c0-1.1,0.2-2.1,0.6-2.9c0.4-0.8,1-1.5,1.7-2c0.7-0.5,1.6-0.7,2.5-0.7c0.6,0,1.1,0.1,1.6,0.3c0.5,0.2,1,0.5,1.5,0.9 c0.4,0.4,0.8,1,1.1,1.6c0.3,0.7,0.4,1.5,0.4,2.5v0.7h-8.2v-1.4h6.6c0-0.6-0.1-1.1-0.4-1.6c-0.2-0.5-0.6-0.8-1-1.1 c-0.4-0.3-0.9-0.4-1.5-0.4c-0.7,0-1.2,0.2-1.7,0.5c-0.5,0.3-0.8,0.7-1.1,1.2c-0.3,0.5-0.4,1.1-0.4,1.7v0.9c0,0.8,0.1,1.5,0.4,2 c0.3,0.6,0.7,1,1.2,1.3c0.5,0.3,1.1,0.4,1.7,0.4c0.4,0,0.8-0.1,1.2-0.2c0.4-0.1,0.7-0.3,0.9-0.6c0.3-0.2,0.5-0.6,0.6-0.9l1.6,0.4 c-0.2,0.5-0.4,1-0.8,1.4c-0.4,0.4-0.9,0.7-1.5,0.9C280,155.1,279.4,155.2,278.6,155.2z"></path><g>	<defs>		<path id="SVGID_3_" d="M246,108h9c2.2,0,4,1.8,4,4v9c0,2.2-1.8,4-4,4h-9c-2.2,0-4-1.8-4-4v-9C242,109.8,243.8,108,246,108z"></path>	</defs>	<clipPath id="SVGID_4_">		<use xlink:href="#SVGID_3_" style="overflow:visible;"></use>	</clipPath>	<g class="st8">		<path class="st9" d="M259,108h-17v17h17V108z"></path>		<path class="st10" d="M246.2,121.6l-0.7,0.7l0.1-1l-1-0.2l0.8-0.6l-0.5-0.9l1,0.3l0.4-0.9l0.4,0.9l1-0.3l-0.5,0.9l0.8,0.6l-1,0.2   l0.1,1L246.2,121.6z"></path>		<defs>			<filter id="Adobe_OpacityMaskFilter" filterUnits="userSpaceOnUse" x="241.1" y="107.6" width="10.3" height="9.3">							</filter>		</defs>		<mask maskUnits="userSpaceOnUse" x="241.1" y="107.6" width="10.3" height="9.3" id="mask0_2131_22957_1_">			<path class="st11" d="M250.5,108H242v8.5h8.5V108z"></path>		</mask>		<g class="st12">			<path class="st9" d="M250.5,108H242v8.5h8.5V108z"></path>			<path class="st13" d="M246.3,112.2l-4.2,3 M246.3,112.2l4.2-3 M246.3,112.2l4.2,3 M246.3,112.2l-4.2-3"></path>			<path class="st14" d="M246.3,112.2l4.2,3 M246.3,112.2l-4.2-3 M246.3,112.2l-4.2,3 M246.3,112.2l4.2-3"></path>			<path class="st15" d="M246.9,111.6h3.8v1.3h-3.8v3.8h-1.3v-3.8h-3.8v-1.3h3.8v-3.8h1.3V111.6z"></path>		</g>		<path class="st10" d="M254.8,122.9l-0.4,0.3l0-0.5l-0.5-0.1l0.4-0.3l-0.2-0.4l0.5,0.1l0.2-0.5l0.2,0.5l0.5-0.1l-0.2,0.4l0.4,0.3   l-0.5,0.1l0,0.5L254.8,122.9z M256,117.6l-0.3,0.1l0-0.3l-0.2-0.2l0.3,0l0.1-0.3l0.1,0.3l0.3,0l-0.2,0.2l0,0.3L256,117.6z    M257.3,114.8l-0.4,0.3l0-0.5l-0.5-0.1l0.4-0.3l-0.2-0.4l0.5,0.1l0.2-0.5l0.2,0.5l0.5-0.1l-0.2,0.4l0.4,0.3l-0.5,0.1l0,0.5   L257.3,114.8z M252.2,115.6l-0.4,0.3l0-0.5l-0.5-0.1l0.4-0.3l-0.2-0.4l0.5,0.1l0.2-0.5l0.2,0.5l0.5-0.1l-0.2,0.4l0.4,0.3l-0.5,0.1   l0,0.5L252.2,115.6z M254.8,111l-0.4,0.3l0-0.5l-0.5-0.1l0.4-0.3l-0.2-0.4l0.5,0.1l0.2-0.5l0.2,0.5l0.5-0.1l-0.2,0.4l0.4,0.3   l-0.5,0.1l0,0.5L254.8,111z"></path>	</g></g><path class="st16" d="M229,66.1V64c1.6,0,2.8-1.3,2.8-2.8c0-1.6-1.3-2.8-2.8-2.8c-1.6,0-2.8,1.3-2.8,2.8"></path><circle class="st16" cx="229" cy="64" r="12.8"></circle><path class="st16" d="M229,69.6C229,69.6,228.9,69.6,229,69.6c-0.1,0.1,0,0.1,0,0.1S229.1,69.7,229,69.6 C229.1,69.6,229,69.6,229,69.6"></path><path class="st17" d="M373,195h21c7.7,0,14,6.3,14,14l0,0c0,7.7-6.3,14-14,14h-21c-7.7,0-14-6.3-14-14l0,0 C359,201.3,365.3,195,373,195z"></path><circle class="st3" cx="374" cy="209" r="12"></circle><path class="st3" d="M66.5,208.6c0,0.9-0.2,1.7-0.5,2.4c-0.3,0.7-0.8,1.2-1.4,1.6c-0.6,0.4-1.2,0.5-2,0.5c-0.7,0-1.4-0.2-2-0.5 c-0.6-0.4-1-0.9-1.4-1.6c-0.3-0.7-0.5-1.5-0.5-2.4c0-0.9,0.2-1.7,0.5-2.4c0.3-0.7,0.8-1.2,1.4-1.6c0.6-0.4,1.2-0.5,2-0.5 c0.7,0,1.4,0.2,2,0.5c0.6,0.4,1,0.9,1.4,1.6S66.5,207.7,66.5,208.6z M65.5,208.6c0-0.8-0.1-1.4-0.4-1.9c-0.2-0.5-0.6-0.9-1-1.2 c-0.4-0.3-0.9-0.4-1.4-0.4c-0.5,0-1,0.1-1.4,0.4c-0.4,0.3-0.8,0.7-1,1.2c-0.2,0.5-0.4,1.2-0.4,1.9c0,0.8,0.1,1.4,0.4,1.9 c0.3,0.5,0.6,0.9,1,1.2c0.4,0.3,0.9,0.4,1.4,0.4c0.5,0,1-0.1,1.4-0.4c0.4-0.3,0.8-0.7,1-1.2C65.3,210,65.5,209.4,65.5,208.6z  M69.1,209.1v3.9h-1v-6.5h1v1h0.1c0.2-0.3,0.4-0.6,0.7-0.8c0.3-0.2,0.7-0.3,1.2-0.3c0.4,0,0.8,0.1,1.2,0.3c0.3,0.2,0.6,0.5,0.8,0.8 c0.2,0.4,0.3,0.8,0.3,1.4v4.2h-1v-4.1c0-0.5-0.1-0.9-0.4-1.2c-0.3-0.3-0.6-0.4-1.1-0.4c-0.3,0-0.6,0.1-0.9,0.2 c-0.2,0.1-0.4,0.3-0.6,0.6C69.2,208.4,69.1,208.7,69.1,209.1z M77.9,213.1c-0.6,0-1.2-0.1-1.6-0.4c-0.5-0.3-0.8-0.7-1.1-1.2 c-0.2-0.5-0.4-1.1-0.4-1.8c0-0.7,0.1-1.3,0.4-1.8c0.2-0.5,0.6-0.9,1-1.2c0.4-0.3,1-0.4,1.6-0.4c0.3,0,0.7,0.1,1,0.2 c0.3,0.1,0.6,0.3,0.9,0.6c0.3,0.3,0.5,0.6,0.7,1c0.2,0.4,0.2,0.9,0.2,1.5v0.4h-5v-0.9h4c0-0.4-0.1-0.7-0.2-1 c-0.1-0.3-0.4-0.5-0.6-0.7c-0.3-0.2-0.6-0.3-0.9-0.3c-0.4,0-0.7,0.1-1,0.3c-0.3,0.2-0.5,0.5-0.7,0.8c-0.2,0.3-0.2,0.7-0.2,1v0.6 c0,0.5,0.1,0.9,0.3,1.3c0.2,0.3,0.4,0.6,0.7,0.8c0.3,0.2,0.7,0.3,1.1,0.3c0.3,0,0.5,0,0.7-0.1c0.2-0.1,0.4-0.2,0.6-0.3 c0.2-0.2,0.3-0.3,0.4-0.6l1,0.3c-0.1,0.3-0.3,0.6-0.5,0.9c-0.2,0.2-0.5,0.4-0.9,0.6C78.7,213.1,78.3,213.1,77.9,213.1z M85.9,208.8 v0.9h-3.8v-0.9H85.9z M90.3,213.1c-0.6,0-1.1-0.1-1.6-0.4c-0.4-0.3-0.8-0.7-1-1.2c-0.2-0.5-0.4-1.1-0.4-1.7c0-0.7,0.1-1.3,0.4-1.8 c0.2-0.5,0.6-0.9,1-1.2c0.4-0.3,1-0.4,1.6-0.4c0.5,0,0.9,0.1,1.2,0.3c0.4,0.2,0.7,0.4,0.9,0.7c0.2,0.3,0.4,0.7,0.4,1.1h-1 c-0.1-0.3-0.2-0.6-0.5-0.8c-0.3-0.2-0.6-0.3-1.1-0.3c-0.4,0-0.7,0.1-1,0.3c-0.3,0.2-0.5,0.5-0.7,0.9c-0.2,0.4-0.2,0.8-0.2,1.3 c0,0.5,0.1,0.9,0.2,1.3c0.2,0.4,0.4,0.7,0.7,0.9c0.3,0.2,0.6,0.3,1,0.3c0.3,0,0.5,0,0.7-0.1c0.2-0.1,0.4-0.2,0.5-0.4 c0.1-0.2,0.3-0.4,0.3-0.6h1c-0.1,0.4-0.2,0.7-0.4,1c-0.2,0.3-0.5,0.6-0.9,0.7C91.2,213,90.8,213.1,90.3,213.1z M95.3,204.3v8.7h-1 v-8.7H95.3z M97.2,213v-6.5h1v6.5H97.2z M97.7,205.4c-0.2,0-0.4-0.1-0.5-0.2c-0.1-0.1-0.2-0.3-0.2-0.5c0-0.2,0.1-0.3,0.2-0.5 c0.1-0.1,0.3-0.2,0.5-0.2s0.4,0.1,0.5,0.2c0.1,0.1,0.2,0.3,0.2,0.5c0,0.2-0.1,0.3-0.2,0.5C98.1,205.3,97.9,205.4,97.7,205.4z  M102.7,213.1c-0.6,0-1.1-0.1-1.6-0.4c-0.4-0.3-0.8-0.7-1-1.2c-0.2-0.5-0.4-1.1-0.4-1.7c0-0.7,0.1-1.3,0.4-1.8 c0.2-0.5,0.6-0.9,1-1.2c0.4-0.3,1-0.4,1.6-0.4c0.5,0,0.9,0.1,1.2,0.3c0.4,0.2,0.7,0.4,0.9,0.7c0.2,0.3,0.4,0.7,0.4,1.1h-1 c-0.1-0.3-0.2-0.6-0.5-0.8c-0.3-0.2-0.6-0.3-1.1-0.3c-0.4,0-0.7,0.1-1,0.3c-0.3,0.2-0.5,0.5-0.7,0.9c-0.2,0.4-0.2,0.8-0.2,1.3 c0,0.5,0.1,0.9,0.2,1.3c0.2,0.4,0.4,0.7,0.7,0.9c0.3,0.2,0.6,0.3,1,0.3c0.3,0,0.5,0,0.7-0.1c0.2-0.1,0.4-0.2,0.5-0.4 c0.1-0.2,0.3-0.4,0.3-0.6h1c-0.1,0.4-0.2,0.7-0.4,1c-0.2,0.3-0.5,0.6-0.9,0.7C103.6,213,103.2,213.1,102.7,213.1z M107.7,210.6 l0-1.2h0.2l2.9-2.9h1.2l-3.1,3.1h-0.1L107.7,210.6z M106.7,213v-8.7h1v8.7H106.7z M110.9,213l-2.6-3.2l0.7-0.7l3.1,3.9H110.9z  M119.5,206.5v0.9h-3.4v-0.9H119.5z M117.1,204.9h1v6.2c0,0.3,0,0.5,0.1,0.6c0.1,0.1,0.2,0.2,0.3,0.3c0.1,0,0.3,0.1,0.4,0.1 c0.1,0,0.2,0,0.3,0c0.1,0,0.1,0,0.2,0l0.2,0.9c-0.1,0-0.2,0.1-0.3,0.1c-0.1,0-0.3,0-0.5,0c-0.3,0-0.6-0.1-0.8-0.2 c-0.3-0.1-0.5-0.3-0.7-0.6c-0.2-0.2-0.3-0.6-0.3-0.9V204.9z M121,213v-6.5h1v1h0.1c0.1-0.3,0.3-0.6,0.6-0.8c0.3-0.2,0.7-0.3,1.1-0.3 c0.1,0,0.2,0,0.3,0c0.1,0,0.2,0,0.3,0v1c0,0-0.1,0-0.2,0c-0.1,0-0.2,0-0.4,0c-0.3,0-0.6,0.1-0.9,0.2c-0.2,0.1-0.4,0.3-0.6,0.5 c-0.1,0.2-0.2,0.5-0.2,0.8v4.1H121z M127.4,213.2c-0.4,0-0.8-0.1-1.1-0.2c-0.3-0.2-0.6-0.4-0.8-0.7c-0.2-0.3-0.3-0.7-0.3-1.1 c0-0.4,0.1-0.7,0.2-0.9c0.1-0.2,0.3-0.4,0.6-0.6c0.2-0.1,0.5-0.2,0.8-0.3c0.3-0.1,0.6-0.1,0.9-0.2c0.4-0.1,0.7-0.1,1-0.1 c0.2,0,0.4-0.1,0.5-0.1c0.1-0.1,0.2-0.2,0.2-0.3v0c0-0.4-0.1-0.7-0.3-1c-0.2-0.2-0.6-0.3-1-0.3c-0.5,0-0.9,0.1-1.1,0.3 c-0.3,0.2-0.5,0.4-0.6,0.7l-1-0.3c0.2-0.4,0.4-0.7,0.7-0.9c0.3-0.2,0.6-0.4,0.9-0.5c0.3-0.1,0.7-0.1,1-0.1c0.2,0,0.5,0,0.7,0.1 c0.3,0,0.5,0.1,0.8,0.3c0.3,0.2,0.5,0.4,0.6,0.7c0.2,0.3,0.3,0.7,0.3,1.2v4.3h-1v-0.9h-0.1c-0.1,0.1-0.2,0.3-0.3,0.5 c-0.2,0.2-0.4,0.3-0.6,0.4C128.1,213.1,127.8,213.2,127.4,213.2z M127.5,212.2c0.4,0,0.7-0.1,1-0.2c0.3-0.2,0.5-0.4,0.6-0.6 c0.1-0.2,0.2-0.5,0.2-0.8v-0.9c0,0.1-0.1,0.1-0.3,0.1c-0.1,0-0.3,0.1-0.5,0.1c-0.2,0-0.4,0.1-0.5,0.1c-0.2,0-0.3,0-0.4,0.1 c-0.3,0-0.5,0.1-0.7,0.2c-0.2,0.1-0.4,0.2-0.5,0.3c-0.1,0.1-0.2,0.3-0.2,0.6c0,0.4,0.1,0.6,0.4,0.8 C126.8,212.2,127.1,212.2,127.5,212.2z M134.7,213.1c-0.5,0-1-0.1-1.4-0.4c-0.4-0.3-0.7-0.7-1-1.2c-0.2-0.5-0.4-1.1-0.4-1.8 c0-0.7,0.1-1.3,0.4-1.8c0.2-0.5,0.6-0.9,1-1.2c0.4-0.3,0.9-0.4,1.5-0.4c0.4,0,0.8,0.1,1,0.2c0.2,0.1,0.4,0.3,0.6,0.5 c0.1,0.2,0.2,0.3,0.3,0.4h0.1v-3.2h1v8.7h-1v-1h-0.1c-0.1,0.1-0.2,0.3-0.3,0.5c-0.1,0.2-0.3,0.3-0.6,0.5 C135.5,213.1,135.1,213.1,134.7,213.1z M134.8,212.2c0.4,0,0.7-0.1,1-0.3c0.3-0.2,0.5-0.5,0.6-0.9c0.1-0.4,0.2-0.8,0.2-1.3 c0-0.5-0.1-0.9-0.2-1.3c-0.1-0.4-0.4-0.7-0.6-0.9c-0.3-0.2-0.6-0.3-1-0.3c-0.4,0-0.8,0.1-1.1,0.3c-0.3,0.2-0.5,0.5-0.6,0.9 c-0.1,0.4-0.2,0.8-0.2,1.2c0,0.5,0.1,0.9,0.2,1.3c0.1,0.4,0.4,0.7,0.6,0.9C134.1,212.1,134.4,212.2,134.8,212.2z M139.7,213v-6.5h1 v6.5H139.7z M140.2,205.4c-0.2,0-0.4-0.1-0.5-0.2c-0.1-0.1-0.2-0.3-0.2-0.5c0-0.2,0.1-0.3,0.2-0.5c0.1-0.1,0.3-0.2,0.5-0.2 c0.2,0,0.4,0.1,0.5,0.2c0.1,0.1,0.2,0.3,0.2,0.5c0,0.2-0.1,0.3-0.2,0.5C140.6,205.3,140.4,205.4,140.2,205.4z M143.5,209.1v3.9h-1 v-6.5h1v1h0.1c0.2-0.3,0.4-0.6,0.7-0.8c0.3-0.2,0.7-0.3,1.2-0.3c0.4,0,0.8,0.1,1.2,0.3c0.3,0.2,0.6,0.5,0.8,0.8 c0.2,0.4,0.3,0.8,0.3,1.4v4.2h-1v-4.1c0-0.5-0.1-0.9-0.4-1.2c-0.3-0.3-0.6-0.4-1.1-0.4c-0.3,0-0.6,0.1-0.9,0.2 c-0.2,0.1-0.4,0.3-0.6,0.6C143.6,208.4,143.5,208.7,143.5,209.1z M152.2,215.6c-0.5,0-0.9-0.1-1.3-0.2c-0.3-0.1-0.6-0.3-0.9-0.5 c-0.2-0.2-0.4-0.4-0.6-0.6l0.8-0.6c0.1,0.1,0.2,0.3,0.3,0.4c0.1,0.2,0.3,0.3,0.6,0.4c0.2,0.1,0.6,0.2,1,0.2c0.5,0,1-0.1,1.3-0.4 c0.3-0.3,0.5-0.7,0.5-1.2v-1.3h-0.1c-0.1,0.1-0.2,0.3-0.3,0.4c-0.1,0.2-0.3,0.3-0.6,0.5c-0.2,0.1-0.6,0.2-1,0.2 c-0.5,0-1-0.1-1.4-0.4c-0.4-0.2-0.7-0.6-1-1.1c-0.2-0.5-0.4-1.1-0.4-1.7c0-0.7,0.1-1.3,0.4-1.8c0.2-0.5,0.6-0.9,1-1.2 c0.4-0.3,0.9-0.4,1.5-0.4c0.4,0,0.8,0.1,1,0.2c0.3,0.1,0.4,0.3,0.6,0.5c0.1,0.2,0.2,0.3,0.3,0.4h0.1v-1h1v6.7c0,0.6-0.1,1-0.4,1.4 c-0.3,0.4-0.6,0.6-1,0.8C153.2,215.5,152.7,215.6,152.2,215.6z M152.2,212c0.4,0,0.7-0.1,1-0.3c0.3-0.2,0.5-0.4,0.6-0.8 c0.1-0.3,0.2-0.8,0.2-1.2c0-0.5-0.1-0.9-0.2-1.2c-0.1-0.4-0.4-0.6-0.6-0.8c-0.3-0.2-0.6-0.3-1-0.3c-0.4,0-0.8,0.1-1.1,0.3 c-0.3,0.2-0.5,0.5-0.6,0.9c-0.1,0.4-0.2,0.8-0.2,1.2c0,0.5,0.1,0.9,0.2,1.2c0.1,0.3,0.4,0.6,0.6,0.8 C151.4,211.9,151.7,212,152.2,212z"></path><path class="st3" d="M339.9,208.9c0,1.1-0.2,2-0.6,2.8c-0.4,0.8-0.9,1.4-1.6,1.8c-0.7,0.4-1.4,0.6-2.3,0.6c-0.9,0-1.6-0.2-2.3-0.6 c-0.7-0.4-1.2-1-1.6-1.8c-0.4-0.8-0.6-1.7-0.6-2.8c0-1.1,0.2-2,0.6-2.8s0.9-1.4,1.6-1.8c0.7-0.4,1.4-0.6,2.3-0.6 c0.9,0,1.6,0.2,2.3,0.6c0.7,0.4,1.2,1,1.6,1.8S339.9,207.8,339.9,208.9z M338.8,208.9c0-0.9-0.1-1.6-0.4-2.2 c-0.3-0.6-0.7-1.1-1.2-1.4c-0.5-0.3-1.1-0.5-1.7-0.5c-0.6,0-1.2,0.2-1.7,0.5c-0.5,0.3-0.9,0.8-1.2,1.4c-0.3,0.6-0.4,1.3-0.4,2.2 s0.1,1.6,0.4,2.2c0.3,0.6,0.7,1.1,1.2,1.4c0.5,0.3,1.1,0.5,1.7,0.5c0.6,0,1.2-0.2,1.7-0.5c0.5-0.3,0.9-0.8,1.2-1.4 C338.6,210.5,338.8,209.8,338.8,208.9z M345.3,206.4v1h-4.1v-1H345.3z M342.4,214v-8.7c0-0.4,0.1-0.8,0.3-1.1 c0.2-0.3,0.5-0.5,0.8-0.7c0.3-0.1,0.7-0.2,1-0.2c0.3,0,0.5,0,0.7,0.1c0.2,0,0.3,0.1,0.4,0.1l-0.3,1c-0.1,0-0.1,0-0.2-0.1 c-0.1,0-0.2,0-0.4,0c-0.4,0-0.7,0.1-0.8,0.3c-0.2,0.2-0.3,0.5-0.3,0.9v8.4H342.4z M350.3,206.4v1h-4.1v-1H350.3z M347.4,214v-8.7 c0-0.4,0.1-0.8,0.3-1.1c0.2-0.3,0.5-0.5,0.8-0.7c0.3-0.1,0.7-0.2,1-0.2c0.3,0,0.5,0,0.7,0.1c0.2,0,0.3,0.1,0.4,0.1l-0.3,1 c-0.1,0-0.1,0-0.2-0.1c-0.1,0-0.2,0-0.4,0c-0.4,0-0.7,0.1-0.8,0.3c-0.2,0.2-0.3,0.5-0.3,0.9v8.4H347.4z"></path></svg>