<svg xmlns="http://www.w3.org/2000/svg" xmlns:xlink="http://www.w3.org/1999/xlink" id="Layer_1" data-name="Layer 1" viewBox="0 0 456.52 334.01"><defs><style>.cls-1,.cls-17{fill:#fff;}.cls-2,.cls-27,.cls-29{fill:none;}.cls-3{fill:#161823;}.cls-4{fill:#323335;}.cls-5{clip-path:url(#clip-path);}.cls-6{mask:url(#mask);}.cls-7{fill:#101013;}.cls-8{mask:url(#mask-2);}.cls-20,.cls-9{fill:#89898b;}.cls-10{mask:url(#mask-3);}.cls-11{mask:url(#mask-4);}.cls-12{mask:url(#mask-5);}.cls-13{mask:url(#mask-6);}.cls-14{fill:#1b1b1f;}.cls-15{mask:url(#mask-7);}.cls-16{fill:url(#radial-gradient);}.cls-17,.cls-20{fill-rule:evenodd;}.cls-18{mask:url(#mask-8);}.cls-19{fill-opacity:0.5;fill:url(#linear-gradient);}.cls-21{mask:url(#mask-9);}.cls-22{mask:url(#mask-10);}.cls-23{fill:#54c88c;}.cls-24{fill:#212d5a;}.cls-25{fill:#ff6f6f;}.cls-26{fill:#1d202d;}.cls-27{stroke:#323335;stroke-width:0.91px;}.cls-28{fill:#3461ff;}.cls-29{stroke:#434346;}</style><clipPath id="clip-path"><rect class="cls-2" width="456.49" height="333.86" rx="14.95"></rect></clipPath><mask id="mask" x="-1022.21" y="-734.24" width="1465" height="841" maskUnits="userSpaceOnUse"><g id="mask1_2026_32040" data-name="mask1 2026 32040"><path class="cls-1" d="M434.79-734.24h-1449a8,8,0,0,0-8,8v825a8,8,0,0,0,8,8h1449a8,8,0,0,0,8-8v-825A8,8,0,0,0,434.79-734.24Z"></path></g></mask><mask id="mask-2" x="-982.21" y="-654.24" width="1358" height="731" maskUnits="userSpaceOnUse"><g id="mask2_2026_32040" data-name="mask2 2026 32040"><path class="cls-1" d="M375.79-654.24h-1358v731h1358Z"></path></g></mask><mask id="mask-3" x="383.79" y="-686.24" width="51" height="785" maskUnits="userSpaceOnUse"><g id="mask3_2026_32040" data-name="mask3 2026 32040"><path class="cls-1" d="M434.79-686.24h-51v785h51Z"></path></g></mask><mask id="mask-4" x="-1022.21" y="113.76" width="1465" height="204" maskUnits="userSpaceOnUse"><g id="mask4_2026_32040" data-name="mask4 2026 32040"><path class="cls-1" d="M434.79,113.76h-1449a8,8,0,0,0-8,8v188a8,8,0,0,0,8,8h1449a8,8,0,0,0,8-8v-188A8,8,0,0,0,434.79,113.76Z"></path></g></mask><mask id="mask-5" x="-1022.21" y="113.76" width="1465" height="40" maskUnits="userSpaceOnUse"><g id="mask5_2026_32040" data-name="mask5 2026 32040"><path class="cls-1" d="M442.79,113.76h-1465v40h1465Z"></path></g></mask><mask id="mask-6" x="-1022.21" y="113.76" width="1465" height="41" maskUnits="userSpaceOnUse"><g id="mask6_2026_32040" data-name="mask6 2026 32040"><path class="cls-1" d="M-1022.21,113.76h1465v40h-1465Z"></path></g></mask><mask id="mask-7" x="-53.21" y="113.76" width="112" height="86.94" maskUnits="userSpaceOnUse"><g id="mask7_2026_32040" data-name="mask7 2026 32040"><path class="cls-1" d="M-53.21,113.76h112v40h-112Z"></path></g></mask><radialGradient id="radial-gradient" cx="-0.32" cy="167.89" r="32.81" gradientUnits="userSpaceOnUse"><stop offset="0" stop-color="#df3434" stop-opacity="0"></stop><stop offset="0.54" stop-color="#df3434"></stop><stop offset="1" stop-color="#df3434" stop-opacity="0"></stop></radialGradient><mask id="mask-8" x="-53.21" y="113.76" width="112" height="41" maskUnits="userSpaceOnUse"><g id="mask8_2026_32040" data-name="mask8 2026 32040"><path class="cls-1" d="M-53.21,113.76h112v40h-112Z"></path></g></mask><linearGradient id="linear-gradient" x1="58.79" y1="153.76" x2="0.08" y2="153.76" xlink:href="#radial-gradient"></linearGradient><mask id="mask-9" x="-1022.21" y="153.76" width="1465" height="164" maskUnits="userSpaceOnUse"><g id="mask9_2026_32040" data-name="mask9 2026 32040"><path class="cls-1" d="M442.79,153.76h-1465v164h1465Z"></path></g></mask><mask id="mask-10" x="-1022.21" y="153.76" width="1440" height="33" maskUnits="userSpaceOnUse"><g id="mask10_2026_32040" data-name="mask10 2026 32040"><path class="cls-1" d="M417.79,153.76h-1440v33h1440Z"></path><path d="M-1022.21,153.76h1440v32h-1440Z"></path></g></mask></defs><rect class="cls-3" x="0.5" y="0.5" width="455.49" height="332.86" rx="14.45"></rect><path class="cls-4" d="M441.54,1a14,14,0,0,1,13.95,13.94v304a14,14,0,0,1-13.95,13.95H15A14,14,0,0,1,1,318.91v-304A14,14,0,0,1,15,1H441.54m0-1H15A14.94,14.94,0,0,0,0,14.94v304a15,15,0,0,0,15,14.95H441.54a15,15,0,0,0,14.95-14.95v-304A14.94,14.94,0,0,0,441.54,0Z"></path><g class="cls-5"><g class="cls-6"><path class="cls-7" d="M442.79-.79V98.76a8,8,0,0,1-8,8H.08V-.79H384.36v-.59h3.36v.59h.95a.47.47,0,0,1,.05-.1,2,2,0,0,1,.95-.87,2,2,0,0,1-.8-.89,2.56,2.56,0,0,1-.18-.89,2.06,2.06,0,0,1,.7-1.58,2.73,2.73,0,0,1,2-.66,2.74,2.74,0,0,1,2,.66,2.06,2.06,0,0,1,.7,1.58,2.38,2.38,0,0,1-.19.89,1.69,1.69,0,0,1-.79.83,2.34,2.34,0,0,1,.94.93s0,.07,0,.1h4.46c0-.2,0-.4,0-.62a6.65,6.65,0,0,1,.65-3.24,2.41,2.41,0,0,1,2.28-1.14,2.4,2.4,0,0,1,2.28,1.14,6.54,6.54,0,0,1,.65,3.24c0,.22,0,.42,0,.62h.86c0-.2,0-.4,0-.62a6.65,6.65,0,0,1,.65-3.24,2.41,2.41,0,0,1,2.28-1.14,2.39,2.39,0,0,1,2.28,1.14A6.54,6.54,0,0,1,411-1.41c0,.22,0,.42,0,.62h.86c0-.2,0-.4,0-.62a6.65,6.65,0,0,1,.65-3.24,2.41,2.41,0,0,1,2.28-1.14A2.41,2.41,0,0,1,417-4.65a6.54,6.54,0,0,1,.65,3.24c0,.22,0,.42,0,.62h.86c0-.2,0-.4,0-.62a6.65,6.65,0,0,1,.65-3.24,2.41,2.41,0,0,1,2.28-1.14,2.41,2.41,0,0,1,2.28,1.14,6.65,6.65,0,0,1,.65,3.24c0,.22,0,.42,0,.62h.86c0-.2,0-.4,0-.62a6.65,6.65,0,0,1,.65-3.24,2.41,2.41,0,0,1,2.28-1.14,2.41,2.41,0,0,1,2.28,1.14,6.54,6.54,0,0,1,.65,3.24c0,.22,0,.42,0,.62Z"></path><g class="cls-8"><rect class="cls-7" x="0.08" y="-0.79" width="375.71" height="77.55"></rect></g><path class="cls-9" d="M16.33,87.26a1.43,1.43,0,0,1-.06.34,1.32,1.32,0,0,1-.33.61,1.54,1.54,0,0,1-.82.45,6.76,6.76,0,0,1-1.11.1V89.9h2v5.86h1.71v-8.5Zm3.86.12,0,1.5H24.4A11.59,11.59,0,0,0,22.86,91a10.18,10.18,0,0,0-1.5,4.75H23.1a8.12,8.12,0,0,1,.28-1.88A12.37,12.37,0,0,1,24,92a11.73,11.73,0,0,1,1.12-2,11.11,11.11,0,0,1,1-1.31v-1.3ZM27.9,94v1.75h1.78V94Zm0-4.38v1.74h1.78V89.63Zm8.22-1.28a2.41,2.41,0,0,0-2.28-1.14,2.41,2.41,0,0,0-2.28,1.14,8.4,8.4,0,0,0,0,6.48A2.41,2.41,0,0,0,33.84,96a2.41,2.41,0,0,0,2.28-1.14,8.4,8.4,0,0,0,0-6.48Zm-1.3,5.48a1,1,0,0,1-1,.78,1,1,0,0,1-1-.77,8.08,8.08,0,0,1-.24-2.25,7.9,7.9,0,0,1,.24-2.27,1,1,0,0,1,2,0,11.17,11.17,0,0,1,0,4.51Zm8-5.48a2.41,2.41,0,0,0-2.28-1.14,2.41,2.41,0,0,0-2.28,1.14,8.4,8.4,0,0,0,0,6.48A2.41,2.41,0,0,0,40.52,96a2.41,2.41,0,0,0,2.28-1.14,8.4,8.4,0,0,0,0-6.48Zm-1.3,5.48a1,1,0,0,1-2,0,8.08,8.08,0,0,1-.24-2.25,7.9,7.9,0,0,1,.24-2.27,1,1,0,0,1,2,0,11.17,11.17,0,0,1,0,4.51Z"></path><path class="cls-9" d="M126.92,87.26a1.13,1.13,0,0,1-.07.34,1.41,1.41,0,0,1-.32.61,1.58,1.58,0,0,1-.82.45,6.76,6.76,0,0,1-1.11.1V89.9h2v5.86h1.71v-8.5Zm9.43,4.85a2.3,2.3,0,0,0-.95-.93,1.71,1.71,0,0,0,.8-.83,2.38,2.38,0,0,0,.19-.89,2.06,2.06,0,0,0-.7-1.58,3.27,3.27,0,0,0-3.94,0,2.08,2.08,0,0,0-.69,1.58,2.56,2.56,0,0,0,.18.89,2,2,0,0,0,.8.89,2,2,0,0,0-1,.87,2.68,2.68,0,0,0-.32,1.29,2.52,2.52,0,0,0,.74,1.83,2.85,2.85,0,0,0,2.15.75,3.11,3.11,0,0,0,2.22-.75,2.42,2.42,0,0,0,.79-1.83A2.67,2.67,0,0,0,136.35,92.11Zm-3.42-3.25a1.08,1.08,0,0,1,.79-.29,1.07,1.07,0,0,1,.79.29,1.2,1.2,0,0,1,0,1.54,1.07,1.07,0,0,1-.79.29,1,1,0,0,1-.78-.29,1.18,1.18,0,0,1,0-1.54Zm1.69,5.41a1.36,1.36,0,0,1-1.8,0,1.36,1.36,0,0,1-.32-1,1.33,1.33,0,0,1,.33-1,1.18,1.18,0,0,1,.89-.34,1.16,1.16,0,0,1,.89.34,1.34,1.34,0,0,1,.34,1A1.37,1.37,0,0,1,134.62,94.27Zm3.87-.26v1.75h1.77V94Zm0-4.38v1.74h1.77V89.63Zm8.22-1.28a2.85,2.85,0,0,0-4.56,0,8.4,8.4,0,0,0,0,6.48,2.84,2.84,0,0,0,4.55,0,6.48,6.48,0,0,0,.66-3.24A6.65,6.65,0,0,0,146.71,88.35Zm-1.3,5.48a1,1,0,0,1-2,0,8.08,8.08,0,0,1-.24-2.25,7.9,7.9,0,0,1,.24-2.27,1,1,0,0,1,1-.74.94.94,0,0,1,1,.74,8,8,0,0,1,.23,2.27A8.49,8.49,0,0,1,145.41,93.83Zm8-5.48a2.85,2.85,0,0,0-4.56,0,8.4,8.4,0,0,0,0,6.48,2.84,2.84,0,0,0,4.55,0,6.48,6.48,0,0,0,.66-3.24A6.65,6.65,0,0,0,153.39,88.35Zm-1.31,5.48a1,1,0,0,1-1,.78,1,1,0,0,1-1-.77,8.08,8.08,0,0,1-.24-2.25,7.9,7.9,0,0,1,.24-2.27,1,1,0,0,1,1-.74.94.94,0,0,1,1,.74,11.17,11.17,0,0,1,0,4.51Z"></path><path class="cls-9" d="M237.5,87.26a1.43,1.43,0,0,1-.06.34,1.54,1.54,0,0,1-.33.61,1.58,1.58,0,0,1-.82.45,6.76,6.76,0,0,1-1.11.1V89.9h2v5.86h1.71v-8.5Zm9.38,1.65a2.65,2.65,0,0,0-2.66-1.72,2.7,2.7,0,0,0-2.05.85,3.14,3.14,0,0,0-.78,2.21A2.54,2.54,0,0,0,244,93a2.15,2.15,0,0,0,1.15-.28,1.67,1.67,0,0,0,.49-.44,5.37,5.37,0,0,1-.23,1.47,1.19,1.19,0,0,1-1.16.91,1,1,0,0,1-.68-.23,1,1,0,0,1-.32-.61h-1.66a2.22,2.22,0,0,0,.87,1.65,2.79,2.79,0,0,0,1.71.57,2.76,2.76,0,0,0,2.76-2,7.28,7.28,0,0,0,.39-2.57A6.56,6.56,0,0,0,246.88,88.91Zm-1.9,2.5a1.11,1.11,0,0,1-.65.2,1.17,1.17,0,0,1-1-.37,1.84,1.84,0,0,1-.3-1.14,1.51,1.51,0,0,1,.48-1.27,1.14,1.14,0,0,1,.73-.24,1.11,1.11,0,0,1,.92.42,1.74,1.74,0,0,1,.34,1.14A1.37,1.37,0,0,1,245,91.41Zm4.09,2.6v1.75h1.77V94Zm0-4.38v1.74h1.77V89.63Zm8.22-1.28a2.85,2.85,0,0,0-4.56,0,8.4,8.4,0,0,0,0,6.48A2.41,2.41,0,0,0,255,96a2.39,2.39,0,0,0,2.27-1.14,6.48,6.48,0,0,0,.66-3.24A6.65,6.65,0,0,0,257.29,88.35ZM256,93.83a1,1,0,0,1-1,.78,1,1,0,0,1-1-.77,8.08,8.08,0,0,1-.24-2.25,7.9,7.9,0,0,1,.24-2.27,1,1,0,0,1,1-.74.94.94,0,0,1,1,.74,7.9,7.9,0,0,1,.24,2.27A8.41,8.41,0,0,1,256,93.83Zm8-5.48a2.85,2.85,0,0,0-4.56,0,8.4,8.4,0,0,0,0,6.48A2.41,2.41,0,0,0,261.69,96,2.39,2.39,0,0,0,264,94.83a6.48,6.48,0,0,0,.66-3.24A6.65,6.65,0,0,0,264,88.35Zm-1.3,5.48a1,1,0,0,1-2,0,8.08,8.08,0,0,1-.24-2.25,7.9,7.9,0,0,1,.24-2.27,1,1,0,0,1,1-.74.94.94,0,0,1,1,.74,7.9,7.9,0,0,1,.24,2.27A8.41,8.41,0,0,1,262.67,93.83Z"></path><path class="cls-9" d="M347.42,94.29a1.7,1.7,0,0,1,.38-.46c.16-.14.45-.35.87-.65l.66-.47a5.48,5.48,0,0,0,1.22-1.09,2.69,2.69,0,0,0,.56-1.67,2.6,2.6,0,0,0-.8-2,3,3,0,0,0-2.14-.75,2.47,2.47,0,0,0-2.38,1.27,4.24,4.24,0,0,0-.39,1.76H347a3,3,0,0,1,.19-1,1.05,1.05,0,0,1,1-.57,1,1,0,0,1,.85.36,1.36,1.36,0,0,1,.3.9,1.74,1.74,0,0,1-.52,1.22,12.3,12.3,0,0,1-1.49,1.18,4.68,4.68,0,0,0-1.69,1.8,3.84,3.84,0,0,0-.39,1.67h5.82V94.29Zm9.78-5.94a2.85,2.85,0,0,0-4.56,0,8.4,8.4,0,0,0,0,6.48A2.41,2.41,0,0,0,354.92,96a2.39,2.39,0,0,0,2.27-1.14,6.48,6.48,0,0,0,.66-3.24A6.65,6.65,0,0,0,357.2,88.35Zm-1.3,5.48a1,1,0,0,1-2,0,8.08,8.08,0,0,1-.24-2.25,7.9,7.9,0,0,1,.24-2.27,1,1,0,0,1,1-.74.94.94,0,0,1,1,.74,8,8,0,0,1,.23,2.27A8.49,8.49,0,0,1,355.9,93.83Zm3.75.18v1.75h1.78V94Zm0-4.38v1.74h1.78V89.63Zm8.22-1.28a2.85,2.85,0,0,0-4.56,0,8.4,8.4,0,0,0,0,6.48,2.85,2.85,0,0,0,4.56,0,8.4,8.4,0,0,0,0-6.48Zm-1.3,5.48a1,1,0,0,1-2,0,8.08,8.08,0,0,1-.24-2.25,7.9,7.9,0,0,1,.24-2.27,1,1,0,0,1,1-.74.94.94,0,0,1,1,.74,7.9,7.9,0,0,1,.24,2.27A8.41,8.41,0,0,1,366.57,93.83Zm8-5.48a2.85,2.85,0,0,0-4.56,0,8.4,8.4,0,0,0,0,6.48,2.85,2.85,0,0,0,4.56,0,8.4,8.4,0,0,0,0-6.48Zm-1.3,5.48a1,1,0,0,1-2,0,8.08,8.08,0,0,1-.24-2.25,7.9,7.9,0,0,1,.24-2.27,1,1,0,0,1,1-.74.94.94,0,0,1,1,.74,7.9,7.9,0,0,1,.24,2.27A8.41,8.41,0,0,1,373.25,93.83Z"></path><g class="cls-10"><path class="cls-9" d="M384.36-1.38V.21h3.36V-1.38ZM394-.79s0-.07,0-.1a2.34,2.34,0,0,0-.94-.93,1.69,1.69,0,0,0,.79-.83,2.38,2.38,0,0,0,.19-.89,2.06,2.06,0,0,0-.7-1.58,2.74,2.74,0,0,0-2-.66,2.73,2.73,0,0,0-2,.66,2.06,2.06,0,0,0-.7,1.58,2.56,2.56,0,0,0,.18.89,2,2,0,0,0,.8.89,2,2,0,0,0-.95.87.47.47,0,0,0-.05.1A2.51,2.51,0,0,0,388.4.4a2.51,2.51,0,0,0,.73,1.83,2.88,2.88,0,0,0,2.15.75,3.11,3.11,0,0,0,2.22-.75A2.43,2.43,0,0,0,394.3.4,2.63,2.63,0,0,0,394-.79Zm-3.47-3.35a1.08,1.08,0,0,1,.79-.29,1,1,0,0,1,.79.29,1.05,1.05,0,0,1,.28.78,1.05,1.05,0,0,1-.28.76,1,1,0,0,1-.79.29,1.06,1.06,0,0,1-.78-.29,1.06,1.06,0,0,1-.29-.76A1.09,1.09,0,0,1,390.56-4.14Zm1.69,5.41a1.15,1.15,0,0,1-.9.34,1.18,1.18,0,0,1-.9-.34,1.41,1.41,0,0,1-.32-1,1.33,1.33,0,0,1,.33-1l.12-.1a1.2,1.2,0,0,1,.77-.24,1.21,1.21,0,0,1,.78.24.52.52,0,0,1,.11.1,1.3,1.3,0,0,1,.34,1A1.37,1.37,0,0,1,392.25,1.27ZM395.51,1V2.76h1.77V1Zm8.17-5.66a2.4,2.4,0,0,0-2.28-1.14,2.41,2.41,0,0,0-2.28,1.14,6.65,6.65,0,0,0-.65,3.24c0,.22,0,.42,0,.62a5.9,5.9,0,0,0,.63,2.62A2.41,2.41,0,0,0,401.4,3a2.4,2.4,0,0,0,2.28-1.14,5.9,5.9,0,0,0,.63-2.62c0-.2,0-.4,0-.62A6.54,6.54,0,0,0,403.68-4.65ZM402.38.83a1,1,0,0,1-1,.78,1,1,0,0,1-1-.77,7,7,0,0,1-.23-1.63c0-.2,0-.4,0-.62a7.9,7.9,0,0,1,.24-2.27,1,1,0,0,1,1-.74,1,1,0,0,1,1,.74,8.36,8.36,0,0,1,.23,2.27c0,.22,0,.42,0,.62A6.94,6.94,0,0,1,402.38.83Zm8-5.48a2.39,2.39,0,0,0-2.28-1.14,2.41,2.41,0,0,0-2.28,1.14,6.65,6.65,0,0,0-.65,3.24c0,.22,0,.42,0,.62a5.9,5.9,0,0,0,.63,2.62A2.41,2.41,0,0,0,408.08,3a2.4,2.4,0,0,0,2.28-1.14A5.9,5.9,0,0,0,411-.79c0-.2,0-.4,0-.62A6.54,6.54,0,0,0,410.36-4.65ZM409.06.83a1,1,0,0,1-1,.78,1,1,0,0,1-1-.77,7,7,0,0,1-.23-1.63c0-.2,0-.4,0-.62a7.9,7.9,0,0,1,.24-2.27,1,1,0,0,1,1-.74,1,1,0,0,1,1,.74,8.36,8.36,0,0,1,.23,2.27c0,.22,0,.42,0,.62A6.94,6.94,0,0,1,409.06.83Zm8-5.48a2.41,2.41,0,0,0-2.28-1.14,2.41,2.41,0,0,0-2.28,1.14,6.65,6.65,0,0,0-.65,3.24c0,.22,0,.42,0,.62a5.9,5.9,0,0,0,.63,2.62,2.85,2.85,0,0,0,4.56,0,5.9,5.9,0,0,0,.63-2.62c0-.2,0-.4,0-.62A6.54,6.54,0,0,0,417-4.65ZM415.74.83a1,1,0,0,1-1,.78,1,1,0,0,1-1-.77,7,7,0,0,1-.23-1.63c0-.2,0-.4,0-.62a7.9,7.9,0,0,1,.24-2.27,1,1,0,0,1,1-.74,1,1,0,0,1,1,.74A8.36,8.36,0,0,1,416-1.41c0,.22,0,.42,0,.62A6.94,6.94,0,0,1,415.74.83Zm8-5.48a2.41,2.41,0,0,0-2.28-1.14,2.41,2.41,0,0,0-2.28,1.14,6.65,6.65,0,0,0-.65,3.24c0,.22,0,.42,0,.62a5.9,5.9,0,0,0,.63,2.62,2.85,2.85,0,0,0,4.56,0,5.9,5.9,0,0,0,.63-2.62c0-.2,0-.4,0-.62A6.65,6.65,0,0,0,423.72-4.65ZM422.42.83a1,1,0,0,1-1,.78,1,1,0,0,1-1-.77,7,7,0,0,1-.23-1.63c0-.2,0-.4,0-.62a7.9,7.9,0,0,1,.24-2.27,1,1,0,0,1,1-.74.94.94,0,0,1,1,.74,7.9,7.9,0,0,1,.24,2.27c0,.22,0,.42,0,.62A6.94,6.94,0,0,1,422.42.83Zm8-5.48a2.41,2.41,0,0,0-2.28-1.14,2.41,2.41,0,0,0-2.28,1.14,6.65,6.65,0,0,0-.65,3.24c0,.22,0,.42,0,.62a5.9,5.9,0,0,0,.63,2.62,2.85,2.85,0,0,0,4.56,0A5.9,5.9,0,0,0,431-.79c0-.2,0-.4,0-.62A6.54,6.54,0,0,0,430.4-4.65ZM429.1.83a1,1,0,0,1-1,.78,1,1,0,0,1-1-.77,7,7,0,0,1-.23-1.63c0-.2,0-.4,0-.62a7.9,7.9,0,0,1,.24-2.27,1,1,0,0,1,1-.74.94.94,0,0,1,1,.74,7.9,7.9,0,0,1,.24,2.27c0,.22,0,.42,0,.62A6.94,6.94,0,0,1,429.1.83Z"></path><path class="cls-9" d="M384.36,43.62v1.59h3.36V43.62Zm9.57-2.71a2.66,2.66,0,0,0-2.66-1.72,2.7,2.7,0,0,0-2,.85,3.14,3.14,0,0,0-.78,2.21A2.54,2.54,0,0,0,391,45a2.22,2.22,0,0,0,1.16-.28,1.78,1.78,0,0,0,.48-.44,5.37,5.37,0,0,1-.23,1.47,1.19,1.19,0,0,1-1.16.91,1,1,0,0,1-.68-.23,1,1,0,0,1-.32-.61h-1.66a2.22,2.22,0,0,0,.87,1.65,2.8,2.8,0,0,0,1.72.57A2.75,2.75,0,0,0,394,46a7.28,7.28,0,0,0,.39-2.57A6.56,6.56,0,0,0,393.93,40.91Zm-1.9,2.5a1.11,1.11,0,0,1-.65.2,1.17,1.17,0,0,1-.95-.37,1.84,1.84,0,0,1-.3-1.14,1.51,1.51,0,0,1,.48-1.27,1.14,1.14,0,0,1,.73-.24,1.11,1.11,0,0,1,.92.42,1.74,1.74,0,0,1,.34,1.14A1.37,1.37,0,0,1,392,43.41Zm3.48,2.6v1.75h1.77V46Zm8.17-5.66a2.85,2.85,0,0,0-4.56,0,6.65,6.65,0,0,0-.65,3.24,6.6,6.6,0,0,0,.65,3.24,2.85,2.85,0,0,0,4.56,0,6.6,6.6,0,0,0,.65-3.24A6.54,6.54,0,0,0,403.68,40.35Zm-1.3,5.48a1,1,0,0,1-1,.78,1,1,0,0,1-1-.77,8.08,8.08,0,0,1-.24-2.25,7.9,7.9,0,0,1,.24-2.27,1,1,0,0,1,2,0,8.36,8.36,0,0,1,.23,2.27A8.41,8.41,0,0,1,402.38,45.83Zm8-5.48a2.85,2.85,0,0,0-4.56,0,6.65,6.65,0,0,0-.65,3.24,6.6,6.6,0,0,0,.65,3.24,2.85,2.85,0,0,0,4.56,0,6.6,6.6,0,0,0,.65-3.24A6.54,6.54,0,0,0,410.36,40.35Zm-1.3,5.48a1,1,0,0,1-2,0,8.08,8.08,0,0,1-.24-2.25,7.9,7.9,0,0,1,.24-2.27,1,1,0,0,1,2,0,8.36,8.36,0,0,1,.23,2.27A8.41,8.41,0,0,1,409.06,45.83Zm8-5.48a2.85,2.85,0,0,0-4.56,0,6.65,6.65,0,0,0-.65,3.24,6.6,6.6,0,0,0,.65,3.24,2.85,2.85,0,0,0,4.56,0,6.6,6.6,0,0,0,.65-3.24A6.54,6.54,0,0,0,417,40.35Zm-1.3,5.48a1,1,0,0,1-1,.78,1,1,0,0,1-1-.77,8.08,8.08,0,0,1-.24-2.25,7.9,7.9,0,0,1,.24-2.27,1,1,0,0,1,2,0,8.36,8.36,0,0,1,.23,2.27A8.41,8.41,0,0,1,415.74,45.83Zm8-5.48a2.85,2.85,0,0,0-4.56,0,6.65,6.65,0,0,0-.65,3.24,6.6,6.6,0,0,0,.65,3.24,2.85,2.85,0,0,0,4.56,0,6.6,6.6,0,0,0,.65-3.24A6.65,6.65,0,0,0,423.72,40.35Zm-1.3,5.48a1,1,0,0,1-1,.78,1,1,0,0,1-1-.77,8.08,8.08,0,0,1-.24-2.25,7.9,7.9,0,0,1,.24-2.27,1,1,0,0,1,1-.74.94.94,0,0,1,1,.74,7.9,7.9,0,0,1,.24,2.27A8.41,8.41,0,0,1,422.42,45.83Zm8-5.48a2.85,2.85,0,0,0-4.56,0,6.65,6.65,0,0,0-.65,3.24,6.6,6.6,0,0,0,.65,3.24,2.85,2.85,0,0,0,4.56,0,6.6,6.6,0,0,0,.65-3.24A6.54,6.54,0,0,0,430.4,40.35Zm-1.3,5.48a1,1,0,0,1-2,0,8.08,8.08,0,0,1-.24-2.25,7.9,7.9,0,0,1,.24-2.27,1,1,0,0,1,1-.74.94.94,0,0,1,1,.74,7.9,7.9,0,0,1,.24,2.27A8.41,8.41,0,0,1,429.1,45.83Z"></path><path class="cls-9" d="M389.64,88.64a1.24,1.24,0,0,0-.66-.39,1.54,1.54,0,0,0,.58-.44,1.86,1.86,0,0,0,.45-1.27,2.07,2.07,0,0,0-.75-1.68,2.87,2.87,0,0,0-2-.64,3.52,3.52,0,0,0-1.11.16,2.33,2.33,0,0,0-.78.46,2.65,2.65,0,0,0-.64.92,4,4,0,0,0-.22,1.2h1.56a1.54,1.54,0,0,1,.27-1,1,1,0,0,1,.86-.38,1,1,0,0,1,.8.31,1.1,1.1,0,0,1,.29.79,1,1,0,0,1-.56,1,3.1,3.1,0,0,1-1.13.16V89a3.27,3.27,0,0,1,1.21.16,1.07,1.07,0,0,1,.68,1.11,1.28,1.28,0,0,1-.36,1,1.25,1.25,0,0,1-.86.33A1.12,1.12,0,0,1,386.2,91a2,2,0,0,1-.16-.85H384.4a3.44,3.44,0,0,0,.41,1.64,2.66,2.66,0,0,0,2.5,1.18,2.84,2.84,0,0,0,2.21-.81,2.74,2.74,0,0,0,.75-1.9A2.12,2.12,0,0,0,389.64,88.64ZM391.51,91v1.75h1.78V91Zm5.74-6.75a1.43,1.43,0,0,1-.06.34A1.44,1.44,0,0,1,396,85.66a6.76,6.76,0,0,1-1.11.1V86.9h2v5.86h1.71v-8.5Zm6,7a1.7,1.7,0,0,1,.38-.46c.16-.14.44-.35.86-.65l.67-.47a5.39,5.39,0,0,0,1.21-1.09A2.64,2.64,0,0,0,407,87a2.6,2.6,0,0,0-.8-2,3,3,0,0,0-2.14-.75,2.47,2.47,0,0,0-2.38,1.27,4.24,4.24,0,0,0-.39,1.76h1.62a2.76,2.76,0,0,1,.19-1A1.21,1.21,0,0,1,405,86a1.36,1.36,0,0,1,.3.9,1.74,1.74,0,0,1-.52,1.22,13.21,13.21,0,0,1-1.49,1.18,4.68,4.68,0,0,0-1.69,1.8,4,4,0,0,0-.4,1.67H407V91.29ZM413,88.64a1.24,1.24,0,0,0-.66-.39,1.54,1.54,0,0,0,.58-.44,1.86,1.86,0,0,0,.45-1.27,2.07,2.07,0,0,0-.75-1.68,2.89,2.89,0,0,0-2-.64,3.52,3.52,0,0,0-1.11.16,2.33,2.33,0,0,0-.78.46,2.65,2.65,0,0,0-.64.92,4,4,0,0,0-.22,1.2h1.56a1.54,1.54,0,0,1,.27-1,1,1,0,0,1,.86-.38,1,1,0,0,1,.8.31,1.1,1.1,0,0,1,.29.79,1,1,0,0,1-.56,1,3.1,3.1,0,0,1-1.13.16V89a3.27,3.27,0,0,1,1.21.16,1.07,1.07,0,0,1,.68,1.11,1.25,1.25,0,0,1-.37,1,1.21,1.21,0,0,1-.85.33,1.12,1.12,0,0,1-1.11-.61,2,2,0,0,1-.16-.85h-1.64a3.33,3.33,0,0,0,.41,1.64,2.65,2.65,0,0,0,2.5,1.18,2.84,2.84,0,0,0,2.21-.81,2.74,2.74,0,0,0,.75-1.9A2.12,2.12,0,0,0,413,88.64Zm6.43,1V84.32h-1.87l-3.12,5.15v1.46h3.36v1.83h1.63V90.93h1v-1.3Zm-1.63,0h-2.13L417.82,86Zm8.41-1.74a2.69,2.69,0,0,0-1.84-.71,2.56,2.56,0,0,0-.89.14,3.21,3.21,0,0,0-.6.33l.3-1.86h3.48V84.38H422l-.6,4.69,1.5.07a1,1,0,0,1,.59-.52,1.64,1.64,0,0,1,.53-.08,1.06,1.06,0,0,1,1,.45,1.92,1.92,0,0,1,.3,1.1,1.78,1.78,0,0,1-.33,1.1,1.09,1.09,0,0,1-.94.43,1.07,1.07,0,0,1-.82-.29,1.64,1.64,0,0,1-.38-.84h-1.66a2.48,2.48,0,0,0,.86,1.84,3,3,0,0,0,2,.65,2.78,2.78,0,0,0,2.27-.92A3.26,3.26,0,0,0,427,90,2.64,2.64,0,0,0,426.23,87.89Z"></path></g></g><g class="cls-11"><path class="cls-7" d="M442.79,121.76v188a8,8,0,0,1-8,8H.08v-188H-.85v-8H.08v-8H434.79A8,8,0,0,1,442.79,121.76Z"></path><g class="cls-12"><g class="cls-13"><rect class="cls-14" x="0.08" y="152.76" width="442.71" height="2"></rect></g><g class="cls-15"><path class="cls-1" d="M-16.22,127.72a1.4,1.4,0,0,1-.48.63,1.33,1.33,0,0,1-.76.21,1.36,1.36,0,0,1-.79-.22,1.49,1.49,0,0,1-.48-.64,2.63,2.63,0,0,1-.16-1,2.7,2.7,0,0,1,.16-1,1.52,1.52,0,0,1,.48-.67,1.21,1.21,0,0,1,.79-.25,1.24,1.24,0,0,1,.77.24,1.4,1.4,0,0,1,.47.66,2.7,2.7,0,0,1,.17,1A2.7,2.7,0,0,1-16.22,127.72Zm3-4v6h1.41v-6Zm1.29-2.16a.82.82,0,0,0-.58-.23.85.85,0,0,0-.58.23.71.71,0,0,0-.24.54.75.75,0,0,0,.24.55.89.89,0,0,0,.58.22.85.85,0,0,0,.58-.22.75.75,0,0,0,.24-.55A.71.71,0,0,0-11.92,121.6Zm6.59,3.12A1.74,1.74,0,0,0-6,124a2.11,2.11,0,0,0-1.08-.27,2,2,0,0,0-1.13.3,1.73,1.73,0,0,0-.66.8H-9v-1h-1.35v6h1.41v-3.52a1.61,1.61,0,0,1,.16-.73,1.14,1.14,0,0,1,.45-.47,1.34,1.34,0,0,1,.66-.16,1.09,1.09,0,0,1,.86.34,1.32,1.32,0,0,1,.31.94v3.6h1.41v-3.82A2.53,2.53,0,0,0-5.33,124.72ZM.6,128.54v-6.78H-.85v8h5v-1.22Zm10.05-1.83a4,4,0,0,0-.22-1.36,2.71,2.71,0,0,0-.6-.94,2.46,2.46,0,0,0-.88-.55,3,3,0,0,0-1-.18,2.7,2.7,0,0,0-1.49.4,2.64,2.64,0,0,0-1,1.09,4,4,0,0,0,0,3.26,2.55,2.55,0,0,0,1,1.07,3.11,3.11,0,0,0,1.56.38,3.43,3.43,0,0,0,1.24-.21,2.39,2.39,0,0,0,.89-.61,2.16,2.16,0,0,0,.48-.91L9.27,128a1.28,1.28,0,0,1-.28.43,1.34,1.34,0,0,1-.43.26,1.69,1.69,0,0,1-.56.09,1.62,1.62,0,0,1-.81-.2,1.27,1.27,0,0,1-.53-.57,1.91,1.91,0,0,1-.19-.86h4.18Zm-4.18-.52a1.44,1.44,0,0,1,.18-.65,1.42,1.42,0,0,1,.51-.55,1.38,1.38,0,0,1,.76-.21,1.28,1.28,0,0,1,.71.19,1.22,1.22,0,0,1,.48.5,1.43,1.43,0,0,1,.18.72Zm9.06-2.43-1.39,4.46h-.06l-1.38-4.46H11.19l2.14,6h1.56l2.14-6Zm7.6,2.95a4,4,0,0,0-.22-1.36,2.71,2.71,0,0,0-.6-.94,2.46,2.46,0,0,0-.88-.55,3,3,0,0,0-1-.18,2.71,2.71,0,0,0-1.5.4,2.62,2.62,0,0,0-1,1.09,4,4,0,0,0,0,3.26,2.52,2.52,0,0,0,1,1.07,3.11,3.11,0,0,0,1.56.38,3.39,3.39,0,0,0,1.24-.21,2.39,2.39,0,0,0,.89-.61,2,2,0,0,0,.48-.91L21.75,128a1.15,1.15,0,0,1-.28.43,1.34,1.34,0,0,1-.43.26,1.64,1.64,0,0,1-.56.09,1.62,1.62,0,0,1-.81-.2,1.39,1.39,0,0,1-.53-.57,1.91,1.91,0,0,1-.19-.86h4.18ZM19,126.19a1.44,1.44,0,0,1,.18-.65,1.41,1.41,0,0,1,1.28-.76,1.3,1.3,0,0,1,.71.19,1.36,1.36,0,0,1,.48.5,1.53,1.53,0,0,1,.17.72Zm5.37-4.43v8h1.42v-8Z"></path><circle class="cls-16" cx="-0.32" cy="167.89" r="32.81"></circle><path class="cls-1" d="M38.13,124.76a.5.5,0,0,0-.5.5.51.51,0,0,0,.5.5h.27v1.83h-.27a.5.5,0,0,0-.5.5.5.5,0,0,0,.5.5h1.54a.5.5,0,0,0,.5-.5.51.51,0,0,0-.5-.5H39.4v-2.33a.5.5,0,0,0-.5-.5Z"></path><path class="cls-1" d="M38.69,123.92a.66.66,0,0,0,.67-.66.67.67,0,1,0-1.33,0A.66.66,0,0,0,38.69,123.92Z"></path><path class="cls-17" d="M38.79,119.26a6.5,6.5,0,1,0,6.5,6.5A6.5,6.5,0,0,0,38.79,119.26Zm0,12a5.5,5.5,0,1,1,5.5-5.5A5.5,5.5,0,0,1,38.79,131.26Z"></path></g><g class="cls-18"><rect class="cls-19" x="0.08" y="152.76" width="58.71" height="2"></rect></g><path class="cls-9" d="M76.72,127.73a1.67,1.67,0,0,1-.42.46,1.89,1.89,0,0,1-.57.28,2.09,2.09,0,0,1-.67.1,2,2,0,0,1-1.94-1.26,3.76,3.76,0,0,1-.29-1.55,3.7,3.7,0,0,1,.29-1.53,2.14,2.14,0,0,1,.79-1,2,2,0,0,1,1.15-.33,2.17,2.17,0,0,1,.69.1,1.94,1.94,0,0,1,.57.3,1.91,1.91,0,0,1,.42.47,2.11,2.11,0,0,1,.23.64h1.46a3.21,3.21,0,0,0-.39-1.19,2.84,2.84,0,0,0-.73-.88,3.09,3.09,0,0,0-1-.55,3.79,3.79,0,0,0-1.24-.19,3.55,3.55,0,0,0-1.87.49,3.32,3.32,0,0,0-1.31,1.41,5.38,5.38,0,0,0,0,4.42,3.38,3.38,0,0,0,1.31,1.41,3.59,3.59,0,0,0,1.88.49,3.81,3.81,0,0,0,1.3-.21,3.23,3.23,0,0,0,1-.6,3,3,0,0,0,.71-.88,3.3,3.3,0,0,0,.36-1.07H77A1.77,1.77,0,0,1,76.72,127.73Zm6.15-4-.26,0a1.55,1.55,0,0,0-.92.29,1.48,1.48,0,0,0-.57.8h-.06v-1H79.69v6h1.42v-3.53a1.23,1.23,0,0,1,.65-1.13,1.48,1.48,0,0,1,.7-.17l.37,0a1.18,1.18,0,0,1,.28.05v-1.3Zm6.26,3a3.73,3.73,0,0,0-.22-1.36,2.58,2.58,0,0,0-.6-.94,2.3,2.3,0,0,0-.88-.55,3,3,0,0,0-1-.18,2.73,2.73,0,0,0-1.5.4,2.68,2.68,0,0,0-1,1.09,4,4,0,0,0,0,3.26,2.52,2.52,0,0,0,1,1.07,3.11,3.11,0,0,0,1.56.38,3.39,3.39,0,0,0,1.24-.21,2.31,2.31,0,0,0,.89-.61,2,2,0,0,0,.48-.91L87.75,128a1,1,0,0,1-.28.43,1.24,1.24,0,0,1-.43.26,1.64,1.64,0,0,1-.56.09,1.58,1.58,0,0,1-.8-.2,1.35,1.35,0,0,1-.54-.57,1.91,1.91,0,0,1-.19-.86h4.18ZM85,126.19a1.44,1.44,0,0,1,.18-.65,1.52,1.52,0,0,1,.52-.55,1.35,1.35,0,0,1,.76-.21,1.3,1.3,0,0,1,.71.19,1.36,1.36,0,0,1,.48.5,1.53,1.53,0,0,1,.17.72Zm9.38-4.43v3h-.06a2.18,2.18,0,0,0-.31-.46,1.58,1.58,0,0,0-.54-.43,1.8,1.8,0,0,0-.86-.18,2.31,2.31,0,0,0-1.26.36,2.42,2.42,0,0,0-.89,1,3.89,3.89,0,0,0-.33,1.69,4,4,0,0,0,.32,1.68,2.44,2.44,0,0,0,.89,1.05,2.26,2.26,0,0,0,1.26.36,1.83,1.83,0,0,0,.86-.17,1.8,1.8,0,0,0,.55-.41,2.7,2.7,0,0,0,.31-.47h.09v.95h1.39v-8Zm-.14,6a1.5,1.5,0,0,1-.48.68,1.21,1.21,0,0,1-.76.24,1.24,1.24,0,0,1-.79-.25,1.48,1.48,0,0,1-.48-.69,2.84,2.84,0,0,1-.16-1,2.78,2.78,0,0,1,.16-1,1.5,1.5,0,0,1,.48-.68,1.21,1.21,0,0,1,.79-.25,1.24,1.24,0,0,1,.77.24,1.38,1.38,0,0,1,.47.67,2.77,2.77,0,0,1,.17,1A2.87,2.87,0,0,1,94.19,127.78Zm3.06-4v6h1.42v-6Zm1.29-2.16a.79.79,0,0,0-.57-.23.82.82,0,0,0-.58.23.71.71,0,0,0-.24.54.75.75,0,0,0,.24.55.85.85,0,0,0,.58.22.83.83,0,0,0,.57-.22.73.73,0,0,0,.25-.55A.69.69,0,0,0,98.54,121.6Zm1.13,2.16v1.09h3.45v-1.09ZM103,128.6l-.17,0-.24,0a1,1,0,0,1-.32-.05.49.49,0,0,1-.24-.21.89.89,0,0,1-.08-.44v-5.63h-1.42v5.87a1.73,1.73,0,0,0,.24.94,1.53,1.53,0,0,0,.68.55,2.8,2.8,0,0,0,1.46.11l.33-.09Z"></path><path class="cls-1" d="M74.27,135.94v10.91H75V135.94Zm3.24,6.41a2.23,2.23,0,0,0-.64-.69,3.64,3.64,0,0,0-.8-.43c-.28-.1-.54-.18-.76-.24L75,140.9l-.55-.15-.15,0-.38-.13a2.89,2.89,0,0,1-.56-.27,1.53,1.53,0,0,1-.43-.41,1.08,1.08,0,0,1-.17-.6,1.24,1.24,0,0,1,.24-.75,1.58,1.58,0,0,1,.67-.51,2.08,2.08,0,0,1,.63-.16,2.38,2.38,0,0,1,.39,0,1.56,1.56,0,0,1,.31,0,2.14,2.14,0,0,1,1,.34,1.34,1.34,0,0,1,.62,1h1a2,2,0,0,0-.41-1.18,2.51,2.51,0,0,0-1-.81,3.32,3.32,0,0,0-1.22-.3h-.28l-.42,0a3.51,3.51,0,0,0-1.09.29,2.6,2.6,0,0,0-1.07.85,2.1,2.1,0,0,0-.4,1.28,1.85,1.85,0,0,0,.6,1.43,4,4,0,0,0,1.62.84l.34.1.7.19h0a8.63,8.63,0,0,1,.86.3,1.89,1.89,0,0,1,.64.45,1,1,0,0,1,.24.7,1.37,1.37,0,0,1-.28.84,1.86,1.86,0,0,1-.77.55,2.71,2.71,0,0,1-.72.18l-.36,0-.34,0a2.62,2.62,0,0,1-.63-.14,1.81,1.81,0,0,1-.75-.47,1.41,1.41,0,0,1-.33-.82H71.47a2.45,2.45,0,0,0,.44,1.26,2.58,2.58,0,0,0,1.07.84,3.82,3.82,0,0,0,1.29.29H75a3.62,3.62,0,0,0,1.35-.32,2.54,2.54,0,0,0,1.07-.91,2.28,2.28,0,0,0,.37-1.28A2,2,0,0,0,77.51,142.35ZM81.36,137l-2.18,1.45v1.07l2.13-1.41h0v7.62h1V137ZM90.44,139a3.21,3.21,0,0,0-1-1.53,2.52,2.52,0,0,0-1.63-.54,2.57,2.57,0,0,0-1.64.54,3.36,3.36,0,0,0-1,1.53,8.54,8.54,0,0,0,0,4.84,3.28,3.28,0,0,0,1,1.53,2.8,2.8,0,0,0,3.28,0,3.28,3.28,0,0,0,1-1.53,7.5,7.5,0,0,0,.35-2.42A7.18,7.18,0,0,0,90.44,139Zm-1.19,5a1.63,1.63,0,0,1-1.48.92,1.59,1.59,0,0,1-1.09-.41,2.75,2.75,0,0,1-.68-1.21,6.7,6.7,0,0,1-.24-1.92,5.39,5.39,0,0,1,.53-2.63,1.64,1.64,0,0,1,1.48-.94,1.53,1.53,0,0,1,1.08.42,2.65,2.65,0,0,1,.69,1.22,6.73,6.73,0,0,1,.24,1.93A5.23,5.23,0,0,1,89.25,144Zm8.69-5a3.21,3.21,0,0,0-1-1.53,2.52,2.52,0,0,0-1.63-.54,2.57,2.57,0,0,0-1.64.54,3.36,3.36,0,0,0-1,1.53,8.54,8.54,0,0,0,0,4.84,3.28,3.28,0,0,0,1,1.53,2.8,2.8,0,0,0,3.28,0,3.28,3.28,0,0,0,1-1.53,7.5,7.5,0,0,0,.35-2.42A7.18,7.18,0,0,0,97.94,139Zm-1.19,5a1.63,1.63,0,0,1-1.48.92,1.59,1.59,0,0,1-1.09-.41,2.75,2.75,0,0,1-.68-1.21,6.7,6.7,0,0,1-.24-1.92,5.39,5.39,0,0,1,.53-2.63,1.64,1.64,0,0,1,1.48-.94,1.53,1.53,0,0,1,1.08.42,2.65,2.65,0,0,1,.69,1.22,6.73,6.73,0,0,1,.24,1.93A5.23,5.23,0,0,1,96.75,144Zm4.16.5a.76.76,0,1,0-.54,1.31.8.8,0,0,0,.38-.1.86.86,0,0,0,.28-.29.7.7,0,0,0,.11-.38A.74.74,0,0,0,100.91,144.52Zm7.23-5.54a3.28,3.28,0,0,0-1-1.53,2.75,2.75,0,0,0-3.27,0,3.28,3.28,0,0,0-1,1.53,8.31,8.31,0,0,0,0,4.84,3.21,3.21,0,0,0,1,1.53,2.58,2.58,0,0,0,1.64.53,2.62,2.62,0,0,0,1.64-.53,3.27,3.27,0,0,0,1-1.53,8.31,8.31,0,0,0,0-4.84ZM107,144a1.64,1.64,0,0,1-1.48.92,1.57,1.57,0,0,1-1.09-.41,2.66,2.66,0,0,1-.69-1.21,6.7,6.7,0,0,1-.24-1.92,5.27,5.27,0,0,1,.54-2.63,1.62,1.62,0,0,1,1.48-.94,1.49,1.49,0,0,1,1.07.42,2.49,2.49,0,0,1,.69,1.22,6.37,6.37,0,0,1,.25,1.93A5.34,5.34,0,0,1,107,144Zm8.69-5a3.28,3.28,0,0,0-1-1.53,2.75,2.75,0,0,0-3.27,0,3.28,3.28,0,0,0-1,1.53,8.31,8.31,0,0,0,0,4.84,3.21,3.21,0,0,0,1,1.53,2.58,2.58,0,0,0,1.64.53,2.62,2.62,0,0,0,1.64-.53,3.27,3.27,0,0,0,1-1.53,8.31,8.31,0,0,0,0-4.84Zm-1.19,5a1.64,1.64,0,0,1-1.48.92,1.57,1.57,0,0,1-1.09-.41,2.66,2.66,0,0,1-.69-1.21,6.7,6.7,0,0,1-.24-1.92,5.27,5.27,0,0,1,.54-2.63,1.62,1.62,0,0,1,1.48-.94,1.49,1.49,0,0,1,1.07.42,2.49,2.49,0,0,1,.69,1.22,6.37,6.37,0,0,1,.25,1.93A5.34,5.34,0,0,1,114.45,144Zm8.69-5a3.28,3.28,0,0,0-1-1.53,2.75,2.75,0,0,0-3.27,0,3.28,3.28,0,0,0-1,1.53,8.31,8.31,0,0,0,0,4.84,3.21,3.21,0,0,0,1,1.53,2.58,2.58,0,0,0,1.64.53,2.62,2.62,0,0,0,1.64-.53,3.27,3.27,0,0,0,1-1.53,8.31,8.31,0,0,0,0-4.84ZM122,144a1.64,1.64,0,0,1-1.48.92,1.57,1.57,0,0,1-1.09-.41,2.66,2.66,0,0,1-.69-1.21,6.7,6.7,0,0,1-.24-1.92,5.27,5.27,0,0,1,.54-2.63,1.62,1.62,0,0,1,1.48-.94,1.49,1.49,0,0,1,1.07.42,2.49,2.49,0,0,1,.69,1.22,6.37,6.37,0,0,1,.25,1.93A5.34,5.34,0,0,1,122,144Zm3.29.55,0,.47c0,.39-.09.76-.15,1.13s-.12.7-.18,1-.11.54-.15.72h.77c.07-.19.15-.45.26-.78s.2-.67.3-1a7.78,7.78,0,0,0,.22-1l.07-.46Zm8.15-5.59a3.21,3.21,0,0,0-1-1.53,2.52,2.52,0,0,0-1.63-.54,2.57,2.57,0,0,0-1.64.54,3.28,3.28,0,0,0-1,1.53,8.54,8.54,0,0,0,0,4.84,3.28,3.28,0,0,0,1,1.53,2.8,2.8,0,0,0,3.28,0,3.28,3.28,0,0,0,1-1.53,7.5,7.5,0,0,0,.35-2.42A7.18,7.18,0,0,0,133.39,139Zm-1.19,5a1.63,1.63,0,0,1-1.48.92,1.59,1.59,0,0,1-1.09-.41,2.66,2.66,0,0,1-.68-1.21,6.7,6.7,0,0,1-.24-1.92,5.39,5.39,0,0,1,.53-2.63,1.64,1.64,0,0,1,1.48-.94,1.53,1.53,0,0,1,1.08.42,2.65,2.65,0,0,1,.69,1.22,6.73,6.73,0,0,1,.24,1.93A5.34,5.34,0,0,1,132.2,144Zm8.69-5a3.21,3.21,0,0,0-1-1.53,2.52,2.52,0,0,0-1.63-.54,2.57,2.57,0,0,0-1.64.54,3.28,3.28,0,0,0-1,1.53,8.54,8.54,0,0,0,0,4.84,3.28,3.28,0,0,0,1,1.53,2.8,2.8,0,0,0,3.28,0,3.28,3.28,0,0,0,1-1.53,7.5,7.5,0,0,0,.35-2.42A7.18,7.18,0,0,0,140.89,139Zm-1.19,5a1.63,1.63,0,0,1-1.48.92,1.59,1.59,0,0,1-1.09-.41,2.66,2.66,0,0,1-.68-1.21,6.7,6.7,0,0,1-.24-1.92,5.39,5.39,0,0,1,.53-2.63,1.64,1.64,0,0,1,1.48-.94,1.53,1.53,0,0,1,1.08.42,2.65,2.65,0,0,1,.69,1.22,6.73,6.73,0,0,1,.24,1.93A5.34,5.34,0,0,1,139.7,144Z"></path><path class="cls-17" d="M383.79,126.93h-2.67a1.83,1.83,0,0,0-1.83,1.83v2.67a1.83,1.83,0,0,0,1.83,1.83h2.67a1.83,1.83,0,0,0,1.83-1.83v-2.67A1.83,1.83,0,0,0,383.79,126.93Zm.83,4.5a.83.83,0,0,1-.83.83h-2.67a.83.83,0,0,1-.83-.83v-2.67a.83.83,0,0,1,.83-.83h2.67a.83.83,0,0,1,.83.83Z"></path><path class="cls-17" d="M376.46,134.26h-2.67a1.83,1.83,0,0,0-1.83,1.83v2.67a1.83,1.83,0,0,0,1.83,1.83h2.67a1.83,1.83,0,0,0,1.83-1.83v-2.67A1.83,1.83,0,0,0,376.46,134.26Zm.83,4.5a.83.83,0,0,1-.83.83h-2.67a.83.83,0,0,1-.83-.83v-2.67a.83.83,0,0,1,.83-.83h2.67a.83.83,0,0,1,.83.83Z"></path><path class="cls-17" d="M376.46,126.93h-2.67a1.83,1.83,0,0,0-1.83,1.83v2.67a1.83,1.83,0,0,0,1.83,1.83h2.67a1.83,1.83,0,0,0,1.83-1.83v-2.67A1.83,1.83,0,0,0,376.46,126.93Zm.83,4.5a.83.83,0,0,1-.83.83h-2.67a.83.83,0,0,1-.83-.83v-2.67a.83.83,0,0,1,.83-.83h2.67a.83.83,0,0,1,.83.83Z"></path><path class="cls-17" d="M383.79,134.26h-2.67a1.83,1.83,0,0,0-1.83,1.83v2.67a1.83,1.83,0,0,0,1.83,1.83h2.67a1.83,1.83,0,0,0,1.83-1.83v-2.67A1.83,1.83,0,0,0,383.79,134.26Zm.83,4.5a.83.83,0,0,1-.83.83h-2.67a.83.83,0,0,1-.83-.83v-2.67a.83.83,0,0,1,.83-.83h2.67a.83.83,0,0,1,.83.83Z"></path><path class="cls-20" d="M415.79,126.93h-10a1.83,1.83,0,0,0-1.83,1.83v2.67a1.83,1.83,0,0,0,1.83,1.83h10a1.83,1.83,0,0,0,1.83-1.83v-2.67A1.83,1.83,0,0,0,415.79,126.93Zm.83,4.5a.83.83,0,0,1-.83.83h-10a.83.83,0,0,1-.83-.83v-2.67a.83.83,0,0,1,.83-.83h10a.83.83,0,0,1,.83.83Zm-.83,2.83h-10a1.83,1.83,0,0,0-1.83,1.83v2.67a1.83,1.83,0,0,0,1.83,1.83h10a1.83,1.83,0,0,0,1.83-1.83v-2.67A1.83,1.83,0,0,0,415.79,134.26Zm.83,4.5a.83.83,0,0,1-.83.83h-10a.83.83,0,0,1-.83-.83v-2.67a.83.83,0,0,1,.83-.83h10a.83.83,0,0,1,.83.83Z"></path></g><g class="cls-21"><g class="cls-22"><rect class="cls-14" x="0.08" y="184.76" width="417.71" height="2"></rect></g><path class="cls-9" d="M47.7,167v-1.21H42.58v8H44v-3.4h3.32v-1.21H44V167Zm6.15,3.74a4,4,0,0,0-.22-1.36,2.71,2.71,0,0,0-.6-.94,2.46,2.46,0,0,0-.88-.55,3,3,0,0,0-1-.18,2.7,2.7,0,0,0-1.49.4,2.55,2.55,0,0,0-1,1.09,3.87,3.87,0,0,0,0,3.26,2.46,2.46,0,0,0,1,1.07,3.11,3.11,0,0,0,1.56.38,3.43,3.43,0,0,0,1.24-.21,2.39,2.39,0,0,0,.89-.61,2.16,2.16,0,0,0,.48-.91L52.47,172a1.28,1.28,0,0,1-.28.43,1.34,1.34,0,0,1-.43.26,1.69,1.69,0,0,1-.56.09,1.62,1.62,0,0,1-.81-.2,1.27,1.27,0,0,1-.53-.57,1.91,1.91,0,0,1-.19-.86h4.18Zm-4.18-.52a1.44,1.44,0,0,1,.18-.65,1.42,1.42,0,0,1,.51-.55,1.38,1.38,0,0,1,.76-.21,1.28,1.28,0,0,1,.71.19,1.22,1.22,0,0,1,.48.5,1.43,1.43,0,0,1,.18.72Zm10.7.52a4,4,0,0,0-.22-1.36,2.71,2.71,0,0,0-.6-.94,2.46,2.46,0,0,0-.88-.55,3,3,0,0,0-1.05-.18,2.7,2.7,0,0,0-1.49.4,2.55,2.55,0,0,0-1,1.09,3.87,3.87,0,0,0,0,3.26,2.46,2.46,0,0,0,1,1.07,3.11,3.11,0,0,0,1.56.38,3.43,3.43,0,0,0,1.24-.21,2.39,2.39,0,0,0,.89-.61,2.05,2.05,0,0,0,.48-.91L59,172a1.28,1.28,0,0,1-.28.43,1.34,1.34,0,0,1-.43.26,1.69,1.69,0,0,1-.56.09,1.62,1.62,0,0,1-.81-.2,1.33,1.33,0,0,1-.53-.57,1.91,1.91,0,0,1-.19-.86h4.18Zm-4.18-.52a1.44,1.44,0,0,1,.18-.65,1.42,1.42,0,0,1,.51-.55,1.38,1.38,0,0,1,.76-.21,1.28,1.28,0,0,1,.71.19,1.22,1.22,0,0,1,.48.5,1.43,1.43,0,0,1,.18.72Z"></path><path class="cls-9" d="M168.08,167.05a2.35,2.35,0,0,0-1-1,3.2,3.2,0,0,0-1.55-.34h-3v8H164v-2.7h1.53a3.33,3.33,0,0,0,1.56-.34,2.41,2.41,0,0,0,1-.94,2.91,2.91,0,0,0,.32-1.37A2.87,2.87,0,0,0,168.08,167.05Zm-1.33,2.11a1.19,1.19,0,0,1-.5.52,1.93,1.93,0,0,1-.89.18H164V167h1.33a1.89,1.89,0,0,1,.88.18,1.14,1.14,0,0,1,.51.51,1.49,1.49,0,0,1,.17.75A1.54,1.54,0,0,1,166.75,169.16Zm6-1.47-.26,0a1.57,1.57,0,0,0-.92.29,1.52,1.52,0,0,0-.56.8H171v-1H169.6v6H171v-3.53a1.24,1.24,0,0,1,.18-.67,1.12,1.12,0,0,1,.48-.46,1.41,1.41,0,0,1,.69-.17,2.31,2.31,0,0,1,.37,0,1.29,1.29,0,0,1,.29,0v-1.3Zm6.08,1.46a2.67,2.67,0,0,0-1-1.08,3.18,3.18,0,0,0-3,0,2.67,2.67,0,0,0-1,1.08,4,4,0,0,0,0,3.26,2.67,2.67,0,0,0,1,1.08,3.18,3.18,0,0,0,3,0,2.67,2.67,0,0,0,1-1.08,4,4,0,0,0,0-3.26Zm-1.24,2.62a1.6,1.6,0,0,1-.48.71,1.19,1.19,0,0,1-.8.26,1.23,1.23,0,0,1-.81-.26,1.6,1.6,0,0,1-.48-.71,3.38,3.38,0,0,1,0-2,1.66,1.66,0,0,1,.48-.71,1.24,1.24,0,0,1,.81-.27,1.19,1.19,0,0,1,.8.27,1.66,1.66,0,0,1,.48.71,3.17,3.17,0,0,1,0,2Zm2.28-4v1.09h3.55v-1.09Zm3.42-2.32a3.2,3.2,0,0,0-.65-.06,2.28,2.28,0,0,0-.95.2,1.67,1.67,0,0,0-.68.61,1.81,1.81,0,0,0-.25,1v6.57h1.42v-6.47a.77.77,0,0,1,.16-.54.7.7,0,0,1,.56-.19,1.39,1.39,0,0,1,.3,0l.23,0,.28-1.09Zm1.24,2.32v6H186v-6Zm1.29-2.16a.82.82,0,0,0-.58-.23.83.83,0,0,0-.58.23.71.71,0,0,0-.24.54.75.75,0,0,0,.24.55.87.87,0,0,0,.58.22.85.85,0,0,0,.58-.22.75.75,0,0,0,.24-.55A.71.71,0,0,0,185.84,165.6Zm1.12,2.16v1.09h3.45v-1.09Zm3.32,4.84-.17,0-.24,0a1.07,1.07,0,0,1-.32-.05.53.53,0,0,1-.24-.21,1,1,0,0,1-.08-.44v-5.63h-1.42v5.87a1.65,1.65,0,0,0,.25.94,1.45,1.45,0,0,0,.67.55,2.31,2.31,0,0,0,1,.16,2.44,2.44,0,0,0,.51-.05,1.9,1.9,0,0,0,.32-.09Zm9.35-.22.1-.12a3.33,3.33,0,0,0,.43-.95,4.32,4.32,0,0,0,.17-1.32h-1.21a2.9,2.9,0,0,1-.21,1.12c0,.09-.08.18-.13.27l-1.46-1.71.5-.37a2.88,2.88,0,0,0,.79-.81,1.92,1.92,0,0,0,.28-1,1.74,1.74,0,0,0-.25-.9,1.81,1.81,0,0,0-.7-.67,2.48,2.48,0,0,0-2.19,0,1.85,1.85,0,0,0-.73.71,1.88,1.88,0,0,0-.26,1,2.25,2.25,0,0,0,.2.93,4.57,4.57,0,0,0,.53.82l.09.11a5.92,5.92,0,0,0-.76.6,2.88,2.88,0,0,0-.55.68,1.8,1.8,0,0,0-.19.85,2.13,2.13,0,0,0,.31,1.15,2.37,2.37,0,0,0,.91.8,3.13,3.13,0,0,0,1.42.3,3.61,3.61,0,0,0,1.1-.18,2.49,2.49,0,0,0,.94-.53l.52.59h1.53Zm-3.5-5.13a.81.81,0,0,1,.3-.31.84.84,0,0,1,.45-.12.78.78,0,0,1,.59.23.75.75,0,0,1,.22.49.88.88,0,0,1-.17.53,1.53,1.53,0,0,1-.47.43l-.45.31,0-.06a3.57,3.57,0,0,1-.39-.56,1.2,1.2,0,0,1-.14-.53A.74.74,0,0,1,196.13,167.25Zm1.48,5.27a2,2,0,0,1-.85.19,1.52,1.52,0,0,1-.69-.15,1.09,1.09,0,0,1-.44-.41,1.08,1.08,0,0,1-.16-.58,1,1,0,0,1,.17-.5,1.83,1.83,0,0,1,.57-.58l.13-.1L198,172.3A3.84,3.84,0,0,1,197.61,172.52Zm8.25,0v-6.78h-1.45v8h5v-1.22Zm9.85-3.39a2.58,2.58,0,0,0-1-1.08,3.18,3.18,0,0,0-3.05,0,2.67,2.67,0,0,0-1,1.08,4,4,0,0,0,0,3.26,2.67,2.67,0,0,0,1,1.08,3.18,3.18,0,0,0,3.05,0,2.58,2.58,0,0,0,1-1.08,3.87,3.87,0,0,0,0-3.26Zm-1.23,2.62a1.6,1.6,0,0,1-.48.71,1.2,1.2,0,0,1-.8.26,1.23,1.23,0,0,1-.81-.26,1.6,1.6,0,0,1-.48-.71,3.17,3.17,0,0,1,0-2,1.66,1.66,0,0,1,.48-.71,1.24,1.24,0,0,1,.81-.27,1.21,1.21,0,0,1,.8.27,1.66,1.66,0,0,1,.48.71,3.17,3.17,0,0,1,0,2Zm7.24-.85a2.55,2.55,0,0,0-1.27-.58l-1-.22a1.72,1.72,0,0,1-.66-.27.53.53,0,0,1-.19-.43.57.57,0,0,1,.3-.49,1.31,1.31,0,0,1,.74-.19,1.29,1.29,0,0,1,.55.1.92.92,0,0,1,.36.28.93.93,0,0,1,.19.37l1.29-.14a1.94,1.94,0,0,0-.75-1.22,2.75,2.75,0,0,0-1.66-.45,3.31,3.31,0,0,0-1.27.23,2,2,0,0,0-.86.63,1.57,1.57,0,0,0-.3,1,1.54,1.54,0,0,0,.41,1.09,2.47,2.47,0,0,0,1.28.6l1,.22a1.29,1.29,0,0,1,.61.26.5.5,0,0,1,.2.42.59.59,0,0,1-.31.51,1.39,1.39,0,0,1-.81.21,1.36,1.36,0,0,1-.79-.21,1,1,0,0,1-.4-.61l-1.38.13a1.91,1.91,0,0,0,.8,1.3,3.15,3.15,0,0,0,1.78.46,3.29,3.29,0,0,0,1.33-.25,2.14,2.14,0,0,0,.9-.67,1.6,1.6,0,0,0,.33-1A1.37,1.37,0,0,0,221.72,170.92Zm6,0a2.55,2.55,0,0,0-1.27-.58l-1-.22a1.59,1.59,0,0,1-.66-.27.53.53,0,0,1-.19-.43.56.56,0,0,1,.29-.49,1.57,1.57,0,0,1,1.3-.09.92.92,0,0,1,.36.28,1.09,1.09,0,0,1,.19.37l1.29-.14a1.94,1.94,0,0,0-.75-1.22,2.75,2.75,0,0,0-1.66-.45,3.4,3.4,0,0,0-1.28.23,2,2,0,0,0-.85.63,1.57,1.57,0,0,0-.3,1,1.49,1.49,0,0,0,.41,1.09,2.43,2.43,0,0,0,1.28.6l1,.22a1.29,1.29,0,0,1,.61.26.53.53,0,0,1,.2.42.59.59,0,0,1-.31.51,1.39,1.39,0,0,1-.81.21,1.36,1.36,0,0,1-.79-.21.91.91,0,0,1-.4-.61l-1.38.13a1.88,1.88,0,0,0,.8,1.3,3.14,3.14,0,0,0,1.77.46,3.25,3.25,0,0,0,1.33-.25,2.11,2.11,0,0,0,.91-.67,1.74,1.74,0,0,0,.33-1A1.45,1.45,0,0,0,227.76,170.92Z"></path><path class="cls-9" d="M366.06,165.76h-1.79l-2.82,8H363l.66-2,.39-1.17,1.08-3.22h.07l1.08,3.22.39,1.17.66,2h1.55Zm-3,4.86v1.17h4.22v-1.17Zm10.24,1.64a1.15,1.15,0,0,1-.41.35,1.27,1.27,0,0,1-.56.11,1.25,1.25,0,0,1-.77-.23,1.5,1.5,0,0,1-.51-.68,3.12,3.12,0,0,1,0-2.09,1.52,1.52,0,0,1,.52-.66,1.23,1.23,0,0,1,.76-.24,1.13,1.13,0,0,1,.81.29,1.28,1.28,0,0,1,.39.73h1.36a2.32,2.32,0,0,0-.39-1.14,2.22,2.22,0,0,0-.9-.75,3,3,0,0,0-1.29-.27,2.82,2.82,0,0,0-1.53.4,2.68,2.68,0,0,0-1,1.09,3.6,3.6,0,0,0-.35,1.61,3.7,3.7,0,0,0,.34,1.61,2.68,2.68,0,0,0,1,1.09,3.2,3.2,0,0,0,2.86.12,2.25,2.25,0,0,0,.88-.76,2.41,2.41,0,0,0,.38-1.13h-1.36A1.24,1.24,0,0,1,373.29,172.26Zm2.29-4.5v1.09H379v-1.09Zm3.32,4.84-.17,0-.24,0a1.07,1.07,0,0,1-.32-.05.43.43,0,0,1-.23-.21.88.88,0,0,1-.09-.44v-5.63h-1.41v5.87a1.57,1.57,0,0,0,.24.94,1.45,1.45,0,0,0,.67.55,2.31,2.31,0,0,0,1,.16,2.44,2.44,0,0,0,.51-.05,1.9,1.9,0,0,0,.32-.09Zm1.32-4.84v6h1.41v-6Zm1.28-2.16a.79.79,0,0,0-.57-.23.82.82,0,0,0-.58.23.71.71,0,0,0-.24.54.75.75,0,0,0,.24.55.85.85,0,0,0,.58.22.83.83,0,0,0,.57-.22.73.73,0,0,0,.25-.55A.69.69,0,0,0,381.5,165.6Zm6.72,3.55a2.61,2.61,0,0,0-1-1.08,2.84,2.84,0,0,0-1.52-.39,2.89,2.89,0,0,0-1.52.39,2.61,2.61,0,0,0-1,1.08,4,4,0,0,0,0,3.26,2.61,2.61,0,0,0,1,1.08,2.89,2.89,0,0,0,1.52.39,2.84,2.84,0,0,0,1.52-.39,2.61,2.61,0,0,0,1-1.08,3.87,3.87,0,0,0,0-3.26ZM387,171.77a1.51,1.51,0,0,1-.47.71,1.38,1.38,0,0,1-1.61,0,1.45,1.45,0,0,1-.48-.71,3.17,3.17,0,0,1,0-2,1.5,1.5,0,0,1,.48-.71,1.34,1.34,0,0,1,1.61,0,1.56,1.56,0,0,1,.47.71,3.17,3.17,0,0,1,0,2Zm7.81-3.05a1.74,1.74,0,0,0-.72-.77,2.11,2.11,0,0,0-1.08-.27,2,2,0,0,0-1.13.3,1.73,1.73,0,0,0-.66.8h-.07v-1h-1.35v6h1.41v-3.52a1.49,1.49,0,0,1,.16-.73,1.14,1.14,0,0,1,.45-.47,1.29,1.29,0,0,1,.66-.16,1.06,1.06,0,0,1,.85.34,1.32,1.32,0,0,1,.32.94v3.6H395v-3.82A2.53,2.53,0,0,0,394.79,168.72Zm6.14,2.2a2.55,2.55,0,0,0-1.27-.58l-1-.22a1.72,1.72,0,0,1-.66-.27.53.53,0,0,1-.19-.43.57.57,0,0,1,.3-.49,1.55,1.55,0,0,1,1.29-.09.92.92,0,0,1,.36.28.93.93,0,0,1,.19.37l1.29-.14a1.94,1.94,0,0,0-.75-1.22,2.75,2.75,0,0,0-1.66-.45,3.31,3.31,0,0,0-1.27.23,2,2,0,0,0-.86.63,1.57,1.57,0,0,0-.3,1,1.54,1.54,0,0,0,.41,1.09,2.47,2.47,0,0,0,1.28.6l1,.22a1.29,1.29,0,0,1,.61.26.5.5,0,0,1,.2.42.59.59,0,0,1-.31.51,1.39,1.39,0,0,1-.81.21,1.36,1.36,0,0,1-.79-.21,1,1,0,0,1-.4-.61l-1.38.13a1.89,1.89,0,0,0,.81,1.3,3.09,3.09,0,0,0,1.77.46,3.29,3.29,0,0,0,1.33-.25,2.14,2.14,0,0,0,.9-.67,1.6,1.6,0,0,0,.33-1A1.37,1.37,0,0,0,400.93,170.92Z"></path><path class="cls-9" d="M45.27,207.94v10.91H46V207.94Zm3.24,6.41a2.23,2.23,0,0,0-.64-.69,3.64,3.64,0,0,0-.8-.43c-.28-.1-.54-.18-.76-.24L46,212.9l-.55-.15-.15,0-.38-.13a2.89,2.89,0,0,1-.56-.27,1.53,1.53,0,0,1-.43-.41,1.08,1.08,0,0,1-.17-.6,1.24,1.24,0,0,1,.24-.75,1.58,1.58,0,0,1,.67-.51,2.08,2.08,0,0,1,.63-.16,2.38,2.38,0,0,1,.39,0,1.56,1.56,0,0,1,.31,0,2.14,2.14,0,0,1,1,.34,1.34,1.34,0,0,1,.62,1h1a2,2,0,0,0-.41-1.18,2.51,2.51,0,0,0-1-.81,3.32,3.32,0,0,0-1.22-.3h-.28l-.42,0a3.51,3.51,0,0,0-1.09.29,2.6,2.6,0,0,0-1.07.85,2.1,2.1,0,0,0-.4,1.28,1.85,1.85,0,0,0,.6,1.43,4,4,0,0,0,1.62.84l.34.1.7.19h0a8.63,8.63,0,0,1,.86.3,1.89,1.89,0,0,1,.64.45,1,1,0,0,1,.24.7,1.37,1.37,0,0,1-.28.84,1.86,1.86,0,0,1-.77.55,2.71,2.71,0,0,1-.72.18l-.36,0-.34,0a2.62,2.62,0,0,1-.63-.14,1.81,1.81,0,0,1-.75-.47,1.41,1.41,0,0,1-.33-.82H42.47a2.45,2.45,0,0,0,.44,1.26,2.58,2.58,0,0,0,1.07.84,3.82,3.82,0,0,0,1.29.29H46a3.62,3.62,0,0,0,1.35-.32,2.54,2.54,0,0,0,1.07-.91,2.28,2.28,0,0,0,.37-1.28A2,2,0,0,0,48.51,214.35ZM55.86,211a3.14,3.14,0,0,0-1-1.53,2.73,2.73,0,0,0-3.26,0,3.21,3.21,0,0,0-1,1.53,8.31,8.31,0,0,0,0,4.84,3.2,3.2,0,0,0,1,1.53,2.8,2.8,0,0,0,3.28,0,3.28,3.28,0,0,0,1-1.53,7.22,7.22,0,0,0,.36-2.42A6.92,6.92,0,0,0,55.86,211Zm-1.18,5a1.66,1.66,0,0,1-1.49.92,1.56,1.56,0,0,1-1.08-.41,2.66,2.66,0,0,1-.69-1.21,6.7,6.7,0,0,1-.24-1.92,5.39,5.39,0,0,1,.53-2.63,1.64,1.64,0,0,1,1.48-.94,1.53,1.53,0,0,1,1.08.42,2.65,2.65,0,0,1,.69,1.22,6.73,6.73,0,0,1,.24,1.93A5.35,5.35,0,0,1,54.68,216Zm4.15.5a.76.76,0,1,0-.54,1.31.8.8,0,0,0,.38-.1.86.86,0,0,0,.28-.29.7.7,0,0,0,.11-.38A.74.74,0,0,0,58.83,216.52ZM66.06,211a3.28,3.28,0,0,0-1-1.53,2.54,2.54,0,0,0-1.63-.54,2.57,2.57,0,0,0-1.64.54,3.28,3.28,0,0,0-1,1.53,8.31,8.31,0,0,0,0,4.84,3.28,3.28,0,0,0,1,1.53,2.8,2.8,0,0,0,3.28,0,3.2,3.2,0,0,0,1-1.53,8.31,8.31,0,0,0,0-4.84Zm-1.19,5a1.64,1.64,0,0,1-1.48.92,1.57,1.57,0,0,1-1.09-.41,2.66,2.66,0,0,1-.69-1.21,7.11,7.11,0,0,1-.23-1.92,5.27,5.27,0,0,1,.53-2.63,1.63,1.63,0,0,1,1.48-.94,1.53,1.53,0,0,1,1.08.42,2.65,2.65,0,0,1,.69,1.22,6.73,6.73,0,0,1,.24,1.93A5.34,5.34,0,0,1,64.87,216Zm8.42-2.55a2.68,2.68,0,0,0-2.42-1.42,2.64,2.64,0,0,0-.84.14,2.29,2.29,0,0,0-.68.35h0l.31-2.57h3.65V209H68.72l-.53,4.3,1,.12a2.27,2.27,0,0,1,.7-.32,2.65,2.65,0,0,1,.82-.13,1.93,1.93,0,0,1,1,.27,1.79,1.79,0,0,1,.68.71,2,2,0,0,1,.26,1,2,2,0,0,1-.25,1,1.82,1.82,0,0,1-.66.69,1.77,1.77,0,0,1-1,.25,1.81,1.81,0,0,1-1.15-.38,1.41,1.41,0,0,1-.54-1h-1a2.19,2.19,0,0,0,.39,1.18,2.58,2.58,0,0,0,1,.82,3,3,0,0,0,1.35.3,2.91,2.91,0,0,0,1.48-.38,2.59,2.59,0,0,0,1-1,2.92,2.92,0,0,0,.38-1.49A3.12,3.12,0,0,0,73.29,213.47Z"></path><path class="cls-23" d="M165.27,207.94v10.91h.7V207.94Zm3.24,6.41a2.23,2.23,0,0,0-.64-.69,3.88,3.88,0,0,0-.8-.43c-.28-.1-.54-.18-.76-.24l-.34-.09-.55-.15-.15,0-.38-.13a2.89,2.89,0,0,1-.56-.27,1.53,1.53,0,0,1-.43-.41,1.08,1.08,0,0,1-.17-.6,1.24,1.24,0,0,1,.24-.75,1.58,1.58,0,0,1,.67-.51,2.08,2.08,0,0,1,.63-.16,2.38,2.38,0,0,1,.39,0,1.56,1.56,0,0,1,.31,0,2.14,2.14,0,0,1,1,.34,1.34,1.34,0,0,1,.62,1h1a2,2,0,0,0-.41-1.18,2.51,2.51,0,0,0-1-.81,3.32,3.32,0,0,0-1.22-.3h-.28l-.42,0a3.51,3.51,0,0,0-1.09.29,2.6,2.6,0,0,0-1.07.85,2.1,2.1,0,0,0-.4,1.28,1.85,1.85,0,0,0,.6,1.43,4.06,4.06,0,0,0,1.62.84l.34.1.7.19h0a8.63,8.63,0,0,1,.86.3,1.89,1.89,0,0,1,.64.45,1,1,0,0,1,.24.7,1.37,1.37,0,0,1-.28.84,1.86,1.86,0,0,1-.77.55,2.71,2.71,0,0,1-.72.18l-.36,0-.34,0a2.62,2.62,0,0,1-.63-.14,1.81,1.81,0,0,1-.75-.47,1.41,1.41,0,0,1-.33-.82h-1.09a2.45,2.45,0,0,0,.44,1.26,2.55,2.55,0,0,0,1.08.84,3.76,3.76,0,0,0,1.28.29h.7a3.62,3.62,0,0,0,1.35-.32,2.54,2.54,0,0,0,1.07-.91,2.28,2.28,0,0,0,.37-1.28A2,2,0,0,0,168.51,214.35ZM170,209V210h4.5V210l-3.9,7.72h1.11l3.88-7.74v-1Zm7,7.49a.76.76,0,1,0-.54,1.31.8.8,0,0,0,.38-.1.86.86,0,0,0,.28-.29.7.7,0,0,0,.11-.38A.74.74,0,0,0,177,216.52Zm7.09-3.05a2.68,2.68,0,0,0-2.42-1.42,2.64,2.64,0,0,0-.84.14,2.29,2.29,0,0,0-.68.35h0l.31-2.57h3.65V209h-4.54l-.53,4.3,1,.12a2.27,2.27,0,0,1,.7-.32,2.65,2.65,0,0,1,.82-.13,1.93,1.93,0,0,1,1,.27,1.79,1.79,0,0,1,.68.71,2,2,0,0,1,.25,1,2.08,2.08,0,0,1-.24,1,1.82,1.82,0,0,1-.66.69,1.93,1.93,0,0,1-2.1-.13,1.41,1.41,0,0,1-.54-1h-1a2.19,2.19,0,0,0,.39,1.18,2.58,2.58,0,0,0,1,.82,3,3,0,0,0,1.35.3,2.91,2.91,0,0,0,1.48-.38,2.66,2.66,0,0,0,1-1,2.92,2.92,0,0,0,.38-1.49A3.12,3.12,0,0,0,184.08,213.47Zm7.57-2.49a3.28,3.28,0,0,0-1-1.53,2.54,2.54,0,0,0-1.63-.54,2.57,2.57,0,0,0-1.64.54,3.28,3.28,0,0,0-1,1.53,8.31,8.31,0,0,0,0,4.84,3.28,3.28,0,0,0,1,1.53,2.8,2.8,0,0,0,3.28,0,3.27,3.27,0,0,0,1-1.53,8.31,8.31,0,0,0,0-4.84Zm-1.19,5a1.64,1.64,0,0,1-1.48.92,1.57,1.57,0,0,1-1.09-.41,2.66,2.66,0,0,1-.69-1.21,7.11,7.11,0,0,1-.23-1.92,5.27,5.27,0,0,1,.53-2.63,1.63,1.63,0,0,1,1.48-.94,1.53,1.53,0,0,1,1.08.42,2.65,2.65,0,0,1,.69,1.22,6.73,6.73,0,0,1,.24,1.93A5.34,5.34,0,0,1,190.46,216Z"></path><path class="cls-20" d="M321.77,212a.56.56,0,0,0-.67-.43.57.57,0,0,0-.43.68,6.21,6.21,0,1,1-4.65-4.66.56.56,0,1,0,.25-1.09,7.33,7.33,0,1,0,5.5,5.5Zm-.94-4h-.56v-.56a.56.56,0,0,0-.56-.57.57.57,0,0,0-.57.57V208h-.56a.56.56,0,1,0,0,1.12h.56v.57a.57.57,0,0,0,.57.56.56.56,0,0,0,.56-.56v-.57h.56a.56.56,0,1,0,0-1.12Z"></path><path class="cls-20" d="M311.79,210.78a.56.56,0,0,0-.56.56v4.13a.56.56,0,0,0,1.12,0v-4.13A.56.56,0,0,0,311.79,210.78Zm5.65.54a2.5,2.5,0,0,0-1.53-.54H314a.56.56,0,0,0-.56.56v4.13a.56.56,0,0,0,.56.56h1.87a2.7,2.7,0,0,0,1.53-4.71Zm-.7,3.3a1.46,1.46,0,0,1-.83.29H314.6v-3h1.31a1.39,1.39,0,0,1,.83.29,1.41,1.41,0,0,1,.49,1.21A1.43,1.43,0,0,1,316.74,214.62Z"></path><path class="cls-20" d="M346.22,209.59,345,208.33a1.31,1.31,0,0,0-1.85,0l-1.38,1.38,0,0,0,0-6.32,6.32a1.32,1.32,0,0,0-.38.92v2a.56.56,0,0,0,.56.56h2a1.32,1.32,0,0,0,.92-.38l6.34-6.33s0,0,0,0h0l1.39-1.39A1.31,1.31,0,0,0,346.22,209.59Zm-8.54,8.8a.18.18,0,0,1-.13.06H336.1V217a.18.18,0,0,1,.06-.13l5.94-5.94,1.52,1.52Zm7.74-7.74-1,1-1.52-1.52,1-1a.18.18,0,0,1,.27,0l1.25,1.25A.18.18,0,0,1,345.42,210.65Z"></path><path class="cls-20" d="M359.48,210a3.56,3.56,0,0,1,3.56-3.56h.75a.56.56,0,1,1,0,1.12H363A2.44,2.44,0,0,0,360.6,210v.75a.56.56,0,0,1-1.12,0Z"></path><path class="cls-20" d="M359.48,217.51a3.56,3.56,0,0,0,3.56,3.56h.75a.56.56,0,1,0,0-1.12H363a2.45,2.45,0,0,1-2.44-2.44v-.75a.56.56,0,0,0-1.12,0Z"></path><path class="cls-20" d="M374.1,217.51a3.56,3.56,0,0,1-3.56,3.56h-.75a.56.56,0,1,1,0-1.12h.75a2.44,2.44,0,0,0,2.44-2.44v-.75a.56.56,0,0,1,1.12,0Z"></path><path class="cls-20" d="M374.1,210a3.56,3.56,0,0,0-3.56-3.56h-.75a.56.56,0,1,0,0,1.12h.75A2.44,2.44,0,0,1,373,210v.75a.56.56,0,0,0,1.12,0Z"></path><path class="cls-20" d="M364.27,211.24a.57.57,0,0,1,.8,0l1.72,1.72,1.73-1.72a.56.56,0,0,1,.79.79l-1.72,1.73,1.72,1.72a.57.57,0,0,1,0,.8.56.56,0,0,1-.79,0l-1.73-1.73-1.72,1.73a.57.57,0,1,1-.8-.8l1.73-1.72L364.27,212A.56.56,0,0,1,364.27,211.24Z"></path><path class="cls-20" d="M395.79,206.44h-6a4.32,4.32,0,0,0-4.31,4.32v6a4.31,4.31,0,0,0,4.31,4.31h6a4.31,4.31,0,0,0,4.32-4.31v-6A4.32,4.32,0,0,0,395.79,206.44ZM399,216.76a3.19,3.19,0,0,1-3.19,3.19h-6a3.19,3.19,0,0,1-3.19-3.19v-6a3.19,3.19,0,0,1,3.19-3.19h6a3.19,3.19,0,0,1,3.19,3.19Z"></path><path class="cls-20" d="M390.27,211.24a.57.57,0,0,1,.8,0l1.72,1.72,1.73-1.72a.56.56,0,0,1,.79.79l-1.72,1.73,1.72,1.72a.57.57,0,0,1,0,.8.56.56,0,0,1-.79,0l-1.73-1.73-1.72,1.73a.57.57,0,1,1-.8-.8l1.73-1.72L390.27,212A.56.56,0,0,1,390.27,211.24Z"></path><rect class="cls-24" x="0.08" y="229.76" width="417.71" height="32"></rect><path class="cls-1" d="M45.27,239.94v10.91H46V239.94Zm3.24,6.41a2.23,2.23,0,0,0-.64-.69,3.64,3.64,0,0,0-.8-.43c-.28-.1-.54-.18-.76-.24L46,244.9l-.55-.15-.15,0-.38-.13a2.89,2.89,0,0,1-.56-.27,1.53,1.53,0,0,1-.43-.41,1.08,1.08,0,0,1-.17-.6,1.24,1.24,0,0,1,.24-.75,1.58,1.58,0,0,1,.67-.51,2.08,2.08,0,0,1,.63-.16,2.38,2.38,0,0,1,.39,0,1.56,1.56,0,0,1,.31,0,2.14,2.14,0,0,1,1,.34,1.34,1.34,0,0,1,.62,1h1a2,2,0,0,0-.41-1.18,2.51,2.51,0,0,0-1-.81,3.32,3.32,0,0,0-1.22-.3h-.28l-.42,0a3.51,3.51,0,0,0-1.09.29,2.6,2.6,0,0,0-1.07.85,2.1,2.1,0,0,0-.4,1.28,1.85,1.85,0,0,0,.6,1.43,4,4,0,0,0,1.62.84l.34.1.7.19h0a8.63,8.63,0,0,1,.86.3,1.89,1.89,0,0,1,.64.45,1,1,0,0,1,.24.7,1.37,1.37,0,0,1-.28.84,1.86,1.86,0,0,1-.77.55,2.71,2.71,0,0,1-.72.18l-.36,0-.34,0a2.62,2.62,0,0,1-.63-.14,1.81,1.81,0,0,1-.75-.47,1.41,1.41,0,0,1-.33-.82H42.47a2.45,2.45,0,0,0,.44,1.26,2.58,2.58,0,0,0,1.07.84,3.82,3.82,0,0,0,1.29.29H46a3.62,3.62,0,0,0,1.35-.32,2.54,2.54,0,0,0,1.07-.91,2.28,2.28,0,0,0,.37-1.28A2,2,0,0,0,48.51,246.35ZM55.86,243a3.14,3.14,0,0,0-1-1.53,2.73,2.73,0,0,0-3.26,0,3.21,3.21,0,0,0-1,1.53,8.31,8.31,0,0,0,0,4.84,3.2,3.2,0,0,0,1,1.53,2.8,2.8,0,0,0,3.28,0,3.28,3.28,0,0,0,1-1.53,7.22,7.22,0,0,0,.36-2.42A6.92,6.92,0,0,0,55.86,243Zm-1.18,5a1.66,1.66,0,0,1-1.49.92,1.56,1.56,0,0,1-1.08-.41,2.66,2.66,0,0,1-.69-1.21,6.7,6.7,0,0,1-.24-1.92,5.39,5.39,0,0,1,.53-2.63,1.64,1.64,0,0,1,1.48-.94,1.53,1.53,0,0,1,1.08.42,2.65,2.65,0,0,1,.69,1.22,6.73,6.73,0,0,1,.24,1.93A5.35,5.35,0,0,1,54.68,248Zm4.15.5a.76.76,0,1,0-.54,1.31.8.8,0,0,0,.38-.1.86.86,0,0,0,.28-.29.7.7,0,0,0,.11-.38A.74.74,0,0,0,58.83,248.52ZM66.06,243a3.28,3.28,0,0,0-1-1.53,2.54,2.54,0,0,0-1.63-.54,2.57,2.57,0,0,0-1.64.54,3.28,3.28,0,0,0-1,1.53,8.31,8.31,0,0,0,0,4.84,3.28,3.28,0,0,0,1,1.53,2.8,2.8,0,0,0,3.28,0,3.2,3.2,0,0,0,1-1.53,8.31,8.31,0,0,0,0-4.84Zm-1.19,5a1.64,1.64,0,0,1-1.48.92,1.57,1.57,0,0,1-1.09-.41,2.66,2.66,0,0,1-.69-1.21,7.11,7.11,0,0,1-.23-1.92,5.27,5.27,0,0,1,.53-2.63,1.63,1.63,0,0,1,1.48-.94,1.53,1.53,0,0,1,1.08.42,2.65,2.65,0,0,1,.69,1.22,6.73,6.73,0,0,1,.24,1.93A5.34,5.34,0,0,1,64.87,248Zm8.42-2.55a2.68,2.68,0,0,0-2.42-1.42,2.64,2.64,0,0,0-.84.14,2.29,2.29,0,0,0-.68.35h0l.31-2.57h3.65V241H68.72l-.53,4.3,1,.12a2.27,2.27,0,0,1,.7-.32,2.65,2.65,0,0,1,.82-.13,1.93,1.93,0,0,1,1,.27,1.79,1.79,0,0,1,.68.71,2,2,0,0,1,.26,1,2,2,0,0,1-.25,1,1.82,1.82,0,0,1-.66.69,1.77,1.77,0,0,1-1,.25,1.81,1.81,0,0,1-1.15-.38,1.41,1.41,0,0,1-.54-1h-1a2.19,2.19,0,0,0,.39,1.18,2.58,2.58,0,0,0,1,.82,3,3,0,0,0,1.35.3,2.91,2.91,0,0,0,1.48-.38,2.59,2.59,0,0,0,1-1,2.92,2.92,0,0,0,.38-1.49A3.12,3.12,0,0,0,73.29,245.47Z"></path><path class="cls-23" d="M165.27,239.94v10.91h.7V239.94Zm3.24,6.41a2.23,2.23,0,0,0-.64-.69,3.88,3.88,0,0,0-.8-.43c-.28-.1-.54-.18-.76-.24l-.34-.09-.55-.15-.15,0-.38-.13a2.89,2.89,0,0,1-.56-.27,1.53,1.53,0,0,1-.43-.41,1.08,1.08,0,0,1-.17-.6,1.24,1.24,0,0,1,.24-.75,1.58,1.58,0,0,1,.67-.51,2.08,2.08,0,0,1,.63-.16,2.38,2.38,0,0,1,.39,0,1.56,1.56,0,0,1,.31,0,2.14,2.14,0,0,1,1,.34,1.34,1.34,0,0,1,.62,1h1a2,2,0,0,0-.41-1.18,2.51,2.51,0,0,0-1-.81,3.32,3.32,0,0,0-1.22-.3h-.28l-.42,0a3.51,3.51,0,0,0-1.09.29,2.6,2.6,0,0,0-1.07.85,2.1,2.1,0,0,0-.4,1.28,1.85,1.85,0,0,0,.6,1.43,4.06,4.06,0,0,0,1.62.84l.34.1.7.19h0a8.63,8.63,0,0,1,.86.3,1.89,1.89,0,0,1,.64.45,1,1,0,0,1,.24.7,1.37,1.37,0,0,1-.28.84,1.86,1.86,0,0,1-.77.55,2.71,2.71,0,0,1-.72.18l-.36,0-.34,0a2.62,2.62,0,0,1-.63-.14,1.81,1.81,0,0,1-.75-.47,1.41,1.41,0,0,1-.33-.82h-1.09a2.45,2.45,0,0,0,.44,1.26,2.55,2.55,0,0,0,1.08.84,3.76,3.76,0,0,0,1.28.29h.7a3.62,3.62,0,0,0,1.35-.32,2.54,2.54,0,0,0,1.07-.91,2.28,2.28,0,0,0,.37-1.28A2,2,0,0,0,168.51,246.35Zm3.85-5.32-2.19,1.45v1.07l2.14-1.41h.05v7.62h1V241Zm8.81,4.44a2.68,2.68,0,0,0-2.42-1.42,2.64,2.64,0,0,0-.84.14,2.11,2.11,0,0,0-.67.35h-.05l.3-2.57h3.65V241h-4.53l-.53,4.3,1,.12a2.21,2.21,0,0,1,.69-.32,2.69,2.69,0,0,1,.82-.13,2,2,0,0,1,1,.27,1.86,1.86,0,0,1,.68.71,2.14,2.14,0,0,1,.25,1,2.08,2.08,0,0,1-.24,1,1.89,1.89,0,0,1-2.77.56,1.41,1.41,0,0,1-.54-1h-1a2.2,2.2,0,0,0,.4,1.18,2.48,2.48,0,0,0,1,.82,3,3,0,0,0,1.35.3,2.91,2.91,0,0,0,1.48-.38,2.68,2.68,0,0,0,1-1,2.92,2.92,0,0,0,.37-1.49A3.12,3.12,0,0,0,181.17,245.47Zm3,3.05a.75.75,0,0,0-1.08,0,.75.75,0,0,0,0,1.08.74.74,0,0,0,.54.23.8.8,0,0,0,.38-.1.86.86,0,0,0,.28-.29.7.7,0,0,0,.1-.38A.73.73,0,0,0,184.19,248.52Zm7.08-3.05a2.75,2.75,0,0,0-1-1,2.72,2.72,0,0,0-1.42-.38,2.66,2.66,0,0,0-.85.14,2.22,2.22,0,0,0-.67.35h-.05l.3-2.57h3.65V241h-4.53l-.53,4.3,1,.12a2.21,2.21,0,0,1,.69-.32,2.71,2.71,0,0,1,.83-.13,1.93,1.93,0,0,1,1,.27,1.86,1.86,0,0,1,.68.71,2,2,0,0,1,.25,1,2.08,2.08,0,0,1-.24,1,1.89,1.89,0,0,1-2.77.56,1.45,1.45,0,0,1-.54-1h-1a2.2,2.2,0,0,0,.4,1.18,2.48,2.48,0,0,0,1,.82,3.15,3.15,0,0,0,2.84-.08,2.73,2.73,0,0,0,1-1,2.92,2.92,0,0,0,.37-1.49A3.12,3.12,0,0,0,191.27,245.47ZM193,241V242h4.5V242l-3.9,7.72h1.11l3.88-7.74v-1Z"></path><path class="cls-17" d="M321.77,244a.56.56,0,0,0-.67-.43.57.57,0,0,0-.43.68,6.21,6.21,0,1,1-4.65-4.66.56.56,0,1,0,.25-1.09,7.33,7.33,0,1,0,5.5,5.5Zm-.94-4h-.56v-.56a.56.56,0,0,0-.56-.57.57.57,0,0,0-.57.57V240h-.56a.56.56,0,1,0,0,1.12h.56v.57a.57.57,0,0,0,.57.56.56.56,0,0,0,.56-.56v-.57h.56a.56.56,0,1,0,0-1.12Z"></path><path class="cls-17" d="M311.79,242.78a.56.56,0,0,0-.56.56v4.13a.56.56,0,0,0,1.12,0v-4.13A.56.56,0,0,0,311.79,242.78Zm5.65.54a2.5,2.5,0,0,0-1.53-.54H314a.56.56,0,0,0-.56.56v4.13a.56.56,0,0,0,.56.56h1.87a2.7,2.7,0,0,0,1.53-4.71Zm-.7,3.3a1.46,1.46,0,0,1-.83.29H314.6v-3h1.31a1.39,1.39,0,0,1,.83.29,1.41,1.41,0,0,1,.49,1.21A1.43,1.43,0,0,1,316.74,246.62Z"></path><path class="cls-17" d="M346.22,241.59,345,240.33a1.31,1.31,0,0,0-1.85,0l-1.38,1.38,0,0,0,0-6.32,6.32a1.32,1.32,0,0,0-.38.92v2a.56.56,0,0,0,.56.56h2a1.32,1.32,0,0,0,.92-.38l6.34-6.33s0,0,0,0h0l1.39-1.39A1.31,1.31,0,0,0,346.22,241.59Zm-8.54,8.8a.18.18,0,0,1-.13.06H336.1V249a.18.18,0,0,1,.06-.13l5.94-5.94,1.52,1.52Zm7.74-7.74-1,1-1.52-1.52,1-1a.18.18,0,0,1,.27,0l1.25,1.25A.18.18,0,0,1,345.42,242.65Z"></path><path class="cls-17" d="M359.48,242a3.56,3.56,0,0,1,3.56-3.56h.75a.56.56,0,1,1,0,1.12H363A2.44,2.44,0,0,0,360.6,242v.75a.56.56,0,0,1-1.12,0Z"></path><path class="cls-17" d="M359.48,249.51a3.56,3.56,0,0,0,3.56,3.56h.75a.56.56,0,1,0,0-1.12H363a2.45,2.45,0,0,1-2.44-2.44v-.75a.56.56,0,0,0-1.12,0Z"></path><path class="cls-17" d="M374.1,249.51a3.56,3.56,0,0,1-3.56,3.56h-.75a.56.56,0,1,1,0-1.12h.75a2.44,2.44,0,0,0,2.44-2.44v-.75a.56.56,0,0,1,1.12,0Z"></path><path class="cls-17" d="M374.1,242a3.56,3.56,0,0,0-3.56-3.56h-.75a.56.56,0,1,0,0,1.12h.75A2.44,2.44,0,0,1,373,242v.75a.56.56,0,0,0,1.12,0Z"></path><path class="cls-17" d="M364.27,243.24a.57.57,0,0,1,.8,0l1.72,1.72,1.73-1.72a.56.56,0,0,1,.79.79l-1.72,1.73,1.72,1.72a.57.57,0,0,1,0,.8.56.56,0,0,1-.79,0l-1.73-1.73-1.72,1.73a.57.57,0,1,1-.8-.8l1.73-1.72L364.27,244A.56.56,0,0,1,364.27,243.24Z"></path><path class="cls-17" d="M395.79,238.44h-6a4.32,4.32,0,0,0-4.31,4.32v6a4.31,4.31,0,0,0,4.31,4.31h6a4.31,4.31,0,0,0,4.32-4.31v-6A4.32,4.32,0,0,0,395.79,238.44ZM399,248.76a3.19,3.19,0,0,1-3.19,3.19h-6a3.19,3.19,0,0,1-3.19-3.19v-6a3.19,3.19,0,0,1,3.19-3.19h6a3.19,3.19,0,0,1,3.19,3.19Z"></path><path class="cls-17" d="M390.27,243.24a.57.57,0,0,1,.8,0l1.72,1.72,1.73-1.72a.56.56,0,0,1,.79.79l-1.72,1.73,1.72,1.72a.57.57,0,0,1,0,.8.56.56,0,0,1-.79,0l-1.73-1.73-1.72,1.73a.57.57,0,1,1-.8-.8l1.73-1.72L390.27,244A.56.56,0,0,1,390.27,243.24Z"></path><path class="cls-9" d="M45.27,271.94v10.91H46V271.94Zm3.24,6.41a2.23,2.23,0,0,0-.64-.69,3.64,3.64,0,0,0-.8-.43c-.28-.1-.54-.18-.76-.24L46,276.9l-.55-.15-.15,0-.38-.13a2.89,2.89,0,0,1-.56-.27,1.53,1.53,0,0,1-.43-.41,1.08,1.08,0,0,1-.17-.6,1.24,1.24,0,0,1,.24-.75,1.58,1.58,0,0,1,.67-.51,2.08,2.08,0,0,1,.63-.16,2.38,2.38,0,0,1,.39,0,1.56,1.56,0,0,1,.31,0,2.14,2.14,0,0,1,1,.34,1.34,1.34,0,0,1,.62,1h1a2,2,0,0,0-.41-1.18,2.51,2.51,0,0,0-1-.81,3.32,3.32,0,0,0-1.22-.3h-.28l-.42,0a3.51,3.51,0,0,0-1.09.29,2.6,2.6,0,0,0-1.07.85,2.1,2.1,0,0,0-.4,1.28,1.85,1.85,0,0,0,.6,1.43,4,4,0,0,0,1.62.84l.34.1.7.19h0a8.63,8.63,0,0,1,.86.3,1.89,1.89,0,0,1,.64.45,1,1,0,0,1,.24.7,1.37,1.37,0,0,1-.28.84,1.86,1.86,0,0,1-.77.55,2.71,2.71,0,0,1-.72.18l-.36,0-.34,0a2.62,2.62,0,0,1-.63-.14,1.81,1.81,0,0,1-.75-.47,1.41,1.41,0,0,1-.33-.82H42.47a2.45,2.45,0,0,0,.44,1.26,2.58,2.58,0,0,0,1.07.84,3.82,3.82,0,0,0,1.29.29H46a3.62,3.62,0,0,0,1.35-.32,2.54,2.54,0,0,0,1.07-.91,2.28,2.28,0,0,0,.37-1.28A2,2,0,0,0,48.51,278.35ZM55.86,275a3.14,3.14,0,0,0-1-1.53,2.73,2.73,0,0,0-3.26,0,3.21,3.21,0,0,0-1,1.53,8.31,8.31,0,0,0,0,4.84,3.2,3.2,0,0,0,1,1.53,2.8,2.8,0,0,0,3.28,0,3.28,3.28,0,0,0,1-1.53,7.22,7.22,0,0,0,.36-2.42A6.92,6.92,0,0,0,55.86,275Zm-1.18,5a1.66,1.66,0,0,1-1.49.92,1.56,1.56,0,0,1-1.08-.41,2.66,2.66,0,0,1-.69-1.21,6.7,6.7,0,0,1-.24-1.92,5.39,5.39,0,0,1,.53-2.63,1.64,1.64,0,0,1,1.48-.94,1.53,1.53,0,0,1,1.08.42,2.65,2.65,0,0,1,.69,1.22,6.73,6.73,0,0,1,.24,1.93A5.35,5.35,0,0,1,54.68,280Zm4.15.5a.76.76,0,1,0-.54,1.31.8.8,0,0,0,.38-.1.86.86,0,0,0,.28-.29.7.7,0,0,0,.11-.38A.74.74,0,0,0,58.83,280.52Zm3.46.3v-.07l2-2.09a17.3,17.3,0,0,0,1.18-1.37,4.08,4.08,0,0,0,.59-1,2.62,2.62,0,0,0,.18-.95,2.25,2.25,0,0,0-.34-1.22,2.3,2.3,0,0,0-.93-.87,2.74,2.74,0,0,0-1.36-.33,2.83,2.83,0,0,0-1.37.33,2.4,2.4,0,0,0-1,.9,2.61,2.61,0,0,0-.35,1.35h1a1.7,1.7,0,0,1,.2-.87,1.39,1.39,0,0,1,.57-.58,1.76,1.76,0,0,1,.88-.21,1.83,1.83,0,0,1,.85.19,1.44,1.44,0,0,1,.6.52,1.38,1.38,0,0,1,.22.79,1.83,1.83,0,0,1-.16.77,3.93,3.93,0,0,1-.49.78c-.22.27-.5.59-.83,1L60.85,281v.77h5.5v-.94Zm11.26-3.37a2.75,2.75,0,0,0-1-1,2.58,2.58,0,0,0-1.37-.37,2.66,2.66,0,0,0-.85.14,2.47,2.47,0,0,0-.73.4,2.6,2.6,0,0,0-.57.62H69a4.57,4.57,0,0,1,.59-2.48,1.82,1.82,0,0,1,1.6-.88,1.54,1.54,0,0,1,1.1.39,2,2,0,0,1,.57,1h1a2.92,2.92,0,0,0-.47-1.19,2.45,2.45,0,0,0-.94-.81,2.94,2.94,0,0,0-2.63,0,3,3,0,0,0-1,.94,4.87,4.87,0,0,0-.63,1.51,9,9,0,0,0-.22,2.06,6.43,6.43,0,0,0,.27,2A3.44,3.44,0,0,0,69,281a2.66,2.66,0,0,0,1,.66,3.45,3.45,0,0,0,1.08.21,2.9,2.9,0,0,0,1.53-.38,2.76,2.76,0,0,0,1-1.07,3.09,3.09,0,0,0,.36-1.48A3,3,0,0,0,73.55,277.45Zm-.9,2.5a2,2,0,0,1-.68.72,1.85,1.85,0,0,1-1.94,0,1.93,1.93,0,0,1-.67-.72,2.09,2.09,0,0,1-.24-1,1.85,1.85,0,0,1,.15-.74,2.06,2.06,0,0,1,.41-.64,1.88,1.88,0,0,1,.61-.43A1.71,1.71,0,0,1,71,277a1.73,1.73,0,0,1,1,.26,1.88,1.88,0,0,1,.66.71,2.07,2.07,0,0,1,.24,1A2,2,0,0,1,72.65,280Z"></path><path class="cls-25" d="M162.64,276.93v.93h3.82v-.93Zm8.15-5v10.91h.7V271.94Zm3.24,6.41a2.23,2.23,0,0,0-.64-.69,3.49,3.49,0,0,0-.81-.43c-.27-.1-.53-.18-.75-.24l-.34-.09-.55-.15-.15,0-.38-.13a2.89,2.89,0,0,1-.56-.27,1.53,1.53,0,0,1-.43-.41,1.08,1.08,0,0,1-.17-.6,1.24,1.24,0,0,1,.24-.75,1.55,1.55,0,0,1,.68-.51,2,2,0,0,1,.62-.16,2.38,2.38,0,0,1,.39,0,1.56,1.56,0,0,1,.31,0,2.14,2.14,0,0,1,1,.34,1.34,1.34,0,0,1,.62,1h1a2,2,0,0,0-.41-1.18,2.51,2.51,0,0,0-1-.81,3.32,3.32,0,0,0-1.22-.3h-.28l-.42,0a3.51,3.51,0,0,0-1.09.29,2.6,2.6,0,0,0-1.07.85,2.1,2.1,0,0,0-.4,1.28,1.85,1.85,0,0,0,.6,1.43,4,4,0,0,0,1.62.84l.34.1.7.19h0a8.63,8.63,0,0,1,.86.3,1.89,1.89,0,0,1,.64.45,1,1,0,0,1,.24.7,1.31,1.31,0,0,1-.28.84,1.93,1.93,0,0,1-.77.55,2.71,2.71,0,0,1-.72.18l-.36,0-.34,0a2.62,2.62,0,0,1-.63-.14,1.81,1.81,0,0,1-.75-.47,1.41,1.41,0,0,1-.33-.82H168a2.45,2.45,0,0,0,.44,1.26,2.58,2.58,0,0,0,1.07.84,3.82,3.82,0,0,0,1.29.29h.7a3.62,3.62,0,0,0,1.35-.32,2.54,2.54,0,0,0,1.07-.91,2.28,2.28,0,0,0,.37-1.28A2,2,0,0,0,174,278.35Zm7.27-.35a2,2,0,0,0-1.29-.71v-.06a2,2,0,0,0,1-.72,2.05,2.05,0,0,0,.39-1.26,2.3,2.3,0,0,0-.31-1.15,2.37,2.37,0,0,0-.89-.86,2.78,2.78,0,0,0-1.39-.33,3.32,3.32,0,0,0-1.39.29,2.79,2.79,0,0,0-1,.81,2,2,0,0,0-.41,1.2h1a1.2,1.2,0,0,1,.27-.74A1.73,1.73,0,0,1,178,274a2.22,2.22,0,0,1,.85-.17,1.74,1.74,0,0,1,.84.19,1.29,1.29,0,0,1,.55.51,1.47,1.47,0,0,1,.2.77,1.42,1.42,0,0,1-.23.8,1.47,1.47,0,0,1-.62.53,2.14,2.14,0,0,1-.91.19H178v.93h.7a2.75,2.75,0,0,1,1.13.21,1.69,1.69,0,0,1,.7.58,1.61,1.61,0,0,1,.23.85,1.38,1.38,0,0,1-.24.81,1.81,1.81,0,0,1-.69.55,2.4,2.4,0,0,1-1,.19,2.47,2.47,0,0,1-.92-.16,1.84,1.84,0,0,1-.67-.47,1.28,1.28,0,0,1-.29-.73h-1.07a2.07,2.07,0,0,0,.42,1.2,2.43,2.43,0,0,0,1,.81,3.75,3.75,0,0,0,1.5.29,3.4,3.4,0,0,0,1.52-.33,2.67,2.67,0,0,0,1-.88,2.29,2.29,0,0,0,.38-1.28A2.1,2.1,0,0,0,181.3,278Zm3.23,2.52a.74.74,0,0,0-.54-.23.78.78,0,0,0-.55.23.77.77,0,0,0,0,1.08.78.78,0,0,0,.55.23.8.8,0,0,0,.38-.1.86.86,0,0,0,.28-.29.7.7,0,0,0,.1-.38A.73.73,0,0,0,184.53,280.52Zm2.95-1.49V279l2.9-4.58h.42V273h-.63l-3.83,6.07V280h6.3V279Zm3-6v8.73h1V273Zm5.25,7.79v-.07l2-2.09a16.87,16.87,0,0,0,1.17-1.37,4.15,4.15,0,0,0,.6-1,2.84,2.84,0,0,0,.17-.95,2.33,2.33,0,0,0-.33-1.22,2.43,2.43,0,0,0-.93-.87,2.77,2.77,0,0,0-1.36-.33,2.87,2.87,0,0,0-1.38.33,2.38,2.38,0,0,0-1,.9,2.52,2.52,0,0,0-.36,1.35h1a1.8,1.8,0,0,1,.2-.87,1.47,1.47,0,0,1,.58-.58,1.75,1.75,0,0,1,.87-.21,1.87,1.87,0,0,1,.86.19,1.36,1.36,0,0,1,.59.52,1.38,1.38,0,0,1,.22.79,1.83,1.83,0,0,1-.16.77,3.84,3.84,0,0,1-.48.78q-.33.4-.84,1L194.24,281v.77h5.51v-.94Z"></path><path class="cls-20" d="M321.77,276a.55.55,0,0,0-.67-.42.55.55,0,0,0-.43.67,6.21,6.21,0,1,1-4.65-4.66.56.56,0,1,0,.25-1.09,7.33,7.33,0,1,0,5.5,5.5Zm-.94-4h-.56v-.56a.56.56,0,0,0-.56-.57.57.57,0,0,0-.57.57V272h-.56a.56.56,0,1,0,0,1.12h.56v.57a.57.57,0,0,0,.57.56.56.56,0,0,0,.56-.56v-.57h.56a.56.56,0,1,0,0-1.12Z"></path><path class="cls-20" d="M311.79,274.78a.56.56,0,0,0-.56.56v4.13a.56.56,0,0,0,1.12,0v-4.13A.56.56,0,0,0,311.79,274.78Zm5.65.54a2.5,2.5,0,0,0-1.53-.54H314a.56.56,0,0,0-.56.56v4.13a.56.56,0,0,0,.56.56h1.87a2.7,2.7,0,0,0,1.53-4.71Zm-.7,3.3a1.46,1.46,0,0,1-.83.29H314.6v-3h1.31a1.39,1.39,0,0,1,.83.29,1.41,1.41,0,0,1,.49,1.21A1.43,1.43,0,0,1,316.74,278.62Z"></path><path class="cls-20" d="M346.22,273.59,345,272.33a1.31,1.31,0,0,0-1.85,0l-1.38,1.38,0,0,0,0-6.32,6.32a1.32,1.32,0,0,0-.38.92v2a.56.56,0,0,0,.56.56h2a1.32,1.32,0,0,0,.92-.38l6.34-6.33v0h0l1.39-1.39A1.31,1.31,0,0,0,346.22,273.59Zm-8.54,8.8a.18.18,0,0,1-.13.06H336.1V281a.18.18,0,0,1,.06-.13l5.94-5.94,1.52,1.52Zm7.74-7.74-1,1-1.52-1.52,1-1a.18.18,0,0,1,.27,0l1.25,1.25A.18.18,0,0,1,345.42,274.65Z"></path><path class="cls-20" d="M359.48,274a3.56,3.56,0,0,1,3.56-3.56h.75a.56.56,0,1,1,0,1.12H363A2.44,2.44,0,0,0,360.6,274v.75a.56.56,0,0,1-1.12,0Z"></path><path class="cls-20" d="M359.48,281.51a3.56,3.56,0,0,0,3.56,3.56h.75a.56.56,0,1,0,0-1.12H363a2.45,2.45,0,0,1-2.44-2.44v-.75a.56.56,0,0,0-1.12,0Z"></path><path class="cls-20" d="M374.1,281.51a3.56,3.56,0,0,1-3.56,3.56h-.75a.56.56,0,1,1,0-1.12h.75a2.44,2.44,0,0,0,2.44-2.44v-.75a.56.56,0,0,1,1.12,0Z"></path><path class="cls-20" d="M374.1,274a3.56,3.56,0,0,0-3.56-3.56h-.75a.56.56,0,1,0,0,1.12h.75A2.44,2.44,0,0,1,373,274v.75a.56.56,0,0,0,1.12,0Z"></path><path class="cls-20" d="M364.27,275.24a.57.57,0,0,1,.8,0l1.72,1.72,1.73-1.72a.56.56,0,0,1,.79.79l-1.72,1.73,1.72,1.72a.57.57,0,0,1,0,.8.56.56,0,0,1-.79,0l-1.73-1.73-1.72,1.73a.57.57,0,1,1-.8-.8l1.73-1.72L364.27,276A.56.56,0,0,1,364.27,275.24Z"></path><path class="cls-20" d="M395.79,270.44h-6a4.32,4.32,0,0,0-4.31,4.32v6a4.31,4.31,0,0,0,4.31,4.31h6a4.31,4.31,0,0,0,4.32-4.31v-6A4.32,4.32,0,0,0,395.79,270.44ZM399,280.76a3.19,3.19,0,0,1-3.19,3.19h-6a3.19,3.19,0,0,1-3.19-3.19v-6a3.19,3.19,0,0,1,3.19-3.19h6a3.19,3.19,0,0,1,3.19,3.19Z"></path><path class="cls-20" d="M390.27,275.24a.57.57,0,0,1,.8,0l1.72,1.72,1.73-1.72a.56.56,0,0,1,.79.79l-1.72,1.73,1.72,1.72a.57.57,0,0,1,0,.8.56.56,0,0,1-.79,0l-1.73-1.73-1.72,1.73a.57.57,0,1,1-.8-.8l1.73-1.72L390.27,276A.56.56,0,0,1,390.27,275.24Z"></path><path class="cls-9" d="M45.27,303.94v10.91H46V303.94Zm3.24,6.41a2.23,2.23,0,0,0-.64-.69,3.64,3.64,0,0,0-.8-.43c-.28-.1-.54-.18-.76-.24L46,308.9l-.55-.15-.15,0-.38-.13a2.89,2.89,0,0,1-.56-.27,1.53,1.53,0,0,1-.43-.41,1.08,1.08,0,0,1-.17-.6,1.24,1.24,0,0,1,.24-.75,1.58,1.58,0,0,1,.67-.51,2.08,2.08,0,0,1,.63-.16,2.38,2.38,0,0,1,.39,0,1.56,1.56,0,0,1,.31,0,2.14,2.14,0,0,1,1,.34,1.34,1.34,0,0,1,.62,1h1a2,2,0,0,0-.41-1.18,2.51,2.51,0,0,0-1-.81,3.32,3.32,0,0,0-1.22-.3h-.28l-.42,0a3.51,3.51,0,0,0-1.09.29,2.6,2.6,0,0,0-1.07.85,2.1,2.1,0,0,0-.4,1.28,1.85,1.85,0,0,0,.6,1.43,4,4,0,0,0,1.62.84l.34.1.7.19h0a8.63,8.63,0,0,1,.86.3,1.89,1.89,0,0,1,.64.45,1,1,0,0,1,.24.7,1.37,1.37,0,0,1-.28.84,1.86,1.86,0,0,1-.77.55,2.71,2.71,0,0,1-.72.18l-.36,0-.34,0a2.62,2.62,0,0,1-.63-.14,1.81,1.81,0,0,1-.75-.47,1.41,1.41,0,0,1-.33-.82H42.47a2.45,2.45,0,0,0,.44,1.26,2.58,2.58,0,0,0,1.07.84,3.82,3.82,0,0,0,1.29.29H46a3.62,3.62,0,0,0,1.35-.32,2.54,2.54,0,0,0,1.07-.91,2.28,2.28,0,0,0,.37-1.28A2,2,0,0,0,48.51,310.35ZM52.36,305l-2.18,1.45v1.07l2.13-1.41h0v7.62h1V305Zm4.34,7.49a.76.76,0,1,0-.54,1.31.8.8,0,0,0,.38-.1.86.86,0,0,0,.28-.29.7.7,0,0,0,.11-.38A.74.74,0,0,0,56.7,312.52ZM63.82,310a2,2,0,0,0-1.29-.71v-.06a2,2,0,0,0,1-.72,2.05,2.05,0,0,0,.39-1.26,2.3,2.3,0,0,0-.31-1.15,2.37,2.37,0,0,0-.89-.86,2.78,2.78,0,0,0-1.39-.33,3.32,3.32,0,0,0-1.39.29,2.79,2.79,0,0,0-1,.81,2,2,0,0,0-.41,1.2h1a1.2,1.2,0,0,1,.27-.74,1.65,1.65,0,0,1,.65-.47,2.22,2.22,0,0,1,.85-.17,1.74,1.74,0,0,1,.84.19,1.35,1.35,0,0,1,.55.51,1.47,1.47,0,0,1,.2.77,1.42,1.42,0,0,1-.23.8,1.47,1.47,0,0,1-.62.53,2.14,2.14,0,0,1-.91.19h-.7v.93h.7a2.75,2.75,0,0,1,1.13.21,1.65,1.65,0,0,1,.69.58,1.53,1.53,0,0,1,.24.85,1.38,1.38,0,0,1-.24.81,1.81,1.81,0,0,1-.69.55,2.4,2.4,0,0,1-1,.19,2.47,2.47,0,0,1-.92-.16,1.76,1.76,0,0,1-.67-.47,1.28,1.28,0,0,1-.29-.73H58.37a2.07,2.07,0,0,0,.42,1.2,2.43,2.43,0,0,0,1,.81,3.75,3.75,0,0,0,1.5.29,3.4,3.4,0,0,0,1.52-.33,2.57,2.57,0,0,0,1-.88,2.22,2.22,0,0,0,.39-1.28A2.1,2.1,0,0,0,63.82,310Zm7.45-.53a2.68,2.68,0,0,0-2.42-1.42,2.64,2.64,0,0,0-.84.14,2.22,2.22,0,0,0-.67.35h0l.3-2.57h3.65V305H66.71l-.53,4.3,1,.12a2.21,2.21,0,0,1,.69-.32,2.69,2.69,0,0,1,.82-.13,1.94,1.94,0,0,1,1,.27,1.86,1.86,0,0,1,.68.71,2,2,0,0,1,.25,1,2.08,2.08,0,0,1-.24,1,1.89,1.89,0,0,1-2.77.56,1.36,1.36,0,0,1-.53-1H66a2.28,2.28,0,0,0,.4,1.18,2.48,2.48,0,0,0,1,.82,3.15,3.15,0,0,0,2.84-.08,2.73,2.73,0,0,0,1-1,2.92,2.92,0,0,0,.37-1.49A3.12,3.12,0,0,0,71.27,309.47Z"></path><path class="cls-25" d="M162.64,308.93v.93h3.82v-.93Zm8.15-5v10.91h.7V303.94Zm3.24,6.41a2.23,2.23,0,0,0-.64-.69,3.49,3.49,0,0,0-.81-.43c-.27-.1-.53-.18-.75-.24l-.34-.09-.55-.15-.15,0-.38-.13a2.89,2.89,0,0,1-.56-.27,1.53,1.53,0,0,1-.43-.41,1.08,1.08,0,0,1-.17-.6,1.24,1.24,0,0,1,.24-.75,1.55,1.55,0,0,1,.68-.51,2,2,0,0,1,.62-.16,2.38,2.38,0,0,1,.39,0,1.56,1.56,0,0,1,.31,0,2.14,2.14,0,0,1,1,.34,1.34,1.34,0,0,1,.62,1h1a2,2,0,0,0-.41-1.18,2.51,2.51,0,0,0-1-.81,3.32,3.32,0,0,0-1.22-.3h-.28l-.42,0a3.51,3.51,0,0,0-1.09.29,2.6,2.6,0,0,0-1.07.85,2.1,2.1,0,0,0-.4,1.28,1.85,1.85,0,0,0,.6,1.43,4,4,0,0,0,1.62.84l.34.1.7.19h0a8.63,8.63,0,0,1,.86.3,1.89,1.89,0,0,1,.64.45,1,1,0,0,1,.24.7,1.31,1.31,0,0,1-.28.84,1.93,1.93,0,0,1-.77.55,2.71,2.71,0,0,1-.72.18l-.36,0-.34,0a2.62,2.62,0,0,1-.63-.14,1.81,1.81,0,0,1-.75-.47,1.41,1.41,0,0,1-.33-.82H168a2.45,2.45,0,0,0,.44,1.26,2.58,2.58,0,0,0,1.07.84,3.82,3.82,0,0,0,1.29.29h.7a3.62,3.62,0,0,0,1.35-.32,2.54,2.54,0,0,0,1.07-.91,2.28,2.28,0,0,0,.37-1.28A2,2,0,0,0,174,310.35Zm3.28,2.47v-.07l2-2.09a17.3,17.3,0,0,0,1.18-1.37,4.08,4.08,0,0,0,.59-1,2.62,2.62,0,0,0,.18-.95,2.25,2.25,0,0,0-.34-1.22,2.3,2.3,0,0,0-.93-.87,2.74,2.74,0,0,0-1.36-.33,2.83,2.83,0,0,0-1.37.33,2.4,2.4,0,0,0-1,.9,2.61,2.61,0,0,0-.35,1.35h1a1.7,1.7,0,0,1,.2-.87,1.39,1.39,0,0,1,.57-.58,1.76,1.76,0,0,1,.88-.21,1.83,1.83,0,0,1,.85.19,1.44,1.44,0,0,1,.6.52,1.38,1.38,0,0,1,.22.79,2,2,0,0,1-.16.77,3.93,3.93,0,0,1-.49.78c-.22.27-.5.59-.83,1L175.86,313v.77h5.51v-.94Zm6.57-1.79V311l2.9-4.58h.42V305h-.63l-3.83,6.07V312h6.31V311Zm3-6v8.73h1V305Zm4.67,7.49a.75.75,0,0,0-1.08,0,.77.77,0,0,0,0,1.08.74.74,0,0,0,.54.23.71.71,0,0,0,.66-.39.7.7,0,0,0,.11-.38A.74.74,0,0,0,191.52,312.52Zm7.09-3a2.68,2.68,0,0,0-2.42-1.42,2.64,2.64,0,0,0-.84.14,2.29,2.29,0,0,0-.68.35h0l.31-2.57h3.65V305H194l-.52,4.3,1,.12a2.39,2.39,0,0,1,.7-.32A2.65,2.65,0,0,1,196,309a1.93,1.93,0,0,1,1,.27,1.79,1.79,0,0,1,.68.71,2,2,0,0,1,.26,1,2,2,0,0,1-.25,1,1.78,1.78,0,0,1-1.61.94,1.81,1.81,0,0,1-1.15-.38,1.41,1.41,0,0,1-.54-1h-1a2.12,2.12,0,0,0,.4,1.18,2.48,2.48,0,0,0,1,.82,3,3,0,0,0,1.35.3,2.91,2.91,0,0,0,1.48-.38,2.59,2.59,0,0,0,1-1A2.92,2.92,0,0,0,199,311,3.12,3.12,0,0,0,198.61,309.47Zm7.48.53a2,2,0,0,0-1.29-.71v-.06a2,2,0,0,0,1.44-2,2.32,2.32,0,0,0-1.21-2,2.72,2.72,0,0,0-1.39-.33,3.31,3.31,0,0,0-1.38.29,2.63,2.63,0,0,0-1,.81,2.12,2.12,0,0,0-.42,1.2h1a1.2,1.2,0,0,1,.27-.74,1.65,1.65,0,0,1,.65-.47,2.19,2.19,0,0,1,.85-.17,1.67,1.67,0,0,1,.83.19,1.32,1.32,0,0,1,.56.51,1.47,1.47,0,0,1,.19.77,1.41,1.41,0,0,1-.22.8,1.53,1.53,0,0,1-.62.53,2.17,2.17,0,0,1-.91.19h-.7v.93h.7a2.67,2.67,0,0,1,1.12.21,1.62,1.62,0,0,1,.7.58,1.53,1.53,0,0,1,.24.85,1.32,1.32,0,0,1-.25.81,1.71,1.71,0,0,1-.68.55,2.7,2.7,0,0,1-1.91,0,1.76,1.76,0,0,1-.67-.47,1.28,1.28,0,0,1-.29-.73h-1.08a2.22,2.22,0,0,0,.42,1.2,2.52,2.52,0,0,0,1.05.81,3.75,3.75,0,0,0,1.5.29,3.32,3.32,0,0,0,1.51-.33,2.54,2.54,0,0,0,1-.88,2.22,2.22,0,0,0,.39-1.28A2.05,2.05,0,0,0,206.09,310Z"></path><path class="cls-20" d="M321.77,308a.55.55,0,0,0-.67-.42.55.55,0,0,0-.43.67,6.21,6.21,0,1,1-4.65-4.66.56.56,0,1,0,.25-1.09,7.33,7.33,0,1,0,5.5,5.5Zm-.94-4h-.56v-.56a.56.56,0,0,0-.56-.57.57.57,0,0,0-.57.57V304h-.56a.56.56,0,1,0,0,1.12h.56v.57a.57.57,0,0,0,.57.56.56.56,0,0,0,.56-.56v-.57h.56a.56.56,0,1,0,0-1.12Z"></path><path class="cls-20" d="M311.79,306.78a.56.56,0,0,0-.56.56v4.13a.56.56,0,0,0,1.12,0v-4.13A.56.56,0,0,0,311.79,306.78Zm5.65.54a2.5,2.5,0,0,0-1.53-.54H314a.56.56,0,0,0-.56.56v4.13a.56.56,0,0,0,.56.56h1.87a2.7,2.7,0,0,0,1.53-4.71Zm-.7,3.3a1.46,1.46,0,0,1-.83.29H314.6v-3h1.31a1.39,1.39,0,0,1,.83.29,1.41,1.41,0,0,1,.49,1.21A1.43,1.43,0,0,1,316.74,310.62Z"></path><path class="cls-20" d="M346.22,305.59,345,304.33a1.31,1.31,0,0,0-1.85,0l-1.38,1.38,0,0,0,0-6.32,6.32a1.32,1.32,0,0,0-.38.92v2a.56.56,0,0,0,.56.56h2a1.32,1.32,0,0,0,.92-.38l6.34-6.33v0h0l1.39-1.39A1.31,1.31,0,0,0,346.22,305.59Zm-8.54,8.8a.18.18,0,0,1-.13.06H336.1V313a.18.18,0,0,1,.06-.13l5.94-5.94,1.52,1.52Zm7.74-7.74-1,1-1.52-1.52,1-1a.18.18,0,0,1,.27,0l1.25,1.25A.18.18,0,0,1,345.42,306.65Z"></path><path class="cls-20" d="M359.48,306a3.56,3.56,0,0,1,3.56-3.56h.75a.56.56,0,1,1,0,1.12H363A2.44,2.44,0,0,0,360.6,306v.75a.56.56,0,0,1-1.12,0Z"></path><path class="cls-20" d="M359.48,313.51a3.56,3.56,0,0,0,3.56,3.56h.75a.56.56,0,1,0,0-1.12H363a2.45,2.45,0,0,1-2.44-2.44v-.75a.56.56,0,0,0-1.12,0Z"></path><path class="cls-20" d="M374.1,313.51a3.56,3.56,0,0,1-3.56,3.56h-.75a.56.56,0,1,1,0-1.12h.75a2.44,2.44,0,0,0,2.44-2.44v-.75a.56.56,0,0,1,1.12,0Z"></path><path class="cls-20" d="M374.1,306a3.56,3.56,0,0,0-3.56-3.56h-.75a.56.56,0,1,0,0,1.12h.75A2.44,2.44,0,0,1,373,306v.75a.56.56,0,0,0,1.12,0Z"></path><path class="cls-20" d="M364.27,307.24a.57.57,0,0,1,.8,0l1.72,1.72,1.73-1.72a.56.56,0,0,1,.79.79l-1.72,1.73,1.72,1.72a.57.57,0,0,1,0,.8.56.56,0,0,1-.79,0l-1.73-1.73-1.72,1.73a.57.57,0,1,1-.8-.8l1.73-1.72L364.27,308A.56.56,0,0,1,364.27,307.24Z"></path><path class="cls-20" d="M395.79,302.44h-6a4.32,4.32,0,0,0-4.31,4.32v6a4.31,4.31,0,0,0,4.31,4.31h6a4.31,4.31,0,0,0,4.32-4.31v-6A4.32,4.32,0,0,0,395.79,302.44ZM399,312.76a3.19,3.19,0,0,1-3.19,3.19h-6a3.19,3.19,0,0,1-3.19-3.19v-6a3.19,3.19,0,0,1,3.19-3.19h6a3.19,3.19,0,0,1,3.19,3.19Z"></path><path class="cls-20" d="M390.27,307.24a.57.57,0,0,1,.8,0l1.72,1.72,1.73-1.72a.56.56,0,0,1,.79.79l-1.72,1.73,1.72,1.72a.57.57,0,0,1,0,.8.56.56,0,0,1-.79,0l-1.73-1.73-1.72,1.73a.57.57,0,1,1-.8-.8l1.73-1.72L390.27,308A.56.56,0,0,1,390.27,307.24Z"></path></g></g><path class="cls-26" d="M134.79,88a11.27,11.27,0,0,1,11.27-11.26H375.53A11.26,11.26,0,0,1,386.79,88V212.49a11.27,11.27,0,0,1-11.26,11.27H146.06a11.28,11.28,0,0,1-11.27-11.27Z"></path><path class="cls-27" d="M146.06,77.21H375.53A10.81,10.81,0,0,1,386.34,88V212.49a10.81,10.81,0,0,1-10.81,10.81H146.06a10.81,10.81,0,0,1-10.81-10.81V88A10.81,10.81,0,0,1,146.06,77.21Z"></path><path class="cls-1" d="M158.72,99.09h-1.86a2.07,2.07,0,0,0-.21-.65,1.76,1.76,0,0,0-1-.79,2.17,2.17,0,0,0-.69-.11,2.08,2.08,0,0,0-1.18.34,2.11,2.11,0,0,0-.78,1,3.75,3.75,0,0,0-.28,1.54A3.8,3.8,0,0,0,153,102a2,2,0,0,0,.78,1,2.07,2.07,0,0,0,1.16.32,2.5,2.5,0,0,0,.69-.09,1.92,1.92,0,0,0,.57-.29,1.81,1.81,0,0,0,.41-.46,2.05,2.05,0,0,0,.23-.63h1.86a3.47,3.47,0,0,1-.36,1.16,3.67,3.67,0,0,1-.77,1,4.09,4.09,0,0,1-1.15.69,4.47,4.47,0,0,1-1.51.25,4.12,4.12,0,0,1-2.08-.53,3.64,3.64,0,0,1-1.45-1.53,5.07,5.07,0,0,1-.53-2.43,5,5,0,0,1,.54-2.42,3.7,3.7,0,0,1,1.45-1.53,4.14,4.14,0,0,1,2.07-.53,4.53,4.53,0,0,1,1.41.21,3.57,3.57,0,0,1,1.15.63,3.15,3.15,0,0,1,.82,1A3.56,3.56,0,0,1,158.72,99.09ZM161.83,96v8.73H160V96Zm4.41,8.86a3.38,3.38,0,0,1-1.72-.43,2.87,2.87,0,0,1-1.11-1.18,3.85,3.85,0,0,1-.39-1.77,3.79,3.79,0,0,1,.39-1.77,2.84,2.84,0,0,1,1.11-1.19,3.37,3.37,0,0,1,1.72-.42,3.33,3.33,0,0,1,1.71.42,2.86,2.86,0,0,1,1.12,1.19,3.79,3.79,0,0,1,.39,1.77,3.85,3.85,0,0,1-.39,1.77,2.89,2.89,0,0,1-1.12,1.18A3.34,3.34,0,0,1,166.24,104.89Zm0-1.41a1.12,1.12,0,0,0,.75-.26,1.68,1.68,0,0,0,.46-.7,3.54,3.54,0,0,0,0-2,1.65,1.65,0,0,0-.46-.71,1.12,1.12,0,0,0-.75-.26,1.18,1.18,0,0,0-.77.26,1.58,1.58,0,0,0-.47.71,3.54,3.54,0,0,0,0,2,1.61,1.61,0,0,0,.47.7A1.18,1.18,0,0,0,166.25,103.48Zm9.84-3.4-1.67.1a.79.79,0,0,0-.18-.38,1,1,0,0,0-.37-.28,1.27,1.27,0,0,0-.54-.11,1.31,1.31,0,0,0-.71.18.53.53,0,0,0-.29.47.52.52,0,0,0,.18.4,1.55,1.55,0,0,0,.65.26l1.18.24a3,3,0,0,1,1.43.63,1.49,1.49,0,0,1,.47,1.14,1.81,1.81,0,0,1-.38,1.13,2.49,2.49,0,0,1-1,.76,3.86,3.86,0,0,1-1.5.27,3.53,3.53,0,0,1-2.07-.55,2.1,2.1,0,0,1-.9-1.48l1.79-.09a.89.89,0,0,0,.39.6,1.39,1.39,0,0,0,.79.21,1.35,1.35,0,0,0,.77-.19.54.54,0,0,0,.3-.48.48.48,0,0,0-.21-.4,1.56,1.56,0,0,0-.63-.25l-1.13-.23a2.62,2.62,0,0,1-1.43-.66,1.67,1.67,0,0,1-.47-1.21,1.73,1.73,0,0,1,.35-1.08,2.2,2.2,0,0,1,1-.71,4.12,4.12,0,0,1,1.47-.24,3.2,3.2,0,0,1,1.95.52A2,2,0,0,1,176.09,100.08Zm4.27,4.81a3.55,3.55,0,0,1-1.74-.41,2.85,2.85,0,0,1-1.11-1.17,3.79,3.79,0,0,1-.4-1.8,3.73,3.73,0,0,1,.4-1.77,2.94,2.94,0,0,1,1.1-1.19,3.27,3.27,0,0,1,1.68-.42,3.36,3.36,0,0,1,1.2.21,2.54,2.54,0,0,1,1,.61,2.85,2.85,0,0,1,.66,1,4.06,4.06,0,0,1,.24,1.46v.5h-5.53v-1.13h3.82a1.41,1.41,0,0,0-.17-.69,1.27,1.27,0,0,0-.48-.47,1.31,1.31,0,0,0-.69-.18,1.37,1.37,0,0,0-1.23.7,1.4,1.4,0,0,0-.18.7V102a1.8,1.8,0,0,0,.18.84,1.29,1.29,0,0,0,.51.55,1.54,1.54,0,0,0,.79.19,2,2,0,0,0,.56-.08,1.34,1.34,0,0,0,.43-.26,1.13,1.13,0,0,0,.27-.42l1.68.11a2.27,2.27,0,0,1-.53,1.06,2.65,2.65,0,0,1-1,.7A3.93,3.93,0,0,1,180.36,104.89Zm7,2.32v-9h1.79v1.1h.08a2.79,2.79,0,0,1,.34-.54,2.17,2.17,0,0,1,.6-.46,2.1,2.1,0,0,1,.92-.18,2.44,2.44,0,0,1,1.32.37,2.62,2.62,0,0,1,1,1.12,4.3,4.3,0,0,1,.36,1.87,4.42,4.42,0,0,1-.35,1.85,2.65,2.65,0,0,1-1,1.14,2.41,2.41,0,0,1-1.34.38,2,2,0,0,1-.9-.17,1.73,1.73,0,0,1-.6-.44,2.12,2.12,0,0,1-.36-.54h-.06v3.5Zm1.77-5.73a2.87,2.87,0,0,0,.17,1,1.41,1.41,0,0,0,.47.68,1.28,1.28,0,0,0,1.49,0,1.57,1.57,0,0,0,.47-.69,3.06,3.06,0,0,0,.16-1,3,3,0,0,0-.16-1,1.61,1.61,0,0,0-.46-.68,1.31,1.31,0,0,0-1.51,0,1.36,1.36,0,0,0-.46.66A2.85,2.85,0,0,0,189.1,101.48Zm8.78,3.41a3.38,3.38,0,0,1-1.72-.43,2.87,2.87,0,0,1-1.11-1.18,3.85,3.85,0,0,1-.39-1.77,3.79,3.79,0,0,1,.39-1.77,2.84,2.84,0,0,1,1.11-1.19,3.37,3.37,0,0,1,1.72-.42,3.33,3.33,0,0,1,1.71.42,2.86,2.86,0,0,1,1.12,1.19,3.79,3.79,0,0,1,.39,1.77,3.85,3.85,0,0,1-.39,1.77,2.89,2.89,0,0,1-1.12,1.18A3.34,3.34,0,0,1,197.88,104.89Zm0-1.41a1.12,1.12,0,0,0,.75-.26,1.59,1.59,0,0,0,.46-.7,3.33,3.33,0,0,0,0-2,1.57,1.57,0,0,0-.46-.71,1.12,1.12,0,0,0-.75-.26,1.18,1.18,0,0,0-.77.26,1.57,1.57,0,0,0-.46.71,3.33,3.33,0,0,0,0,2,1.59,1.59,0,0,0,.46.7A1.18,1.18,0,0,0,197.89,103.48Zm9.84-3.4-1.67.1a.71.71,0,0,0-.18-.38,1,1,0,0,0-.37-.28,1.27,1.27,0,0,0-.54-.11,1.31,1.31,0,0,0-.71.18.53.53,0,0,0-.29.47.5.5,0,0,0,.19.4,1.5,1.5,0,0,0,.64.26L206,101a3,3,0,0,1,1.43.63,1.49,1.49,0,0,1,.47,1.14,1.81,1.81,0,0,1-.38,1.13,2.53,2.53,0,0,1-1,.76,4,4,0,0,1-1.51.27,3.53,3.53,0,0,1-2.07-.55,2.1,2.1,0,0,1-.9-1.48l1.79-.09a.89.89,0,0,0,.39.6,1.4,1.4,0,0,0,.8.21,1.34,1.34,0,0,0,.76-.19.54.54,0,0,0,.3-.48.48.48,0,0,0-.21-.4,1.44,1.44,0,0,0-.63-.25l-1.13-.23a2.62,2.62,0,0,1-1.43-.66,1.66,1.66,0,0,1-.46-1.21,1.72,1.72,0,0,1,.34-1.08,2.2,2.2,0,0,1,1-.71,4.12,4.12,0,0,1,1.47-.24,3.2,3.2,0,0,1,1.95.52A2,2,0,0,1,207.73,100.08Zm1.29,4.68V98.21h1.81v6.55Zm.91-7.39a1,1,0,0,1-.69-.27.87.87,0,0,1,0-1.3,1,1,0,0,1,1.38,0,.87.87,0,0,1,0,1.3A1,1,0,0,1,209.93,97.37Zm5.84.84v1.37h-3.94V98.21Zm-3.05-1.57h1.82v6.11a.75.75,0,0,0,.08.39.43.43,0,0,0,.21.19.79.79,0,0,0,.32.06,1.15,1.15,0,0,0,.26,0l.19,0,.29,1.35-.38.09a3.23,3.23,0,0,1-.61.08,2.78,2.78,0,0,1-1.15-.18,1.6,1.6,0,0,1-.76-.62,2,2,0,0,1-.27-1.07Zm4.23,8.12V98.21h1.82v6.55Zm.91-7.39a1,1,0,0,1-.69-.27.87.87,0,0,1,0-1.3,1,1,0,0,1,1.38,0,.87.87,0,0,1,0,1.3A1,1,0,0,1,217.86,97.37Zm5.32,7.52a3.4,3.4,0,0,1-1.72-.43,2.87,2.87,0,0,1-1.11-1.18,3.85,3.85,0,0,1-.39-1.77,3.79,3.79,0,0,1,.39-1.77,2.84,2.84,0,0,1,1.11-1.19,3.4,3.4,0,0,1,1.72-.42,3.33,3.33,0,0,1,1.71.42A2.8,2.8,0,0,1,226,99.74a3.79,3.79,0,0,1,.39,1.77,3.85,3.85,0,0,1-.39,1.77,2.83,2.83,0,0,1-1.12,1.18A3.34,3.34,0,0,1,223.18,104.89Zm0-1.41a1.12,1.12,0,0,0,.75-.26,1.59,1.59,0,0,0,.46-.7,3.33,3.33,0,0,0,0-2,1.57,1.57,0,0,0-.46-.71,1.12,1.12,0,0,0-.75-.26,1.18,1.18,0,0,0-.77.26,1.57,1.57,0,0,0-.46.71,3.33,3.33,0,0,0,0,2,1.59,1.59,0,0,0,.46.7A1.18,1.18,0,0,0,223.19,103.48ZM229.4,101v3.79h-1.82V98.21h1.73v1.16h.08a1.86,1.86,0,0,1,.73-.91,2.23,2.23,0,0,1,1.24-.33,2.31,2.31,0,0,1,1.19.3,2,2,0,0,1,.78.85,2.79,2.79,0,0,1,.29,1.31v4.17H231.8v-3.85a1.29,1.29,0,0,0-.31-.93,1.07,1.07,0,0,0-.85-.34,1.36,1.36,0,0,0-.65.15,1.15,1.15,0,0,0-.44.46A1.59,1.59,0,0,0,229.4,101Z"></path><path class="cls-1" d="M158.25,140.76H157.2a2.21,2.21,0,0,0-.33-.8,2.07,2.07,0,0,0-.56-.58,2.49,2.49,0,0,0-.73-.36,2.94,2.94,0,0,0-.84-.12,2.61,2.61,0,0,0-1.43.4,2.76,2.76,0,0,0-1,1.18,5,5,0,0,0,0,3.83,2.76,2.76,0,0,0,1,1.18,2.7,2.7,0,0,0,1.43.4,2.94,2.94,0,0,0,.84-.12,2.73,2.73,0,0,0,.73-.35,2.25,2.25,0,0,0,.56-.59,2.29,2.29,0,0,0,.33-.8h1.05a3.5,3.5,0,0,1-.43,1.2,3.38,3.38,0,0,1-.78.9,3.71,3.71,0,0,1-1.06.56,4.13,4.13,0,0,1-1.24.19,3.6,3.6,0,0,1-2-.55,3.7,3.7,0,0,1-1.37-1.55,5.94,5.94,0,0,1,0-4.77,3.7,3.7,0,0,1,1.37-1.55,3.6,3.6,0,0,1,2-.55,3.84,3.84,0,0,1,1.24.19,3.5,3.5,0,0,1,1.06.57,3.19,3.19,0,0,1,.78.89A3.5,3.5,0,0,1,158.25,140.76Zm5.7,3.32v-3.87h1v6.55h-1v-1.11h-.07a2.21,2.21,0,0,1-.71.85,2.1,2.1,0,0,1-1.23.34,2.18,2.18,0,0,1-1.09-.27,1.85,1.85,0,0,1-.75-.81,3.16,3.16,0,0,1-.27-1.39v-4.16h1v4.09a1.61,1.61,0,0,0,.4,1.15,1.38,1.38,0,0,0,1,.42,1.71,1.71,0,0,0,.77-.19,1.59,1.59,0,0,0,.65-.59A1.75,1.75,0,0,0,164,144.08Zm2.85,2.68v-6.55h1v1h.07a1.55,1.55,0,0,1,.65-.79,1.89,1.89,0,0,1,1-.3h.28l.25,0v1l-.23,0a2.34,2.34,0,0,0-.38,0,1.85,1.85,0,0,0-.86.2,1.46,1.46,0,0,0-.58.55,1.4,1.4,0,0,0-.22.79v4.14Zm4.46,0v-6.55h1v1h.07a1.61,1.61,0,0,1,.65-.79,1.93,1.93,0,0,1,1.06-.3h.27l.26,0v1l-.24,0a2.25,2.25,0,0,0-.38,0,1.81,1.81,0,0,0-.85.2,1.47,1.47,0,0,0-.8,1.34v4.14Zm7,.13a3.16,3.16,0,0,1-1.63-.41,2.87,2.87,0,0,1-1-1.18,3.93,3.93,0,0,1-.37-1.76,4,4,0,0,1,.37-1.78,3,3,0,0,1,1-1.2,2.76,2.76,0,0,1,1.55-.43,2.94,2.94,0,0,1,1,.17,2.53,2.53,0,0,1,.91.55,2.63,2.63,0,0,1,.65,1,4.29,4.29,0,0,1,.24,1.54v.43h-5V143h4a2.12,2.12,0,0,0-.22-1,1.72,1.72,0,0,0-.62-.69,1.75,1.75,0,0,0-1-.25,1.79,1.79,0,0,0-1,.3,1.93,1.93,0,0,0-.67.77,2.3,2.3,0,0,0-.23,1v.58a2.86,2.86,0,0,0,.25,1.26,2,2,0,0,0,.72.78,2.2,2.2,0,0,0,1.07.26,2.27,2.27,0,0,0,.72-.11,1.68,1.68,0,0,0,.56-.34,1.73,1.73,0,0,0,.36-.57l1,.27a2.13,2.13,0,0,1-.51.87,2.54,2.54,0,0,1-.9.58A3.21,3.21,0,0,1,178.27,146.89Zm5.25-4.07v3.94h-1v-6.55h1v1h.09a1.93,1.93,0,0,1,.7-.8,2.19,2.19,0,0,1,1.21-.3,2.39,2.39,0,0,1,1.16.27,1.88,1.88,0,0,1,.78.82,3.08,3.08,0,0,1,.27,1.38v4.16h-1v-4.09a1.7,1.7,0,0,0-.4-1.21,1.47,1.47,0,0,0-1.1-.43,1.74,1.74,0,0,0-.86.21,1.45,1.45,0,0,0-.59.61A2,2,0,0,0,183.52,142.82Zm8.86-2.61v.85H189v-.85Zm-2.4-1.57h1v6.24a1.32,1.32,0,0,0,.12.64.68.68,0,0,0,.33.28,1.16,1.16,0,0,0,.42.07,1.06,1.06,0,0,0,.27,0l.17,0,.21.9a2.24,2.24,0,0,1-.29.08,2,2,0,0,1-.46,0,2.08,2.08,0,0,1-.84-.18,1.64,1.64,0,0,1-.67-.56,1.56,1.56,0,0,1-.26-.94Zm12.2,1.57a1.35,1.35,0,0,0-.63-1,2.36,2.36,0,0,0-1.33-.36,2.48,2.48,0,0,0-1,.19,1.52,1.52,0,0,0-.67.51,1.24,1.24,0,0,0-.24.75,1,1,0,0,0,.17.6,1.41,1.41,0,0,0,.43.41,3.11,3.11,0,0,0,.55.27l.54.17.88.23c.23.06.48.15.76.25a4,4,0,0,1,.81.43,2.23,2.23,0,0,1,.64.69,2.08,2.08,0,0,1,.25,1,2.36,2.36,0,0,1-.37,1.28,2.54,2.54,0,0,1-1.08.9,3.86,3.86,0,0,1-1.71.34,4,4,0,0,1-1.62-.3,2.52,2.52,0,0,1-1.07-.85,2.36,2.36,0,0,1-.44-1.25h1.09a1.41,1.41,0,0,0,.33.82,1.78,1.78,0,0,0,.74.47,2.82,2.82,0,0,0,1,.16,2.86,2.86,0,0,0,1.09-.2,1.83,1.83,0,0,0,.76-.55,1.32,1.32,0,0,0,.29-.84,1.06,1.06,0,0,0-.25-.71,1.69,1.69,0,0,0-.64-.44,8.42,8.42,0,0,0-.85-.3l-1.08-.3a4.13,4.13,0,0,1-1.62-.84,1.88,1.88,0,0,1-.59-1.43,2.13,2.13,0,0,1,.39-1.28,2.62,2.62,0,0,1,1.08-.85,3.52,3.52,0,0,1,1.51-.31,3.59,3.59,0,0,1,1.5.3,2.68,2.68,0,0,1,1,.82,2.08,2.08,0,0,1,.41,1.18Zm10.24,2.18a5.37,5.37,0,0,1-.5,2.39,3.7,3.7,0,0,1-1.37,1.55,3.86,3.86,0,0,1-4,0,3.77,3.77,0,0,1-1.37-1.55,5.94,5.94,0,0,1,0-4.77,3.77,3.77,0,0,1,1.37-1.55,3.86,3.86,0,0,1,4,0,3.7,3.7,0,0,1,1.37,1.55A5.32,5.32,0,0,1,212.42,142.39Zm-1,0a4.39,4.39,0,0,0-.38-1.91,2.76,2.76,0,0,0-1-1.18,2.61,2.61,0,0,0-1.43-.4,2.65,2.65,0,0,0-1.44.4,2.83,2.83,0,0,0-1,1.18,5.14,5.14,0,0,0,0,3.83,2.83,2.83,0,0,0,1,1.18,2.74,2.74,0,0,0,1.44.4,2.7,2.7,0,0,0,1.43-.4,2.76,2.76,0,0,0,1-1.18A4.41,4.41,0,0,0,211.4,142.39Zm2.8,4.37V138h1.05v7.79h4.06v.94ZM226.67,138h1.06v5.78a3.06,3.06,0,0,1-.42,1.6,3,3,0,0,1-1.18,1.1,4.21,4.21,0,0,1-3.58,0,3,3,0,0,1-1.19-1.1,3.15,3.15,0,0,1-.41-1.6V138H222v5.69a2.35,2.35,0,0,0,.28,1.14,2,2,0,0,0,.81.78,2.54,2.54,0,0,0,1.25.28,2.59,2.59,0,0,0,1.25-.28,1.94,1.94,0,0,0,.8-.78,2.24,2.24,0,0,0,.28-1.14Zm7.94,2.18a1.34,1.34,0,0,0-.62-1,2.37,2.37,0,0,0-1.34-.36,2.46,2.46,0,0,0-1,.19,1.52,1.52,0,0,0-.67.51,1.24,1.24,0,0,0-.24.75,1.08,1.08,0,0,0,.16.6,1.57,1.57,0,0,0,.44.41,2.81,2.81,0,0,0,.55.27l.53.17.89.23c.23.06.48.15.76.25a3.64,3.64,0,0,1,.8.43,2.12,2.12,0,0,1,.64.69,2,2,0,0,1,.26,1,2.29,2.29,0,0,1-.38,1.28,2.46,2.46,0,0,1-1.07.9,3.86,3.86,0,0,1-1.71.34,4,4,0,0,1-1.62-.3,2.55,2.55,0,0,1-1.08-.85,2.43,2.43,0,0,1-.43-1.25h1.09a1.35,1.35,0,0,0,.33.82,1.71,1.71,0,0,0,.74.47,2.82,2.82,0,0,0,1,.16,2.86,2.86,0,0,0,1.09-.2,1.89,1.89,0,0,0,.76-.55,1.31,1.31,0,0,0,.28-.84,1.05,1.05,0,0,0-.24-.71,1.78,1.78,0,0,0-.64-.44,7.82,7.82,0,0,0-.86-.3l-1.07-.3a4.13,4.13,0,0,1-1.62-.84,1.85,1.85,0,0,1-.6-1.43,2.14,2.14,0,0,1,.4-1.28,2.65,2.65,0,0,1,1.07-.85,3.89,3.89,0,0,1,3,0,2.76,2.76,0,0,1,1,.82,2.08,2.08,0,0,1,.41,1.18Zm5.58,6.55h-2.7V138h2.82a4.25,4.25,0,0,1,2.17.52,3.46,3.46,0,0,1,1.38,1.5,5.81,5.81,0,0,1,0,4.67,3.4,3.4,0,0,1-1.42,1.51A4.48,4.48,0,0,1,240.19,146.76Zm-1.64-.94h1.57a3.46,3.46,0,0,0,1.79-.42,2.51,2.51,0,0,0,1.06-1.19,4.27,4.27,0,0,0,.35-1.83,4.38,4.38,0,0,0-.34-1.82,2.59,2.59,0,0,0-1-1.18,3.33,3.33,0,0,0-1.71-.41h-1.69Zm10.81,3.39v-9h1v1h.12c.07-.11.17-.26.3-.43a1.88,1.88,0,0,1,.58-.48,2.05,2.05,0,0,1,1-.21,2.57,2.57,0,0,1,1.46.41,2.76,2.76,0,0,1,1,1.17,4.78,4.78,0,0,1,0,3.59,2.73,2.73,0,0,1-1,1.18,2.53,2.53,0,0,1-1.44.41,2.21,2.21,0,0,1-1-.2,2,2,0,0,1-.59-.49c-.13-.18-.24-.33-.31-.45h-.09v3.46Zm1-5.73a3.71,3.71,0,0,0,.21,1.31,2,2,0,0,0,.64.89,1.83,1.83,0,0,0,2.07,0,2,2,0,0,0,.64-.91,3.42,3.42,0,0,0,.22-1.27,3.47,3.47,0,0,0-.21-1.24,1.87,1.87,0,0,0-.64-.88,1.87,1.87,0,0,0-2.09,0,1.86,1.86,0,0,0-.63.86A3.62,3.62,0,0,0,250.35,143.48Zm9,3.41a2.89,2.89,0,0,1-1.56-.42,2.85,2.85,0,0,1-1-1.18,4.08,4.08,0,0,1-.37-1.77,4.17,4.17,0,0,1,.37-1.79,2.85,2.85,0,0,1,1-1.18,2.89,2.89,0,0,1,1.56-.42,2.83,2.83,0,0,1,1.55.42,2.79,2.79,0,0,1,1,1.18,4,4,0,0,1,.37,1.79,3.94,3.94,0,0,1-.37,1.77,2.79,2.79,0,0,1-1,1.18A2.83,2.83,0,0,1,259.33,146.89Zm0-.9a1.73,1.73,0,0,0,1.11-.34,2.07,2.07,0,0,0,.64-.91,3.47,3.47,0,0,0,.21-1.22,3.43,3.43,0,0,0-.21-1.22,2,2,0,0,0-.64-.92,1.94,1.94,0,0,0-2.22,0,2,2,0,0,0-.64.92,3.43,3.43,0,0,0-.21,1.22,3.47,3.47,0,0,0,.21,1.22,2.07,2.07,0,0,0,.64.91A1.73,1.73,0,0,0,259.33,146Zm9.14-4.31-.91.25a1.64,1.64,0,0,0-.25-.44,1.2,1.2,0,0,0-.44-.35,1.54,1.54,0,0,0-.72-.14,1.73,1.73,0,0,0-1,.27.81.81,0,0,0-.4.7.71.71,0,0,0,.27.59,2.27,2.27,0,0,0,.85.36l1,.24a2.65,2.65,0,0,1,1.3.65,1.52,1.52,0,0,1,.43,1.12,1.64,1.64,0,0,1-.32,1,2.18,2.18,0,0,1-.89.7,3.3,3.3,0,0,1-1.34.25,3,3,0,0,1-1.66-.43,1.92,1.92,0,0,1-.83-1.27l.95-.24a1.32,1.32,0,0,0,.52.79,1.71,1.71,0,0,0,1,.27,1.88,1.88,0,0,0,1.12-.3.87.87,0,0,0,.42-.73.78.78,0,0,0-.24-.57,1.65,1.65,0,0,0-.74-.35l-1.09-.25a2.56,2.56,0,0,1-1.32-.66,1.7,1.7,0,0,1-.1-2.11,2,2,0,0,1,.85-.67,3.08,3.08,0,0,1,1.24-.24,2.45,2.45,0,0,1,1.52.42A2.31,2.31,0,0,1,268.47,141.68Zm1.63,5.08v-6.55h1v6.55Zm.51-7.64a.74.74,0,0,1-.51-.2.65.65,0,0,1,0-1,.7.7,0,0,1,.51-.2.66.66,0,0,1,.5.2.63.63,0,0,1,0,1A.7.7,0,0,1,270.61,139.12Zm5.18,1.09v.85H272.4v-.85Zm-2.4-1.57h1v6.24a1.32,1.32,0,0,0,.12.64.62.62,0,0,0,.32.28,1.23,1.23,0,0,0,.42.07,1.1,1.1,0,0,0,.28,0l.17,0,.2.9-.28.08a2.11,2.11,0,0,1-.47,0,2,2,0,0,1-.83-.18,1.67,1.67,0,0,1-.68-.56,1.63,1.63,0,0,1-.26-.94Zm3.92,8.12v-6.55h1v6.55Zm.51-7.64a.73.73,0,0,1-.51-.2.65.65,0,0,1,0-1,.69.69,0,0,1,.51-.2.68.68,0,0,1,.5.2.65.65,0,0,1,0,1A.72.72,0,0,1,277.82,139.12Zm5,7.77a2.83,2.83,0,0,1-1.55-.42,2.79,2.79,0,0,1-1-1.18,3.94,3.94,0,0,1-.37-1.77,4,4,0,0,1,.37-1.79,2.79,2.79,0,0,1,1-1.18,3.07,3.07,0,0,1,3.1,0,2.72,2.72,0,0,1,1,1.18,4,4,0,0,1,.38,1.79,3.94,3.94,0,0,1-.38,1.77,2.72,2.72,0,0,1-1,1.18A2.83,2.83,0,0,1,282.81,146.89Zm0-.9a1.73,1.73,0,0,0,1.11-.34,2.07,2.07,0,0,0,.64-.91,3.47,3.47,0,0,0,.21-1.22,3.43,3.43,0,0,0-.21-1.22,2,2,0,0,0-.64-.92,1.94,1.94,0,0,0-2.22,0,2,2,0,0,0-.64.92,3.43,3.43,0,0,0-.21,1.22,3.47,3.47,0,0,0,.21,1.22,2.07,2.07,0,0,0,.64.91A1.73,1.73,0,0,0,282.81,146Zm5.51-3.17v3.94h-1v-6.55h1v1h.08a1.93,1.93,0,0,1,.7-.8,2.21,2.21,0,0,1,1.21-.3,2.39,2.39,0,0,1,1.16.27,1.83,1.83,0,0,1,.78.82,3.08,3.08,0,0,1,.28,1.38v4.16h-1v-4.09a1.7,1.7,0,0,0-.4-1.21A1.45,1.45,0,0,0,290,141a1.74,1.74,0,0,0-.86.21,1.45,1.45,0,0,0-.59.61A2,2,0,0,0,288.32,142.82Z"></path><path class="cls-1" d="M333.06,147a3.26,3.26,0,0,1-1.89-.54,3.45,3.45,0,0,1-1.22-1.56,6.4,6.4,0,0,1-.42-2.45A6.11,6.11,0,0,1,330,140a3.17,3.17,0,0,1,3.1-2.06,3.19,3.19,0,0,1,3.1,2.06,6.11,6.11,0,0,1,.42,2.43,6.46,6.46,0,0,1-.42,2.46,3.41,3.41,0,0,1-1.21,1.55A3.28,3.28,0,0,1,333.06,147Zm0-1.53a1.36,1.36,0,0,0,1.2-.75,4.67,4.67,0,0,0,.44-2.27,5.52,5.52,0,0,0-.21-1.65,2.06,2.06,0,0,0-.57-1,1.2,1.2,0,0,0-.86-.34,1.33,1.33,0,0,0-1.19.75,4.5,4.5,0,0,0-.46,2.23,6.13,6.13,0,0,0,.2,1.68,2.23,2.23,0,0,0,.58,1A1.28,1.28,0,0,0,333.06,145.42Zm5.56,1.45a1,1,0,1,1,.72-1.74,1,1,0,0,1,.16,1.23,1,1,0,0,1-.37.37A1,1,0,0,1,338.62,146.87Zm5.21-8.84v8.73H342v-7h-.05l-2,1.25V139.4l2.16-1.37Zm5.87,0v8.73h-1.85v-7h-.05l-2,1.25V139.4L348,138Zm6.68,0v8.73h-1.81V138Zm4.41,8.86a3.34,3.34,0,0,1-1.71-.43,2.87,2.87,0,0,1-1.11-1.18,3.73,3.73,0,0,1-.4-1.77,3.67,3.67,0,0,1,.4-1.77,2.84,2.84,0,0,1,1.11-1.19,3.71,3.71,0,0,1,3.43,0,2.84,2.84,0,0,1,1.11,1.19,3.67,3.67,0,0,1,.4,1.77,3.73,3.73,0,0,1-.4,1.77,2.87,2.87,0,0,1-1.11,1.18A3.35,3.35,0,0,1,360.79,146.89Zm0-1.41a1.15,1.15,0,0,0,.76-.26,1.57,1.57,0,0,0,.45-.7,3.33,3.33,0,0,0,0-2,1.55,1.55,0,0,0-.45-.71,1.24,1.24,0,0,0-1.52,0,1.58,1.58,0,0,0-.47.71,3.54,3.54,0,0,0,0,2,1.61,1.61,0,0,0,.47.7A1.15,1.15,0,0,0,360.8,145.48Zm7.88-5.27v1.37h-3.94v-1.37Zm-3.05-1.57h1.82v6.11a.88.88,0,0,0,.07.39.45.45,0,0,0,.22.19.79.79,0,0,0,.32.06,1.15,1.15,0,0,0,.26,0l.19,0,.29,1.35-.39.09a3,3,0,0,1-.6.08,2.78,2.78,0,0,1-1.15-.18,1.6,1.6,0,0,1-.76-.62,2,2,0,0,1-.27-1.07Zm9.59,3.44-1.66.1a.89.89,0,0,0-.18-.38,1,1,0,0,0-.37-.28,1.27,1.27,0,0,0-.54-.11,1.31,1.31,0,0,0-.71.18.53.53,0,0,0-.29.47.52.52,0,0,0,.18.4,1.55,1.55,0,0,0,.65.26l1.18.24a3,3,0,0,1,1.43.63,1.48,1.48,0,0,1,.46,1.14,1.75,1.75,0,0,1-.38,1.13,2.46,2.46,0,0,1-1,.76,3.86,3.86,0,0,1-1.5.27,3.53,3.53,0,0,1-2.07-.55,2.1,2.1,0,0,1-.9-1.48l1.78-.09a.94.94,0,0,0,.4.6,1.62,1.62,0,0,0,1.56,0,.54.54,0,0,0,.3-.48.48.48,0,0,0-.21-.4,1.56,1.56,0,0,0-.63-.25l-1.13-.23a2.62,2.62,0,0,1-1.43-.66,1.67,1.67,0,0,1-.47-1.21,1.78,1.78,0,0,1,.34-1.08,2.23,2.23,0,0,1,1-.71,4.12,4.12,0,0,1,1.47-.24,3.22,3.22,0,0,1,1.95.52A2,2,0,0,1,375.22,142.08Z"></path><path class="cls-28" d="M369.19,172.76h-81.8a6.6,6.6,0,0,0-6.6,6.6v22.8a6.61,6.61,0,0,0,6.6,6.6h81.8a6.6,6.6,0,0,0,6.6-6.6v-22.8A6.59,6.59,0,0,0,369.19,172.76Z"></path><path class="cls-1" d="M320,189.09H318.1a1.66,1.66,0,0,0-.21-.65,1.56,1.56,0,0,0-.4-.48,1.66,1.66,0,0,0-.57-.31,2.23,2.23,0,0,0-.7-.11,2.12,2.12,0,0,0-1.18.34,2.24,2.24,0,0,0-.78,1,3.93,3.93,0,0,0-.27,1.54,4,4,0,0,0,.27,1.57,2.11,2.11,0,0,0,.79,1,2,2,0,0,0,1.16.32,2.5,2.5,0,0,0,.69-.09,1.75,1.75,0,0,0,.56-.29,1.5,1.5,0,0,0,.41-.46,1.82,1.82,0,0,0,.23-.63H320a3.47,3.47,0,0,1-.36,1.16,3.67,3.67,0,0,1-.77,1,4.09,4.09,0,0,1-1.15.69,4.47,4.47,0,0,1-1.51.25,4.16,4.16,0,0,1-2.09-.53,3.76,3.76,0,0,1-1.45-1.53,5.89,5.89,0,0,1,0-4.86,3.82,3.82,0,0,1,1.46-1.52,4.09,4.09,0,0,1,2.07-.53,4.53,4.53,0,0,1,1.41.21,3.57,3.57,0,0,1,1.15.63,3.15,3.15,0,0,1,.82,1A3.75,3.75,0,0,1,320,189.09Zm3.1-3.06v8.73h-1.81V186Zm4.42,8.86a3.35,3.35,0,0,1-1.72-.43,2.87,2.87,0,0,1-1.11-1.18,3.85,3.85,0,0,1-.4-1.77,3.79,3.79,0,0,1,.4-1.77,2.84,2.84,0,0,1,1.11-1.19,3.71,3.71,0,0,1,3.43,0,2.92,2.92,0,0,1,1.12,1.19,3.79,3.79,0,0,1,.39,1.77,3.85,3.85,0,0,1-.39,1.77,3,3,0,0,1-1.12,1.18A3.34,3.34,0,0,1,327.49,194.89Zm0-1.41a1.13,1.13,0,0,0,.76-.26,1.57,1.57,0,0,0,.45-.7,3.33,3.33,0,0,0,0-2,1.55,1.55,0,0,0-.45-.71,1.13,1.13,0,0,0-.76-.26,1.15,1.15,0,0,0-.76.26,1.58,1.58,0,0,0-.47.71,3.54,3.54,0,0,0,0,2,1.61,1.61,0,0,0,.47.7A1.15,1.15,0,0,0,327.49,193.48Zm9.84-3.4-1.66.1a.89.89,0,0,0-.18-.38,1,1,0,0,0-.37-.28,1.27,1.27,0,0,0-.54-.11,1.31,1.31,0,0,0-.71.18.53.53,0,0,0-.29.47.52.52,0,0,0,.18.4,1.55,1.55,0,0,0,.65.26l1.18.24a2.89,2.89,0,0,1,1.42.63,1.46,1.46,0,0,1,.47,1.14,1.75,1.75,0,0,1-.38,1.13,2.46,2.46,0,0,1-1,.76,3.86,3.86,0,0,1-1.5.27,3.53,3.53,0,0,1-2.07-.55,2.1,2.1,0,0,1-.9-1.48l1.78-.09a.94.94,0,0,0,.4.6,1.62,1.62,0,0,0,1.56,0,.54.54,0,0,0,.3-.48.48.48,0,0,0-.21-.4,1.56,1.56,0,0,0-.63-.25l-1.13-.23a2.62,2.62,0,0,1-1.43-.66,1.67,1.67,0,0,1-.47-1.21,1.78,1.78,0,0,1,.34-1.08,2.23,2.23,0,0,1,1-.71,4.12,4.12,0,0,1,1.47-.24,3.24,3.24,0,0,1,1.95.52A2,2,0,0,1,337.33,190.08Zm4.28,4.81a3.55,3.55,0,0,1-1.74-.41,2.93,2.93,0,0,1-1.12-1.17,3.92,3.92,0,0,1-.39-1.8,3.85,3.85,0,0,1,.39-1.77,3,3,0,0,1,1.11-1.19,3.25,3.25,0,0,1,1.68-.42,3.36,3.36,0,0,1,1.2.21,2.62,2.62,0,0,1,1,.61,3,3,0,0,1,.66,1,4.07,4.07,0,0,1,.23,1.46v.5h-5.52v-1.13h3.81a1.31,1.31,0,0,0-.17-.69,1.18,1.18,0,0,0-.47-.47,1.31,1.31,0,0,0-.69-.18,1.51,1.51,0,0,0-.74.19,1.41,1.41,0,0,0-.67,1.21V192a1.8,1.8,0,0,0,.18.84,1.29,1.29,0,0,0,.51.55,1.54,1.54,0,0,0,.79.19,1.87,1.87,0,0,0,.55-.08,1.24,1.24,0,0,0,.43-.26,1.15,1.15,0,0,0,.28-.42l1.68.11a2.27,2.27,0,0,1-.53,1.06,2.65,2.65,0,0,1-1,.7A4,4,0,0,1,341.61,194.89Z"></path><path class="cls-29" d="M270.79,173.26h-115a5.5,5.5,0,0,0-5.5,5.5v24a5.5,5.5,0,0,0,5.5,5.5h115a5.5,5.5,0,0,0,5.5-5.5v-24A5.5,5.5,0,0,0,270.79,173.26Z"></path><path class="cls-20" d="M168.19,190.76a.5.5,0,0,1,.5-.5H178.9a.5.5,0,0,1,.5.5.51.51,0,0,1-.5.5H168.69A.5.5,0,0,1,168.19,190.76Z"></path><path class="cls-1" d="M202.85,189.9a3.07,3.07,0,0,1-1.91-.61,3.87,3.87,0,0,1-1.21-1.79,9.71,9.71,0,0,1,0-5.65,3.9,3.9,0,0,1,1.21-1.79,3.25,3.25,0,0,1,3.82,0,3.82,3.82,0,0,1,1.21,1.79,8.38,8.38,0,0,1,.42,2.82,8.72,8.72,0,0,1-.41,2.83,4,4,0,0,1-1.21,1.79A3.1,3.1,0,0,1,202.85,189.9Zm0-1.1a1.91,1.91,0,0,0,1.73-1.07,6.25,6.25,0,0,0,.62-3.06,7.79,7.79,0,0,0-.28-2.26,3.09,3.09,0,0,0-.81-1.41,1.77,1.77,0,0,0-1.26-.49,1.9,1.9,0,0,0-1.72,1.09,6.15,6.15,0,0,0-.62,3.07,8,8,0,0,0,.27,2.24,3.09,3.09,0,0,0,.81,1.41A1.8,1.8,0,0,0,202.85,188.8Zm6,1a.86.86,0,0,1-.63-.27.82.82,0,0,1-.26-.63.85.85,0,0,1,.26-.63.89.89,0,0,1,.63-.26.9.9,0,0,1,.9.89.9.9,0,0,1-.13.45,1,1,0,0,1-.32.33A.84.84,0,0,1,208.8,189.84Zm5.95.06a3.1,3.1,0,0,1-1.92-.61,3.86,3.86,0,0,1-1.2-1.79,9.71,9.71,0,0,1,0-5.65,3.82,3.82,0,0,1,1.21-1.79,3.24,3.24,0,0,1,3.81,0,3.75,3.75,0,0,1,1.21,1.79,8.12,8.12,0,0,1,.43,2.82,8.44,8.44,0,0,1-.42,2.83,3.87,3.87,0,0,1-1.21,1.79A3.07,3.07,0,0,1,214.75,189.9Zm0-1.1a1.92,1.92,0,0,0,1.73-1.07,6.26,6.26,0,0,0,.61-3.06,7.79,7.79,0,0,0-.28-2.26A3,3,0,0,0,216,181a1.77,1.77,0,0,0-1.26-.49A1.91,1.91,0,0,0,213,181.6a6.26,6.26,0,0,0-.62,3.07,7.64,7.64,0,0,0,.28,2.24,3,3,0,0,0,.8,1.41A1.81,1.81,0,0,0,214.75,188.8Zm5.19-1.13v-1l4.47-7.08h.74v1.57h-.5l-3.38,5.35v.08h6v1.09Zm4.79,2.09V179.58h1.17v10.18Z"></path><path class="cls-9" d="M207,195.21v6.55h-1.16v-6.55Zm3.33,6.64a2.39,2.39,0,0,1-1.25-.31,2.12,2.12,0,0,1-.81-.89,3.19,3.19,0,0,1,0-2.66,2.12,2.12,0,0,1,.81-.89,2.39,2.39,0,0,1,1.25-.32,2.42,2.42,0,0,1,1.25.32,2.12,2.12,0,0,1,.81.89,3.19,3.19,0,0,1,0,2.66,2.12,2.12,0,0,1-.81.89A2.42,2.42,0,0,1,210.32,201.85Zm0-.92a1,1,0,0,0,.65-.22,1.35,1.35,0,0,0,.39-.58,2.3,2.3,0,0,0,.13-.81,2.39,2.39,0,0,0-.13-.82,1.35,1.35,0,0,0-.39-.58,1,1,0,0,0-.65-.22,1,1,0,0,0-.67.22,1.35,1.35,0,0,0-.39.58,2.39,2.39,0,0,0-.13.82,2.3,2.3,0,0,0,.13.81,1.35,1.35,0,0,0,.39.58A1,1,0,0,0,210.33,200.93Zm5.78-4.08v.89h-2.83v-.89ZM214,195.67h1.16v4.61a.7.7,0,0,0,.07.36.39.39,0,0,0,.19.17,1.09,1.09,0,0,0,.26,0l.2,0,.14,0,.19.9-.26.07a1.66,1.66,0,0,1-.42,0,1.78,1.78,0,0,1-.78-.13,1.16,1.16,0,0,1-.55-.45,1.32,1.32,0,0,1-.2-.77Zm6.9,2.48-1,.11a.73.73,0,0,0-.16-.3.85.85,0,0,0-.29-.23,1.26,1.26,0,0,0-.46-.08,1.11,1.11,0,0,0-.6.15.44.44,0,0,0-.24.41.42.42,0,0,0,.15.35,1.39,1.39,0,0,0,.54.22l.84.18a2.15,2.15,0,0,1,1,.47,1.15,1.15,0,0,1,.35.86,1.32,1.32,0,0,1-.27.82,1.92,1.92,0,0,1-.74.55,2.86,2.86,0,0,1-1.09.19,2.54,2.54,0,0,1-1.45-.37,1.52,1.52,0,0,1-.65-1.06l1.12-.11a.77.77,0,0,0,.33.5,1.16,1.16,0,0,0,.65.17,1.2,1.2,0,0,0,.66-.17.48.48,0,0,0,.25-.42.44.44,0,0,0-.16-.35,1.17,1.17,0,0,0-.5-.21l-.84-.17a2,2,0,0,1-1-.5,1.21,1.21,0,0,1-.34-.89,1.23,1.23,0,0,1,.25-.78,1.56,1.56,0,0,1,.7-.52,2.79,2.79,0,0,1,1-.19,2.29,2.29,0,0,1,1.36.37A1.57,1.57,0,0,1,220.88,198.15Z"></path><path class="cls-20" d="M252.79,185.15a.5.5,0,0,1,.5.5v4.61h4.61a.5.5,0,0,1,.5.5.51.51,0,0,1-.5.5h-4.61v4.6a.5.5,0,0,1-.5.5.5.5,0,0,1-.5-.5v-4.6h-4.6a.5.5,0,0,1-.5-.5.5.5,0,0,1,.5-.5h4.6v-4.61A.51.51,0,0,1,252.79,185.15Z"></path></g></svg>