<svg xmlns="http://www.w3.org/2000/svg" xmlns:xlink="http://www.w3.org/1999/xlink" id="Layer_1" data-name="Layer 1" viewBox="0 0 456 246"><defs><style>.cls-1,.cls-8{fill:none;}.cls-2{fill:#1d202d;fill-opacity:0.7;stroke:#323335;}.cls-3,.cls-4{fill:#4d7bff;}.cls-3{isolation:isolate;opacity:0.5;}.cls-5{fill:#fff;}.cls-6{clip-path:url(#clip-path);}.cls-7{fill:url(#linear-gradient);}.cls-8{stroke:#4d7bff;stroke-width:3px;}</style><clipPath id="clip-path"><rect class="cls-1" x="0.45" y="-0.06" width="455.01" height="245.73" rx="18.09"></rect></clipPath><linearGradient id="linear-gradient" x1="244.95" y1="434.89" x2="244.95" y2="1.89" gradientTransform="matrix(1, 0, 0, -1, 0, 453.89)" gradientUnits="userSpaceOnUse"><stop offset="0" stop-color="#3461ff" stop-opacity="0.4"></stop><stop offset="1" stop-color="#3461ff" stop-opacity="0"></stop></linearGradient></defs><rect class="cls-2" x="0.5" y="0.5" width="455" height="245" rx="17.5"></rect><circle class="cls-3" cx="405" cy="98" r="8"></circle><circle class="cls-4" cx="405" cy="98" r="5"></circle><path class="cls-5" d="M30.63,34.12a3,3,0,0,1-1.35-.3,2.48,2.48,0,0,1-1-.82,2.2,2.2,0,0,1-.4-1.18h1a1.41,1.41,0,0,0,.54,1,1.85,1.85,0,0,0,2.77-.56,2.08,2.08,0,0,0,.24-1,2.14,2.14,0,0,0-.25-1,1.86,1.86,0,0,0-.68-.71,2.07,2.07,0,0,0-1-.27,2.69,2.69,0,0,0-.82.13,2.21,2.21,0,0,0-.69.32l-1-.12.53-4.3h4.53v.94H29.47l-.31,2.57h.06a2.11,2.11,0,0,1,.67-.35,2.64,2.64,0,0,1,.84-.14,2.68,2.68,0,0,1,2.42,1.42,3.12,3.12,0,0,1,.36,1.51,2.92,2.92,0,0,1-.37,1.49,2.68,2.68,0,0,1-1,1A2.91,2.91,0,0,1,30.63,34.12Zm8-.12V27.45h1v1h.08a1.73,1.73,0,0,1,.66-.82,2,2,0,0,1,1.1-.29,1.77,1.77,0,0,1,1.75,1.11h.07a1.91,1.91,0,0,1,.76-.81,2.27,2.27,0,0,1,1.2-.3,1.94,1.94,0,0,1,1.44.55,2.29,2.29,0,0,1,.56,1.7V34h-1V29.62a1.27,1.27,0,0,0-.39-1,1.54,1.54,0,0,0-.94-.31,1.38,1.38,0,0,0-1.07.42,1.52,1.52,0,0,0-.38,1V34h-1V29.52a1.18,1.18,0,0,0-.36-.9,1.3,1.3,0,0,0-.94-.35,1.37,1.37,0,0,0-.73.21,1.59,1.59,0,0,0-.54.58,1.7,1.7,0,0,0-.21.85V34Zm13.08.14a2.78,2.78,0,0,1-1.55-.43,2.85,2.85,0,0,1-1-1.18,3.91,3.91,0,0,1-.37-1.77A4,4,0,0,1,49.09,29a2.87,2.87,0,0,1,5.19,0,4,4,0,0,1,.37,1.78,3.91,3.91,0,0,1-.37,1.77,2.85,2.85,0,0,1-1,1.18A2.79,2.79,0,0,1,51.68,34.14Zm0-.91a1.73,1.73,0,0,0,1.11-.34,2,2,0,0,0,.65-.91,3.43,3.43,0,0,0,.21-1.22,3.47,3.47,0,0,0-.21-1.22,2.12,2.12,0,0,0-.65-.92,1.92,1.92,0,0,0-2.21,0,2.12,2.12,0,0,0-.65.92,3.47,3.47,0,0,0-.21,1.22A3.43,3.43,0,0,0,49.93,32a2,2,0,0,0,.65.91A1.72,1.72,0,0,0,51.68,33.23Zm5.51-3.17V34h-1V27.45h1v1h.08a1.88,1.88,0,0,1,.7-.8,2.13,2.13,0,0,1,1.21-.31,2.43,2.43,0,0,1,1.17.27,1.81,1.81,0,0,1,.77.82,3,3,0,0,1,.28,1.38V34h-1V29.91a1.66,1.66,0,0,0-.4-1.2,1.42,1.42,0,0,0-1.1-.44,1.74,1.74,0,0,0-.86.21,1.45,1.45,0,0,0-.59.61A2,2,0,0,0,57.19,30.06Zm8.86-2.61v.86H62.66v-.86Zm-2.4-1.56h1v6.23a1.3,1.3,0,0,0,.13.64.64.64,0,0,0,.32.29,1.52,1.52,0,0,0,.42.06h.28l.17,0,.2.91a2.26,2.26,0,0,1-.28.07,2,2,0,0,1-1.3-.14,1.67,1.67,0,0,1-.68-.56,1.63,1.63,0,0,1-.26-.94Zm5.06,4.17V34h-1V25.27h1v3.21h.09a1.82,1.82,0,0,1,.69-.81,2.24,2.24,0,0,1,1.23-.3,2.41,2.41,0,0,1,1.17.27,1.75,1.75,0,0,1,.78.81A3,3,0,0,1,73,29.84V34H72V29.91a1.7,1.7,0,0,0-.4-1.21,1.48,1.48,0,0,0-1.12-.43,1.82,1.82,0,0,0-.88.21,1.52,1.52,0,0,0-.62.61A2.07,2.07,0,0,0,68.71,30.06Zm9.46,6.39v-9h1v1h.12l.31-.43a1.73,1.73,0,0,1,.57-.48,2.08,2.08,0,0,1,1-.21,2.65,2.65,0,0,1,1.46.41,2.85,2.85,0,0,1,1,1.17,4.8,4.8,0,0,1,0,3.6,2.85,2.85,0,0,1-1,1.17,2.49,2.49,0,0,1-1.44.42,2.08,2.08,0,0,1-1-.21,1.91,1.91,0,0,1-.58-.48c-.14-.19-.24-.34-.32-.46h-.08v3.46Zm1-5.72A3.56,3.56,0,0,0,79.38,32a2,2,0,0,0,.63.88,1.65,1.65,0,0,0,1,.31,1.68,1.68,0,0,0,1.06-.33,2.08,2.08,0,0,0,.64-.9,3.68,3.68,0,0,0,.21-1.27,3.52,3.52,0,0,0-.21-1.25,2,2,0,0,0-.63-.88A1.71,1.71,0,0,0,81,28.27a1.72,1.72,0,0,0-1,.31,1.92,1.92,0,0,0-.63.86A3.63,3.63,0,0,0,79.16,30.73Zm9.07,3.41a3,3,0,0,1-1.63-.42,2.76,2.76,0,0,1-1.06-1.18,4,4,0,0,1-.36-1.76A4.11,4.11,0,0,1,85.54,29a2.92,2.92,0,0,1,1-1.21,2.78,2.78,0,0,1,1.55-.43,3.26,3.26,0,0,1,1,.17,2.49,2.49,0,0,1,.9.55,2.6,2.6,0,0,1,.65,1,4.11,4.11,0,0,1,.25,1.54v.43h-5V30.2h4a2.13,2.13,0,0,0-.23-1,1.65,1.65,0,0,0-.62-.69,1.94,1.94,0,0,0-2,.05,1.89,1.89,0,0,0-.66.77,2.18,2.18,0,0,0-.24,1v.58a2.8,2.8,0,0,0,.26,1.26,1.82,1.82,0,0,0,.72.78,2.15,2.15,0,0,0,1.07.26,2,2,0,0,0,.71-.11,1.45,1.45,0,0,0,.92-.91l1,.27a2.13,2.13,0,0,1-.51.87,2.5,2.5,0,0,1-.89.58A3.29,3.29,0,0,1,88.23,34.14ZM92.47,34V27.45h1v1h.07a1.63,1.63,0,0,1,.64-.79,2,2,0,0,1,1.06-.3h.53v1l-.23,0a2.34,2.34,0,0,0-.38,0,1.85,1.85,0,0,0-.86.2,1.53,1.53,0,0,0-.58.55,1.4,1.4,0,0,0-.22.79V34Zm4.46,0V27.45h1V34Zm.51-7.64a.68.68,0,0,1-.5-.2.65.65,0,0,1,0-1,.74.74,0,0,1,1,0,.65.65,0,0,1,0,1A.69.69,0,0,1,97.44,26.36Zm5,7.78a2.81,2.81,0,0,1-1.56-.43,2.85,2.85,0,0,1-1-1.18,4.05,4.05,0,0,1-.37-1.77A4.1,4.1,0,0,1,99.84,29a2.75,2.75,0,0,1,2.6-1.61A2.75,2.75,0,0,1,105,29a4,4,0,0,1,.37,1.78,3.91,3.91,0,0,1-.37,1.77,2.79,2.79,0,0,1-1,1.18A2.76,2.76,0,0,1,102.44,34.14Zm0-.91a1.73,1.73,0,0,0,1.11-.34,2,2,0,0,0,.64-.91,3.43,3.43,0,0,0,.21-1.22,3.47,3.47,0,0,0-.21-1.22,2.1,2.1,0,0,0-.64-.92,1.94,1.94,0,0,0-2.22,0,2.1,2.1,0,0,0-.64.92,3.47,3.47,0,0,0-.21,1.22,3.43,3.43,0,0,0,.21,1.22,2,2,0,0,0,.64.91A1.73,1.73,0,0,0,102.44,33.23Zm7,.91a2.54,2.54,0,0,1-1.44-.42,2.76,2.76,0,0,1-1-1.17,4.68,4.68,0,0,1,0-3.6,2.76,2.76,0,0,1,1-1.17,2.65,2.65,0,0,1,1.46-.41,2.05,2.05,0,0,1,1,.21,1.73,1.73,0,0,1,.57.48c.13.18.24.32.31.43h.09V25.27h1V34h-1V33h-.12c-.07.12-.18.27-.31.46a1.89,1.89,0,0,1-1.6.69Zm.14-.91a1.65,1.65,0,0,0,1-.31,2.08,2.08,0,0,0,.64-.88,3.79,3.79,0,0,0,.21-1.31,3.63,3.63,0,0,0-.21-1.29,1.92,1.92,0,0,0-.63-.86,1.72,1.72,0,0,0-1-.31,1.71,1.71,0,0,0-1.07.33,2,2,0,0,0-.63.88,3.52,3.52,0,0,0-.21,1.25,3.68,3.68,0,0,0,.21,1.27,2.08,2.08,0,0,0,.64.9A1.7,1.7,0,0,0,109.55,33.23Z"></path><circle class="cls-4" cx="252" cy="212" r="5"></circle><g class="cls-6"><path class="cls-7" d="M74.5,196-16,208V452H505.91V19L458.46,44.45,404.5,98,354,128l-61,22.5-100,27Z"></path><path class="cls-8" d="M74.5,196-16,208V452H505.91V19L458.46,44.45,404.5,98,354,128l-61,22.5-100,27Z"></path></g><path class="cls-5" d="M267.77,216v-8.73H273v.94h-4.21v2.95h3.93v.94h-3.93v3h4.27V216Zm8-3.94V216h-1v-6.54h1v1h.09a1.87,1.87,0,0,1,.7-.8,2.11,2.11,0,0,1,1.21-.31,2.39,2.39,0,0,1,1.16.27,1.83,1.83,0,0,1,.78.82,3.08,3.08,0,0,1,.27,1.38V216h-1v-4.09a1.67,1.67,0,0,0-.4-1.2,1.42,1.42,0,0,0-1.1-.44,1.74,1.74,0,0,0-.86.21,1.45,1.45,0,0,0-.59.61A2,2,0,0,0,275.81,212.06Zm8.65,6.53a3.61,3.61,0,0,1-1.25-.19,2.59,2.59,0,0,1-.87-.48,2.5,2.5,0,0,1-.55-.64l.8-.56c.09.12.21.25.34.4a1.72,1.72,0,0,0,.58.41,2.14,2.14,0,0,0,.95.18,2.1,2.1,0,0,0,1.31-.39,1.38,1.38,0,0,0,.52-1.2v-1.33h-.09a4.72,4.72,0,0,1-.31.44,1.75,1.75,0,0,1-.58.47,2.22,2.22,0,0,1-1,.2,2.74,2.74,0,0,1-1.42-.38,2.56,2.56,0,0,1-1-1.09,3.8,3.8,0,0,1-.36-1.74,4,4,0,0,1,.35-1.75,2.74,2.74,0,0,1,1-1.16,2.65,2.65,0,0,1,1.46-.41,2.09,2.09,0,0,1,1,.21,1.73,1.73,0,0,1,.57.48c.14.18.25.32.32.43h.1v-1h1v6.73a2.24,2.24,0,0,1-.38,1.37,2.16,2.16,0,0,1-1,.78A3.83,3.83,0,0,1,284.46,218.59Zm0-3.6a1.85,1.85,0,0,0,1-.27,1.77,1.77,0,0,0,.64-.8,3.31,3.31,0,0,0,.22-1.24,3.44,3.44,0,0,0-.22-1.25,1.83,1.83,0,0,0-.63-.85,1.88,1.88,0,0,0-2.1,0,1.89,1.89,0,0,0-.63.87,3.3,3.3,0,0,0-.21,1.21,3.21,3.21,0,0,0,.21,1.2,1.89,1.89,0,0,0,.64.82A1.81,1.81,0,0,0,284.43,215Zm6.63,1.16a2.78,2.78,0,0,1-1.13-.23,1.88,1.88,0,0,1-1.1-1.78,1.66,1.66,0,0,1,.22-.91,1.49,1.49,0,0,1,.59-.55,2.77,2.77,0,0,1,.82-.3,9.1,9.1,0,0,1,.91-.16c.4-.06.72-.09,1-.12a1.38,1.38,0,0,0,.54-.14.35.35,0,0,0,.18-.34v0a1.36,1.36,0,0,0-.35-1,1.4,1.4,0,0,0-1-.34,1.8,1.8,0,0,0-1.12.31,1.86,1.86,0,0,0-.58.67l-1-.34a2.35,2.35,0,0,1,.68-.93,2.43,2.43,0,0,1,.94-.46,3.5,3.5,0,0,1,1-.14,4.05,4.05,0,0,1,.72.08,2.16,2.16,0,0,1,.8.3,1.74,1.74,0,0,1,.65.69,2.62,2.62,0,0,1,.25,1.25V216h-1v-.89H293a1.7,1.7,0,0,1-.35.46,1.86,1.86,0,0,1-.63.41A2.34,2.34,0,0,1,291.06,216.15Zm.15-.9a2.07,2.07,0,0,0,1-.23,1.64,1.64,0,0,0,.84-1.39v-.92a.64.64,0,0,1-.29.14,4,4,0,0,1-.49.11l-.54.07-.42.06a4.21,4.21,0,0,0-.74.16,1.25,1.25,0,0,0-.54.34.84.84,0,0,0-.21.6.91.91,0,0,0,.39.8A1.78,1.78,0,0,0,291.21,215.25Zm7.33,3.34a3.57,3.57,0,0,1-1.25-.19,2.57,2.57,0,0,1-1.43-1.12l.8-.56.35.4a1.67,1.67,0,0,0,.57.41,2.19,2.19,0,0,0,1,.18,2.12,2.12,0,0,0,1.31-.39,1.4,1.4,0,0,0,.51-1.2v-1.33h-.08a5.11,5.11,0,0,1-.32.44,1.66,1.66,0,0,1-.58.47,2.18,2.18,0,0,1-1,.2,2.72,2.72,0,0,1-1.42-.38,2.65,2.65,0,0,1-1-1.09,3.8,3.8,0,0,1-.36-1.74,4.14,4.14,0,0,1,.35-1.75,2.76,2.76,0,0,1,1-1.16,2.63,2.63,0,0,1,1.46-.41,2.08,2.08,0,0,1,1,.21,1.77,1.77,0,0,1,.58.48l.32.43h.1v-1h1v6.73a2.25,2.25,0,0,1-.39,1.37,2.16,2.16,0,0,1-1,.78A3.78,3.78,0,0,1,298.54,218.59Zm0-3.6a1.85,1.85,0,0,0,1-.27,1.69,1.69,0,0,0,.63-.8,3.12,3.12,0,0,0,.22-1.24,3.45,3.45,0,0,0-.21-1.25,1.9,1.9,0,0,0-.63-.85,1.75,1.75,0,0,0-1-.31,1.69,1.69,0,0,0-1.07.33,2,2,0,0,0-.64.87,3.53,3.53,0,0,0-.2,1.21,3.21,3.21,0,0,0,.21,1.2,1.82,1.82,0,0,0,.64.82A1.77,1.77,0,0,0,298.51,215Zm7.44,1.15a3.07,3.07,0,0,1-1.63-.42,2.87,2.87,0,0,1-1.05-1.18,3.9,3.9,0,0,1-.37-1.76,4,4,0,0,1,.37-1.77,2.92,2.92,0,0,1,1-1.21,2.76,2.76,0,0,1,1.55-.43,3.2,3.2,0,0,1,1,.17,2.53,2.53,0,0,1,.91.55,2.71,2.71,0,0,1,.65,1,4.33,4.33,0,0,1,.24,1.54v.43h-5v-.87h4a2.12,2.12,0,0,0-.22-1,1.72,1.72,0,0,0-.62-.69,1.84,1.84,0,0,0-.95-.25,1.79,1.79,0,0,0-1,.3,2,2,0,0,0-.67.77,2.3,2.3,0,0,0-.23,1v.58a2.8,2.8,0,0,0,.25,1.26,2,2,0,0,0,.72.78,2.1,2.1,0,0,0,1.07.26,2,2,0,0,0,.72-.11,1.59,1.59,0,0,0,.56-.34,1.5,1.5,0,0,0,.36-.57l1,.27a2.13,2.13,0,0,1-.51.87,2.54,2.54,0,0,1-.9.58A3.21,3.21,0,0,1,306,216.14Zm4.24-.14v-6.54h1v1h.08a1.73,1.73,0,0,1,.66-.82,2,2,0,0,1,1.1-.29,1.87,1.87,0,0,1,1.07.29,2,2,0,0,1,.68.82h.07a2,2,0,0,1,.75-.81,2.34,2.34,0,0,1,1.21-.3,2,2,0,0,1,1.44.55,2.29,2.29,0,0,1,.56,1.7V216h-1v-4.38a1.24,1.24,0,0,0-.4-1,1.49,1.49,0,0,0-.93-.31,1.36,1.36,0,0,0-1.07.42,1.52,1.52,0,0,0-.38,1.05V216h-1v-4.48a1.19,1.19,0,0,0-.36-.9,1.33,1.33,0,0,0-.94-.35,1.37,1.37,0,0,0-.73.21,1.62,1.62,0,0,0-.55.58,1.78,1.78,0,0,0-.2.85V216Zm13.18.14a3,3,0,0,1-1.63-.42,2.82,2.82,0,0,1-1.06-1.18,4,4,0,0,1-.36-1.76,4.11,4.11,0,0,1,.36-1.77,2.92,2.92,0,0,1,1-1.21,2.79,2.79,0,0,1,1.56-.43,3.24,3.24,0,0,1,1,.17,2.49,2.49,0,0,1,.9.55,2.6,2.6,0,0,1,.65,1,4.11,4.11,0,0,1,.25,1.54v.43H321v-.87h4a2.12,2.12,0,0,0-.22-1,1.65,1.65,0,0,0-.62-.69,1.92,1.92,0,0,0-2,0,1.92,1.92,0,0,0-.67.77,2.18,2.18,0,0,0-.24,1v.58a2.8,2.8,0,0,0,.26,1.26,1.82,1.82,0,0,0,.72.78,2.07,2.07,0,0,0,1.07.26,2,2,0,0,0,.71-.11,1.5,1.5,0,0,0,.56-.34,1.39,1.39,0,0,0,.36-.57l1,.27a2.27,2.27,0,0,1-.52.87,2.5,2.5,0,0,1-.89.58A3.29,3.29,0,0,1,323.37,216.14Zm5.24-4.08V216h-1v-6.54h1v1h.09a1.84,1.84,0,0,1,.69-.8,2.15,2.15,0,0,1,1.21-.31,2.43,2.43,0,0,1,1.17.27,1.81,1.81,0,0,1,.77.82,3,3,0,0,1,.28,1.38V216h-1v-4.09a1.67,1.67,0,0,0-.4-1.2,1.41,1.41,0,0,0-1.1-.44,1.77,1.77,0,0,0-.86.21,1.51,1.51,0,0,0-.59.61A2.07,2.07,0,0,0,328.61,212.06Zm8.86-2.6v.85h-3.39v-.85Zm-2.4-1.57h1v6.23a1.32,1.32,0,0,0,.12.64.61.61,0,0,0,.32.28,1.25,1.25,0,0,0,.43.07h.27l.17,0,.2.91a2.26,2.26,0,0,1-.28.07,2,2,0,0,1-.47.05,2,2,0,0,1-.83-.19,1.67,1.67,0,0,1-.68-.56,1.63,1.63,0,0,1-.26-.94Zm9.95,8.25a2.76,2.76,0,0,1-1.55-.43,2.79,2.79,0,0,1-1-1.18,3.91,3.91,0,0,1-.38-1.77,4,4,0,0,1,.38-1.78,2.86,2.86,0,0,1,5.18,0,4,4,0,0,1,.38,1.78,3.91,3.91,0,0,1-.38,1.77,2.79,2.79,0,0,1-1,1.18A2.76,2.76,0,0,1,345,216.14Zm0-.91a1.73,1.73,0,0,0,1.11-.34,2.07,2.07,0,0,0,.64-.91,3.65,3.65,0,0,0,0-2.44,2,2,0,0,0-.64-.92,1.94,1.94,0,0,0-2.22,0,2,2,0,0,0-.64.92,3.65,3.65,0,0,0,0,2.44,2.07,2.07,0,0,0,.64.91A1.73,1.73,0,0,0,345,215.23Zm5.51-3.17V216h-1v-6.54h1v1h.09a1.8,1.8,0,0,1,.7-.8,2.11,2.11,0,0,1,1.21-.31,2.39,2.39,0,0,1,1.16.27,1.88,1.88,0,0,1,.78.82,3.08,3.08,0,0,1,.27,1.38V216h-1v-4.09a1.67,1.67,0,0,0-.4-1.2,1.44,1.44,0,0,0-1.1-.44,1.74,1.74,0,0,0-.86.21,1.53,1.53,0,0,0-.6.61A2.07,2.07,0,0,0,350.53,212.06Zm9.05-3.85v-.94h6.54v.94h-2.74V216h-1.06v-7.79Zm7.36,7.79v-6.54h1v1H368a1.63,1.63,0,0,1,.64-.79,2,2,0,0,1,1.06-.3h.53v1l-.24,0a2.13,2.13,0,0,0-.37,0,1.85,1.85,0,0,0-.86.2,1.64,1.64,0,0,0-.59.55,1.48,1.48,0,0,0-.21.79V216Zm6.39.15a2.75,2.75,0,0,1-1.13-.23,2,2,0,0,1-.81-.69,1.91,1.91,0,0,1-.3-1.09,1.66,1.66,0,0,1,.23-.91,1.42,1.42,0,0,1,.59-.55,2.67,2.67,0,0,1,.82-.3c.3-.07.6-.12.9-.16s.72-.09,1-.12a1.49,1.49,0,0,0,.55-.14.36.36,0,0,0,.17-.34v0a1.35,1.35,0,0,0-.34-1,1.42,1.42,0,0,0-1-.34,1.81,1.81,0,0,0-1.13.31,1.93,1.93,0,0,0-.57.67l-1-.34A2.44,2.44,0,0,1,372,210a2.5,2.5,0,0,1,.94-.46,3.57,3.57,0,0,1,1-.14,4.05,4.05,0,0,1,.72.08,2.23,2.23,0,0,1,.8.3,1.72,1.72,0,0,1,.64.69,2.61,2.61,0,0,1,.26,1.25V216h-1v-.89h-.05a1.64,1.64,0,0,1-.34.46,1.91,1.91,0,0,1-.64.41A2.29,2.29,0,0,1,373.33,216.15Zm.15-.9a2.09,2.09,0,0,0,1-.23,1.65,1.65,0,0,0,.62-.61,1.58,1.58,0,0,0,.21-.78v-.92a.59.59,0,0,1-.28.14,4.53,4.53,0,0,1-.49.11L374,213l-.43.06a4.1,4.1,0,0,0-.73.16,1.23,1.23,0,0,0-.55.34.89.89,0,0,0-.2.6.91.91,0,0,0,.39.8A1.78,1.78,0,0,0,373.48,215.25Zm7.15.89a2.54,2.54,0,0,1-1.44-.42,2.77,2.77,0,0,1-1-1.17,4.21,4.21,0,0,1-.35-1.81,4.1,4.1,0,0,1,.35-1.78,2.8,2.8,0,0,1,1-1.18,2.65,2.65,0,0,1,1.46-.41,2.05,2.05,0,0,1,1,.21,1.73,1.73,0,0,1,.57.48c.14.18.24.32.31.43h.09v-3.22h1V216h-1v-1h-.12c-.07.12-.18.27-.31.46a2,2,0,0,1-.59.48A2.08,2.08,0,0,1,380.63,216.14Zm.14-.91a1.63,1.63,0,0,0,1-.31,2,2,0,0,0,.64-.88,3.78,3.78,0,0,0,.22-1.31,3.33,3.33,0,0,0-.22-1.28,1.84,1.84,0,0,0-.63-.87,1.72,1.72,0,0,0-1-.31,1.71,1.71,0,0,0-1.07.33,2,2,0,0,0-.63.88,3.52,3.52,0,0,0-.21,1.25,3.46,3.46,0,0,0,.22,1.27,2,2,0,0,0,.63.9A1.7,1.7,0,0,0,380.77,215.23Zm7.59.91a3,3,0,0,1-1.63-.42,2.82,2.82,0,0,1-1.06-1.18,4,4,0,0,1-.36-1.76,4.11,4.11,0,0,1,.36-1.77,2.94,2.94,0,0,1,1-1.21,2.76,2.76,0,0,1,1.55-.43,3.24,3.24,0,0,1,1,.17,2.49,2.49,0,0,1,.9.55,2.61,2.61,0,0,1,.66,1,4.33,4.33,0,0,1,.24,1.54v.43H386v-.87h4a2.25,2.25,0,0,0-.22-1,1.75,1.75,0,0,0-.63-.69,1.92,1.92,0,0,0-2,0,1.92,1.92,0,0,0-.67.77,2.17,2.17,0,0,0-.23,1v.58a2.8,2.8,0,0,0,.25,1.26,1.82,1.82,0,0,0,.72.78,2.07,2.07,0,0,0,1.07.26,2.09,2.09,0,0,0,.72-.11,1.55,1.55,0,0,0,.55-.34,1.52,1.52,0,0,0,.37-.57l1,.27a2.15,2.15,0,0,1-.52.87,2.5,2.5,0,0,1-.89.58A3.29,3.29,0,0,1,388.36,216.14Zm4.38-.14v-8.73h1.05v7.79h4.06V216Zm9.27.14a2.81,2.81,0,0,1-1.56-.43,2.85,2.85,0,0,1-1-1.18,4.05,4.05,0,0,1-.37-1.77,4.1,4.1,0,0,1,.37-1.78,2.75,2.75,0,0,1,2.6-1.61A2.75,2.75,0,0,1,404.6,211a4,4,0,0,1,.38,1.78,3.91,3.91,0,0,1-.38,1.77,2.79,2.79,0,0,1-1,1.18A2.76,2.76,0,0,1,402,216.14Zm0-.91a1.73,1.73,0,0,0,1.11-.34,2.07,2.07,0,0,0,.64-.91,3.65,3.65,0,0,0,0-2.44,2,2,0,0,0-.64-.92,1.94,1.94,0,0,0-2.22,0,2,2,0,0,0-.64.92,3.65,3.65,0,0,0,0,2.44,2.07,2.07,0,0,0,.64.91A1.73,1.73,0,0,0,402,215.23Zm7.16.91a2.74,2.74,0,0,1-2.61-1.64,4,4,0,0,1-.36-1.74,4.1,4.1,0,0,1,.37-1.76,3,3,0,0,1,1-1.2,2.76,2.76,0,0,1,1.55-.43,3.13,3.13,0,0,1,1.25.25,2.29,2.29,0,0,1,.9.72,2.16,2.16,0,0,1,.44,1.07h-1a1.64,1.64,0,0,0-.51-.79,1.57,1.57,0,0,0-1.06-.35,1.79,1.79,0,0,0-1,.31,2.06,2.06,0,0,0-.69.86,3.16,3.16,0,0,0-.24,1.29,3.38,3.38,0,0,0,.24,1.32,2.06,2.06,0,0,0,.68.87,1.73,1.73,0,0,0,1,.31,1.8,1.8,0,0,0,.71-.13,1.5,1.5,0,0,0,.54-.39,1.66,1.66,0,0,0,.32-.62h1a2.17,2.17,0,0,1-.42,1,2.28,2.28,0,0,1-.88.74A2.83,2.83,0,0,1,409.17,216.14Zm5-2.53,0-1.24h.21l2.86-2.91h1.25l-3.06,3.08h-.08Zm-.94,2.39v-8.73h1V216Zm4.16,0-2.55-3.24.71-.7,3.12,3.94Zm4.85.14a3.08,3.08,0,0,1-1.64-.42,2.87,2.87,0,0,1-1.05-1.18,4,4,0,0,1-.37-1.76,4.11,4.11,0,0,1,.37-1.77,2.92,2.92,0,0,1,1-1.21,2.78,2.78,0,0,1,1.55-.43,3.2,3.2,0,0,1,1,.17,2.44,2.44,0,0,1,.91.55,2.71,2.71,0,0,1,.65,1,4.11,4.11,0,0,1,.25,1.54v.43h-5.05v-.87h4a2.12,2.12,0,0,0-.22-1,1.65,1.65,0,0,0-.62-.69,1.94,1.94,0,0,0-2,0,2,2,0,0,0-.67.77,2.3,2.3,0,0,0-.23,1v.58a2.8,2.8,0,0,0,.26,1.26,1.82,1.82,0,0,0,.72.78,2,2,0,0,0,1.07.26,2,2,0,0,0,.71-.11,1.59,1.59,0,0,0,.56-.34,1.39,1.39,0,0,0,.36-.57l1,.27a2.13,2.13,0,0,1-.51.87,2.45,2.45,0,0,1-.9.58A3.19,3.19,0,0,1,422.22,216.14Zm4.24-.14v-6.54h1v1h.06a1.65,1.65,0,0,1,.65-.79,2,2,0,0,1,1.06-.3h.53v1l-.24,0a2.17,2.17,0,0,0-.38,0,1.84,1.84,0,0,0-.85.2,1.64,1.64,0,0,0-.59.55,1.48,1.48,0,0,0-.21.79V216Z"></path></svg>