<svg xmlns="http://www.w3.org/2000/svg" width="38" height="35" viewBox="0 0 38 35" fill="none"><path fill-rule="evenodd" clip-rule="evenodd" d="M11.3203 2.69127C9.29694 2.69127 7.35648 3.49504 5.92576 4.92576C4.49504 6.35648 3.69127 8.29694 3.69127 10.3203V24.6797C3.69127 28.8931 7.1069 32.3087 11.3203 32.3087H25.6797C27.7031 32.3087 29.6435 31.505 31.0742 30.0742C32.505 28.6435 33.3087 26.7031 33.3087 24.6797V10.3203C33.3087 6.1069 29.8931 2.69127 25.6797 2.69127H11.3203ZM4.02274 3.02274C5.95817 1.08731 8.58317 0 11.3203 0H25.6797C31.3795 0 36 4.62055 36 10.3203V24.6797C36 27.4168 34.9127 30.0418 32.9773 31.9773C31.0418 33.9127 28.4168 35 25.6797 35H11.3203C5.62055 35 1 30.3795 1 24.6797V10.3203C1 7.58317 2.08731 4.95817 4.02274 3.02274ZM20.5791 10.223C21.2937 10.4272 21.7075 11.172 21.5033 11.8866L18.0844 23.8528C17.8802 24.5673 17.1355 24.9811 16.4209 24.777C15.7063 24.5728 15.2925 23.828 15.4967 23.1134L18.9156 11.1472C19.1198 10.4327 19.8646 10.0189 20.5791 10.223ZM13.8944 11.4209C14.4199 11.9464 14.4199 12.7984 13.8944 13.324L11.4281 15.7902L13.8947 18.2581C14.42 18.7837 14.4198 19.6357 13.8942 20.1611C13.3685 20.6865 12.5165 20.6862 11.9911 20.1606L8.5736 16.7412C8.04833 16.2157 8.04844 15.3639 8.57385 14.8385L11.9914 11.4209C12.5169 10.8954 13.3689 10.8954 13.8944 11.4209ZM23.1056 14.8403C23.6311 14.3148 24.4831 14.3148 25.0086 14.8403L28.4262 18.2578C28.9516 18.7832 28.9517 19.635 28.4264 20.1606L25.0089 23.5799C24.4835 24.1056 23.6315 24.1058 23.1058 23.5804C22.5802 23.0551 22.58 22.2031 23.1053 21.6774L25.5719 19.2096L23.1056 16.7433C22.5801 16.2178 22.5801 15.3658 23.1056 14.8403Z" fill="white"></path></svg>