<svg xmlns="http://www.w3.org/2000/svg" xmlns:xlink="http://www.w3.org/1999/xlink" id="Layer_1" x="0px" y="0px" viewBox="0 0 456 302.3" style="enable-background:new 0 0 456 302.3;" xml:space="preserve"><style type="text/css">	.st0{fill:none;stroke:#4AD9A6;}	.st1{fill:#141620;stroke:#323335;stroke-miterlimit:10;}	.st2{fill:none;stroke:#FF883F;}	.st3{fill:none;stroke:#4D7BFF;}	.st4{fill:none;stroke:#964DF6;}	.st5{fill:#FFFFFF;}	.st6{fill:#FF883F;}	.st7{clip-path:url(#SVGID_2_);fill:#FFFFFF;}	.st8{clip-path:url(#SVGID_4_);fill:#FFFFFF;}	.st9{fill:#DF3434;}	.st10{fill:#DF9B34;}	.st11{fill:#359A73;}</style><path class="st0" d="M140.5,67.6L140.5,67.6c7.4,0,13.8,5,15.6,12.1l5.1,19.9c4.9,18.8,21.8,32,41.3,32H316"></path><path class="st1" d="M130.3,47.2H11.1c-5.9,0-10.7,4.7-10.7,10.6v22.4c0,5.9,4.8,10.7,10.7,10.7h119.2c5.9,0,10.7-4.8,10.7-10.7 V57.8C141,51.9,136.2,47.2,130.3,47.2z"></path><path class="st1" d="M130.3,101.9H11.1c-5.9,0-10.7,4.8-10.7,10.7V135c0,5.9,4.8,10.6,10.7,10.6h119.2c5.9,0,10.7-4.8,10.7-10.7 v-22.3C141,106.7,136.2,101.9,130.3,101.9z"></path><path class="st1" d="M130.3,157.8H11.1c-5.9,0-10.7,4.8-10.7,10.7v22.4c0,5.9,4.8,10.7,10.7,10.7h119.2c5.9,0,10.7-4.8,10.7-10.7 v-22.4C141,162.6,136.2,157.8,130.3,157.8z"></path><path class="st1" d="M130.3,211.5H11.1c-5.9,0-10.7,4.8-10.7,10.7v22.4c0,5.9,4.8,10.7,10.7,10.7h119.2c5.9,0,10.7-4.8,10.7-10.7 v-22.4C141,216.3,136.2,211.5,130.3,211.5z"></path><path class="st2" d="M140,233.1L140,233.1c7.4,0,13.8-5,15.7-12.1l5.1-19.9c4.9-18.8,21.9-32,41.3-32H316"></path><path class="st3" d="M140,124.1h2.2c7.1,0,13.8,3.5,17.8,9.3l0,0c5,7.3,13.4,11.7,22.2,11.7H316"></path><path class="st4" d="M140,178.1h2.2c7.1,0,13.8-3.5,17.8-9.3l0,0c5-7.3,13.4-11.7,22.2-11.7H316"></path><path class="st1" d="M262.4,108.7h-58.7c-6.1,0-11,4.9-11,11v59.5c0,6.1,4.9,11,11,11h58.7c6.1,0,11-4.9,11-11v-59.4 C273.5,113.7,268.5,108.7,262.4,108.7z"></path><path class="st5" d="M33.5,237.6v-9.9h5.9v1.6h-4.3v2.6h3.4v1.6h-3.4v4.3h-1.6V237.6z M40.5,237.6v-9.9h1.6v9.9H40.5z M44.8,237.6 h-2l3.8-5l-3.6-4.9h1.9l2.7,3.6l2.7-3.6h1.9l-3.6,4.9l3.8,5h-2l-2.8-3.7L44.8,237.6z M53,239.8l0.7-2.2h-0.9v-2h2v2l-0.9,2.2H53z  M60,237.8c-1.1,0-1.9-0.3-2.5-1l1-1.2c0.4,0.5,0.9,0.7,1.5,0.7c0.9,0,1.3-0.5,1.3-1.4v-7.1h1.6v7.2c0,1-0.3,1.7-0.8,2.2 C61.5,237.5,60.9,237.8,60,237.8z M67.4,237.7c-1,0-1.9-0.4-2.5-1.1c-0.7-0.7-1-1.6-1-2.6s0.3-1.9,1-2.6c0.7-0.7,1.5-1.1,2.5-1.1 c0.9,0,1.5,0.3,2,0.8v-0.5H71v7h-1.5v-0.7C69,237.5,68.3,237.7,67.4,237.7z M67.6,236.3c0.8,0,1.4-0.3,1.9-1v-2.5 c-0.4-0.6-1.1-1-1.9-1c-0.6,0-1.1,0.2-1.5,0.7c-0.4,0.4-0.6,1-0.6,1.6s0.2,1.2,0.6,1.6C66.5,236.1,67,236.3,67.6,236.3z M74.8,237.6 l-3.2-7h1.7l2.1,4.9l2.1-4.9h1.7l-3.2,7H74.8z M82.7,237.7c-1,0-1.9-0.4-2.5-1.1c-0.7-0.7-1-1.6-1-2.6s0.3-1.9,1-2.6 c0.7-0.7,1.5-1.1,2.5-1.1c0.9,0,1.5,0.3,2,0.8v-0.5h1.5v7h-1.5v-0.7C84.3,237.5,83.6,237.7,82.7,237.7z M82.9,236.3 c0.8,0,1.4-0.3,1.9-1v-2.5c-0.4-0.6-1.1-1-1.9-1c-0.6,0-1.1,0.2-1.5,0.7c-0.4,0.4-0.6,1-0.6,1.6s0.2,1.2,0.6,1.6 C81.8,236.1,82.3,236.3,82.9,236.3z M89.3,237.6l4.3-9.9H95l4.3,9.9h-1.7l-1.1-2.6H92l-1,2.6H89.3z M94.3,229.9l-1.6,3.7h3.2 L94.3,229.9z M105.8,228.6c0.6,0.6,1,1.4,1,2.3s-0.3,1.7-1,2.3c-0.6,0.6-1.5,0.9-2.5,0.9h-1.5v3.4h-1.6v-9.9h3.2 C104.3,227.7,105.2,228,105.8,228.6z M104.7,232.1c0.3-0.3,0.5-0.7,0.5-1.2s-0.2-0.9-0.5-1.2s-0.8-0.5-1.3-0.5h-1.5v3.4h1.5 C103.9,232.6,104.3,232.5,104.7,232.1z M107.9,237.6v-9.9h1.6v9.9H107.9z"></path><path class="st5" d="M18.3,183.6v-9.9h6v1.6H20v2.5h3.5v1.6H20v2.7h4.3v1.6h-6V183.6z M30.1,183.6l-1.9-2.4l-1.9,2.4h-1.9l2.8-3.5 l-2.6-3.5h1.8l1.8,2.4l1.8-2.4h1.8l-2.6,3.5l2.8,3.5H30.1z M35.4,183.7c-1.1,0-1.9-0.3-2.6-1c-0.7-0.7-1-1.6-1-2.6s0.3-1.9,1-2.6 c0.7-0.7,1.6-1.1,2.6-1.1s1.8,0.3,2.4,0.9c0.6,0.6,1,1.5,1,2.5c0,0.2,0,0.4,0,0.5h-5.5c0,0.6,0.3,1,0.7,1.4c0.4,0.3,0.9,0.5,1.5,0.5 c0.9,0,1.6-0.4,2-1.1l1.2,0.8C37.9,183.2,36.9,183.7,35.4,183.7z M33.3,179.3h3.9c-0.1-0.5-0.3-0.9-0.7-1.1 c-0.3-0.3-0.8-0.4-1.2-0.4c-0.5,0-0.9,0.1-1.3,0.4C33.7,178.4,33.4,178.8,33.3,179.3z M43.1,183.7c-1.1,0-1.9-0.3-2.6-1 c-0.7-0.7-1.1-1.6-1.1-2.6s0.4-1.9,1.1-2.6c0.7-0.7,1.6-1.1,2.6-1.1c0.7,0,1.4,0.2,1.9,0.5c0.6,0.3,1,0.8,1.3,1.4L45,179 c-0.2-0.4-0.4-0.7-0.8-0.9c-0.3-0.2-0.7-0.3-1.1-0.3c-0.6,0-1.1,0.2-1.5,0.6c-0.4,0.4-0.6,0.9-0.6,1.6s0.2,1.2,0.6,1.6 c0.4,0.4,0.9,0.6,1.5,0.6c0.4,0,0.8-0.1,1.1-0.3s0.6-0.5,0.8-0.9l1.3,0.7c-0.3,0.6-0.8,1.1-1.3,1.4 C44.4,183.6,43.8,183.7,43.1,183.7z M53.3,176.6v7h-1.5v-0.7c-0.4,0.6-1.1,0.9-1.9,0.9c-0.8,0-1.5-0.3-2-0.8s-0.7-1.3-0.7-2.2v-4.2 h1.5v3.9c0,0.6,0.1,1,0.4,1.3c0.3,0.3,0.6,0.5,1.1,0.5c0.4,0,0.7-0.1,1-0.3s0.5-0.5,0.6-0.8v-4.6H53.3z M58.2,183.7 c-0.7,0-1.3-0.2-1.8-0.6c-0.4-0.4-0.7-1-0.7-1.7V178H54v-1.4h1.7v-2h1.5v2h2.1v1.4h-2.1v3.1c0,0.8,0.4,1.2,1.1,1.2 c0.4,0,0.7-0.1,1-0.3l0.5,1.3C59.4,183.6,58.8,183.7,58.2,183.7z M61.3,175.4c-0.3,0-0.5-0.1-0.7-0.3s-0.3-0.5-0.3-0.7 c0-0.3,0.1-0.5,0.3-0.7s0.4-0.3,0.7-0.3s0.5,0.1,0.7,0.3c0.2,0.2,0.3,0.4,0.3,0.7s-0.1,0.5-0.3,0.7S61.6,175.4,61.3,175.4z  M60.5,183.6v-7H62v7H60.5z M69.4,182.7c-0.7,0.7-1.6,1.1-2.6,1.1s-1.9-0.4-2.6-1.1c-0.7-0.7-1.1-1.6-1.1-2.6s0.4-1.9,1.1-2.6 c0.7-0.7,1.6-1.1,2.6-1.1s1.9,0.4,2.6,1.1c0.7,0.7,1.1,1.6,1.1,2.6S70.1,182,69.4,182.7z M66.8,182.3c0.6,0,1.1-0.2,1.5-0.6 c0.4-0.4,0.6-1,0.6-1.6s-0.2-1.1-0.6-1.6c-0.4-0.4-0.9-0.6-1.5-0.6s-1.1,0.2-1.5,0.6c-0.4,0.4-0.6,0.9-0.6,1.6s0.2,1.2,0.6,1.6 C65.7,182.1,66.2,182.3,66.8,182.3z M71.5,183.6v-7H73v0.7c0.5-0.6,1.2-0.9,2.1-0.9c0.8,0,1.5,0.3,2,0.8s0.8,1.2,0.8,2.1v4.2h-1.5 v-3.9c0-0.6-0.1-1-0.4-1.3s-0.6-0.5-1.1-0.5c-0.8,0-1.4,0.4-1.7,1.1v4.6L71.5,183.6L71.5,183.6z M84,183.6l-3.2-7h1.7l2.1,4.9 l2.1-4.9h1.7l-3.2,7H84z M92.1,183.7c-1.1,0-1.9-0.3-2.6-1s-1-1.6-1-2.6s0.3-1.9,1-2.6c0.7-0.7,1.6-1.1,2.6-1.1s1.8,0.3,2.4,0.9 c0.6,0.6,1,1.5,1,2.5c0,0.2,0,0.4,0,0.5H90c0,0.6,0.3,1,0.7,1.4c0.4,0.3,0.9,0.5,1.5,0.5c0.9,0,1.6-0.4,2-1.1l1.2,0.8 C94.6,183.2,93.5,183.7,92.1,183.7z M90,179.3h3.9c-0.1-0.5-0.3-0.9-0.7-1.1c-0.3-0.3-0.8-0.4-1.2-0.4c-0.5,0-0.9,0.1-1.3,0.4 C90.4,178.4,90.1,178.8,90,179.3z M96.5,183.6v-7H98v0.7c0.5-0.6,1.2-0.9,2.1-0.9c0.8,0,1.5,0.3,2,0.8s0.8,1.2,0.8,2.1v4.2h-1.5 v-3.9c0-0.6-0.1-1-0.4-1.3s-0.6-0.5-1.1-0.5c-0.8,0-1.4,0.4-1.7,1.1v4.6L96.5,183.6L96.5,183.6z M110.5,176.6v7H109v-0.7 c-0.4,0.6-1.1,0.9-1.9,0.9s-1.5-0.3-2-0.8s-0.7-1.3-0.7-2.2v-4.2h1.5v3.9c0,0.6,0.1,1,0.4,1.3s0.6,0.5,1.1,0.5c0.4,0,0.7-0.1,1-0.3 s0.5-0.5,0.6-0.8v-4.6H110.5z M115.2,183.7c-1.1,0-1.9-0.3-2.6-1s-1-1.6-1-2.6s0.3-1.9,1-2.6c0.7-0.7,1.6-1.1,2.6-1.1 s1.8,0.3,2.4,0.9c0.6,0.6,1,1.5,1,2.5c0,0.2,0,0.4,0,0.5H113c0,0.6,0.3,1,0.7,1.4c0.4,0.3,0.9,0.5,1.5,0.5c0.9,0,1.6-0.4,2-1.1 l1.2,0.8C117.7,183.2,116.6,183.7,115.2,183.7z M113.1,179.3h3.9c-0.1-0.5-0.3-0.9-0.7-1.1c-0.3-0.3-0.8-0.4-1.2-0.4 c-0.5,0-0.9,0.1-1.3,0.4C113.5,178.4,113.2,178.8,113.1,179.3z M121.9,183.7c-0.6,0-1.2-0.1-1.7-0.4c-0.5-0.3-0.9-0.6-1.1-1.1 l1.1-0.8c0.1,0.3,0.4,0.5,0.7,0.7c0.3,0.2,0.6,0.3,1,0.3c0.3,0,0.5-0.1,0.7-0.2c0.2-0.1,0.3-0.3,0.3-0.5s-0.1-0.4-0.2-0.5 s-0.4-0.3-0.8-0.4l-0.6-0.2c-1.2-0.3-1.9-1.1-1.8-2.1c0-0.6,0.2-1.1,0.7-1.5s1.1-0.5,1.8-0.5c1.1,0,1.9,0.4,2.4,1.2l-1.1,0.8 c-0.4-0.5-0.8-0.7-1.3-0.7c-0.3,0-0.5,0.1-0.7,0.2c-0.2,0.1-0.3,0.3-0.3,0.5s0.1,0.3,0.2,0.5c0.1,0.1,0.3,0.2,0.7,0.4l0.7,0.2 c0.7,0.2,1.1,0.5,1.5,0.8c0.3,0.3,0.5,0.8,0.5,1.3c0,0.7-0.2,1.2-0.7,1.6C123.2,183.5,122.6,183.7,121.9,183.7z"></path><path class="st5" d="M45.3,128.6v-9.9h1.6v8.4h4.5v1.5H45.3z M53,120.4c-0.3,0-0.5-0.1-0.7-0.3c-0.2-0.2-0.3-0.5-0.3-0.8 s0.1-0.5,0.3-0.7s0.4-0.3,0.7-0.3s0.5,0.1,0.7,0.3c0.2,0.2,0.3,0.4,0.3,0.7c0,0.3-0.1,0.5-0.3,0.7C53.5,120.3,53.3,120.4,53,120.4z  M52.2,128.6v-7h1.5v7H52.2z M60.4,131.3v-3.4c-0.5,0.5-1.2,0.8-2,0.8c-1,0-1.9-0.4-2.5-1.1c-0.7-0.7-1-1.6-1-2.6s0.3-1.9,1-2.6 s1.5-1.1,2.5-1.1c0.9,0,1.5,0.3,2,0.8v-0.5h1.5v9.7H60.4z M58.5,127.3c0.8,0,1.4-0.3,1.9-1v-2.5c-0.4-0.6-1.1-1-1.9-1 c-0.6,0-1.1,0.2-1.5,0.7c-0.4,0.4-0.6,1-0.6,1.6s0.2,1.2,0.6,1.6C57.4,127.1,57.9,127.3,58.5,127.3z M69.6,121.6v7h-1.5v-0.7 c-0.4,0.6-1.1,0.9-1.9,0.9s-1.5-0.3-2-0.8s-0.7-1.3-0.7-2.2v-4.2H65v3.9c0,0.6,0.1,1,0.4,1.3s0.6,0.5,1.1,0.5c0.4,0,0.7-0.1,1-0.3 c0.3-0.2,0.5-0.5,0.6-0.8v-4.6H69.6z M71.9,120.4c-0.3,0-0.5-0.1-0.7-0.3c-0.2-0.2-0.3-0.5-0.3-0.7c0-0.3,0.1-0.5,0.3-0.7 c0.2-0.2,0.4-0.3,0.7-0.3c0.3,0,0.5,0.1,0.7,0.3c0.2,0.2,0.3,0.4,0.3,0.7c0,0.3-0.1,0.5-0.3,0.7C72.5,120.3,72.2,120.4,71.9,120.4z  M71.2,128.6v-7h1.5v7H71.2z M77.3,128.7c-1,0-1.9-0.4-2.5-1.1c-0.7-0.7-1-1.6-1-2.6s0.3-1.9,1-2.6s1.5-1.1,2.5-1.1 c0.9,0,1.5,0.3,2,0.8v-3.9h1.5v10.4h-1.5v-0.7C78.8,128.5,78.1,128.7,77.3,128.7z M77.5,127.3c0.8,0,1.4-0.3,1.9-1v-2.5 c-0.4-0.6-1.1-1-1.9-1c-0.6,0-1.1,0.2-1.5,0.7c-0.4,0.4-0.6,1-0.6,1.6s0.2,1.2,0.6,1.6C76.3,127.1,76.8,127.3,77.5,127.3z  M83.2,120.4c-0.3,0-0.5-0.1-0.7-0.3c-0.2-0.2-0.3-0.5-0.3-0.7c0-0.3,0.1-0.5,0.3-0.7c0.2-0.2,0.4-0.3,0.7-0.3 c0.3,0,0.5,0.1,0.7,0.3c0.2,0.2,0.3,0.4,0.3,0.7c0,0.3-0.1,0.5-0.3,0.7C83.7,120.3,83.5,120.4,83.2,120.4z M82.4,128.6v-7H84v7H82.4 z M88.9,128.7c-0.7,0-1.3-0.2-1.8-0.6c-0.4-0.4-0.7-1-0.7-1.7V123h-1.7v-1.4h1.7v-2H88v2h2.1v1.4H88v3.1c0,0.8,0.4,1.2,1.1,1.2 c0.4,0,0.7-0.1,1-0.3l0.5,1.3C90,128.6,89.5,128.7,88.9,128.7z M93.5,131.3h-1.7l1.4-3.1l-3-6.6h1.7l2.1,5l2.2-5h1.7L93.5,131.3z"></path><path class="st5" d="M33.9,72.8c-1.4,0-2.6-0.5-3.6-1.5s-1.5-2.2-1.5-3.7c0-1.4,0.5-2.7,1.5-3.6c1-1,2.2-1.5,3.6-1.5 c1,0,1.8,0.2,2.6,0.7c0.8,0.4,1.4,1.1,1.9,1.8L37,65.8c-0.7-1.2-1.7-1.8-3.1-1.8c-1,0-1.8,0.3-2.5,1c-0.7,0.7-1,1.5-1,2.5 s0.3,1.8,1,2.5c0.7,0.7,1.5,1,2.5,1c1.3,0,2.3-0.6,3.1-1.8l1.4,0.8c-0.5,0.8-1.1,1.4-1.9,1.8C35.7,72.5,34.9,72.8,33.9,72.8z  M45,71.7c-0.7,0.7-1.6,1-2.6,1s-1.9-0.3-2.6-1c-0.7-0.7-1-1.6-1-2.6s0.4-1.9,1-2.6c0.7-0.7,1.6-1.1,2.6-1.1s1.9,0.4,2.6,1.1 c0.7,0.7,1.1,1.6,1.1,2.6S45.7,71,45,71.7z M42.4,71.3c0.6,0,1.1-0.2,1.5-0.6c0.4-0.4,0.6-1,0.6-1.6s-0.2-1.1-0.6-1.6 c-0.4-0.4-0.9-0.6-1.5-0.6s-1.1,0.2-1.5,0.6s-0.6,0.9-0.6,1.6c0,0.7,0.2,1.2,0.6,1.6C41.3,71.1,41.8,71.3,42.4,71.3z M53.2,65.6v7 h-1.5v-0.7c-0.4,0.6-1.1,0.9-1.9,0.9c-0.8,0-1.5-0.3-2-0.8s-0.7-1.3-0.7-2.2v-4.2h1.5v3.9c0,0.6,0.1,1,0.4,1.3 c0.3,0.3,0.6,0.5,1.1,0.5c0.4,0,0.7-0.1,1-0.3c0.3-0.2,0.5-0.5,0.6-0.8v-4.6H53.2z M54.8,72.6v-7h1.5v0.7c0.5-0.6,1.2-0.9,2.1-0.9 c0.8,0,1.5,0.3,2,0.8s0.8,1.2,0.8,2.1v4.3h-1.5v-3.9c0-0.6-0.1-1-0.4-1.3c-0.3-0.3-0.6-0.5-1.1-0.5c-0.8,0-1.4,0.4-1.7,1.1v4.6H54.8 z M65.8,72.7c-0.7,0-1.3-0.2-1.8-0.6c-0.4-0.4-0.7-1-0.7-1.7V67h-1.7v-1.4h1.7v-2h1.5v2h2.1V67h-2.1v3.1c0,0.8,0.4,1.2,1.1,1.2 c0.4,0,0.7-0.1,1-0.3l0.5,1.3C67,72.6,66.5,72.7,65.8,72.7z M71.2,72.7c-1.1,0-1.9-0.3-2.6-1c-0.7-0.7-1-1.6-1-2.6s0.3-1.9,1-2.6 c0.7-0.7,1.6-1,2.6-1s1.8,0.3,2.4,0.9c0.6,0.6,1,1.5,1,2.5c0,0.2,0,0.4,0,0.5h-5.5c0,0.6,0.3,1,0.7,1.4c0.4,0.3,0.9,0.5,1.5,0.5 c0.9,0,1.6-0.4,2-1.1l1.2,0.8C73.7,72.2,72.7,72.7,71.2,72.7z M69.1,68.3H73c-0.1-0.5-0.3-0.9-0.7-1.1c-0.3-0.3-0.8-0.4-1.2-0.4 c-0.5,0-0.9,0.1-1.3,0.4C69.5,67.4,69.2,67.8,69.1,68.3z M75.7,72.6v-7h1.5v0.9c0.1-0.3,0.4-0.5,0.7-0.7c0.3-0.2,0.7-0.3,1.1-0.3 c0.3,0,0.5,0,0.7,0.1l-0.2,1.5C79.4,67,79.2,67,78.9,67c-0.3,0-0.6,0.1-1,0.3c-0.3,0.2-0.5,0.5-0.7,0.8v4.5H75.7z M80.4,75.3v-9.7 h1.5v0.6c0.5-0.5,1.2-0.8,2-0.8c1,0,1.9,0.4,2.5,1.1c0.7,0.7,1,1.6,1,2.6s-0.3,1.9-1,2.6c-0.7,0.7-1.5,1.1-2.5,1.1 c-0.9,0-1.5-0.3-2-0.8v3.4L80.4,75.3L80.4,75.3z M83.8,71.3c0.6,0,1.1-0.2,1.5-0.6c0.4-0.4,0.6-1,0.6-1.6s-0.2-1.2-0.6-1.6 s-0.9-0.7-1.5-0.7c-0.8,0-1.4,0.3-1.9,1v2.5C82.3,71,83,71.3,83.8,71.3z M91.5,72.7c-1,0-1.9-0.4-2.5-1.1c-0.7-0.7-1-1.6-1-2.6 s0.3-1.9,1-2.6c0.7-0.7,1.5-1.1,2.5-1.1c0.9,0,1.5,0.3,2,0.8v-0.5H95v7h-1.5v-0.7C93.1,72.5,92.4,72.7,91.5,72.7z M91.7,71.3 c0.8,0,1.4-0.3,1.9-1v-2.5c-0.4-0.6-1.1-1-1.9-1c-0.6,0-1.1,0.2-1.5,0.7c-0.4,0.4-0.6,1-0.6,1.6c0,0.6,0.2,1.2,0.6,1.6 C90.6,71.1,91.1,71.3,91.7,71.3z M96.7,72.6v-7h1.5v0.9c0.1-0.3,0.4-0.5,0.7-0.7c0.3-0.2,0.7-0.3,1.1-0.3c0.3,0,0.5,0,0.7,0.1 l-0.2,1.5c-0.1-0.1-0.3-0.1-0.6-0.1c-0.3,0-0.6,0.1-1,0.3c-0.3,0.2-0.5,0.5-0.7,0.8v4.5H96.7z M104.7,72.7c-0.7,0-1.3-0.2-1.8-0.6 c-0.4-0.4-0.7-1-0.7-1.7V67h-1.7v-1.4h1.7v-2h1.5v2h2.1V67h-2.1v3.1c0,0.8,0.4,1.2,1.1,1.2c0.4,0,0.7-0.1,1-0.3l0.5,1.3 C105.9,72.6,105.3,72.7,104.7,72.7z M109.4,75.3h-1.7l1.4-3.1l-3-6.6h1.7l2.1,5l2.2-5h1.7L109.4,75.3z"></path><g>	<path class="st6" d="M220.1,163.1h26c2.7,0,4.8,2.2,4.8,4.8v5.2c0,2.7-2.2,4.8-4.8,4.8h-26c-2.7,0-4.8-2.2-4.8-4.8v-5.2  C215.3,165.3,217.4,163.1,220.1,163.1z"></path>	<path class="st5" d="M224.7,168.5c0-0.3-0.1-0.5-0.4-0.6c-0.2-0.2-0.5-0.2-0.8-0.2c-0.2,0-0.4,0-0.6,0.1c-0.2,0.1-0.3,0.2-0.4,0.3  c-0.1,0.1-0.1,0.3-0.1,0.4c0,0.1,0,0.2,0.1,0.3c0.1,0.1,0.1,0.2,0.2,0.2c0.1,0.1,0.2,0.1,0.4,0.2c0.1,0,0.3,0.1,0.4,0.1l0.6,0.2  c0.3,0.1,0.6,0.2,0.8,0.3c0.3,0.1,0.5,0.3,0.7,0.4c0.2,0.1,0.3,0.4,0.4,0.6c0.1,0.2,0.2,0.5,0.2,0.8c0,0.4-0.1,0.8-0.3,1.1  s-0.5,0.6-0.9,0.7c-0.4,0.2-0.9,0.3-1.5,0.3s-1.1-0.1-1.5-0.3s-0.7-0.4-1-0.8c-0.2-0.3-0.4-0.8-0.4-1.3h1.4c0,0.2,0.1,0.4,0.2,0.6  c0.1,0.2,0.3,0.3,0.5,0.4c0.2,0.1,0.4,0.1,0.7,0.1s0.5,0,0.7-0.1c0.2-0.1,0.3-0.2,0.4-0.3c0.1-0.1,0.2-0.3,0.2-0.5s0-0.3-0.1-0.4  c-0.1-0.1-0.2-0.2-0.4-0.3c-0.2-0.1-0.4-0.1-0.6-0.2l-0.8-0.2c-0.6-0.1-1.1-0.4-1.4-0.7c-0.3-0.3-0.5-0.7-0.5-1.2  c0-0.4,0.1-0.8,0.3-1.1c0.2-0.3,0.5-0.6,1-0.7c0.4-0.2,0.9-0.3,1.4-0.3s1,0.1,1.4,0.3c0.4,0.2,0.7,0.4,0.9,0.7s0.3,0.7,0.3,1.1  H224.7z M233.7,170c0,0.8-0.1,1.4-0.4,2c-0.3,0.5-0.7,0.9-1.2,1.2c-0.5,0.3-1.1,0.4-1.7,0.4c-0.6,0-1.2-0.1-1.7-0.4  s-0.9-0.7-1.2-1.2s-0.4-1.2-0.4-2s0.1-1.4,0.4-2c0.3-0.5,0.7-0.9,1.2-1.2s1.1-0.4,1.7-0.4c0.6,0,1.2,0.1,1.7,0.4s0.9,0.7,1.2,1.2  C233.5,168.6,233.7,169.2,233.7,170z M232.1,170c0-0.5-0.1-0.9-0.2-1.3c-0.1-0.3-0.4-0.6-0.6-0.8c-0.3-0.2-0.6-0.3-0.9-0.3  c-0.4,0-0.7,0.1-0.9,0.3c-0.3,0.2-0.5,0.4-0.6,0.8c-0.1,0.3-0.2,0.8-0.2,1.3s0.1,0.9,0.2,1.3c0.1,0.3,0.4,0.6,0.6,0.8  c0.3,0.2,0.6,0.3,0.9,0.3c0.4,0,0.7-0.1,0.9-0.3c0.3-0.2,0.5-0.4,0.6-0.8C232.1,170.9,232.1,170.5,232.1,170z M234.8,173.5v-7h1.5  v5.8h3v1.2H234.8z M244.1,168.5c0-0.3-0.1-0.5-0.4-0.6c-0.2-0.2-0.5-0.2-0.8-0.2c-0.2,0-0.4,0-0.6,0.1c-0.2,0.1-0.3,0.2-0.4,0.3  c-0.1,0.1-0.1,0.3-0.1,0.4c0,0.1,0,0.2,0.1,0.3c0.1,0.1,0.1,0.2,0.2,0.2c0.1,0.1,0.2,0.1,0.4,0.2c0.1,0,0.3,0.1,0.4,0.1l0.6,0.2  c0.3,0.1,0.6,0.2,0.8,0.3c0.3,0.1,0.5,0.3,0.7,0.4c0.2,0.2,0.3,0.4,0.4,0.6c0.1,0.2,0.2,0.5,0.2,0.8c0,0.4-0.1,0.8-0.3,1.1  s-0.5,0.6-0.9,0.7c-0.4,0.2-0.9,0.3-1.5,0.3s-1.1-0.1-1.5-0.3s-0.7-0.4-1-0.8c-0.2-0.3-0.4-0.8-0.4-1.3h1.4c0,0.2,0.1,0.4,0.2,0.6  c0.1,0.2,0.3,0.3,0.5,0.4c0.2,0.1,0.4,0.1,0.7,0.1s0.5,0,0.7-0.1c0.2-0.1,0.3-0.2,0.4-0.3c0.1-0.1,0.2-0.3,0.2-0.5s0-0.3-0.1-0.4  c-0.1-0.1-0.2-0.2-0.4-0.3c-0.2-0.1-0.4-0.1-0.6-0.2l-0.8-0.2c-0.6-0.1-1.1-0.4-1.4-0.7c-0.3-0.3-0.5-0.7-0.5-1.2  c0-0.4,0.1-0.8,0.3-1.1c0.2-0.3,0.5-0.6,1-0.7c0.4-0.2,0.9-0.3,1.4-0.3s1,0.1,1.4,0.3c0.4,0.2,0.7,0.4,0.9,0.7s0.3,0.7,0.3,1.1  H244.1z"></path>	<g>		<g>			<g>				<defs>					<rect id="SVGID_1_" x="218.6" y="124.9" width="29.5" height="29.6"></rect>				</defs>				<clipPath id="SVGID_2_">					<use xlink:href="#SVGID_1_" style="overflow:visible;"></use>				</clipPath>				<polygon class="st7" points="218.6,124.9 218.6,132.2 223,132.2 223,129.3 243.8,129.3 243.8,132.2 248.1,132.2 248.1,124.9          "></polygon>			</g>			<g>				<defs>					<rect id="SVGID_3_" x="218.6" y="124.9" width="29.5" height="29.6"></rect>				</defs>				<clipPath id="SVGID_4_">					<use xlink:href="#SVGID_3_" style="overflow:visible;"></use>				</clipPath>				<polygon class="st8" points="243.8,147.2 243.8,150.1 223,150.1 223,147.2 218.6,147.2 218.6,154.5 221.9,154.5 223,154.5      243.8,154.5 246.3,154.5 248.1,154.5 248.1,147.2     "></polygon>			</g>		</g>	</g></g><path class="st1" d="M448.7,94.9H322.3c-3.8,0-6.9,3.1-6.9,6.9v97.6c0,3.8,3.1,6.9,6.9,6.9h126.3c3.8,0,6.9-3.1,6.9-6.9v-97.6 C455.6,98,452.5,94.9,448.7,94.9z"></path><path class="st5" d="M336.5,230.6v-4.8l-4.3-6.6h2.2l3,4.7l3.1-4.7h2.2l-4.3,6.6v4.8H336.5z M348.1,229.6c-0.8,0.8-1.8,1.2-3,1.2 s-2.2-0.4-3-1.2s-1.2-1.8-1.2-3s0.4-2.1,1.2-2.9c0.8-0.8,1.8-1.2,3-1.2s2.2,0.4,3,1.2s1.2,1.8,1.2,2.9S348.9,228.7,348.1,229.6z  M345.2,229.1c0.7,0,1.3-0.2,1.7-0.7c0.5-0.5,0.7-1.1,0.7-1.8s-0.2-1.3-0.7-1.8c-0.4-0.5-1-0.7-1.7-0.7s-1.3,0.2-1.7,0.7 c-0.4,0.5-0.7,1.1-0.7,1.8s0.2,1.3,0.7,1.8C343.9,228.9,344.5,229.1,345.2,229.1z M357.5,222.6v8h-1.8v-0.8c-0.5,0.7-1.2,1-2.2,1 c-0.9,0-1.7-0.3-2.3-0.9c-0.6-0.6-0.8-1.4-0.8-2.5v-4.8h1.8v4.5c0,0.6,0.1,1.1,0.4,1.5s0.7,0.5,1.3,0.5c0.4,0,0.8-0.1,1.1-0.3 c0.3-0.2,0.6-0.5,0.7-0.9v-5.3H357.5z M359.2,230.6v-8h1.8v1.1c0.2-0.3,0.4-0.6,0.8-0.8s0.8-0.3,1.2-0.3c0.3,0,0.6,0,0.8,0.1 l-0.3,1.7c-0.2-0.1-0.4-0.1-0.7-0.1c-0.4,0-0.7,0.1-1.1,0.3s-0.6,0.5-0.8,0.9v5.1H359.2z M367.6,230.6v-11.4h3.9 c1,0,1.8,0.3,2.4,0.9c0.6,0.6,1,1.3,1,2.2s-0.4,1.7-1.1,2.2c1.2,0.5,1.8,1.4,1.8,2.7c0,0.9-0.3,1.7-1,2.4c-0.7,0.6-1.6,0.9-2.6,0.9 h-4.4V230.6z M369.4,228.9h2.5c0.6,0,1.1-0.1,1.4-0.4c0.3-0.3,0.5-0.7,0.5-1.2s-0.2-0.9-0.5-1.2s-0.8-0.5-1.4-0.5h-2.5V228.9z  M369.4,224h2c0.5,0,0.9-0.1,1.2-0.4c0.3-0.3,0.4-0.7,0.4-1.1c0-0.4-0.1-0.8-0.4-1.1s-0.7-0.4-1.2-0.4h-2V224z M376.8,230.6v-8h1.8 v1.1c0.2-0.3,0.4-0.6,0.8-0.8s0.8-0.3,1.2-0.3c0.3,0,0.6,0,0.8,0.1l-0.3,1.7c-0.2-0.1-0.4-0.1-0.7-0.1c-0.4,0-0.7,0.1-1.1,0.3 s-0.6,0.5-0.8,0.9v5.1H376.8z M388.5,229.6c-0.8,0.8-1.8,1.2-3,1.2s-2.2-0.4-3-1.2s-1.2-1.8-1.2-3s0.4-2.1,1.2-2.9 c0.8-0.8,1.8-1.2,3-1.2s2.2,0.4,3,1.2s1.2,1.8,1.2,2.9S389.3,228.7,388.5,229.6z M385.5,229.1c0.7,0,1.3-0.2,1.7-0.7 c0.5-0.5,0.7-1.1,0.7-1.8s-0.2-1.3-0.7-1.8c-0.4-0.5-1-0.7-1.7-0.7s-1.3,0.2-1.7,0.7c-0.4,0.5-0.7,1.1-0.7,1.8s0.2,1.3,0.7,1.8 C384.2,228.9,384.8,229.1,385.5,229.1z M396.4,230.6l-3.8-3.9v3.9h-1.8v-11.7h1.8v6.7l3.1-3h2.2l-3.6,3.6l4.4,4.4H396.4z  M402.1,230.8c-1.2,0-2.2-0.4-3-1.2s-1.2-1.8-1.2-3s0.4-2.2,1.2-3c0.8-0.8,1.8-1.2,3-1.2c1.1,0,2,0.4,2.8,1.1 c0.7,0.7,1.1,1.7,1.1,2.9c0,0.2,0,0.4,0,0.6h-6.3c0,0.7,0.3,1.2,0.8,1.6c0.5,0.4,1,0.6,1.7,0.6c1,0,1.8-0.4,2.3-1.2l1.3,1 C405,230.1,403.8,230.8,402.1,230.8z M399.7,225.7h4.4c-0.1-0.6-0.3-1-0.8-1.3c-0.4-0.3-0.9-0.5-1.4-0.5c-0.6,0-1.1,0.2-1.5,0.5 C400.1,224.7,399.9,225.1,399.7,225.7z M407.2,230.6v-8h1.8v1.1c0.2-0.3,0.4-0.6,0.8-0.8s0.8-0.3,1.2-0.3c0.3,0,0.6,0,0.8,0.1 l-0.3,1.7c-0.2-0.1-0.4-0.1-0.7-0.1c-0.4,0-0.7,0.1-1.1,0.3s-0.6,0.5-0.8,0.9v5.1H407.2z M415.7,230.8c-1.2,0-2.1-0.4-2.9-1.2 c-0.7-0.8-1.1-1.8-1.1-2.9s0.4-2.1,1.1-2.9c0.7-0.8,1.7-1.2,2.9-1.2c1,0,1.8,0.3,2.3,0.9v-0.9h1.8v8H418v-0.8 C417.4,230.5,416.6,230.8,415.7,230.8z M415.9,229.2c0.9,0,1.6-0.4,2.1-1.1v-2.9c-0.5-0.7-1.2-1.1-2.1-1.1c-0.7,0-1.3,0.3-1.7,0.8 c-0.4,0.5-0.7,1.1-0.7,1.8s0.2,1.3,0.7,1.8C414.6,228.9,415.2,229.2,415.9,229.2z M425,233.9c-0.7,0-1.4-0.1-2-0.4 c-0.6-0.2-1.1-0.6-1.5-1l1.1-1.3c0.7,0.7,1.5,1,2.5,1c0.6,0,1.2-0.2,1.6-0.6s0.7-0.9,0.7-1.6v-0.4c-0.6,0.6-1.4,0.9-2.4,0.9 c-1.2,0-2.1-0.4-2.9-1.2s-1.1-1.7-1.1-2.9s0.4-2.1,1.2-2.8c0.8-0.8,1.7-1.2,2.9-1.2c1,0,1.8,0.3,2.4,0.9v-0.7h1.8v7.5 c0,1.2-0.4,2.2-1.2,2.8S426.2,233.9,425,233.9z M425.2,228.9c0.9,0,1.6-0.4,2.1-1.1v-2.6c-0.5-0.7-1.2-1.1-2.1-1.1 c-0.7,0-1.3,0.2-1.7,0.7c-0.5,0.5-0.7,1-0.7,1.7s0.2,1.3,0.7,1.7C423.9,228.6,424.5,228.9,425.2,228.9z M434.5,230.8 c-1.2,0-2.2-0.4-3-1.2s-1.2-1.8-1.2-3s0.4-2.2,1.2-3c0.8-0.8,1.8-1.2,3-1.2c1.1,0,2,0.4,2.8,1.1c0.7,0.7,1.1,1.7,1.1,2.9 c0,0.2,0,0.4,0,0.6h-6.3c0,0.7,0.3,1.2,0.8,1.6c0.5,0.4,1,0.6,1.7,0.6c1,0,1.8-0.4,2.3-1.2l1.3,1 C437.4,230.1,436.2,230.8,434.5,230.8z M432.1,225.7h4.4c-0.1-0.6-0.3-1-0.8-1.3c-0.4-0.3-0.9-0.5-1.4-0.5c-0.6,0-1.1,0.2-1.5,0.5 C432.5,224.7,432.3,225.1,432.1,225.7z M347.5,252.4l6.2-13.1h1.6l-6.2,13.1H347.5z M365.4,240.3c0.7,0.7,1.1,1.6,1.1,2.6 s-0.4,1.9-1.1,2.7c-0.7,0.7-1.7,1.1-2.8,1.1h-1.7v3.9H359v-11.4h3.6C363.7,239.2,364.7,239.6,365.4,240.3z M364.1,244.4 c0.4-0.4,0.6-0.8,0.6-1.4s-0.2-1-0.6-1.4s-0.9-0.6-1.5-0.6h-1.7v3.9h1.7C363.2,244.9,363.7,244.7,364.1,244.4z M367.4,250.6v-8h1.8 v1.1c0.2-0.3,0.4-0.6,0.8-0.8s0.8-0.3,1.2-0.3c0.3,0,0.6,0,0.8,0.1l-0.3,1.7c-0.2-0.1-0.4-0.1-0.7-0.1c-0.4,0-0.7,0.1-1.1,0.3 s-0.6,0.5-0.8,0.9v5.1H367.4z M379.1,249.6c-0.8,0.8-1.8,1.2-3,1.2s-2.2-0.4-3-1.2s-1.2-1.8-1.2-3s0.4-2.1,1.2-2.9 c0.8-0.8,1.8-1.2,3-1.2s2.2,0.4,3,1.2s1.2,1.8,1.2,2.9S379.9,248.7,379.1,249.6z M376.1,249.1c0.7,0,1.3-0.2,1.7-0.7 c0.5-0.5,0.7-1.1,0.7-1.8s-0.2-1.3-0.7-1.8c-0.4-0.5-1-0.7-1.7-0.7s-1.3,0.2-1.7,0.7c-0.4,0.5-0.7,1.1-0.7,1.8s0.2,1.3,0.7,1.8 C374.8,248.9,375.4,249.1,376.1,249.1z M381.5,253.7v-11.1h1.8v0.7c0.6-0.6,1.4-0.9,2.3-0.9c1.2,0,2.1,0.4,2.9,1.2s1.1,1.8,1.1,2.9 s-0.4,2.1-1.1,2.9c-0.7,0.8-1.7,1.2-2.9,1.2c-1,0-1.8-0.3-2.3-0.9v3.9h-1.8V253.7z M385.4,249.2c0.7,0,1.3-0.2,1.7-0.7 c0.4-0.5,0.7-1.1,0.7-1.8s-0.2-1.3-0.7-1.8c-0.4-0.5-1-0.8-1.7-0.8c-0.9,0-1.6,0.4-2.1,1.1v2.9C383.7,248.8,384.4,249.2,385.4,249.2 z M394.2,250.6v-11.4h6.8v1.8h-5v2.9h3.8v1.8H396v4.9H394.2z M402.8,241.2c-0.3,0-0.6-0.1-0.8-0.3c-0.2-0.2-0.3-0.5-0.3-0.8 s0.1-0.6,0.3-0.8c0.2-0.2,0.5-0.4,0.8-0.4s0.6,0.1,0.8,0.4c0.2,0.2,0.4,0.5,0.4,0.8s-0.1,0.6-0.4,0.8 C403.4,241.1,403.1,241.2,402.8,241.2z M401.9,250.6v-8h1.8v8H401.9z M405.4,250.6v-8h1.8v1.1c0.2-0.3,0.4-0.6,0.8-0.8 s0.8-0.3,1.2-0.3c0.3,0,0.6,0,0.8,0.1l-0.3,1.7c-0.2-0.1-0.4-0.1-0.7-0.1c-0.4,0-0.7,0.1-1.1,0.3s-0.6,0.5-0.8,0.9v5.1H405.4z  M420.9,250.6v-4.5c0-0.7-0.1-1.2-0.4-1.5c-0.3-0.4-0.7-0.6-1.2-0.6c-0.4,0-0.8,0.1-1.1,0.4c-0.3,0.2-0.5,0.5-0.7,0.9 c0,0.2,0,0.3,0,0.5v4.8h-1.8v-4.5c0-0.7-0.1-1.2-0.4-1.5c-0.3-0.4-0.7-0.6-1.2-0.6c-0.4,0-0.7,0.1-1,0.3s-0.5,0.5-0.7,0.8v5.4h-1.8 v-8h1.8v0.8c0.5-0.6,1.2-0.9,2.1-0.9c1,0,1.8,0.4,2.3,1.2c0.6-0.8,1.5-1.2,2.6-1.2c1,0,1.8,0.3,2.3,0.9c0.5,0.6,0.8,1.4,0.8,2.4v4.8 h-1.6V250.6z"></path><circle class="st9" cx="327" cy="107.6" r="4"></circle><circle class="st10" cx="340" cy="107.6" r="4"></circle><circle class="st11" cx="353" cy="107.6" r="4"></circle><path d="M330,121.6h22c2.8,0,5,2.2,5,5v64c0,2.8-2.2,5-5,5h-22c-2.8,0-5-2.2-5-5v-64C325,123.8,327.2,121.6,330,121.6z"></path><path d="M369,142.6h71c2.8,0,5,2.2,5,5v43c0,2.8-2.2,5-5,5h-71c-2.8,0-5-2.2-5-5v-43C364,144.8,366.2,142.6,369,142.6z"></path><path d="M369,121.6h71c2.8,0,5,2.2,5,5v5c0,2.8-2.2,5-5,5h-71c-2.8,0-5-2.2-5-5v-5C364,123.8,366.2,121.6,369,121.6z"></path></svg>