<svg xmlns="http://www.w3.org/2000/svg" width="54" height="61" viewBox="0 0 54 61" fill="none"><path d="M51.7437 43.9628V16.9206C51.7437 16.4193 51.4652 15.9737 51.0475 15.723L27.6257 2.18799C27.208 1.93734 26.651 1.93734 26.2332 2.18799L2.81148 15.723C2.39373 15.9737 2.11523 16.4193 2.11523 16.9206V43.9628C2.11523 44.4641 2.39373 44.9097 2.81148 45.1604L26.2332 58.6954C26.651 58.9461 27.208 58.9461 27.6257 58.6954L51.0475 45.1604C51.4652 44.9097 51.7437 44.4641 51.7437 43.9628Z" stroke="white" stroke-width="3.95469" stroke-miterlimit="10"></path><path d="M35.9809 34.856V26.0275C35.9809 25.5262 35.7024 25.0806 35.2846 24.83L27.6259 20.4019C27.2081 20.1512 26.6511 20.1512 26.2334 20.4019L18.5747 24.83C18.1569 25.0806 17.8784 25.5262 17.8784 26.0275V34.856C17.8784 35.3573 18.1569 35.8029 18.5747 36.0535L26.2334 40.4816C26.6511 40.7323 27.2081 40.7323 27.6259 40.4816L35.2846 36.0535C35.7024 35.8029 35.9809 35.3573 35.9809 34.856Z" stroke="white" stroke-width="3.95469" stroke-miterlimit="10"></path><path d="M2.11523 16.113L17.8783 25.2199" stroke="white" stroke-width="3.95469" stroke-miterlimit="10"></path><path d="M51.744 16.113L35.981 25.2199" stroke="white" stroke-width="3.95469" stroke-miterlimit="10"></path><path d="M26.9297 59.0851V40.8992" stroke="white" stroke-width="3.95469" stroke-miterlimit="10"></path></svg>