<svg xmlns="http://www.w3.org/2000/svg" width="60" height="59" viewBox="0 0 60 59" fill="none"><path d="M27.9726 8.23972L33.0411 25.5274L50.3288 30.5959C51.6438 30.9795 51.6438 32.8424 50.3288 33.226L33.0411 38.2945L27.9726 55.5822C27.589 56.8973 25.726 56.8973 25.3425 55.5822L20.274 38.2945L2.9863 33.226C1.67123 32.8424 1.67123 30.9795 2.9863 30.5959L20.274 25.5274L25.3425 8.23972C25.726 6.92465 27.589 6.92465 27.9726 8.23972Z" stroke="white" stroke-width="3.89041" stroke-miterlimit="10"></path><path d="M49.2889 2.34932L51.0697 8.43151L57.1519 10.2123C57.6176 10.3493 57.6176 11.0068 57.1519 11.1438L51.0697 12.9247L49.2889 19.0069C49.1519 19.4726 48.4943 19.4726 48.3574 19.0069L46.5765 12.9247L40.4943 11.1438C40.0286 11.0068 40.0286 10.3493 40.4943 10.2123L46.5765 8.43151L48.3574 2.34932C48.4943 1.88356 49.1519 1.88356 49.2889 2.34932Z" stroke="white" stroke-width="3.89041" stroke-miterlimit="10"></path></svg>