<svg xmlns="http://www.w3.org/2000/svg" width="18" height="18" viewBox="0 0 18 18" fill="none"><path d="M12.9968 6.61695H13.0033M13.0035 5.01406V3.01044M16.9999 4.84044C16.9999 6.9575 15.2073 8.67404 12.9968 8.67404C12.7368 8.67436 12.4777 8.65028 12.2223 8.60228C12.0385 8.56772 11.9467 8.55052 11.8825 8.56028C11.8183 8.57004 11.7274 8.61844 11.5457 8.71532C11.0313 8.98908 10.4316 9.0858 9.85477 8.97844C10.074 8.70844 10.2237 8.3846 10.2897 8.0374C10.3298 7.82508 10.2306 7.61876 10.082 7.4678C9.40733 6.78186 8.99365 5.85761 8.99365 4.84044C8.99365 2.72336 10.7861 1.00684 12.9968 1.00684C15.2073 1.00684 16.9999 2.72336 16.9999 4.84044Z" stroke="white" stroke-width="1.5" stroke-linecap="round" stroke-linejoin="round"></path><path d="M5.40151 17.0066H3.17454C2.91591 17.0066 2.65617 16.9702 2.41862 16.8682C1.64533 16.5359 1.25299 16.0973 1.07015 15.8228C0.966112 15.6666 0.980936 15.4678 1.09381 15.3178C1.98973 14.1278 4.06696 13.409 5.40151 13.409M5.40532 17.0066H7.63232C7.89096 17.0066 8.15064 16.9702 8.38824 16.8682C9.16153 16.5359 9.55385 16.0973 9.73673 15.8228C9.84073 15.6666 9.82593 15.4678 9.71305 15.3178C8.81712 14.1278 6.73988 13.409 5.40532 13.409M7.62832 9.23768C7.62832 10.4627 6.63304 11.4558 5.40532 11.4558C4.17759 11.4558 3.18233 10.4627 3.18233 9.23768C3.18233 8.01264 4.17759 7.01953 5.40532 7.01953C6.63304 7.01953 7.62832 8.01264 7.62832 9.23768Z" stroke="white" stroke-width="1.5" stroke-linecap="round" stroke-linejoin="round"></path></svg>