<svg xmlns="http://www.w3.org/2000/svg" width="20" height="21" viewBox="0 0 20 21" fill="none"><path d="M4.54281 4.86279C3.88665 6.31121 3.83275 7.96097 4.39296 9.44913C4.95318 10.9373 6.08163 12.142 7.53005 12.7981" stroke="white" stroke-width="1.5" stroke-linecap="round" stroke-linejoin="round"></path><path d="M7.54419 7.864C8.63963 5.42596 11.2151 4.00597 13.8615 4.38096C16.5079 4.75595 18.5875 6.83557 18.9625 9.48196C19.3375 12.1284 17.9175 14.7039 15.4795 15.7993" stroke="white" stroke-width="1.5" stroke-linecap="round" stroke-linejoin="round"></path><path d="M4.54271 4.86279C2.10468 5.95824 0.684682 8.53374 1.05967 11.1801C1.43466 13.8265 3.51428 15.9061 6.16067 16.2811C8.80706 16.6561 11.3826 15.2361 12.478 12.7981" stroke="white" stroke-width="1.5" stroke-linecap="round" stroke-linejoin="round"></path><path d="M12.478 7.86426C14.9161 8.9597 16.3361 11.5352 15.9611 14.1816C15.5861 16.828 13.5065 18.9076 10.8601 19.2826C8.21368 19.6576 5.63817 18.2376 4.54272 15.7996" stroke="white" stroke-width="1.5" stroke-linecap="round" stroke-linejoin="round"></path><path d="M15.4795 4.86302C14.384 2.42499 11.8085 1.00499 9.16214 1.37998C6.51574 1.75497 4.43613 3.83459 4.06114 6.48098C3.68615 9.12738 5.10614 11.7029 7.54418 12.7983" stroke="white" stroke-width="1.5" stroke-linecap="round" stroke-linejoin="round"></path></svg>