<svg xmlns="http://www.w3.org/2000/svg" width="18" height="20" viewBox="0 0 18 20" fill="none"><path d="M15.7026 9.16559V8.30073C15.7026 5.03913 15.7026 3.40834 14.6893 2.39508C13.6761 1.38184 12.0453 1.38184 8.78372 1.38184H7.91894C4.65735 1.38184 3.02656 1.38184 2.01332 2.39507C1.00007 3.40831 1.00005 5.03909 1.00003 8.30067L1 11.7602C0.999966 15.0217 0.999957 16.6525 2.01317 17.6658C3.02641 18.679 4.65727 18.6791 7.91886 18.6791" stroke="white" stroke-width="1.5" stroke-linecap="round" stroke-linejoin="round"></path><path d="M4.89185 5.70605H11.8107M4.89185 10.0304H11.8107" stroke="white" stroke-width="1.5" stroke-linecap="round"></path><path d="M11 17.5019V18.3818H11.88C12.1871 18.3818 12.3406 18.3818 12.4786 18.3246C12.6167 18.2674 12.7252 18.1589 12.9423 17.9418L16.56 14.3239C16.7648 14.1191 16.8671 14.0167 16.9219 13.9063C17.0261 13.6962 17.0261 13.4495 16.9219 13.2394C16.8671 13.1289 16.7648 13.0265 16.56 12.8218C16.3552 12.617 16.2528 12.5147 16.1423 12.4599C15.9322 12.3558 15.6854 12.3558 15.4753 12.4599C15.3649 12.5147 15.2624 12.617 15.0577 12.8218L11.44 16.4398C11.2229 16.6568 11.1144 16.7653 11.0572 16.9033C11 17.0414 11 17.1948 11 17.5019Z" stroke="white" stroke-width="1.5" stroke-linejoin="round"></path></svg>