<svg xmlns="http://www.w3.org/2000/svg" width="18" height="20" viewBox="0 0 18 20" fill="none"><path d="M1 5.53385V3.37778C1 2.34661 1.84368 1.50293 2.87485 1.50293H12.4085C13.4396 1.50293 14.2833 2.34661 14.2833 3.37778V5.53385" stroke="white" stroke-width="1.5" stroke-linecap="round" stroke-linejoin="round"></path><path d="M5.08717 16.5955H2.87485C1.84368 16.5955 1 15.7518 1 14.7206V12.6021" stroke="white" stroke-width="1.5" stroke-linecap="round" stroke-linejoin="round"></path><path d="M12.6805 18.3766C14.9274 18.3766 16.7489 16.5551 16.7489 14.3082C16.7489 12.0612 14.9274 10.2397 12.6805 10.2397C10.4336 10.2397 8.61206 12.0612 8.61206 14.3082C8.61206 16.5551 10.4336 18.3766 12.6805 18.3766Z" stroke="white" stroke-width="1.5" stroke-linecap="round" stroke-linejoin="round"></path><path d="M9.50257 16.8296C8.81825 17.9077 8.51827 18.7045 8.77138 18.9388C9.24947 19.37 11.4524 17.7108 13.7022 15.2266C15.9521 12.7424 17.3863 10.3801 16.9082 9.94892C16.6551 9.72394 15.9052 10.0802 14.9303 10.8488" stroke="white" stroke-width="1.5" stroke-linecap="round" stroke-linejoin="round"></path></svg>