<svg xmlns="http://www.w3.org/2000/svg" width="19" height="20" viewBox="0 0 19 20" fill="none"><path d="M16.8779 10.0477L17.1212 10.8787L17.9522 11.122C18.0158 11.1407 18.0158 11.2305 17.9522 11.2492L17.1212 11.4925L16.8779 12.3235C16.8592 12.3871 16.7694 12.3871 16.7506 12.3235L16.5074 11.4925L15.6764 11.2492C15.6128 11.2305 15.6128 11.1407 15.6764 11.122L16.5074 10.8787L16.7506 10.0477C16.7694 9.98409 16.8592 9.98409 16.8779 10.0477Z" stroke="white" stroke-width="0.6" stroke-miterlimit="10"></path><path d="M14.0191 11.1535L14.8018 13.8269L17.4752 14.6097C17.68 14.6699 17.68 14.9589 17.4752 15.0191L14.8018 15.8018L14.0191 18.4752C13.9589 18.6799 13.6699 18.6799 13.6097 18.4752L12.8269 15.8018L10.1536 15.0191C9.94882 14.9589 9.94882 14.6699 10.1536 14.6097L12.8269 13.8269L13.6097 11.1535C13.6699 10.9488 13.9589 10.9488 14.0191 11.1535Z" stroke="white" stroke-width="1.2" stroke-miterlimit="10"></path><path d="M17.1063 6.68458V2.89486C17.1063 1.84836 16.2579 1 15.2114 1H2.89486C1.84836 1 1 1.84836 1 2.89486V16.1589C1 17.2054 1.84836 18.0537 2.89486 18.0537H7.63201" stroke="white" stroke-width="1.5" stroke-linecap="round" stroke-linejoin="round"></path><path d="M4.78979 4.79004L6.20256 6.20281L4.78979 7.61558" stroke="white" stroke-width="1.5" stroke-linecap="round" stroke-linejoin="round"></path><path d="M8.10571 8.57918H9.52686" stroke="white" stroke-width="1.5" stroke-linecap="round" stroke-linejoin="round"></path></svg>