<svg xmlns="http://www.w3.org/2000/svg" width="18" height="18" viewBox="0 0 18 18" fill="none"><path d="M7.18182 1.00684C4.57286 1.00684 3.26837 1.00684 2.36246 1.64511C2.1029 1.82798 1.87246 2.04485 1.67816 2.28915C1 3.14177 1 4.36952 1 6.82502V8.8614C1 11.232 1 12.4172 1.37515 13.3638C1.97825 14.8857 3.25371 16.0861 4.87069 16.6537C5.8765 17.0068 7.13585 17.0068 9.65456 17.0068C11.0938 17.0068 11.8134 17.0068 12.3882 16.8051C13.3122 16.4808 14.041 15.7948 14.3856 14.9252C14.6 14.3842 14.6 13.7069 14.6 12.3523V11.8068" stroke="white" stroke-width="1.5" stroke-linecap="round" stroke-linejoin="round"></path><path d="M11.9998 5.25645C11.9998 5.25645 12.2418 5.75649 12.4998 5.75649C12.4998 5.75649 13.5 5.00684 14 4.25635" stroke="white" stroke-width="1.5" stroke-linecap="round" stroke-linejoin="round"></path><path d="M17 5.00684C17 7.21597 15.2091 9.00684 13 9.00684C10.7909 9.00684 9 7.21597 9 5.00684C9 2.7977 10.7909 1.00684 13 1.00684C15.2091 1.00684 17 2.7977 17 5.00684Z" stroke="white" stroke-width="1.5" stroke-linecap="round"></path><path d="M1 9.00684C1 10.4796 2.1939 11.6735 3.66666 11.6735C4.1993 11.6735 4.82723 11.5802 5.3451 11.7189C5.80522 11.8422 6.16461 12.2016 6.2879 12.6617C6.42666 13.1796 6.33334 13.8076 6.33334 14.3402C6.33334 15.8129 7.52728 17.0068 9 17.0068" stroke="white" stroke-width="1.5" stroke-linecap="round" stroke-linejoin="round"></path></svg>