<svg xmlns="http://www.w3.org/2000/svg" width="18" height="19" viewBox="0 0 18 19" fill="none"><rect y="0.287598" width="18" height="18" rx="5" fill="url(#paint0_linear_4910_23108)"></rect><path d="M7.29547 8.00864L5.05322 7.05595C5.25546 6.9097 5.53684 6.74257 5.94133 6.51275L7.52409 5.64363C8.19676 5.27174 8.52651 5.08789 8.89142 5.08789C9.25633 5.08789 9.59047 5.26756 10.25 5.64363L11.8327 6.51275C12.2504 6.74257 12.5318 6.9097 12.734 7.05595L10.4786 8.00864L8.89582 7.23563L7.29987 8.00864H7.29547Z" fill="white"></path><path d="M6.73683 10.6245L8.37235 11.5145V14.0675C8.14373 13.9714 7.88872 13.8252 7.52381 13.6204L5.94105 12.7513C5.28156 12.3794 4.96501 12.1956 4.77596 11.8947C4.6001 11.6064 4.6001 11.2429 4.6001 10.5075V8.74834C4.6001 8.40988 4.6001 8.14664 4.62648 7.94189L6.74562 8.82355V10.6203L6.73683 10.6245Z" fill="white"></path><path d="M13.1912 8.75658V10.5157C13.1912 11.2511 13.1912 11.6105 13.0153 11.903C12.8395 12.2038 12.4965 12.3835 11.8371 12.7596L10.2543 13.6287C9.88499 13.8334 9.63438 13.9797 9.40576 14.0758V11.5353L11.0413 10.6202V8.84851L13.1736 7.9585C13.2 8.16324 13.2 8.42649 13.2 8.76494L13.1912 8.75658Z" fill="white"></path><defs><linearGradient id="paint0_linear_4910_23108" x1="9" y1="0.287598" x2="9" y2="18.2876" gradientUnits="userSpaceOnUse"><stop stop-color="#4AD9A6"></stop><stop offset="1" stop-color="#1DBD84"></stop></linearGradient></defs></svg>