<svg xmlns="http://www.w3.org/2000/svg" width="18" height="19" viewBox="0 0 18 19" fill="none"><rect y="0.287598" width="18" height="18" rx="5" fill="url(#paint0_linear_4900_23092)"></rect><path d="M6.72493 7.90913L4.80005 9.01583V8.14166C4.80005 7.38808 4.80005 6.99621 4.9766 6.67324C5.16608 6.3632 5.48904 6.17372 6.1479 5.78616L7.73689 4.86894C8.40866 4.47707 8.73593 4.2876 9.09766 4.2876C9.45938 4.2876 9.79957 4.47707 10.4584 4.86894L12.0345 5.78616C12.6933 6.17803 13.0335 6.3675 13.2058 6.67324C13.2445 6.74214 13.2876 6.81965 13.3005 6.90147L9.42062 9.14932L7.29335 7.90913C7.11679 7.80147 6.90148 7.80147 6.72924 7.90913H6.72493Z" fill="white"></path><path d="M13.3953 8.17578V9.98009C13.3953 10.7466 13.3953 11.1385 13.2058 11.4485C13.0292 11.7586 12.6933 11.948 12.0345 12.3356L10.4584 13.2528C9.79957 13.6447 9.45938 13.8342 9.09766 13.8342C8.73593 13.8342 8.40866 13.6447 7.73689 13.2528L6.1479 12.3356C5.48904 11.9437 5.16608 11.7543 4.9766 11.4485C4.83019 11.1944 4.80005 10.8672 4.80005 10.3289L7.00914 9.06286L9.12349 10.3031C9.31297 10.3978 9.52828 10.3978 9.70483 10.3031L13.3953 8.17578Z" fill="white"></path><defs><linearGradient id="paint0_linear_4900_23092" x1="18" y1="18.2876" x2="2.55504e-07" y2="0.287597" gradientUnits="userSpaceOnUse"><stop stop-color="#987AF2"></stop><stop offset="1" stop-color="#4A71FF"></stop></linearGradient></defs></svg>