<svg xmlns="http://www.w3.org/2000/svg" width="18" height="18" viewBox="0 0 18 18" fill="none"><path d="M9 17.0068C13.4183 17.0068 17 13.4251 17 9.00684C17 4.58856 13.4183 1.00684 9 1.00684C4.58172 1.00684 1 4.58856 1 9.00684C1 13.4251 4.58172 17.0068 9 17.0068Z" stroke="white" stroke-width="1.5" stroke-linecap="round" stroke-linejoin="round"></path><path d="M10.8151 7.68776C11.7452 7.68776 12.4993 6.93371 12.4993 6.00355C12.4993 5.07338 11.7452 4.31934 10.8151 4.31934C9.88491 4.31934 9.13086 5.07338 9.13086 6.00355C9.13086 6.93371 9.88491 7.68776 10.8151 7.68776Z" stroke="white" stroke-width="1.5" stroke-linecap="round" stroke-linejoin="round"></path><path d="M6.2118 12.6936C6.72855 12.6936 7.14747 12.2747 7.14747 11.7579C7.14747 11.2412 6.72855 10.8223 6.2118 10.8223C5.69504 10.8223 5.27612 11.2412 5.27612 11.7579C5.27612 12.2747 5.69504 12.6936 6.2118 12.6936Z" stroke="white" stroke-width="1.5" stroke-linecap="round" stroke-linejoin="round"></path><path d="M5.5 8.00684C5.77614 8.00684 6 7.78298 6 7.50683C6 7.23069 5.77614 7.00684 5.5 7.00684C5.22386 7.00684 5 7.23069 5 7.50683C5 7.78298 5.22386 8.00684 5.5 8.00684Z" fill="white"></path><path d="M12.5 12.0068C12.7761 12.0068 13 11.783 13 11.5068C13 11.2307 12.7761 11.0068 12.5 11.0068C12.2239 11.0068 12 11.2307 12 11.5068C12 11.783 12.2239 12.0068 12.5 12.0068Z" stroke="white" stroke-width="1.5" stroke-linecap="round" stroke-linejoin="round"></path></svg>