<svg xmlns="http://www.w3.org/2000/svg" width="18" height="23" viewBox="0 0 18 23" fill="none"><path d="M4.16023 13.2991L4.16023 9.55592M4.16023 9.55592L4.16023 2.87161C4.16023 1.83795 5.00935 1 6.05679 1C7.10423 1 7.95334 1.83795 7.95334 2.87161L7.95334 8.48643L11.288 8.9972C13.3782 9.30662 14.4233 9.46127 15.1594 9.89645C16.3754 10.6154 17.2562 11.6949 17.2562 13.2709C17.2562 14.3686 16.9813 15.1051 16.313 17.0837C15.8889 18.3393 15.6768 18.967 15.3311 19.464C14.7618 20.2822 13.9219 20.8795 12.9554 21.1537C12.3683 21.3203 11.6978 21.3203 10.3567 21.3203L8.83411 21.3203C6.90018 21.3203 5.93321 21.3203 5.10291 20.9621C4.72778 20.8002 4.37777 20.5867 4.06332 20.328C3.36733 19.7553 2.93488 18.9019 2.07 17.1949C1.36864 15.8106 1.01796 15.1184 1.00089 14.4009C0.993199 14.0773 1.03518 13.7543 1.12541 13.4431C1.32547 12.7531 1.84184 12.1706 2.87457 11.0059L4.16023 9.55592Z" stroke="white" stroke-width="1.5" stroke-linecap="round" stroke-linejoin="round"></path></svg>