<svg xmlns="http://www.w3.org/2000/svg" width="18" height="18" viewBox="0 0 18 18" fill="none"><path d="M13 8.85034C13 8.57378 13 8.43554 13.0416 8.31234C13.1626 7.95426 13.4814 7.81538 13.8009 7.66986C14.16 7.50626 14.3395 7.4245 14.5174 7.4101C14.7194 7.39376 14.9218 7.4373 15.0944 7.53418C15.3233 7.66258 15.4829 7.90666 15.6463 8.10514C16.401 9.02178 16.7783 9.48018 16.9164 9.98562C17.0278 10.3935 17.0278 10.82 16.9164 11.2279C16.715 11.9651 16.0788 12.5831 15.6078 13.1551C15.367 13.4476 15.2465 13.5939 15.0944 13.6793C14.9218 13.7762 14.7194 13.8197 14.5174 13.8034C14.3395 13.789 14.16 13.7072 13.8009 13.5436C13.4814 13.3981 13.1626 13.2592 13.0416 12.9011C13 12.7779 13 12.6397 13 12.3631V8.85034Z" stroke="white" stroke-width="1.5"></path><path d="M5 8.8504C5 8.50224 4.99023 8.18928 4.70873 7.94448C4.60635 7.85544 4.4706 7.7936 4.19913 7.66992C3.84001 7.50639 3.66045 7.42463 3.48253 7.41023C2.94873 7.36703 2.66154 7.73136 2.35371 8.10528C1.599 9.02192 1.22165 9.48024 1.08357 9.98568C0.972144 10.3936 0.972144 10.8202 1.08357 11.228C1.28496 11.9652 1.92122 12.5831 2.39217 13.1552C2.68903 13.5158 2.97262 13.8447 3.48253 13.8035C3.66045 13.7891 3.84001 13.7073 4.19913 13.5438C4.4706 13.4201 4.60635 13.3582 4.70873 13.2692C4.99023 13.0244 5 12.7115 5 12.3633V8.8504Z" stroke="white" stroke-width="1.5"></path><path d="M15.4001 7.80684V6.60684C15.4001 3.51405 12.5347 1.00684 9.00011 1.00684C5.46548 1.00684 2.6001 3.51405 2.6001 6.60684V7.80684" stroke="white" stroke-width="1.5" stroke-linecap="round" stroke-linejoin="round"></path><path d="M15.4 13.4067C15.4 17.0067 12.2 17.0067 9 17.0067" stroke="white" stroke-width="1.5" stroke-linecap="round" stroke-linejoin="round"></path></svg>