<svg xmlns="http://www.w3.org/2000/svg" width="454" height="334" viewBox="0 0 454 334" fill="none"><g clip-path="url(#clip0_2025_29506)"><path d="M435.195 0H18.8049C8.97152 0 1 5.23718 1 11.6976V322.302C1 328.763 8.97152 334 18.8049 334H435.195C445.028 334 453 328.763 453 322.302V11.6976C453 5.23718 445.028 0 435.195 0Z" fill="#181A21" stroke="#323335" stroke-width="0.92559"></path><path d="M392.989 0.248879V8.9957H391.925V1.35958H391.878L389.74 2.77574V1.70205L391.925 0.248879H392.989ZM398.237 9.11602C397.77 9.12195 397.308 9.02062 396.886 8.81984C396.499 8.62909 396.165 8.34619 395.914 7.99606C395.673 7.64682 395.538 7.23542 395.525 6.81131H396.543C396.564 7.00316 396.623 7.18894 396.716 7.35752C396.81 7.52609 396.937 7.67402 397.089 7.79243C397.415 8.05129 397.822 8.18583 398.237 8.17193C398.562 8.17135 398.882 8.08515 399.163 7.92201C399.442 7.75573 399.669 7.51546 399.82 7.22782C399.989 6.92217 400.075 6.57751 400.07 6.22819C400.073 5.87208 399.984 5.52123 399.811 5.21004C399.653 4.91138 399.416 4.6617 399.126 4.48808C398.824 4.31516 398.483 4.2257 398.135 4.22891C397.856 4.22863 397.579 4.26917 397.312 4.34924C397.063 4.41586 396.828 4.5255 396.617 4.6732L395.618 4.55287L396.155 0.248879H400.783V1.17447H397.08L396.765 3.75686H396.821C397.025 3.6031 397.254 3.48425 397.497 3.40514C397.767 3.30964 398.052 3.2596 398.339 3.25705C398.844 3.24798 399.342 3.38281 399.774 3.64579C400.193 3.89806 400.535 4.25962 400.764 4.69171C401.011 5.15561 401.135 5.67497 401.125 6.20042C401.135 6.72399 401.007 7.24095 400.755 7.69987C400.51 8.12746 400.155 8.48207 399.727 8.72728C399.274 8.98641 398.76 9.12055 398.237 9.11602ZM402.865 8.9957V8.22746L405.753 5.06194C406.086 4.69171 406.364 4.37701 406.586 4.13635C406.78 3.89803 406.945 3.63695 407.077 3.35886C407.183 3.11696 407.237 2.855 407.234 2.59062C407.241 2.30903 407.164 2.03173 407.012 1.79461C406.871 1.56418 406.665 1.38062 406.419 1.26703C406.15 1.14182 405.856 1.07856 405.559 1.0819C405.252 1.07665 404.949 1.14995 404.679 1.29479C404.441 1.43191 404.242 1.62995 404.105 1.86866C403.963 2.13921 403.892 2.44218 403.902 2.74797H402.893C402.881 2.27221 403.006 1.80311 403.254 1.39661C403.47 1.00789 403.791 0.687316 404.179 0.471019C404.604 0.247951 405.079 0.13648 405.559 0.147064C406.033 0.134228 406.502 0.245927 406.919 0.471019C407.3 0.67364 407.619 0.973965 407.845 1.34108C408.061 1.69578 408.179 2.10137 408.187 2.51657C408.182 2.83287 408.122 3.1459 408.011 3.44216C407.86 3.80815 407.657 4.15091 407.41 4.46031C407.123 4.8398 406.734 5.29334 406.234 5.83018L404.272 7.93127V8.07011H408.335V8.9957H402.865ZM410.899 9.06049C410.798 9.06176 410.698 9.04276 410.604 9.00461C410.51 8.96646 410.425 8.90993 410.353 8.83835C410.21 8.69442 410.13 8.49977 410.13 8.29688C410.13 8.09399 410.21 7.89934 410.353 7.75541C410.46 7.64737 410.597 7.57346 410.745 7.54304C410.894 7.51262 411.049 7.52707 411.19 7.58454C411.33 7.64201 411.451 7.73994 411.536 7.86591C411.621 7.99189 411.667 8.14026 411.667 8.29225C411.667 8.4283 411.632 8.56196 411.566 8.681C411.498 8.7953 411.402 8.89076 411.288 8.95868C411.16 9.03586 411.011 9.07144 410.862 9.06049H410.899ZM416.008 9.11602C415.415 9.13182 414.835 8.94581 414.361 8.58844C413.874 8.18744 413.514 7.65369 413.324 7.05196C413.065 6.26717 412.943 5.44377 412.963 4.61766C412.944 3.79764 413.066 2.98045 413.324 2.20187C413.519 1.59797 413.882 1.06192 414.37 0.656134C414.846 0.308626 415.419 0.121338 416.008 0.121338C416.597 0.121338 417.171 0.308626 417.647 0.656134C418.135 1.06192 418.497 1.59797 418.693 2.20187C418.951 2.98045 419.073 3.79764 419.054 4.61766C419.074 5.44377 418.951 6.26717 418.693 7.05196C418.503 7.65369 418.143 8.18744 417.656 8.58844C417.173 8.95531 416.577 9.14192 415.971 9.11602H416.008ZM416.008 8.19043C416.319 8.19218 416.623 8.10622 416.887 7.94247C417.151 7.77872 417.363 7.54382 417.499 7.26484C417.894 6.44405 418.076 5.53664 418.026 4.62691C418.038 3.97395 417.957 3.32261 417.786 2.69244C417.665 2.23424 417.425 1.81599 417.091 1.47991C416.949 1.33993 416.779 1.2301 416.593 1.15696C416.407 1.08381 416.208 1.04884 416.008 1.05414C415.7 1.05414 415.397 1.14091 415.135 1.30457C414.873 1.46822 414.663 1.70217 414.528 1.97973C414.126 2.79877 413.941 3.70693 413.991 4.61766C413.978 5.27066 414.059 5.92209 414.231 6.55214C414.349 7.00954 414.585 7.42779 414.916 7.76466C415.207 8.02425 415.582 8.16905 415.971 8.17193L416.008 8.19043ZM423.533 9.11602C422.94 9.13331 422.359 8.94714 421.886 8.58844C421.399 8.18744 421.039 7.65369 420.849 7.05196C420.591 6.26717 420.468 5.44377 420.488 4.61766C420.469 3.79764 420.591 2.98045 420.849 2.20187C421.041 1.59862 421.401 1.06246 421.886 0.656134C422.36 0.300074 422.941 0.114213 423.533 0.128548C424.121 0.111002 424.697 0.297418 425.163 0.656134C425.654 1.05909 426.017 1.59613 426.208 2.20187C426.467 2.98045 426.589 3.79764 426.569 4.61766C426.587 5.44294 426.469 6.2655 426.218 7.05196C426.025 7.65458 425.662 8.18834 425.172 8.58844C424.693 8.95535 424.1 9.1421 423.496 9.11602H423.533ZM423.533 8.19043C423.843 8.19264 424.146 8.10676 424.408 7.94286C424.671 7.77895 424.881 7.54379 425.014 7.26484C425.413 6.44501 425.598 5.53746 425.551 4.62691C425.565 3.97322 425.481 3.32116 425.301 2.69244C425.184 2.23269 424.944 1.81349 424.607 1.47991C424.466 1.34106 424.298 1.23188 424.113 1.15877C423.929 1.08566 423.732 1.05009 423.533 1.05414C423.223 1.05349 422.919 1.13989 422.656 1.30352C422.392 1.46715 422.18 1.70144 422.043 1.97973C421.65 2.80129 421.469 3.70811 421.516 4.61766C421.499 5.2709 421.58 5.923 421.756 6.55214C421.874 7.00954 422.11 7.42779 422.441 7.76466C422.732 8.02425 423.107 8.16905 423.496 8.17193L423.533 8.19043ZM431.049 9.11602C430.456 9.13182 429.875 8.94581 429.402 8.58844C428.915 8.18744 428.555 7.65369 428.365 7.05196C428.11 6.26658 427.991 5.44323 428.013 4.61766C427.991 3.79819 428.11 2.98104 428.365 2.20187C428.56 1.59797 428.923 1.06192 429.411 0.656134C429.887 0.308626 430.46 0.121338 431.049 0.121338C431.638 0.121338 432.212 0.308626 432.688 0.656134C433.176 1.06192 433.538 1.59797 433.734 2.20187C433.992 2.98045 434.114 3.79764 434.094 4.61766C434.114 5.44377 433.992 6.26717 433.734 7.05196C433.544 7.65369 433.184 8.18744 432.697 8.58844C432.214 8.95531 431.618 9.14192 431.012 9.11602H431.049ZM431.049 8.19043C431.36 8.19218 431.664 8.10622 431.928 7.94247C432.191 7.77872 432.404 7.54382 432.539 7.26484C432.935 6.44405 433.116 5.53664 433.067 4.62691C433.079 3.97395 432.998 3.32261 432.826 2.69244C432.706 2.23424 432.466 1.81599 432.132 1.47991C431.99 1.33993 431.82 1.2301 431.634 1.15696C431.448 1.08381 431.249 1.04884 431.049 1.05414C430.741 1.05414 430.438 1.14091 430.176 1.30457C429.914 1.46822 429.704 1.70217 429.568 1.97973C429.167 2.79877 428.982 3.70693 429.032 4.61766C429.019 5.27066 429.1 5.92209 429.272 6.55214C429.39 7.00954 429.626 7.42779 429.957 7.76466C430.248 8.02425 430.623 8.16905 431.012 8.17193L431.049 8.19043Z" fill="#89898B"></path><path d="M394.089 49.3053V58.0521H393.033V50.416H392.978L390.84 51.8321V50.7584L393.033 49.3053H394.089ZM399.346 58.1724C398.876 58.1784 398.411 58.0771 397.985 57.8762C397.613 57.6827 397.295 57.3996 397.06 57.0525C396.816 56.704 396.678 56.2927 396.662 55.8677H397.689C397.706 56.0595 397.762 56.2458 397.854 56.4147C397.947 56.5836 398.073 56.7314 398.226 56.8488C398.555 57.1076 398.965 57.242 399.383 57.2283C399.712 57.2372 400.037 57.1556 400.323 56.9924C400.608 56.8292 400.844 56.5906 401.003 56.3027C401.165 55.9946 401.247 55.6511 401.243 55.3031C401.25 54.9478 401.164 54.5968 400.994 54.2849C400.833 53.9879 400.597 53.7388 400.309 53.563C400.004 53.3909 399.659 53.3016 399.309 53.3038C399.03 53.3042 398.753 53.3447 398.485 53.4241C398.237 53.4926 398.003 53.6021 397.791 53.7481L396.801 53.6278L397.328 49.3238H401.873V50.2494H398.217L397.911 52.8318H397.958C398.163 52.6799 398.391 52.5612 398.633 52.48C399.007 52.3504 399.405 52.3048 399.799 52.3464C400.192 52.388 400.572 52.5158 400.91 52.7207C401.334 52.9675 401.677 53.3305 401.901 53.7666C402.151 54.2296 402.278 54.7491 402.271 55.2753C402.277 55.7997 402.146 56.3166 401.891 56.7748C401.646 57.2024 401.292 57.557 400.864 57.8022C400.401 58.0614 399.876 58.1894 399.346 58.1724ZM407.001 49.3053V58.0521H405.945V50.416H405.89L403.752 51.8321V50.7584L405.945 49.3053H407.001ZM409.777 58.1169C409.627 58.1162 409.479 58.0711 409.354 57.9872C409.228 57.9034 409.13 57.7844 409.072 57.6452C409.014 57.506 408.998 57.3527 409.026 57.2045C409.055 57.0563 409.126 56.9197 409.231 56.8118C409.34 56.7081 409.476 56.6379 409.624 56.61C409.771 56.582 409.924 56.5973 410.063 56.654C410.202 56.7108 410.321 56.8066 410.407 56.9299C410.493 57.0531 410.541 57.1986 410.546 57.3486C410.546 57.4861 410.507 57.6208 410.435 57.7374C410.368 57.8528 410.272 57.9485 410.157 58.0152C410.041 58.0818 409.911 58.1169 409.777 58.1169ZM414.887 58.1724C414.293 58.1897 413.712 58.0035 413.239 57.6448C412.752 57.2438 412.392 56.7101 412.202 56.1083C411.944 55.3236 411.822 54.5002 411.841 53.6741C411.822 52.854 411.944 52.0368 412.202 51.2583C412.398 50.6544 412.76 50.1183 413.248 49.7125C413.724 49.365 414.298 49.1777 414.887 49.1777C415.476 49.1777 416.049 49.365 416.525 49.7125C417.01 50.1189 417.37 50.655 417.562 51.2583C417.823 52.0362 417.948 52.8535 417.932 53.6741C417.952 54.5002 417.83 55.3236 417.571 56.1083C417.378 56.7085 417.018 57.2414 416.534 57.6448C416.056 58.0062 415.468 58.1925 414.868 58.1724H414.887ZM414.887 57.2468C415.197 57.2475 415.501 57.1611 415.764 56.9974C416.028 56.8338 416.24 56.5995 416.377 56.3212C416.772 55.5004 416.954 54.593 416.904 53.6833C416.918 53.0296 416.834 52.3775 416.655 51.7488C416.537 51.2914 416.301 50.8732 415.97 50.5363C415.679 50.257 415.29 50.104 414.887 50.1105C414.578 50.1105 414.275 50.1973 414.013 50.361C413.752 50.5246 413.541 50.7586 413.406 51.0361C413.004 51.8552 412.82 52.7633 412.869 53.6741C412.852 54.3273 412.933 54.9794 413.11 55.6085C413.227 56.0659 413.463 56.4842 413.794 56.8211C414.09 57.0849 414.472 57.23 414.868 57.2283L414.887 57.2468ZM422.402 58.1724C421.812 58.1898 421.233 58.0035 420.764 57.6448C420.274 57.2447 419.911 56.711 419.718 56.1083C419.467 55.3219 419.349 54.4993 419.367 53.6741C419.349 52.8549 419.468 52.0385 419.718 51.2583C419.917 50.6559 420.279 50.1207 420.764 49.7125C421.24 49.365 421.813 49.1777 422.402 49.1777C422.991 49.1777 423.565 49.365 424.041 49.7125C424.529 50.1183 424.891 50.6544 425.087 51.2583C425.345 52.0368 425.467 52.854 425.448 53.6741C425.468 54.5002 425.345 55.3236 425.087 56.1083C424.897 56.7101 424.537 57.2438 424.05 57.6448C423.572 58.0076 422.984 58.194 422.384 58.1724H422.402ZM422.402 57.2468C422.713 57.2486 423.017 57.1626 423.281 56.9989C423.545 56.8351 423.757 56.6002 423.893 56.3212C424.288 55.5004 424.469 54.593 424.42 53.6833C424.432 53.0303 424.351 52.379 424.18 51.7488C424.063 51.2891 423.823 50.8699 423.485 50.5363C423.343 50.3963 423.173 50.2865 422.987 50.2133C422.801 50.1402 422.602 50.1052 422.402 50.1105C422.094 50.1116 421.792 50.1988 421.53 50.3624C421.268 50.5259 421.058 50.7592 420.922 51.0361C420.525 51.8567 420.34 52.7637 420.385 53.6741C420.372 54.3271 420.453 54.9785 420.625 55.6085C420.746 56.0667 420.985 56.485 421.32 56.8211C421.611 57.085 421.991 57.2303 422.384 57.2283L422.402 57.2468ZM429.927 58.1724C429.334 58.1897 428.753 58.0035 428.28 57.6448C427.793 57.2438 427.433 56.7101 427.243 56.1083C426.985 55.3236 426.862 54.5002 426.882 53.6741C426.863 52.854 426.985 52.0368 427.243 51.2583C427.435 50.6599 427.791 50.1275 428.271 49.7218C428.746 49.3743 429.32 49.187 429.909 49.187C430.498 49.187 431.072 49.3743 431.547 49.7218C432.033 50.1281 432.392 50.6643 432.584 51.2675C432.846 52.0455 432.971 52.8627 432.954 53.6833C432.974 54.5094 432.852 55.3328 432.593 56.1176C432.4 56.7177 432.041 57.2506 431.557 57.6541C431.082 58.0082 430.501 58.1909 429.909 58.1724H429.927ZM429.927 57.2468C430.238 57.2475 430.542 57.1611 430.805 56.9974C431.069 56.8338 431.281 56.5995 431.418 56.3212C431.813 55.5004 431.995 54.593 431.945 53.6833C431.959 53.0296 431.875 52.3775 431.695 51.7488C431.578 51.2914 431.341 50.8732 431.01 50.5363C430.72 50.257 430.331 50.104 429.927 50.1105C429.619 50.1105 429.316 50.1973 429.054 50.361C428.792 50.5246 428.582 50.7586 428.447 51.0361C428.045 51.8552 427.86 52.7633 427.91 53.6741C427.897 54.3271 427.978 54.9785 428.15 55.6085C428.268 56.0659 428.504 56.4842 428.835 56.8211C429.131 57.0849 429.513 57.23 429.909 57.2283L429.927 57.2468Z" fill="#89898B"></path><path d="M393.024 98.3614V107.108H391.96V99.4721H391.914L389.775 100.888V99.8146L391.96 98.3614H393.024ZM398.272 107.229C397.805 107.234 397.343 107.133 396.921 106.932C396.533 106.744 396.199 106.461 395.949 106.109C395.709 105.758 395.572 105.348 395.551 104.924H396.578C396.599 105.115 396.657 105.3 396.749 105.468C396.841 105.637 396.965 105.785 397.115 105.905C397.418 106.127 397.777 106.257 398.151 106.28C398.526 106.303 398.899 106.218 399.226 106.035C399.509 105.871 399.74 105.63 399.892 105.34C400.054 105.032 400.137 104.689 400.133 104.341C400.139 103.985 400.053 103.634 399.883 103.323C399.725 103.024 399.488 102.774 399.198 102.601C398.897 102.428 398.555 102.338 398.208 102.341C397.929 102.341 397.651 102.382 397.384 102.462C397.133 102.53 396.895 102.64 396.68 102.786L395.69 102.665L396.218 98.3614H400.781V99.287H397.078L396.773 101.869H396.828C397.033 101.716 397.261 101.597 397.504 101.518C397.775 101.421 398.059 101.371 398.346 101.37C398.843 101.363 399.333 101.493 399.761 101.746C400.188 101.999 400.538 102.365 400.771 102.804C401.012 103.269 401.137 103.785 401.137 104.308C401.137 104.832 401.012 105.347 400.771 105.812C400.526 106.24 400.172 106.595 399.744 106.84C399.296 107.096 398.788 107.23 398.272 107.229ZM405.677 107.229C405.084 107.246 404.502 107.06 404.029 106.701C403.542 106.3 403.182 105.766 402.993 105.164C402.734 104.38 402.612 103.556 402.632 102.73C402.613 101.91 402.735 101.093 402.993 100.314C403.188 99.7105 403.551 99.1745 404.039 98.7687C404.514 98.4212 405.088 98.2339 405.677 98.2339C406.266 98.2339 406.84 98.4212 407.315 98.7687C407.801 99.175 408.16 99.7112 408.352 100.314C408.614 101.092 408.739 101.91 408.722 102.73C408.742 103.556 408.62 104.38 408.361 105.164C408.172 105.766 407.812 106.3 407.325 106.701C406.861 107.05 406.295 107.236 405.714 107.229H405.677ZM405.677 106.303C405.986 106.305 406.29 106.219 406.552 106.055C406.814 105.891 407.024 105.656 407.158 105.377C407.561 104.559 407.746 103.65 407.695 102.739C407.709 102.086 407.624 101.434 407.445 100.805C407.327 100.348 407.091 99.9293 406.76 99.5925C406.469 99.3132 406.08 99.1601 405.677 99.1667C405.368 99.1656 405.065 99.2519 404.803 99.4157C404.541 99.5795 404.331 99.814 404.196 100.092C403.795 100.911 403.61 101.819 403.659 102.73C403.647 103.383 403.728 104.035 403.9 104.665C404.018 105.122 404.254 105.54 404.585 105.877C404.894 106.154 405.299 106.3 405.714 106.284L405.677 106.303ZM410.786 107.229C410.583 107.226 410.389 107.144 410.246 107.001C410.102 106.857 410.02 106.663 410.018 106.46C410.016 106.36 410.036 106.26 410.076 106.167C410.116 106.075 410.175 105.992 410.249 105.923C410.317 105.849 410.4 105.789 410.493 105.749C410.585 105.709 410.685 105.69 410.786 105.692C410.989 105.694 411.183 105.776 411.327 105.92C411.47 106.063 411.552 106.257 411.555 106.46C411.554 106.596 411.519 106.73 411.453 106.849C411.385 106.963 411.289 107.059 411.175 107.127C411.064 107.172 410.943 107.188 410.823 107.173L410.786 107.229ZM415.896 107.284C415.305 107.3 414.727 107.114 414.257 106.757C413.767 106.356 413.404 105.823 413.211 105.22C412.961 104.434 412.842 103.611 412.86 102.786C412.842 101.967 412.961 101.15 413.211 100.37C413.412 99.7464 413.788 99.1938 414.294 98.7779C414.77 98.4304 415.344 98.2431 415.933 98.2431C416.522 98.2431 417.095 98.4304 417.571 98.7779C418.059 99.1837 418.422 99.7198 418.617 100.324C418.875 101.102 418.997 101.919 418.978 102.739C418.998 103.566 418.876 104.389 418.617 105.174C418.427 105.775 418.067 106.309 417.58 106.71C417.106 107.066 416.525 107.249 415.933 107.229L415.896 107.284ZM415.896 106.359C416.206 106.36 416.51 106.274 416.774 106.111C417.038 105.947 417.25 105.712 417.386 105.433C417.781 104.612 417.963 103.705 417.913 102.795C417.925 102.142 417.844 101.491 417.673 100.861C417.556 100.401 417.316 99.9816 416.978 99.648C416.836 99.508 416.666 99.3982 416.48 99.325C416.294 99.2519 416.095 99.2169 415.896 99.2222C415.587 99.2233 415.285 99.3105 415.023 99.474C414.762 99.6376 414.551 99.8709 414.415 100.148C414.022 100.969 413.84 101.876 413.887 102.786C413.872 103.438 413.95 104.09 414.118 104.72C414.235 105.18 414.475 105.599 414.813 105.933C415.127 106.19 415.528 106.316 415.933 106.284L415.896 106.359ZM423.421 107.284C422.827 107.301 422.246 107.115 421.773 106.757C421.286 106.356 420.926 105.822 420.736 105.22C420.478 104.435 420.356 103.612 420.375 102.786C420.356 101.966 420.478 101.149 420.736 100.37C420.932 99.766 421.294 99.23 421.782 98.8242C422.258 98.4767 422.832 98.2894 423.421 98.2894C424.01 98.2894 424.583 98.4767 425.059 98.8242C425.547 99.2281 425.907 99.7651 426.096 100.37C426.357 101.148 426.482 101.965 426.466 102.786C426.486 103.612 426.364 104.435 426.105 105.22C425.915 105.822 425.555 106.356 425.068 106.757C424.598 107.086 424.032 107.252 423.458 107.229L423.421 107.284ZM423.421 106.359C423.731 106.359 424.035 106.273 424.298 106.109C424.562 105.945 424.774 105.711 424.911 105.433C425.306 104.612 425.488 103.705 425.438 102.795C425.452 102.141 425.368 101.489 425.188 100.861C425.071 100.403 424.835 99.9849 424.504 99.648C424.213 99.3687 423.824 99.2157 423.421 99.2222C423.112 99.2222 422.809 99.309 422.547 99.4726C422.286 99.6363 422.075 99.8702 421.94 100.148C421.538 100.967 421.354 101.875 421.403 102.786C421.39 103.439 421.471 104.09 421.643 104.72C421.761 105.178 421.997 105.596 422.328 105.933C422.646 106.19 423.05 106.316 423.458 106.284L423.421 106.359ZM430.936 107.284C430.346 107.3 429.768 107.114 429.298 106.757C428.808 106.356 428.445 105.823 428.252 105.22C428.001 104.434 427.883 103.611 427.9 102.786C427.883 101.967 428.002 101.15 428.252 100.37C428.451 99.7676 428.813 99.2324 429.298 98.8242C429.774 98.4767 430.347 98.2894 430.936 98.2894C431.525 98.2894 432.099 98.4767 432.575 98.8242C433.063 99.23 433.425 99.766 433.621 100.37C433.879 101.149 434.001 101.966 433.982 102.786C434.001 103.612 433.879 104.435 433.621 105.22C433.431 105.822 433.071 106.356 432.584 106.757C432.114 107.088 431.548 107.254 430.973 107.229L430.936 107.284ZM430.936 106.359C431.247 106.36 431.551 106.274 431.815 106.111C432.079 105.947 432.291 105.712 432.427 105.433C432.822 104.612 433.003 103.705 432.954 102.795C432.966 102.142 432.885 101.491 432.714 100.861C432.597 100.401 432.357 99.9816 432.019 99.648C431.877 99.508 431.707 99.3982 431.521 99.325C431.335 99.2519 431.136 99.2169 430.936 99.2222C430.628 99.2233 430.326 99.3105 430.064 99.474C429.802 99.6376 429.592 99.8709 429.455 100.148C429.062 100.969 428.881 101.876 428.928 102.786C428.913 103.438 428.991 104.09 429.159 104.72C429.28 105.178 429.519 105.597 429.853 105.933C430.167 106.19 430.569 106.316 430.973 106.284L430.936 106.359Z" fill="#89898B"></path><path d="M438.731 119.604H385.046C383.768 119.604 382.732 120.64 382.732 121.918V136.727C382.732 138.005 383.768 139.041 385.046 139.041H438.731C440.009 139.041 441.045 138.005 441.045 136.727V121.918C441.045 120.64 440.009 119.604 438.731 119.604Z" fill="#4C4E56" stroke="#4C4E56" stroke-width="0.92559"></path><path d="M393.145 125.203V133.95H392.081V126.314H392.035L389.896 127.73V126.657L392.081 125.203H393.145ZM395.459 132.155V131.285L399.3 125.203H399.93V126.546H399.504L396.598 131.173V131.247H401.781V132.173L395.459 132.155ZM399.578 133.95V125.203H400.587V133.95H399.578ZM406.168 125.083C406.536 125.083 406.9 125.152 407.242 125.287C407.618 125.427 407.954 125.656 408.223 125.953C408.553 126.313 408.797 126.744 408.936 127.212C409.138 127.862 409.231 128.54 409.214 129.22C409.22 129.915 409.142 130.608 408.982 131.285C408.866 131.827 408.652 132.345 408.353 132.812C408.102 133.198 407.758 133.517 407.353 133.737C406.947 133.956 406.491 134.067 406.03 134.061C405.575 134.07 405.125 133.972 404.715 133.774C404.345 133.579 404.027 133.296 403.79 132.951C403.541 132.588 403.38 132.173 403.318 131.738H404.363C404.443 132.119 404.64 132.466 404.928 132.728C405.234 132.998 405.632 133.137 406.039 133.117C406.359 133.122 406.675 133.043 406.955 132.889C407.236 132.735 407.472 132.51 407.64 132.238C408.071 131.478 408.273 130.611 408.223 129.739H408.186C408.03 129.973 407.84 130.182 407.622 130.359C407.402 130.532 407.155 130.667 406.89 130.757C406.613 130.851 406.322 130.898 406.03 130.896C405.545 130.901 405.068 130.773 404.65 130.526C404.233 130.276 403.888 129.922 403.651 129.498C403.397 129.037 403.269 128.516 403.281 127.989C403.276 127.479 403.4 126.976 403.641 126.527C403.878 126.084 404.229 125.713 404.66 125.453C405.119 125.194 405.641 125.066 406.168 125.083ZM406.168 126.009C405.826 126.006 405.489 126.099 405.196 126.277C404.91 126.452 404.676 126.702 404.521 126.999C404.353 127.302 404.267 127.643 404.271 127.989C404.267 128.337 404.35 128.681 404.512 128.989C404.733 129.399 405.1 129.711 405.541 129.862C405.982 130.013 406.464 129.992 406.89 129.804C407.119 129.694 407.327 129.544 407.501 129.359C407.678 129.173 407.819 128.957 407.918 128.721C408.014 128.486 408.064 128.234 408.066 127.98C408.061 127.656 407.975 127.337 407.816 127.055C407.657 126.757 407.424 126.505 407.14 126.323C406.854 126.127 406.515 126.021 406.168 126.018V126.009ZM411.333 134.006C411.13 134.003 410.936 133.922 410.793 133.778C410.649 133.635 410.567 133.441 410.565 133.238C410.563 133.137 410.583 133.037 410.623 132.944C410.663 132.852 410.722 132.769 410.796 132.701C410.864 132.626 410.947 132.566 411.04 132.527C411.132 132.487 411.232 132.467 411.333 132.469C411.435 132.467 411.537 132.486 411.631 132.526C411.725 132.566 411.81 132.626 411.879 132.701C411.951 132.771 412.007 132.854 412.045 132.946C412.083 133.039 412.102 133.138 412.101 133.238C412.105 133.374 412.07 133.509 412 133.626C411.937 133.745 411.84 133.841 411.722 133.904C411.607 133.98 411.471 134.019 411.333 134.015V134.006ZM413.693 132.155V131.285L417.535 125.203H418.173V126.546H417.747L414.841 131.173V131.247H420.015V132.173L413.693 132.155ZM417.812 133.95V125.203H418.821V133.95H417.812ZM424.356 134.071C423.886 134.077 423.421 133.975 422.996 133.774C422.623 133.581 422.305 133.298 422.07 132.951C421.826 132.602 421.688 132.191 421.672 131.766H422.699C422.718 131.957 422.775 132.143 422.867 132.312C422.959 132.48 423.085 132.628 423.236 132.747C423.565 133.006 423.975 133.14 424.393 133.126C424.722 133.135 425.047 133.054 425.333 132.891C425.618 132.727 425.854 132.489 426.013 132.201C426.175 131.893 426.257 131.549 426.254 131.201C426.26 130.846 426.174 130.495 426.004 130.183C425.843 129.886 425.607 129.637 425.319 129.461C425.014 129.288 424.669 129.198 424.319 129.202C424.04 129.202 423.763 129.243 423.495 129.322C423.248 129.393 423.014 129.502 422.801 129.646L421.811 129.526L422.338 125.222H426.883V126.148H423.181L422.875 128.73H422.922C423.127 128.578 423.355 128.459 423.597 128.378C423.871 128.282 424.159 128.232 424.449 128.23C424.951 128.222 425.445 128.357 425.874 128.619C426.297 128.866 426.641 129.229 426.865 129.665C427.111 130.128 427.24 130.644 427.24 131.169C427.24 131.693 427.111 132.21 426.865 132.673C426.619 133.1 426.265 133.455 425.837 133.7C425.385 133.953 424.874 134.081 424.356 134.071ZM431.761 125.083C432.128 125.082 432.493 125.152 432.835 125.287C433.213 125.427 433.553 125.655 433.825 125.953C434.152 126.315 434.395 126.745 434.538 127.212C434.732 127.863 434.823 128.541 434.806 129.22C434.815 129.915 434.741 130.608 434.584 131.285C434.461 131.827 434.245 132.343 433.945 132.812C433.694 133.198 433.351 133.517 432.946 133.737C432.54 133.957 432.084 134.069 431.622 134.061C431.17 134.073 430.722 133.975 430.317 133.774C429.945 133.58 429.627 133.297 429.391 132.951C429.144 132.589 428.985 132.173 428.929 131.738H429.965C430.053 132.116 430.25 132.46 430.53 132.728C430.835 132.998 431.234 133.137 431.641 133.117C431.961 133.122 432.277 133.043 432.557 132.889C432.838 132.735 433.074 132.51 433.242 132.238C433.676 131.479 433.882 130.611 433.834 129.739H433.76C433.607 129.975 433.416 130.184 433.196 130.359C432.976 130.532 432.729 130.667 432.464 130.757C432.097 130.878 431.709 130.921 431.324 130.881C430.94 130.841 430.568 130.72 430.234 130.526C429.814 130.276 429.467 129.922 429.225 129.498C428.975 129.035 428.847 128.516 428.855 127.989C428.85 127.479 428.974 126.976 429.216 126.527C429.452 126.084 429.803 125.713 430.234 125.453C430.688 125.197 431.203 125.069 431.724 125.083H431.761ZM431.761 126.009C431.418 126.006 431.082 126.099 430.789 126.277C430.506 126.456 430.273 126.704 430.113 126.999C429.945 127.302 429.859 127.643 429.863 127.989C429.86 128.337 429.942 128.681 430.104 128.989C430.26 129.281 430.49 129.526 430.771 129.702C431.027 129.856 431.316 129.945 431.614 129.963C431.912 129.981 432.21 129.926 432.483 129.804C432.712 129.694 432.919 129.544 433.094 129.359C433.27 129.173 433.411 128.957 433.51 128.721C433.61 128.487 433.66 128.235 433.658 127.98C433.654 127.656 433.568 127.337 433.408 127.055C433.252 126.755 433.019 126.503 432.733 126.323C432.436 126.12 432.084 126.014 431.724 126.018L431.761 126.009Z" fill="white"></path><path d="M392.858 197.399V206.146H391.794V198.51H391.747L389.609 199.926V198.853L391.794 197.399H392.858ZM395.172 204.351V203.481L399.013 197.399H399.643V198.742H399.217L396.311 203.37V203.444H401.494V204.369L395.172 204.351ZM399.291 206.146V197.399H400.3V206.146H399.291ZM405.9 206.267C405.364 206.28 404.833 206.172 404.345 205.952C403.923 205.768 403.561 205.47 403.299 205.091C403.046 204.717 402.914 204.275 402.919 203.823C402.916 203.468 402.992 203.117 403.141 202.796C403.281 202.492 403.486 202.223 403.743 202.009C403.992 201.799 404.292 201.659 404.613 201.602V201.518C404.203 201.418 403.846 201.167 403.614 200.815C403.386 200.45 403.266 200.028 403.266 199.598C403.266 199.168 403.386 198.746 403.614 198.381C403.842 198.025 404.162 197.738 404.539 197.548C404.967 197.345 405.436 197.243 405.909 197.251C406.376 197.245 406.839 197.346 407.26 197.548C407.64 197.735 407.96 198.023 408.186 198.381C408.424 198.742 408.551 199.165 408.551 199.598C408.551 200.03 408.424 200.454 408.186 200.815C407.957 201.166 407.603 201.418 407.196 201.518V201.574C407.511 201.63 407.805 201.771 408.047 201.981C408.31 202.192 408.519 202.461 408.658 202.768C408.811 203.089 408.89 203.44 408.889 203.795C408.895 204.247 408.762 204.689 408.51 205.063C408.242 205.44 407.877 205.737 407.455 205.924C406.97 206.156 406.437 206.273 405.9 206.267ZM405.9 205.341C406.251 205.346 406.6 205.284 406.927 205.156C407.196 205.04 407.427 204.851 407.594 204.61C407.749 204.363 407.829 204.077 407.825 203.786C407.83 203.478 407.743 203.175 407.575 202.916C407.401 202.658 407.161 202.45 406.881 202.314C406.576 202.165 406.239 202.092 405.9 202.102C405.554 202.091 405.211 202.164 404.9 202.314C404.62 202.45 404.38 202.658 404.206 202.916C404.04 203.175 403.957 203.479 403.965 203.786C403.958 204.076 404.035 204.363 404.187 204.61C404.358 204.851 404.592 205.04 404.863 205.156C405.194 205.279 405.547 205.336 405.9 205.323V205.341ZM405.9 201.194C406.189 201.2 406.476 201.134 406.733 201C406.968 200.884 407.167 200.704 407.307 200.482C407.451 200.241 407.524 199.966 407.52 199.686C407.525 199.414 407.451 199.147 407.307 198.917C407.173 198.693 406.977 198.513 406.742 198.399C406.48 198.272 406.191 198.209 405.9 198.214C405.602 198.208 405.308 198.271 405.039 198.399C404.802 198.513 404.602 198.693 404.465 198.917C404.33 199.151 404.263 199.417 404.271 199.686C404.263 199.965 404.334 200.241 404.474 200.482C404.614 200.704 404.813 200.884 405.048 201C405.314 201.125 405.606 201.186 405.9 201.176V201.194ZM410.991 206.23C410.889 206.231 410.789 206.212 410.695 206.174C410.601 206.136 410.516 206.079 410.444 206.007C410.301 205.864 410.221 205.669 410.221 205.466C410.221 205.263 410.301 205.068 410.444 204.925C410.551 204.817 410.688 204.743 410.837 204.712C410.986 204.682 411.14 204.696 411.281 204.754C411.422 204.811 411.542 204.909 411.627 205.035C411.712 205.161 411.758 205.309 411.759 205.461C411.758 205.597 411.723 205.731 411.657 205.85C411.589 205.964 411.494 206.06 411.379 206.128C411.252 206.197 411.107 206.226 410.963 206.211L410.991 206.23ZM416.1 206.285C415.507 206.301 414.926 206.115 414.452 205.758C413.968 205.354 413.608 204.821 413.416 204.221C413.157 203.436 413.035 202.613 413.055 201.787C413.035 200.967 413.157 200.15 413.416 199.371C413.611 198.767 413.973 198.231 414.461 197.825C414.937 197.478 415.511 197.29 416.1 197.29C416.689 197.29 417.263 197.478 417.738 197.825C418.226 198.231 418.589 198.767 418.784 199.371C419.042 200.15 419.164 200.967 419.145 201.787C419.165 202.613 419.043 203.436 418.784 204.221C418.594 204.823 418.234 205.357 417.747 205.758C417.272 206.11 416.691 206.289 416.1 206.267V206.285ZM416.1 205.36C416.41 205.361 416.715 205.275 416.978 205.112C417.242 204.948 417.454 204.713 417.59 204.434C417.985 203.613 418.167 202.706 418.118 201.796C418.129 201.143 418.048 200.492 417.877 199.862C417.76 199.402 417.52 198.983 417.183 198.649C417.04 198.509 416.871 198.399 416.685 198.326C416.498 198.253 416.3 198.218 416.1 198.223C415.791 198.223 415.488 198.31 415.227 198.474C414.965 198.637 414.754 198.871 414.619 199.149C414.222 199.969 414.038 200.876 414.082 201.787C414.07 202.44 414.151 203.091 414.323 203.721C414.44 204.179 414.677 204.597 415.008 204.934C415.31 205.195 415.7 205.334 416.1 205.323V205.36ZM423.625 206.285C423.032 206.302 422.45 206.116 421.977 205.758C421.49 205.357 421.13 204.823 420.941 204.221C420.682 203.436 420.56 202.613 420.58 201.787C420.56 200.967 420.683 200.15 420.941 199.371C421.131 198.764 421.49 198.225 421.977 197.816C422.452 197.46 423.032 197.274 423.625 197.288C424.212 197.272 424.787 197.459 425.254 197.816C425.745 198.219 426.108 198.756 426.3 199.362C426.558 200.14 426.68 200.958 426.661 201.778C426.679 202.603 426.56 203.425 426.309 204.212C426.116 204.814 425.753 205.348 425.263 205.748C424.792 206.102 424.214 206.285 423.625 206.267V206.285ZM423.625 205.36C423.934 205.362 424.238 205.276 424.5 205.112C424.762 204.948 424.972 204.713 425.106 204.434C425.505 203.614 425.689 202.707 425.643 201.796C425.656 201.142 425.572 200.49 425.393 199.862C425.276 199.402 425.036 198.983 424.698 198.649C424.557 198.51 424.389 198.401 424.205 198.328C424.02 198.255 423.823 198.219 423.625 198.223C423.315 198.223 423.011 198.309 422.747 198.473C422.484 198.636 422.271 198.871 422.135 199.149C421.742 199.97 421.56 200.877 421.607 201.787C421.59 202.44 421.671 203.092 421.848 203.721C421.965 204.179 422.202 204.597 422.533 204.934C422.835 205.195 423.225 205.334 423.625 205.323V205.36ZM431.141 206.285C430.548 206.301 429.967 206.115 429.493 205.758C429.009 205.354 428.649 204.821 428.456 204.221C428.198 203.436 428.076 202.613 428.095 201.787C428.076 200.967 428.198 200.15 428.456 199.371C428.642 198.767 428.995 198.228 429.475 197.816C429.95 197.469 430.524 197.281 431.113 197.281C431.702 197.281 432.276 197.469 432.751 197.816C433.239 198.222 433.602 198.758 433.797 199.362C434.055 200.14 434.177 200.958 434.158 201.778C434.178 202.604 434.056 203.427 433.797 204.212C433.608 204.814 433.247 205.347 432.76 205.748C432.294 206.098 431.723 206.28 431.141 206.267V206.285ZM431.141 205.36C431.451 205.361 431.755 205.275 432.019 205.112C432.283 204.948 432.495 204.713 432.631 204.434C433.026 203.613 433.208 202.706 433.158 201.796C433.17 201.143 433.089 200.492 432.918 199.862C432.801 199.402 432.561 198.983 432.224 198.649C432.081 198.509 431.911 198.399 431.725 198.326C431.539 198.253 431.34 198.218 431.141 198.223C430.832 198.223 430.529 198.31 430.267 198.474C430.006 198.637 429.795 198.871 429.66 199.149C429.263 199.969 429.078 200.876 429.123 201.787C429.11 202.44 429.191 203.091 429.363 203.721C429.481 204.179 429.717 204.597 430.048 204.934C430.351 205.195 430.741 205.334 431.141 205.323V205.36Z" fill="#89898B"></path><path d="M393.747 246.456V255.203H392.682V247.567H392.636L390.498 248.983V247.909L392.682 246.456H393.747ZM396.052 253.407V252.537L399.902 246.456H400.531V247.798H400.106L397.199 252.426V252.5H402.383V253.426L396.052 253.407ZM400.18 255.203V246.456H401.179V255.203H400.18ZM404.252 255.203L408.168 247.465V247.391H403.66V246.465H409.26V247.456L405.409 255.203H404.252ZM410.102 255.268C410.001 255.269 409.9 255.25 409.807 255.212C409.713 255.173 409.628 255.117 409.556 255.045C409.413 254.901 409.333 254.707 409.333 254.504C409.333 254.301 409.413 254.106 409.556 253.962C409.663 253.854 409.799 253.781 409.948 253.75C410.097 253.72 410.252 253.734 410.393 253.792C410.533 253.849 410.654 253.947 410.739 254.073C410.824 254.199 410.87 254.347 410.87 254.499C410.869 254.635 410.834 254.769 410.768 254.888C410.701 255.002 410.605 255.098 410.491 255.166C410.374 255.237 410.239 255.272 410.102 255.268ZM415.211 255.323C414.621 255.34 414.042 255.154 413.573 254.795C413.083 254.395 412.72 253.862 412.527 253.259C412.272 252.474 412.153 251.65 412.175 250.825C412.153 250.005 412.272 249.188 412.527 248.409C412.722 247.805 413.085 247.269 413.573 246.863C414.049 246.516 414.622 246.328 415.211 246.328C415.8 246.328 416.374 246.516 416.85 246.863C417.338 247.269 417.7 247.805 417.895 248.409C418.154 249.187 418.276 250.005 418.256 250.825C418.276 251.651 418.154 252.474 417.895 253.259C417.706 253.861 417.346 254.394 416.859 254.795C416.386 255.154 415.805 255.34 415.211 255.323ZM415.211 254.397C415.522 254.399 415.826 254.313 416.09 254.15C416.353 253.986 416.565 253.751 416.701 253.472C417.097 252.651 417.278 251.744 417.229 250.834C417.241 250.181 417.16 249.53 416.988 248.899C416.872 248.44 416.632 248.021 416.294 247.687C416.152 247.547 415.982 247.437 415.796 247.364C415.61 247.291 415.411 247.256 415.211 247.261C414.903 247.262 414.601 247.349 414.339 247.513C414.077 247.677 413.867 247.91 413.73 248.187C413.334 249.007 413.149 249.914 413.194 250.825C413.181 251.478 413.262 252.129 413.434 252.759C413.555 253.217 413.794 253.636 414.128 253.972C414.424 254.242 414.811 254.388 415.211 254.379V254.397ZM422.736 255.323C422.143 255.34 421.562 255.154 421.089 254.795C420.602 254.394 420.242 253.861 420.052 253.259C419.793 252.474 419.671 251.651 419.691 250.825C419.672 250.005 419.794 249.187 420.052 248.409C420.262 247.803 420.641 247.27 421.144 246.872C421.62 246.525 422.194 246.338 422.783 246.338C423.372 246.338 423.945 246.525 424.421 246.872C424.906 247.279 425.266 247.815 425.458 248.418C425.719 249.196 425.844 250.013 425.828 250.834C425.848 251.66 425.726 252.483 425.467 253.268C425.274 253.871 424.911 254.405 424.421 254.805C423.938 255.17 423.341 255.354 422.736 255.323ZM422.736 254.397C423.046 254.4 423.349 254.314 423.611 254.15C423.874 253.986 424.084 253.751 424.217 253.472C424.621 252.654 424.805 251.745 424.754 250.834C424.768 250.18 424.684 249.528 424.504 248.899C424.387 248.442 424.15 248.024 423.819 247.687C423.529 247.408 423.139 247.255 422.736 247.261C422.428 247.261 422.125 247.348 421.863 247.512C421.601 247.675 421.391 247.909 421.255 248.187C420.854 249.006 420.669 249.914 420.719 250.825C420.701 251.478 420.783 252.13 420.959 252.759C421.077 253.217 421.313 253.635 421.644 253.972C421.944 254.24 422.334 254.385 422.736 254.379V254.397ZM430.252 255.323C429.662 255.34 429.083 255.154 428.614 254.795C428.124 254.395 427.76 253.862 427.568 253.259C427.312 252.474 427.194 251.65 427.216 250.825C427.194 250.005 427.313 249.188 427.568 248.409C427.763 247.805 428.126 247.269 428.614 246.863C429.089 246.516 429.663 246.328 430.252 246.328C430.841 246.328 431.415 246.516 431.89 246.863C432.378 247.269 432.741 247.805 432.936 248.409C433.194 249.187 433.317 250.005 433.297 250.825C433.317 251.651 433.195 252.474 432.936 253.259C432.747 253.861 432.387 254.394 431.9 254.795C431.427 255.154 430.845 255.34 430.252 255.323ZM430.252 254.397C430.562 254.399 430.867 254.313 431.131 254.15C431.394 253.986 431.606 253.751 431.742 253.472C432.138 252.651 432.319 251.744 432.27 250.834C432.282 250.181 432.201 249.53 432.029 248.899C431.912 248.44 431.672 248.021 431.335 247.687C431.192 247.547 431.023 247.437 430.837 247.364C430.651 247.291 430.452 247.256 430.252 247.261C429.944 247.262 429.641 247.349 429.38 247.513C429.118 247.677 428.907 247.91 428.771 248.187C428.375 249.007 428.19 249.914 428.234 250.825C428.222 251.478 428.303 252.129 428.475 252.759C428.596 253.217 428.835 253.636 429.169 253.972C429.464 254.242 429.852 254.388 430.252 254.379V254.397Z" fill="#89898B"></path><path d="M392.878 297.363V306.11H391.823V298.474H391.768L389.639 299.89V298.817L391.823 297.363H392.878ZM395.192 304.315V303.444L399.043 297.363H399.672V298.705H399.246L396.34 303.333V303.407H401.514V304.333L395.192 304.315ZM399.311 306.11V297.363H400.32V306.11H399.311ZM406.022 306.23C405.655 306.22 405.293 306.152 404.948 306.027C404.572 305.886 404.236 305.658 403.967 305.36C403.639 304.996 403.395 304.563 403.254 304.092C403.055 303.439 402.965 302.757 402.986 302.075C402.974 301.384 403.045 300.694 403.199 300.02C403.319 299.48 403.535 298.966 403.837 298.502C404.228 297.936 404.811 297.53 405.478 297.36C406.145 297.19 406.851 297.267 407.466 297.576C407.838 297.761 408.157 298.038 408.391 298.381C408.636 298.742 408.797 299.154 408.863 299.585H407.817C407.733 299.208 407.536 298.866 407.253 298.604C406.947 298.334 406.549 298.195 406.142 298.215C405.817 298.215 405.498 298.301 405.217 298.463C404.936 298.626 404.703 298.859 404.541 299.14C404.111 299.894 403.908 300.755 403.958 301.621H404.022C404.179 301.385 404.373 301.175 404.596 301.001C404.815 300.827 405.063 300.693 405.327 300.603C405.692 300.475 406.08 300.429 406.464 300.469C406.848 300.509 407.219 300.634 407.549 300.834C407.966 301.086 408.313 301.44 408.558 301.862C408.812 302.32 408.94 302.837 408.928 303.361C408.934 303.88 408.81 304.393 408.567 304.851C408.33 305.291 407.978 305.659 407.549 305.916C407.079 306.162 406.55 306.271 406.022 306.23ZM406.022 305.305C406.349 305.304 406.67 305.211 406.947 305.036C407.234 304.862 407.467 304.612 407.623 304.315C407.784 304.008 407.869 303.666 407.869 303.319C407.869 302.973 407.784 302.631 407.623 302.324C407.472 302.029 407.241 301.782 406.956 301.612C406.679 301.437 406.359 301.344 406.031 301.343C405.769 301.342 405.51 301.399 405.272 301.51C405.041 301.612 404.833 301.76 404.661 301.945C404.487 302.129 404.346 302.342 404.244 302.574C404.149 302.813 404.099 303.067 404.096 303.324C404.101 303.649 404.187 303.967 404.346 304.25C404.502 304.549 404.736 304.802 405.022 304.981C405.316 305.182 405.665 305.289 406.022 305.286V305.305ZM410.974 306.23C410.872 306.232 410.772 306.214 410.678 306.175C410.584 306.137 410.499 306.08 410.427 306.008C410.354 305.938 410.296 305.854 410.256 305.761C410.217 305.668 410.196 305.568 410.196 305.467C410.196 305.366 410.217 305.266 410.256 305.173C410.296 305.079 410.354 304.995 410.427 304.925C410.497 304.852 410.581 304.794 410.675 304.754C410.768 304.715 410.868 304.694 410.969 304.694C411.07 304.694 411.17 304.715 411.263 304.754C411.356 304.794 411.44 304.852 411.51 304.925C411.583 304.995 411.641 305.078 411.681 305.17C411.72 305.263 411.741 305.362 411.742 305.462C411.742 305.6 411.704 305.734 411.631 305.851C411.564 305.966 411.468 306.062 411.353 306.129C411.238 306.195 411.107 306.23 410.974 306.23ZM416.083 306.286C415.489 306.303 414.908 306.117 414.435 305.758C413.948 305.357 413.588 304.824 413.399 304.222C413.14 303.437 413.018 302.614 413.038 301.788C413.018 300.968 413.14 300.15 413.399 299.372C413.59 298.769 413.95 298.232 414.435 297.826C414.909 297.47 415.49 297.284 416.083 297.299C416.67 297.284 417.245 297.47 417.712 297.826C418.203 298.229 418.566 298.766 418.758 299.372C419.016 300.15 419.138 300.968 419.119 301.788C419.139 302.614 419.017 303.437 418.758 304.222C418.572 304.825 418.211 305.36 417.721 305.758C417.244 306.096 416.666 306.262 416.083 306.23V306.286ZM416.083 305.36C416.392 305.362 416.695 305.275 416.957 305.111C417.219 304.948 417.429 304.713 417.564 304.435C417.959 303.614 418.141 302.707 418.091 301.797C418.108 301.144 418.027 300.492 417.851 299.862C417.734 299.403 417.494 298.983 417.156 298.65C417.015 298.511 416.847 298.402 416.663 298.329C416.478 298.256 416.281 298.22 416.083 298.224C415.773 298.223 415.469 298.31 415.205 298.474C414.942 298.637 414.729 298.871 414.593 299.15C414.2 299.971 414.018 300.878 414.065 301.788C414.048 302.441 414.129 303.093 414.306 303.722C414.423 304.18 414.66 304.598 414.991 304.935C415.298 305.184 415.688 305.31 416.083 305.286V305.36ZM423.599 306.286C423.005 306.303 422.424 306.117 421.951 305.758C421.464 305.357 421.104 304.824 420.914 304.222C420.656 303.437 420.533 302.614 420.553 301.788C420.534 300.968 420.656 300.15 420.914 299.372C421.11 298.768 421.472 298.232 421.96 297.826C422.436 297.479 423.01 297.291 423.599 297.291C424.188 297.291 424.761 297.479 425.237 297.826C425.725 298.232 426.088 298.768 426.283 299.372C426.541 300.15 426.663 300.968 426.644 301.788C426.664 302.614 426.542 303.437 426.283 304.222C426.093 304.824 425.733 305.357 425.246 305.758C424.766 306.097 424.185 306.264 423.599 306.23V306.286ZM423.599 305.36C423.909 305.362 424.213 305.276 424.477 305.112C424.741 304.949 424.953 304.714 425.089 304.435C425.484 303.614 425.666 302.707 425.616 301.797C425.628 301.144 425.547 300.493 425.376 299.862C425.251 299.406 425.012 298.988 424.682 298.65C424.539 298.51 424.369 298.4 424.183 298.327C423.997 298.254 423.798 298.219 423.599 298.224C423.29 298.224 422.987 298.311 422.725 298.475C422.464 298.638 422.253 298.872 422.118 299.15C421.716 299.969 421.532 300.877 421.581 301.788C421.568 302.441 421.649 303.092 421.821 303.722C421.939 304.18 422.175 304.598 422.506 304.935C422.814 305.183 423.204 305.308 423.599 305.286V305.36ZM431.124 306.286C430.53 306.303 429.949 306.117 429.476 305.758C428.989 305.357 428.629 304.824 428.439 304.222C428.181 303.437 428.059 302.614 428.078 301.788C428.059 300.968 428.181 300.15 428.439 299.372C428.623 298.752 428.983 298.199 429.476 297.78C429.95 297.424 430.531 297.238 431.124 297.252C431.711 297.238 432.285 297.424 432.753 297.78C433.244 298.183 433.607 298.72 433.799 299.326C434.057 300.104 434.179 300.921 434.16 301.741C434.179 302.567 434.057 303.391 433.799 304.176C433.613 304.779 433.252 305.314 432.762 305.712C432.291 306.066 431.713 306.249 431.124 306.23V306.286ZM431.124 305.36C431.433 305.362 431.736 305.275 431.998 305.111C432.26 304.948 432.47 304.713 432.605 304.435C433 303.614 433.181 302.707 433.132 301.797C433.149 301.144 433.067 300.492 432.891 299.862C432.775 299.403 432.535 298.983 432.197 298.65C432.056 298.511 431.888 298.402 431.703 298.329C431.519 298.256 431.322 298.22 431.124 298.224C430.813 298.223 430.509 298.31 430.246 298.474C429.983 298.637 429.77 298.871 429.633 299.15C429.24 299.971 429.059 300.878 429.106 301.788C429.089 302.441 429.17 303.093 429.346 303.722C429.464 304.18 429.7 304.598 430.031 304.935C430.339 305.184 430.728 305.31 431.124 305.286V305.36Z" fill="#89898B"></path><path d="M-1.42383 339.857V316.615" stroke="#439683" stroke-width="4.62795"></path><path d="M7.86914 334.044V310.812" stroke="#DF3434" stroke-width="0.92559"></path><path d="M7.86914 315.458V323.594" stroke="#DF3434" stroke-width="4.62795"></path><path d="M17.1602 344.504V302.676" stroke="#439683" stroke-width="0.92559"></path><path d="M17.1602 318.948V308.489" stroke="#439683" stroke-width="4.62795"></path><path d="M26.4551 314.293V242.245" stroke="#439683" stroke-width="0.92559"></path><path d="M26.4551 314.293V242.245" stroke="#439683" stroke-width="4.62795"></path><path d="M35.7461 259.692V220.188" stroke="#439683" stroke-width="0.92559"></path><path d="M35.7461 245.753V220.188" stroke="#439683" stroke-width="4.62795"></path><path d="M45.0488 275.954V222.511" stroke="#DF3434" stroke-width="0.92559"></path><path d="M45.0488 222.511V275.954" stroke="#DF3434" stroke-width="4.62795"></path><path d="M54.3438 278.278V214.412" stroke="#439683" stroke-width="0.92559"></path><path d="M54.3438 278.278V246.873" stroke="#439683" stroke-width="4.62795"></path><path d="M63.6348 255.046V194.632" stroke="#439683" stroke-width="0.92559"></path><path d="M63.6348 249.233V206.248" stroke="#439683" stroke-width="4.62795"></path><path d="M72.9277 212.061V113.301" stroke="#439683" stroke-width="0.92559"></path><path d="M72.9277 212.061V115.624" stroke="#439683" stroke-width="4.62795"></path><path d="M82.2207 142.346V117.947" stroke="#DF3434" stroke-width="0.92559"></path><path d="M82.2207 124.926V127.249" stroke="#DF3434" stroke-width="4.62795"></path><path d="M91.5234 152.805V110.977" stroke="#DF3434" stroke-width="0.92559"></path><path d="M91.5234 126.083V146.992" stroke="#DF3434" stroke-width="4.62795"></path><path d="M100.816 157.451V106.331" stroke="#439683" stroke-width="0.92559"></path><path d="M100.816 157.451V116.79" stroke="#439683" stroke-width="4.62795"></path><path d="M110.146 110.977V69.1592" stroke="#439683" stroke-width="0.92559"></path><path d="M110.146 110.977V71.4824" stroke="#439683" stroke-width="4.62795"></path><path d="M119.402 93.5484V57.5337" stroke="#439683" stroke-width="0.92559"></path><path d="M119.402 71.4824V67.9929" stroke="#439683" stroke-width="4.62795"></path><path d="M128.658 94.7147V61.0232" stroke="#439683" stroke-width="0.92559"></path><path d="M128.658 71.4823V61.0232" stroke="#439683" stroke-width="4.62795"></path><path d="M137.988 71.4823V19.1772" stroke="#439683" stroke-width="0.92559"></path><path d="M137.988 62.1802V55.2104" stroke="#439683" stroke-width="4.62795"></path><path d="M147.279 59.9035V20.3623" stroke="#439683" stroke-width="0.92559"></path><path d="M147.279 51.7301V37.7815" stroke="#439683" stroke-width="4.62795"></path><path d="M156.582 64.5311V38.9478" stroke="#DF3434" stroke-width="0.92559"></path><path d="M156.582 43.5942V47.0837" stroke="#DF3434" stroke-width="4.62795"></path><path d="M165.877 70.3161V14.5493" stroke="#DF3434" stroke-width="0.92559"></path><path d="M165.877 36.6245V61.0231" stroke="#DF3434" stroke-width="4.62795"></path><path d="M175.168 98.2042V69.1592" stroke="#DF3434" stroke-width="0.92559"></path><path d="M184.461 98.204V48.2222" stroke="#DF3434" stroke-width="0.92559"></path><path d="M184.461 64.5312V83.1263" stroke="#DF3434" stroke-width="4.62795"></path><path d="M193.754 104.008V59.9033" stroke="#DF3434" stroke-width="0.92559"></path><path d="M193.754 73.7871V98.1857" stroke="#DF3434" stroke-width="4.62795"></path><path d="M203.059 149.315V101.684" stroke="#DF3434" stroke-width="0.92559"></path><path d="M203.059 101.684V110.94" stroke="#DF3434" stroke-width="4.62795"></path><path d="M212.35 140.022V92.3914" stroke="#DF3434" stroke-width="0.92559"></path><path d="M212.35 106.331V137.699" stroke="#DF3434" stroke-width="4.62795"></path><path d="M221.645 141.189V108.654" stroke="#439683" stroke-width="0.92559"></path><path d="M221.645 130.73V121.474" stroke="#439683" stroke-width="4.62795"></path><path d="M230.936 153.971V101.684" stroke="#439683" stroke-width="0.92559"></path><path d="M230.936 117.947V112.144" stroke="#439683" stroke-width="4.62795"></path><path d="M240.229 131.896V91.2251" stroke="#DF3434" stroke-width="0.92559"></path><path d="M240.229 110.977V124.926" stroke="#DF3434" stroke-width="4.62795"></path><path d="M249.521 157.451V124.926" stroke="#DF3434" stroke-width="0.92559"></path><path d="M249.521 124.926V151.648" stroke="#DF3434" stroke-width="4.62795"></path><path d="M258.814 201.602V144.669" stroke="#DF3434" stroke-width="0.92559"></path><path d="M258.814 149.315V201.602" stroke="#DF3434" stroke-width="4.62795"></path><path d="M268.117 227.157V156.294" stroke="#439683" stroke-width="0.92559"></path><path d="M268.117 209.738V178.379" stroke="#439683" stroke-width="4.62795"></path><path d="M277.41 226V163.264" stroke="#DF3434" stroke-width="0.92559"></path><path d="M277.41 184.173V221.354" stroke="#DF3434" stroke-width="4.62795"></path><path d="M286.703 264.338V223.677" stroke="#DF3434" stroke-width="0.92559"></path><path d="M286.703 231.804V249.233" stroke="#DF3434" stroke-width="4.62795"></path><path d="M295.994 279.444V221.354" stroke="#DF3434" stroke-width="0.92559"></path><path d="M295.994 243.429V267.828" stroke="#DF3434" stroke-width="4.62795"></path><path d="M305.289 311.969V265.504" stroke="#DF3434" stroke-width="0.92559"></path><path d="M305.289 271.308V309.646" stroke="#DF3434" stroke-width="4.62795"></path><path d="M314.592 320.105V277.121" stroke="#439683" stroke-width="0.92559"></path><path d="M314.592 318.948V277.121" stroke="#439683" stroke-width="4.62795"></path><path d="M323.883 277.121V229.48" stroke="#439683" stroke-width="0.92559"></path><path d="M323.883 274.798V229.444" stroke="#439683" stroke-width="4.62795"></path><path d="M333.213 237.617V213.218" stroke="#439683" stroke-width="0.92559"></path><path d="M333.213 237.617V235.293" stroke="#439683" stroke-width="4.62795"></path><path d="M342.469 241.106V163.264" stroke="#439683" stroke-width="0.92559"></path><path d="M342.469 236.46V165.587" stroke="#439683" stroke-width="4.62795"></path><path d="M-873.756 165.883H382.269" stroke="#359A73" stroke-width="0.92559" stroke-dasharray="1.85 1.85"></path><mask id="mask0_2025_29506" style="mask-type:luminance" maskUnits="userSpaceOnUse" x="382" y="156" width="60" height="21"><path d="M382.268 156.165H437.803C438.785 156.165 439.727 156.555 440.421 157.249C441.115 157.944 441.505 158.885 441.505 159.867V172.825C441.505 173.807 441.115 174.749 440.421 175.443C439.727 176.138 438.785 176.528 437.803 176.528H382.268V156.165Z" fill="white"></path></mask><g mask="url(#mask0_2025_29506)"><path d="M441.505 156.165H382.268V176.528H441.505V156.165Z" fill="#359A73"></path><path d="M392.855 164.551V163.801C393.363 163.782 393.863 163.666 394.327 163.459C394.679 163.177 394.905 162.768 394.957 162.32H395.725V170.049H394.679V164.551H392.855ZM401.649 167.328V163.81L399.159 167.328H401.649ZM401.649 170.104V168.198H398.242V167.272L401.806 162.339H402.63V167.272H403.777V168.198H402.63V170.049L401.649 170.104ZM407.202 165.597C407.386 165.608 407.57 165.582 407.744 165.52C407.917 165.458 408.076 165.361 408.211 165.236C408.33 165.126 408.424 164.993 408.488 164.845C408.552 164.697 408.584 164.536 408.581 164.375C408.574 164.221 408.535 164.069 408.466 163.931C408.398 163.792 408.302 163.669 408.183 163.57C408.043 163.437 407.877 163.336 407.695 163.272C407.513 163.208 407.32 163.183 407.128 163.199C406.941 163.18 406.753 163.203 406.576 163.268C406.4 163.332 406.241 163.435 406.11 163.57C405.9 163.803 405.788 164.108 405.795 164.421C405.787 164.586 405.82 164.75 405.891 164.899C405.962 165.047 406.069 165.176 406.202 165.273C406.488 165.468 406.83 165.562 407.174 165.541L407.202 165.597ZM407.267 169.438C407.671 169.454 408.068 169.326 408.387 169.077C408.543 168.941 408.665 168.771 408.744 168.58C408.822 168.389 408.855 168.182 408.84 167.975C408.854 167.763 408.819 167.551 408.739 167.353C408.659 167.156 408.535 166.98 408.378 166.837C408.043 166.569 407.622 166.43 407.193 166.448C406.776 166.43 406.369 166.573 406.054 166.846C405.903 166.986 405.785 167.157 405.709 167.347C405.632 167.538 405.598 167.743 405.61 167.948C405.608 168.337 405.75 168.712 406.008 169.003C406.18 169.147 406.38 169.254 406.594 169.319C406.809 169.385 407.035 169.406 407.258 169.382L407.267 169.438ZM405.879 165.967C405.643 165.871 405.426 165.733 405.24 165.56C405.096 165.41 404.984 165.233 404.911 165.039C404.838 164.845 404.805 164.638 404.814 164.43C404.812 164.152 404.867 163.877 404.975 163.621C405.083 163.364 405.243 163.133 405.443 162.94C405.685 162.723 405.967 162.555 406.274 162.449C406.581 162.342 406.906 162.299 407.23 162.32C407.868 162.283 408.495 162.496 408.979 162.913C409.179 163.081 409.339 163.29 409.45 163.527C409.56 163.764 409.617 164.021 409.618 164.282C409.632 164.705 409.502 165.12 409.248 165.458C409.065 165.66 408.849 165.829 408.609 165.958C408.891 166.08 409.148 166.252 409.368 166.467C409.717 166.85 409.9 167.356 409.877 167.874C409.884 168.195 409.827 168.514 409.709 168.812C409.591 169.111 409.416 169.384 409.192 169.614C408.933 169.86 408.626 170.05 408.29 170.173C407.954 170.296 407.596 170.348 407.239 170.326C406.55 170.346 405.874 170.13 405.323 169.716C405.062 169.5 404.856 169.226 404.721 168.915C404.586 168.605 404.526 168.267 404.546 167.929C404.534 167.507 404.65 167.091 404.879 166.735C405.109 166.366 405.449 166.078 405.851 165.911L405.879 165.967ZM411.321 168.92H412.45V170.049H411.321V168.92ZM416.708 162.302C417.049 162.259 417.395 162.298 417.717 162.418C418.04 162.537 418.328 162.732 418.559 162.987C418.881 163.378 419.061 163.868 419.068 164.375H418.143C418.106 164.116 418.011 163.87 417.865 163.653C417.742 163.489 417.581 163.359 417.395 163.273C417.209 163.187 417.005 163.149 416.8 163.162C416.535 163.16 416.274 163.23 416.044 163.363C415.814 163.497 415.625 163.689 415.495 163.921C415.13 164.584 414.944 165.331 414.959 166.087C415.169 165.77 415.459 165.515 415.801 165.347C416.131 165.204 416.487 165.131 416.847 165.134C417.472 165.123 418.078 165.344 418.55 165.754C418.801 165.99 418.996 166.278 419.123 166.598C419.249 166.918 419.303 167.262 419.281 167.605C419.28 168.286 419.033 168.943 418.587 169.456C418.343 169.732 418.039 169.948 417.699 170.089C417.359 170.23 416.992 170.292 416.625 170.271C416.276 170.268 415.932 170.194 415.613 170.052C415.295 169.91 415.009 169.704 414.773 169.447C414.171 168.654 413.887 167.663 413.977 166.67C413.96 165.839 414.078 165.01 414.329 164.218C414.448 163.675 414.743 163.187 415.168 162.83C415.594 162.474 416.125 162.268 416.68 162.246L416.708 162.302ZM416.634 169.438C416.854 169.453 417.075 169.413 417.277 169.323C417.479 169.232 417.655 169.094 417.791 168.92C418.047 168.564 418.18 168.135 418.17 167.698C418.17 167.293 418.051 166.897 417.828 166.559C417.687 166.368 417.498 166.218 417.28 166.123C417.062 166.029 416.823 165.994 416.588 166.022C416.181 166.018 415.788 166.167 415.486 166.439C415.32 166.601 415.191 166.798 415.11 167.016C415.028 167.233 414.996 167.466 415.014 167.698C415 168.149 415.151 168.59 415.44 168.938C415.591 169.092 415.773 169.212 415.974 169.288C416.176 169.365 416.391 169.397 416.606 169.382L416.634 169.438ZM425.445 162.468V163.32C425.082 163.715 424.751 164.139 424.455 164.588C424.032 165.199 423.663 165.846 423.354 166.522C423.072 167.121 422.834 167.74 422.641 168.373C422.539 168.734 422.4 169.299 422.234 170.104H421.141C421.422 168.546 421.973 167.048 422.771 165.68C423.221 164.889 423.744 164.142 424.335 163.449H420.04V162.468H425.445ZM429.074 162.302C429.415 162.259 429.761 162.298 430.083 162.418C430.405 162.537 430.694 162.732 430.925 162.987C431.247 163.378 431.426 163.868 431.434 164.375H430.508C430.472 164.116 430.377 163.87 430.231 163.653C430.108 163.489 429.947 163.359 429.761 163.273C429.575 163.187 429.371 163.149 429.166 163.162C428.901 163.16 428.639 163.23 428.41 163.363C428.18 163.497 427.991 163.689 427.861 163.921C427.495 164.584 427.31 165.331 427.324 166.087C427.535 165.77 427.825 165.515 428.167 165.347C428.497 165.204 428.853 165.131 429.213 165.134C429.837 165.123 430.444 165.344 430.916 165.754C431.165 165.99 431.36 166.278 431.485 166.599C431.609 166.919 431.662 167.262 431.638 167.605C431.644 168.285 431.4 168.944 430.953 169.456C430.708 169.731 430.405 169.947 430.065 170.088C429.725 170.229 429.358 170.292 428.991 170.271C428.642 170.269 428.297 170.195 427.978 170.054C427.66 169.912 427.374 169.705 427.139 169.447C426.536 168.654 426.252 167.663 426.343 166.67C426.325 165.839 426.444 165.01 426.695 164.218C426.813 163.675 427.108 163.187 427.534 162.83C427.959 162.474 428.491 162.268 429.046 162.246L429.074 162.302ZM429 169.438C429.219 169.454 429.439 169.414 429.639 169.324C429.84 169.234 430.014 169.095 430.147 168.92C430.41 168.567 430.547 168.137 430.536 167.698C430.536 167.293 430.417 166.897 430.194 166.559C430.053 166.368 429.864 166.218 429.646 166.123C429.428 166.029 429.189 165.994 428.953 166.022C428.545 166.019 428.149 166.168 427.843 166.439C427.679 166.603 427.551 166.8 427.47 167.017C427.389 167.234 427.355 167.466 427.371 167.698C427.359 168.151 427.514 168.592 427.806 168.938C427.956 169.092 428.139 169.212 428.34 169.288C428.541 169.365 428.757 169.397 428.972 169.382L429 169.438Z" fill="white"></path></g><path d="M382.27 130.248H-258.238" stroke="#4C4E56" stroke-width="0.92559"></path><rect x="64.5" y="111.5" width="280.025" height="37.2142" rx="7.5" fill="#111111"></rect><rect x="64.5" y="111.5" width="280.025" height="37.2142" rx="7.5" stroke="#4C4E56"></rect><path d="M78.4347 133.757H77L79.6102 126.352H81.267L83.8771 133.757H82.4425L80.4617 127.87H80.4062L78.4347 133.757ZM78.4809 130.85H82.3869V131.905H78.4809V130.85ZM86.6817 133.858C86.2677 133.862 85.8619 133.742 85.5154 133.516C85.1533 133.278 84.8673 132.94 84.6916 132.544C84.482 132.053 84.3809 131.523 84.3955 130.989C84.3792 130.451 84.4835 129.917 84.7009 129.425C84.883 129.045 85.1685 128.724 85.5247 128.499C85.8731 128.278 86.2782 128.162 86.6909 128.166C86.966 128.155 87.2394 128.212 87.4869 128.333C87.6808 128.427 87.8515 128.563 87.9868 128.731C88.1001 128.86 88.1966 129.003 88.2737 129.156H88.3292V126.38H89.6436V133.784H88.357V132.914H88.2737C88.1932 133.066 88.097 133.209 87.9868 133.34C87.843 133.498 87.6701 133.627 87.4777 133.719C87.2274 133.829 86.9543 133.877 86.6817 133.858ZM87.0519 132.785C87.3064 132.793 87.5557 132.711 87.7554 132.553C87.9599 132.39 88.1139 132.171 88.1996 131.924C88.3066 131.627 88.3599 131.314 88.357 130.998C88.3611 130.683 88.3078 130.369 88.1996 130.073C88.1207 129.827 87.969 129.611 87.7646 129.453C87.5584 129.301 87.3076 129.223 87.0519 129.23C86.7885 129.219 86.5296 129.301 86.3207 129.462C86.1162 129.625 85.9622 129.844 85.8764 130.091C85.6766 130.692 85.6766 131.341 85.8764 131.942C85.9622 132.195 86.1159 132.419 86.3207 132.59C86.5318 132.748 86.7885 132.832 87.0519 132.831V132.785ZM93.096 133.858C92.682 133.862 92.2763 133.742 91.9298 133.516C91.5676 133.278 91.2816 132.94 91.106 132.544C90.8963 132.053 90.7953 131.523 90.8098 130.989C90.7935 130.451 90.8979 129.917 91.1152 129.425C91.2973 129.045 91.5829 128.724 91.939 128.499C92.287 128.277 92.6924 128.161 93.1053 128.166C93.3803 128.155 93.6538 128.212 93.9013 128.333C94.0952 128.427 94.2659 128.563 94.4011 128.731C94.5114 128.862 94.6075 129.005 94.688 129.156H94.7436V126.38H96.0209V133.784H94.7343V132.914H94.651C94.5702 133.068 94.4707 133.211 94.3548 133.34C94.2165 133.5 94.0462 133.629 93.855 133.719C93.6161 133.824 93.3563 133.871 93.096 133.858ZM93.4663 132.785C93.7208 132.793 93.9701 132.711 94.1697 132.553C94.3742 132.39 94.5282 132.171 94.614 131.924C94.721 131.627 94.7742 131.314 94.7713 130.998C94.7755 130.683 94.7221 130.369 94.614 130.073C94.535 129.827 94.3833 129.611 94.1789 129.453C93.9728 129.301 93.7219 129.223 93.4663 129.23C93.2029 129.219 92.9439 129.301 92.735 129.462C92.5305 129.625 92.3765 129.844 92.2907 130.091C92.091 130.692 92.091 131.341 92.2907 131.942C92.3765 132.195 92.5303 132.419 92.735 132.59C92.9452 132.75 93.2025 132.834 93.4663 132.831V132.785Z" fill="#89898B"></path><path d="M141.86 119.107H107.183C104.885 119.107 103.021 121.57 103.021 124.607V135.607C103.021 138.645 104.885 141.107 107.183 141.107H141.86C144.158 141.107 146.021 138.645 146.021 135.607V124.607C146.021 121.57 144.158 119.107 141.86 119.107Z" fill="#1B1B1F"></path><path d="M130.383 127.887V127H134.564V127.887H133.005V132.091H131.941V127.887H130.383Z" fill="white"></path><path d="M126.227 132.091V127H128.235C128.62 127 128.948 127.069 129.219 127.206C129.493 127.342 129.701 127.535 129.843 127.786C129.988 128.034 130.06 128.327 130.06 128.663C130.06 129.001 129.987 129.292 129.841 129.536C129.695 129.777 129.484 129.963 129.207 130.092C128.932 130.222 128.599 130.286 128.208 130.286H126.863V129.421H128.034C128.239 129.421 128.41 129.393 128.546 129.337C128.682 129.28 128.783 129.196 128.849 129.083C128.917 128.97 128.951 128.83 128.951 128.663C128.951 128.494 128.917 128.351 128.849 128.235C128.783 128.119 128.681 128.032 128.543 127.972C128.407 127.911 128.236 127.88 128.029 127.88H127.303V132.091H126.227ZM128.976 129.774L130.241 132.091H129.053L127.815 129.774H128.976Z" fill="white"></path><path d="M122.184 132.091V127H125.614V127.887H123.26V129.1H125.438V129.988H123.26V131.203H125.624V132.091H122.184Z" fill="white"></path><path d="M118.457 132.091V127H119.533V131.203H121.716V132.091H118.457Z" fill="white"></path><path d="M114.341 132.091H113.188L114.945 127H116.332L118.087 132.091H116.934L115.658 128.163H115.619L114.341 132.091ZM114.269 130.09H116.993V130.93H114.269V130.09Z" fill="white"></path><path d="M204.855 119H158.575C155.508 119 153.021 121.486 153.021 124.554V135.661C153.021 138.728 155.508 141.214 158.575 141.214H204.855C207.922 141.214 210.408 138.728 210.408 135.661V124.554C210.408 121.486 207.922 119 204.855 119Z" fill="#1B1B1F"></path><path d="M165.525 132.517V127.13H167.645C168.008 127.119 168.369 127.202 168.691 127.37C168.971 127.51 169.201 127.733 169.348 128.009C169.5 128.302 169.579 128.628 169.579 128.958C169.579 129.288 169.5 129.613 169.348 129.906C169.189 130.177 168.958 130.398 168.682 130.545C168.349 130.701 167.985 130.777 167.617 130.767H166.266V129.842H167.432C167.62 129.849 167.808 129.811 167.978 129.731C168.116 129.658 168.229 129.545 168.302 129.407C168.372 129.259 168.406 129.098 168.404 128.935C168.406 128.775 168.371 128.616 168.302 128.472C168.231 128.335 168.117 128.224 167.978 128.157C167.808 128.076 167.62 128.038 167.432 128.046H166.664V132.517H165.525ZM170.32 132.517V127.13H173.948V128.055H171.458V129.333H173.763V130.258H171.458V131.591H173.958V132.517H170.32ZM179.354 127.13V132.517H178.373L176.031 129.129V132.517H174.892V127.13H175.892L178.215 130.517V127.13H179.354ZM182.205 132.517H180.298V127.13H182.223C182.709 127.118 183.189 127.23 183.621 127.454C184.014 127.663 184.337 127.985 184.546 128.379C184.765 128.829 184.873 129.324 184.861 129.823C184.87 130.322 184.763 130.817 184.546 131.267C184.337 131.661 184.014 131.983 183.621 132.193C183.183 132.417 182.696 132.528 182.205 132.517ZM181.436 131.591H182.158C182.453 131.598 182.745 131.534 183.01 131.406C183.242 131.287 183.425 131.09 183.528 130.851C183.657 130.54 183.717 130.205 183.704 129.869C183.741 129.512 183.693 129.15 183.565 128.814C183.462 128.574 183.279 128.378 183.047 128.259C182.784 128.133 182.495 128.073 182.205 128.083H181.473L181.436 131.591ZM186.823 127.176V132.517H185.685V127.13L186.823 127.176ZM192.266 127.176V132.517H191.285L188.943 129.129H188.897V132.517H187.758V127.13H188.758L191.081 130.517H191.136V127.13L192.266 127.176ZM196.773 128.916C196.714 128.678 196.573 128.468 196.375 128.324C196.276 128.255 196.167 128.202 196.051 128.166C195.919 128.128 195.782 128.109 195.644 128.111C195.389 128.105 195.137 128.176 194.922 128.314C194.707 128.465 194.54 128.674 194.441 128.916C194.318 129.209 194.258 129.524 194.265 129.842C194.26 130.158 194.317 130.472 194.432 130.767C194.535 131.01 194.705 131.219 194.922 131.369C195.142 131.511 195.401 131.582 195.663 131.573C195.89 131.579 196.115 131.531 196.32 131.434C196.496 131.351 196.642 131.215 196.736 131.045C196.839 130.865 196.89 130.66 196.884 130.453H197.116H195.727V129.601H197.986V130.277C197.997 130.704 197.891 131.127 197.68 131.498C197.488 131.833 197.202 132.103 196.857 132.276C196.485 132.466 196.071 132.562 195.653 132.554C195.187 132.564 194.727 132.448 194.32 132.22C193.93 132.007 193.609 131.685 193.395 131.295C193.171 130.837 193.06 130.333 193.071 129.823C193.064 129.426 193.13 129.031 193.265 128.657C193.375 128.313 193.558 127.997 193.802 127.731C194.027 127.496 194.298 127.31 194.598 127.185C194.917 127.061 195.256 126.998 195.598 127C195.887 126.998 196.175 127.045 196.449 127.139C196.7 127.221 196.935 127.346 197.144 127.509C197.344 127.669 197.513 127.863 197.643 128.083C197.773 128.308 197.858 128.557 197.893 128.814L196.773 128.916Z" fill="white"></path><path d="M256.283 119H222.962C219.895 119 217.408 121.486 217.408 124.554V135.661C217.408 138.728 219.895 141.214 222.962 141.214H256.283C259.35 141.214 261.837 138.728 261.837 135.661V124.554C261.837 121.486 259.35 119 256.283 119Z" fill="#1B1B1F"></path><path d="M238.484 129.052C238.478 128.954 238.451 128.859 238.405 128.772C238.359 128.686 238.294 128.611 238.216 128.552C238.025 128.424 237.797 128.363 237.568 128.376C237.406 128.372 237.246 128.4 237.096 128.459C236.977 128.498 236.874 128.572 236.8 128.672C236.735 128.761 236.699 128.868 236.698 128.978C236.692 129.066 236.715 129.153 236.762 129.228C236.809 129.305 236.872 129.372 236.948 129.422C237.033 129.472 237.123 129.516 237.216 129.552L237.549 129.644L238.04 129.765C238.26 129.813 238.474 129.884 238.678 129.977C238.868 130.056 239.043 130.165 239.197 130.301C239.336 130.426 239.449 130.577 239.53 130.746C239.61 130.936 239.651 131.141 239.65 131.347C239.657 131.65 239.57 131.948 239.4 132.199C239.22 132.453 238.969 132.65 238.678 132.763C238.322 132.902 237.941 132.968 237.558 132.958C237.17 132.966 236.784 132.9 236.42 132.763C236.121 132.638 235.861 132.433 235.67 132.171C235.488 131.877 235.391 131.537 235.393 131.19H236.494C236.498 131.354 236.553 131.512 236.651 131.644C236.747 131.768 236.875 131.864 237.022 131.921C237.191 131.979 237.37 132.007 237.549 132.004C237.72 132.008 237.889 131.98 238.049 131.921C238.179 131.877 238.295 131.796 238.382 131.69C238.462 131.594 238.505 131.472 238.503 131.347C238.505 131.235 238.466 131.126 238.392 131.042C238.308 130.947 238.204 130.874 238.086 130.829C237.924 130.764 237.756 130.712 237.586 130.672L237.003 130.524C236.606 130.439 236.235 130.261 235.92 130.005C235.794 129.887 235.693 129.744 235.626 129.584C235.559 129.425 235.527 129.253 235.531 129.08C235.523 128.775 235.614 128.476 235.791 128.228C235.982 127.978 236.233 127.78 236.522 127.654C236.856 127.516 237.215 127.447 237.577 127.451C237.936 127.447 238.292 127.516 238.623 127.654C238.901 127.78 239.141 127.978 239.317 128.228C239.489 128.478 239.58 128.776 239.576 129.08L238.484 129.052ZM240.419 132.884V127.497H241.557V131.958H243.862V132.884H240.419Z" fill="white"></path><path d="M307.711 119H274.389C271.322 119 268.836 121.486 268.836 124.554V135.661C268.836 138.728 271.322 141.214 274.389 141.214H307.711C310.778 141.214 313.264 138.728 313.264 135.661V124.554C313.264 121.486 310.778 119 307.711 119Z" fill="#1B1B1F"></path><path d="M286.441 128.441V127.515H290.866V128.441H289.218V132.884H288.089V128.441H286.441ZM291.597 132.884V127.497H293.717C294.08 127.488 294.44 127.57 294.762 127.737C295.042 127.877 295.272 128.1 295.42 128.376C295.571 128.669 295.651 128.995 295.651 129.325C295.651 129.655 295.571 129.98 295.42 130.274C295.26 130.546 295.025 130.768 294.744 130.912C294.415 131.07 294.053 131.146 293.689 131.134H292.337V130.209H293.504C293.692 130.215 293.879 130.177 294.05 130.098C294.185 130.024 294.295 129.911 294.364 129.774C294.443 129.629 294.481 129.466 294.476 129.302C294.479 129.14 294.441 128.981 294.364 128.839C294.297 128.702 294.186 128.592 294.05 128.524C293.879 128.445 293.692 128.407 293.504 128.413H292.735V132.884H291.597Z" fill="white"></path><path fill-rule="evenodd" clip-rule="evenodd" d="M331.919 127.345C331.887 127.312 331.849 127.286 331.807 127.269C331.765 127.251 331.719 127.242 331.674 127.242C331.628 127.242 331.583 127.251 331.54 127.269C331.498 127.286 331.46 127.312 331.428 127.345L329.142 129.631L326.884 127.345C326.851 127.313 326.813 127.287 326.771 127.27C326.729 127.253 326.684 127.244 326.638 127.244C326.593 127.244 326.548 127.253 326.506 127.27C326.463 127.287 326.425 127.313 326.393 127.345C326.361 127.377 326.335 127.416 326.318 127.458C326.3 127.5 326.291 127.545 326.291 127.59C326.291 127.636 326.3 127.681 326.318 127.723C326.335 127.765 326.361 127.804 326.393 127.836L328.651 130.094L326.365 132.38C326.3 132.445 326.264 132.534 326.264 132.626C326.264 132.718 326.3 132.806 326.365 132.871C326.43 132.936 326.519 132.973 326.611 132.973C326.703 132.973 326.791 132.936 326.856 132.871L329.114 130.612L331.373 132.871C331.438 132.936 331.526 132.973 331.618 132.973C331.71 132.973 331.798 132.936 331.863 132.871C331.928 132.806 331.965 132.718 331.965 132.626C331.965 132.534 331.928 132.445 331.863 132.38L329.633 130.122L331.891 127.863C331.93 127.833 331.962 127.795 331.985 127.752C332.008 127.708 332.021 127.66 332.024 127.611C332.026 127.561 332.018 127.512 332 127.466C331.982 127.421 331.954 127.379 331.919 127.345Z" fill="#89898B"></path></g><defs><clipPath id="clip0_2025_29506"><rect width="454" height="334" fill="white"></rect></clipPath></defs></svg>