<svg xmlns="http://www.w3.org/2000/svg" xmlns:xlink="http://www.w3.org/1999/xlink" id="Layer_1" x="0px" y="0px" viewBox="0 0 488 364" style="enable-background:new 0 0 488 364;" xml:space="preserve">  <style type="text/css">	.st0{fill:none;}	.st1{clip-path:url(#SVGID_00000101079300888833409220000000755584301289827260_);}	.st2{fill:#181A21;}	.st3{fill:none;stroke:#323335;}	.st4{fill:url(#pattern0_4240_6991);}	.st5{fill:#4AD9A6;}	.st6{fill:none;stroke:#F03F50;}	.st7{fill:#459782;}	.st8{fill:#DF484C;}	.st9{fill:none;stroke:#DF484C;stroke-miterlimit:10;}	.st10{fill:none;stroke:#459782;stroke-miterlimit:10;}	.st11{fill:#DF484C;stroke:#DF484C;}</style>  <pattern y="364" width="2" height="2" patternUnits="userSpaceOnUse" id="pattern0_4240_6991" viewBox="0 -2 2 2" style="overflow:visible;">	<g>		<rect y="-2" class="st0" width="2" height="2"></rect>					<image style="overflow:visible;enable-background:new    ;" width="595" height="369" id="image0_4240_6991_00000056415343898488101600000000321922053685610672_" transform="matrix(3.042310e-05 0 0 -4.213060e-05 0.9909 -0.9922)">		</image>	</g></pattern>  <g>	<defs>		<rect id="SVGID_1_" y="0" width="488" height="364"></rect>	</defs>	<clipPath id="SVGID_00000089547293527322708170000011759154264577176221_">		<use xlink:href="#SVGID_1_" style="overflow:visible;"></use>	</clipPath>	<g style="clip-path:url(#SVGID_00000089547293527322708170000011759154264577176221_);">		<g>			<path class="st2" d="M18,0h452c9.9,0,18,8.1,18,18v328c0,9.9-8.1,18-18,18H18c-9.9,0-18-8.1-18-18V18C0,8.1,8.1,0,18,0z"></path>			<path class="st3" d="M18,0.5h452c9.7,0,17.5,7.8,17.5,17.5v328c0,9.7-7.8,17.5-17.5,17.5H18c-9.7,0-17.5-7.8-17.5-17.5V18    C0.5,8.3,8.3,0.5,18,0.5z"></path>		</g>		<path class="st4" d="M25,17h441c4.4,0,8,3.6,8,8v314c0,4.4-3.6,8-8,8H25c-4.4,0-8-3.6-8-8V25C17,20.6,20.6,17,25,17z"></path>		<path class="st5" d="M387.2,223.1c0.4,0.7-0.1,1.5-0.9,1.5h-6.8c-0.8,0-1.3-0.8-0.9-1.5l3.3-5.7c0.4-0.7,1.3-0.7,1.7,0   L387.2,223.1z"></path>		<path class="st6" d="M323.7,33.4l-3.3,5.7c-0.2,0.3-0.7,0.3-0.9,0l-3.5-5.7c-0.2-0.3,0-0.8,0.4-0.8h6.8   C323.7,32.7,323.9,33.1,323.7,33.4z"></path>		<path class="st7" d="M154.7,262.7h-5.4v30.9h5.4V262.7z"></path>		<path class="st7" d="M175.6,206.4h-5.4v29.1h5.4V206.4z"></path>		<path class="st7" d="M302.4,169.2H297v15.9h5.4V169.2z"></path>		<path class="st7" d="M344.2,100.9h-5.4v32.6h5.4V100.9z"></path>		<path class="st8" d="M29.4,228.7H24v49.3h5.4V228.7z"></path>		<path class="st9" d="M26.7,281v-8"></path>		<path class="st8" d="M36.3,274.7h-5.4v7h5.4V274.7z"></path>		<path class="st9" d="M33.6,265.6v20.5"></path>		<path class="st8" d="M50.3,252.6h-5.4v11.7h5.4V252.6z"></path>		<path class="st9" d="M47.6,243.6v33.9"></path>		<path class="st8" d="M71.2,233.7h-5.4V251h5.4V233.7z"></path>		<path class="st9" d="M68.5,229.9v27.4"></path>		<path class="st8" d="M92,228.7h-5.4v2H92V228.7z"></path>		<path class="st9" d="M89.3,238.2v-9.3"></path>		<path class="st8" d="M99,228.7h-5.4v2H99V228.7z"></path>		<path class="st9" d="M96.3,221.3v15.4"></path>		<path class="st8" d="M106,226.9h-5.4v19h5.4V226.9z"></path>		<path class="st9" d="M103.3,219.6v25"></path>		<path class="st8" d="M119.9,247.3h-5.4v15.4h5.4V247.3z"></path>		<path class="st9" d="M117.1,267.4v-10.5"></path>		<path class="st8" d="M126.9,262.7h-5.4v1.7h5.4V262.7z"></path>		<path class="st9" d="M124.2,253.7v20.5"></path>		<path class="st8" d="M133.8,266.2h-5.4v7h5.4V266.2z"></path>		<path class="st9" d="M131.1,258.8v15.5"></path>		<path class="st8" d="M140.8,273.1h-5.4v13.6h5.4V273.1z"></path>		<path class="st9" d="M138.1,264v30.5"></path>		<path class="st8" d="M184.1,213.2h-5.4v3.7h5.4V213.2z"></path>		<path class="st9" d="M181.4,202.6v13"></path>		<path class="st8" d="M198,197.9h-5.4v5.4h5.4V197.9z"></path>		<path class="st9" d="M195.3,218v-15.6"></path>		<path class="st8" d="M204.9,199.6h-5.4v3.7h5.4V199.6z"></path>		<path class="st9" d="M202.2,187.2v17"></path>		<path class="st8" d="M211.9,203.3h-5.4v28.9h5.4V203.3z"></path>		<path class="st9" d="M209.2,197.6v37.3"></path>		<path class="st8" d="M218.9,232.2h-5.4v13.4h5.4V232.2z"></path>		<path class="st9" d="M216.2,244.1V269"></path>		<path class="st8" d="M274.6,184.2h-5.4v1.7h5.4V184.2z"></path>		<path class="st9" d="M271.9,180.4V194"></path>		<path class="st8" d="M385.9,202.7h-5.4v2.2h5.4V202.7z"></path>		<path class="st9" d="M383.2,202.6v8.5"></path>		<path class="st8" d="M281.5,187.5h-5.4v2.3h5.4V187.5z"></path>		<path class="st9" d="M278.8,185.6v20.2"></path>		<path class="st8" d="M330.2,51.6h-5.4v29.1h5.4V51.6z"></path>		<path class="st9" d="M327.5,47v49.9"></path>		<path class="st8" d="M337.2,78.9h-5.4v54.6h5.4V78.9z"></path>		<path class="st9" d="M334.5,71.3v66.5"></path>		<path class="st8" d="M358.1,152h-5.4v8.9h5.4V152z"></path>		<path class="st9" d="M355.4,112.4v40.2"></path>		<path class="st8" d="M372,144.9h-5.4v30.9h5.4V144.9z"></path>		<path class="st9" d="M369.3,131.5V177"></path>		<path class="st8" d="M379,144.9h-5.4v61.3h5.4V144.9z"></path>		<path class="st9" d="M376.3,142.9v45.5"></path>		<path class="st8" d="M351.1,102.6h-5.4V152h5.4V102.6z"></path>		<path class="st9" d="M348.4,154.7v-6.3"></path>		<path class="st7" d="M22.4,230.5H17v23.7h5.4V230.5z"></path>		<path class="st10" d="M19.7,224.1v15.3"></path>		<path class="st7" d="M64.2,237.3h-5.4V251h5.4V237.3z"></path>		<path class="st10" d="M61.5,232.3v24.5"></path>		<path class="st7" d="M78.1,231.8h-5.4V251h5.4V231.8z"></path>		<path class="st10" d="M75.4,233.1v19.7"></path>		<path class="st7" d="M85.1,226.9h-5.4v7h5.4V226.9z"></path>		<path class="st10" d="M82.4,224.1v18.2"></path>		<path class="st7" d="M112.9,245.8h-5.4v1.5h5.4V245.8z"></path>		<path class="st10" d="M110.2,236.7v18.2"></path>		<path class="st7" d="M147.7,291.5h-5.4v5.4h5.4V291.5z"></path>		<path class="st10" d="M145,280.3v16.3"></path>		<path class="st7" d="M161.7,242.2h-5.4v17.3h5.4V242.2z"></path>		<path class="st10" d="M158.6,239v24.2"></path>		<path class="st7" d="M168.6,235.5h-5.4v5.4h5.4V235.5z"></path>		<path class="st10" d="M165.9,221.9v24.2"></path>		<path class="st10" d="M177.1,198.5v24.2"></path>		<path class="st7" d="M191,195.9h-5.4v22.8h5.4V195.9z"></path>		<path class="st10" d="M188.3,211.9v24.2"></path>		<path class="st7" d="M225.8,228.6h-5.4v13.5h5.4V228.6z"></path>		<path class="st10" d="M223.1,233.2v12.9"></path>		<path class="st7" d="M232.8,228.6h-5.4v5.2h5.4V228.6z"></path>		<path class="st10" d="M230.1,225.6v23.5"></path>		<path class="st7" d="M239.7,213.2h-5.4v12.1h5.4V213.2z"></path>		<path class="st10" d="M237,212.2v25.2"></path>		<path class="st7" d="M246.7,209.5h-5.4v5.4h5.4V209.5z"></path>		<path class="st10" d="M244,201.7v17.2"></path>		<path class="st7" d="M253.7,187.5h-5.4v24.8h5.4V187.5z"></path>		<path class="st10" d="M251,185v28.7"></path>		<path class="st7" d="M260.6,187.5h-5.4v3.8h5.4V187.5z"></path>		<path class="st10" d="M257.9,181.2v15.4"></path>		<path class="st7" d="M267.6,185.9h-5.4v5.4h5.4V185.9z"></path>		<path class="st10" d="M264.9,178v15.4"></path>		<path class="st7" d="M288.5,185.9H283v0.4h5.4V185.9z"></path>		<path class="st10" d="M285.8,181.2v12.2"></path>		<path class="st7" d="M295.4,185.9H290v0.4h5.4V185.9z"></path>		<path class="st10" d="M292.7,181.2v12.2"></path>		<path class="st7" d="M316.3,94.1h-5.4v37.2h5.4V94.1z"></path>		<path class="st10" d="M313.6,82.5V103"></path>		<path class="st7" d="M323.3,51.6h-5.4v37.8h5.4V51.6z"></path>		<path class="st10" d="M320.6,50.2v42.6"></path>		<path class="st7" d="M365.1,146.9h-5.4v12.2h5.4V146.9z"></path>		<path class="st10" d="M362.4,133.7v42.6"></path>		<path class="st7" d="M309.4,131.3h-5.4v37.9h5.4V131.3z"></path>		<path class="st10" d="M306.7,116.9v62.8"></path>		<path class="st11" d="M52.3,252.7h4.4v11.1h-4.4V252.7z"></path>		<path class="st9" d="M54.5,232.6v29.1"></path>		<path class="st7" d="M43.3,251h-5.4v28.9h5.4V251z"></path>		<path class="st10" d="M40.6,252.9v29.1"></path>	</g></g>  <rect x="28.7" y="-91.7" class="st4" width="82.3" height="66.9"></rect></svg>